%TF.GenerationSoftware,KiCad,Pcbnew,9.0.7*%
%TF.CreationDate,2026-03-31T13:19:37-05:00*%
%TF.ProjectId,ghost_host,67686f73-745f-4686-9f73-742e6b696361,rev?*%
%TF.SameCoordinates,Original*%
%TF.FileFunction,Profile,NP*%
%FSLAX46Y46*%
G04 Gerber Fmt 4.6, Leading zero omitted, Abs format (unit mm)*
G04 Created by KiCad (PCBNEW 9.0.7) date 2026-03-31 13:19:37*
%MOMM*%
%LPD*%
G01*
G04 APERTURE LIST*
%TA.AperFunction,Profile*%
%ADD10C,0.050000*%
%TD*%
G04 APERTURE END LIST*
D10*
X195780000Y-70920000D02*
G75*
G02*
X196780000Y-69920000I1000000J0D01*
G01*
X205780000Y-122415000D02*
X82280000Y-122415000D01*
X82280000Y-106415000D02*
X91300000Y-106415000D01*
X195780000Y-70920000D02*
X195780000Y-105415000D01*
X205780000Y-106415000D02*
G75*
G02*
X207780000Y-108415000I0J-2000000D01*
G01*
X205780000Y-53915000D02*
G75*
G02*
X207780000Y-55915000I0J-2000000D01*
G01*
X80280000Y-108415000D02*
G75*
G02*
X82280000Y-106415000I2000000J0D01*
G01*
X207780000Y-55915000D02*
X207780000Y-67920000D01*
X91280000Y-70410000D02*
G75*
G02*
X92280000Y-71410000I0J-1000000D01*
G01*
X207780000Y-120415000D02*
G75*
G02*
X205780000Y-122415000I-2000000J0D01*
G01*
X205780000Y-69920000D02*
X196780000Y-69920000D01*
X95250000Y-95900000D02*
G75*
G02*
X94250000Y-96900000I-1000000J0D01*
G01*
X93280000Y-78900000D02*
X94250000Y-78900000D01*
X92280000Y-77900000D02*
X92280000Y-71410000D01*
X93280000Y-78900000D02*
G75*
G02*
X92280000Y-77900000I0J1000000D01*
G01*
X95250000Y-79900000D02*
X95250000Y-95900000D01*
X92300000Y-105415000D02*
G75*
G02*
X91300000Y-106415000I-1000000J0D01*
G01*
X207780000Y-108415000D02*
X207780000Y-120415000D01*
X196780000Y-106415000D02*
X205780000Y-106415000D01*
X82280000Y-70410000D02*
G75*
G02*
X80280000Y-68410000I0J2000000D01*
G01*
X196780000Y-106415000D02*
G75*
G02*
X195780000Y-105415000I0J1000000D01*
G01*
X80280000Y-68410000D02*
X80280000Y-55915000D01*
X92300000Y-97900000D02*
G75*
G02*
X93300000Y-96900000I1000000J0D01*
G01*
X80280000Y-120415000D02*
X80280000Y-108415000D01*
X94250000Y-78900000D02*
G75*
G02*
X95250000Y-79900000I0J-1000000D01*
G01*
X92300000Y-105415000D02*
X92300000Y-97900000D01*
X91280000Y-70410000D02*
X82280000Y-70410000D01*
X80280000Y-55915000D02*
G75*
G02*
X82280000Y-53915000I2000000J0D01*
G01*
X207780000Y-67920000D02*
G75*
G02*
X205780000Y-69920000I-2000000J0D01*
G01*
X93300000Y-96900000D02*
X94250000Y-96900000D01*
X82280000Y-122415000D02*
G75*
G02*
X80280000Y-120415000I0J2000000D01*
G01*
X82280000Y-53915000D02*
X205780000Y-53915000D01*
M02*
