M48
; DRILL file {KiCad 9.0.7} date 2026-03-31T13:19:37-0500
; FORMAT={-:-/ absolute / inch / decimal}
; #@! TF.CreationDate,2026-03-31T13:19:37-05:00
; #@! TF.GenerationSoftware,Kicad,Pcbnew,9.0.7
; #@! TF.FileFunction,Plated,1,2,PTH
FMAT,2
INCH
; #@! TA.AperFunction,Plated,PTH,ViaDrill
T1C0.0118
; #@! TA.AperFunction,Plated,PTH,ComponentDrill
T2C0.0197
; #@! TA.AperFunction,Plated,PTH,ComponentDrill
T3C0.0236
; #@! TA.AperFunction,Plated,PTH,ComponentDrill
T4C0.0394
; #@! TA.AperFunction,Plated,PTH,ComponentDrill
T5C0.1772
%
G90
G05
T1
X3.7008Y-4.0866
X3.7008Y-4.1969
X3.8189Y-4.0827
X3.8189Y-4.1969
X3.8701Y-4.4105
X3.878Y-2.6378
X3.9646Y-4.3622
X4.0295Y-2.3209
X4.0311Y-3.786
X4.0827Y-4.3504
X4.0827Y-4.2972
X4.0906Y-2.7402
X4.1516Y-2.6201
X4.1614Y-3.626
X4.1614Y-3.6732
X4.1781Y-2.2586
X4.1781Y-4.6845
X4.1831Y-2.6201
X4.2106Y-4.3189
X4.2116Y-2.2586
X4.2116Y-4.6845
X4.2146Y-2.622
X4.2311Y-3.1167
X4.2323Y-3.9567
X4.2421Y-4.3189
X4.2461Y-2.622
X4.2736Y-4.3189
X4.2766Y-2.2565
X4.2766Y-4.6823
X4.2776Y-2.622
X4.2874Y-2.9803
X4.3051Y-4.3209
X4.3071Y-3.9567
X4.31Y-2.2565
X4.31Y-4.6823
X4.3366Y-4.3209
X4.3976Y-4.2008
X4.4055Y-2.5906
X4.4055Y-2.6437
X4.4311Y-3.786
X4.4429Y-2.9803
X4.4587Y-4.6201
X4.5311Y-3.1167
X4.5472Y-2.5906
X4.6102Y-4.3031
X4.6299Y-2.4213
X4.6772Y-2.7283
X4.7224Y-4.0059
X4.811Y-4.2126
X4.8782Y-2.6388
X5.0297Y-2.3219
X5.0827Y-4.3504
X5.0827Y-4.2972
X5.0908Y-2.7411
X5.1476Y-3.7402
X5.1518Y-2.6211
X5.1781Y-4.6845
X5.1784Y-2.2596
X5.1833Y-2.6211
X5.2106Y-4.3189
X5.2116Y-4.6845
X5.2118Y-2.2596
X5.2148Y-2.623
X5.2421Y-4.3189
X5.2463Y-2.623
X5.2736Y-4.3189
X5.2766Y-4.6823
X5.2768Y-2.2575
X5.2778Y-2.623
X5.3051Y-4.3209
X5.31Y-4.6823
X5.3102Y-2.2575
X5.3366Y-4.3209
X5.374Y-3.1772
X5.3976Y-4.2008
X5.4057Y-2.5915
X5.4057Y-2.6447
X5.4567Y-2.9606
X5.4587Y-4.6201
X5.4646Y-3.1496
X5.5157Y-3.9449
X5.5591Y-2.5512
X5.563Y-3.1142
X5.5827Y-3.9449
X5.6102Y-4.3031
X5.6575Y-3.0787
X5.6761Y-2.7283
X5.811Y-4.2126
X5.8789Y-2.6368
X6.0305Y-2.3199
X6.0669Y-3.7598
X6.0827Y-4.3504
X6.0827Y-4.2972
X6.0915Y-2.7392
X6.1526Y-2.6191
X6.1781Y-4.6845
X6.1791Y-2.2577
X6.1841Y-2.6191
X6.2106Y-4.3189
X6.2116Y-4.6845
X6.2126Y-2.2577
X6.2156Y-2.6211
X6.2421Y-4.3189
X6.247Y-2.6211
X6.2736Y-4.3189
X6.2766Y-4.6823
X6.2776Y-2.2555
X6.2785Y-2.6211
X6.3051Y-4.3209
X6.31Y-4.6823
X6.311Y-2.2555
X6.3366Y-4.3209
X6.3976Y-4.2008
X6.4065Y-2.5896
X6.4065Y-2.6427
X6.4587Y-4.6201
X6.563Y-2.5512
X6.6102Y-4.3031
X6.6781Y-2.7274
X6.811Y-4.2155
X6.8199Y-3.936
X6.877Y-2.6388
X7.0285Y-2.3219
X7.0827Y-4.3533
X7.0827Y-4.3002
X7.0896Y-2.7411
X7.1506Y-2.6211
X7.1772Y-2.2596
X7.1781Y-4.6874
X7.1821Y-2.6211
X7.2106Y-4.3218
X7.2106Y-2.2596
X7.2116Y-4.6874
X7.2136Y-2.623
X7.2421Y-4.3218
X7.2451Y-2.623
X7.2736Y-4.3218
X7.2756Y-2.2575
X7.2766Y-4.6852
X7.2766Y-2.623
X7.3051Y-4.3238
X7.3091Y-2.2575
X7.31Y-4.6852
X7.3366Y-4.3238
X7.3976Y-4.2037
X7.4045Y-2.5915
X7.4045Y-2.6447
X7.4587Y-4.623
X7.5591Y-2.5512
X7.6102Y-4.3061
X7.6762Y-2.7293
T2
X3.9567Y-2.185
X3.9567Y-2.2638
X3.9606Y-4.6772
X3.9606Y-4.7559
X4.0906Y-4.4409
X4.0906Y-4.5197
X4.3937Y-2.4213
X4.3937Y-2.5
X4.5276Y-2.185
X4.5276Y-2.2638
X4.5315Y-4.7559
X4.5315Y-4.6772
X4.9569Y-2.186
X4.9569Y-2.2648
X4.9606Y-4.6772
X4.9606Y-4.7559
X5.0906Y-4.4409
X5.0906Y-4.5197
X5.3937Y-2.4213
X5.3937Y-2.5
X5.5278Y-2.186
X5.5278Y-2.2648
X5.5315Y-4.7559
X5.5315Y-4.6772
X5.9577Y-2.1841
X5.9577Y-2.2628
X5.9606Y-4.6772
X5.9606Y-4.7559
X6.0906Y-4.4409
X6.0906Y-4.5197
X6.3937Y-2.4213
X6.3937Y-2.5
X6.5285Y-2.1841
X6.5285Y-2.2628
X6.5315Y-4.7559
X6.5315Y-4.6772
X6.9557Y-2.186
X6.9557Y-2.2648
X6.9606Y-4.6801
X6.9606Y-4.7588
X7.1181Y-4.4409
X7.1181Y-4.5197
X7.3937Y-2.4213
X7.3937Y-2.5
X7.5266Y-2.186
X7.5266Y-2.2648
X7.5315Y-4.7588
X7.5315Y-4.6801
T3
X3.2876Y-2.4711
X3.2876Y-4.4711
X3.3265Y-2.3771
X3.3265Y-2.565
X3.3265Y-4.3771
X3.3265Y-4.565
X3.4205Y-2.3382
X3.4205Y-2.6039
X3.4205Y-4.3382
X3.4205Y-4.6039
X3.5144Y-2.3771
X3.5144Y-2.565
X3.5144Y-4.3771
X3.5144Y-4.565
X3.5533Y-2.4711
X3.5533Y-4.4711
X6.2876Y-3.4711
X6.3265Y-3.3771
X6.3265Y-3.565
X6.4205Y-3.3382
X6.4205Y-3.6039
X6.5144Y-3.3771
X6.5144Y-3.565
X6.5533Y-3.4711
X6.7876Y-3.4711
X6.8265Y-3.3771
X6.8265Y-3.565
X6.9205Y-3.3382
X6.9205Y-3.6039
X7.0144Y-3.3771
X7.0144Y-3.565
X7.0533Y-3.4711
X7.7876Y-2.4711
X7.7876Y-4.4711
X7.8265Y-2.3771
X7.8265Y-2.565
X7.8265Y-4.3771
X7.8265Y-4.565
X7.9205Y-2.3382
X7.9205Y-2.6039
X7.9205Y-4.3382
X7.9205Y-4.6039
X8.0144Y-2.3771
X8.0144Y-2.565
X8.0144Y-4.3771
X8.0144Y-4.565
X8.0533Y-2.4711
X8.0533Y-4.4711
T4
X7.2657Y-3.3583
X7.2657Y-3.4583
X7.2657Y-3.5583
T5
X3.4205Y-2.4711
X3.4205Y-4.4711
X6.4205Y-3.4711
X6.9205Y-3.4711
X7.9205Y-2.4711
X7.9205Y-4.4711
M30
