%TF.GenerationSoftware,KiCad,Pcbnew,9.0.7*%
%TF.CreationDate,2026-03-31T16:11:29-05:00*%
%TF.ProjectId,solenoid_breakoutboard,736f6c65-6e6f-4696-945f-627265616b6f,rev?*%
%TF.SameCoordinates,Original*%
%TF.FileFunction,Copper,L2,Bot*%
%TF.FilePolarity,Positive*%
%FSLAX46Y46*%
G04 Gerber Fmt 4.6, Leading zero omitted, Abs format (unit mm)*
G04 Created by KiCad (PCBNEW 9.0.7) date 2026-03-31 16:11:29*
%MOMM*%
%LPD*%
G01*
G04 APERTURE LIST*
%TA.AperFunction,ComponentPad*%
%ADD10R,1.700000X1.700000*%
%TD*%
%TA.AperFunction,ComponentPad*%
%ADD11C,1.700000*%
%TD*%
%TA.AperFunction,ComponentPad*%
%ADD12C,4.000000*%
%TD*%
%TA.AperFunction,SMDPad,CuDef*%
%ADD13R,0.300000X1.600000*%
%TD*%
%TA.AperFunction,ViaPad*%
%ADD14C,0.600000*%
%TD*%
%TA.AperFunction,Conductor*%
%ADD15C,0.250000*%
%TD*%
%TA.AperFunction,Conductor*%
%ADD16C,0.150000*%
%TD*%
G04 APERTURE END LIST*
D10*
%TO.P,J2,1,Pin_1*%
%TO.N,+3.3V*%
X18500000Y42817500D03*
D11*
%TO.P,J2,2,Pin_2*%
%TO.N,Net-(J2-Pin_2)*%
X18500000Y40277500D03*
%TO.P,J2,3,Pin_3*%
%TO.N,+5V*%
X18500000Y37737500D03*
%TO.P,J2,4,Pin_4*%
%TO.N,GND*%
X18500000Y35197500D03*
%TD*%
D10*
%TO.P,J3,1,Pin_1*%
%TO.N,+3.3V*%
X-8000000Y42817500D03*
D11*
%TO.P,J3,2,Pin_2*%
%TO.N,Net-(J3-Pin_2)*%
X-8000000Y40277500D03*
%TO.P,J3,3,Pin_3*%
%TO.N,+5V*%
X-8000000Y37737500D03*
%TO.P,J3,4,Pin_4*%
%TO.N,GND*%
X-8000000Y35197500D03*
%TD*%
D10*
%TO.P,J1,1,Pin_1*%
%TO.N,+3.3V*%
X14500000Y42817500D03*
D11*
%TO.P,J1,2,Pin_2*%
%TO.N,Net-(J1-Pin_2)*%
X14500000Y40277500D03*
%TO.P,J1,3,Pin_3*%
%TO.N,+5V*%
X14500000Y37737500D03*
%TO.P,J1,4,Pin_4*%
%TO.N,GND*%
X14500000Y35197500D03*
%TD*%
D12*
%TO.P,,*%
%TO.N,*%
X2150000Y44700000D03*
%TD*%
D10*
%TO.P,J4,1,Pin_1*%
%TO.N,+3.3V*%
X-4000000Y42817500D03*
D11*
%TO.P,J4,2,Pin_2*%
%TO.N,Net-(J4-Pin_2)*%
X-4000000Y40277500D03*
%TO.P,J4,3,Pin_3*%
%TO.N,+5V*%
X-4000000Y37737500D03*
%TO.P,J4,4,Pin_4*%
%TO.N,GND*%
X-4000000Y35197500D03*
%TD*%
D12*
%TO.P,,*%
%TO.N,*%
X8500000Y32000000D03*
%TD*%
D13*
%TO.P,J5,1,Pin_1*%
%TO.N,unconnected-(J5-Pin_1-Pad1)*%
X1150000Y30200000D03*
%TO.P,J5,2,Pin_2*%
%TO.N,unconnected-(J5-Pin_2-Pad2)*%
X1650000Y30200000D03*
%TO.P,J5,3,Pin_3*%
%TO.N,unconnected-(J5-Pin_3-Pad3)*%
X2150000Y30200000D03*
%TO.P,J5,4,Pin_4*%
%TO.N,unconnected-(J5-Pin_4-Pad4)*%
X2650000Y30200000D03*
%TO.P,J5,5,Pin_5*%
%TO.N,unconnected-(J5-Pin_5-Pad5)*%
X3150000Y30200000D03*
%TO.P,J5,6,Pin_6*%
%TO.N,+5V*%
X1150000Y33800000D03*
%TO.P,J5,7,Pin_7*%
%TO.N,+3.3V*%
X1650000Y33800000D03*
%TO.P,J5,8,Pin_8*%
%TO.N,/sda*%
X2150000Y33800000D03*
%TO.P,J5,9,Pin_9*%
%TO.N,/scl*%
X2650000Y33800000D03*
%TO.P,J5,10,Pin_10*%
%TO.N,GND*%
X3150000Y33800000D03*
%TD*%
%TO.P,J6,1,Pin_1*%
%TO.N,unconnected-(J6-Pin_1-Pad1)*%
X9500000Y46500000D03*
%TO.P,J6,2,Pin_2*%
%TO.N,unconnected-(J6-Pin_2-Pad2)*%
X9000000Y46500000D03*
%TO.P,J6,3,Pin_3*%
%TO.N,unconnected-(J6-Pin_3-Pad3)*%
X8500000Y46500000D03*
%TO.P,J6,4,Pin_4*%
%TO.N,unconnected-(J6-Pin_4-Pad4)*%
X8000000Y46500000D03*
%TO.P,J6,5,Pin_5*%
%TO.N,unconnected-(J6-Pin_5-Pad5)*%
X7500000Y46500000D03*
%TO.P,J6,6,Pin_6*%
%TO.N,+5V*%
X9500000Y42900000D03*
%TO.P,J6,7,Pin_7*%
%TO.N,+3.3V*%
X9000000Y42900000D03*
%TO.P,J6,8,Pin_8*%
%TO.N,/sda*%
X8500000Y42900000D03*
%TO.P,J6,9,Pin_9*%
%TO.N,/scl*%
X8000000Y42900000D03*
%TO.P,J6,10,Pin_10*%
%TO.N,GND*%
X7500000Y42900000D03*
%TD*%
D14*
%TO.N,+5V*%
X-192000Y38080000D03*
%TO.N,GND*%
X4700000Y32600000D03*
X3500000Y37000000D03*
X5396000Y35540000D03*
X6100000Y42144000D03*
X9700000Y37400000D03*
%TO.N,+3.3V*%
X-1716000Y36048000D03*
X11492000Y38588000D03*
%TO.N,Net-(J1-Pin_2)*%
X7925000Y36500000D03*
X9500000Y36000000D03*
%TO.N,Net-(J2-Pin_2)*%
X2000000Y37000000D03*
X12000000Y34500000D03*
%TO.N,/scl*%
X2700000Y35103157D03*
X7700000Y41400000D03*
%TO.N,/sda*%
X8500000Y41400000D03*
X3300000Y32000000D03*
%TD*%
D15*
%TO.N,+5V*%
X14500000Y37737500D02*
X11617500Y40620000D01*
X5904000Y44684000D02*
X8670008Y44684000D01*
X1150000Y33800000D02*
X-192000Y35142000D01*
X9500000Y43854008D02*
X9500000Y42900000D01*
X-192000Y35142000D02*
X-192000Y38080000D01*
X9500000Y42200000D02*
X9500000Y42900000D01*
X11080000Y40620000D02*
X9500000Y42200000D01*
X8670008Y44684000D02*
X9500000Y43854008D01*
X-192000Y38588000D02*
X5904000Y44684000D01*
X11617500Y40620000D02*
X11080000Y40620000D01*
X-192000Y38080000D02*
X-192000Y38588000D01*
%TO.N,GND*%
X6100000Y42144000D02*
X6744000Y42144000D01*
X3150000Y33800000D02*
X3150000Y33150000D01*
X3700000Y32600000D02*
X4700000Y32600000D01*
X6744000Y42144000D02*
X7500000Y42900000D01*
X3150000Y33150000D02*
X3700000Y32600000D01*
%TO.N,+3.3V*%
X1650000Y33800000D02*
X1650000Y35350000D01*
X1332000Y38080000D02*
X1840000Y38588000D01*
X-1716000Y36048000D02*
X-1716000Y40533500D01*
X1650000Y35350000D02*
X1332000Y35668000D01*
X1332000Y35668000D02*
X1332000Y38080000D01*
X1840000Y38588000D02*
X11492000Y38588000D01*
X9000000Y42900000D02*
X9000000Y41798000D01*
X-1716000Y40533500D02*
X-4000000Y42817500D01*
X-1716000Y33316000D02*
X-700000Y32300000D01*
X9000000Y41798000D02*
X11492000Y39306000D01*
X11492000Y39306000D02*
X11492000Y38588000D01*
X1200000Y32300000D02*
X1650000Y32750000D01*
X-1716000Y36048000D02*
X-1716000Y33316000D01*
X-700000Y32300000D02*
X1200000Y32300000D01*
X1650000Y32750000D02*
X1650000Y33800000D01*
D16*
%TO.N,Net-(J1-Pin_2)*%
X8425000Y36000000D02*
X7925000Y36500000D01*
X9500000Y36000000D02*
X8425000Y36000000D01*
%TO.N,Net-(J2-Pin_2)*%
X12000000Y34500000D02*
X4500000Y34500000D01*
X4500000Y34500000D02*
X2000000Y37000000D01*
%TO.N,/scl*%
X7700000Y41400000D02*
X8000000Y41700000D01*
X8000000Y41700000D02*
X8000000Y42900000D01*
X2700000Y35103157D02*
X2700000Y35097000D01*
X2700000Y35097000D02*
X2650000Y35047000D01*
X2650000Y35047000D02*
X2650000Y33800000D01*
%TO.N,/sda*%
X8500000Y41400000D02*
X8500000Y42900000D01*
X2150000Y32450000D02*
X2150000Y33800000D01*
X2600000Y32000000D02*
X2150000Y32450000D01*
X3300000Y32000000D02*
X2600000Y32000000D01*
%TD*%
%TA.AperFunction,Conductor*%
%TO.N,GND*%
G36*
X6798588Y44050538D02*
G01*
X6826428Y44045657D01*
X6831671Y44040824D01*
X6838511Y44038815D01*
X6857013Y44017462D01*
X6877800Y43998300D01*
X6879597Y43991399D01*
X6884266Y43986011D01*
X6888288Y43958038D01*
X6895413Y43930687D01*
X6893659Y43920683D01*
X6894210Y43916853D01*
X6890308Y43901566D01*
X6889319Y43895923D01*
X6850429Y43777120D01*
X6810865Y43719531D01*
X6746446Y43692475D01*
X6677626Y43704540D01*
X6670583Y43708309D01*
X6662487Y43712983D01*
X6662486Y43712984D01*
X6662485Y43712984D01*
X6522475Y43750500D01*
X6377525Y43750500D01*
X6248993Y43716060D01*
X6237511Y43712983D01*
X6111988Y43640512D01*
X6111982Y43640507D01*
X6009493Y43538018D01*
X6009488Y43538012D01*
X5937017Y43412489D01*
X5937016Y43412485D01*
X5899500Y43272475D01*
X5899500Y43127525D01*
X5937016Y42987515D01*
X5937017Y42987512D01*
X6009488Y42861989D01*
X6009490Y42861987D01*
X6009491Y42861985D01*
X6111985Y42759491D01*
X6111986Y42759490D01*
X6111988Y42759489D01*
X6237511Y42687018D01*
X6237512Y42687018D01*
X6237515Y42687016D01*
X6377525Y42649500D01*
X6377528Y42649500D01*
X6522472Y42649500D01*
X6522475Y42649500D01*
X6662485Y42687016D01*
X6663992Y42687887D01*
X6665427Y42688235D01*
X6669999Y42690128D01*
X6670294Y42689416D01*
X6731890Y42704364D01*
X6797919Y42681517D01*
X6841114Y42626599D01*
X6850000Y42580504D01*
X6850000Y42052156D01*
X6856401Y41992628D01*
X6856402Y41992624D01*
X6906648Y41857909D01*
X6939376Y41814191D01*
X6963794Y41748726D01*
X6954672Y41692427D01*
X6930261Y41633495D01*
X6899500Y41478847D01*
X6899500Y41321154D01*
X6930261Y41166511D01*
X6930264Y41166499D01*
X6990602Y41020828D01*
X6990609Y41020815D01*
X7078209Y40889713D01*
X7078213Y40889708D01*
X7189707Y40778214D01*
X7189711Y40778211D01*
X7320814Y40690610D01*
X7320827Y40690603D01*
X7466498Y40630265D01*
X7466503Y40630263D01*
X7621153Y40599501D01*
X7621156Y40599500D01*
X7621158Y40599500D01*
X7778844Y40599500D01*
X7778845Y40599501D01*
X7933497Y40630263D01*
X8052548Y40679575D01*
X8122017Y40687044D01*
X8147453Y40679575D01*
X8266503Y40630263D01*
X8421153Y40599501D01*
X8421156Y40599500D01*
X8421158Y40599500D01*
X8578844Y40599500D01*
X8578845Y40599501D01*
X8733497Y40630263D01*
X8879179Y40690606D01*
X9000554Y40771707D01*
X9067230Y40792584D01*
X9134610Y40774100D01*
X9157125Y40756285D01*
X10488229Y39425181D01*
X10521714Y39363858D01*
X10516730Y39294166D01*
X10474858Y39238233D01*
X10409394Y39213816D01*
X10400548Y39213500D01*
X1778388Y39213500D01*
X1657555Y39189465D01*
X1657547Y39189463D01*
X1612956Y39170993D01*
X1543486Y39163526D01*
X1481008Y39194801D01*
X1445356Y39254891D01*
X1447851Y39324716D01*
X1477822Y39373233D01*
X6126771Y44022181D01*
X6188094Y44055666D01*
X6214452Y44058500D01*
X6771472Y44058500D01*
X6798588Y44050538D01*
G37*
%TD.AperFunction*%
%TA.AperFunction,Conductor*%
G36*
X20006061Y48048903D02*
G01*
X20124317Y48037256D01*
X20148145Y48032517D01*
X20256005Y47999798D01*
X20278453Y47990499D01*
X20377849Y47937371D01*
X20398059Y47923867D01*
X20485179Y47852370D01*
X20502369Y47835180D01*
X20573866Y47748060D01*
X20587370Y47727850D01*
X20624949Y47657545D01*
X20640495Y47628462D01*
X20649798Y47606003D01*
X20682514Y47498152D01*
X20687256Y47474312D01*
X20698903Y47356063D01*
X20699500Y47343908D01*
X20699500Y29356093D01*
X20698903Y29343939D01*
X20698903Y29343938D01*
X20687256Y29225689D01*
X20682514Y29201849D01*
X20649798Y29093998D01*
X20640495Y29071539D01*
X20587370Y28972151D01*
X20573866Y28951941D01*
X20502369Y28864821D01*
X20485179Y28847631D01*
X20398059Y28776134D01*
X20377849Y28762630D01*
X20278461Y28709505D01*
X20256002Y28700202D01*
X20148151Y28667486D01*
X20124311Y28662744D01*
X20037215Y28654166D01*
X20006060Y28651097D01*
X19993907Y28650500D01*
X-9493907Y28650500D01*
X-9506061Y28651097D01*
X-9556919Y28656107D01*
X-9624312Y28662744D01*
X-9648152Y28667486D01*
X-9756003Y28700202D01*
X-9778459Y28709504D01*
X-9877850Y28762630D01*
X-9898060Y28776134D01*
X-9985180Y28847631D01*
X-10002370Y28864821D01*
X-10073867Y28951941D01*
X-10087371Y28972151D01*
X-10140499Y29071547D01*
X-10149799Y29093998D01*
X-10169114Y29157672D01*
X-10182517Y29201855D01*
X-10187256Y29225683D01*
X-10198903Y29343939D01*
X-10199500Y29356093D01*
X-10199500Y43715365D01*
X-9350500Y43715365D01*
X-9350500Y41919630D01*
X-9350499Y41919624D01*
X-9344092Y41860017D01*
X-9293798Y41725172D01*
X-9293794Y41725165D01*
X-9207548Y41609956D01*
X-9207545Y41609953D01*
X-9092336Y41523707D01*
X-9092329Y41523703D01*
X-8960918Y41474690D01*
X-8904984Y41432819D01*
X-8880567Y41367355D01*
X-8895418Y41299082D01*
X-8916569Y41270827D01*
X-9030111Y41157285D01*
X-9155049Y40985321D01*
X-9251556Y40795915D01*
X-9317247Y40593740D01*
X-9350500Y40383787D01*
X-9350500Y40171214D01*
X-9317247Y39961261D01*
X-9251556Y39759086D01*
X-9155049Y39569680D01*
X-9030110Y39397714D01*
X-8879787Y39247391D01*
X-8707818Y39122450D01*
X-8699054Y39117984D01*
X-8648258Y39070009D01*
X-8631464Y39002188D01*
X-8654002Y38936053D01*
X-8699054Y38897016D01*
X-8707818Y38892551D01*
X-8879787Y38767610D01*
X-9030110Y38617287D01*
X-9155049Y38445321D01*
X-9251556Y38255915D01*
X-9317247Y38053740D01*
X-9335008Y37941602D01*
X-9350500Y37843787D01*
X-9350500Y37631213D01*
X-9349007Y37621789D01*
X-9331348Y37510289D01*
X-9317246Y37421257D01*
X-9256237Y37233490D01*
X-9251556Y37219086D01*
X-9155049Y37029680D01*
X-9030110Y36857714D01*
X-8879787Y36707391D01*
X-8707821Y36582452D01*
X-8707819Y36582451D01*
X-8707816Y36582449D01*
X-8698507Y36577706D01*
X-8647710Y36529734D01*
X-8630913Y36461913D01*
X-8653448Y36395778D01*
X-8698495Y36356740D01*
X-8707554Y36352124D01*
X-8707560Y36352120D01*
X-8761718Y36312773D01*
X-8761718Y36312772D01*
X-8129409Y35680463D01*
X-8192993Y35663425D01*
X-8307007Y35597599D01*
X-8400099Y35504507D01*
X-8465925Y35390493D01*
X-8482963Y35326909D01*
X-9115272Y35959218D01*
X-9115273Y35959218D01*
X-9154620Y35905061D01*
X-9251096Y35715718D01*
X-9316758Y35513631D01*
X-9316758Y35513628D01*
X-9350000Y35303747D01*
X-9350000Y35091254D01*
X-9316758Y34881373D01*
X-9316758Y34881370D01*
X-9251096Y34679283D01*
X-9154625Y34489950D01*
X-9115272Y34435784D01*
X-8482963Y35068092D01*
X-8465925Y35004507D01*
X-8400099Y34890493D01*
X-8307007Y34797401D01*
X-8192993Y34731575D01*
X-8129410Y34714538D01*
X-8761718Y34082231D01*
X-8761718Y34082230D01*
X-8707551Y34042876D01*
X-8518218Y33946405D01*
X-8316130Y33880743D01*
X-8106246Y33847500D01*
X-7893754Y33847500D01*
X-7683873Y33880743D01*
X-7683870Y33880743D01*
X-7481783Y33946405D01*
X-7292446Y34042878D01*
X-7238284Y34082230D01*
X-7238283Y34082230D01*
X-7870592Y34714538D01*
X-7807007Y34731575D01*
X-7692993Y34797401D01*
X-7599901Y34890493D01*
X-7534075Y35004507D01*
X-7517038Y35068091D01*
X-6884730Y34435783D01*
X-6884730Y34435784D01*
X-6845378Y34489946D01*
X-6748905Y34679283D01*
X-6683243Y34881370D01*
X-6683243Y34881373D01*
X-6650000Y35091254D01*
X-6650000Y35303747D01*
X-6683243Y35513628D01*
X-6683243Y35513631D01*
X-6748905Y35715718D01*
X-6845376Y35905051D01*
X-6884730Y35959218D01*
X-6884731Y35959218D01*
X-7517038Y35326910D01*
X-7534075Y35390493D01*
X-7599901Y35504507D01*
X-7692993Y35597599D01*
X-7807007Y35663425D01*
X-7870591Y35680463D01*
X-7238284Y36312772D01*
X-7292453Y36352127D01*
X-7292453Y36352128D01*
X-7301500Y36356737D01*
X-7352294Y36404712D01*
X-7369088Y36472534D01*
X-7346549Y36538668D01*
X-7301492Y36577707D01*
X-7292184Y36582449D01*
X-7201975Y36647989D01*
X-7120214Y36707391D01*
X-7120212Y36707394D01*
X-7120208Y36707396D01*
X-6969896Y36857708D01*
X-6969894Y36857712D01*
X-6969891Y36857714D01*
X-6844952Y37029680D01*
X-6844953Y37029680D01*
X-6844949Y37029684D01*
X-6748443Y37219088D01*
X-6682754Y37421257D01*
X-6649500Y37631213D01*
X-6649500Y37843787D01*
X-6682754Y38053743D01*
X-6748443Y38255912D01*
X-6844949Y38445316D01*
X-6844951Y38445319D01*
X-6844952Y38445321D01*
X-6969891Y38617287D01*
X-7120214Y38767610D01*
X-7292180Y38892549D01*
X-7292885Y38892909D01*
X-7300946Y38897015D01*
X-7351741Y38944988D01*
X-7368537Y39012808D01*
X-7346001Y39078944D01*
X-7300946Y39117985D01*
X-7292184Y39122449D01*
X-7199946Y39189463D01*
X-7120214Y39247391D01*
X-7120212Y39247394D01*
X-7120208Y39247396D01*
X-6969896Y39397708D01*
X-6969894Y39397712D01*
X-6969891Y39397714D01*
X-6844952Y39569680D01*
X-6844953Y39569680D01*
X-6844949Y39569684D01*
X-6748443Y39759088D01*
X-6682754Y39961257D01*
X-6649500Y40171213D01*
X-6649500Y40383787D01*
X-6682754Y40593743D01*
X-6748443Y40795912D01*
X-6844949Y40985316D01*
X-6844951Y40985319D01*
X-6844952Y40985321D01*
X-6969891Y41157287D01*
X-7083431Y41270827D01*
X-7116916Y41332150D01*
X-7111932Y41401842D01*
X-7070060Y41457775D01*
X-7039085Y41474690D01*
X-6907669Y41523704D01*
X-6792454Y41609954D01*
X-6706204Y41725169D01*
X-6655909Y41860017D01*
X-6649500Y41919627D01*
X-6649501Y43715365D01*
X-5350500Y43715365D01*
X-5350500Y41919630D01*
X-5350499Y41919624D01*
X-5344092Y41860017D01*
X-5293798Y41725172D01*
X-5293794Y41725165D01*
X-5207548Y41609956D01*
X-5207545Y41609953D01*
X-5092336Y41523707D01*
X-5092329Y41523703D01*
X-4960918Y41474690D01*
X-4904984Y41432819D01*
X-4880567Y41367355D01*
X-4895418Y41299082D01*
X-4916569Y41270827D01*
X-5030111Y41157285D01*
X-5155049Y40985321D01*
X-5251556Y40795915D01*
X-5317247Y40593740D01*
X-5350500Y40383787D01*
X-5350500Y40171214D01*
X-5317247Y39961261D01*
X-5251556Y39759086D01*
X-5155049Y39569680D01*
X-5030110Y39397714D01*
X-4879787Y39247391D01*
X-4707818Y39122450D01*
X-4699054Y39117984D01*
X-4648258Y39070009D01*
X-4631464Y39002188D01*
X-4654002Y38936053D01*
X-4699054Y38897016D01*
X-4707818Y38892551D01*
X-4879787Y38767610D01*
X-5030110Y38617287D01*
X-5155049Y38445321D01*
X-5251556Y38255915D01*
X-5317247Y38053740D01*
X-5335008Y37941602D01*
X-5350500Y37843787D01*
X-5350500Y37631213D01*
X-5349007Y37621789D01*
X-5331348Y37510289D01*
X-5317246Y37421257D01*
X-5256237Y37233490D01*
X-5251556Y37219086D01*
X-5155049Y37029680D01*
X-5030110Y36857714D01*
X-4879787Y36707391D01*
X-4707821Y36582452D01*
X-4707819Y36582451D01*
X-4707816Y36582449D01*
X-4698507Y36577706D01*
X-4647710Y36529734D01*
X-4630913Y36461913D01*
X-4653448Y36395778D01*
X-4698495Y36356740D01*
X-4707554Y36352124D01*
X-4707560Y36352120D01*
X-4761718Y36312773D01*
X-4761718Y36312772D01*
X-4129409Y35680463D01*
X-4192993Y35663425D01*
X-4307007Y35597599D01*
X-4400099Y35504507D01*
X-4465925Y35390493D01*
X-4482963Y35326909D01*
X-5115272Y35959218D01*
X-5115273Y35959218D01*
X-5154620Y35905061D01*
X-5251096Y35715718D01*
X-5316758Y35513631D01*
X-5316758Y35513628D01*
X-5350000Y35303747D01*
X-5350000Y35091254D01*
X-5316758Y34881373D01*
X-5316758Y34881370D01*
X-5251096Y34679283D01*
X-5154625Y34489950D01*
X-5115272Y34435784D01*
X-4482963Y35068092D01*
X-4465925Y35004507D01*
X-4400099Y34890493D01*
X-4307007Y34797401D01*
X-4192993Y34731575D01*
X-4129410Y34714538D01*
X-4761718Y34082231D01*
X-4761718Y34082230D01*
X-4707551Y34042876D01*
X-4518218Y33946405D01*
X-4316130Y33880743D01*
X-4106246Y33847500D01*
X-3893754Y33847500D01*
X-3683873Y33880743D01*
X-3683870Y33880743D01*
X-3481783Y33946405D01*
X-3292446Y34042878D01*
X-3238284Y34082230D01*
X-3238283Y34082230D01*
X-3870592Y34714538D01*
X-3807007Y34731575D01*
X-3692993Y34797401D01*
X-3599901Y34890493D01*
X-3534075Y35004507D01*
X-3517038Y35068091D01*
X-2884730Y34435783D01*
X-2884730Y34435784D01*
X-2845378Y34489946D01*
X-2748905Y34679283D01*
X-2683243Y34881370D01*
X-2683243Y34881373D01*
X-2650000Y35091254D01*
X-2650000Y35303747D01*
X-2683243Y35513628D01*
X-2683243Y35513631D01*
X-2748905Y35715718D01*
X-2845376Y35905051D01*
X-2884730Y35959218D01*
X-2884731Y35959218D01*
X-3517038Y35326910D01*
X-3534075Y35390493D01*
X-3599901Y35504507D01*
X-3692993Y35597599D01*
X-3807007Y35663425D01*
X-3870591Y35680463D01*
X-3238284Y36312772D01*
X-3292453Y36352127D01*
X-3292453Y36352128D01*
X-3301500Y36356737D01*
X-3352294Y36404712D01*
X-3369088Y36472534D01*
X-3346549Y36538668D01*
X-3301492Y36577707D01*
X-3292184Y36582449D01*
X-3201975Y36647989D01*
X-3120214Y36707391D01*
X-3120212Y36707394D01*
X-3120208Y36707396D01*
X-2969896Y36857708D01*
X-2969894Y36857712D01*
X-2969891Y36857714D01*
X-2844952Y37029680D01*
X-2844953Y37029680D01*
X-2844949Y37029684D01*
X-2748443Y37219088D01*
X-2682754Y37421257D01*
X-2649500Y37631213D01*
X-2649500Y37843787D01*
X-2682754Y38053743D01*
X-2748443Y38255912D01*
X-2844949Y38445316D01*
X-2844951Y38445319D01*
X-2844952Y38445321D01*
X-2969891Y38617287D01*
X-3120214Y38767610D01*
X-3292180Y38892549D01*
X-3292885Y38892909D01*
X-3300946Y38897015D01*
X-3351741Y38944988D01*
X-3368537Y39012808D01*
X-3346001Y39078944D01*
X-3300946Y39117985D01*
X-3292184Y39122449D01*
X-3199946Y39189463D01*
X-3120214Y39247391D01*
X-3120212Y39247394D01*
X-3120208Y39247396D01*
X-2969896Y39397708D01*
X-2969894Y39397712D01*
X-2969891Y39397714D01*
X-2844952Y39569680D01*
X-2844953Y39569680D01*
X-2844949Y39569684D01*
X-2748443Y39759088D01*
X-2682754Y39961257D01*
X-2649500Y40171213D01*
X-2649500Y40283048D01*
X-2643262Y40304294D01*
X-2641682Y40326382D01*
X-2633610Y40337166D01*
X-2629815Y40350087D01*
X-2613082Y40364587D01*
X-2599810Y40382315D01*
X-2587190Y40387023D01*
X-2577011Y40395842D01*
X-2555094Y40398994D01*
X-2534346Y40406732D01*
X-2521186Y40403870D01*
X-2507853Y40405786D01*
X-2487710Y40396587D01*
X-2466073Y40391880D01*
X-2448348Y40378612D01*
X-2444297Y40376761D01*
X-2437819Y40370729D01*
X-2377819Y40310729D01*
X-2344334Y40249406D01*
X-2341500Y40223048D01*
X-2341500Y36590350D01*
X-2361185Y36523311D01*
X-2362374Y36521497D01*
X-2369859Y36510293D01*
X-2425391Y36427185D01*
X-2425398Y36427172D01*
X-2485736Y36281502D01*
X-2485739Y36281490D01*
X-2516500Y36126847D01*
X-2516500Y35969154D01*
X-2485739Y35814511D01*
X-2485736Y35814499D01*
X-2425398Y35668828D01*
X-2425391Y35668816D01*
X-2362398Y35574541D01*
X-2341520Y35507864D01*
X-2341500Y35505650D01*
X-2341500Y33254389D01*
X-2317465Y33133556D01*
X-2317460Y33133539D01*
X-2270315Y33019719D01*
X-2270310Y33019710D01*
X-2254231Y32995648D01*
X-2248463Y32987016D01*
X-2201858Y32917267D01*
X-2114733Y32830142D01*
X-2114730Y32830140D01*
X-2106910Y32822320D01*
X-1188984Y31904394D01*
X-1188955Y31904363D01*
X-1098736Y31814144D01*
X-1098733Y31814142D01*
X-1047510Y31779916D01*
X-996286Y31745688D01*
X-915793Y31712348D01*
X-882452Y31698537D01*
X-822029Y31686519D01*
X-761607Y31674500D01*
X694344Y31674500D01*
X761383Y31654815D01*
X807138Y31602011D01*
X817082Y31532853D01*
X788057Y31469297D01*
X764106Y31449997D01*
X764769Y31449112D01*
X642455Y31357548D01*
X642452Y31357545D01*
X556206Y31242336D01*
X556202Y31242329D01*
X505908Y31107483D01*
X499501Y31047884D01*
X499501Y31047877D01*
X499500Y31047865D01*
X499500Y29352130D01*
X499501Y29352124D01*
X505908Y29292517D01*
X556202Y29157672D01*
X556206Y29157665D01*
X642452Y29042456D01*
X642455Y29042453D01*
X757664Y28956207D01*
X757671Y28956203D01*
X802618Y28939439D01*
X892517Y28905909D01*
X952127Y28899500D01*
X1347872Y28899501D01*
X1347873Y28899502D01*
X1347885Y28899502D01*
X1386744Y28903680D01*
X1413252Y28903680D01*
X1452127Y28899500D01*
X1847872Y28899501D01*
X1847873Y28899502D01*
X1847885Y28899502D01*
X1886744Y28903680D01*
X1913252Y28903680D01*
X1952127Y28899500D01*
X2347872Y28899501D01*
X2347873Y28899502D01*
X2347885Y28899502D01*
X2386744Y28903680D01*
X2413252Y28903680D01*
X2452127Y28899500D01*
X2847872Y28899501D01*
X2847873Y28899502D01*
X2847885Y28899502D01*
X2886744Y28903680D01*
X2913252Y28903680D01*
X2952127Y28899500D01*
X3347872Y28899501D01*
X3407483Y28905909D01*
X3542331Y28956204D01*
X3657546Y29042454D01*
X3743796Y29157669D01*
X3794091Y29292517D01*
X3800500Y29352127D01*
X3800499Y31047872D01*
X3794091Y31107483D01*
X3750778Y31223612D01*
X3745794Y31293304D01*
X3779279Y31354627D01*
X3798070Y31370047D01*
X3810289Y31378211D01*
X3921789Y31489711D01*
X4009394Y31620821D01*
X4069737Y31766503D01*
X4100500Y31921158D01*
X4100500Y32078842D01*
X4100500Y32078845D01*
X4100499Y32078847D01*
X4069738Y32233490D01*
X4069737Y32233497D01*
X4069735Y32233502D01*
X4009397Y32379173D01*
X4009390Y32379186D01*
X3921789Y32510289D01*
X3921786Y32510293D01*
X3810292Y32621787D01*
X3810287Y32621791D01*
X3797643Y32630239D01*
X3779868Y32651507D01*
X3759650Y32670475D01*
X3757774Y32677943D01*
X3752837Y32683850D01*
X3749381Y32711357D01*
X3742629Y32738240D01*
X3744705Y32748577D01*
X3744128Y32753175D01*
X3749028Y32772949D01*
X3799913Y32923911D01*
X3812476Y32941861D01*
X3820861Y32962105D01*
X3832119Y32969923D01*
X3839979Y32981151D01*
X3860253Y32989459D01*
X3878251Y33001956D01*
X3891948Y33002447D01*
X3904632Y33007643D01*
X3926179Y33003671D01*
X3948076Y33004454D01*
X3969699Y32995648D01*
X3973344Y32994976D01*
X3974874Y32993541D01*
X3979418Y32991690D01*
X3987509Y32987019D01*
X3987510Y32987018D01*
X3987512Y32987018D01*
X3987515Y32987016D01*
X4127525Y32949500D01*
X4127528Y32949500D01*
X4272472Y32949500D01*
X4272475Y32949500D01*
X4412485Y32987016D01*
X4538015Y33059491D01*
X4640509Y33161985D01*
X4712984Y33287515D01*
X4750500Y33427525D01*
X4750500Y33572475D01*
X4712984Y33712485D01*
X4712791Y33712819D01*
X4697965Y33738500D01*
X4681492Y33806401D01*
X4704345Y33872427D01*
X4759266Y33915618D01*
X4805352Y33924500D01*
X6588897Y33924500D01*
X6655936Y33904815D01*
X6701691Y33852011D01*
X6711635Y33782853D01*
X6682610Y33719297D01*
X6676578Y33712819D01*
X6632583Y33668825D01*
X6457476Y33449247D01*
X6308053Y33211443D01*
X6186200Y32958412D01*
X6093443Y32693330D01*
X6093439Y32693318D01*
X6030945Y32419513D01*
X6030942Y32419495D01*
X5999500Y32140432D01*
X5999500Y31859569D01*
X6030942Y31580506D01*
X6030945Y31580488D01*
X6093439Y31306683D01*
X6093443Y31306671D01*
X6186200Y31041589D01*
X6308053Y30788558D01*
X6308055Y30788555D01*
X6457477Y30550752D01*
X6632584Y30331175D01*
X6831175Y30132584D01*
X7050752Y29957477D01*
X7288555Y29808055D01*
X7541592Y29686199D01*
X7740680Y29616535D01*
X7806670Y29593444D01*
X7806682Y29593440D01*
X8080491Y29530945D01*
X8080497Y29530945D01*
X8080505Y29530943D01*
X8266547Y29509982D01*
X8359569Y29499501D01*
X8359572Y29499500D01*
X8359575Y29499500D01*
X8640428Y29499500D01*
X8640429Y29499501D01*
X8783055Y29515571D01*
X8919494Y29530943D01*
X8919499Y29530944D01*
X8919509Y29530945D01*
X9193318Y29593440D01*
X9458408Y29686199D01*
X9711445Y29808055D01*
X9949248Y29957477D01*
X10168825Y30132584D01*
X10367416Y30331175D01*
X10542523Y30550752D01*
X10691945Y30788555D01*
X10813801Y31041592D01*
X10906560Y31306682D01*
X10969055Y31580491D01*
X10973599Y31620815D01*
X10984429Y31716945D01*
X11000500Y31859575D01*
X11000500Y32140425D01*
X10973599Y32379179D01*
X10969057Y32419495D01*
X10969054Y32419513D01*
X10906560Y32693318D01*
X10906556Y32693330D01*
X10836857Y32892517D01*
X10813801Y32958408D01*
X10691945Y33211445D01*
X10542523Y33449248D01*
X10367416Y33668825D01*
X10323422Y33712819D01*
X10289937Y33774142D01*
X10294921Y33843834D01*
X10336793Y33899767D01*
X10402257Y33924184D01*
X10411103Y33924500D01*
X11392059Y33924500D01*
X11459098Y33904815D01*
X11479740Y33888181D01*
X11489707Y33878214D01*
X11489711Y33878211D01*
X11620814Y33790610D01*
X11620827Y33790603D01*
X11746617Y33738500D01*
X11766503Y33730263D01*
X11921153Y33699501D01*
X11921156Y33699500D01*
X11921158Y33699500D01*
X12078844Y33699500D01*
X12078845Y33699501D01*
X12233497Y33730263D01*
X12346166Y33776933D01*
X12379172Y33790603D01*
X12379172Y33790604D01*
X12379179Y33790606D01*
X12510289Y33878211D01*
X12621789Y33989711D01*
X12709394Y34120821D01*
X12711660Y34126292D01*
X12732640Y34176941D01*
X12769735Y34266499D01*
X12769737Y34266503D01*
X12800500Y34421158D01*
X12800500Y34578842D01*
X12800500Y34578845D01*
X12800499Y34578847D01*
X12769738Y34733490D01*
X12769737Y34733497D01*
X12758230Y34761277D01*
X12709397Y34879173D01*
X12709390Y34879186D01*
X12621789Y35010289D01*
X12621786Y35010293D01*
X12510292Y35121787D01*
X12510288Y35121790D01*
X12384982Y35205517D01*
X12384981Y35205518D01*
X12379186Y35209390D01*
X12379172Y35209398D01*
X12233501Y35269736D01*
X12233489Y35269739D01*
X12078845Y35300500D01*
X12078842Y35300500D01*
X11921158Y35300500D01*
X11921155Y35300500D01*
X11766510Y35269739D01*
X11766498Y35269736D01*
X11620827Y35209398D01*
X11620814Y35209391D01*
X11489711Y35121790D01*
X11489707Y35121787D01*
X11479740Y35111819D01*
X11418417Y35078334D01*
X11392059Y35075500D01*
X9966024Y35075500D01*
X9898985Y35095185D01*
X9853230Y35147989D01*
X9843286Y35217147D01*
X9872311Y35280703D01*
X9897133Y35302602D01*
X9954246Y35340764D01*
X10010289Y35378211D01*
X10121789Y35489711D01*
X10209394Y35620821D01*
X10269737Y35766503D01*
X10300500Y35921158D01*
X10300500Y36078842D01*
X10300500Y36078845D01*
X10300499Y36078847D01*
X10269738Y36233490D01*
X10269737Y36233497D01*
X10249853Y36281502D01*
X10209397Y36379173D01*
X10209390Y36379186D01*
X10121789Y36510289D01*
X10121786Y36510293D01*
X10010292Y36621787D01*
X10010288Y36621790D01*
X9879185Y36709391D01*
X9879172Y36709398D01*
X9733501Y36769736D01*
X9733489Y36769739D01*
X9578845Y36800500D01*
X9578842Y36800500D01*
X9421158Y36800500D01*
X9421155Y36800500D01*
X9266510Y36769739D01*
X9266498Y36769736D01*
X9120827Y36709398D01*
X9120814Y36709391D01*
X8989711Y36621790D01*
X8989707Y36621787D01*
X8979740Y36611819D01*
X8952812Y36597116D01*
X8926994Y36580523D01*
X8920793Y36579632D01*
X8918417Y36578334D01*
X8892059Y36575500D01*
X8827929Y36575500D01*
X8760890Y36595185D01*
X8715135Y36647989D01*
X8706312Y36675308D01*
X8694738Y36733492D01*
X8694737Y36733493D01*
X8694737Y36733497D01*
X8694735Y36733502D01*
X8634397Y36879173D01*
X8634390Y36879186D01*
X8546789Y37010289D01*
X8546786Y37010293D01*
X8435292Y37121787D01*
X8435288Y37121790D01*
X8304185Y37209391D01*
X8304172Y37209398D01*
X8158501Y37269736D01*
X8158489Y37269739D01*
X8003845Y37300500D01*
X8003842Y37300500D01*
X7846158Y37300500D01*
X7846155Y37300500D01*
X7691510Y37269739D01*
X7691498Y37269736D01*
X7545827Y37209398D01*
X7545814Y37209391D01*
X7414711Y37121790D01*
X7414707Y37121787D01*
X7303213Y37010293D01*
X7303210Y37010289D01*
X7215609Y36879186D01*
X7215602Y36879173D01*
X7155264Y36733502D01*
X7155261Y36733490D01*
X7124500Y36578847D01*
X7124500Y36421154D01*
X7155261Y36266511D01*
X7155264Y36266499D01*
X7215602Y36120828D01*
X7215609Y36120815D01*
X7303210Y35989712D01*
X7303213Y35989708D01*
X7414707Y35878214D01*
X7414711Y35878211D01*
X7545814Y35790610D01*
X7545827Y35790603D01*
X7646912Y35748733D01*
X7691503Y35730263D01*
X7846153Y35699501D01*
X7846156Y35699500D01*
X7846158Y35699500D01*
X7860258Y35699500D01*
X7927297Y35679815D01*
X7947939Y35663181D01*
X7964485Y35646635D01*
X8071635Y35539485D01*
X8202865Y35463719D01*
X8349234Y35424500D01*
X8892059Y35424500D01*
X8959098Y35404815D01*
X8963958Y35401527D01*
X8972410Y35395512D01*
X8989711Y35378211D01*
X9104366Y35301601D01*
X9105875Y35300527D01*
X9126389Y35274457D01*
X9147672Y35248990D01*
X9147908Y35247109D01*
X9149081Y35245618D01*
X9152245Y35212578D01*
X9156379Y35179665D01*
X9155561Y35177956D01*
X9155742Y35176066D01*
X9140547Y35146575D01*
X9126225Y35116637D01*
X9124609Y35115640D01*
X9123742Y35113955D01*
X9095021Y35097363D01*
X9066781Y35079918D01*
X9064232Y35079575D01*
X9063243Y35079003D01*
X9060834Y35079118D01*
X9033976Y35075500D01*
X4789742Y35075500D01*
X4722703Y35095185D01*
X4702061Y35111819D01*
X2836819Y36977061D01*
X2803334Y37038384D01*
X2800500Y37064742D01*
X2800500Y37078845D01*
X2800499Y37078847D01*
X2774531Y37209394D01*
X2769737Y37233497D01*
X2769735Y37233502D01*
X2709397Y37379173D01*
X2709390Y37379186D01*
X2621789Y37510289D01*
X2621786Y37510293D01*
X2510292Y37621787D01*
X2510288Y37621790D01*
X2379185Y37709391D01*
X2379172Y37709398D01*
X2344065Y37723939D01*
X2289661Y37767779D01*
X2267596Y37834073D01*
X2284875Y37901773D01*
X2336012Y37949384D01*
X2391517Y37962500D01*
X10949650Y37962500D01*
X11016689Y37942815D01*
X11018541Y37941602D01*
X11112821Y37878606D01*
X11112823Y37878605D01*
X11112827Y37878603D01*
X11258498Y37818265D01*
X11258503Y37818263D01*
X11413153Y37787501D01*
X11413156Y37787500D01*
X11413158Y37787500D01*
X11570844Y37787500D01*
X11570845Y37787501D01*
X11725497Y37818263D01*
X11871179Y37878606D01*
X12002289Y37966211D01*
X12113789Y38077711D01*
X12201394Y38208821D01*
X12261737Y38354503D01*
X12292500Y38509158D01*
X12292500Y38666842D01*
X12292500Y38666845D01*
X12292499Y38666847D01*
X12274524Y38757216D01*
X12280751Y38826807D01*
X12323614Y38881985D01*
X12389504Y38905229D01*
X12457501Y38889161D01*
X12483820Y38869090D01*
X12836865Y38516044D01*
X13157571Y38195338D01*
X13191056Y38134015D01*
X13187821Y38069340D01*
X13182754Y38053747D01*
X13164992Y37941602D01*
X13149500Y37843787D01*
X13149500Y37631213D01*
X13150993Y37621789D01*
X13168652Y37510289D01*
X13182754Y37421257D01*
X13243763Y37233490D01*
X13248444Y37219086D01*
X13344951Y37029680D01*
X13469890Y36857714D01*
X13620213Y36707391D01*
X13792179Y36582452D01*
X13792181Y36582451D01*
X13792184Y36582449D01*
X13801493Y36577706D01*
X13852290Y36529734D01*
X13869087Y36461913D01*
X13846552Y36395778D01*
X13801505Y36356740D01*
X13792446Y36352124D01*
X13792440Y36352120D01*
X13738282Y36312773D01*
X13738282Y36312772D01*
X14370591Y35680463D01*
X14307007Y35663425D01*
X14192993Y35597599D01*
X14099901Y35504507D01*
X14034075Y35390493D01*
X14017037Y35326909D01*
X13384728Y35959218D01*
X13384727Y35959218D01*
X13345380Y35905061D01*
X13248904Y35715718D01*
X13183242Y35513631D01*
X13183242Y35513628D01*
X13150000Y35303747D01*
X13150000Y35091254D01*
X13183242Y34881373D01*
X13183242Y34881370D01*
X13248904Y34679283D01*
X13345375Y34489950D01*
X13384728Y34435784D01*
X14017037Y35068092D01*
X14034075Y35004507D01*
X14099901Y34890493D01*
X14192993Y34797401D01*
X14307007Y34731575D01*
X14370590Y34714538D01*
X13738282Y34082231D01*
X13738282Y34082230D01*
X13792449Y34042876D01*
X13981782Y33946405D01*
X14183870Y33880743D01*
X14393754Y33847500D01*
X14606246Y33847500D01*
X14816127Y33880743D01*
X14816130Y33880743D01*
X15018217Y33946405D01*
X15207554Y34042878D01*
X15261716Y34082230D01*
X15261717Y34082230D01*
X14629408Y34714538D01*
X14692993Y34731575D01*
X14807007Y34797401D01*
X14900099Y34890493D01*
X14965925Y35004507D01*
X14982962Y35068092D01*
X15615270Y34435783D01*
X15615270Y34435784D01*
X15654622Y34489946D01*
X15751095Y34679283D01*
X15816757Y34881370D01*
X15816757Y34881373D01*
X15850000Y35091254D01*
X15850000Y35303747D01*
X15816757Y35513628D01*
X15816757Y35513631D01*
X15751095Y35715718D01*
X15654624Y35905051D01*
X15615270Y35959218D01*
X15615269Y35959218D01*
X14982962Y35326910D01*
X14965925Y35390493D01*
X14900099Y35504507D01*
X14807007Y35597599D01*
X14692993Y35663425D01*
X14629409Y35680463D01*
X15261716Y36312772D01*
X15207547Y36352127D01*
X15207547Y36352128D01*
X15198500Y36356737D01*
X15147706Y36404712D01*
X15130912Y36472534D01*
X15153451Y36538668D01*
X15198508Y36577707D01*
X15207816Y36582449D01*
X15298025Y36647989D01*
X15379786Y36707391D01*
X15379788Y36707394D01*
X15379792Y36707396D01*
X15530104Y36857708D01*
X15530106Y36857712D01*
X15530109Y36857714D01*
X15655048Y37029680D01*
X15655047Y37029680D01*
X15655051Y37029684D01*
X15751557Y37219088D01*
X15817246Y37421257D01*
X15850500Y37631213D01*
X15850500Y37843787D01*
X15817246Y38053743D01*
X15751557Y38255912D01*
X15655051Y38445316D01*
X15655049Y38445319D01*
X15655048Y38445321D01*
X15530109Y38617287D01*
X15379786Y38767610D01*
X15207820Y38892549D01*
X15207115Y38892909D01*
X15199054Y38897015D01*
X15148259Y38944988D01*
X15131463Y39012808D01*
X15153999Y39078944D01*
X15199054Y39117985D01*
X15207816Y39122449D01*
X15300054Y39189463D01*
X15379786Y39247391D01*
X15379788Y39247394D01*
X15379792Y39247396D01*
X15530104Y39397708D01*
X15530106Y39397712D01*
X15530109Y39397714D01*
X15655048Y39569680D01*
X15655047Y39569680D01*
X15655051Y39569684D01*
X15751557Y39759088D01*
X15817246Y39961257D01*
X15850500Y40171213D01*
X15850500Y40383787D01*
X15817246Y40593743D01*
X15751557Y40795912D01*
X15655051Y40985316D01*
X15655049Y40985319D01*
X15655048Y40985321D01*
X15530109Y41157287D01*
X15416569Y41270827D01*
X15383084Y41332150D01*
X15388068Y41401842D01*
X15429940Y41457775D01*
X15460915Y41474690D01*
X15592331Y41523704D01*
X15707546Y41609954D01*
X15793796Y41725169D01*
X15844091Y41860017D01*
X15850500Y41919627D01*
X15850499Y43715365D01*
X17149500Y43715365D01*
X17149500Y41919630D01*
X17149501Y41919624D01*
X17155908Y41860017D01*
X17206202Y41725172D01*
X17206206Y41725165D01*
X17292452Y41609956D01*
X17292455Y41609953D01*
X17407664Y41523707D01*
X17407671Y41523703D01*
X17539082Y41474690D01*
X17595016Y41432819D01*
X17619433Y41367355D01*
X17604582Y41299082D01*
X17583431Y41270827D01*
X17469889Y41157285D01*
X17344951Y40985321D01*
X17248444Y40795915D01*
X17182753Y40593740D01*
X17149500Y40383787D01*
X17149500Y40171214D01*
X17182753Y39961261D01*
X17248444Y39759086D01*
X17344951Y39569680D01*
X17469890Y39397714D01*
X17620213Y39247391D01*
X17792182Y39122450D01*
X17800946Y39117984D01*
X17851742Y39070009D01*
X17868536Y39002188D01*
X17845998Y38936053D01*
X17800946Y38897016D01*
X17792182Y38892551D01*
X17620213Y38767610D01*
X17469890Y38617287D01*
X17344951Y38445321D01*
X17248444Y38255915D01*
X17182753Y38053740D01*
X17164992Y37941602D01*
X17149500Y37843787D01*
X17149500Y37631213D01*
X17150993Y37621789D01*
X17168652Y37510289D01*
X17182754Y37421257D01*
X17243763Y37233490D01*
X17248444Y37219086D01*
X17344951Y37029680D01*
X17469890Y36857714D01*
X17620213Y36707391D01*
X17792179Y36582452D01*
X17792181Y36582451D01*
X17792184Y36582449D01*
X17801493Y36577706D01*
X17852290Y36529734D01*
X17869087Y36461913D01*
X17846552Y36395778D01*
X17801505Y36356740D01*
X17792446Y36352124D01*
X17792440Y36352120D01*
X17738282Y36312773D01*
X17738282Y36312772D01*
X18370591Y35680463D01*
X18307007Y35663425D01*
X18192993Y35597599D01*
X18099901Y35504507D01*
X18034075Y35390493D01*
X18017037Y35326909D01*
X17384728Y35959218D01*
X17384727Y35959218D01*
X17345380Y35905061D01*
X17248904Y35715718D01*
X17183242Y35513631D01*
X17183242Y35513628D01*
X17150000Y35303747D01*
X17150000Y35091254D01*
X17183242Y34881373D01*
X17183242Y34881370D01*
X17248904Y34679283D01*
X17345375Y34489950D01*
X17384728Y34435784D01*
X18017037Y35068092D01*
X18034075Y35004507D01*
X18099901Y34890493D01*
X18192993Y34797401D01*
X18307007Y34731575D01*
X18370590Y34714538D01*
X17738282Y34082231D01*
X17738282Y34082230D01*
X17792449Y34042876D01*
X17981782Y33946405D01*
X18183870Y33880743D01*
X18393754Y33847500D01*
X18606246Y33847500D01*
X18816127Y33880743D01*
X18816130Y33880743D01*
X19018217Y33946405D01*
X19207554Y34042878D01*
X19261716Y34082230D01*
X19261717Y34082230D01*
X18629408Y34714538D01*
X18692993Y34731575D01*
X18807007Y34797401D01*
X18900099Y34890493D01*
X18965925Y35004507D01*
X18982962Y35068092D01*
X19615270Y34435783D01*
X19615270Y34435784D01*
X19654622Y34489946D01*
X19751095Y34679283D01*
X19816757Y34881370D01*
X19816757Y34881373D01*
X19850000Y35091254D01*
X19850000Y35303747D01*
X19816757Y35513628D01*
X19816757Y35513631D01*
X19751095Y35715718D01*
X19654624Y35905051D01*
X19615270Y35959218D01*
X19615269Y35959218D01*
X18982962Y35326910D01*
X18965925Y35390493D01*
X18900099Y35504507D01*
X18807007Y35597599D01*
X18692993Y35663425D01*
X18629409Y35680463D01*
X19261716Y36312772D01*
X19207547Y36352127D01*
X19207547Y36352128D01*
X19198500Y36356737D01*
X19147706Y36404712D01*
X19130912Y36472534D01*
X19153451Y36538668D01*
X19198508Y36577707D01*
X19207816Y36582449D01*
X19298025Y36647989D01*
X19379786Y36707391D01*
X19379788Y36707394D01*
X19379792Y36707396D01*
X19530104Y36857708D01*
X19530106Y36857712D01*
X19530109Y36857714D01*
X19655048Y37029680D01*
X19655047Y37029680D01*
X19655051Y37029684D01*
X19751557Y37219088D01*
X19817246Y37421257D01*
X19850500Y37631213D01*
X19850500Y37843787D01*
X19817246Y38053743D01*
X19751557Y38255912D01*
X19655051Y38445316D01*
X19655049Y38445319D01*
X19655048Y38445321D01*
X19530109Y38617287D01*
X19379786Y38767610D01*
X19207820Y38892549D01*
X19207115Y38892909D01*
X19199054Y38897015D01*
X19148259Y38944988D01*
X19131463Y39012808D01*
X19153999Y39078944D01*
X19199054Y39117985D01*
X19207816Y39122449D01*
X19300054Y39189463D01*
X19379786Y39247391D01*
X19379788Y39247394D01*
X19379792Y39247396D01*
X19530104Y39397708D01*
X19530106Y39397712D01*
X19530109Y39397714D01*
X19655048Y39569680D01*
X19655047Y39569680D01*
X19655051Y39569684D01*
X19751557Y39759088D01*
X19817246Y39961257D01*
X19850500Y40171213D01*
X19850500Y40383787D01*
X19817246Y40593743D01*
X19751557Y40795912D01*
X19655051Y40985316D01*
X19655049Y40985319D01*
X19655048Y40985321D01*
X19530109Y41157287D01*
X19416569Y41270827D01*
X19383084Y41332150D01*
X19388068Y41401842D01*
X19429940Y41457775D01*
X19460915Y41474690D01*
X19592331Y41523704D01*
X19707546Y41609954D01*
X19793796Y41725169D01*
X19844091Y41860017D01*
X19850500Y41919627D01*
X19850499Y43715372D01*
X19844091Y43774983D01*
X19831969Y43807483D01*
X19793797Y43909829D01*
X19793793Y43909836D01*
X19707547Y44025045D01*
X19707544Y44025048D01*
X19592335Y44111294D01*
X19592328Y44111298D01*
X19457482Y44161592D01*
X19457483Y44161592D01*
X19397883Y44167999D01*
X19397881Y44168000D01*
X19397873Y44168000D01*
X19397864Y44168000D01*
X17602129Y44168000D01*
X17602123Y44167999D01*
X17542516Y44161592D01*
X17407671Y44111298D01*
X17407664Y44111294D01*
X17292455Y44025048D01*
X17292452Y44025045D01*
X17206206Y43909836D01*
X17206202Y43909829D01*
X17155908Y43774983D01*
X17149947Y43719531D01*
X17149501Y43715377D01*
X17149500Y43715365D01*
X15850499Y43715365D01*
X15850499Y43715372D01*
X15844091Y43774983D01*
X15831969Y43807483D01*
X15793797Y43909829D01*
X15793793Y43909836D01*
X15707547Y44025045D01*
X15707544Y44025048D01*
X15592335Y44111294D01*
X15592328Y44111298D01*
X15457482Y44161592D01*
X15457483Y44161592D01*
X15397883Y44167999D01*
X15397881Y44168000D01*
X15397873Y44168000D01*
X15397864Y44168000D01*
X13602129Y44168000D01*
X13602123Y44167999D01*
X13542516Y44161592D01*
X13407671Y44111298D01*
X13407664Y44111294D01*
X13292455Y44025048D01*
X13292452Y44025045D01*
X13206206Y43909836D01*
X13206202Y43909829D01*
X13155908Y43774983D01*
X13149947Y43719531D01*
X13149501Y43715377D01*
X13149500Y43715365D01*
X13149500Y41919630D01*
X13149501Y41919624D01*
X13155908Y41860017D01*
X13206202Y41725172D01*
X13206206Y41725165D01*
X13292452Y41609956D01*
X13292455Y41609953D01*
X13407664Y41523707D01*
X13407671Y41523703D01*
X13539082Y41474690D01*
X13595016Y41432819D01*
X13619433Y41367355D01*
X13604582Y41299082D01*
X13583431Y41270827D01*
X13469889Y41157285D01*
X13344951Y40985321D01*
X13248444Y40795915D01*
X13182753Y40593740D01*
X13149500Y40383787D01*
X13149500Y40271952D01*
X13129815Y40204913D01*
X13077011Y40159158D01*
X13007853Y40149214D01*
X12944297Y40178239D01*
X12937819Y40184271D01*
X12114037Y41008053D01*
X12103359Y41018731D01*
X12103358Y41018733D01*
X12016233Y41105858D01*
X11939257Y41157292D01*
X11933358Y41161234D01*
X11913785Y41174313D01*
X11834222Y41207268D01*
X11834221Y41207269D01*
X11827008Y41210256D01*
X11799952Y41221463D01*
X11739529Y41233482D01*
X11735227Y41234338D01*
X11735226Y41234338D01*
X11679110Y41245500D01*
X11679107Y41245500D01*
X11679106Y41245500D01*
X11390453Y41245500D01*
X11323414Y41265185D01*
X11302772Y41281819D01*
X10186818Y42397773D01*
X10172114Y42424701D01*
X10155522Y42450519D01*
X10154630Y42456720D01*
X10153333Y42459096D01*
X10150499Y42485454D01*
X10150499Y42580216D01*
X10170184Y42647255D01*
X10222988Y42693010D01*
X10292146Y42702954D01*
X10329900Y42689885D01*
X10330001Y42690128D01*
X10334091Y42688434D01*
X10336508Y42687598D01*
X10337515Y42687016D01*
X10477525Y42649500D01*
X10477528Y42649500D01*
X10622472Y42649500D01*
X10622475Y42649500D01*
X10762485Y42687016D01*
X10888015Y42759491D01*
X10990509Y42861985D01*
X11062984Y42987515D01*
X11100500Y43127525D01*
X11100500Y43272475D01*
X11062984Y43412485D01*
X10990509Y43538015D01*
X10888015Y43640509D01*
X10888013Y43640510D01*
X10888011Y43640512D01*
X10762488Y43712983D01*
X10762489Y43712983D01*
X10751006Y43716060D01*
X10622475Y43750500D01*
X10477525Y43750500D01*
X10379108Y43724130D01*
X10337510Y43712983D01*
X10337509Y43712982D01*
X10329888Y43708582D01*
X10261987Y43692113D01*
X10195961Y43714968D01*
X10152773Y43769891D01*
X10148756Y43781587D01*
X10145758Y43791974D01*
X10144091Y43807483D01*
X10131670Y43840785D01*
X10130363Y43845315D01*
X10130396Y43852561D01*
X10125500Y43879700D01*
X10125500Y43915615D01*
X10125499Y43915619D01*
X10120186Y43942331D01*
X10101463Y44036460D01*
X10057003Y44143796D01*
X10054312Y44150293D01*
X10054310Y44150296D01*
X10054309Y44150299D01*
X10041134Y44170015D01*
X10041132Y44170018D01*
X10037256Y44175818D01*
X9985858Y44252741D01*
X9898733Y44339866D01*
X9898729Y44339869D01*
X9250778Y44987820D01*
X9217293Y45049143D01*
X9222277Y45118835D01*
X9264149Y45174768D01*
X9329613Y45199185D01*
X9338433Y45199501D01*
X9697872Y45199501D01*
X9757483Y45205909D01*
X9892331Y45256204D01*
X10007546Y45342454D01*
X10093796Y45457669D01*
X10144091Y45592517D01*
X10150500Y45652127D01*
X10150499Y47347872D01*
X10144091Y47407483D01*
X10119165Y47474312D01*
X10093797Y47542329D01*
X10093793Y47542336D01*
X10007547Y47657545D01*
X10007544Y47657548D01*
X9892335Y47743794D01*
X9892328Y47743798D01*
X9757486Y47794090D01*
X9757485Y47794091D01*
X9757483Y47794091D01*
X9697873Y47800500D01*
X9697863Y47800500D01*
X9302130Y47800500D01*
X9302119Y47800499D01*
X9263253Y47796321D01*
X9236748Y47796321D01*
X9197874Y47800500D01*
X8802130Y47800500D01*
X8802119Y47800499D01*
X8763253Y47796321D01*
X8736748Y47796321D01*
X8697874Y47800500D01*
X8302130Y47800500D01*
X8302119Y47800499D01*
X8263253Y47796321D01*
X8236748Y47796321D01*
X8197874Y47800500D01*
X7802130Y47800500D01*
X7802119Y47800499D01*
X7763253Y47796321D01*
X7736748Y47796321D01*
X7697874Y47800500D01*
X7302129Y47800500D01*
X7302123Y47800499D01*
X7242516Y47794092D01*
X7107671Y47743798D01*
X7107664Y47743794D01*
X6992455Y47657548D01*
X6992452Y47657545D01*
X6906206Y47542336D01*
X6906202Y47542329D01*
X6855908Y47407483D01*
X6849501Y47347884D01*
X6849501Y47347877D01*
X6849500Y47347865D01*
X6849500Y45652130D01*
X6849501Y45652124D01*
X6855908Y45592517D01*
X6899056Y45476833D01*
X6904040Y45407141D01*
X6870555Y45345818D01*
X6809231Y45312334D01*
X6782874Y45309500D01*
X5842389Y45309500D01*
X5791535Y45299385D01*
X5791530Y45299384D01*
X5781971Y45297482D01*
X5721548Y45285463D01*
X5674397Y45265933D01*
X5607715Y45238312D01*
X5607714Y45238311D01*
X5585347Y45223367D01*
X5585344Y45223365D01*
X5505268Y45169860D01*
X5461705Y45126297D01*
X5418142Y45082733D01*
X4862181Y44526772D01*
X4800858Y44493287D01*
X4731166Y44498271D01*
X4675233Y44540143D01*
X4650816Y44605607D01*
X4650500Y44614453D01*
X4650500Y44840428D01*
X4650499Y44840432D01*
X4619057Y45119495D01*
X4619054Y45119513D01*
X4606442Y45174768D01*
X4556560Y45393318D01*
X4463801Y45658408D01*
X4341945Y45911445D01*
X4192523Y46149248D01*
X4017416Y46368825D01*
X3818825Y46567416D01*
X3599248Y46742523D01*
X3361445Y46891945D01*
X3361442Y46891947D01*
X3108411Y47013800D01*
X2843329Y47106557D01*
X2843317Y47106561D01*
X2569512Y47169055D01*
X2569494Y47169058D01*
X2290431Y47200500D01*
X2290425Y47200500D01*
X2009575Y47200500D01*
X2009568Y47200500D01*
X1730505Y47169058D01*
X1730487Y47169055D01*
X1456682Y47106561D01*
X1456670Y47106557D01*
X1191588Y47013800D01*
X938557Y46891947D01*
X700753Y46742524D01*
X481175Y46567417D01*
X282583Y46368825D01*
X107476Y46149247D01*
X-41947Y45911443D01*
X-163800Y45658412D01*
X-256557Y45393330D01*
X-256561Y45393318D01*
X-319055Y45119513D01*
X-319058Y45119495D01*
X-350500Y44840432D01*
X-350500Y44559569D01*
X-319058Y44280506D01*
X-319055Y44280488D01*
X-256561Y44006683D01*
X-256557Y44006671D01*
X-163800Y43741589D01*
X-41947Y43488558D01*
X-41945Y43488555D01*
X107477Y43250752D01*
X282584Y43031175D01*
X481175Y42832584D01*
X700752Y42657477D01*
X938555Y42508055D01*
X1191592Y42386199D01*
X1390680Y42316535D01*
X1456670Y42293444D01*
X1456682Y42293440D01*
X1730491Y42230945D01*
X1730497Y42230945D01*
X1730505Y42230943D01*
X1916547Y42209982D01*
X2009569Y42199501D01*
X2009572Y42199500D01*
X2235547Y42199500D01*
X2302586Y42179815D01*
X2348341Y42127011D01*
X2358285Y42057853D01*
X2329260Y41994297D01*
X2323228Y41987819D01*
X-677856Y38986736D01*
X-677862Y38986728D01*
X-746310Y38884292D01*
X-746312Y38884287D01*
X-772881Y38820144D01*
X-772880Y38820143D01*
X-786533Y38787183D01*
X-786534Y38787180D01*
X-790442Y38777744D01*
X-793463Y38770451D01*
X-811163Y38681463D01*
X-811546Y38679540D01*
X-811552Y38679512D01*
X-817500Y38649609D01*
X-817500Y38622350D01*
X-822828Y38604207D01*
X-823165Y38585297D01*
X-836666Y38557080D01*
X-837185Y38555311D01*
X-838374Y38553497D01*
X-863398Y38516044D01*
X-917010Y38471239D01*
X-986335Y38462532D01*
X-1049363Y38492687D01*
X-1086082Y38552130D01*
X-1090500Y38584935D01*
X-1090500Y40595107D01*
X-1090501Y40595111D01*
X-1097493Y40630263D01*
X-1114537Y40715952D01*
X-1137631Y40771706D01*
X-1150366Y40802452D01*
X-1161686Y40829781D01*
X-1161690Y40829788D01*
X-1201730Y40889712D01*
X-1201730Y40889711D01*
X-1230142Y40932233D01*
X-1230145Y40932236D01*
X-1230147Y40932239D01*
X-1320363Y41022455D01*
X-1320394Y41022484D01*
X-2613182Y42315272D01*
X-2646667Y42376595D01*
X-2649501Y42402953D01*
X-2649501Y43715371D01*
X-2649502Y43715377D01*
X-2649503Y43715384D01*
X-2655909Y43774983D01*
X-2668031Y43807483D01*
X-2706203Y43909829D01*
X-2706207Y43909836D01*
X-2792453Y44025045D01*
X-2792456Y44025048D01*
X-2907665Y44111294D01*
X-2907672Y44111298D01*
X-3042518Y44161592D01*
X-3042517Y44161592D01*
X-3102117Y44167999D01*
X-3102119Y44168000D01*
X-3102127Y44168000D01*
X-3102136Y44168000D01*
X-4897871Y44168000D01*
X-4897877Y44167999D01*
X-4957484Y44161592D01*
X-5092329Y44111298D01*
X-5092336Y44111294D01*
X-5207545Y44025048D01*
X-5207548Y44025045D01*
X-5293794Y43909836D01*
X-5293798Y43909829D01*
X-5344092Y43774983D01*
X-5350053Y43719531D01*
X-5350499Y43715377D01*
X-5350500Y43715365D01*
X-6649501Y43715365D01*
X-6649501Y43715372D01*
X-6655909Y43774983D01*
X-6668031Y43807483D01*
X-6706203Y43909829D01*
X-6706207Y43909836D01*
X-6792453Y44025045D01*
X-6792456Y44025048D01*
X-6907665Y44111294D01*
X-6907672Y44111298D01*
X-7042518Y44161592D01*
X-7042517Y44161592D01*
X-7102117Y44167999D01*
X-7102119Y44168000D01*
X-7102127Y44168000D01*
X-7102136Y44168000D01*
X-8897871Y44168000D01*
X-8897877Y44167999D01*
X-8957484Y44161592D01*
X-9092329Y44111298D01*
X-9092336Y44111294D01*
X-9207545Y44025048D01*
X-9207548Y44025045D01*
X-9293794Y43909836D01*
X-9293798Y43909829D01*
X-9344092Y43774983D01*
X-9350053Y43719531D01*
X-9350499Y43715377D01*
X-9350500Y43715365D01*
X-10199500Y43715365D01*
X-10199500Y47343908D01*
X-10198903Y47356062D01*
X-10198903Y47356063D01*
X-10187256Y47474322D01*
X-10182517Y47498144D01*
X-10149797Y47606010D01*
X-10140501Y47628451D01*
X-10087368Y47727856D01*
X-10073867Y47748060D01*
X-10036091Y47794090D01*
X-10002365Y47835186D01*
X-9985186Y47852365D01*
X-9898058Y47923869D01*
X-9877856Y47937368D01*
X-9778451Y47990501D01*
X-9756010Y47999797D01*
X-9648144Y48032517D01*
X-9624318Y48037256D01*
X-9524270Y48047110D01*
X-9506060Y48048903D01*
X-9493907Y48049500D01*
X-9452405Y48049500D01*
X19952405Y48049500D01*
X19993907Y48049500D01*
X20006061Y48048903D01*
G37*
%TD.AperFunction*%
%TD*%
M02*
