%TF.GenerationSoftware,KiCad,Pcbnew,9.0.7*%
%TF.CreationDate,2026-03-31T16:11:29-05:00*%
%TF.ProjectId,solenoid_breakoutboard,736f6c65-6e6f-4696-945f-627265616b6f,rev?*%
%TF.SameCoordinates,Original*%
%TF.FileFunction,Legend,Top*%
%TF.FilePolarity,Positive*%
%FSLAX46Y46*%
G04 Gerber Fmt 4.6, Leading zero omitted, Abs format (unit mm)*
G04 Created by KiCad (PCBNEW 9.0.7) date 2026-03-31 16:11:29*
%MOMM*%
%LPD*%
G01*
G04 APERTURE LIST*
G04 Aperture macros list*
%AMRoundRect*
0 Rectangle with rounded corners*
0 $1 Rounding radius*
0 $2 $3 $4 $5 $6 $7 $8 $9 X,Y pos of 4 corners*
0 Add a 4 corners polygon primitive as box body*
4,1,4,$2,$3,$4,$5,$6,$7,$8,$9,$2,$3,0*
0 Add four circle primitives for the rounded corners*
1,1,$1+$1,$2,$3*
1,1,$1+$1,$4,$5*
1,1,$1+$1,$6,$7*
1,1,$1+$1,$8,$9*
0 Add four rect primitives between the rounded corners*
20,1,$1+$1,$2,$3,$4,$5,0*
20,1,$1+$1,$4,$5,$6,$7,0*
20,1,$1+$1,$6,$7,$8,$9,0*
20,1,$1+$1,$8,$9,$2,$3,0*%
G04 Aperture macros list end*
%ADD10C,0.000000*%
%ADD11C,0.100000*%
%ADD12C,0.150000*%
%ADD13C,0.120000*%
%ADD14RoundRect,0.155000X-0.155000X0.212500X-0.155000X-0.212500X0.155000X-0.212500X0.155000X0.212500X0*%
%ADD15R,1.700000X1.700000*%
%ADD16C,1.700000*%
%ADD17C,4.000000*%
%ADD18R,1.100000X0.400000*%
%ADD19RoundRect,0.155000X0.155000X-0.212500X0.155000X0.212500X-0.155000X0.212500X-0.155000X-0.212500X0*%
%ADD20C,0.600000*%
G04 APERTURE END LIST*
D10*
G36*
X1208149Y32569200D02*
G01*
X1240398Y32568481D01*
X1272641Y32567547D01*
X1272641Y32527859D01*
X1247991Y32527394D01*
X1215590Y32527032D01*
X1201431Y32526951D01*
X1188379Y32527200D01*
X1182160Y32527479D01*
X1176088Y32527877D01*
X1170119Y32528406D01*
X1164210Y32529079D01*
X1158318Y32529908D01*
X1152398Y32530905D01*
X1146409Y32532081D01*
X1140306Y32533450D01*
X1134046Y32535023D01*
X1127586Y32536812D01*
X1120882Y32538830D01*
X1113891Y32541088D01*
X1122686Y32549827D01*
X1126365Y32553372D01*
X1129680Y32556425D01*
X1132713Y32559028D01*
X1135552Y32561223D01*
X1138280Y32563054D01*
X1139629Y32563846D01*
X1140982Y32564562D01*
X1142350Y32565209D01*
X1143744Y32565791D01*
X1145173Y32566314D01*
X1146650Y32566782D01*
X1149785Y32567579D01*
X1153234Y32568223D01*
X1157083Y32568758D01*
X1161415Y32569226D01*
X1171872Y32570131D01*
X1208149Y32569200D01*
G37*
G36*
X1235601Y30918898D02*
G01*
X1238053Y30910695D01*
X1242423Y30894351D01*
X1246172Y30878038D01*
X1249409Y30861696D01*
X1252243Y30845264D01*
X1254783Y30828684D01*
X1259412Y30794838D01*
X1252823Y30800613D01*
X1247629Y30805225D01*
X1243366Y30809140D01*
X1239568Y30812822D01*
X1235770Y30816736D01*
X1231506Y30821349D01*
X1226313Y30827123D01*
X1219724Y30834526D01*
X1219920Y30847109D01*
X1220513Y30858991D01*
X1221513Y30870377D01*
X1222930Y30881475D01*
X1224773Y30892493D01*
X1227052Y30903637D01*
X1229775Y30915113D01*
X1232953Y30927130D01*
X1235601Y30918898D01*
G37*
G36*
X68787Y30755151D02*
G01*
X95245Y30755151D01*
X98604Y30730966D01*
X102686Y30698927D01*
X104515Y30683382D01*
X105195Y30675920D01*
X105707Y30668626D01*
X106042Y30661468D01*
X106188Y30654418D01*
X106138Y30647444D01*
X105881Y30640517D01*
X105408Y30633606D01*
X104710Y30626683D01*
X103776Y30619715D01*
X102598Y30612674D01*
X101165Y30605529D01*
X99468Y30598251D01*
X97498Y30590808D01*
X95245Y30583172D01*
X72378Y30654537D01*
X62999Y30684044D01*
X55488Y30707654D01*
X48302Y30731134D01*
X41511Y30754572D01*
X35183Y30778056D01*
X29386Y30801674D01*
X24190Y30825514D01*
X19661Y30849665D01*
X15870Y30874214D01*
X42328Y30860984D01*
X55557Y31032963D01*
X68787Y31032963D01*
X68787Y30755151D01*
G37*
G36*
X492120Y30173068D02*
G01*
X425974Y30186297D01*
X412745Y30239214D01*
X478891Y30239214D01*
X492120Y30173068D01*
G37*
G36*
X1113891Y30331818D02*
G01*
X1074203Y30318589D01*
X994828Y30397963D01*
X1034516Y30411193D01*
X1113891Y30331818D01*
G37*
G36*
X1682745Y31257859D02*
G01*
X1709203Y31257859D01*
X1762120Y31019734D01*
X1753361Y31024145D01*
X1749766Y31026017D01*
X1746616Y31027737D01*
X1743853Y31029357D01*
X1741420Y31030930D01*
X1739257Y31032509D01*
X1738258Y31033317D01*
X1737306Y31034146D01*
X1736392Y31035002D01*
X1735510Y31035893D01*
X1733809Y31037804D01*
X1732146Y31039932D01*
X1730463Y31042327D01*
X1728700Y31045045D01*
X1726801Y31048135D01*
X1722358Y31055649D01*
X1708428Y31085053D01*
X1692951Y31117661D01*
X1676957Y31152026D01*
X1663625Y31180296D01*
X1650703Y31208570D01*
X1638221Y31236914D01*
X1626209Y31265394D01*
X1614698Y31294075D01*
X1603718Y31323024D01*
X1593299Y31352306D01*
X1583471Y31381986D01*
X1576912Y31403380D01*
X1550453Y31403380D01*
X1550453Y31535672D01*
X1563682Y31535672D01*
X1682745Y31257859D01*
G37*
G36*
X1247303Y32638156D02*
G01*
X1270688Y32636562D01*
X1293269Y32633901D01*
X1315127Y32630199D01*
X1336341Y32625483D01*
X1356994Y32619783D01*
X1377166Y32613124D01*
X1396939Y32605535D01*
X1416393Y32597043D01*
X1435609Y32587676D01*
X1454669Y32577460D01*
X1473653Y32566425D01*
X1492643Y32554597D01*
X1511718Y32542003D01*
X1530962Y32528672D01*
X1550453Y32514630D01*
X1622636Y32452617D01*
X1652084Y32425240D01*
X1677653Y32398762D01*
X1699757Y32372042D01*
X1718807Y32343940D01*
X1735216Y32313315D01*
X1749398Y32279027D01*
X1761764Y32239934D01*
X1772727Y32194896D01*
X1782700Y32142773D01*
X1792096Y32082424D01*
X1810807Y31932485D01*
X1832159Y31735953D01*
X1835126Y31707728D01*
X1841133Y31653752D01*
X1843732Y31625383D01*
X1844833Y31615248D01*
X1846014Y31606382D01*
X1847434Y31597711D01*
X1849253Y31588161D01*
X1854724Y31562130D01*
X1860229Y31551383D01*
X1865863Y31541362D01*
X1871655Y31532007D01*
X1877632Y31523255D01*
X1883821Y31515047D01*
X1890250Y31507320D01*
X1896946Y31500014D01*
X1903938Y31493066D01*
X1911251Y31486417D01*
X1918915Y31480004D01*
X1926956Y31473767D01*
X1935402Y31467644D01*
X1944281Y31461573D01*
X1953619Y31455495D01*
X1973787Y31443068D01*
X1973787Y31482755D01*
X1982052Y31502933D01*
X1990803Y31523352D01*
X2000078Y31543890D01*
X2009914Y31564424D01*
X2020350Y31584829D01*
X2031422Y31604984D01*
X2043170Y31624765D01*
X2055631Y31644049D01*
X2068841Y31662712D01*
X2082841Y31680631D01*
X2097666Y31697683D01*
X2113355Y31713746D01*
X2121535Y31721367D01*
X2129945Y31728695D01*
X2138591Y31735714D01*
X2147475Y31742408D01*
X2156605Y31748762D01*
X2165983Y31754761D01*
X2175615Y31760390D01*
X2185505Y31765632D01*
X2196866Y31768920D01*
X2208380Y31771802D01*
X2220024Y31774267D01*
X2231773Y31776302D01*
X2243604Y31777894D01*
X2255491Y31779032D01*
X2267410Y31779702D01*
X2279338Y31779893D01*
X2291251Y31779593D01*
X2303123Y31778788D01*
X2314931Y31777468D01*
X2326650Y31775618D01*
X2338257Y31773227D01*
X2349727Y31770283D01*
X2361036Y31766774D01*
X2372160Y31762686D01*
X2386133Y31753511D01*
X2399361Y31743661D01*
X2411870Y31733171D01*
X2423683Y31722078D01*
X2434827Y31710416D01*
X2445325Y31698222D01*
X2455203Y31685530D01*
X2464486Y31672377D01*
X2473199Y31658798D01*
X2481367Y31644828D01*
X2489014Y31630502D01*
X2496166Y31615857D01*
X2502847Y31600928D01*
X2509082Y31585751D01*
X2514897Y31570360D01*
X2520317Y31554792D01*
X2528015Y31512274D01*
X2534437Y31466508D01*
X2536928Y31442787D01*
X2538811Y31418709D01*
X2539988Y31394426D01*
X2540365Y31370091D01*
X2539843Y31345854D01*
X2538328Y31321867D01*
X2535721Y31298283D01*
X2531928Y31275254D01*
X2526851Y31252930D01*
X2520394Y31231464D01*
X2512460Y31211008D01*
X2502953Y31191713D01*
X2469053Y31165255D01*
X2456715Y31147260D01*
X2451708Y31139726D01*
X2447395Y31132934D01*
X2443715Y31126708D01*
X2440608Y31120873D01*
X2438013Y31115253D01*
X2435869Y31109672D01*
X2434117Y31103955D01*
X2432695Y31097925D01*
X2431543Y31091409D01*
X2430600Y31084229D01*
X2429806Y31076210D01*
X2429101Y31067177D01*
X2427712Y31045366D01*
X2425190Y31001614D01*
X2421465Y30958481D01*
X2416520Y30915828D01*
X2410340Y30873516D01*
X2402906Y30831406D01*
X2394203Y30789361D01*
X2384214Y30747241D01*
X2372922Y30704908D01*
X2364047Y30674122D01*
X2354024Y30638121D01*
X2348820Y30620909D01*
X2345990Y30612508D01*
X2342941Y30604247D01*
X2339622Y30596129D01*
X2335980Y30588155D01*
X2331966Y30580329D01*
X2327528Y30572651D01*
X2322615Y30565126D01*
X2317176Y30557755D01*
X2311160Y30550540D01*
X2304516Y30543484D01*
X2313175Y30584631D01*
X2320680Y30626517D01*
X2327031Y30669036D01*
X2332227Y30712084D01*
X2336268Y30755554D01*
X2339154Y30799341D01*
X2340886Y30843339D01*
X2341464Y30887443D01*
X2340886Y30931546D01*
X2339154Y30975544D01*
X2336268Y31019331D01*
X2332227Y31062801D01*
X2327031Y31105849D01*
X2320680Y31148369D01*
X2313175Y31190254D01*
X2304516Y31231401D01*
X2299775Y31135253D01*
X2292876Y31039675D01*
X2283545Y30944805D01*
X2271508Y30850780D01*
X2256491Y30757736D01*
X2238221Y30665810D01*
X2216424Y30575141D01*
X2190825Y30485863D01*
X2161152Y30398116D01*
X2127129Y30312034D01*
X2088485Y30227757D01*
X2044944Y30145420D01*
X1996233Y30065160D01*
X1942078Y29987115D01*
X1882205Y29911422D01*
X1816342Y29838217D01*
X1795193Y29816707D01*
X1774974Y29796075D01*
X1763471Y29784815D01*
X1758272Y29779810D01*
X1753326Y29775215D01*
X1748549Y29771022D01*
X1743856Y29767225D01*
X1739161Y29763819D01*
X1734378Y29760798D01*
X1729424Y29758155D01*
X1724211Y29755884D01*
X1718655Y29753980D01*
X1712671Y29752435D01*
X1706174Y29751244D01*
X1699077Y29750401D01*
X1691296Y29749900D01*
X1682745Y29749734D01*
X1719721Y29793469D01*
X1753557Y29837503D01*
X1784366Y29881916D01*
X1812259Y29926789D01*
X1837350Y29972200D01*
X1859750Y30018232D01*
X1879573Y30064963D01*
X1896931Y30112474D01*
X1911937Y30160845D01*
X1924702Y30210156D01*
X1935340Y30260488D01*
X1943963Y30311920D01*
X1950684Y30364532D01*
X1955615Y30418406D01*
X1958869Y30473620D01*
X1960557Y30530255D01*
X1934099Y30530255D01*
X1934513Y30520214D01*
X1934724Y30510350D01*
X1934729Y30500641D01*
X1934528Y30491065D01*
X1934117Y30481601D01*
X1933495Y30472227D01*
X1932661Y30462922D01*
X1931613Y30453665D01*
X1930349Y30444433D01*
X1928867Y30435206D01*
X1927165Y30425962D01*
X1925242Y30416679D01*
X1923095Y30407336D01*
X1920724Y30397911D01*
X1915299Y30378730D01*
X1906814Y30352488D01*
X1893067Y30310915D01*
X1878490Y30269621D01*
X1863036Y30228666D01*
X1846654Y30188114D01*
X1829295Y30148025D01*
X1810910Y30108462D01*
X1791448Y30069487D01*
X1770861Y30031162D01*
X1749098Y29993548D01*
X1726111Y29956707D01*
X1701850Y29920701D01*
X1676266Y29885593D01*
X1649309Y29851443D01*
X1620929Y29818314D01*
X1591077Y29786268D01*
X1559703Y29755367D01*
X1523995Y29723276D01*
X1512179Y29712531D01*
X1500273Y29702170D01*
X1488266Y29692173D01*
X1476147Y29682520D01*
X1463908Y29673188D01*
X1451537Y29664159D01*
X1439025Y29655412D01*
X1426362Y29646926D01*
X1400539Y29630655D01*
X1373989Y29615183D01*
X1346630Y29600347D01*
X1318381Y29585981D01*
X1287524Y29571141D01*
X1250714Y29552650D01*
X1241982Y29548442D01*
X1233337Y29544541D01*
X1224726Y29541019D01*
X1216099Y29537947D01*
X1207405Y29535396D01*
X1198591Y29533435D01*
X1189608Y29532138D01*
X1185036Y29531759D01*
X1180403Y29531573D01*
X1175702Y29531588D01*
X1170926Y29531813D01*
X1166070Y29532257D01*
X1161126Y29532928D01*
X1156088Y29533836D01*
X1150950Y29534989D01*
X1145706Y29536397D01*
X1140349Y29538068D01*
X1158913Y29548326D01*
X1177156Y29558789D01*
X1195089Y29569475D01*
X1212722Y29580401D01*
X1230068Y29591585D01*
X1247135Y29603043D01*
X1263936Y29614792D01*
X1280482Y29626851D01*
X1296782Y29639235D01*
X1312848Y29651963D01*
X1328691Y29665052D01*
X1344321Y29678518D01*
X1359749Y29692379D01*
X1374987Y29706653D01*
X1390044Y29721356D01*
X1404933Y29736505D01*
X1422165Y29757503D01*
X1438231Y29778540D01*
X1453123Y29799670D01*
X1466835Y29820945D01*
X1479362Y29842419D01*
X1490698Y29864144D01*
X1500836Y29886175D01*
X1509771Y29908563D01*
X1517497Y29931362D01*
X1524008Y29954625D01*
X1529298Y29978405D01*
X1533361Y30002756D01*
X1536191Y30027730D01*
X1537782Y30053380D01*
X1538129Y30079760D01*
X1537224Y30106922D01*
X1528017Y30067029D01*
X1523314Y30048724D01*
X1520779Y30039849D01*
X1518062Y30031107D01*
X1515116Y30022461D01*
X1511897Y30013872D01*
X1508359Y30005302D01*
X1504458Y29996713D01*
X1500147Y29988066D01*
X1495382Y29979324D01*
X1490117Y29970449D01*
X1484307Y29961401D01*
X1484307Y30040776D01*
X1457849Y30040776D01*
X1451604Y30020813D01*
X1445084Y30000935D01*
X1438332Y29981135D01*
X1431391Y29961401D01*
X1412482Y29926764D01*
X1392235Y29893792D01*
X1370668Y29862450D01*
X1347805Y29832706D01*
X1323665Y29804527D01*
X1298269Y29777881D01*
X1271638Y29752734D01*
X1243794Y29729054D01*
X1214756Y29706807D01*
X1184547Y29685961D01*
X1153186Y29666484D01*
X1120695Y29648341D01*
X1087095Y29631501D01*
X1052407Y29615930D01*
X1016651Y29601596D01*
X979849Y29588465D01*
X951833Y29579409D01*
X927347Y29571891D01*
X903304Y29565498D01*
X891383Y29562725D01*
X879495Y29560238D01*
X867614Y29558036D01*
X855714Y29556122D01*
X843769Y29554496D01*
X831752Y29553160D01*
X819638Y29552115D01*
X807402Y29551362D01*
X795016Y29550902D01*
X782455Y29550737D01*
X769692Y29550868D01*
X756703Y29551297D01*
X756703Y29564526D01*
X799569Y29582729D01*
X842085Y29601684D01*
X884058Y29621665D01*
X904780Y29632128D01*
X925294Y29642952D01*
X945576Y29654171D01*
X965601Y29665821D01*
X985345Y29677935D01*
X1004785Y29690548D01*
X1023895Y29703695D01*
X1042652Y29717410D01*
X1061031Y29731729D01*
X1079009Y29746686D01*
X1097888Y29764399D01*
X1116441Y29782553D01*
X1134562Y29801170D01*
X1152142Y29820270D01*
X1169074Y29839872D01*
X1185250Y29859997D01*
X1200563Y29880666D01*
X1214904Y29901900D01*
X1228166Y29923717D01*
X1240242Y29946140D01*
X1251022Y29969188D01*
X1260401Y29992881D01*
X1268269Y30017241D01*
X1274519Y30042287D01*
X1279044Y30068039D01*
X1281736Y30094520D01*
X1280461Y30108845D01*
X1278684Y30122932D01*
X1276421Y30136787D01*
X1273684Y30150414D01*
X1270488Y30163818D01*
X1266846Y30177002D01*
X1262772Y30189973D01*
X1258280Y30202734D01*
X1253384Y30215291D01*
X1248097Y30227647D01*
X1236407Y30251778D01*
X1223322Y30275165D01*
X1208951Y30297845D01*
X1193406Y30319856D01*
X1176795Y30341235D01*
X1159232Y30362018D01*
X1140825Y30382244D01*
X1121685Y30401950D01*
X1101923Y30421174D01*
X1081649Y30439952D01*
X1060974Y30458321D01*
X1017204Y30496814D01*
X975053Y30536165D01*
X934586Y30576432D01*
X895866Y30617674D01*
X858959Y30659948D01*
X823929Y30703313D01*
X790840Y30747826D01*
X759758Y30793545D01*
X730747Y30840529D01*
X703871Y30888836D01*
X679196Y30938523D01*
X656785Y30989648D01*
X636704Y31042270D01*
X619016Y31096447D01*
X603787Y31152237D01*
X591080Y31209697D01*
X584724Y31244630D01*
X583521Y31190216D01*
X583130Y31135819D01*
X583440Y31108631D01*
X584194Y31081451D01*
X585474Y31054282D01*
X587360Y31027124D01*
X594813Y30991560D01*
X604540Y30956019D01*
X616403Y30920614D01*
X630265Y30885460D01*
X645989Y30850669D01*
X663438Y30816356D01*
X682476Y30782634D01*
X702965Y30749618D01*
X724769Y30717420D01*
X747749Y30686155D01*
X771771Y30655936D01*
X796695Y30626878D01*
X822387Y30599093D01*
X848707Y30572696D01*
X875520Y30547800D01*
X902689Y30524519D01*
X938312Y30495674D01*
X973365Y30466150D01*
X1007616Y30435767D01*
X1024368Y30420199D01*
X1040833Y30404349D01*
X1056983Y30388196D01*
X1072787Y30371716D01*
X1088217Y30354888D01*
X1103244Y30337689D01*
X1117840Y30320098D01*
X1131974Y30302091D01*
X1145619Y30283646D01*
X1158746Y30264742D01*
X1165889Y30251331D01*
X1172283Y30238075D01*
X1177930Y30224937D01*
X1182832Y30211879D01*
X1186991Y30198867D01*
X1190409Y30185862D01*
X1193086Y30172829D01*
X1195026Y30159731D01*
X1196228Y30146531D01*
X1196696Y30133193D01*
X1196431Y30119680D01*
X1195435Y30105956D01*
X1193709Y30091985D01*
X1191255Y30077729D01*
X1188075Y30063152D01*
X1184171Y30048217D01*
X1166807Y30014318D01*
X1157131Y29993474D01*
X1147102Y29973339D01*
X1141911Y29963516D01*
X1136578Y29953842D01*
X1131086Y29944311D01*
X1125418Y29934911D01*
X1119554Y29925636D01*
X1113479Y29916476D01*
X1107173Y29907421D01*
X1100619Y29898463D01*
X1093799Y29889593D01*
X1086696Y29880802D01*
X1079291Y29872082D01*
X1071568Y29863422D01*
X1047288Y29841400D01*
X1022444Y29820556D01*
X997035Y29800913D01*
X971059Y29782492D01*
X944515Y29765315D01*
X917400Y29749402D01*
X889713Y29734776D01*
X861451Y29721458D01*
X832615Y29709469D01*
X803200Y29698831D01*
X773207Y29689565D01*
X742632Y29681693D01*
X711475Y29675236D01*
X679733Y29670216D01*
X647406Y29666654D01*
X614490Y29664571D01*
X577295Y29666138D01*
X536605Y29669395D01*
X515439Y29671799D01*
X493987Y29674795D01*
X472446Y29678439D01*
X451012Y29682789D01*
X429880Y29687900D01*
X409248Y29693828D01*
X389310Y29700631D01*
X370264Y29708365D01*
X352304Y29717085D01*
X335629Y29726850D01*
X327833Y29732141D01*
X320432Y29737714D01*
X313450Y29743576D01*
X306912Y29749734D01*
X342597Y29751379D01*
X378277Y29753145D01*
X407784Y29754695D01*
X436215Y29756499D01*
X464320Y29759430D01*
X492077Y29763495D01*
X519466Y29768699D01*
X546466Y29775046D01*
X573057Y29782540D01*
X599218Y29791188D01*
X624927Y29800994D01*
X650166Y29811963D01*
X674912Y29824099D01*
X699145Y29837408D01*
X722845Y29851894D01*
X745990Y29867563D01*
X768560Y29884419D01*
X790535Y29902468D01*
X811894Y29921713D01*
X824199Y29935443D01*
X835866Y29949063D01*
X846880Y29962636D01*
X857222Y29976225D01*
X866876Y29989891D01*
X875826Y30003697D01*
X884055Y30017706D01*
X891546Y30031978D01*
X898282Y30046578D01*
X904246Y30061566D01*
X909423Y30077005D01*
X913794Y30092958D01*
X917344Y30109486D01*
X920055Y30126652D01*
X921911Y30144518D01*
X922895Y30163146D01*
X909069Y30215955D01*
X903025Y30237787D01*
X897253Y30257119D01*
X891520Y30274361D01*
X885595Y30289924D01*
X879247Y30304220D01*
X875842Y30311021D01*
X872244Y30317659D01*
X868424Y30324185D01*
X864354Y30330651D01*
X855347Y30343609D01*
X844990Y30356942D01*
X833052Y30371061D01*
X819302Y30386378D01*
X803508Y30403302D01*
X764862Y30443620D01*
X720311Y30491126D01*
X678117Y30538594D01*
X657974Y30562526D01*
X638506Y30586703D01*
X619741Y30611212D01*
X601707Y30636136D01*
X584434Y30661562D01*
X567950Y30687574D01*
X552283Y30714257D01*
X537462Y30741697D01*
X523516Y30769979D01*
X510473Y30799187D01*
X498362Y30829408D01*
X487211Y30860726D01*
X478891Y30887443D01*
X479312Y30852926D01*
X481869Y30818584D01*
X486474Y30784475D01*
X493035Y30750657D01*
X501461Y30717190D01*
X511662Y30684130D01*
X523548Y30651537D01*
X537028Y30619470D01*
X552011Y30587987D01*
X568408Y30557146D01*
X586126Y30527006D01*
X605076Y30497625D01*
X625168Y30469063D01*
X646310Y30441377D01*
X668412Y30414626D01*
X691384Y30388868D01*
X718055Y30360160D01*
X744503Y30330408D01*
X757342Y30315091D01*
X769762Y30299453D01*
X781643Y30283473D01*
X792863Y30267132D01*
X803303Y30250409D01*
X812840Y30233285D01*
X821354Y30215739D01*
X828724Y30197751D01*
X834830Y30179301D01*
X839549Y30160369D01*
X841351Y30150716D01*
X842762Y30140935D01*
X843765Y30131023D01*
X844347Y30120978D01*
X843562Y30112652D01*
X842595Y30104683D01*
X841423Y30097043D01*
X840020Y30089702D01*
X838363Y30082632D01*
X836427Y30075802D01*
X834188Y30069183D01*
X831621Y30062747D01*
X828703Y30056465D01*
X825409Y30050306D01*
X821715Y30044241D01*
X817596Y30038243D01*
X813029Y30032280D01*
X807988Y30026325D01*
X802450Y30020347D01*
X796391Y30014318D01*
X795468Y30028175D01*
X794462Y30042026D01*
X792257Y30069715D01*
X790533Y30083090D01*
X788525Y30095711D01*
X786191Y30107643D01*
X783490Y30118950D01*
X780379Y30129699D01*
X776818Y30139955D01*
X772763Y30149783D01*
X768175Y30159248D01*
X763011Y30168416D01*
X757230Y30177352D01*
X750790Y30186122D01*
X743649Y30194790D01*
X735767Y30203422D01*
X727100Y30212084D01*
X717608Y30220840D01*
X707249Y30229757D01*
X678472Y30253926D01*
X650827Y30278233D01*
X624314Y30302774D01*
X598931Y30327639D01*
X574676Y30352924D01*
X551548Y30378720D01*
X529544Y30405123D01*
X508663Y30432224D01*
X488903Y30460117D01*
X470263Y30488895D01*
X452741Y30518653D01*
X436336Y30549482D01*
X421045Y30581477D01*
X406867Y30614731D01*
X393800Y30649337D01*
X381843Y30685388D01*
X373058Y30715464D01*
X369590Y30633405D01*
X368217Y30591527D01*
X368161Y30549573D01*
X368879Y30528683D01*
X370229Y30507911D01*
X372311Y30487304D01*
X375227Y30466908D01*
X379077Y30446769D01*
X383962Y30426933D01*
X389984Y30407445D01*
X397242Y30388352D01*
X412745Y30358276D01*
X429503Y30325601D01*
X446517Y30293264D01*
X464099Y30261422D01*
X473202Y30245736D01*
X482564Y30230233D01*
X492224Y30214934D01*
X502222Y30199858D01*
X512597Y30185024D01*
X523388Y30170453D01*
X534635Y30156164D01*
X546375Y30142178D01*
X558649Y30128513D01*
X571495Y30115190D01*
X611183Y30080464D01*
X584724Y30067235D01*
X539995Y30097923D01*
X517855Y30113535D01*
X495958Y30129453D01*
X474372Y30145771D01*
X453167Y30162584D01*
X432412Y30179989D01*
X422225Y30188942D01*
X412177Y30198079D01*
X367630Y30250731D01*
X327924Y30306003D01*
X292776Y30363655D01*
X261904Y30423445D01*
X235025Y30485134D01*
X211856Y30548480D01*
X192116Y30613242D01*
X175520Y30679180D01*
X161787Y30746053D01*
X150635Y30813619D01*
X141780Y30881639D01*
X134939Y30949871D01*
X126174Y31086007D01*
X122078Y31220103D01*
X121703Y31244630D01*
X114736Y31208048D01*
X108823Y31171737D01*
X103915Y31135575D01*
X99964Y31099444D01*
X96920Y31063222D01*
X94734Y31026790D01*
X93356Y30990027D01*
X92739Y30952813D01*
X92764Y30910594D01*
X93001Y30855011D01*
X93460Y30827335D01*
X94270Y30799707D01*
X95521Y30772103D01*
X97305Y30744501D01*
X99715Y30716878D01*
X102841Y30689212D01*
X103863Y30681930D01*
X104696Y30674884D01*
X105338Y30668041D01*
X105788Y30661370D01*
X106042Y30654839D01*
X106098Y30648416D01*
X105954Y30642070D01*
X105607Y30635768D01*
X105055Y30629480D01*
X104295Y30623174D01*
X103326Y30616817D01*
X102144Y30610378D01*
X100747Y30603826D01*
X99134Y30597129D01*
X97300Y30590255D01*
X95245Y30583172D01*
X76276Y30632979D01*
X59286Y30682164D01*
X44313Y30731098D01*
X31393Y30780154D01*
X25714Y30804843D01*
X20563Y30829701D01*
X15944Y30854775D01*
X11861Y30880111D01*
X8319Y30905756D01*
X5323Y30931757D01*
X2878Y30958158D01*
X987Y30985008D01*
X426Y31008154D01*
X97Y31030900D01*
X-684Y31053175D01*
X-1457Y31064113D01*
X-2600Y31074908D01*
X-4197Y31085549D01*
X-6335Y31096029D01*
X-9098Y31106339D01*
X-12572Y31116469D01*
X-16843Y31126411D01*
X-19304Y31131309D01*
X-21996Y31136157D01*
X-24930Y31140953D01*
X-28116Y31145697D01*
X-31566Y31150387D01*
X-35290Y31155023D01*
X-63505Y31178484D01*
X-69556Y31189967D01*
X-75088Y31201185D01*
X-80121Y31212189D01*
X-84671Y31223032D01*
X-88755Y31233764D01*
X-92392Y31244439D01*
X-95598Y31255106D01*
X-98392Y31265819D01*
X-100790Y31276629D01*
X-102810Y31287587D01*
X-104469Y31298745D01*
X-105786Y31310156D01*
X-106777Y31321870D01*
X-107460Y31333940D01*
X-107853Y31346416D01*
X-107973Y31359352D01*
X-107326Y31390151D01*
X-107353Y31420744D01*
X-107172Y31451336D01*
X-105619Y31474189D01*
X-102999Y31496408D01*
X-99326Y31518018D01*
X-94613Y31539042D01*
X-88873Y31559506D01*
X-82120Y31579436D01*
X-74367Y31598855D01*
X-65628Y31617789D01*
X-55916Y31636263D01*
X-45243Y31654301D01*
X-33625Y31671929D01*
X-21073Y31689171D01*
X-7602Y31706052D01*
X6775Y31722598D01*
X22045Y31738832D01*
X38194Y31754780D01*
X52019Y31760401D01*
X65938Y31765311D01*
X79940Y31769509D01*
X94014Y31772998D01*
X108152Y31775776D01*
X122340Y31777846D01*
X136570Y31779209D01*
X150830Y31779864D01*
X165111Y31779812D01*
X179400Y31779056D01*
X193689Y31777594D01*
X207966Y31775428D01*
X222220Y31772559D01*
X236441Y31768988D01*
X250620Y31764715D01*
X264744Y31759741D01*
X280887Y31745045D01*
X296575Y31729930D01*
X311772Y31714394D01*
X326439Y31698431D01*
X340541Y31682038D01*
X354038Y31665210D01*
X366895Y31647943D01*
X379074Y31630234D01*
X390538Y31612077D01*
X401249Y31593468D01*
X411170Y31574405D01*
X420265Y31554882D01*
X428495Y31534895D01*
X435823Y31514440D01*
X442213Y31493513D01*
X447627Y31472110D01*
X452433Y31443068D01*
X461740Y31447538D01*
X469110Y31451148D01*
X475228Y31454294D01*
X480784Y31457373D01*
X486464Y31460782D01*
X492958Y31464920D01*
X511137Y31476967D01*
X539066Y31524150D01*
X550414Y31543899D01*
X560206Y31561698D01*
X568586Y31578006D01*
X575694Y31593283D01*
X581674Y31607986D01*
X586668Y31622576D01*
X590816Y31637510D01*
X594263Y31653248D01*
X597149Y31670248D01*
X599616Y31688970D01*
X601808Y31709873D01*
X603865Y31733415D01*
X608147Y31790252D01*
X618182Y31878738D01*
X623739Y31922741D01*
X630011Y31966575D01*
X637265Y32010233D01*
X645768Y32053707D01*
X655786Y32096990D01*
X661447Y32118558D01*
X667587Y32140076D01*
X677328Y32170672D01*
X685401Y32195124D01*
X693866Y32218720D01*
X702751Y32241530D01*
X712086Y32263627D01*
X721901Y32285081D01*
X732226Y32305962D01*
X743090Y32326342D01*
X754522Y32346292D01*
X766551Y32365883D01*
X779209Y32385185D01*
X792523Y32404271D01*
X806523Y32423209D01*
X821239Y32442073D01*
X836701Y32460932D01*
X852937Y32479857D01*
X869978Y32498920D01*
X887850Y32514482D01*
X905920Y32529236D01*
X924215Y32543159D01*
X942762Y32556230D01*
X961587Y32568426D01*
X980719Y32579726D01*
X1000184Y32590108D01*
X1020009Y32599549D01*
X1040222Y32608028D01*
X1060850Y32615523D01*
X1081920Y32622011D01*
X1103459Y32627471D01*
X1125494Y32631881D01*
X1148052Y32635219D01*
X1171162Y32637462D01*
X1194848Y32638589D01*
X1223031Y32638653D01*
X1247303Y32638156D01*
G37*
G36*
X1423334Y31151420D02*
G01*
X1428708Y31137957D01*
X1434324Y31124793D01*
X1440224Y31111851D01*
X1446447Y31099057D01*
X1453034Y31086337D01*
X1460025Y31073615D01*
X1467461Y31060817D01*
X1492576Y31022215D01*
X1517897Y30983096D01*
X1537224Y30953588D01*
X1471078Y30913901D01*
X1458935Y30950531D01*
X1446920Y30987204D01*
X1437179Y31017254D01*
X1424143Y31054974D01*
X1421209Y31063946D01*
X1418523Y31072819D01*
X1416142Y31081634D01*
X1414126Y31090433D01*
X1412533Y31099257D01*
X1411422Y31108149D01*
X1410852Y31117150D01*
X1410881Y31126303D01*
X1411568Y31135647D01*
X1412971Y31145226D01*
X1415149Y31155082D01*
X1418162Y31165255D01*
X1423334Y31151420D01*
G37*
G36*
X2166230Y31228096D02*
G01*
X2170628Y31066147D01*
X2172517Y30904142D01*
X2172224Y30741922D01*
X2158995Y30741922D01*
X2154938Y30849435D01*
X2153207Y30893230D01*
X2151631Y30936871D01*
X2149952Y30978341D01*
X2149225Y30995323D01*
X2148315Y31012297D01*
X2147176Y31029256D01*
X2145766Y31046193D01*
X2140786Y31051379D01*
X2138769Y31053886D01*
X2137036Y31056572D01*
X2135566Y31059615D01*
X2134333Y31063193D01*
X2133317Y31067483D01*
X2132493Y31072662D01*
X2131839Y31078910D01*
X2131331Y31086402D01*
X2130665Y31105833D01*
X2130082Y31167451D01*
X2130056Y31210730D01*
X2129565Y31253854D01*
X2129488Y31295015D01*
X2129323Y31332968D01*
X2130435Y31343161D01*
X2130987Y31347387D01*
X2131594Y31351144D01*
X2132300Y31354516D01*
X2132703Y31356084D01*
X2133147Y31357587D01*
X2133638Y31359035D01*
X2134180Y31360440D01*
X2134780Y31361811D01*
X2135442Y31363159D01*
X2136173Y31364495D01*
X2136977Y31365829D01*
X2137859Y31367171D01*
X2138827Y31368532D01*
X2141036Y31371353D01*
X2143648Y31374375D01*
X2146707Y31377682D01*
X2150255Y31381358D01*
X2158995Y31390151D01*
X2166230Y31228096D01*
G37*
G36*
X875766Y31310776D02*
G01*
X862537Y31310776D01*
X849308Y31191713D01*
X836078Y31191713D01*
X827244Y31254312D01*
X819241Y31317047D01*
X815855Y31348477D01*
X813042Y31379954D01*
X810923Y31411483D01*
X809620Y31443068D01*
X813057Y31466092D01*
X815011Y31477192D01*
X817180Y31488032D01*
X819608Y31498623D01*
X822338Y31508976D01*
X825412Y31519102D01*
X828875Y31529011D01*
X832770Y31538715D01*
X837140Y31548225D01*
X842028Y31557552D01*
X847479Y31566706D01*
X853534Y31575699D01*
X860238Y31584541D01*
X867634Y31593244D01*
X875766Y31601818D01*
X875766Y31310776D01*
G37*
G36*
X1273468Y31410821D02*
G01*
X1273169Y31399606D01*
X1272997Y31395018D01*
X1272783Y31391016D01*
X1272653Y31389215D01*
X1272506Y31387534D01*
X1272337Y31385965D01*
X1272145Y31384500D01*
X1271927Y31383131D01*
X1271680Y31381847D01*
X1271402Y31380642D01*
X1271090Y31379506D01*
X1270742Y31378430D01*
X1270355Y31377406D01*
X1269927Y31376425D01*
X1269455Y31375480D01*
X1268935Y31374560D01*
X1268367Y31373657D01*
X1267747Y31372764D01*
X1267073Y31371870D01*
X1266341Y31370968D01*
X1265550Y31370049D01*
X1263780Y31368125D01*
X1261740Y31366030D01*
X1259412Y31363693D01*
X1239569Y31363386D01*
X1219724Y31363279D01*
X1199879Y31363379D01*
X1180037Y31363693D01*
X1180037Y31390151D01*
X1190745Y31391350D01*
X1199206Y31392369D01*
X1206195Y31393363D01*
X1212486Y31394487D01*
X1218856Y31395895D01*
X1226078Y31397744D01*
X1234929Y31400187D01*
X1246183Y31403380D01*
X1272641Y31443068D01*
X1273468Y31410821D01*
G37*
G36*
X692625Y32163136D02*
G01*
X694453Y32155894D01*
X696043Y32148902D01*
X697398Y32142114D01*
X698522Y32135487D01*
X699417Y32128975D01*
X700085Y32122535D01*
X700530Y32116122D01*
X700755Y32109692D01*
X700763Y32103199D01*
X700555Y32096599D01*
X700136Y32089849D01*
X699508Y32082903D01*
X698673Y32075717D01*
X697635Y32068246D01*
X696397Y32060446D01*
X684770Y32014402D01*
X674546Y31973446D01*
X664099Y31932547D01*
X660410Y31938465D01*
X657051Y31944078D01*
X654015Y31949441D01*
X651292Y31954608D01*
X648873Y31959632D01*
X646751Y31964569D01*
X644916Y31969473D01*
X643360Y31974398D01*
X642075Y31979398D01*
X641050Y31984528D01*
X640279Y31989842D01*
X639752Y31995394D01*
X639461Y32001238D01*
X639397Y32007429D01*
X639551Y32014021D01*
X639915Y32021068D01*
X647563Y32059051D01*
X650864Y32075651D01*
X652533Y32083303D01*
X654256Y32090596D01*
X656064Y32097587D01*
X657990Y32104334D01*
X660063Y32110891D01*
X662316Y32117315D01*
X664779Y32123662D01*
X667485Y32129989D01*
X670464Y32136352D01*
X673748Y32142807D01*
X677368Y32149410D01*
X681355Y32156218D01*
X685741Y32163286D01*
X690557Y32170672D01*
X692625Y32163136D01*
G37*
G36*
X1092466Y32281726D02*
G01*
X1099962Y32279421D01*
X1106662Y32276984D01*
X1112613Y32274366D01*
X1115324Y32272974D01*
X1117866Y32271519D01*
X1120245Y32269995D01*
X1122468Y32268395D01*
X1124540Y32266713D01*
X1126467Y32264944D01*
X1128257Y32263082D01*
X1129914Y32261120D01*
X1131445Y32259052D01*
X1132855Y32256872D01*
X1134152Y32254575D01*
X1135341Y32252153D01*
X1136428Y32249602D01*
X1137419Y32246915D01*
X1138320Y32244086D01*
X1139138Y32241109D01*
X1140547Y32234687D01*
X1141694Y32227600D01*
X1142628Y32219800D01*
X1143398Y32211238D01*
X1142830Y32164884D01*
X1142571Y32118634D01*
X1141303Y32103039D01*
X1139217Y32087417D01*
X1136336Y32071816D01*
X1132680Y32056283D01*
X1128270Y32040869D01*
X1123129Y32025620D01*
X1117278Y32010584D01*
X1110737Y31995812D01*
X1103529Y31981349D01*
X1095674Y31967245D01*
X1087195Y31953548D01*
X1078111Y31940307D01*
X1068446Y31927569D01*
X1058219Y31915383D01*
X1047454Y31903797D01*
X1036170Y31892859D01*
X1027854Y31887627D01*
X1020021Y31882913D01*
X1012589Y31878707D01*
X1005477Y31875002D01*
X998604Y31871789D01*
X991888Y31869059D01*
X985248Y31866803D01*
X978602Y31865013D01*
X971869Y31863679D01*
X964967Y31862794D01*
X957815Y31862347D01*
X950332Y31862332D01*
X942435Y31862738D01*
X934044Y31863557D01*
X925077Y31864781D01*
X915453Y31866401D01*
X888995Y31906088D01*
X888020Y31925401D01*
X888016Y31944307D01*
X888946Y31962836D01*
X890769Y31981022D01*
X893449Y31998896D01*
X896945Y32016488D01*
X901220Y32033831D01*
X906236Y32050956D01*
X911952Y32067895D01*
X918332Y32084679D01*
X925336Y32101340D01*
X932926Y32117910D01*
X941062Y32134419D01*
X949708Y32150899D01*
X958823Y32167383D01*
X968370Y32183901D01*
X980324Y32201368D01*
X992028Y32217924D01*
X997937Y32225781D01*
X1003966Y32233315D01*
X1010174Y32240495D01*
X1016622Y32247289D01*
X1023371Y32253666D01*
X1030482Y32259593D01*
X1034192Y32262378D01*
X1038015Y32265039D01*
X1041958Y32267571D01*
X1046030Y32269972D01*
X1050237Y32272237D01*
X1054588Y32274361D01*
X1059089Y32276342D01*
X1063749Y32278174D01*
X1068575Y32279855D01*
X1073575Y32281380D01*
X1078756Y32282745D01*
X1084125Y32283946D01*
X1092466Y32281726D01*
G37*
G36*
X1140349Y30874214D02*
G01*
X1100662Y30860984D01*
X1100662Y30794838D01*
X1091911Y30799256D01*
X1088337Y30801143D01*
X1085227Y30802892D01*
X1082531Y30804560D01*
X1080197Y30806206D01*
X1079149Y30807038D01*
X1078172Y30807885D01*
X1077260Y30808756D01*
X1076406Y30809657D01*
X1075603Y30810595D01*
X1074846Y30811577D01*
X1074128Y30812611D01*
X1073441Y30813703D01*
X1072781Y30814862D01*
X1072139Y30816094D01*
X1070889Y30818805D01*
X1069638Y30821895D01*
X1068335Y30825421D01*
X1065367Y30834009D01*
X1058494Y30865945D01*
X1055227Y30880833D01*
X1053893Y30887504D01*
X1052777Y30893769D01*
X1051890Y30899709D01*
X1051245Y30905404D01*
X1050856Y30910937D01*
X1050736Y30916388D01*
X1050896Y30921839D01*
X1051351Y30927371D01*
X1052113Y30933066D01*
X1053194Y30939004D01*
X1054608Y30945267D01*
X1056367Y30951936D01*
X1058485Y30959092D01*
X1060974Y30966818D01*
X1140349Y30874214D01*
G37*
G36*
X1159442Y30880853D02*
G01*
X1164117Y30875659D01*
X1168070Y30871396D01*
X1171764Y30867598D01*
X1175666Y30863799D01*
X1180240Y30859536D01*
X1193266Y30847755D01*
X1232953Y30834526D01*
X1246183Y30808068D01*
X1272641Y30821297D01*
X1284216Y30796647D01*
X1299099Y30764246D01*
X1305344Y30750618D01*
X1310739Y30738192D01*
X1313120Y30732283D01*
X1315289Y30726498D01*
X1317249Y30720779D01*
X1319000Y30715066D01*
X1320543Y30709301D01*
X1321877Y30703426D01*
X1323004Y30697380D01*
X1323925Y30691106D01*
X1324640Y30684544D01*
X1325150Y30677636D01*
X1325456Y30670323D01*
X1325557Y30662547D01*
X1299658Y30688097D01*
X1274084Y30713852D01*
X1248830Y30739841D01*
X1223888Y30766089D01*
X1199253Y30792623D01*
X1174918Y30819471D01*
X1150876Y30846659D01*
X1127120Y30874214D01*
X1153578Y30887443D01*
X1159442Y30880853D01*
G37*
G36*
X1140349Y29657130D02*
G01*
X1103142Y29636459D01*
X1089146Y29630208D01*
X1083330Y29627730D01*
X1078144Y29625672D01*
X1073466Y29624026D01*
X1069176Y29622783D01*
X1067140Y29622310D01*
X1065156Y29621935D01*
X1063209Y29621657D01*
X1061284Y29621474D01*
X1059367Y29621385D01*
X1057442Y29621390D01*
X1055494Y29621487D01*
X1053509Y29621675D01*
X1049365Y29622322D01*
X1044890Y29623321D01*
X1039965Y29624664D01*
X1034469Y29626342D01*
X1021287Y29630672D01*
X1031260Y29640542D01*
X1035588Y29644624D01*
X1039683Y29648242D01*
X1043701Y29651472D01*
X1047797Y29654391D01*
X1052125Y29657079D01*
X1056840Y29659611D01*
X1062098Y29662065D01*
X1068054Y29664520D01*
X1074862Y29667052D01*
X1082678Y29669739D01*
X1101954Y29675889D01*
X1127120Y29683589D01*
X1140349Y29657130D01*
G37*
G36*
X412081Y29750205D02*
G01*
X429886Y29749353D01*
X447524Y29747990D01*
X465104Y29746070D01*
X482733Y29743546D01*
X500522Y29740374D01*
X518578Y29736505D01*
X518578Y29723276D01*
X552882Y29721636D01*
X587179Y29719866D01*
X615317Y29718315D01*
X635310Y29717415D01*
X654030Y29716311D01*
X663008Y29715561D01*
X671783Y29714614D01*
X680391Y29713422D01*
X688873Y29711935D01*
X697264Y29710105D01*
X705605Y29707883D01*
X713932Y29705220D01*
X722284Y29702067D01*
X730699Y29698377D01*
X739215Y29694099D01*
X747871Y29689186D01*
X756703Y29683589D01*
X739499Y29679953D01*
X722440Y29676731D01*
X705461Y29673925D01*
X688495Y29671537D01*
X671478Y29669571D01*
X654342Y29668028D01*
X637021Y29666912D01*
X619451Y29666225D01*
X581641Y29667151D01*
X561328Y29668235D01*
X540339Y29669815D01*
X518868Y29671951D01*
X497112Y29674706D01*
X475266Y29678140D01*
X453525Y29682314D01*
X432087Y29687291D01*
X411146Y29693131D01*
X390898Y29699896D01*
X371540Y29707647D01*
X353266Y29716445D01*
X336273Y29726351D01*
X328318Y29731739D01*
X320756Y29737427D01*
X313613Y29743423D01*
X306912Y29749734D01*
X336419Y29750200D01*
X375538Y29750561D01*
X394002Y29750592D01*
X412081Y29750205D01*
G37*
G36*
X1534423Y30571374D02*
G01*
X1538939Y30566033D01*
X1543013Y30560956D01*
X1546662Y30556059D01*
X1549903Y30551259D01*
X1552754Y30546476D01*
X1555231Y30541627D01*
X1557353Y30536628D01*
X1559136Y30531399D01*
X1560597Y30525857D01*
X1561754Y30519919D01*
X1562623Y30513503D01*
X1563223Y30506528D01*
X1563571Y30498910D01*
X1563682Y30490568D01*
X1555864Y30495915D01*
X1548874Y30500994D01*
X1542641Y30505875D01*
X1537093Y30510627D01*
X1532156Y30515321D01*
X1527759Y30520028D01*
X1523830Y30524816D01*
X1520295Y30529757D01*
X1517082Y30534919D01*
X1514119Y30540375D01*
X1511334Y30546192D01*
X1508654Y30552443D01*
X1506006Y30559196D01*
X1503319Y30566521D01*
X1497537Y30583172D01*
X1523995Y30583172D01*
X1534423Y30571374D01*
G37*
G36*
X928682Y31892859D02*
G01*
X981599Y31892859D01*
X928682Y31866401D01*
X908839Y31880457D01*
X900686Y31891168D01*
X897406Y31895834D01*
X894619Y31900271D01*
X892295Y31904652D01*
X890405Y31909150D01*
X888921Y31913939D01*
X887812Y31919192D01*
X887050Y31925082D01*
X886607Y31931781D01*
X886452Y31939465D01*
X886557Y31948304D01*
X887431Y31970146D01*
X888995Y31998693D01*
X915453Y32011922D01*
X928682Y31892859D01*
G37*
G36*
X827221Y30203970D02*
G01*
X830539Y30197041D01*
X831862Y30194078D01*
X832990Y30191345D01*
X833949Y30188764D01*
X834761Y30186258D01*
X835449Y30183748D01*
X836037Y30181157D01*
X836548Y30178406D01*
X837005Y30175417D01*
X837432Y30172113D01*
X837853Y30168416D01*
X838765Y30159528D01*
X839386Y30128419D01*
X839898Y30110362D01*
X839933Y30102827D01*
X839736Y30096064D01*
X839245Y30089906D01*
X838396Y30084186D01*
X837818Y30081439D01*
X837127Y30078738D01*
X836315Y30076063D01*
X835375Y30073393D01*
X833076Y30067985D01*
X830167Y30062347D01*
X826586Y30056311D01*
X822270Y30049710D01*
X817155Y30042378D01*
X811179Y30034146D01*
X796391Y30014318D01*
X783162Y30186297D01*
X822849Y30212755D01*
X827221Y30203970D01*
G37*
G36*
X604180Y31205666D02*
G01*
X612009Y31173523D01*
X616865Y31155803D01*
X622116Y31138031D01*
X627093Y31120256D01*
X629269Y31111382D01*
X631125Y31102524D01*
X632578Y31093689D01*
X633543Y31084882D01*
X633937Y31076109D01*
X633677Y31067376D01*
X633275Y31063027D01*
X632678Y31058690D01*
X631875Y31054365D01*
X630856Y31050055D01*
X629611Y31045758D01*
X628129Y31041477D01*
X626399Y31037212D01*
X624412Y31032963D01*
X611183Y31072651D01*
X571495Y31059422D01*
X571495Y31284318D01*
X584724Y31284318D01*
X604180Y31205666D01*
G37*
G36*
X1021287Y31218172D02*
G01*
X1008058Y31244630D01*
X981599Y31244630D01*
X994828Y31403380D01*
X1008058Y31403380D01*
X1021287Y31218172D01*
G37*
G36*
X159703Y31679755D02*
G01*
X166887Y31677300D01*
X180618Y31671834D01*
X193558Y31665655D01*
X205773Y31658795D01*
X217330Y31651289D01*
X228295Y31643171D01*
X238736Y31634473D01*
X248719Y31625230D01*
X258311Y31615474D01*
X267580Y31605241D01*
X276592Y31594562D01*
X285414Y31583472D01*
X294113Y31572005D01*
X302756Y31560193D01*
X320141Y31535672D01*
X336281Y31505657D01*
X349687Y31474508D01*
X360538Y31442363D01*
X369008Y31409358D01*
X375276Y31375632D01*
X379519Y31341323D01*
X381912Y31306568D01*
X382634Y31271506D01*
X381861Y31236274D01*
X379770Y31201010D01*
X376537Y31165852D01*
X372340Y31130938D01*
X361761Y31062393D01*
X349448Y30996477D01*
X341152Y30953232D01*
X333664Y30909973D01*
X326986Y30866580D01*
X321116Y30822934D01*
X317660Y30794012D01*
X311304Y30740630D01*
X306912Y30702234D01*
X280453Y30715464D01*
X281745Y30942013D01*
X282107Y31034617D01*
X282924Y31170881D01*
X283037Y31214141D01*
X283345Y31251580D01*
X283271Y31288956D01*
X282972Y31307634D01*
X282434Y31326313D01*
X281610Y31344997D01*
X280453Y31363693D01*
X275815Y31381642D01*
X271093Y31399035D01*
X268551Y31407473D01*
X265809Y31415712D01*
X262809Y31423732D01*
X259489Y31431513D01*
X255791Y31439035D01*
X251655Y31446278D01*
X249404Y31449788D01*
X247021Y31453221D01*
X244499Y31456575D01*
X241831Y31459846D01*
X239008Y31463033D01*
X236024Y31466132D01*
X232870Y31469141D01*
X229541Y31472059D01*
X226027Y31474881D01*
X222322Y31477606D01*
X218418Y31480232D01*
X214308Y31482755D01*
X198946Y31483043D01*
X186836Y31483085D01*
X181662Y31482967D01*
X176894Y31482729D01*
X172396Y31482352D01*
X168033Y31481818D01*
X163669Y31481105D01*
X159169Y31480197D01*
X154396Y31479072D01*
X149216Y31477711D01*
X137089Y31474206D01*
X121703Y31469526D01*
X115517Y31464384D01*
X109692Y31459341D01*
X104205Y31454362D01*
X99028Y31449413D01*
X94138Y31444458D01*
X89509Y31439463D01*
X85116Y31434393D01*
X80933Y31429212D01*
X76936Y31423886D01*
X73100Y31418380D01*
X69399Y31412660D01*
X65809Y31406689D01*
X62303Y31400433D01*
X58857Y31393858D01*
X55445Y31386928D01*
X52044Y31379609D01*
X39021Y31340542D01*
X25585Y31301061D01*
X15870Y31271089D01*
X-10588Y31297547D01*
X-13330Y31328155D01*
X-14939Y31359965D01*
X-15235Y31376166D01*
X-15147Y31392482D01*
X-14643Y31408852D01*
X-13689Y31425213D01*
X-12251Y31441504D01*
X-10296Y31457663D01*
X-7790Y31473628D01*
X-4701Y31489338D01*
X-994Y31504730D01*
X3364Y31519743D01*
X8406Y31534315D01*
X14165Y31548384D01*
X27180Y31571154D01*
X33797Y31582011D01*
X40558Y31592491D01*
X47517Y31602576D01*
X54726Y31612245D01*
X62238Y31621482D01*
X70108Y31630267D01*
X78388Y31638581D01*
X87130Y31646405D01*
X96390Y31653721D01*
X106219Y31660510D01*
X116671Y31666753D01*
X122147Y31669664D01*
X127799Y31672432D01*
X133633Y31675053D01*
X139656Y31677527D01*
X145875Y31679849D01*
X152296Y31682019D01*
X159703Y31679755D01*
G37*
G36*
X69864Y30995992D02*
G01*
X70725Y30959014D01*
X71267Y30928784D01*
X71636Y30915125D01*
X71813Y30901670D01*
X71797Y30888348D01*
X71588Y30875090D01*
X71183Y30861826D01*
X70582Y30848486D01*
X69784Y30834999D01*
X68787Y30821297D01*
X29099Y30794838D01*
X15870Y30874214D01*
X42328Y30860984D01*
X55557Y31032963D01*
X68787Y31032963D01*
X69864Y30995992D01*
G37*
G36*
X1151904Y30272415D02*
G01*
X1162612Y30253067D01*
X1167583Y30243445D01*
X1172264Y30233811D01*
X1176629Y30224131D01*
X1180652Y30214370D01*
X1184307Y30204495D01*
X1187568Y30194469D01*
X1190409Y30184260D01*
X1192803Y30173832D01*
X1194726Y30163151D01*
X1196150Y30152183D01*
X1197050Y30140893D01*
X1197400Y30129246D01*
X1195773Y30110879D01*
X1194900Y30102485D01*
X1193914Y30094542D01*
X1192761Y30086995D01*
X1191388Y30079790D01*
X1189740Y30072870D01*
X1187762Y30066181D01*
X1185401Y30059667D01*
X1182602Y30053273D01*
X1179311Y30046942D01*
X1175474Y30040621D01*
X1171036Y30034253D01*
X1165944Y30027784D01*
X1160143Y30021157D01*
X1153578Y30014318D01*
X1151937Y30048298D01*
X1150168Y30082272D01*
X1148617Y30110229D01*
X1146881Y30145159D01*
X1145603Y30162213D01*
X1143768Y30179068D01*
X1142575Y30187438D01*
X1141163Y30195780D01*
X1139505Y30204100D01*
X1137576Y30212405D01*
X1135347Y30220703D01*
X1132793Y30229000D01*
X1129888Y30237304D01*
X1126603Y30245621D01*
X1113891Y30265672D01*
X1140349Y30292130D01*
X1151904Y30272415D01*
G37*
G36*
X883570Y31149512D02*
G01*
X886291Y31143747D01*
X888588Y31138525D01*
X890732Y31133203D01*
X892996Y31127132D01*
X898969Y31110168D01*
X909666Y31077612D01*
X928682Y31019734D01*
X888995Y30980047D01*
X878660Y31000333D01*
X874497Y31009019D01*
X870953Y31017097D01*
X867988Y31024836D01*
X865564Y31032508D01*
X863642Y31040386D01*
X862183Y31048739D01*
X861148Y31057839D01*
X860499Y31067958D01*
X860198Y31079367D01*
X860204Y31092337D01*
X860987Y31124046D01*
X862537Y31165255D01*
X875766Y31165255D01*
X883570Y31149512D01*
G37*
G36*
X2291932Y31133345D02*
G01*
X2292113Y31098283D01*
X2292258Y31069846D01*
X2292059Y31041682D01*
X2291417Y31013715D01*
X2290231Y30985870D01*
X2288402Y30958073D01*
X2285830Y30930247D01*
X2282415Y30902319D01*
X2278057Y30874214D01*
X2251599Y30874214D01*
X2250953Y30975086D01*
X2250772Y31016427D01*
X2250436Y31057148D01*
X2250307Y31096422D01*
X2250357Y31112357D01*
X2250748Y31127836D01*
X2251563Y31142986D01*
X2252882Y31157931D01*
X2254787Y31172797D01*
X2255984Y31180239D01*
X2257359Y31187709D01*
X2258920Y31195221D01*
X2260679Y31202792D01*
X2262645Y31210437D01*
X2264828Y31218172D01*
X2291287Y31218172D01*
X2291932Y31133345D01*
G37*
G36*
X1235298Y32534812D02*
G01*
X1260354Y32531865D01*
X1285059Y32527290D01*
X1309423Y32521113D01*
X1333453Y32513361D01*
X1357157Y32504060D01*
X1380543Y32493237D01*
X1403620Y32480918D01*
X1426397Y32467130D01*
X1448880Y32451901D01*
X1471078Y32435255D01*
X1501007Y32402662D01*
X1527618Y32369307D01*
X1551109Y32335200D01*
X1571681Y32300350D01*
X1589532Y32264767D01*
X1604861Y32228461D01*
X1617867Y32191442D01*
X1628748Y32153719D01*
X1637705Y32115303D01*
X1644935Y32076203D01*
X1650638Y32036430D01*
X1655013Y31995992D01*
X1658258Y31954901D01*
X1660573Y31913164D01*
X1663208Y31827799D01*
X1665102Y31741951D01*
X1667936Y31656415D01*
X1672308Y31571202D01*
X1678814Y31486323D01*
X1688054Y31401789D01*
X1693885Y31359655D01*
X1700623Y31317612D01*
X1708343Y31275660D01*
X1717120Y31233802D01*
X1727028Y31192039D01*
X1738142Y31150372D01*
X1748809Y31115102D01*
X1751011Y31107277D01*
X1752948Y31099691D01*
X1754579Y31092266D01*
X1755864Y31084924D01*
X1756763Y31077586D01*
X1757237Y31070174D01*
X1757244Y31062608D01*
X1756746Y31054811D01*
X1755701Y31046703D01*
X1754071Y31038207D01*
X1751814Y31029244D01*
X1748891Y31019734D01*
X1727373Y31057241D01*
X1706918Y31095147D01*
X1687369Y31133419D01*
X1668569Y31172020D01*
X1650363Y31210916D01*
X1632593Y31250071D01*
X1597737Y31329018D01*
X1576912Y31376922D01*
X1591062Y31302179D01*
X1606401Y31228618D01*
X1623353Y31156093D01*
X1642345Y31084459D01*
X1663804Y31013571D01*
X1675591Y30978362D01*
X1688154Y30943284D01*
X1701548Y30908321D01*
X1715824Y30873454D01*
X1731036Y30838664D01*
X1747237Y30803933D01*
X1758109Y30781993D01*
X1768605Y30760045D01*
X1778752Y30737923D01*
X1788578Y30715464D01*
X1775349Y30689005D01*
X1730776Y30731649D01*
X1687921Y30774822D01*
X1646654Y30818729D01*
X1606845Y30863574D01*
X1568366Y30909561D01*
X1531085Y30956896D01*
X1494875Y31005782D01*
X1459606Y31056425D01*
X1431391Y31099109D01*
X1436423Y31075012D01*
X1443276Y31043040D01*
X1462605Y30985592D01*
X1478277Y30940495D01*
X1485299Y30921366D01*
X1492075Y30903870D01*
X1498828Y30887523D01*
X1505780Y30871840D01*
X1513155Y30856336D01*
X1521175Y30840527D01*
X1530062Y30823927D01*
X1540040Y30806052D01*
X1564157Y30764537D01*
X1595308Y30712105D01*
X1616599Y30675776D01*
X1603447Y30675809D01*
X1598024Y30675887D01*
X1593240Y30676040D01*
X1588998Y30676292D01*
X1585200Y30676667D01*
X1581751Y30677191D01*
X1580126Y30677516D01*
X1578552Y30677888D01*
X1577017Y30678310D01*
X1575508Y30678784D01*
X1574013Y30679313D01*
X1572520Y30679902D01*
X1569492Y30681267D01*
X1566326Y30682905D01*
X1562926Y30684840D01*
X1559195Y30687096D01*
X1550350Y30692674D01*
X1522341Y30714637D01*
X1509448Y30724667D01*
X1496602Y30734757D01*
X1483809Y30744916D01*
X1471078Y30755151D01*
X1457849Y30768380D01*
X1484307Y30728693D01*
X1511972Y30690452D01*
X1538298Y30652328D01*
X1563333Y30614053D01*
X1587127Y30575363D01*
X1609728Y30535992D01*
X1631184Y30495675D01*
X1651545Y30454147D01*
X1670859Y30411141D01*
X1674785Y30397467D01*
X1676379Y30391270D01*
X1677713Y30385415D01*
X1678776Y30379838D01*
X1679558Y30374475D01*
X1680048Y30369262D01*
X1680234Y30364136D01*
X1680107Y30359032D01*
X1679654Y30353888D01*
X1678867Y30348639D01*
X1677732Y30343221D01*
X1676241Y30337571D01*
X1674382Y30331625D01*
X1672143Y30325318D01*
X1669516Y30318589D01*
X1648690Y30361182D01*
X1626796Y30402900D01*
X1603797Y30443791D01*
X1579656Y30483900D01*
X1554334Y30523274D01*
X1527795Y30561958D01*
X1500000Y30600000D01*
X1470914Y30637445D01*
X1428929Y30691480D01*
X1389387Y30746140D01*
X1352166Y30801626D01*
X1317143Y30858141D01*
X1284195Y30915888D01*
X1253199Y30975068D01*
X1224033Y31035885D01*
X1196573Y31098541D01*
X1180037Y31138797D01*
X1189739Y31095585D01*
X1200078Y31052906D01*
X1211180Y31010687D01*
X1223172Y30968855D01*
X1236179Y30927337D01*
X1250329Y30886059D01*
X1265748Y30844949D01*
X1282563Y30803933D01*
X1298149Y30769160D01*
X1305404Y30752217D01*
X1308780Y30743754D01*
X1311943Y30735257D01*
X1314859Y30726697D01*
X1317496Y30718044D01*
X1319819Y30709270D01*
X1321796Y30700345D01*
X1323391Y30691240D01*
X1324572Y30681924D01*
X1325306Y30672370D01*
X1325557Y30662547D01*
X1293151Y30694215D01*
X1261339Y30726072D01*
X1230101Y30758218D01*
X1199421Y30790756D01*
X1169279Y30823789D01*
X1139658Y30857417D01*
X1110538Y30891744D01*
X1081903Y30926872D01*
X1060974Y30953588D01*
X1060974Y30927130D01*
X1062736Y30911619D01*
X1064880Y30896868D01*
X1067441Y30882812D01*
X1070452Y30869386D01*
X1073949Y30856525D01*
X1077965Y30844164D01*
X1082535Y30832239D01*
X1087694Y30820683D01*
X1093476Y30809433D01*
X1099915Y30798423D01*
X1107046Y30787588D01*
X1114902Y30776863D01*
X1123520Y30766184D01*
X1132932Y30755485D01*
X1143174Y30744700D01*
X1154279Y30733767D01*
X1167827Y30721406D01*
X1181294Y30708956D01*
X1194681Y30696420D01*
X1207990Y30683802D01*
X1235020Y30657896D01*
X1271900Y30622191D01*
X1307107Y30586098D01*
X1324090Y30567815D01*
X1340661Y30549325D01*
X1356825Y30530593D01*
X1372582Y30511581D01*
X1387935Y30492253D01*
X1402887Y30472572D01*
X1417441Y30452503D01*
X1431597Y30432009D01*
X1445360Y30411052D01*
X1458731Y30389597D01*
X1471713Y30367608D01*
X1484307Y30345047D01*
X1457849Y30331818D01*
X1445472Y30348804D01*
X1432895Y30365388D01*
X1420111Y30381595D01*
X1407116Y30397451D01*
X1393906Y30412983D01*
X1380474Y30428217D01*
X1366818Y30443179D01*
X1352931Y30457896D01*
X1324446Y30486698D01*
X1294980Y30514833D01*
X1264496Y30542511D01*
X1232953Y30569943D01*
X1183387Y30613261D01*
X1137570Y30656638D01*
X1095365Y30700268D01*
X1056633Y30744342D01*
X1021234Y30789055D01*
X989030Y30834598D01*
X959883Y30881166D01*
X933654Y30928950D01*
X910204Y30978143D01*
X889394Y31028940D01*
X871086Y31081532D01*
X855140Y31136112D01*
X841419Y31192874D01*
X829783Y31252010D01*
X820094Y31313714D01*
X812213Y31378178D01*
X809620Y31403380D01*
X805462Y31386629D01*
X801665Y31369890D01*
X798185Y31353144D01*
X794978Y31336371D01*
X791998Y31319551D01*
X789203Y31302663D01*
X783988Y31268608D01*
X780310Y31243367D01*
X778923Y31234504D01*
X777619Y31226944D01*
X776233Y31219786D01*
X774600Y31212129D01*
X769932Y31191713D01*
X743474Y31178484D01*
X742476Y31242683D01*
X742265Y31306836D01*
X743905Y31435054D01*
X747800Y31563230D01*
X753352Y31691460D01*
X755050Y31726668D01*
X758991Y31810247D01*
X763424Y31893802D01*
X769207Y31970600D01*
X773025Y32008446D01*
X777705Y32045851D01*
X783429Y32082759D01*
X790379Y32119116D01*
X798738Y32154866D01*
X808687Y32189955D01*
X820410Y32224328D01*
X834088Y32257929D01*
X849905Y32290704D01*
X868042Y32322599D01*
X888681Y32353557D01*
X899996Y32368668D01*
X912006Y32383525D01*
X924732Y32398120D01*
X938198Y32412447D01*
X952426Y32426498D01*
X967440Y32440268D01*
X994828Y32461713D01*
X1004758Y32469672D01*
X1014636Y32477254D01*
X1024539Y32484496D01*
X1034545Y32491431D01*
X1044732Y32498095D01*
X1055177Y32504521D01*
X1065956Y32510745D01*
X1077149Y32516801D01*
X1104478Y32524184D01*
X1131408Y32529780D01*
X1157947Y32533613D01*
X1184103Y32535712D01*
X1209884Y32536103D01*
X1235298Y32534812D01*
G37*
G36*
X2450037Y31681193D02*
G01*
X2410349Y31667964D01*
X2344203Y31734109D01*
X2397120Y31747338D01*
X2450037Y31681193D01*
G37*
G36*
X836078Y31390151D02*
G01*
X875766Y31403380D01*
X875766Y31310776D01*
X862537Y31310776D01*
X849308Y31191713D01*
X836078Y31191713D01*
X809620Y31469526D01*
X836078Y31482755D01*
X836078Y31390151D01*
G37*
G36*
X818580Y30610727D02*
G01*
X823286Y30605050D01*
X827635Y30599468D01*
X831618Y30593898D01*
X835223Y30588253D01*
X838443Y30582450D01*
X841265Y30576403D01*
X843681Y30570028D01*
X845680Y30563239D01*
X847252Y30555952D01*
X848387Y30548083D01*
X849076Y30539545D01*
X849308Y30530255D01*
X756703Y30622859D01*
X796391Y30636088D01*
X818580Y30610727D01*
G37*
G36*
X1113891Y32514630D02*
G01*
X1076684Y32493959D01*
X1062688Y32487708D01*
X1056872Y32485230D01*
X1051685Y32483172D01*
X1047007Y32481526D01*
X1042718Y32480283D01*
X1040682Y32479810D01*
X1038697Y32479435D01*
X1036751Y32479156D01*
X1034826Y32478973D01*
X1032909Y32478885D01*
X1030983Y32478890D01*
X1029036Y32478987D01*
X1027050Y32479175D01*
X1022906Y32479822D01*
X1018432Y32480821D01*
X1013506Y32482164D01*
X1008011Y32483842D01*
X994828Y32488172D01*
X1004802Y32498042D01*
X1009130Y32502124D01*
X1013225Y32505742D01*
X1017243Y32508971D01*
X1021338Y32511891D01*
X1025666Y32514578D01*
X1030382Y32517111D01*
X1035640Y32519565D01*
X1041595Y32522020D01*
X1048404Y32524552D01*
X1056220Y32527239D01*
X1075495Y32533389D01*
X1100662Y32541088D01*
X1113891Y32514630D01*
G37*
G36*
X373058Y30980047D02*
G01*
X333370Y30966818D01*
X336818Y31012086D01*
X337806Y31021460D01*
X339040Y31030278D01*
X340616Y31038653D01*
X342633Y31046694D01*
X343836Y31050624D01*
X345186Y31054513D01*
X346695Y31058373D01*
X348375Y31062220D01*
X350237Y31066067D01*
X352295Y31069927D01*
X354560Y31073815D01*
X357045Y31077744D01*
X359762Y31081729D01*
X362722Y31085783D01*
X369423Y31094155D01*
X377245Y31102969D01*
X386287Y31112339D01*
X373058Y30980047D01*
G37*
G36*
X2363354Y31632523D02*
G01*
X2368841Y31623721D01*
X2373910Y31615057D01*
X2378580Y31606490D01*
X2382871Y31597977D01*
X2386801Y31589477D01*
X2390388Y31580947D01*
X2393651Y31572347D01*
X2396610Y31563635D01*
X2399282Y31554768D01*
X2401687Y31545704D01*
X2403842Y31536403D01*
X2405768Y31526823D01*
X2407481Y31516920D01*
X2409002Y31506655D01*
X2410349Y31495984D01*
X2406125Y31502110D01*
X2401908Y31508023D01*
X2397685Y31513741D01*
X2393438Y31519282D01*
X2389153Y31524664D01*
X2384815Y31529907D01*
X2380408Y31535028D01*
X2375917Y31540045D01*
X2371326Y31544978D01*
X2366621Y31549843D01*
X2361784Y31554661D01*
X2356802Y31559449D01*
X2351659Y31564225D01*
X2346339Y31569007D01*
X2335108Y31578667D01*
X2304516Y31601818D01*
X2344203Y31615047D01*
X2357432Y31641505D01*
X2363354Y31632523D01*
G37*
G36*
X1225186Y31817864D02*
G01*
X1229504Y31816858D01*
X1233341Y31815861D01*
X1236780Y31814826D01*
X1239907Y31813704D01*
X1241380Y31813095D01*
X1242806Y31812446D01*
X1244197Y31811751D01*
X1245562Y31811004D01*
X1246913Y31810199D01*
X1248260Y31809329D01*
X1250985Y31807374D01*
X1253821Y31805088D01*
X1256854Y31802426D01*
X1260167Y31799336D01*
X1263846Y31795772D01*
X1272641Y31787026D01*
X1278555Y31777117D01*
X1283981Y31767434D01*
X1288932Y31757929D01*
X1293423Y31748554D01*
X1297467Y31739260D01*
X1301078Y31730000D01*
X1304270Y31720726D01*
X1307058Y31711388D01*
X1309454Y31701941D01*
X1311474Y31692334D01*
X1313131Y31682520D01*
X1314439Y31672451D01*
X1315413Y31662079D01*
X1316065Y31651356D01*
X1316410Y31640234D01*
X1316462Y31628664D01*
X1315636Y31600991D01*
X1315377Y31568997D01*
X1314604Y31537417D01*
X1313803Y31521822D01*
X1312608Y31506377D01*
X1310929Y31491099D01*
X1308677Y31476003D01*
X1305765Y31461105D01*
X1302103Y31446421D01*
X1297602Y31431966D01*
X1292174Y31417757D01*
X1285729Y31403810D01*
X1278180Y31390139D01*
X1269437Y31376762D01*
X1264590Y31370188D01*
X1259412Y31363693D01*
X1245963Y31361794D01*
X1235382Y31360437D01*
X1230877Y31359962D01*
X1226739Y31359623D01*
X1222854Y31359420D01*
X1219104Y31359352D01*
X1215374Y31359420D01*
X1211546Y31359623D01*
X1207506Y31359962D01*
X1203136Y31360437D01*
X1192943Y31361794D01*
X1180037Y31363693D01*
X1174863Y31368987D01*
X1170170Y31374049D01*
X1165918Y31378927D01*
X1162065Y31383670D01*
X1158570Y31388329D01*
X1155393Y31392951D01*
X1152492Y31397586D01*
X1149827Y31402284D01*
X1147357Y31407093D01*
X1145040Y31412064D01*
X1142837Y31417245D01*
X1140705Y31422685D01*
X1136494Y31434542D01*
X1132081Y31448028D01*
X1126520Y31468563D01*
X1121624Y31489289D01*
X1117444Y31510167D01*
X1114027Y31531157D01*
X1111421Y31552218D01*
X1109677Y31573310D01*
X1108842Y31594393D01*
X1108964Y31615427D01*
X1110094Y31636372D01*
X1112278Y31657187D01*
X1115567Y31677832D01*
X1120008Y31698267D01*
X1125650Y31718452D01*
X1132542Y31738347D01*
X1140733Y31757911D01*
X1150271Y31777104D01*
X1160164Y31789125D01*
X1164300Y31794014D01*
X1168022Y31798240D01*
X1171424Y31801864D01*
X1174601Y31804951D01*
X1176134Y31806313D01*
X1177647Y31807563D01*
X1179151Y31808711D01*
X1180657Y31809764D01*
X1182178Y31810729D01*
X1183725Y31811615D01*
X1185310Y31812430D01*
X1186945Y31813181D01*
X1188642Y31813876D01*
X1190413Y31814523D01*
X1194222Y31815706D01*
X1198467Y31816792D01*
X1203243Y31817844D01*
X1214763Y31820099D01*
X1225186Y31817864D01*
G37*
G36*
X165220Y31780594D02*
G01*
X182952Y31779179D01*
X200441Y31776391D01*
X209081Y31774472D01*
X217643Y31772197D01*
X226121Y31769562D01*
X234510Y31766563D01*
X242805Y31763196D01*
X250999Y31759457D01*
X259086Y31755342D01*
X267061Y31750847D01*
X274918Y31745967D01*
X282652Y31740699D01*
X290256Y31735039D01*
X297725Y31728982D01*
X305053Y31722524D01*
X312234Y31715661D01*
X325144Y31701245D01*
X330678Y31694719D01*
X335635Y31688511D01*
X340041Y31682519D01*
X343923Y31676643D01*
X347307Y31670779D01*
X350222Y31664828D01*
X352693Y31658685D01*
X354747Y31652251D01*
X356411Y31645424D01*
X357713Y31638100D01*
X358679Y31630180D01*
X359335Y31621560D01*
X359710Y31612140D01*
X359828Y31601818D01*
X320141Y31628276D01*
X267224Y31601818D01*
X253244Y31615049D01*
X246737Y31620872D01*
X240444Y31626196D01*
X234285Y31631045D01*
X228179Y31635442D01*
X222045Y31639411D01*
X215803Y31642975D01*
X209372Y31646157D01*
X202672Y31648981D01*
X195621Y31651469D01*
X188140Y31653645D01*
X180148Y31655533D01*
X171563Y31657155D01*
X162306Y31658534D01*
X152296Y31659695D01*
X137452Y31659481D01*
X131348Y31659276D01*
X125986Y31658943D01*
X123551Y31658714D01*
X121263Y31658437D01*
X119108Y31658104D01*
X117075Y31657711D01*
X115150Y31657252D01*
X113320Y31656721D01*
X111573Y31656112D01*
X109895Y31655419D01*
X108274Y31654637D01*
X106697Y31653760D01*
X105151Y31652782D01*
X103623Y31651697D01*
X102100Y31650501D01*
X100570Y31649186D01*
X99019Y31647747D01*
X97435Y31646179D01*
X94115Y31642630D01*
X90507Y31638494D01*
X82016Y31628276D01*
X68035Y31609224D01*
X55698Y31590065D01*
X44911Y31570776D01*
X35579Y31551333D01*
X27607Y31531714D01*
X20900Y31511894D01*
X15365Y31491850D01*
X10906Y31471560D01*
X7430Y31450999D01*
X4840Y31430145D01*
X3043Y31408974D01*
X1945Y31387463D01*
X1450Y31365587D01*
X1464Y31343325D01*
X2641Y31297547D01*
X7116Y31309568D01*
X11648Y31321376D01*
X16277Y31333014D01*
X21046Y31344525D01*
X25994Y31355952D01*
X31164Y31367337D01*
X36595Y31378722D01*
X42328Y31390151D01*
X55579Y31410040D01*
X62039Y31419176D01*
X68483Y31427795D01*
X74982Y31435912D01*
X81607Y31443545D01*
X88431Y31450710D01*
X95523Y31457422D01*
X102956Y31463699D01*
X110799Y31469557D01*
X119126Y31475011D01*
X128006Y31480079D01*
X137510Y31484777D01*
X147711Y31489120D01*
X158679Y31493126D01*
X170486Y31496811D01*
X185028Y31496486D01*
X191064Y31496253D01*
X196440Y31495920D01*
X201279Y31495445D01*
X205702Y31494791D01*
X209832Y31493916D01*
X213791Y31492780D01*
X217701Y31491344D01*
X221686Y31489568D01*
X225867Y31487412D01*
X230366Y31484835D01*
X235306Y31481798D01*
X240809Y31478261D01*
X253995Y31469526D01*
X260441Y31455856D01*
X266259Y31442431D01*
X271475Y31429203D01*
X276121Y31416122D01*
X280224Y31403142D01*
X283813Y31390214D01*
X286918Y31377290D01*
X289567Y31364321D01*
X291790Y31351260D01*
X293615Y31338059D01*
X295072Y31324669D01*
X296189Y31311043D01*
X296995Y31297132D01*
X297519Y31282888D01*
X297839Y31253209D01*
X297093Y31212022D01*
X296630Y31145751D01*
X295950Y31079482D01*
X294458Y30941884D01*
X293786Y30854835D01*
X293202Y30813081D01*
X292811Y30774791D01*
X292359Y30740951D01*
X291888Y30732478D01*
X291759Y30728999D01*
X291730Y30725950D01*
X291759Y30724569D01*
X291822Y30723274D01*
X291920Y30722058D01*
X292056Y30720914D01*
X292233Y30719835D01*
X292454Y30718814D01*
X292720Y30717843D01*
X293036Y30716916D01*
X293403Y30716026D01*
X293825Y30715165D01*
X294303Y30714326D01*
X294841Y30713503D01*
X295441Y30712688D01*
X296107Y30711874D01*
X296839Y30711054D01*
X297642Y30710221D01*
X298518Y30709368D01*
X299469Y30708487D01*
X301608Y30706616D01*
X304082Y30704551D01*
X306912Y30702234D01*
X320141Y30821297D01*
X333370Y30821297D01*
X346599Y30741922D01*
X359828Y30741922D01*
X361094Y30697799D01*
X362593Y30653684D01*
X363962Y30617072D01*
X365602Y30581919D01*
X368715Y30547044D01*
X373309Y30512495D01*
X379392Y30478320D01*
X386973Y30444569D01*
X396059Y30411290D01*
X406658Y30378532D01*
X418779Y30346343D01*
X432430Y30314773D01*
X447619Y30283869D01*
X464353Y30253682D01*
X482641Y30224259D01*
X502491Y30195650D01*
X523912Y30167903D01*
X546910Y30141067D01*
X571495Y30115190D01*
X611183Y30080464D01*
X584724Y30067235D01*
X539995Y30097924D01*
X517855Y30113536D01*
X495958Y30129453D01*
X474372Y30145771D01*
X453167Y30162584D01*
X432412Y30179989D01*
X422225Y30188942D01*
X412177Y30198079D01*
X367630Y30250731D01*
X327924Y30306003D01*
X292776Y30363655D01*
X261904Y30423445D01*
X235025Y30485134D01*
X211856Y30548480D01*
X192116Y30613242D01*
X175520Y30679180D01*
X161787Y30746053D01*
X150635Y30813619D01*
X141780Y30881639D01*
X134939Y30949871D01*
X126174Y31086007D01*
X122078Y31220103D01*
X121703Y31244630D01*
X114736Y31208048D01*
X108823Y31171737D01*
X103915Y31135575D01*
X99964Y31099444D01*
X96920Y31063222D01*
X94734Y31026790D01*
X93356Y30990027D01*
X92739Y30952813D01*
X92764Y30910594D01*
X93001Y30855011D01*
X93460Y30827335D01*
X94270Y30799707D01*
X95521Y30772103D01*
X97305Y30744501D01*
X99715Y30716878D01*
X102841Y30689212D01*
X103863Y30681930D01*
X104696Y30674884D01*
X105338Y30668041D01*
X105788Y30661370D01*
X106042Y30654839D01*
X106098Y30648416D01*
X105954Y30642070D01*
X105607Y30635769D01*
X105055Y30629480D01*
X104295Y30623174D01*
X103326Y30616817D01*
X102144Y30610379D01*
X100747Y30603826D01*
X99134Y30597129D01*
X97300Y30590255D01*
X95245Y30583172D01*
X76276Y30632979D01*
X59286Y30682164D01*
X44313Y30731098D01*
X31393Y30780154D01*
X25714Y30804843D01*
X20563Y30829701D01*
X15944Y30854775D01*
X11861Y30880111D01*
X8319Y30905756D01*
X5323Y30931757D01*
X2878Y30958158D01*
X987Y30985008D01*
X426Y31008154D01*
X97Y31030900D01*
X-684Y31053175D01*
X-1457Y31064113D01*
X-2600Y31074908D01*
X-4197Y31085549D01*
X-6335Y31096029D01*
X-9098Y31106339D01*
X-12572Y31116469D01*
X-16843Y31126411D01*
X-19304Y31131309D01*
X-21996Y31136157D01*
X-24930Y31140953D01*
X-28116Y31145697D01*
X-31566Y31150387D01*
X-35290Y31155023D01*
X-63505Y31178484D01*
X-69556Y31189967D01*
X-75088Y31201185D01*
X-80121Y31212189D01*
X-84671Y31223032D01*
X-88755Y31233764D01*
X-92392Y31244439D01*
X-95598Y31255106D01*
X-98392Y31265819D01*
X-100790Y31276629D01*
X-102810Y31287587D01*
X-104469Y31298745D01*
X-105786Y31310156D01*
X-106777Y31321870D01*
X-107460Y31333940D01*
X-107853Y31346416D01*
X-107973Y31359352D01*
X-107326Y31390151D01*
X-107353Y31420744D01*
X-107172Y31451336D01*
X-105619Y31474189D01*
X-102999Y31496408D01*
X-99326Y31518018D01*
X-94613Y31539042D01*
X-88873Y31559506D01*
X-82120Y31579436D01*
X-74367Y31598855D01*
X-65628Y31617789D01*
X-55916Y31636263D01*
X-45243Y31654301D01*
X-33625Y31671929D01*
X-21073Y31689171D01*
X-7602Y31706052D01*
X6775Y31722598D01*
X22045Y31738832D01*
X38194Y31754780D01*
X56331Y31762065D01*
X74547Y31768205D01*
X92797Y31773169D01*
X111036Y31776922D01*
X129217Y31779432D01*
X147293Y31780667D01*
X165220Y31780594D01*
G37*
G36*
X884527Y30988862D02*
G01*
X888126Y30986981D01*
X891283Y30985246D01*
X894059Y30983600D01*
X896511Y30981988D01*
X898701Y30980354D01*
X900687Y30978645D01*
X902529Y30976804D01*
X904286Y30974777D01*
X906018Y30972508D01*
X907784Y30969942D01*
X909644Y30967023D01*
X911658Y30963698D01*
X916383Y30955604D01*
X930336Y30926303D01*
X942804Y30900289D01*
X955141Y30874214D01*
X915453Y30860984D01*
X903413Y30883205D01*
X888168Y30912247D01*
X879134Y30929320D01*
X876025Y30935400D01*
X873453Y30940695D01*
X871119Y30945845D01*
X868722Y30951489D01*
X862537Y30966818D01*
X875766Y30993276D01*
X884527Y30988862D01*
G37*
G36*
X1719952Y30813029D02*
G01*
X1733193Y30804599D01*
X1738661Y30800910D01*
X1743494Y30797381D01*
X1747793Y30793868D01*
X1751658Y30790229D01*
X1755190Y30786321D01*
X1758490Y30782001D01*
X1761657Y30777127D01*
X1764793Y30771554D01*
X1767998Y30765141D01*
X1771373Y30757745D01*
X1775018Y30749221D01*
X1779033Y30739429D01*
X1788578Y30715464D01*
X1775349Y30689005D01*
X1669516Y30794838D01*
X1695974Y30821297D01*
X1719952Y30813029D01*
G37*
G36*
X272159Y31433042D02*
G01*
X276009Y31424257D01*
X277624Y31419846D01*
X279084Y31415162D01*
X280427Y31410014D01*
X281694Y31404207D01*
X284148Y31389841D01*
X286758Y31370514D01*
X293683Y31310776D01*
X267224Y31310776D01*
X240766Y31429838D01*
X267224Y31443068D01*
X272159Y31433042D01*
G37*
G36*
X1318997Y32525232D02*
G01*
X1323673Y32524863D01*
X1328472Y32524163D01*
X1333455Y32523127D01*
X1338680Y32521750D01*
X1344208Y32520024D01*
X1350097Y32517946D01*
X1356408Y32515509D01*
X1391949Y32493260D01*
X1409438Y32481629D01*
X1426622Y32469597D01*
X1443413Y32457116D01*
X1459722Y32444138D01*
X1475461Y32430614D01*
X1490542Y32416499D01*
X1504876Y32401743D01*
X1518376Y32386299D01*
X1530954Y32370118D01*
X1542520Y32353154D01*
X1552988Y32335359D01*
X1557781Y32326134D01*
X1562267Y32316684D01*
X1566434Y32307002D01*
X1570271Y32297082D01*
X1573768Y32286918D01*
X1576912Y32276505D01*
X1537224Y32302963D01*
X1546371Y32277849D01*
X1557895Y32245086D01*
X1569522Y32212530D01*
X1571935Y32203028D01*
X1572861Y32199082D01*
X1573587Y32195565D01*
X1574107Y32192396D01*
X1574410Y32189495D01*
X1574478Y32188120D01*
X1574489Y32186781D01*
X1574441Y32185468D01*
X1574334Y32184172D01*
X1574167Y32182883D01*
X1573938Y32181589D01*
X1573647Y32180282D01*
X1573292Y32178951D01*
X1572387Y32176177D01*
X1571215Y32173186D01*
X1569767Y32169898D01*
X1568035Y32166232D01*
X1563682Y32157443D01*
X1540794Y32203175D01*
X1529287Y32225363D01*
X1517584Y32247049D01*
X1505569Y32268195D01*
X1493126Y32288762D01*
X1480141Y32308713D01*
X1466497Y32328009D01*
X1452079Y32346614D01*
X1436771Y32364488D01*
X1420458Y32381594D01*
X1403024Y32397894D01*
X1393851Y32405729D01*
X1384354Y32413349D01*
X1374519Y32420749D01*
X1364332Y32427923D01*
X1353778Y32434867D01*
X1342842Y32441576D01*
X1331511Y32448046D01*
X1319770Y32454272D01*
X1272641Y32474943D01*
X1299099Y32488172D01*
X1299099Y32514630D01*
X1272641Y32514630D01*
X1278886Y32516977D01*
X1284719Y32519045D01*
X1290199Y32520829D01*
X1295385Y32522322D01*
X1300337Y32523519D01*
X1305114Y32524414D01*
X1309777Y32525002D01*
X1314385Y32525276D01*
X1318997Y32525232D01*
G37*
G36*
X1292226Y32631620D02*
G01*
X1303418Y32631058D01*
X1314531Y32630138D01*
X1325600Y32628838D01*
X1336663Y32627136D01*
X1347756Y32625010D01*
X1358914Y32622437D01*
X1370175Y32619396D01*
X1381574Y32615863D01*
X1393148Y32611816D01*
X1404933Y32607234D01*
X1404933Y32580776D01*
X1333766Y32590113D01*
X1307987Y32593245D01*
X1284986Y32595728D01*
X1261943Y32597844D01*
X1236041Y32599875D01*
X1164379Y32604805D01*
X1127120Y32607234D01*
X1127120Y32620463D01*
X1160443Y32623550D01*
X1193783Y32626458D01*
X1221378Y32628732D01*
X1245940Y32630739D01*
X1257812Y32631384D01*
X1269460Y32631761D01*
X1280919Y32631847D01*
X1292226Y32631620D01*
G37*
G36*
X769932Y32329422D02*
G01*
X766367Y32305444D01*
X759184Y32276505D01*
X752311Y32247566D01*
X749342Y32239626D01*
X748040Y32236362D01*
X746789Y32233497D01*
X745538Y32230976D01*
X744236Y32228745D01*
X743550Y32227720D01*
X742831Y32226748D01*
X742074Y32225821D01*
X741271Y32224932D01*
X740417Y32224075D01*
X739505Y32223242D01*
X738528Y32222427D01*
X737481Y32221623D01*
X735146Y32220021D01*
X732450Y32218382D01*
X729341Y32216651D01*
X725766Y32214773D01*
X717016Y32210359D01*
X718625Y32230275D01*
X719880Y32248745D01*
X720580Y32257513D01*
X721437Y32266010D01*
X722533Y32274265D01*
X723951Y32282309D01*
X725772Y32290172D01*
X728079Y32297884D01*
X730953Y32305473D01*
X732628Y32309232D01*
X734476Y32312972D01*
X736507Y32316696D01*
X738731Y32320409D01*
X741158Y32324114D01*
X743799Y32327814D01*
X746664Y32331515D01*
X749763Y32335218D01*
X753106Y32338929D01*
X756703Y32342651D01*
X769932Y32329422D01*
G37*
G36*
X1100662Y32263276D02*
G01*
X1092960Y32260407D01*
X1085910Y32257526D01*
X1079445Y32254597D01*
X1073496Y32251583D01*
X1067998Y32248447D01*
X1062882Y32245154D01*
X1058082Y32241665D01*
X1053530Y32237945D01*
X1049159Y32233958D01*
X1044902Y32229666D01*
X1040691Y32225033D01*
X1036459Y32220023D01*
X1032140Y32214598D01*
X1027665Y32208724D01*
X1017979Y32195476D01*
X994828Y32157443D01*
X968370Y32183901D01*
X980165Y32199247D01*
X992051Y32214523D01*
X1004086Y32229682D01*
X1016326Y32244672D01*
X1020459Y32248788D01*
X1024489Y32252563D01*
X1028448Y32256008D01*
X1032366Y32259138D01*
X1036274Y32261964D01*
X1040202Y32264498D01*
X1044183Y32266752D01*
X1048246Y32268740D01*
X1052423Y32270472D01*
X1056744Y32271963D01*
X1061240Y32273223D01*
X1065943Y32274266D01*
X1070882Y32275103D01*
X1076090Y32275747D01*
X1081596Y32276210D01*
X1087432Y32276505D01*
X1100662Y32263276D01*
G37*
G36*
X1457849Y30358276D02*
G01*
X1431391Y30331818D01*
X1365245Y30411193D01*
X1391703Y30437651D01*
X1457849Y30358276D01*
G37*
G36*
X82016Y31747338D02*
G01*
X51423Y31714266D01*
X39610Y31703349D01*
X34678Y31698932D01*
X30249Y31695145D01*
X26212Y31691940D01*
X22457Y31689267D01*
X20651Y31688115D01*
X18874Y31687079D01*
X17113Y31686151D01*
X15353Y31685327D01*
X13581Y31684599D01*
X11784Y31683962D01*
X9946Y31683410D01*
X8056Y31682937D01*
X6098Y31682536D01*
X4059Y31682202D01*
X-318Y31681709D01*
X-5183Y31681411D01*
X-10648Y31681257D01*
X-23817Y31681193D01*
X-18650Y31688724D01*
X-13593Y31695650D01*
X-8604Y31702026D01*
X-3641Y31707908D01*
X1335Y31713355D01*
X6366Y31718420D01*
X11494Y31723162D01*
X16760Y31727636D01*
X22205Y31731900D01*
X27869Y31736008D01*
X33795Y31740018D01*
X40024Y31743986D01*
X46596Y31747969D01*
X53553Y31752022D01*
X68787Y31760568D01*
X82016Y31747338D01*
G37*
G36*
X1060974Y32435255D02*
G01*
X1040614Y32416393D01*
X1027711Y32404395D01*
X1015472Y32392350D01*
X1003855Y32380228D01*
X992815Y32367997D01*
X982308Y32355628D01*
X972291Y32343090D01*
X962719Y32330351D01*
X953549Y32317383D01*
X944738Y32304153D01*
X936241Y32290633D01*
X928015Y32276790D01*
X920015Y32262595D01*
X912198Y32248016D01*
X904521Y32233024D01*
X889408Y32201678D01*
X875766Y32170672D01*
X871804Y32183844D01*
X870169Y32189685D01*
X868780Y32195136D01*
X867650Y32200276D01*
X866791Y32205185D01*
X866215Y32209943D01*
X865934Y32214630D01*
X865960Y32219326D01*
X866306Y32224110D01*
X866983Y32229062D01*
X868004Y32234263D01*
X869380Y32239791D01*
X871125Y32245727D01*
X873249Y32252151D01*
X875766Y32259142D01*
X893943Y32289326D01*
X912194Y32318692D01*
X921557Y32332906D01*
X931191Y32346719D01*
X941181Y32360067D01*
X951610Y32372885D01*
X962562Y32385106D01*
X974123Y32396666D01*
X986376Y32407500D01*
X992788Y32412624D01*
X999406Y32417541D01*
X1006238Y32422245D01*
X1013296Y32426726D01*
X1020590Y32430976D01*
X1028131Y32434988D01*
X1035930Y32438753D01*
X1043996Y32442263D01*
X1052341Y32445509D01*
X1060974Y32448484D01*
X1060974Y32435255D01*
G37*
G36*
X1249809Y30246429D02*
G01*
X1253126Y30240644D01*
X1256147Y30235046D01*
X1258887Y30229590D01*
X1261361Y30224235D01*
X1263583Y30218936D01*
X1265569Y30213652D01*
X1267333Y30208339D01*
X1268889Y30202954D01*
X1270254Y30197454D01*
X1271440Y30191796D01*
X1272464Y30185937D01*
X1273340Y30179834D01*
X1274082Y30173444D01*
X1274705Y30166724D01*
X1275225Y30159632D01*
X1274294Y30116844D01*
X1273577Y30078807D01*
X1272641Y30040776D01*
X1263897Y30053957D01*
X1260338Y30059450D01*
X1257259Y30064369D01*
X1254613Y30068833D01*
X1252353Y30072962D01*
X1250433Y30076875D01*
X1248805Y30080690D01*
X1247423Y30084526D01*
X1246240Y30088502D01*
X1245210Y30092737D01*
X1244285Y30097350D01*
X1243419Y30102460D01*
X1242565Y30108185D01*
X1240705Y30121960D01*
X1237914Y30168934D01*
X1235338Y30210682D01*
X1232953Y30252443D01*
X1246183Y30252443D01*
X1249809Y30246429D01*
G37*
G36*
X1477465Y29915223D02*
G01*
X1480077Y29912366D01*
X1482352Y29909613D01*
X1484330Y29906847D01*
X1486049Y29903952D01*
X1487548Y29900812D01*
X1488866Y29897311D01*
X1490042Y29893332D01*
X1491113Y29888759D01*
X1492120Y29883476D01*
X1493101Y29877367D01*
X1495139Y29862203D01*
X1497537Y29842339D01*
X1481929Y29819017D01*
X1476486Y29811068D01*
X1471892Y29804595D01*
X1467604Y29798852D01*
X1463076Y29793090D01*
X1457767Y29786561D01*
X1451131Y29778518D01*
X1429737Y29753869D01*
X1391703Y29710047D01*
X1387361Y29723202D01*
X1385651Y29728632D01*
X1384247Y29733430D01*
X1383147Y29737694D01*
X1382350Y29741525D01*
X1382064Y29743308D01*
X1381854Y29745021D01*
X1381719Y29746674D01*
X1381659Y29748281D01*
X1381673Y29749854D01*
X1381762Y29751405D01*
X1381925Y29752947D01*
X1382162Y29754492D01*
X1382473Y29756053D01*
X1382858Y29757641D01*
X1383848Y29760952D01*
X1385131Y29764524D01*
X1386705Y29768455D01*
X1390721Y29777795D01*
X1408676Y29807775D01*
X1426418Y29837841D01*
X1435116Y29852968D01*
X1443649Y29868192D01*
X1451980Y29883537D01*
X1460071Y29899028D01*
X1471078Y29921713D01*
X1477465Y29915223D01*
G37*
G36*
X518578Y30768380D02*
G01*
X478891Y30728693D01*
X473723Y30748979D01*
X469870Y30765743D01*
X468387Y30773482D01*
X467175Y30781154D01*
X466214Y30789032D01*
X465485Y30797385D01*
X464643Y30816604D01*
X464495Y30840983D01*
X465662Y30913901D01*
X478891Y30913901D01*
X518578Y30768380D01*
G37*
G36*
X902224Y31204943D02*
G01*
X875766Y31204943D01*
X875559Y31194917D01*
X875068Y31188897D01*
X874112Y31180551D01*
X870185Y31151923D01*
X862537Y31099109D01*
X849308Y31099109D01*
X848230Y31138433D01*
X847370Y31177761D01*
X846827Y31209904D01*
X846460Y31224377D01*
X846284Y31238658D01*
X846300Y31252813D01*
X846510Y31266908D01*
X846914Y31281009D01*
X847514Y31295181D01*
X848312Y31309491D01*
X849308Y31324005D01*
X888995Y31350463D01*
X902224Y31204943D01*
G37*
G36*
X1828266Y31562130D02*
G01*
X1854724Y31562130D01*
X1859607Y31552208D01*
X1861526Y31548003D01*
X1863096Y31544147D01*
X1864317Y31540523D01*
X1865189Y31537015D01*
X1865712Y31533508D01*
X1865886Y31529884D01*
X1865712Y31526028D01*
X1865189Y31521823D01*
X1864317Y31517152D01*
X1863096Y31511901D01*
X1861526Y31505951D01*
X1859607Y31499188D01*
X1854724Y31482755D01*
X1848332Y31492067D01*
X1842564Y31501031D01*
X1837399Y31509716D01*
X1832815Y31518190D01*
X1828789Y31526521D01*
X1825298Y31534778D01*
X1822323Y31543029D01*
X1819839Y31551342D01*
X1817825Y31559785D01*
X1816260Y31568427D01*
X1815120Y31577336D01*
X1814384Y31586580D01*
X1814030Y31596228D01*
X1814035Y31606348D01*
X1814378Y31617008D01*
X1815037Y31628276D01*
X1828266Y31628276D01*
X1828266Y31562130D01*
G37*
G36*
X1418162Y29643901D02*
G01*
X1384865Y29625350D01*
X1351499Y29606926D01*
X1323904Y29591811D01*
X1301345Y29579348D01*
X1279396Y29567825D01*
X1257695Y29557355D01*
X1246826Y29552552D01*
X1235885Y29548055D01*
X1224826Y29543879D01*
X1213604Y29540038D01*
X1202175Y29536547D01*
X1190494Y29533420D01*
X1178516Y29530671D01*
X1166196Y29528315D01*
X1153489Y29526366D01*
X1140349Y29524838D01*
X1180702Y29555157D01*
X1200772Y29570454D01*
X1220758Y29585869D01*
X1269771Y29623980D01*
X1319001Y29661788D01*
X1368461Y29699294D01*
X1418162Y29736505D01*
X1418162Y29643901D01*
G37*
G36*
X1805718Y31953233D02*
G01*
X1808569Y31921694D01*
X1810331Y31890616D01*
X1810976Y31859770D01*
X1810475Y31828925D01*
X1808799Y31797854D01*
X1805919Y31766325D01*
X1801808Y31734109D01*
X1788578Y31734109D01*
X1783229Y31765230D01*
X1778506Y31796290D01*
X1776397Y31811846D01*
X1774466Y31827446D01*
X1772719Y31843110D01*
X1771163Y31858856D01*
X1767908Y31904435D01*
X1762120Y31985463D01*
X1801808Y31985463D01*
X1805718Y31953233D01*
G37*
G36*
X1551153Y30073198D02*
G01*
X1551019Y30050028D01*
X1550285Y30026986D01*
X1548746Y30004014D01*
X1547610Y29992536D01*
X1546195Y29981054D01*
X1544474Y29969561D01*
X1542423Y29958050D01*
X1540015Y29946513D01*
X1537224Y29934943D01*
X1516812Y29950549D01*
X1510451Y29958561D01*
X1507882Y29961927D01*
X1505684Y29964976D01*
X1503830Y29967792D01*
X1502294Y29970457D01*
X1501049Y29973053D01*
X1500069Y29975664D01*
X1499325Y29978371D01*
X1498793Y29981258D01*
X1498444Y29984407D01*
X1498252Y29987901D01*
X1498190Y29991823D01*
X1498232Y29996255D01*
X1498518Y30006979D01*
X1506632Y30042430D01*
X1514228Y30078087D01*
X1517504Y30087630D01*
X1518931Y30091542D01*
X1520288Y30094964D01*
X1521629Y30097956D01*
X1522309Y30099310D01*
X1523006Y30100580D01*
X1523725Y30101773D01*
X1524472Y30102898D01*
X1525256Y30103961D01*
X1526081Y30104971D01*
X1526956Y30105935D01*
X1527886Y30106862D01*
X1528878Y30107758D01*
X1529939Y30108631D01*
X1531076Y30109489D01*
X1532295Y30110341D01*
X1535004Y30112052D01*
X1538122Y30113828D01*
X1541701Y30115728D01*
X1550453Y30120151D01*
X1551153Y30073198D01*
G37*
G36*
X483994Y30897929D02*
G01*
X489257Y30882121D01*
X494700Y30866449D01*
X500343Y30850885D01*
X506205Y30835401D01*
X512304Y30819970D01*
X518662Y30804564D01*
X525296Y30789154D01*
X546690Y30743575D01*
X568291Y30697377D01*
X584724Y30662547D01*
X505349Y30662547D01*
X494713Y30694510D01*
X489991Y30710107D01*
X485668Y30725515D01*
X481746Y30740784D01*
X478227Y30755963D01*
X475114Y30771104D01*
X472408Y30786256D01*
X470112Y30801469D01*
X468227Y30816794D01*
X466755Y30832281D01*
X465698Y30847981D01*
X465058Y30863942D01*
X464838Y30880216D01*
X465038Y30896852D01*
X465662Y30913901D01*
X478891Y30913901D01*
X483994Y30897929D01*
G37*
G36*
X1560126Y31010006D02*
G01*
X1568162Y31001586D01*
X1575637Y30993068D01*
X1583626Y30983048D01*
X1593204Y30970121D01*
X1605447Y30952881D01*
X1642231Y30899845D01*
X1658455Y30876427D01*
X1674950Y30853435D01*
X1691828Y30830703D01*
X1709203Y30808068D01*
X1748891Y30794838D01*
X1756565Y30781932D01*
X1762533Y30771739D01*
X1767262Y30763329D01*
X1771215Y30755771D01*
X1774858Y30748136D01*
X1778656Y30739493D01*
X1783075Y30728912D01*
X1788578Y30715464D01*
X1775349Y30689005D01*
X1704438Y30756615D01*
X1668594Y30791163D01*
X1633333Y30826496D01*
X1616119Y30844526D01*
X1599287Y30862834D01*
X1582918Y30881447D01*
X1567090Y30900393D01*
X1551881Y30919699D01*
X1537372Y30939391D01*
X1523640Y30959498D01*
X1510766Y30980047D01*
X1523995Y31019734D01*
X1550453Y31019734D01*
X1560126Y31010006D01*
G37*
G36*
X1471078Y30755151D02*
G01*
X1497537Y30755151D01*
X1504948Y30750398D01*
X1511904Y30745674D01*
X1518434Y30740943D01*
X1524563Y30736170D01*
X1530320Y30731320D01*
X1535732Y30726354D01*
X1540826Y30721240D01*
X1545630Y30715939D01*
X1550172Y30710417D01*
X1554478Y30704637D01*
X1558576Y30698564D01*
X1562494Y30692162D01*
X1566259Y30685396D01*
X1569899Y30678228D01*
X1573441Y30670624D01*
X1576912Y30662547D01*
X1537224Y30636088D01*
X1444620Y30768380D01*
X1471078Y30781609D01*
X1471078Y30755151D01*
G37*
G36*
X888995Y31138797D02*
G01*
X926486Y31064460D01*
X941085Y31035444D01*
X962684Y30992451D01*
X973254Y30970922D01*
X983587Y30949307D01*
X993621Y30927555D01*
X1003290Y30905617D01*
X1012533Y30883443D01*
X1021287Y30860984D01*
X955141Y30860984D01*
X934204Y30898457D01*
X914586Y30934693D01*
X905482Y30952566D01*
X896963Y30970392D01*
X889112Y30988257D01*
X882015Y31006250D01*
X875756Y31024458D01*
X870420Y31042968D01*
X866092Y31061867D01*
X862856Y31081242D01*
X860798Y31101182D01*
X860003Y31121772D01*
X860554Y31143101D01*
X862537Y31165255D01*
X875766Y31165255D01*
X888995Y31138797D01*
G37*
G36*
X1410613Y31494911D02*
G01*
X1417447Y31454397D01*
X1425422Y31414151D01*
X1434527Y31374193D01*
X1444750Y31334542D01*
X1456081Y31295220D01*
X1468507Y31256247D01*
X1482016Y31217643D01*
X1496598Y31179428D01*
X1512241Y31141622D01*
X1528932Y31104246D01*
X1546662Y31067320D01*
X1565417Y31030864D01*
X1585188Y30994899D01*
X1605961Y30959444D01*
X1627726Y30924520D01*
X1645538Y30897365D01*
X1653150Y30885818D01*
X1660819Y30874442D01*
X1668565Y30863207D01*
X1676411Y30852082D01*
X1684377Y30841036D01*
X1692483Y30830038D01*
X1700752Y30819059D01*
X1709203Y30808068D01*
X1748891Y30794838D01*
X1756565Y30781932D01*
X1762533Y30771739D01*
X1767262Y30763329D01*
X1771215Y30755771D01*
X1774858Y30748136D01*
X1778656Y30739493D01*
X1783075Y30728912D01*
X1788578Y30715464D01*
X1775349Y30689005D01*
X1739570Y30723473D01*
X1704281Y30758079D01*
X1669626Y30793051D01*
X1635749Y30828612D01*
X1602795Y30864991D01*
X1586710Y30883557D01*
X1570910Y30902412D01*
X1555412Y30921585D01*
X1540237Y30941102D01*
X1525400Y30960994D01*
X1510921Y30981287D01*
X1484307Y31019734D01*
X1447601Y31063570D01*
X1432822Y31082788D01*
X1420245Y31101215D01*
X1409735Y31119605D01*
X1401155Y31138715D01*
X1394371Y31159301D01*
X1389245Y31182118D01*
X1385644Y31207922D01*
X1383430Y31237469D01*
X1382469Y31271514D01*
X1382625Y31310814D01*
X1385744Y31408200D01*
X1391703Y31535672D01*
X1404933Y31535672D01*
X1410613Y31494911D01*
G37*
G36*
X1431391Y30874214D02*
G01*
X1391703Y30847755D01*
X1382936Y30856535D01*
X1376133Y30863424D01*
X1370781Y30869013D01*
X1368487Y30871504D01*
X1366362Y30873891D01*
X1364343Y30876247D01*
X1362363Y30878647D01*
X1360360Y30881164D01*
X1358268Y30883872D01*
X1353561Y30890156D01*
X1347727Y30898088D01*
X1329692Y30925477D01*
X1311346Y30952658D01*
X1307330Y30961802D01*
X1305755Y30965705D01*
X1304473Y30969319D01*
X1303483Y30972762D01*
X1302787Y30976151D01*
X1302387Y30979603D01*
X1302284Y30983238D01*
X1302479Y30987171D01*
X1302975Y30991522D01*
X1303772Y30996406D01*
X1304872Y31001943D01*
X1307986Y31015443D01*
X1312328Y31032963D01*
X1431391Y30874214D01*
G37*
G36*
X1700883Y31472730D02*
G01*
X1702863Y31468279D01*
X1704552Y31463945D01*
X1705970Y31459533D01*
X1707136Y31454850D01*
X1708070Y31449702D01*
X1708790Y31443894D01*
X1709316Y31437235D01*
X1709668Y31429528D01*
X1709927Y31410201D01*
X1709720Y31384363D01*
X1709203Y31350463D01*
X1682745Y31337234D01*
X1669516Y31482755D01*
X1695974Y31482755D01*
X1700883Y31472730D01*
G37*
G36*
X1656287Y31231401D02*
G01*
X1709203Y31257859D01*
X1709203Y31178484D01*
X1682745Y31165255D01*
X1672875Y31175229D01*
X1668792Y31179557D01*
X1665175Y31183652D01*
X1661945Y31187670D01*
X1659025Y31191765D01*
X1656338Y31196093D01*
X1653806Y31200809D01*
X1651352Y31206067D01*
X1648897Y31212022D01*
X1646365Y31218831D01*
X1643678Y31226647D01*
X1637528Y31245922D01*
X1629828Y31271089D01*
X1656287Y31271089D01*
X1656287Y31231401D01*
G37*
G36*
X121703Y31615047D02*
G01*
X113442Y31607205D01*
X105555Y31599367D01*
X97999Y31591459D01*
X90732Y31583409D01*
X83708Y31575145D01*
X76886Y31566592D01*
X70221Y31557679D01*
X63671Y31548333D01*
X46462Y31519962D01*
X28944Y31491282D01*
X15870Y31469526D01*
X12207Y31482662D01*
X8792Y31495868D01*
X5610Y31509131D01*
X2641Y31522443D01*
X5733Y31530788D01*
X9123Y31538748D01*
X12803Y31546356D01*
X16759Y31553644D01*
X20983Y31560647D01*
X25463Y31567397D01*
X30189Y31573928D01*
X35150Y31580272D01*
X40335Y31586462D01*
X45734Y31592532D01*
X51336Y31598514D01*
X57130Y31604443D01*
X69252Y31616269D01*
X82016Y31628276D01*
X121703Y31615047D01*
G37*
G36*
X1153578Y32514630D02*
G01*
X1246183Y32501401D01*
X1246183Y32488172D01*
X1224098Y32484628D01*
X1202098Y32480822D01*
X1158288Y32472519D01*
X1114629Y32463451D01*
X1070999Y32453807D01*
X1047745Y32448484D01*
X1100662Y32474943D01*
X1087432Y32514630D01*
X1153578Y32527859D01*
X1153578Y32514630D01*
G37*
G36*
X1355407Y32278896D02*
G01*
X1365133Y32276233D01*
X1374580Y32272697D01*
X1383751Y32268335D01*
X1392647Y32263193D01*
X1401272Y32257317D01*
X1409626Y32250753D01*
X1417713Y32243548D01*
X1425535Y32235748D01*
X1433093Y32227399D01*
X1447430Y32209241D01*
X1460739Y32189445D01*
X1473040Y32168381D01*
X1484349Y32146419D01*
X1494684Y32123931D01*
X1504063Y32101286D01*
X1512502Y32078856D01*
X1520021Y32057011D01*
X1526636Y32036122D01*
X1537224Y31998693D01*
X1538576Y31988753D01*
X1539648Y31979312D01*
X1540416Y31970312D01*
X1540853Y31961692D01*
X1540932Y31953394D01*
X1540628Y31945359D01*
X1539915Y31937527D01*
X1538766Y31929838D01*
X1537156Y31922235D01*
X1535058Y31914656D01*
X1532446Y31907044D01*
X1529294Y31899339D01*
X1525577Y31891481D01*
X1521267Y31883411D01*
X1516338Y31875071D01*
X1510766Y31866401D01*
X1504302Y31865619D01*
X1498051Y31865008D01*
X1491986Y31864568D01*
X1486079Y31864302D01*
X1480301Y31864213D01*
X1474624Y31864302D01*
X1469022Y31864572D01*
X1463466Y31865025D01*
X1457928Y31865663D01*
X1452381Y31866488D01*
X1446796Y31867503D01*
X1441146Y31868710D01*
X1435403Y31870110D01*
X1429538Y31871706D01*
X1423525Y31873501D01*
X1417335Y31875496D01*
X1403108Y31885900D01*
X1389975Y31897037D01*
X1377875Y31908861D01*
X1366743Y31921327D01*
X1356518Y31934390D01*
X1347135Y31948004D01*
X1338534Y31962125D01*
X1330650Y31976707D01*
X1323420Y31991704D01*
X1316783Y32007072D01*
X1310674Y32022766D01*
X1305032Y32038739D01*
X1299794Y32054947D01*
X1294896Y32071344D01*
X1285870Y32104526D01*
X1283268Y32128823D01*
X1282233Y32140400D01*
X1281451Y32151653D01*
X1280978Y32162621D01*
X1280871Y32173348D01*
X1281186Y32183875D01*
X1281979Y32194244D01*
X1283308Y32204496D01*
X1285227Y32214673D01*
X1287795Y32224818D01*
X1291067Y32234971D01*
X1295100Y32245174D01*
X1299950Y32255470D01*
X1305674Y32265900D01*
X1312328Y32276505D01*
X1345401Y32280639D01*
X1355407Y32278896D01*
G37*
G36*
X888892Y32362572D02*
G01*
X888646Y32354346D01*
X888168Y32346992D01*
X887380Y32340335D01*
X886845Y32337214D01*
X886204Y32334202D01*
X885447Y32331277D01*
X884564Y32328417D01*
X883545Y32325601D01*
X882380Y32322807D01*
X881061Y32320013D01*
X879577Y32317197D01*
X877918Y32314337D01*
X876076Y32311412D01*
X871800Y32305279D01*
X866671Y32298623D01*
X860612Y32291268D01*
X853545Y32283042D01*
X836078Y32263276D01*
X832771Y32293042D01*
X834233Y32308092D01*
X835025Y32314350D01*
X835968Y32319938D01*
X837143Y32324987D01*
X837844Y32327350D01*
X838634Y32329627D01*
X839523Y32331835D01*
X840522Y32333990D01*
X841641Y32336108D01*
X842890Y32338205D01*
X844280Y32340299D01*
X845820Y32342405D01*
X849395Y32346719D01*
X853697Y32351279D01*
X858809Y32356215D01*
X864812Y32361658D01*
X871789Y32367739D01*
X888995Y32382338D01*
X888892Y32362572D01*
G37*
G36*
X1550918Y30096431D02*
G01*
X1551280Y30064754D01*
X1550888Y30038329D01*
X1548949Y30012647D01*
X1545521Y29987671D01*
X1540663Y29963363D01*
X1534430Y29939685D01*
X1526882Y29916599D01*
X1518075Y29894068D01*
X1508068Y29872054D01*
X1496918Y29850520D01*
X1484682Y29829428D01*
X1471419Y29808740D01*
X1457185Y29788419D01*
X1442039Y29768427D01*
X1426039Y29748726D01*
X1409241Y29729278D01*
X1391703Y29710047D01*
X1378474Y29749734D01*
X1387127Y29762992D01*
X1395491Y29776415D01*
X1403528Y29790005D01*
X1411201Y29803763D01*
X1418473Y29817694D01*
X1425304Y29831797D01*
X1431659Y29846077D01*
X1437499Y29860536D01*
X1442786Y29875175D01*
X1447483Y29889996D01*
X1451551Y29905003D01*
X1454954Y29920198D01*
X1457654Y29935583D01*
X1459613Y29951159D01*
X1460793Y29966931D01*
X1461156Y29982898D01*
X1457849Y30027547D01*
X1484307Y30040776D01*
X1497537Y30001088D01*
X1502394Y30023774D01*
X1509112Y30053179D01*
X1515623Y30082479D01*
X1518438Y30090573D01*
X1519679Y30093898D01*
X1520877Y30096817D01*
X1522082Y30099383D01*
X1523346Y30101652D01*
X1524017Y30102692D01*
X1524721Y30103679D01*
X1525465Y30104620D01*
X1526256Y30105520D01*
X1527100Y30106388D01*
X1528003Y30107229D01*
X1528972Y30108052D01*
X1530013Y30108863D01*
X1532337Y30110475D01*
X1535026Y30112121D01*
X1538131Y30113856D01*
X1541704Y30115737D01*
X1550453Y30120151D01*
X1550918Y30096431D01*
G37*
G36*
X1391703Y32236818D02*
G01*
X1325557Y32250047D01*
X1312328Y32144213D01*
X1299099Y32144213D01*
X1296455Y32153988D01*
X1294271Y32163245D01*
X1292547Y32172051D01*
X1291284Y32180476D01*
X1290482Y32188586D01*
X1290143Y32196450D01*
X1290267Y32204135D01*
X1290854Y32211711D01*
X1291906Y32219244D01*
X1293423Y32226803D01*
X1295405Y32234456D01*
X1297854Y32242270D01*
X1300770Y32250314D01*
X1304154Y32258656D01*
X1308007Y32267364D01*
X1312328Y32276505D01*
X1378474Y32276505D01*
X1391703Y32236818D01*
G37*
G36*
X447103Y30242266D02*
G01*
X450404Y30242120D01*
X457859Y30241539D01*
X467096Y30240570D01*
X478891Y30239214D01*
X497081Y30211928D01*
X510913Y30191495D01*
X521963Y30175506D01*
X526792Y30168763D01*
X531345Y30162631D01*
X535760Y30156946D01*
X540177Y30151539D01*
X544735Y30146246D01*
X549575Y30140900D01*
X554834Y30135335D01*
X560654Y30129384D01*
X574530Y30115659D01*
X592321Y30098395D01*
X611183Y30080464D01*
X584724Y30067235D01*
X556776Y30087026D01*
X528940Y30106973D01*
X506176Y30123458D01*
X495653Y30130946D01*
X485367Y30138473D01*
X475270Y30146074D01*
X465316Y30153779D01*
X455456Y30161621D01*
X445644Y30169633D01*
X435833Y30177848D01*
X425974Y30186297D01*
X422133Y30196371D01*
X419227Y30204216D01*
X418076Y30207496D01*
X417101Y30210452D01*
X416282Y30213161D01*
X415600Y30215701D01*
X415036Y30218148D01*
X414569Y30220581D01*
X414181Y30223077D01*
X413853Y30225713D01*
X413564Y30228567D01*
X413296Y30231717D01*
X412745Y30239214D01*
X422912Y30240570D01*
X430987Y30241539D01*
X434481Y30241878D01*
X437743Y30242120D01*
X440870Y30242266D01*
X443958Y30242314D01*
X447103Y30242266D01*
G37*
G36*
X2287903Y31674564D02*
G01*
X2294031Y31673127D01*
X2299464Y31671775D01*
X2304321Y31670456D01*
X2308719Y31669121D01*
X2312776Y31667721D01*
X2316608Y31666207D01*
X2320334Y31664527D01*
X2324070Y31662633D01*
X2327935Y31660475D01*
X2332046Y31658003D01*
X2336521Y31655168D01*
X2341476Y31651920D01*
X2353298Y31643986D01*
X2368225Y31622169D01*
X2381419Y31600316D01*
X2392974Y31578393D01*
X2402986Y31556365D01*
X2411547Y31534196D01*
X2418751Y31511852D01*
X2424692Y31489297D01*
X2429463Y31466498D01*
X2433160Y31443419D01*
X2435875Y31420024D01*
X2437702Y31396280D01*
X2438736Y31372151D01*
X2439069Y31347602D01*
X2438796Y31322599D01*
X2436807Y31271089D01*
X2410349Y31271089D01*
X2402362Y31296245D01*
X2394180Y31320888D01*
X2385566Y31345047D01*
X2376281Y31368752D01*
X2371313Y31380442D01*
X2366087Y31392030D01*
X2360575Y31403519D01*
X2354746Y31414912D01*
X2348570Y31426214D01*
X2342018Y31437427D01*
X2335060Y31448556D01*
X2327667Y31459604D01*
X2305254Y31468920D01*
X2295898Y31472618D01*
X2287499Y31475696D01*
X2279847Y31478167D01*
X2272735Y31480048D01*
X2265953Y31481352D01*
X2259295Y31482093D01*
X2252552Y31482287D01*
X2245514Y31481947D01*
X2237974Y31481089D01*
X2229724Y31479726D01*
X2220555Y31477874D01*
X2210260Y31475547D01*
X2185453Y31469526D01*
X2179538Y31455920D01*
X2174113Y31442602D01*
X2169163Y31429519D01*
X2164674Y31416618D01*
X2160631Y31403848D01*
X2157018Y31391155D01*
X2153820Y31378487D01*
X2151023Y31365790D01*
X2148611Y31353014D01*
X2146571Y31340104D01*
X2144885Y31327008D01*
X2143541Y31313675D01*
X2142522Y31300050D01*
X2141814Y31286081D01*
X2141401Y31271717D01*
X2141269Y31256903D01*
X2141890Y31217345D01*
X2142215Y31153701D01*
X2142772Y31090059D01*
X2143586Y31001757D01*
X2144375Y30883285D01*
X2145499Y30764814D01*
X2145766Y30741922D01*
X2119307Y30728693D01*
X2116817Y30760465D01*
X2113916Y30792044D01*
X2110573Y30823471D01*
X2106755Y30854787D01*
X2102429Y30886033D01*
X2097565Y30917251D01*
X2092129Y30948483D01*
X2086089Y30979769D01*
X2071224Y31058466D01*
X2065062Y31097002D01*
X2059940Y31135068D01*
X2056004Y31172721D01*
X2053400Y31210015D01*
X2052271Y31247006D01*
X2052765Y31283748D01*
X2055026Y31320297D01*
X2059199Y31356708D01*
X2065430Y31393036D01*
X2073864Y31429336D01*
X2084646Y31465663D01*
X2097922Y31502073D01*
X2113837Y31538620D01*
X2132537Y31575359D01*
X2140032Y31585600D01*
X2147382Y31595289D01*
X2154654Y31604436D01*
X2161916Y31613048D01*
X2169236Y31621135D01*
X2176683Y31628705D01*
X2184324Y31635767D01*
X2192229Y31642329D01*
X2200464Y31648401D01*
X2209098Y31653990D01*
X2218199Y31659106D01*
X2227836Y31663757D01*
X2238075Y31667952D01*
X2248987Y31671699D01*
X2260638Y31675007D01*
X2273096Y31677885D01*
X2287903Y31674564D01*
G37*
G36*
X1943883Y30096902D02*
G01*
X1948084Y30092344D01*
X1951860Y30087996D01*
X1955238Y30083792D01*
X1958245Y30079662D01*
X1960907Y30075539D01*
X1963252Y30071356D01*
X1965305Y30067044D01*
X1967095Y30062535D01*
X1968647Y30057761D01*
X1969989Y30052655D01*
X1971147Y30047148D01*
X1972148Y30041173D01*
X1973019Y30034662D01*
X1973787Y30027547D01*
X1964304Y30009603D01*
X1955640Y29994526D01*
X1951051Y29987388D01*
X1945991Y29980158D01*
X1940232Y29972566D01*
X1933551Y29964342D01*
X1916517Y29944921D01*
X1893083Y29919737D01*
X1819800Y29843450D01*
X1798500Y29821668D01*
X1777691Y29800145D01*
X1765960Y29788325D01*
X1755575Y29778084D01*
X1750670Y29773554D01*
X1745843Y29769419D01*
X1741006Y29765678D01*
X1736072Y29762331D01*
X1730956Y29759378D01*
X1728302Y29758049D01*
X1725570Y29756819D01*
X1722748Y29755687D01*
X1719827Y29754654D01*
X1716796Y29753719D01*
X1713643Y29752883D01*
X1710357Y29752145D01*
X1706929Y29751505D01*
X1699599Y29750521D01*
X1691566Y29749931D01*
X1682745Y29749734D01*
X1698601Y29767761D01*
X1713836Y29785960D01*
X1728493Y29804338D01*
X1742613Y29822901D01*
X1756238Y29841654D01*
X1769409Y29860606D01*
X1794556Y29899126D01*
X1818388Y29938513D01*
X1841237Y29978816D01*
X1863435Y30020088D01*
X1885317Y30062377D01*
X1907641Y30106922D01*
X1934099Y30106922D01*
X1943883Y30096902D01*
G37*
G36*
X1537224Y30953588D02*
G01*
X1471078Y30913901D01*
X1444620Y30980047D01*
X1484307Y30993276D01*
X1497537Y31019734D01*
X1537224Y30953588D01*
G37*
G36*
X2317745Y31231401D02*
G01*
X2328360Y31190376D01*
X2336267Y31154738D01*
X2341776Y31118442D01*
X2345197Y31075440D01*
X2346840Y31019688D01*
X2347016Y30945139D01*
X2344203Y30715464D01*
X2330974Y30715464D01*
X2317745Y31046193D01*
X2291287Y31019734D01*
X2291287Y31244630D01*
X2304516Y31244630D01*
X2317745Y31231401D01*
G37*
G36*
X1390344Y30499073D02*
G01*
X1402056Y30481017D01*
X1413579Y30462839D01*
X1424880Y30444524D01*
X1446274Y30408712D01*
X1484307Y30345047D01*
X1457849Y30331818D01*
X1438522Y30356002D01*
X1413201Y30388042D01*
X1402309Y30401942D01*
X1391852Y30415756D01*
X1381840Y30429607D01*
X1372283Y30443620D01*
X1363189Y30457921D01*
X1358819Y30465218D01*
X1354569Y30472634D01*
X1350439Y30480184D01*
X1346432Y30487884D01*
X1342547Y30495750D01*
X1338787Y30503797D01*
X1378474Y30517026D01*
X1390344Y30499073D01*
G37*
G36*
X1246183Y30808068D02*
G01*
X1259412Y30821297D01*
X1272641Y30768380D01*
X1246183Y30755151D01*
X1206495Y30781609D01*
X1232953Y30834526D01*
X1246183Y30808068D01*
G37*
G36*
X875766Y29723276D02*
G01*
X831117Y29705913D01*
X815211Y29702962D01*
X808622Y29701871D01*
X802773Y29701068D01*
X797534Y29700581D01*
X795103Y29700463D01*
X792777Y29700434D01*
X790539Y29700496D01*
X788373Y29700652D01*
X786264Y29700907D01*
X784195Y29701262D01*
X782150Y29701722D01*
X780114Y29702288D01*
X778070Y29702966D01*
X776001Y29703757D01*
X773893Y29704665D01*
X771729Y29705693D01*
X767168Y29708122D01*
X762190Y29711069D01*
X756668Y29714560D01*
X743474Y29723276D01*
X888995Y29762964D01*
X875766Y29723276D01*
G37*
G36*
X1667204Y32364777D02*
G01*
X1677186Y32347292D01*
X1686320Y32329756D01*
X1694697Y32312041D01*
X1702407Y32294017D01*
X1709540Y32275558D01*
X1716185Y32256534D01*
X1722432Y32236818D01*
X1695974Y32223588D01*
X1629828Y32355880D01*
X1656287Y32382338D01*
X1667204Y32364777D01*
G37*
G36*
X885250Y31146425D02*
G01*
X894636Y31127550D01*
X903908Y31108619D01*
X913050Y31089620D01*
X925629Y31063274D01*
X938294Y31036968D01*
X951833Y31008986D01*
X961711Y30988756D01*
X972010Y30969206D01*
X982728Y30950283D01*
X993861Y30931929D01*
X1005408Y30914091D01*
X1017366Y30896713D01*
X1029731Y30879739D01*
X1042501Y30863116D01*
X1055674Y30846786D01*
X1069247Y30830696D01*
X1083217Y30814791D01*
X1097582Y30799014D01*
X1127483Y30767626D01*
X1158930Y30736092D01*
X1205039Y30690720D01*
X1250274Y30645370D01*
X1294295Y30599529D01*
X1336762Y30552687D01*
X1357307Y30528729D01*
X1377337Y30504329D01*
X1396808Y30479423D01*
X1415679Y30453945D01*
X1433906Y30427833D01*
X1451449Y30401022D01*
X1468263Y30373448D01*
X1484307Y30345047D01*
X1457849Y30331818D01*
X1427777Y30373507D01*
X1403698Y30406046D01*
X1393132Y30419708D01*
X1383133Y30432070D01*
X1373392Y30443463D01*
X1363600Y30454216D01*
X1353445Y30464657D01*
X1342619Y30475117D01*
X1330810Y30485925D01*
X1317709Y30497410D01*
X1286390Y30523730D01*
X1246183Y30556713D01*
X1211786Y30586276D01*
X1178148Y30616394D01*
X1145262Y30647129D01*
X1113125Y30678538D01*
X1081733Y30710680D01*
X1051082Y30743615D01*
X1021168Y30777402D01*
X991986Y30812098D01*
X976898Y30831820D01*
X962309Y30851742D01*
X948314Y30871887D01*
X935004Y30892281D01*
X922473Y30912948D01*
X910813Y30933911D01*
X900117Y30955197D01*
X890477Y30976828D01*
X881988Y30998829D01*
X874740Y31021225D01*
X868828Y31044041D01*
X864343Y31067299D01*
X861379Y31091025D01*
X860028Y31115244D01*
X860383Y31139979D01*
X862537Y31165255D01*
X875766Y31165255D01*
X885250Y31146425D01*
G37*
G36*
X1277647Y31779282D02*
G01*
X1282147Y31771829D01*
X1286178Y31764613D01*
X1289776Y31757580D01*
X1292976Y31750677D01*
X1295815Y31743850D01*
X1298330Y31737045D01*
X1300556Y31730210D01*
X1302530Y31723289D01*
X1304288Y31716230D01*
X1305867Y31708978D01*
X1307301Y31701481D01*
X1309885Y31685536D01*
X1312328Y31667964D01*
X1285870Y31667964D01*
X1280935Y31677963D01*
X1277085Y31686567D01*
X1275470Y31690782D01*
X1274010Y31695171D01*
X1272667Y31699909D01*
X1271401Y31705170D01*
X1268946Y31717960D01*
X1266336Y31734936D01*
X1259412Y31787026D01*
X1272641Y31787026D01*
X1277647Y31779282D01*
G37*
G36*
X779148Y30283095D02*
G01*
X787680Y30270839D01*
X795904Y30258480D01*
X803744Y30245979D01*
X811122Y30233300D01*
X817963Y30220405D01*
X824189Y30207257D01*
X829723Y30193819D01*
X834490Y30180054D01*
X838413Y30165924D01*
X841414Y30151393D01*
X843418Y30136424D01*
X844347Y30120978D01*
X843562Y30112652D01*
X842595Y30104683D01*
X841423Y30097043D01*
X840020Y30089702D01*
X838363Y30082632D01*
X836427Y30075802D01*
X834188Y30069183D01*
X831621Y30062747D01*
X828703Y30056465D01*
X825409Y30050306D01*
X821715Y30044241D01*
X817596Y30038243D01*
X813029Y30032280D01*
X807988Y30026325D01*
X802450Y30020347D01*
X796391Y30014318D01*
X794892Y30038037D01*
X793387Y30054197D01*
X791589Y30069564D01*
X789437Y30084200D01*
X786869Y30098168D01*
X783825Y30111533D01*
X780242Y30124356D01*
X776059Y30136702D01*
X771216Y30148633D01*
X765650Y30160213D01*
X759300Y30171504D01*
X752105Y30182570D01*
X744004Y30193474D01*
X734935Y30204279D01*
X724836Y30215048D01*
X713647Y30225845D01*
X701306Y30236733D01*
X664099Y30265672D01*
X677328Y30318589D01*
X717016Y30305359D01*
X743474Y30331818D01*
X779148Y30283095D01*
G37*
G36*
X941834Y30054996D02*
G01*
X941650Y30049829D01*
X941291Y30045117D01*
X940700Y30040723D01*
X939819Y30036513D01*
X938588Y30032350D01*
X936951Y30028098D01*
X934848Y30023623D01*
X932222Y30018788D01*
X929015Y30013458D01*
X925168Y30007496D01*
X920624Y30000769D01*
X915324Y29993139D01*
X902224Y29974630D01*
X862537Y29974630D01*
X879900Y30013491D01*
X887346Y30026890D01*
X890512Y30032361D01*
X893426Y30037120D01*
X896181Y30041244D01*
X898867Y30044812D01*
X900212Y30046412D01*
X901574Y30047902D01*
X902965Y30049293D01*
X904394Y30050595D01*
X905875Y30051816D01*
X907418Y30052967D01*
X909035Y30054058D01*
X910736Y30055098D01*
X914439Y30057068D01*
X918618Y30058953D01*
X923364Y30060834D01*
X928768Y30062789D01*
X941912Y30067235D01*
X941834Y30054996D01*
G37*
G36*
X2383891Y30953588D02*
G01*
X2397120Y30953588D01*
X2403521Y30928752D01*
X2405985Y30918175D01*
X2407931Y30908413D01*
X2409341Y30899155D01*
X2410195Y30890091D01*
X2410473Y30880911D01*
X2410157Y30871305D01*
X2409227Y30860964D01*
X2407663Y30849576D01*
X2405446Y30836833D01*
X2402557Y30822423D01*
X2394685Y30787365D01*
X2383891Y30741922D01*
X2357432Y30741922D01*
X2357432Y31072651D01*
X2370662Y31072651D01*
X2383891Y30953588D01*
G37*
G36*
X1321273Y32523883D02*
G01*
X1327220Y32523283D01*
X1333114Y32522206D01*
X1339023Y32520653D01*
X1345012Y32518625D01*
X1351148Y32516123D01*
X1357496Y32513148D01*
X1364122Y32509702D01*
X1371093Y32505786D01*
X1378474Y32501401D01*
X1365245Y32435255D01*
X1272641Y32474943D01*
X1299099Y32488172D01*
X1299099Y32514630D01*
X1272641Y32514630D01*
X1280801Y32517401D01*
X1288447Y32519688D01*
X1295645Y32521490D01*
X1302460Y32522810D01*
X1308959Y32523648D01*
X1315208Y32524005D01*
X1321273Y32523883D01*
G37*
G36*
X877743Y31548639D02*
G01*
X880407Y31495885D01*
X883908Y31443455D01*
X888393Y31391251D01*
X894013Y31339175D01*
X900917Y31287127D01*
X909254Y31235009D01*
X919174Y31182722D01*
X928003Y31141308D01*
X936537Y31099833D01*
X941912Y31072651D01*
X968370Y31072651D01*
X967459Y31114605D01*
X968164Y31156174D01*
X970278Y31197464D01*
X973598Y31238579D01*
X977917Y31279623D01*
X983032Y31320702D01*
X994828Y31403380D01*
X1008058Y31403380D01*
X1012280Y31358925D01*
X1017700Y31316159D01*
X1024367Y31274926D01*
X1032328Y31235071D01*
X1041630Y31196441D01*
X1052322Y31158881D01*
X1064452Y31122235D01*
X1078066Y31086350D01*
X1093214Y31051070D01*
X1109942Y31016240D01*
X1128299Y30981707D01*
X1148332Y30947315D01*
X1170089Y30912910D01*
X1193618Y30878337D01*
X1218967Y30843441D01*
X1246183Y30808068D01*
X1272641Y30821297D01*
X1284216Y30796647D01*
X1299099Y30764246D01*
X1305344Y30750618D01*
X1310739Y30738192D01*
X1313120Y30732283D01*
X1315289Y30726498D01*
X1317249Y30720779D01*
X1319000Y30715066D01*
X1320543Y30709301D01*
X1321877Y30703425D01*
X1323004Y30697380D01*
X1323925Y30691106D01*
X1324640Y30684544D01*
X1325150Y30677636D01*
X1325456Y30670323D01*
X1325557Y30662547D01*
X1293151Y30694215D01*
X1261339Y30726072D01*
X1230101Y30758218D01*
X1199421Y30790756D01*
X1169279Y30823789D01*
X1139658Y30857417D01*
X1110538Y30891744D01*
X1081903Y30926872D01*
X1060974Y30953588D01*
X1060974Y30927130D01*
X1062736Y30911619D01*
X1064880Y30896868D01*
X1067441Y30882812D01*
X1070452Y30869386D01*
X1073949Y30856525D01*
X1077965Y30844164D01*
X1082535Y30832239D01*
X1087694Y30820683D01*
X1093476Y30809433D01*
X1099915Y30798423D01*
X1107046Y30787588D01*
X1114902Y30776863D01*
X1123520Y30766184D01*
X1132932Y30755485D01*
X1143174Y30744700D01*
X1154279Y30733767D01*
X1167827Y30721406D01*
X1181294Y30708956D01*
X1194681Y30696420D01*
X1207990Y30683802D01*
X1235020Y30657896D01*
X1271900Y30622191D01*
X1307107Y30586098D01*
X1324090Y30567815D01*
X1340661Y30549325D01*
X1356825Y30530593D01*
X1372582Y30511581D01*
X1387935Y30492253D01*
X1402887Y30472572D01*
X1417441Y30452503D01*
X1431597Y30432009D01*
X1445360Y30411052D01*
X1458731Y30389597D01*
X1471713Y30367608D01*
X1484307Y30345047D01*
X1457849Y30331818D01*
X1445472Y30348804D01*
X1432895Y30365388D01*
X1420111Y30381595D01*
X1407116Y30397451D01*
X1393906Y30412983D01*
X1380474Y30428217D01*
X1366818Y30443179D01*
X1352931Y30457896D01*
X1324446Y30486698D01*
X1294980Y30514833D01*
X1264496Y30542511D01*
X1232953Y30569943D01*
X1193397Y30604070D01*
X1155435Y30638607D01*
X1119134Y30673667D01*
X1084561Y30709358D01*
X1051782Y30745794D01*
X1020865Y30783085D01*
X991875Y30821341D01*
X964880Y30860676D01*
X939946Y30901198D01*
X917140Y30943021D01*
X896529Y30986254D01*
X878179Y31031009D01*
X862157Y31077398D01*
X848530Y31125530D01*
X837365Y31175519D01*
X828727Y31227474D01*
X822849Y31273569D01*
X818683Y31305840D01*
X814959Y31338069D01*
X811744Y31370350D01*
X809103Y31402779D01*
X809432Y31416309D01*
X810097Y31429871D01*
X811137Y31443426D01*
X812588Y31456937D01*
X814487Y31470365D01*
X816874Y31483674D01*
X819785Y31496824D01*
X823257Y31509779D01*
X827329Y31522499D01*
X832038Y31534948D01*
X837421Y31547088D01*
X843516Y31558880D01*
X850360Y31570287D01*
X857991Y31581271D01*
X866447Y31591794D01*
X875766Y31601818D01*
X877743Y31548639D01*
G37*
G36*
X1753260Y32183966D02*
G01*
X1756559Y32173673D01*
X1757861Y32169338D01*
X1758958Y32165401D01*
X1759874Y32161758D01*
X1760628Y32158302D01*
X1761242Y32154926D01*
X1761738Y32151524D01*
X1762136Y32147991D01*
X1762458Y32144219D01*
X1762960Y32135537D01*
X1763412Y32124628D01*
X1762947Y32088816D01*
X1762588Y32056983D01*
X1762120Y32025151D01*
X1753374Y32033938D01*
X1749811Y32037600D01*
X1746724Y32040880D01*
X1744064Y32043857D01*
X1741783Y32046610D01*
X1739834Y32049220D01*
X1738168Y32051764D01*
X1736737Y32054323D01*
X1735492Y32056976D01*
X1734387Y32059802D01*
X1733372Y32062881D01*
X1732399Y32066292D01*
X1731420Y32070113D01*
X1729254Y32079308D01*
X1725740Y32111140D01*
X1721812Y32142973D01*
X1722069Y32152168D01*
X1722274Y32155989D01*
X1722584Y32159400D01*
X1723038Y32162479D01*
X1723332Y32163918D01*
X1723676Y32165305D01*
X1724077Y32166648D01*
X1724538Y32167958D01*
X1725065Y32169244D01*
X1725662Y32170517D01*
X1726336Y32171786D01*
X1727090Y32173061D01*
X1727929Y32174353D01*
X1728859Y32175671D01*
X1731011Y32178424D01*
X1733585Y32181401D01*
X1736620Y32184681D01*
X1740156Y32188343D01*
X1748891Y32197130D01*
X1753260Y32183966D01*
G37*
G36*
X1252295Y30240395D02*
G01*
X1257924Y30228590D01*
X1263077Y30216979D01*
X1267762Y30205512D01*
X1271987Y30194142D01*
X1275762Y30182819D01*
X1279093Y30171494D01*
X1281990Y30160118D01*
X1284461Y30148642D01*
X1286514Y30137017D01*
X1288158Y30125193D01*
X1289400Y30113124D01*
X1290249Y30100758D01*
X1290713Y30088047D01*
X1290801Y30074942D01*
X1290521Y30061395D01*
X1287815Y30044480D01*
X1284424Y30028100D01*
X1280351Y30012235D01*
X1275599Y29996860D01*
X1270171Y29981953D01*
X1264071Y29967491D01*
X1257302Y29953451D01*
X1249867Y29939811D01*
X1241770Y29926547D01*
X1233013Y29913638D01*
X1223600Y29901060D01*
X1213534Y29888790D01*
X1202819Y29876806D01*
X1191457Y29865084D01*
X1179452Y29853603D01*
X1166807Y29842339D01*
X1193266Y29921713D01*
X1200712Y29939797D01*
X1207252Y29957695D01*
X1212942Y29975445D01*
X1217836Y29993087D01*
X1221988Y30010659D01*
X1225454Y30028200D01*
X1228287Y30045747D01*
X1230543Y30063340D01*
X1232276Y30081016D01*
X1233540Y30098814D01*
X1234882Y30134932D01*
X1235006Y30172000D01*
X1234349Y30210326D01*
X1232953Y30252443D01*
X1246183Y30252443D01*
X1252295Y30240395D01*
G37*
G36*
X1329797Y31007079D02*
G01*
X1347451Y30981551D01*
X1365389Y30956384D01*
X1383710Y30931585D01*
X1402513Y30907159D01*
X1421899Y30883112D01*
X1441964Y30859450D01*
X1462810Y30836180D01*
X1474825Y30823415D01*
X1480346Y30817320D01*
X1485545Y30811342D01*
X1490428Y30805427D01*
X1494995Y30799519D01*
X1499250Y30793563D01*
X1503196Y30787504D01*
X1506837Y30781286D01*
X1510174Y30774855D01*
X1513211Y30768155D01*
X1515951Y30761131D01*
X1518396Y30753728D01*
X1520550Y30745891D01*
X1522415Y30737564D01*
X1523995Y30728693D01*
X1471078Y30755151D01*
X1471078Y30781609D01*
X1431391Y30781609D01*
X1418857Y30797572D01*
X1406529Y30813699D01*
X1400483Y30821850D01*
X1394540Y30830072D01*
X1388713Y30838377D01*
X1383022Y30846773D01*
X1365245Y30874214D01*
X1345815Y30902067D01*
X1327211Y30929611D01*
X1309951Y30954984D01*
X1307619Y30960674D01*
X1305696Y30966032D01*
X1304166Y30971108D01*
X1303011Y30975947D01*
X1302214Y30980598D01*
X1301760Y30985108D01*
X1301631Y30989526D01*
X1301810Y30993898D01*
X1302281Y30998273D01*
X1303026Y31002697D01*
X1304030Y31007220D01*
X1305274Y31011887D01*
X1306743Y31016748D01*
X1308420Y31021849D01*
X1312328Y31032963D01*
X1329797Y31007079D01*
G37*
G36*
X1656287Y31231401D02*
G01*
X1709203Y31257859D01*
X1718992Y31223576D01*
X1728659Y31189259D01*
X1736488Y31161121D01*
X1747134Y31124779D01*
X1749452Y31116184D01*
X1751536Y31107700D01*
X1753338Y31099287D01*
X1754810Y31090901D01*
X1755903Y31082500D01*
X1756568Y31074042D01*
X1756759Y31065485D01*
X1756426Y31056786D01*
X1755520Y31047904D01*
X1753995Y31038796D01*
X1751801Y31029420D01*
X1748891Y31019734D01*
X1729564Y31054564D01*
X1704242Y31100763D01*
X1692951Y31121630D01*
X1682202Y31142366D01*
X1672009Y31163097D01*
X1662384Y31183948D01*
X1653341Y31205047D01*
X1644891Y31226519D01*
X1637050Y31248491D01*
X1629828Y31271089D01*
X1656287Y31271089D01*
X1656287Y31231401D01*
G37*
G36*
X1179907Y29822266D02*
G01*
X1179601Y29819219D01*
X1179003Y29816241D01*
X1178018Y29813196D01*
X1176548Y29809949D01*
X1174498Y29806364D01*
X1171768Y29802305D01*
X1168264Y29797637D01*
X1163888Y29792224D01*
X1152131Y29778620D01*
X1135724Y29760409D01*
X1113891Y29736505D01*
X1074203Y29736505D01*
X1085768Y29751993D01*
X1091406Y29759292D01*
X1097016Y29766300D01*
X1102645Y29773021D01*
X1108343Y29779458D01*
X1114161Y29785616D01*
X1120147Y29791499D01*
X1126350Y29797110D01*
X1132822Y29802453D01*
X1139610Y29807532D01*
X1146764Y29812352D01*
X1154335Y29816915D01*
X1162371Y29821227D01*
X1170921Y29825290D01*
X1180037Y29829109D01*
X1179907Y29822266D01*
G37*
G36*
X489121Y30881396D02*
G01*
X499845Y30849441D01*
X511359Y30818080D01*
X517505Y30802636D01*
X523959Y30787357D01*
X530759Y30772250D01*
X537941Y30757318D01*
X545542Y30742569D01*
X553599Y30728007D01*
X562150Y30713638D01*
X571231Y30699468D01*
X580880Y30685501D01*
X591132Y30671745D01*
X627486Y30624688D01*
X645393Y30600963D01*
X662962Y30576971D01*
X670076Y30565446D01*
X676287Y30553950D01*
X681636Y30542463D01*
X686162Y30530966D01*
X689904Y30519437D01*
X692901Y30507856D01*
X695193Y30496203D01*
X696819Y30484458D01*
X697817Y30472600D01*
X698229Y30460609D01*
X698092Y30448464D01*
X697446Y30436147D01*
X696330Y30423635D01*
X694784Y30410909D01*
X692846Y30397949D01*
X690557Y30384734D01*
X677328Y30384734D01*
X653241Y30412513D01*
X630200Y30441210D01*
X608293Y30470779D01*
X587605Y30501174D01*
X568221Y30532352D01*
X550229Y30564265D01*
X533712Y30596869D01*
X518758Y30630118D01*
X505452Y30663968D01*
X493880Y30698372D01*
X484127Y30733285D01*
X476280Y30768662D01*
X470424Y30804457D01*
X466645Y30840626D01*
X465029Y30877122D01*
X465662Y30913901D01*
X478891Y30913901D01*
X489121Y30881396D01*
G37*
G36*
X1652204Y30456048D02*
G01*
X1663728Y30427729D01*
X1666863Y30420009D01*
X1669650Y30412681D01*
X1672085Y30405686D01*
X1674163Y30398968D01*
X1675879Y30392466D01*
X1677229Y30386123D01*
X1678208Y30379880D01*
X1678810Y30373680D01*
X1679032Y30367463D01*
X1678868Y30361172D01*
X1678313Y30354747D01*
X1677363Y30348132D01*
X1676013Y30341266D01*
X1674259Y30334093D01*
X1672094Y30326553D01*
X1669516Y30318589D01*
X1657010Y30339879D01*
X1641404Y30368198D01*
X1636167Y30377464D01*
X1632121Y30384773D01*
X1628977Y30390784D01*
X1627652Y30393508D01*
X1626443Y30396155D01*
X1625315Y30398807D01*
X1624229Y30401545D01*
X1623152Y30404454D01*
X1622045Y30407614D01*
X1619598Y30415020D01*
X1616599Y30424422D01*
X1620483Y30434360D01*
X1623582Y30442108D01*
X1624934Y30445355D01*
X1626206Y30448287D01*
X1627437Y30450981D01*
X1628665Y30453516D01*
X1629930Y30455968D01*
X1631270Y30458415D01*
X1632724Y30460935D01*
X1634330Y30463605D01*
X1638156Y30469707D01*
X1643057Y30477339D01*
X1652204Y30456048D01*
G37*
G36*
X1338787Y30662547D02*
G01*
X1323299Y30674111D01*
X1316000Y30679750D01*
X1308992Y30685359D01*
X1302271Y30690988D01*
X1295833Y30696687D01*
X1289675Y30702504D01*
X1283793Y30708490D01*
X1278182Y30714694D01*
X1272839Y30721165D01*
X1267759Y30727953D01*
X1262940Y30735108D01*
X1258376Y30742678D01*
X1254065Y30750714D01*
X1250002Y30759265D01*
X1246183Y30768380D01*
X1272641Y30768380D01*
X1285870Y30794838D01*
X1338787Y30662547D01*
G37*
D11*
X11361027Y32037525D02*
X11694360Y31037525D01*
X11694360Y31037525D02*
X12027693Y32037525D01*
X12361027Y31561335D02*
X12694360Y31561335D01*
X12837217Y31037525D02*
X12361027Y31037525D01*
X12361027Y31037525D02*
X12361027Y32037525D01*
X12361027Y32037525D02*
X12837217Y32037525D01*
X13170551Y32037525D02*
X13837217Y31037525D01*
X13837217Y32037525D02*
X13170551Y31037525D01*
X14218170Y32037525D02*
X14218170Y31228002D01*
X14218170Y31228002D02*
X14265789Y31132764D01*
X14265789Y31132764D02*
X14313408Y31085144D01*
X14313408Y31085144D02*
X14408646Y31037525D01*
X14408646Y31037525D02*
X14599122Y31037525D01*
X14599122Y31037525D02*
X14694360Y31085144D01*
X14694360Y31085144D02*
X14741979Y31132764D01*
X14741979Y31132764D02*
X14789598Y31228002D01*
X14789598Y31228002D02*
X14789598Y32037525D01*
X16551503Y31989906D02*
X16456265Y32037525D01*
X16456265Y32037525D02*
X16313408Y32037525D01*
X16313408Y32037525D02*
X16170551Y31989906D01*
X16170551Y31989906D02*
X16075313Y31894668D01*
X16075313Y31894668D02*
X16027694Y31799430D01*
X16027694Y31799430D02*
X15980075Y31608954D01*
X15980075Y31608954D02*
X15980075Y31466097D01*
X15980075Y31466097D02*
X16027694Y31275621D01*
X16027694Y31275621D02*
X16075313Y31180383D01*
X16075313Y31180383D02*
X16170551Y31085144D01*
X16170551Y31085144D02*
X16313408Y31037525D01*
X16313408Y31037525D02*
X16408646Y31037525D01*
X16408646Y31037525D02*
X16551503Y31085144D01*
X16551503Y31085144D02*
X16599122Y31132764D01*
X16599122Y31132764D02*
X16599122Y31466097D01*
X16599122Y31466097D02*
X16408646Y31466097D01*
X17027694Y31037525D02*
X17027694Y32037525D01*
X17027694Y31561335D02*
X17599122Y31561335D01*
X17599122Y31037525D02*
X17599122Y32037525D01*
X18265789Y32037525D02*
X18456265Y32037525D01*
X18456265Y32037525D02*
X18551503Y31989906D01*
X18551503Y31989906D02*
X18646741Y31894668D01*
X18646741Y31894668D02*
X18694360Y31704192D01*
X18694360Y31704192D02*
X18694360Y31370859D01*
X18694360Y31370859D02*
X18646741Y31180383D01*
X18646741Y31180383D02*
X18551503Y31085144D01*
X18551503Y31085144D02*
X18456265Y31037525D01*
X18456265Y31037525D02*
X18265789Y31037525D01*
X18265789Y31037525D02*
X18170551Y31085144D01*
X18170551Y31085144D02*
X18075313Y31180383D01*
X18075313Y31180383D02*
X18027694Y31370859D01*
X18027694Y31370859D02*
X18027694Y31704192D01*
X18027694Y31704192D02*
X18075313Y31894668D01*
X18075313Y31894668D02*
X18170551Y31989906D01*
X18170551Y31989906D02*
X18265789Y32037525D01*
X19075313Y31085144D02*
X19218170Y31037525D01*
X19218170Y31037525D02*
X19456265Y31037525D01*
X19456265Y31037525D02*
X19551503Y31085144D01*
X19551503Y31085144D02*
X19599122Y31132764D01*
X19599122Y31132764D02*
X19646741Y31228002D01*
X19646741Y31228002D02*
X19646741Y31323240D01*
X19646741Y31323240D02*
X19599122Y31418478D01*
X19599122Y31418478D02*
X19551503Y31466097D01*
X19551503Y31466097D02*
X19456265Y31513716D01*
X19456265Y31513716D02*
X19265789Y31561335D01*
X19265789Y31561335D02*
X19170551Y31608954D01*
X19170551Y31608954D02*
X19122932Y31656573D01*
X19122932Y31656573D02*
X19075313Y31751811D01*
X19075313Y31751811D02*
X19075313Y31847049D01*
X19075313Y31847049D02*
X19122932Y31942287D01*
X19122932Y31942287D02*
X19170551Y31989906D01*
X19170551Y31989906D02*
X19265789Y32037525D01*
X19265789Y32037525D02*
X19503884Y32037525D01*
X19503884Y32037525D02*
X19646741Y31989906D01*
X19932456Y32037525D02*
X20503884Y32037525D01*
X20218170Y31037525D02*
X20218170Y32037525D01*
X11503884Y29427581D02*
X11503884Y30427581D01*
X11980074Y29951391D02*
X12313407Y29951391D01*
X12456264Y29427581D02*
X11980074Y29427581D01*
X11980074Y29427581D02*
X11980074Y30427581D01*
X11980074Y30427581D02*
X12456264Y30427581D01*
X12884836Y29951391D02*
X13218169Y29951391D01*
X13361026Y29427581D02*
X12884836Y29427581D01*
X12884836Y29427581D02*
X12884836Y30427581D01*
X12884836Y30427581D02*
X13361026Y30427581D01*
X13789598Y29951391D02*
X14122931Y29951391D01*
X14265788Y29427581D02*
X13789598Y29427581D01*
X13789598Y29427581D02*
X13789598Y30427581D01*
X13789598Y30427581D02*
X14265788Y30427581D01*
X16027693Y29427581D02*
X15694360Y29903772D01*
X15456265Y29427581D02*
X15456265Y30427581D01*
X15456265Y30427581D02*
X15837217Y30427581D01*
X15837217Y30427581D02*
X15932455Y30379962D01*
X15932455Y30379962D02*
X15980074Y30332343D01*
X15980074Y30332343D02*
X16027693Y30237105D01*
X16027693Y30237105D02*
X16027693Y30094248D01*
X16027693Y30094248D02*
X15980074Y29999010D01*
X15980074Y29999010D02*
X15932455Y29951391D01*
X15932455Y29951391D02*
X15837217Y29903772D01*
X15837217Y29903772D02*
X15456265Y29903772D01*
X16408646Y29713296D02*
X16884836Y29713296D01*
X16313408Y29427581D02*
X16646741Y30427581D01*
X16646741Y30427581D02*
X16980074Y29427581D01*
X17265789Y29475200D02*
X17408646Y29427581D01*
X17408646Y29427581D02*
X17646741Y29427581D01*
X17646741Y29427581D02*
X17741979Y29475200D01*
X17741979Y29475200D02*
X17789598Y29522820D01*
X17789598Y29522820D02*
X17837217Y29618058D01*
X17837217Y29618058D02*
X17837217Y29713296D01*
X17837217Y29713296D02*
X17789598Y29808534D01*
X17789598Y29808534D02*
X17741979Y29856153D01*
X17741979Y29856153D02*
X17646741Y29903772D01*
X17646741Y29903772D02*
X17456265Y29951391D01*
X17456265Y29951391D02*
X17361027Y29999010D01*
X17361027Y29999010D02*
X17313408Y30046629D01*
X17313408Y30046629D02*
X17265789Y30141867D01*
X17265789Y30141867D02*
X17265789Y30237105D01*
X17265789Y30237105D02*
X17313408Y30332343D01*
X17313408Y30332343D02*
X17361027Y30379962D01*
X17361027Y30379962D02*
X17456265Y30427581D01*
X17456265Y30427581D02*
X17694360Y30427581D01*
X17694360Y30427581D02*
X17837217Y30379962D01*
X-9596116Y46657581D02*
X-9596116Y47657581D01*
X-9596116Y47657581D02*
X-9358021Y47657581D01*
X-9358021Y47657581D02*
X-9215164Y47609962D01*
X-9215164Y47609962D02*
X-9119926Y47514724D01*
X-9119926Y47514724D02*
X-9072307Y47419486D01*
X-9072307Y47419486D02*
X-9024688Y47229010D01*
X-9024688Y47229010D02*
X-9024688Y47086153D01*
X-9024688Y47086153D02*
X-9072307Y46895677D01*
X-9072307Y46895677D02*
X-9119926Y46800439D01*
X-9119926Y46800439D02*
X-9215164Y46705200D01*
X-9215164Y46705200D02*
X-9358021Y46657581D01*
X-9358021Y46657581D02*
X-9596116Y46657581D01*
X-8215164Y46705200D02*
X-8310402Y46657581D01*
X-8310402Y46657581D02*
X-8500878Y46657581D01*
X-8500878Y46657581D02*
X-8596116Y46705200D01*
X-8596116Y46705200D02*
X-8643735Y46800439D01*
X-8643735Y46800439D02*
X-8643735Y47181391D01*
X-8643735Y47181391D02*
X-8596116Y47276629D01*
X-8596116Y47276629D02*
X-8500878Y47324248D01*
X-8500878Y47324248D02*
X-8310402Y47324248D01*
X-8310402Y47324248D02*
X-8215164Y47276629D01*
X-8215164Y47276629D02*
X-8167545Y47181391D01*
X-8167545Y47181391D02*
X-8167545Y47086153D01*
X-8167545Y47086153D02*
X-8643735Y46990915D01*
X-7786592Y46705200D02*
X-7691354Y46657581D01*
X-7691354Y46657581D02*
X-7500878Y46657581D01*
X-7500878Y46657581D02*
X-7405640Y46705200D01*
X-7405640Y46705200D02*
X-7358021Y46800439D01*
X-7358021Y46800439D02*
X-7358021Y46848058D01*
X-7358021Y46848058D02*
X-7405640Y46943296D01*
X-7405640Y46943296D02*
X-7500878Y46990915D01*
X-7500878Y46990915D02*
X-7643735Y46990915D01*
X-7643735Y46990915D02*
X-7738973Y47038534D01*
X-7738973Y47038534D02*
X-7786592Y47133772D01*
X-7786592Y47133772D02*
X-7786592Y47181391D01*
X-7786592Y47181391D02*
X-7738973Y47276629D01*
X-7738973Y47276629D02*
X-7643735Y47324248D01*
X-7643735Y47324248D02*
X-7500878Y47324248D01*
X-7500878Y47324248D02*
X-7405640Y47276629D01*
X-6929449Y46657581D02*
X-6929449Y47324248D01*
X-6929449Y47657581D02*
X-6977068Y47609962D01*
X-6977068Y47609962D02*
X-6929449Y47562343D01*
X-6929449Y47562343D02*
X-6881830Y47609962D01*
X-6881830Y47609962D02*
X-6929449Y47657581D01*
X-6929449Y47657581D02*
X-6929449Y47562343D01*
X-6024688Y47324248D02*
X-6024688Y46514724D01*
X-6024688Y46514724D02*
X-6072307Y46419486D01*
X-6072307Y46419486D02*
X-6119926Y46371867D01*
X-6119926Y46371867D02*
X-6215164Y46324248D01*
X-6215164Y46324248D02*
X-6358021Y46324248D01*
X-6358021Y46324248D02*
X-6453259Y46371867D01*
X-6024688Y46705200D02*
X-6119926Y46657581D01*
X-6119926Y46657581D02*
X-6310402Y46657581D01*
X-6310402Y46657581D02*
X-6405640Y46705200D01*
X-6405640Y46705200D02*
X-6453259Y46752820D01*
X-6453259Y46752820D02*
X-6500878Y46848058D01*
X-6500878Y46848058D02*
X-6500878Y47133772D01*
X-6500878Y47133772D02*
X-6453259Y47229010D01*
X-6453259Y47229010D02*
X-6405640Y47276629D01*
X-6405640Y47276629D02*
X-6310402Y47324248D01*
X-6310402Y47324248D02*
X-6119926Y47324248D01*
X-6119926Y47324248D02*
X-6024688Y47276629D01*
X-5548497Y47324248D02*
X-5548497Y46657581D01*
X-5548497Y47229010D02*
X-5500878Y47276629D01*
X-5500878Y47276629D02*
X-5405640Y47324248D01*
X-5405640Y47324248D02*
X-5262783Y47324248D01*
X-5262783Y47324248D02*
X-5167545Y47276629D01*
X-5167545Y47276629D02*
X-5119926Y47181391D01*
X-5119926Y47181391D02*
X-5119926Y46657581D01*
X-4262783Y46705200D02*
X-4358021Y46657581D01*
X-4358021Y46657581D02*
X-4548497Y46657581D01*
X-4548497Y46657581D02*
X-4643735Y46705200D01*
X-4643735Y46705200D02*
X-4691354Y46800439D01*
X-4691354Y46800439D02*
X-4691354Y47181391D01*
X-4691354Y47181391D02*
X-4643735Y47276629D01*
X-4643735Y47276629D02*
X-4548497Y47324248D01*
X-4548497Y47324248D02*
X-4358021Y47324248D01*
X-4358021Y47324248D02*
X-4262783Y47276629D01*
X-4262783Y47276629D02*
X-4215164Y47181391D01*
X-4215164Y47181391D02*
X-4215164Y47086153D01*
X-4215164Y47086153D02*
X-4691354Y46990915D01*
X-3358021Y46657581D02*
X-3358021Y47657581D01*
X-3358021Y46705200D02*
X-3453259Y46657581D01*
X-3453259Y46657581D02*
X-3643735Y46657581D01*
X-3643735Y46657581D02*
X-3738973Y46705200D01*
X-3738973Y46705200D02*
X-3786592Y46752820D01*
X-3786592Y46752820D02*
X-3834211Y46848058D01*
X-3834211Y46848058D02*
X-3834211Y47133772D01*
X-3834211Y47133772D02*
X-3786592Y47229010D01*
X-3786592Y47229010D02*
X-3738973Y47276629D01*
X-3738973Y47276629D02*
X-3643735Y47324248D01*
X-3643735Y47324248D02*
X-3453259Y47324248D01*
X-3453259Y47324248D02*
X-3358021Y47276629D01*
X-2119925Y46657581D02*
X-2119925Y47657581D01*
X-2119925Y47276629D02*
X-2024687Y47324248D01*
X-2024687Y47324248D02*
X-1834211Y47324248D01*
X-1834211Y47324248D02*
X-1738973Y47276629D01*
X-1738973Y47276629D02*
X-1691354Y47229010D01*
X-1691354Y47229010D02*
X-1643735Y47133772D01*
X-1643735Y47133772D02*
X-1643735Y46848058D01*
X-1643735Y46848058D02*
X-1691354Y46752820D01*
X-1691354Y46752820D02*
X-1738973Y46705200D01*
X-1738973Y46705200D02*
X-1834211Y46657581D01*
X-1834211Y46657581D02*
X-2024687Y46657581D01*
X-2024687Y46657581D02*
X-2119925Y46705200D01*
X-1310401Y47324248D02*
X-1072306Y46657581D01*
X-834211Y47324248D02*
X-1072306Y46657581D01*
X-1072306Y46657581D02*
X-1167544Y46419486D01*
X-1167544Y46419486D02*
X-1215163Y46371867D01*
X-1215163Y46371867D02*
X-1310401Y46324248D01*
X-453258Y46752820D02*
X-405639Y46705200D01*
X-405639Y46705200D02*
X-453258Y46657581D01*
X-453258Y46657581D02*
X-500877Y46705200D01*
X-500877Y46705200D02*
X-453258Y46752820D01*
X-453258Y46752820D02*
X-453258Y46657581D01*
X-453258Y47276629D02*
X-405639Y47229010D01*
X-405639Y47229010D02*
X-453258Y47181391D01*
X-453258Y47181391D02*
X-500877Y47229010D01*
X-500877Y47229010D02*
X-453258Y47276629D01*
X-453258Y47276629D02*
X-453258Y47181391D01*
X6641978Y46657581D02*
X6165788Y46657581D01*
X6165788Y46657581D02*
X6165788Y47657581D01*
X7403883Y46657581D02*
X7403883Y47181391D01*
X7403883Y47181391D02*
X7356264Y47276629D01*
X7356264Y47276629D02*
X7261026Y47324248D01*
X7261026Y47324248D02*
X7070550Y47324248D01*
X7070550Y47324248D02*
X6975312Y47276629D01*
X7403883Y46705200D02*
X7308645Y46657581D01*
X7308645Y46657581D02*
X7070550Y46657581D01*
X7070550Y46657581D02*
X6975312Y46705200D01*
X6975312Y46705200D02*
X6927693Y46800439D01*
X6927693Y46800439D02*
X6927693Y46895677D01*
X6927693Y46895677D02*
X6975312Y46990915D01*
X6975312Y46990915D02*
X7070550Y47038534D01*
X7070550Y47038534D02*
X7308645Y47038534D01*
X7308645Y47038534D02*
X7403883Y47086153D01*
X7880074Y46657581D02*
X7880074Y47657581D01*
X7975312Y47038534D02*
X8261026Y46657581D01*
X8261026Y47324248D02*
X7880074Y46943296D01*
X8641979Y46705200D02*
X8737217Y46657581D01*
X8737217Y46657581D02*
X8927693Y46657581D01*
X8927693Y46657581D02*
X9022931Y46705200D01*
X9022931Y46705200D02*
X9070550Y46800439D01*
X9070550Y46800439D02*
X9070550Y46848058D01*
X9070550Y46848058D02*
X9022931Y46943296D01*
X9022931Y46943296D02*
X8927693Y46990915D01*
X8927693Y46990915D02*
X8784836Y46990915D01*
X8784836Y46990915D02*
X8689598Y47038534D01*
X8689598Y47038534D02*
X8641979Y47133772D01*
X8641979Y47133772D02*
X8641979Y47181391D01*
X8641979Y47181391D02*
X8689598Y47276629D01*
X8689598Y47276629D02*
X8784836Y47324248D01*
X8784836Y47324248D02*
X8927693Y47324248D01*
X8927693Y47324248D02*
X9022931Y47276629D01*
X9499122Y46657581D02*
X9499122Y47657581D01*
X9927693Y46657581D02*
X9927693Y47181391D01*
X9927693Y47181391D02*
X9880074Y47276629D01*
X9880074Y47276629D02*
X9784836Y47324248D01*
X9784836Y47324248D02*
X9641979Y47324248D01*
X9641979Y47324248D02*
X9546741Y47276629D01*
X9546741Y47276629D02*
X9499122Y47229010D01*
X10832455Y46657581D02*
X10832455Y47181391D01*
X10832455Y47181391D02*
X10784836Y47276629D01*
X10784836Y47276629D02*
X10689598Y47324248D01*
X10689598Y47324248D02*
X10499122Y47324248D01*
X10499122Y47324248D02*
X10403884Y47276629D01*
X10832455Y46705200D02*
X10737217Y46657581D01*
X10737217Y46657581D02*
X10499122Y46657581D01*
X10499122Y46657581D02*
X10403884Y46705200D01*
X10403884Y46705200D02*
X10356265Y46800439D01*
X10356265Y46800439D02*
X10356265Y46895677D01*
X10356265Y46895677D02*
X10403884Y46990915D01*
X10403884Y46990915D02*
X10499122Y47038534D01*
X10499122Y47038534D02*
X10737217Y47038534D01*
X10737217Y47038534D02*
X10832455Y47086153D01*
X11213408Y47324248D02*
X11451503Y46657581D01*
X11689598Y47324248D02*
X11451503Y46657581D01*
X11451503Y46657581D02*
X11356265Y46419486D01*
X11356265Y46419486D02*
X11308646Y46371867D01*
X11308646Y46371867D02*
X11213408Y46324248D01*
X13022932Y47133772D02*
X13022932Y46657581D01*
X12689599Y47657581D02*
X13022932Y47133772D01*
X13022932Y47133772D02*
X13356265Y47657581D01*
X14118170Y46657581D02*
X14118170Y47181391D01*
X14118170Y47181391D02*
X14070551Y47276629D01*
X14070551Y47276629D02*
X13975313Y47324248D01*
X13975313Y47324248D02*
X13784837Y47324248D01*
X13784837Y47324248D02*
X13689599Y47276629D01*
X14118170Y46705200D02*
X14022932Y46657581D01*
X14022932Y46657581D02*
X13784837Y46657581D01*
X13784837Y46657581D02*
X13689599Y46705200D01*
X13689599Y46705200D02*
X13641980Y46800439D01*
X13641980Y46800439D02*
X13641980Y46895677D01*
X13641980Y46895677D02*
X13689599Y46990915D01*
X13689599Y46990915D02*
X13784837Y47038534D01*
X13784837Y47038534D02*
X14022932Y47038534D01*
X14022932Y47038534D02*
X14118170Y47086153D01*
X15022932Y46657581D02*
X15022932Y47657581D01*
X15022932Y46705200D02*
X14927694Y46657581D01*
X14927694Y46657581D02*
X14737218Y46657581D01*
X14737218Y46657581D02*
X14641980Y46705200D01*
X14641980Y46705200D02*
X14594361Y46752820D01*
X14594361Y46752820D02*
X14546742Y46848058D01*
X14546742Y46848058D02*
X14546742Y47133772D01*
X14546742Y47133772D02*
X14594361Y47229010D01*
X14594361Y47229010D02*
X14641980Y47276629D01*
X14641980Y47276629D02*
X14737218Y47324248D01*
X14737218Y47324248D02*
X14927694Y47324248D01*
X14927694Y47324248D02*
X15022932Y47276629D01*
X15927694Y46657581D02*
X15927694Y47181391D01*
X15927694Y47181391D02*
X15880075Y47276629D01*
X15880075Y47276629D02*
X15784837Y47324248D01*
X15784837Y47324248D02*
X15594361Y47324248D01*
X15594361Y47324248D02*
X15499123Y47276629D01*
X15927694Y46705200D02*
X15832456Y46657581D01*
X15832456Y46657581D02*
X15594361Y46657581D01*
X15594361Y46657581D02*
X15499123Y46705200D01*
X15499123Y46705200D02*
X15451504Y46800439D01*
X15451504Y46800439D02*
X15451504Y46895677D01*
X15451504Y46895677D02*
X15499123Y46990915D01*
X15499123Y46990915D02*
X15594361Y47038534D01*
X15594361Y47038534D02*
X15832456Y47038534D01*
X15832456Y47038534D02*
X15927694Y47086153D01*
X16308647Y47324248D02*
X16546742Y46657581D01*
X16546742Y46657581D02*
X16784837Y47324248D01*
X6022931Y46047637D02*
X6594359Y46047637D01*
X6308645Y45047637D02*
X6308645Y46047637D01*
X6927693Y45047637D02*
X6927693Y45714304D01*
X6927693Y45523828D02*
X6975312Y45619066D01*
X6975312Y45619066D02*
X7022931Y45666685D01*
X7022931Y45666685D02*
X7118169Y45714304D01*
X7118169Y45714304D02*
X7213407Y45714304D01*
X7975312Y45714304D02*
X7975312Y45047637D01*
X7546741Y45714304D02*
X7546741Y45190495D01*
X7546741Y45190495D02*
X7594360Y45095256D01*
X7594360Y45095256D02*
X7689598Y45047637D01*
X7689598Y45047637D02*
X7832455Y45047637D01*
X7832455Y45047637D02*
X7927693Y45095256D01*
X7927693Y45095256D02*
X7975312Y45142876D01*
X8451503Y45714304D02*
X8451503Y45047637D01*
X8451503Y45619066D02*
X8499122Y45666685D01*
X8499122Y45666685D02*
X8594360Y45714304D01*
X8594360Y45714304D02*
X8737217Y45714304D01*
X8737217Y45714304D02*
X8832455Y45666685D01*
X8832455Y45666685D02*
X8880074Y45571447D01*
X8880074Y45571447D02*
X8880074Y45047637D01*
X9784836Y45714304D02*
X9784836Y44904780D01*
X9784836Y44904780D02*
X9737217Y44809542D01*
X9737217Y44809542D02*
X9689598Y44761923D01*
X9689598Y44761923D02*
X9594360Y44714304D01*
X9594360Y44714304D02*
X9451503Y44714304D01*
X9451503Y44714304D02*
X9356265Y44761923D01*
X9784836Y45095256D02*
X9689598Y45047637D01*
X9689598Y45047637D02*
X9499122Y45047637D01*
X9499122Y45047637D02*
X9403884Y45095256D01*
X9403884Y45095256D02*
X9356265Y45142876D01*
X9356265Y45142876D02*
X9308646Y45238114D01*
X9308646Y45238114D02*
X9308646Y45523828D01*
X9308646Y45523828D02*
X9356265Y45619066D01*
X9356265Y45619066D02*
X9403884Y45666685D01*
X9403884Y45666685D02*
X9499122Y45714304D01*
X9499122Y45714304D02*
X9689598Y45714304D01*
X9689598Y45714304D02*
X9784836Y45666685D01*
X11499122Y45047637D02*
X11022932Y45047637D01*
X11022932Y45047637D02*
X11022932Y46047637D01*
X12213408Y45095256D02*
X12118170Y45047637D01*
X12118170Y45047637D02*
X11927694Y45047637D01*
X11927694Y45047637D02*
X11832456Y45095256D01*
X11832456Y45095256D02*
X11784837Y45190495D01*
X11784837Y45190495D02*
X11784837Y45571447D01*
X11784837Y45571447D02*
X11832456Y45666685D01*
X11832456Y45666685D02*
X11927694Y45714304D01*
X11927694Y45714304D02*
X12118170Y45714304D01*
X12118170Y45714304D02*
X12213408Y45666685D01*
X12213408Y45666685D02*
X12261027Y45571447D01*
X12261027Y45571447D02*
X12261027Y45476209D01*
X12261027Y45476209D02*
X11784837Y45380971D01*
D12*
X18166666Y45742681D02*
X18166666Y45028396D01*
X18166666Y45028396D02*
X18119047Y44885539D01*
X18119047Y44885539D02*
X18023809Y44790300D01*
X18023809Y44790300D02*
X17880952Y44742681D01*
X17880952Y44742681D02*
X17785714Y44742681D01*
X18595238Y45647443D02*
X18642857Y45695062D01*
X18642857Y45695062D02*
X18738095Y45742681D01*
X18738095Y45742681D02*
X18976190Y45742681D01*
X18976190Y45742681D02*
X19071428Y45695062D01*
X19071428Y45695062D02*
X19119047Y45647443D01*
X19119047Y45647443D02*
X19166666Y45552205D01*
X19166666Y45552205D02*
X19166666Y45456967D01*
X19166666Y45456967D02*
X19119047Y45314110D01*
X19119047Y45314110D02*
X18547619Y44742681D01*
X18547619Y44742681D02*
X19166666Y44742681D01*
X-8333334Y45742681D02*
X-8333334Y45028396D01*
X-8333334Y45028396D02*
X-8380953Y44885539D01*
X-8380953Y44885539D02*
X-8476191Y44790300D01*
X-8476191Y44790300D02*
X-8619048Y44742681D01*
X-8619048Y44742681D02*
X-8714286Y44742681D01*
X-7952381Y45742681D02*
X-7333334Y45742681D01*
X-7333334Y45742681D02*
X-7666667Y45361729D01*
X-7666667Y45361729D02*
X-7523810Y45361729D01*
X-7523810Y45361729D02*
X-7428572Y45314110D01*
X-7428572Y45314110D02*
X-7380953Y45266491D01*
X-7380953Y45266491D02*
X-7333334Y45171253D01*
X-7333334Y45171253D02*
X-7333334Y44933158D01*
X-7333334Y44933158D02*
X-7380953Y44837920D01*
X-7380953Y44837920D02*
X-7428572Y44790300D01*
X-7428572Y44790300D02*
X-7523810Y44742681D01*
X-7523810Y44742681D02*
X-7809524Y44742681D01*
X-7809524Y44742681D02*
X-7904762Y44790300D01*
X-7904762Y44790300D02*
X-7952381Y44837920D01*
X14166666Y45742681D02*
X14166666Y45028396D01*
X14166666Y45028396D02*
X14119047Y44885539D01*
X14119047Y44885539D02*
X14023809Y44790300D01*
X14023809Y44790300D02*
X13880952Y44742681D01*
X13880952Y44742681D02*
X13785714Y44742681D01*
X15166666Y44742681D02*
X14595238Y44742681D01*
X14880952Y44742681D02*
X14880952Y45742681D01*
X14880952Y45742681D02*
X14785714Y45599824D01*
X14785714Y45599824D02*
X14690476Y45504586D01*
X14690476Y45504586D02*
X14595238Y45456967D01*
X4738095Y42095181D02*
X4738095Y41285658D01*
X4738095Y41285658D02*
X4785714Y41190420D01*
X4785714Y41190420D02*
X4833333Y41142800D01*
X4833333Y41142800D02*
X4928571Y41095181D01*
X4928571Y41095181D02*
X5119047Y41095181D01*
X5119047Y41095181D02*
X5214285Y41142800D01*
X5214285Y41142800D02*
X5261904Y41190420D01*
X5261904Y41190420D02*
X5309523Y41285658D01*
X5309523Y41285658D02*
X5309523Y42095181D01*
X6309523Y41095181D02*
X5738095Y41095181D01*
X6023809Y41095181D02*
X6023809Y42095181D01*
X6023809Y42095181D02*
X5928571Y41952324D01*
X5928571Y41952324D02*
X5833333Y41857086D01*
X5833333Y41857086D02*
X5738095Y41809467D01*
X-4333334Y45742681D02*
X-4333334Y45028396D01*
X-4333334Y45028396D02*
X-4380953Y44885539D01*
X-4380953Y44885539D02*
X-4476191Y44790300D01*
X-4476191Y44790300D02*
X-4619048Y44742681D01*
X-4619048Y44742681D02*
X-4714286Y44742681D01*
X-3428572Y45409348D02*
X-3428572Y44742681D01*
X-3666667Y45790300D02*
X-3904762Y45076015D01*
X-3904762Y45076015D02*
X-3285715Y45076015D01*
D13*
%TO.C,C1*%
X9140000Y39548335D02*
X9140000Y39316665D01*
X9860000Y39548335D02*
X9860000Y39316665D01*
%TO.C,J2*%
X17120000Y44197500D02*
X18500000Y44197500D01*
X17120000Y42817500D02*
X17120000Y44197500D01*
X17120000Y41547500D02*
X17120000Y33817500D01*
X17120000Y41547500D02*
X19880000Y41547500D01*
X17120000Y33817500D02*
X19880000Y33817500D01*
X19880000Y41547500D02*
X19880000Y33817500D01*
%TO.C,J3*%
X-9380000Y44197500D02*
X-8000000Y44197500D01*
X-9380000Y42817500D02*
X-9380000Y44197500D01*
X-9380000Y41547500D02*
X-9380000Y33817500D01*
X-9380000Y41547500D02*
X-6620000Y41547500D01*
X-9380000Y33817500D02*
X-6620000Y33817500D01*
X-6620000Y41547500D02*
X-6620000Y33817500D01*
%TO.C,J1*%
X13120000Y44197500D02*
X14500000Y44197500D01*
X13120000Y42817500D02*
X13120000Y44197500D01*
X13120000Y41547500D02*
X13120000Y33817500D01*
X13120000Y41547500D02*
X15880000Y41547500D01*
X13120000Y33817500D02*
X15880000Y33817500D01*
X15880000Y41547500D02*
X15880000Y33817500D01*
D10*
%TO.C,G\u002A\u002A\u002A*%
G36*
X-2877076Y30620440D02*
G01*
X-2874955Y30603475D01*
X-2871898Y30576287D01*
X-2867998Y30539770D01*
X-2863344Y30494812D01*
X-2858027Y30442306D01*
X-2852138Y30383141D01*
X-2845768Y30318209D01*
X-2839006Y30248401D01*
X-2831945Y30174607D01*
X-2828479Y30138064D01*
X-2821249Y30061669D01*
X-2814281Y29988095D01*
X-2807667Y29918320D01*
X-2801498Y29853319D01*
X-2795870Y29794071D01*
X-2790874Y29741551D01*
X-2786603Y29696737D01*
X-2783150Y29660605D01*
X-2780609Y29634133D01*
X-2779071Y29618298D01*
X-2778760Y29615176D01*
X-2775221Y29580517D01*
X-2886132Y29580517D01*
X-2997043Y29580517D01*
X-3041940Y29666410D01*
X-3055310Y29692050D01*
X-3073232Y29726513D01*
X-3094728Y29767912D01*
X-3118817Y29814358D01*
X-3144520Y29863964D01*
X-3170860Y29914843D01*
X-3193787Y29959169D01*
X-3300736Y30166035D01*
X-3288826Y30179173D01*
X-3238402Y30234737D01*
X-3188741Y30289353D01*
X-3140498Y30342306D01*
X-3094329Y30392881D01*
X-3050891Y30440364D01*
X-3010840Y30484041D01*
X-2974833Y30523197D01*
X-2943525Y30557118D01*
X-2917572Y30585089D01*
X-2897632Y30606396D01*
X-2884359Y30620323D01*
X-2878411Y30626158D01*
X-2878172Y30626293D01*
X-2877076Y30620440D01*
G37*
G36*
X-4680992Y31851908D02*
G01*
X-4655147Y31850560D01*
X-4631315Y31847722D01*
X-4606161Y31843201D01*
X-4601349Y31842218D01*
X-4523671Y31821404D01*
X-4454311Y31792607D01*
X-4392025Y31755181D01*
X-4335566Y31708479D01*
X-4326608Y31699720D01*
X-4279657Y31646206D01*
X-4240791Y31587178D01*
X-4209170Y31521051D01*
X-4183953Y31446242D01*
X-4176104Y31416154D01*
X-4158195Y31318658D01*
X-4152054Y31222797D01*
X-4157542Y31129100D01*
X-4174517Y31038096D01*
X-4202840Y30950315D01*
X-4242369Y30866286D01*
X-4292967Y30786539D01*
X-4354491Y30711603D01*
X-4365880Y30699533D01*
X-4395254Y30670693D01*
X-4430084Y30639115D01*
X-4466690Y30607964D01*
X-4501388Y30580404D01*
X-4522140Y30565242D01*
X-4519520Y30559919D01*
X-4511304Y30544883D01*
X-4497909Y30520866D01*
X-4479752Y30488602D01*
X-4457249Y30448826D01*
X-4430817Y30402272D01*
X-4400873Y30349673D01*
X-4367834Y30291763D01*
X-4332117Y30229277D01*
X-4294138Y30162949D01*
X-4254314Y30093512D01*
X-4249692Y30085460D01*
X-4209535Y30015474D01*
X-4171060Y29948348D01*
X-4134696Y29884834D01*
X-4100871Y29825684D01*
X-4070015Y29771651D01*
X-4042556Y29723487D01*
X-4018923Y29681944D01*
X-3999545Y29647775D01*
X-3984851Y29621732D01*
X-3975269Y29604567D01*
X-3971230Y29597033D01*
X-3971153Y29596854D01*
X-3970635Y29593480D01*
X-3972964Y29590932D01*
X-3979560Y29589094D01*
X-3991845Y29587852D01*
X-4011241Y29587091D01*
X-4039168Y29586698D01*
X-4077047Y29586556D01*
X-4099135Y29586545D01*
X-4231073Y29586545D01*
X-4780760Y30028061D01*
X-5330446Y30469578D01*
X-5329070Y30546961D01*
X-5327694Y30624343D01*
X-5240295Y30658798D01*
X-5126168Y30708586D01*
X-5022540Y30763927D01*
X-4929069Y30825101D01*
X-4845413Y30892389D01*
X-4771229Y30966072D01*
X-4706176Y31046430D01*
X-4649912Y31133745D01*
X-4640215Y31151093D01*
X-4605959Y31219657D01*
X-4581512Y31282186D01*
X-4566685Y31339382D01*
X-4561292Y31391948D01*
X-4564223Y31435084D01*
X-4578993Y31492821D01*
X-4603976Y31544882D01*
X-4638281Y31590288D01*
X-4681019Y31628056D01*
X-4731299Y31657207D01*
X-4782203Y31675247D01*
X-4802085Y31679629D01*
X-4823089Y31682290D01*
X-4848213Y31683400D01*
X-4880455Y31683132D01*
X-4905767Y31682333D01*
X-4941574Y31680689D01*
X-4970470Y31678337D01*
X-4996497Y31674623D01*
X-5023700Y31668892D01*
X-5056123Y31660488D01*
X-5077552Y31654516D01*
X-5123545Y31641716D01*
X-5169552Y31629258D01*
X-5214031Y31617527D01*
X-5255442Y31606908D01*
X-5292243Y31597787D01*
X-5322893Y31590548D01*
X-5345852Y31585578D01*
X-5359578Y31583261D01*
X-5362614Y31583250D01*
X-5361720Y31587786D01*
X-5352629Y31598013D01*
X-5336938Y31612595D01*
X-5316246Y31630199D01*
X-5292152Y31649490D01*
X-5266254Y31669135D01*
X-5240152Y31687798D01*
X-5225536Y31697656D01*
X-5133087Y31751247D01*
X-5035095Y31794366D01*
X-4999194Y31807034D01*
X-4948078Y31822981D01*
X-4903147Y31834531D01*
X-4860040Y31842459D01*
X-4814391Y31847539D01*
X-4761838Y31850547D01*
X-4752066Y31850903D01*
X-4712187Y31851958D01*
X-4680992Y31851908D01*
G37*
G36*
X-4974741Y31564523D02*
G01*
X-4931452Y31559332D01*
X-4893076Y31549455D01*
X-4856241Y31534082D01*
X-4826301Y31517688D01*
X-4803760Y31502838D01*
X-4782306Y31486192D01*
X-4763783Y31469525D01*
X-4750035Y31454612D01*
X-4742902Y31443227D01*
X-4743301Y31437754D01*
X-4749548Y31433057D01*
X-4764396Y31422381D01*
X-4786555Y31406638D01*
X-4814735Y31386741D01*
X-4847646Y31363602D01*
X-4883998Y31338134D01*
X-4893712Y31331343D01*
X-5002273Y31253913D01*
X-5100687Y31180300D01*
X-5189910Y31109623D01*
X-5270899Y31041003D01*
X-5344608Y30973559D01*
X-5411994Y30906410D01*
X-5474012Y30838676D01*
X-5531619Y30769477D01*
X-5585769Y30697931D01*
X-5594494Y30685760D01*
X-5641913Y30615459D01*
X-5686461Y30542265D01*
X-5727301Y30467939D01*
X-5763598Y30394238D01*
X-5794514Y30322920D01*
X-5819213Y30255745D01*
X-5836857Y30194471D01*
X-5843492Y30162539D01*
X-5848196Y30113869D01*
X-5846993Y30061383D01*
X-5840258Y30010108D01*
X-5828946Y29966723D01*
X-5800904Y29903724D01*
X-5762905Y29847393D01*
X-5714926Y29797716D01*
X-5656947Y29754679D01*
X-5588948Y29718270D01*
X-5510906Y29688475D01*
X-5422801Y29665280D01*
X-5328363Y29649162D01*
X-5296445Y29645534D01*
X-5263689Y29643133D01*
X-5227425Y29641874D01*
X-5184982Y29641673D01*
X-5133692Y29642446D01*
X-5122758Y29642695D01*
X-5066870Y29644501D01*
X-5015505Y29647321D01*
X-4966206Y29651461D01*
X-4916516Y29657232D01*
X-4863976Y29664940D01*
X-4806130Y29674895D01*
X-4740519Y29687404D01*
X-4697412Y29696059D01*
X-4573443Y29721299D01*
X-4507545Y29668387D01*
X-4483656Y29649007D01*
X-4463393Y29632194D01*
X-4448506Y29619427D01*
X-4440743Y29612185D01*
X-4440043Y29611263D01*
X-4445037Y29608330D01*
X-4459825Y29602428D01*
X-4482678Y29594123D01*
X-4511864Y29583983D01*
X-4545653Y29572573D01*
X-4582316Y29560461D01*
X-4620121Y29548213D01*
X-4657338Y29536396D01*
X-4692237Y29525577D01*
X-4723087Y29516322D01*
X-4748158Y29509198D01*
X-4764121Y29505129D01*
X-4785212Y29501021D01*
X-4816082Y29495958D01*
X-4854520Y29490233D01*
X-4898315Y29484141D01*
X-4945255Y29477978D01*
X-4993129Y29472037D01*
X-5039725Y29466614D01*
X-5082834Y29462002D01*
X-5101662Y29460161D01*
X-5128185Y29458144D01*
X-5162624Y29456238D01*
X-5202782Y29454497D01*
X-5246460Y29452974D01*
X-5291459Y29451721D01*
X-5335580Y29450793D01*
X-5376626Y29450241D01*
X-5412397Y29450121D01*
X-5440696Y29450484D01*
X-5459323Y29451385D01*
X-5460300Y29451478D01*
X-5540145Y29461765D01*
X-5614695Y29475692D01*
X-5681617Y29492761D01*
X-5728525Y29508509D01*
X-5814897Y29547496D01*
X-5893028Y29595111D01*
X-5962588Y29650946D01*
X-6023245Y29714597D01*
X-6074666Y29785655D01*
X-6116520Y29863713D01*
X-6148475Y29948366D01*
X-6170198Y30039205D01*
X-6172445Y30052653D01*
X-6178241Y30105784D01*
X-6180514Y30166745D01*
X-6179396Y30231877D01*
X-6175018Y30297523D01*
X-6167514Y30360024D01*
X-6159779Y30403275D01*
X-6124661Y30542181D01*
X-6079089Y30675113D01*
X-6022992Y30802220D01*
X-5956301Y30923651D01*
X-5878947Y31039554D01*
X-5833071Y31099454D01*
X-5785727Y31154618D01*
X-5730314Y31212688D01*
X-5669546Y31271172D01*
X-5606132Y31327581D01*
X-5542787Y31379423D01*
X-5482220Y31424208D01*
X-5471423Y31431597D01*
X-5391450Y31478450D01*
X-5305091Y31515780D01*
X-5213932Y31543109D01*
X-5119556Y31559960D01*
X-5026318Y31565843D01*
X-4974741Y31564523D01*
G37*
G36*
X-3241261Y32599649D02*
G01*
X-3188500Y32598242D01*
X-3141437Y32595752D01*
X-3102879Y32592201D01*
X-3094952Y32591157D01*
X-2991872Y32571515D01*
X-2896973Y32543057D01*
X-2810274Y32505794D01*
X-2731794Y32459739D01*
X-2661551Y32404902D01*
X-2599564Y32341296D01*
X-2545853Y32268930D01*
X-2532656Y32247698D01*
X-2494531Y32172333D01*
X-2466118Y32090347D01*
X-2447451Y32002311D01*
X-2438565Y31908794D01*
X-2439497Y31810367D01*
X-2450281Y31707600D01*
X-2470952Y31601063D01*
X-2488422Y31534504D01*
X-2531165Y31405487D01*
X-2584944Y31277287D01*
X-2649898Y31149687D01*
X-2726169Y31022467D01*
X-2813899Y30895410D01*
X-2913230Y30768297D01*
X-3024301Y30640910D01*
X-3147256Y30513032D01*
X-3155605Y30504754D01*
X-3223708Y30438524D01*
X-3289770Y30376691D01*
X-3355882Y30317462D01*
X-3424133Y30259045D01*
X-3496615Y30199647D01*
X-3575420Y30137474D01*
X-3655074Y30076455D01*
X-3693905Y30047232D01*
X-3734644Y30016896D01*
X-3776111Y29986296D01*
X-3817128Y29956280D01*
X-3856515Y29927697D01*
X-3893093Y29901395D01*
X-3925684Y29878223D01*
X-3953109Y29859029D01*
X-3974188Y29844662D01*
X-3987742Y29835971D01*
X-3992399Y29833673D01*
X-3996488Y29838761D01*
X-4005504Y29853128D01*
X-4018668Y29875433D01*
X-4035206Y29904335D01*
X-4054340Y29938493D01*
X-4075295Y29976564D01*
X-4078724Y29982855D01*
X-4159944Y30132036D01*
X-4132025Y30183733D01*
X-4125931Y30194953D01*
X-4114395Y30216120D01*
X-4097763Y30246606D01*
X-4076378Y30285781D01*
X-4050584Y30333016D01*
X-4020725Y30387682D01*
X-3987143Y30449149D01*
X-3950184Y30516789D01*
X-3910191Y30589972D01*
X-3867508Y30668069D01*
X-3822478Y30750451D01*
X-3775445Y30836489D01*
X-3726753Y30925554D01*
X-3676746Y31017016D01*
X-3670124Y31029126D01*
X-3236142Y31822822D01*
X-3118865Y31821283D01*
X-3001588Y31819744D01*
X-2963991Y31518367D01*
X-2956640Y31459410D01*
X-2949752Y31404090D01*
X-2943468Y31353559D01*
X-2937932Y31308967D01*
X-2933286Y31271466D01*
X-2929672Y31242204D01*
X-2927235Y31222335D01*
X-2926115Y31213007D01*
X-2926059Y31212470D01*
X-2922508Y31208400D01*
X-2911917Y31210051D01*
X-2892866Y31217715D01*
X-2886710Y31220560D01*
X-2865841Y31234216D01*
X-2841789Y31257244D01*
X-2814152Y31290111D01*
X-2782529Y31333284D01*
X-2756963Y31371169D01*
X-2708806Y31453399D01*
X-2669271Y31539611D01*
X-2638656Y31628341D01*
X-2617260Y31718129D01*
X-2605384Y31807512D01*
X-2603326Y31895029D01*
X-2611385Y31979217D01*
X-2621998Y32030707D01*
X-2642284Y32089690D01*
X-2672072Y32147209D01*
X-2709446Y32200343D01*
X-2752491Y32246169D01*
X-2776187Y32265918D01*
X-2834956Y32304120D01*
X-2898952Y32333287D01*
X-2969306Y32353787D01*
X-3047147Y32365986D01*
X-3094496Y32369332D01*
X-3200697Y32368882D01*
X-3308444Y32358209D01*
X-3418937Y32337127D01*
X-3533378Y32305455D01*
X-3552588Y32299243D01*
X-3602423Y32282128D01*
X-3651744Y32263689D01*
X-3701711Y32243359D01*
X-3753488Y32220572D01*
X-3808236Y32194758D01*
X-3867119Y32165352D01*
X-3931298Y32131785D01*
X-4001936Y32093490D01*
X-4080195Y32049899D01*
X-4167238Y32000444D01*
X-4182464Y31991716D01*
X-4244053Y31956621D01*
X-4295895Y31927611D01*
X-4337897Y31904736D01*
X-4369964Y31888047D01*
X-4392001Y31877593D01*
X-4403914Y31873425D01*
X-4405483Y31873403D01*
X-4416442Y31876677D01*
X-4435284Y31883041D01*
X-4458614Y31891334D01*
X-4467954Y31894751D01*
X-4499438Y31905065D01*
X-4535030Y31914772D01*
X-4567427Y31921895D01*
X-4569705Y31922301D01*
X-4602544Y31926413D01*
X-4645145Y31929248D01*
X-4695282Y31930791D01*
X-4750729Y31931026D01*
X-4809258Y31929939D01*
X-4868644Y31927516D01*
X-4915082Y31924618D01*
X-4946902Y31922505D01*
X-4974282Y31921083D01*
X-4995060Y31920433D01*
X-5007073Y31920637D01*
X-5009120Y31921088D01*
X-5009912Y31927522D01*
X-5002960Y31937947D01*
X-4987881Y31952659D01*
X-4964295Y31971952D01*
X-4931822Y31996123D01*
X-4890079Y32025466D01*
X-4838685Y32060277D01*
X-4777259Y32100851D01*
X-4776176Y32101559D01*
X-4608683Y32205213D01*
X-4441479Y32296878D01*
X-4274588Y32376545D01*
X-4108031Y32444207D01*
X-3941832Y32499855D01*
X-3776011Y32543481D01*
X-3610593Y32575077D01*
X-3453133Y32594002D01*
X-3405657Y32597150D01*
X-3352647Y32599125D01*
X-3296913Y32599951D01*
X-3241261Y32599649D01*
G37*
D12*
%TO.C,U1*%
X3875000Y40625000D02*
X3875000Y40450000D01*
X3875000Y40625000D02*
X7125000Y40625000D01*
X3875000Y37550000D02*
X3875000Y37375000D01*
X3875000Y37375000D02*
X7125000Y37375000D01*
X7125000Y40625000D02*
X7125000Y40450000D01*
X7125000Y37550000D02*
X7125000Y37375000D01*
D13*
X3400000Y40450000D02*
X3160000Y40780000D01*
X3640000Y40780000D01*
X3400000Y40450000D01*
G36*
X3400000Y40450000D02*
G01*
X3160000Y40780000D01*
X3640000Y40780000D01*
X3400000Y40450000D01*
G37*
%TO.C,J4*%
X-5380000Y44197500D02*
X-4000000Y44197500D01*
X-5380000Y42817500D02*
X-5380000Y44197500D01*
X-5380000Y41547500D02*
X-5380000Y33817500D01*
X-5380000Y41547500D02*
X-2620000Y41547500D01*
X-5380000Y33817500D02*
X-2620000Y33817500D01*
X-2620000Y41547500D02*
X-2620000Y33817500D01*
%TO.C,C3*%
X-1860000Y32115835D02*
X-1860000Y31884165D01*
X-1140000Y32115835D02*
X-1140000Y31884165D01*
D10*
%TO.C,G\u002A\u002A\u002A*%
G36*
X-6495854Y32095916D02*
G01*
X-6416673Y32088422D01*
X-6344134Y32067382D01*
X-6278800Y32033124D01*
X-6221235Y31985980D01*
X-6172004Y31926276D01*
X-6152858Y31895645D01*
X-6126438Y31835998D01*
X-6110622Y31770098D01*
X-6105618Y31701760D01*
X-6111636Y31634801D01*
X-6128886Y31573037D01*
X-6134432Y31560039D01*
X-6151075Y31523746D01*
X-6288976Y31731902D01*
X-6328541Y31791353D01*
X-6361033Y31839464D01*
X-6387527Y31877674D01*
X-6409098Y31907420D01*
X-6426822Y31930141D01*
X-6441773Y31947274D01*
X-6455028Y31960258D01*
X-6467049Y31970075D01*
X-6505050Y32000781D01*
X-6535274Y32029897D01*
X-6555983Y32055528D01*
X-6565437Y32075781D01*
X-6565715Y32077589D01*
X-6567841Y32096450D01*
X-6495854Y32095916D01*
G37*
G36*
X-9443647Y32099561D02*
G01*
X-9437275Y32096680D01*
X-9437533Y32091974D01*
X-9442264Y32083329D01*
X-9453895Y32063407D01*
X-9471445Y32033826D01*
X-9493934Y31996204D01*
X-9520382Y31952159D01*
X-9549809Y31903310D01*
X-9581235Y31851273D01*
X-9613678Y31797667D01*
X-9646160Y31744110D01*
X-9677699Y31692219D01*
X-9707316Y31643614D01*
X-9734030Y31599911D01*
X-9756862Y31562728D01*
X-9774830Y31533684D01*
X-9786954Y31514397D01*
X-9792254Y31506485D01*
X-9800014Y31507235D01*
X-9809768Y31517851D01*
X-9831464Y31562740D01*
X-9846412Y31617158D01*
X-9854224Y31676879D01*
X-9854513Y31737677D01*
X-9846893Y31795327D01*
X-9838092Y31827447D01*
X-9806123Y31898670D01*
X-9762750Y31960468D01*
X-9709059Y32012004D01*
X-9646133Y32052441D01*
X-9575057Y32080942D01*
X-9496914Y32096670D01*
X-9488266Y32097553D01*
X-9459767Y32099756D01*
X-9443647Y32099561D01*
G37*
G36*
X-9109873Y31873334D02*
G01*
X-9102044Y31852278D01*
X-9093644Y31823939D01*
X-9085715Y31792138D01*
X-9079298Y31760693D01*
X-9075531Y31734450D01*
X-9076056Y31665401D01*
X-9090294Y31597369D01*
X-9116838Y31532396D01*
X-9154281Y31472526D01*
X-9201215Y31419801D01*
X-9256234Y31376265D01*
X-9317930Y31343961D01*
X-9352596Y31332165D01*
X-9385095Y31324032D01*
X-9416002Y31317917D01*
X-9442024Y31314282D01*
X-9459871Y31313591D01*
X-9466260Y31316169D01*
X-9462442Y31324425D01*
X-9451643Y31343715D01*
X-9434843Y31372450D01*
X-9413021Y31409043D01*
X-9387158Y31451906D01*
X-9358234Y31499453D01*
X-9327229Y31550095D01*
X-9295124Y31602246D01*
X-9262898Y31654318D01*
X-9231531Y31704723D01*
X-9202004Y31751875D01*
X-9175297Y31794186D01*
X-9152389Y31830068D01*
X-9134262Y31857934D01*
X-9121895Y31876197D01*
X-9116268Y31883269D01*
X-9116091Y31883289D01*
X-9109873Y31873334D01*
G37*
G36*
X-6792986Y31939394D02*
G01*
X-6780735Y31923789D01*
X-6766853Y31897624D01*
X-6753079Y31865116D01*
X-6741158Y31830479D01*
X-6732831Y31797929D01*
X-6731526Y31790682D01*
X-6728664Y31776508D01*
X-6724116Y31761505D01*
X-6717029Y31744070D01*
X-6706552Y31722598D01*
X-6691831Y31695483D01*
X-6672015Y31661122D01*
X-6646251Y31617908D01*
X-6613689Y31564237D01*
X-6595360Y31534236D01*
X-6555464Y31468486D01*
X-6523772Y31415048D01*
X-6500110Y31373606D01*
X-6484302Y31343843D01*
X-6476173Y31325443D01*
X-6475544Y31318092D01*
X-6481793Y31314907D01*
X-6490046Y31313583D01*
X-6503844Y31314201D01*
X-6526729Y31316842D01*
X-6548897Y31319783D01*
X-6620917Y31336920D01*
X-6687905Y31367417D01*
X-6748143Y31409848D01*
X-6799913Y31462783D01*
X-6841496Y31524796D01*
X-6868031Y31584965D01*
X-6877066Y31615643D01*
X-6882330Y31646738D01*
X-6884590Y31683947D01*
X-6884827Y31709995D01*
X-6881425Y31771414D01*
X-6870646Y31823987D01*
X-6851075Y31872800D01*
X-6828674Y31911723D01*
X-6814561Y31932400D01*
X-6805029Y31941889D01*
X-6797373Y31942286D01*
X-6792986Y31939394D01*
G37*
G36*
X-9043513Y32715153D02*
G01*
X-9036852Y32709943D01*
X-9039673Y32701126D01*
X-9049200Y32681727D01*
X-9064189Y32654067D01*
X-9083393Y32620466D01*
X-9099051Y32594032D01*
X-9163957Y32485990D01*
X-9122034Y32407833D01*
X-9104652Y32376265D01*
X-9089015Y32349388D01*
X-9076924Y32330201D01*
X-9070486Y32321925D01*
X-9059534Y32318735D01*
X-9036710Y32315705D01*
X-9005298Y32313168D01*
X-8968579Y32311455D01*
X-8966680Y32311398D01*
X-8872499Y32308622D01*
X-8803934Y32420391D01*
X-8781297Y32456842D01*
X-8761223Y32488316D01*
X-8745089Y32512721D01*
X-8734274Y32527965D01*
X-8730336Y32532160D01*
X-8722690Y32525168D01*
X-8714533Y32506397D01*
X-8706763Y32479159D01*
X-8700278Y32446767D01*
X-8695978Y32412530D01*
X-8695279Y32402924D01*
X-8696917Y32331769D01*
X-8711309Y32267842D01*
X-8739182Y32209149D01*
X-8781262Y32153698D01*
X-8789320Y32145039D01*
X-8838093Y32103677D01*
X-8895470Y32071178D01*
X-8957383Y32049315D01*
X-9019760Y32039865D01*
X-9031017Y32039619D01*
X-9036010Y32040065D01*
X-9040107Y32040845D01*
X-9043872Y32041116D01*
X-9047867Y32040038D01*
X-9052653Y32036769D01*
X-9058795Y32030470D01*
X-9066853Y32020298D01*
X-9077390Y32005412D01*
X-9090969Y31984973D01*
X-9108152Y31958138D01*
X-9129501Y31924067D01*
X-9155579Y31881918D01*
X-9186949Y31830852D01*
X-9224172Y31770026D01*
X-9267811Y31698599D01*
X-9318428Y31615731D01*
X-9360385Y31547077D01*
X-9417434Y31453743D01*
X-9467113Y31372469D01*
X-9509988Y31302401D01*
X-9546622Y31242687D01*
X-9577579Y31192471D01*
X-9603422Y31150901D01*
X-9624715Y31117123D01*
X-9642022Y31090284D01*
X-9655906Y31069529D01*
X-9666932Y31054006D01*
X-9675663Y31042861D01*
X-9682663Y31035240D01*
X-9688495Y31030290D01*
X-9693723Y31027157D01*
X-9698912Y31024988D01*
X-9704624Y31022929D01*
X-9707219Y31021929D01*
X-9746437Y31010508D01*
X-9787462Y31005621D01*
X-9824201Y31007779D01*
X-9837203Y31011014D01*
X-9870848Y31029120D01*
X-9899924Y31057554D01*
X-9922424Y31092693D01*
X-9933503Y31123119D01*
X-9849458Y31123119D01*
X-9840799Y31100081D01*
X-9821661Y31081860D01*
X-9812492Y31077341D01*
X-9787196Y31070798D01*
X-9766135Y31075640D01*
X-9751440Y31085395D01*
X-9734788Y31106498D01*
X-9730153Y31130989D01*
X-9736128Y31155227D01*
X-9751305Y31175569D01*
X-9774276Y31188374D01*
X-9792242Y31190931D01*
X-9819031Y31184880D01*
X-9837928Y31169144D01*
X-9848286Y31147349D01*
X-9849458Y31123119D01*
X-9933503Y31123119D01*
X-9936341Y31130913D01*
X-9939668Y31168590D01*
X-9935846Y31189117D01*
X-9931605Y31200832D01*
X-9925146Y31215611D01*
X-9915982Y31234290D01*
X-9903626Y31257711D01*
X-9887590Y31286709D01*
X-9867387Y31322124D01*
X-9842530Y31364795D01*
X-9812532Y31415559D01*
X-9776904Y31475256D01*
X-9735161Y31544723D01*
X-9686814Y31624798D01*
X-9631377Y31716321D01*
X-9585300Y31792243D01*
X-9328274Y32215482D01*
X-9340326Y32243108D01*
X-9360705Y32307668D01*
X-9367504Y32374245D01*
X-9361395Y32440563D01*
X-9343047Y32504344D01*
X-9313131Y32563309D01*
X-9272318Y32615182D01*
X-9221277Y32657683D01*
X-9217601Y32660080D01*
X-9187674Y32676808D01*
X-9154164Y32691605D01*
X-9120031Y32703655D01*
X-9088237Y32712141D01*
X-9061744Y32716246D01*
X-9043513Y32715153D01*
G37*
G36*
X-7174584Y32848739D02*
G01*
X-7153145Y32824144D01*
X-7136263Y32802679D01*
X-7126233Y32787374D01*
X-7124459Y32782518D01*
X-7122678Y32769774D01*
X-7117483Y32753840D01*
X-7108104Y32733358D01*
X-7093769Y32706973D01*
X-7073707Y32673327D01*
X-7047150Y32631064D01*
X-7013325Y32578827D01*
X-6979934Y32528065D01*
X-6943807Y32473252D01*
X-6906326Y32416114D01*
X-6869470Y32359684D01*
X-6835213Y32306994D01*
X-6805533Y32261078D01*
X-6783802Y32227163D01*
X-6760391Y32190876D01*
X-6739546Y32159507D01*
X-6722687Y32135121D01*
X-6711236Y32119781D01*
X-6706825Y32115394D01*
X-6697669Y32119162D01*
X-6680230Y32128874D01*
X-6665109Y32138139D01*
X-6644735Y32149605D01*
X-6629553Y32155476D01*
X-6624107Y32155189D01*
X-6619415Y32145605D01*
X-6611829Y32125649D01*
X-6602903Y32099435D01*
X-6601939Y32096450D01*
X-6587375Y32055309D01*
X-6572223Y32024609D01*
X-6553204Y31999881D01*
X-6527037Y31976651D01*
X-6499246Y31956484D01*
X-6477590Y31940990D01*
X-6459678Y31926376D01*
X-6443334Y31910150D01*
X-6426382Y31889816D01*
X-6406649Y31862880D01*
X-6381958Y31826849D01*
X-6367927Y31805921D01*
X-6346108Y31773053D01*
X-6319020Y31731917D01*
X-6287885Y31684402D01*
X-6253928Y31632393D01*
X-6218371Y31577778D01*
X-6182440Y31522445D01*
X-6147357Y31468279D01*
X-6114347Y31417169D01*
X-6084632Y31371002D01*
X-6059437Y31331664D01*
X-6039986Y31301042D01*
X-6027501Y31281025D01*
X-6026706Y31279717D01*
X-6009344Y31251050D01*
X-6034744Y31208767D01*
X-6073384Y31157581D01*
X-6120084Y31118394D01*
X-6173541Y31092084D01*
X-6225135Y31080281D01*
X-6251339Y31078407D01*
X-6267638Y31080959D01*
X-6278366Y31088189D01*
X-6285236Y31097465D01*
X-6299153Y31118253D01*
X-6319233Y31149147D01*
X-6344595Y31188744D01*
X-6374354Y31235640D01*
X-6407628Y31288430D01*
X-6443534Y31345710D01*
X-6481190Y31406077D01*
X-6519712Y31468126D01*
X-6558218Y31530453D01*
X-6595824Y31591654D01*
X-6626457Y31641796D01*
X-6652004Y31684420D01*
X-6670630Y31717529D01*
X-6683782Y31744244D01*
X-6692910Y31767685D01*
X-6699461Y31790970D01*
X-6702748Y31806117D01*
X-6713380Y31851507D01*
X-6726016Y31886151D01*
X-6743182Y31914448D01*
X-6767407Y31940797D01*
X-6792763Y31962773D01*
X-6815838Y31982084D01*
X-6833597Y31997821D01*
X-6843354Y32007565D01*
X-6844422Y32009314D01*
X-6838827Y32015748D01*
X-6824249Y32028200D01*
X-6806400Y32042037D01*
X-6785635Y32058422D01*
X-6775463Y32069637D01*
X-6773749Y32078735D01*
X-6776254Y32085140D01*
X-6782469Y32095494D01*
X-6795848Y32116927D01*
X-6815331Y32147787D01*
X-6839860Y32186423D01*
X-6868379Y32231182D01*
X-6899828Y32280411D01*
X-6933151Y32332459D01*
X-6967288Y32385674D01*
X-7001183Y32438402D01*
X-7033776Y32488993D01*
X-7064011Y32535793D01*
X-7090829Y32577151D01*
X-7113172Y32611414D01*
X-7116249Y32616109D01*
X-7146791Y32661018D01*
X-7171229Y32693355D01*
X-7189280Y32712770D01*
X-7197754Y32718406D01*
X-7209189Y32726020D01*
X-7221194Y32741836D01*
X-7235294Y32768179D01*
X-7246794Y32793147D01*
X-7259310Y32823085D01*
X-7268475Y32848374D01*
X-7273095Y32865518D01*
X-7273197Y32870420D01*
X-7264385Y32880245D01*
X-7248015Y32891061D01*
X-7246961Y32891615D01*
X-7224376Y32903294D01*
X-7174584Y32848739D01*
G37*
G36*
X-7918274Y32280809D02*
G01*
X-7859058Y32276893D01*
X-7812389Y32270882D01*
X-7696335Y32243113D01*
X-7586322Y32201957D01*
X-7483252Y32148282D01*
X-7388028Y32082957D01*
X-7301549Y32006852D01*
X-7224720Y31920836D01*
X-7158440Y31825777D01*
X-7103612Y31722545D01*
X-7061138Y31612009D01*
X-7037825Y31524344D01*
X-7032544Y31491400D01*
X-7027791Y31443870D01*
X-7023609Y31382318D01*
X-7020042Y31307304D01*
X-7018818Y31274285D01*
X-7014973Y31167351D01*
X-7011128Y31074091D01*
X-7007003Y30993026D01*
X-7002316Y30922676D01*
X-6996784Y30861563D01*
X-6990128Y30808208D01*
X-6982065Y30761131D01*
X-6972314Y30718855D01*
X-6960593Y30679899D01*
X-6946622Y30642785D01*
X-6930118Y30606035D01*
X-6910801Y30568168D01*
X-6888389Y30527707D01*
X-6871020Y30497584D01*
X-6851814Y30464488D01*
X-6833142Y30432111D01*
X-6817812Y30405328D01*
X-6811954Y30394985D01*
X-6799235Y30376067D01*
X-6778743Y30349712D01*
X-6753268Y30319354D01*
X-6725595Y30288428D01*
X-6724524Y30287272D01*
X-6687335Y30245314D01*
X-6660859Y30210340D01*
X-6643895Y30179971D01*
X-6635243Y30151823D01*
X-6633700Y30123517D01*
X-6635040Y30109847D01*
X-6647496Y30059807D01*
X-6671416Y30013065D01*
X-6708227Y29967124D01*
X-6727622Y29947707D01*
X-6755673Y29921055D01*
X-6789728Y29888685D01*
X-6824811Y29855325D01*
X-6847184Y29834044D01*
X-6890708Y29790454D01*
X-6931790Y29744364D01*
X-6972917Y29692707D01*
X-7016578Y29632419D01*
X-7046741Y29588276D01*
X-7096475Y29521765D01*
X-7146814Y29469890D01*
X-7198485Y29432129D01*
X-7252213Y29407965D01*
X-7308723Y29396876D01*
X-7314500Y29396470D01*
X-7348737Y29396263D01*
X-7387655Y29399762D01*
X-7433114Y29407335D01*
X-7486975Y29419354D01*
X-7551100Y29436187D01*
X-7627348Y29458207D01*
X-7632135Y29459637D01*
X-7706732Y29481500D01*
X-7769391Y29498699D01*
X-7822447Y29511667D01*
X-7868235Y29520835D01*
X-7909089Y29526636D01*
X-7947345Y29529503D01*
X-7985337Y29529866D01*
X-8007578Y29529128D01*
X-8041437Y29527180D01*
X-8072544Y29524297D01*
X-8103382Y29519949D01*
X-8136437Y29513607D01*
X-8174192Y29504741D01*
X-8219132Y29492822D01*
X-8273741Y29477322D01*
X-8334717Y29459424D01*
X-8414779Y29436423D01*
X-8482434Y29418707D01*
X-8539391Y29406042D01*
X-8587357Y29398198D01*
X-8628042Y29394942D01*
X-8663153Y29396043D01*
X-8694400Y29401269D01*
X-8716081Y29407670D01*
X-8759598Y29427725D01*
X-8804158Y29456427D01*
X-8843212Y29489305D01*
X-8856867Y29503827D01*
X-8871866Y29522690D01*
X-8892412Y29550388D01*
X-8915725Y29583093D01*
X-8937551Y29614798D01*
X-8977883Y29672945D01*
X-9014764Y29722137D01*
X-9051484Y29766149D01*
X-9091333Y29808753D01*
X-9137600Y29853724D01*
X-9178885Y29891628D01*
X-9225680Y29935051D01*
X-9261670Y29971635D01*
X-9288269Y30003503D01*
X-9306894Y30032777D01*
X-9318962Y30061579D01*
X-9325888Y30092031D01*
X-9328456Y30115746D01*
X-9328663Y30143445D01*
X-9324137Y30168953D01*
X-9313586Y30194712D01*
X-9295714Y30223166D01*
X-9269229Y30256759D01*
X-9232837Y30297934D01*
X-9230843Y30300117D01*
X-9203134Y30331665D01*
X-9177591Y30363006D01*
X-9156930Y30390662D01*
X-9143867Y30411154D01*
X-9143260Y30412323D01*
X-9129319Y30438376D01*
X-9111361Y30470008D01*
X-9094848Y30497765D01*
X-9058982Y30560064D01*
X-9028710Y30620106D01*
X-9006080Y30673771D01*
X-9002711Y30683200D01*
X-8991642Y30721733D01*
X-8981891Y30769678D01*
X-8973381Y30827882D01*
X-8966030Y30897190D01*
X-8959761Y30978449D01*
X-8954492Y31072506D01*
X-8950146Y31180206D01*
X-8949982Y31185700D01*
X-8491636Y31185700D01*
X-8485496Y31138839D01*
X-8467423Y31094855D01*
X-8437434Y31056785D01*
X-8436963Y31056340D01*
X-8398453Y31029749D01*
X-8353080Y31013836D01*
X-8305111Y31009328D01*
X-8258810Y31016952D01*
X-8242483Y31023207D01*
X-8210978Y31043322D01*
X-8181147Y31072215D01*
X-8157708Y31104747D01*
X-8147843Y31126281D01*
X-8143194Y31149885D01*
X-8141435Y31176312D01*
X-7826562Y31176312D01*
X-7822011Y31145811D01*
X-7803212Y31097361D01*
X-7772472Y31058162D01*
X-7730204Y31028739D01*
X-7729797Y31028532D01*
X-7703931Y31016877D01*
X-7681240Y31011204D01*
X-7654358Y31010075D01*
X-7638499Y31010688D01*
X-7606614Y31013677D01*
X-7583196Y31020027D01*
X-7561617Y31031758D01*
X-7555357Y31036032D01*
X-7516244Y31070021D01*
X-7490722Y31108397D01*
X-7477355Y31153579D01*
X-7475332Y31170823D01*
X-7473925Y31201003D01*
X-7476449Y31223702D01*
X-7484259Y31246376D01*
X-7492115Y31263210D01*
X-7520702Y31306237D01*
X-7558635Y31337344D01*
X-7606173Y31356740D01*
X-7610101Y31357720D01*
X-7658919Y31362378D01*
X-7704853Y31353765D01*
X-7746054Y31333728D01*
X-7780673Y31304116D01*
X-7806863Y31266777D01*
X-7822775Y31223560D01*
X-7826562Y31176312D01*
X-8141435Y31176312D01*
X-8141137Y31180788D01*
X-8141594Y31202891D01*
X-8150932Y31250944D01*
X-8172826Y31291464D01*
X-8208079Y31325734D01*
X-8226292Y31338097D01*
X-8250123Y31351145D01*
X-8272136Y31358024D01*
X-8299369Y31360572D01*
X-8313199Y31360789D01*
X-8358832Y31356983D01*
X-8396513Y31343817D01*
X-8431552Y31319272D01*
X-8438299Y31313202D01*
X-8468053Y31275916D01*
X-8485827Y31232404D01*
X-8491636Y31185700D01*
X-8949982Y31185700D01*
X-8947403Y31271970D01*
X-8945562Y31324700D01*
X-8942911Y31376788D01*
X-8939691Y31424702D01*
X-8936141Y31464908D01*
X-8932503Y31493876D01*
X-8932114Y31496192D01*
X-8904810Y31609790D01*
X-8864011Y31717929D01*
X-8810702Y31819627D01*
X-8745868Y31913900D01*
X-8670494Y31999764D01*
X-8585563Y32076237D01*
X-8492062Y32142336D01*
X-8390973Y32197077D01*
X-8283283Y32239477D01*
X-8169975Y32268553D01*
X-8156025Y32271104D01*
X-8106473Y32277342D01*
X-8046991Y32281037D01*
X-7982589Y32282191D01*
X-7918274Y32280809D01*
G37*
D13*
%TO.C,C2*%
X11640000Y42384165D02*
X11640000Y42615835D01*
X12360000Y42384165D02*
X12360000Y42615835D01*
%TD*%
%LPC*%
D14*
%TO.C,C1*%
X9500000Y40000000D03*
X9500000Y38865000D03*
%TD*%
D15*
%TO.C,J2*%
X18500000Y42817500D03*
D16*
X18500000Y40277500D03*
X18500000Y37737500D03*
X18500000Y35197500D03*
%TD*%
D15*
%TO.C,J3*%
X-8000000Y42817500D03*
D16*
X-8000000Y40277500D03*
X-8000000Y37737500D03*
X-8000000Y35197500D03*
%TD*%
D15*
%TO.C,J1*%
X14500000Y42817500D03*
D16*
X14500000Y40277500D03*
X14500000Y37737500D03*
X14500000Y35197500D03*
%TD*%
D17*
%TO.C,*%
X2150000Y44700000D03*
%TD*%
D18*
%TO.C,U1*%
X3350000Y39975000D03*
X3350000Y39325000D03*
X3350000Y38675000D03*
X3350000Y38025000D03*
X7650000Y38025000D03*
X7650000Y38675000D03*
X7650000Y39325000D03*
X7650000Y39975000D03*
%TD*%
D15*
%TO.C,J4*%
X-4000000Y42817500D03*
D16*
X-4000000Y40277500D03*
X-4000000Y37737500D03*
X-4000000Y35197500D03*
%TD*%
D14*
%TO.C,C3*%
X-1500000Y32567500D03*
X-1500000Y31432500D03*
%TD*%
D17*
%TO.C,*%
X8500000Y32000000D03*
%TD*%
D19*
%TO.C,C2*%
X12000000Y41932500D03*
X12000000Y43067500D03*
%TD*%
D20*
%TO.C,J5*%
X100000Y33500000D03*
X4200000Y33500000D03*
%TD*%
%TO.C,J6*%
X10550000Y43200000D03*
X6450000Y43200000D03*
%TD*%
%LPD*%
M02*
