M48
; DRILL file {KiCad 9.0.7} date 2026-03-31T16:11:29-0500
; FORMAT={-:-/ absolute / inch / decimal}
; #@! TF.CreationDate,2026-03-31T16:11:29-05:00
; #@! TF.GenerationSoftware,Kicad,Pcbnew,9.0.7
; #@! TF.FileFunction,Plated,1,2,PTH
FMAT,2
INCH
; #@! TA.AperFunction,Plated,PTH,ViaDrill
T1C0.0118
; #@! TA.AperFunction,Plated,PTH,ComponentDrill
T2C0.0394
; #@! TA.AperFunction,Plated,PTH,ComponentDrill
T3C0.1250
%
G90
G05
T1
X-0.0676Y1.4192
X-0.0076Y1.4992
X0.0787Y1.4567
X0.1063Y1.382
X0.1299Y1.2598
X0.1378Y1.4567
X0.185Y1.2835
X0.2124Y1.3992
X0.2402Y1.6592
X0.3031Y1.6299
X0.312Y1.437
X0.3346Y1.6299
X0.374Y1.4173
X0.3819Y1.4724
X0.4524Y1.5192
X0.4724Y1.3583
T2
X-0.315Y1.6857
X-0.315Y1.5857
X-0.315Y1.4857
X-0.315Y1.3857
X-0.1575Y1.6857
X-0.1575Y1.5857
X-0.1575Y1.4857
X-0.1575Y1.3857
X0.5709Y1.6857
X0.5709Y1.5857
X0.5709Y1.4857
X0.5709Y1.3857
X0.7283Y1.6857
X0.7283Y1.5857
X0.7283Y1.4857
X0.7283Y1.3857
T3
X0.0846Y1.7598
X0.3346Y1.2598
M30
