%TF.GenerationSoftware,KiCad,Pcbnew,9.0.7*%
%TF.CreationDate,2026-03-31T16:11:29-05:00*%
%TF.ProjectId,solenoid_breakoutboard,736f6c65-6e6f-4696-945f-627265616b6f,rev?*%
%TF.SameCoordinates,Original*%
%TF.FileFunction,Soldermask,Bot*%
%TF.FilePolarity,Negative*%
%FSLAX46Y46*%
G04 Gerber Fmt 4.6, Leading zero omitted, Abs format (unit mm)*
G04 Created by KiCad (PCBNEW 9.0.7) date 2026-03-31 16:11:29*
%MOMM*%
%LPD*%
G01*
G04 APERTURE LIST*
%ADD10R,1.700000X1.700000*%
%ADD11C,1.700000*%
%ADD12C,4.000000*%
%ADD13C,0.600000*%
%ADD14R,0.300000X1.600000*%
G04 APERTURE END LIST*
D10*
%TO.C,J2*%
X18500000Y42817500D03*
D11*
X18500000Y40277500D03*
X18500000Y37737500D03*
X18500000Y35197500D03*
%TD*%
D10*
%TO.C,J3*%
X-8000000Y42817500D03*
D11*
X-8000000Y40277500D03*
X-8000000Y37737500D03*
X-8000000Y35197500D03*
%TD*%
D10*
%TO.C,J1*%
X14500000Y42817500D03*
D11*
X14500000Y40277500D03*
X14500000Y37737500D03*
X14500000Y35197500D03*
%TD*%
D12*
%TO.C,*%
X2150000Y44700000D03*
%TD*%
D10*
%TO.C,J4*%
X-4000000Y42817500D03*
D11*
X-4000000Y40277500D03*
X-4000000Y37737500D03*
X-4000000Y35197500D03*
%TD*%
D12*
%TO.C,*%
X8500000Y32000000D03*
%TD*%
D13*
%TO.C,J5*%
X100000Y33500000D03*
X4200000Y33500000D03*
D14*
X1150000Y30200000D03*
X1650000Y30200000D03*
X2150000Y30200000D03*
X2650000Y30200000D03*
X3150000Y30200000D03*
X1150000Y33800000D03*
X1650000Y33800000D03*
X2150000Y33800000D03*
X2650000Y33800000D03*
X3150000Y33800000D03*
%TD*%
D13*
%TO.C,J6*%
X10550000Y43200000D03*
X6450000Y43200000D03*
D14*
X9500000Y46500000D03*
X9000000Y46500000D03*
X8500000Y46500000D03*
X8000000Y46500000D03*
X7500000Y46500000D03*
X9500000Y42900000D03*
X9000000Y42900000D03*
X8500000Y42900000D03*
X8000000Y42900000D03*
X7500000Y42900000D03*
%TD*%
M02*
