%TF.GenerationSoftware,KiCad,Pcbnew,9.0.7*%
%TF.CreationDate,2026-03-31T16:11:29-05:00*%
%TF.ProjectId,solenoid_breakoutboard,736f6c65-6e6f-4696-945f-627265616b6f,rev?*%
%TF.SameCoordinates,Original*%
%TF.FileFunction,Copper,L1,Top*%
%TF.FilePolarity,Positive*%
%FSLAX46Y46*%
G04 Gerber Fmt 4.6, Leading zero omitted, Abs format (unit mm)*
G04 Created by KiCad (PCBNEW 9.0.7) date 2026-03-31 16:11:29*
%MOMM*%
%LPD*%
G01*
G04 APERTURE LIST*
G04 Aperture macros list*
%AMRoundRect*
0 Rectangle with rounded corners*
0 $1 Rounding radius*
0 $2 $3 $4 $5 $6 $7 $8 $9 X,Y pos of 4 corners*
0 Add a 4 corners polygon primitive as box body*
4,1,4,$2,$3,$4,$5,$6,$7,$8,$9,$2,$3,0*
0 Add four circle primitives for the rounded corners*
1,1,$1+$1,$2,$3*
1,1,$1+$1,$4,$5*
1,1,$1+$1,$6,$7*
1,1,$1+$1,$8,$9*
0 Add four rect primitives between the rounded corners*
20,1,$1+$1,$2,$3,$4,$5,0*
20,1,$1+$1,$4,$5,$6,$7,0*
20,1,$1+$1,$6,$7,$8,$9,0*
20,1,$1+$1,$8,$9,$2,$3,0*%
G04 Aperture macros list end*
%TA.AperFunction,SMDPad,CuDef*%
%ADD10RoundRect,0.155000X-0.155000X0.212500X-0.155000X-0.212500X0.155000X-0.212500X0.155000X0.212500X0*%
%TD*%
%TA.AperFunction,ComponentPad*%
%ADD11R,1.700000X1.700000*%
%TD*%
%TA.AperFunction,ComponentPad*%
%ADD12C,1.700000*%
%TD*%
%TA.AperFunction,ComponentPad*%
%ADD13C,4.000000*%
%TD*%
%TA.AperFunction,SMDPad,CuDef*%
%ADD14R,1.100000X0.400000*%
%TD*%
%TA.AperFunction,SMDPad,CuDef*%
%ADD15RoundRect,0.155000X0.155000X-0.212500X0.155000X0.212500X-0.155000X0.212500X-0.155000X-0.212500X0*%
%TD*%
%TA.AperFunction,ViaPad*%
%ADD16C,0.600000*%
%TD*%
%TA.AperFunction,Conductor*%
%ADD17C,0.250000*%
%TD*%
%TA.AperFunction,Conductor*%
%ADD18C,0.200000*%
%TD*%
%TA.AperFunction,Conductor*%
%ADD19C,0.150000*%
%TD*%
G04 APERTURE END LIST*
D10*
%TO.P,C1,1*%
%TO.N,+3.3V*%
X9500000Y40000000D03*
%TO.P,C1,2*%
%TO.N,GND*%
X9500000Y38865000D03*
%TD*%
D11*
%TO.P,J2,1,Pin_1*%
%TO.N,+3.3V*%
X18500000Y42817500D03*
D12*
%TO.P,J2,2,Pin_2*%
%TO.N,Net-(J2-Pin_2)*%
X18500000Y40277500D03*
%TO.P,J2,3,Pin_3*%
%TO.N,+5V*%
X18500000Y37737500D03*
%TO.P,J2,4,Pin_4*%
%TO.N,GND*%
X18500000Y35197500D03*
%TD*%
D11*
%TO.P,J3,1,Pin_1*%
%TO.N,+3.3V*%
X-8000000Y42817500D03*
D12*
%TO.P,J3,2,Pin_2*%
%TO.N,Net-(J3-Pin_2)*%
X-8000000Y40277500D03*
%TO.P,J3,3,Pin_3*%
%TO.N,+5V*%
X-8000000Y37737500D03*
%TO.P,J3,4,Pin_4*%
%TO.N,GND*%
X-8000000Y35197500D03*
%TD*%
D11*
%TO.P,J1,1,Pin_1*%
%TO.N,+3.3V*%
X14500000Y42817500D03*
D12*
%TO.P,J1,2,Pin_2*%
%TO.N,Net-(J1-Pin_2)*%
X14500000Y40277500D03*
%TO.P,J1,3,Pin_3*%
%TO.N,+5V*%
X14500000Y37737500D03*
%TO.P,J1,4,Pin_4*%
%TO.N,GND*%
X14500000Y35197500D03*
%TD*%
D13*
%TO.P,,*%
%TO.N,*%
X2150000Y44700000D03*
%TD*%
D14*
%TO.P,U1,1,IO0*%
%TO.N,Net-(J3-Pin_2)*%
X3350000Y39975000D03*
%TO.P,U1,2,IO1*%
%TO.N,Net-(J4-Pin_2)*%
X3350000Y39325000D03*
%TO.P,U1,3,IO2*%
%TO.N,Net-(J2-Pin_2)*%
X3350000Y38675000D03*
%TO.P,U1,4,VSS*%
%TO.N,GND*%
X3350000Y38025000D03*
%TO.P,U1,5,IO3*%
%TO.N,Net-(J1-Pin_2)*%
X7650000Y38025000D03*
%TO.P,U1,6,SCL*%
%TO.N,/scl*%
X7650000Y38675000D03*
%TO.P,U1,7,SDA*%
%TO.N,/sda*%
X7650000Y39325000D03*
%TO.P,U1,8,VDD*%
%TO.N,+3.3V*%
X7650000Y39975000D03*
%TD*%
D11*
%TO.P,J4,1,Pin_1*%
%TO.N,+3.3V*%
X-4000000Y42817500D03*
D12*
%TO.P,J4,2,Pin_2*%
%TO.N,Net-(J4-Pin_2)*%
X-4000000Y40277500D03*
%TO.P,J4,3,Pin_3*%
%TO.N,+5V*%
X-4000000Y37737500D03*
%TO.P,J4,4,Pin_4*%
%TO.N,GND*%
X-4000000Y35197500D03*
%TD*%
D10*
%TO.P,C3,1*%
%TO.N,+3.3V*%
X-1500000Y32567500D03*
%TO.P,C3,2*%
%TO.N,GND*%
X-1500000Y31432500D03*
%TD*%
D13*
%TO.P,,*%
%TO.N,*%
X8500000Y32000000D03*
%TD*%
D15*
%TO.P,C2,1*%
%TO.N,+3.3V*%
X12000000Y41932500D03*
%TO.P,C2,2*%
%TO.N,GND*%
X12000000Y43067500D03*
%TD*%
D16*
%TO.N,+5V*%
X-192000Y38080000D03*
%TO.N,GND*%
X4700000Y32600000D03*
X3500000Y37000000D03*
X5396000Y35540000D03*
X6100000Y42144000D03*
X9700000Y37400000D03*
%TO.N,+3.3V*%
X-1716000Y36048000D03*
X11492000Y38588000D03*
%TO.N,Net-(J1-Pin_2)*%
X7925000Y36500000D03*
X9500000Y36000000D03*
%TO.N,Net-(J2-Pin_2)*%
X2000000Y37000000D03*
X12000000Y34500000D03*
%TO.N,/scl*%
X2700000Y35103157D03*
X7700000Y41400000D03*
%TO.N,/sda*%
X8500000Y41400000D03*
X3300000Y32000000D03*
%TD*%
D17*
%TO.N,+5V*%
X-8000000Y37737500D02*
X-4000000Y37737500D01*
X-4000000Y37737500D02*
X-534500Y37737500D01*
X18500000Y37737500D02*
X14500000Y37737500D01*
X-534500Y37737500D02*
X-192000Y38080000D01*
D18*
%TO.N,GND*%
X3500000Y37000000D02*
X3500000Y37875000D01*
X3500000Y37875000D02*
X3350000Y38025000D01*
D17*
%TO.N,+3.3V*%
X14500000Y42817500D02*
X18500000Y42817500D01*
X-1500000Y34143992D02*
X-1716000Y34359992D01*
X11492000Y39604000D02*
X10984000Y39604000D01*
D18*
X9500000Y40000000D02*
X7675000Y40000000D01*
D17*
X-8000000Y42817500D02*
X-4000000Y42817500D01*
D18*
X7675000Y40000000D02*
X7650000Y39975000D01*
X12000000Y41932500D02*
X12000000Y40112000D01*
D17*
X10984000Y39604000D02*
X10588000Y40000000D01*
X14500000Y42612000D02*
X12000000Y40112000D01*
X12000000Y40112000D02*
X11492000Y39604000D01*
X10588000Y40000000D02*
X9500000Y40000000D01*
X10984000Y39604000D02*
X11492000Y39096000D01*
X-1500000Y32567500D02*
X-1500000Y34143992D01*
X-1716000Y34359992D02*
X-1716000Y36048000D01*
X11492000Y39096000D02*
X11492000Y38588000D01*
D18*
X9475000Y39975000D02*
X9500000Y40000000D01*
D17*
X14500000Y42817500D02*
X14500000Y42612000D01*
D19*
%TO.N,Net-(J1-Pin_2)*%
X7650000Y36775000D02*
X7650000Y38025000D01*
X10222500Y36000000D02*
X9500000Y36000000D01*
X7925000Y36500000D02*
X7650000Y36775000D01*
X14500000Y40277500D02*
X10222500Y36000000D01*
%TO.N,Net-(J2-Pin_2)*%
X2650000Y38675000D02*
X3350000Y38675000D01*
X2000000Y38025000D02*
X2650000Y38675000D01*
X20000000Y38777500D02*
X18500000Y40277500D01*
X19000000Y33000000D02*
X20000000Y34000000D01*
X12000000Y34500000D02*
X13500000Y33000000D01*
X20000000Y34000000D02*
X20000000Y38777500D01*
X13500000Y33000000D02*
X19000000Y33000000D01*
X2000000Y37000000D02*
X2000000Y38025000D01*
%TO.N,Net-(J3-Pin_2)*%
X1633500Y41691500D02*
X3350000Y39975000D01*
X-8000000Y40277500D02*
X-6586000Y41691500D01*
X-6586000Y41691500D02*
X1633500Y41691500D01*
%TO.N,Net-(J4-Pin_2)*%
X-4000000Y40277500D02*
X-3047500Y39325000D01*
X-3047500Y39325000D02*
X3350000Y39325000D01*
%TO.N,/scl*%
X7102000Y41000000D02*
X7300000Y41000000D01*
X6000000Y41000000D02*
X7102000Y41000000D01*
X5000000Y38500000D02*
X5500000Y39000000D01*
X5500000Y40500000D02*
X6000000Y41000000D01*
X7300000Y41000000D02*
X7700000Y41400000D01*
X5500000Y39000000D02*
X5500000Y39500000D01*
X2700000Y35200000D02*
X5000000Y37500000D01*
X5000000Y37500000D02*
X5000000Y38500000D01*
X6325000Y38675000D02*
X5500000Y39500000D01*
X5500000Y39500000D02*
X5500000Y40500000D01*
X7650000Y38675000D02*
X6325000Y38675000D01*
X2700000Y35103157D02*
X2700000Y35200000D01*
%TO.N,/sda*%
X6375000Y39325000D02*
X6100000Y39600000D01*
X8800000Y35800000D02*
X5000000Y32000000D01*
X8350000Y39325000D02*
X8800000Y38875000D01*
X7614588Y40500000D02*
X8500000Y41385412D01*
X6500000Y40500000D02*
X7614588Y40500000D01*
X7650000Y39325000D02*
X8350000Y39325000D01*
X8500000Y41385412D02*
X8500000Y41400000D01*
X6100000Y39600000D02*
X6100000Y40100000D01*
X8800000Y38875000D02*
X8800000Y35800000D01*
X7650000Y39325000D02*
X6375000Y39325000D01*
X5000000Y32000000D02*
X3300000Y32000000D01*
X6100000Y40100000D02*
X6500000Y40500000D01*
%TD*%
%TA.AperFunction,Conductor*%
%TO.N,GND*%
G36*
X20006061Y48048903D02*
G01*
X20124317Y48037256D01*
X20148145Y48032517D01*
X20256005Y47999798D01*
X20278453Y47990499D01*
X20377849Y47937371D01*
X20398059Y47923867D01*
X20485179Y47852370D01*
X20502369Y47835180D01*
X20573866Y47748060D01*
X20587370Y47727850D01*
X20640495Y47628462D01*
X20649798Y47606003D01*
X20682514Y47498152D01*
X20687256Y47474312D01*
X20698903Y47356063D01*
X20699500Y47343908D01*
X20699500Y39179705D01*
X20679815Y39112666D01*
X20627011Y39066911D01*
X20557853Y39056967D01*
X20494297Y39085992D01*
X20468113Y39117705D01*
X20465372Y39122452D01*
X20460515Y39130865D01*
X20353365Y39238015D01*
X19825087Y39766293D01*
X19791602Y39827616D01*
X19794836Y39892290D01*
X19817246Y39961257D01*
X19850500Y40171213D01*
X19850500Y40383787D01*
X19817246Y40593743D01*
X19751557Y40795912D01*
X19655051Y40985316D01*
X19655049Y40985319D01*
X19655048Y40985321D01*
X19530109Y41157287D01*
X19416569Y41270827D01*
X19383084Y41332150D01*
X19388068Y41401842D01*
X19429940Y41457775D01*
X19460915Y41474690D01*
X19592331Y41523704D01*
X19707546Y41609954D01*
X19793796Y41725169D01*
X19844091Y41860017D01*
X19850500Y41919627D01*
X19850499Y43715372D01*
X19844091Y43774983D01*
X19793796Y43909831D01*
X19793795Y43909832D01*
X19793793Y43909836D01*
X19707547Y44025045D01*
X19707544Y44025048D01*
X19592335Y44111294D01*
X19592328Y44111298D01*
X19457482Y44161592D01*
X19457483Y44161592D01*
X19397883Y44167999D01*
X19397881Y44168000D01*
X19397873Y44168000D01*
X19397864Y44168000D01*
X17602129Y44168000D01*
X17602123Y44167999D01*
X17542516Y44161592D01*
X17407671Y44111298D01*
X17407664Y44111294D01*
X17292455Y44025048D01*
X17292452Y44025045D01*
X17206206Y43909836D01*
X17206202Y43909829D01*
X17155908Y43774983D01*
X17149501Y43715384D01*
X17149501Y43715377D01*
X17149500Y43715365D01*
X17149500Y43567000D01*
X17129815Y43499961D01*
X17077011Y43454206D01*
X17025500Y43443000D01*
X15974499Y43443000D01*
X15907460Y43462685D01*
X15861705Y43515489D01*
X15850499Y43567000D01*
X15850499Y43715371D01*
X15850498Y43715377D01*
X15850497Y43715384D01*
X15844091Y43774983D01*
X15793796Y43909831D01*
X15793795Y43909832D01*
X15793793Y43909836D01*
X15707547Y44025045D01*
X15707544Y44025048D01*
X15592335Y44111294D01*
X15592328Y44111298D01*
X15457482Y44161592D01*
X15457483Y44161592D01*
X15397883Y44167999D01*
X15397881Y44168000D01*
X15397873Y44168000D01*
X15397864Y44168000D01*
X13602129Y44168000D01*
X13602123Y44167999D01*
X13542516Y44161592D01*
X13407671Y44111298D01*
X13407664Y44111294D01*
X13292455Y44025048D01*
X13292452Y44025045D01*
X13206206Y43909836D01*
X13206202Y43909829D01*
X13155908Y43774983D01*
X13149501Y43715384D01*
X13149501Y43715377D01*
X13149500Y43715365D01*
X13149500Y42197453D01*
X13140855Y42168013D01*
X13134332Y42138026D01*
X13130577Y42133011D01*
X13129815Y42130414D01*
X13113181Y42109772D01*
X13022180Y42018771D01*
X12960857Y41985286D01*
X12891165Y41990270D01*
X12835232Y42032142D01*
X12810815Y42097606D01*
X12810499Y42106452D01*
X12810499Y42211191D01*
X12810498Y42211216D01*
X12807576Y42248355D01*
X12807576Y42248358D01*
X12761370Y42407400D01*
X12743644Y42437373D01*
X12726462Y42505095D01*
X12743646Y42563614D01*
X12760905Y42592798D01*
X12760908Y42592806D01*
X12807077Y42751717D01*
X12807078Y42751723D01*
X12809999Y42788843D01*
X12810000Y42788858D01*
X12810000Y42817500D01*
X12124000Y42817500D01*
X12056961Y42837185D01*
X12011206Y42889989D01*
X12000000Y42941500D01*
X12000000Y43067500D01*
X11874000Y43067500D01*
X11806961Y43087185D01*
X11761206Y43139989D01*
X11750000Y43191500D01*
X11750000Y43317500D01*
X12250000Y43317500D01*
X12810000Y43317500D01*
X12810000Y43346143D01*
X12809999Y43346158D01*
X12807078Y43383278D01*
X12807077Y43383284D01*
X12760908Y43542195D01*
X12760907Y43542198D01*
X12676666Y43684643D01*
X12676660Y43684651D01*
X12559650Y43801661D01*
X12559642Y43801667D01*
X12417197Y43885908D01*
X12417194Y43885910D01*
X12258280Y43932079D01*
X12258281Y43932079D01*
X12250000Y43932731D01*
X12250000Y43317500D01*
X11750000Y43317500D01*
X11750000Y43932731D01*
X11741718Y43932079D01*
X11582805Y43885910D01*
X11582802Y43885908D01*
X11440357Y43801667D01*
X11440349Y43801661D01*
X11323339Y43684651D01*
X11323333Y43684643D01*
X11239092Y43542198D01*
X11239091Y43542196D01*
X11236174Y43532155D01*
X11198565Y43473271D01*
X11135092Y43444067D01*
X11065905Y43453816D01*
X11012973Y43499422D01*
X11009712Y43504754D01*
X11003514Y43515489D01*
X10990509Y43538015D01*
X10888015Y43640509D01*
X10888013Y43640510D01*
X10888011Y43640512D01*
X10762488Y43712983D01*
X10762489Y43712983D01*
X10751006Y43716060D01*
X10622475Y43750500D01*
X10477525Y43750500D01*
X10348993Y43716060D01*
X10337511Y43712983D01*
X10211988Y43640512D01*
X10211982Y43640507D01*
X10109493Y43538018D01*
X10109488Y43538012D01*
X10037017Y43412489D01*
X10037016Y43412485D01*
X9999500Y43272475D01*
X9999500Y43127525D01*
X10037016Y42987515D01*
X10037017Y42987512D01*
X10109488Y42861989D01*
X10109490Y42861987D01*
X10109491Y42861985D01*
X10211985Y42759491D01*
X10211986Y42759490D01*
X10211988Y42759489D01*
X10337511Y42687018D01*
X10337512Y42687018D01*
X10337515Y42687016D01*
X10477525Y42649500D01*
X10477528Y42649500D01*
X10622472Y42649500D01*
X10622475Y42649500D01*
X10762485Y42687016D01*
X10888015Y42759491D01*
X10979916Y42851393D01*
X11041235Y42884875D01*
X11110927Y42879891D01*
X11166861Y42838020D01*
X11191211Y42773441D01*
X11192920Y42751732D01*
X11192922Y42751717D01*
X11239091Y42592806D01*
X11239093Y42592801D01*
X11256355Y42563611D01*
X11273536Y42495887D01*
X11256355Y42437373D01*
X11238631Y42407404D01*
X11238628Y42407396D01*
X11192424Y42248363D01*
X11192423Y42248357D01*
X11189500Y42211211D01*
X11189500Y41653810D01*
X11189501Y41653785D01*
X11192423Y41616646D01*
X11192423Y41616643D01*
X11192424Y41616642D01*
X11204354Y41575579D01*
X11238630Y41457600D01*
X11322934Y41315050D01*
X11322941Y41315041D01*
X11363180Y41274803D01*
X11396666Y41213480D01*
X11399500Y41187121D01*
X11399500Y40447453D01*
X11390854Y40418009D01*
X11384331Y40388025D01*
X11380577Y40383012D01*
X11379815Y40380414D01*
X11363180Y40359771D01*
X11325680Y40322272D01*
X11264356Y40288787D01*
X11194665Y40293773D01*
X11150319Y40322272D01*
X11073859Y40398731D01*
X11073858Y40398733D01*
X10986733Y40485858D01*
X10986732Y40485859D01*
X10986730Y40485861D01*
X10986728Y40485862D01*
X10913772Y40534610D01*
X10913768Y40534612D01*
X10906475Y40539485D01*
X10884286Y40554312D01*
X10803792Y40587653D01*
X10789090Y40593743D01*
X10770453Y40601463D01*
X10760427Y40603457D01*
X10710029Y40613482D01*
X10649610Y40625500D01*
X10649607Y40625500D01*
X10649606Y40625500D01*
X10220379Y40625500D01*
X10153340Y40645185D01*
X10132702Y40661815D01*
X10059954Y40734563D01*
X10059953Y40734564D01*
X10059950Y40734566D01*
X9917398Y40818871D01*
X9917395Y40818872D01*
X9758362Y40865076D01*
X9758356Y40865077D01*
X9721210Y40868000D01*
X9331672Y40868000D01*
X9264633Y40887685D01*
X9218878Y40940489D01*
X9208934Y41009647D01*
X9217109Y41039449D01*
X9269737Y41166503D01*
X9300500Y41321158D01*
X9300500Y41478842D01*
X9300500Y41478845D01*
X9300499Y41478847D01*
X9269737Y41633497D01*
X9262053Y41652048D01*
X9209397Y41779173D01*
X9209390Y41779186D01*
X9121789Y41910289D01*
X9121786Y41910293D01*
X9010292Y42021787D01*
X9010288Y42021790D01*
X8879185Y42109391D01*
X8879172Y42109398D01*
X8733501Y42169736D01*
X8733489Y42169739D01*
X8578845Y42200500D01*
X8578842Y42200500D01*
X8421158Y42200500D01*
X8421155Y42200500D01*
X8266510Y42169739D01*
X8266498Y42169736D01*
X8147452Y42120426D01*
X8077982Y42112957D01*
X8052548Y42120426D01*
X7933501Y42169736D01*
X7933489Y42169739D01*
X7778845Y42200500D01*
X7778842Y42200500D01*
X7621158Y42200500D01*
X7621155Y42200500D01*
X7466510Y42169739D01*
X7466498Y42169736D01*
X7320827Y42109398D01*
X7320814Y42109391D01*
X7189711Y42021790D01*
X7189707Y42021787D01*
X7078213Y41910293D01*
X7078210Y41910289D01*
X6990609Y41779186D01*
X6990602Y41779173D01*
X6937947Y41652048D01*
X6894107Y41597644D01*
X6827813Y41575579D01*
X6823386Y41575500D01*
X5924234Y41575500D01*
X5777863Y41536281D01*
X5646635Y41460515D01*
X5646632Y41460513D01*
X5039487Y40853368D01*
X5039485Y40853365D01*
X4963719Y40722137D01*
X4924500Y40575766D01*
X4924500Y39289742D01*
X4904815Y39222703D01*
X4888181Y39202061D01*
X4539487Y38853368D01*
X4539485Y38853365D01*
X4463718Y38722135D01*
X4463718Y38722134D01*
X4445397Y38653760D01*
X4428692Y38626355D01*
X4413303Y38598172D01*
X4410621Y38596708D01*
X4409032Y38594100D01*
X4380161Y38580076D01*
X4351979Y38564688D01*
X4348931Y38564907D01*
X4346185Y38563572D01*
X4314313Y38567383D01*
X4282288Y38569674D01*
X4278682Y38571644D01*
X4276809Y38571867D01*
X4251311Y38586589D01*
X4150188Y38662291D01*
X4108318Y38718225D01*
X4100500Y38761557D01*
X4100500Y38894751D01*
X4100499Y38894753D01*
X4086485Y38965210D01*
X4087762Y38965465D01*
X4081680Y39022009D01*
X4088694Y39045900D01*
X4089448Y39049689D01*
X4100500Y39105252D01*
X4100500Y39544748D01*
X4100500Y39544751D01*
X4100499Y39544753D01*
X4086485Y39615210D01*
X4087762Y39615465D01*
X4081680Y39672009D01*
X4088694Y39695900D01*
X4100499Y39755248D01*
X4100500Y39755250D01*
X4100500Y40194751D01*
X4100499Y40194753D01*
X4088868Y40253230D01*
X4088867Y40253231D01*
X4044552Y40319553D01*
X3978230Y40363868D01*
X3978229Y40363869D01*
X3919752Y40375500D01*
X3919748Y40375500D01*
X3814742Y40375500D01*
X3747703Y40395185D01*
X3727061Y40411819D01*
X2151061Y41987819D01*
X2117576Y42049142D01*
X2122560Y42118834D01*
X2164432Y42174767D01*
X2229896Y42199184D01*
X2238742Y42199500D01*
X2290428Y42199500D01*
X2290429Y42199501D01*
X2433055Y42215571D01*
X2569494Y42230943D01*
X2569499Y42230944D01*
X2569509Y42230945D01*
X2843318Y42293440D01*
X3108408Y42386199D01*
X3361445Y42508055D01*
X3599248Y42657477D01*
X3818825Y42832584D01*
X4017416Y43031175D01*
X4192523Y43250752D01*
X4206173Y43272475D01*
X5899500Y43272475D01*
X5899500Y43127525D01*
X5937016Y42987515D01*
X5937017Y42987512D01*
X6009488Y42861989D01*
X6009490Y42861987D01*
X6009491Y42861985D01*
X6111985Y42759491D01*
X6111986Y42759490D01*
X6111988Y42759489D01*
X6237511Y42687018D01*
X6237512Y42687018D01*
X6237515Y42687016D01*
X6377525Y42649500D01*
X6377528Y42649500D01*
X6522472Y42649500D01*
X6522475Y42649500D01*
X6662485Y42687016D01*
X6788015Y42759491D01*
X6890509Y42861985D01*
X6962984Y42987515D01*
X7000500Y43127525D01*
X7000500Y43272475D01*
X6962984Y43412485D01*
X6939121Y43453816D01*
X6890511Y43538012D01*
X6890506Y43538018D01*
X6788017Y43640507D01*
X6788011Y43640512D01*
X6662488Y43712983D01*
X6662489Y43712983D01*
X6651006Y43716060D01*
X6522475Y43750500D01*
X6377525Y43750500D01*
X6248993Y43716060D01*
X6237511Y43712983D01*
X6111988Y43640512D01*
X6111982Y43640507D01*
X6009493Y43538018D01*
X6009488Y43538012D01*
X5937017Y43412489D01*
X5937016Y43412485D01*
X5899500Y43272475D01*
X4206173Y43272475D01*
X4341945Y43488555D01*
X4463801Y43741592D01*
X4556560Y44006682D01*
X4619055Y44280491D01*
X4650500Y44559575D01*
X4650500Y44840425D01*
X4619055Y45119509D01*
X4556560Y45393318D01*
X4463801Y45658408D01*
X4341945Y45911445D01*
X4192523Y46149248D01*
X4017416Y46368825D01*
X3818825Y46567416D01*
X3599248Y46742523D01*
X3361445Y46891945D01*
X3361442Y46891947D01*
X3108411Y47013800D01*
X2843329Y47106557D01*
X2843317Y47106561D01*
X2569512Y47169055D01*
X2569494Y47169058D01*
X2290431Y47200500D01*
X2290425Y47200500D01*
X2009575Y47200500D01*
X2009568Y47200500D01*
X1730505Y47169058D01*
X1730487Y47169055D01*
X1456682Y47106561D01*
X1456670Y47106557D01*
X1191588Y47013800D01*
X938557Y46891947D01*
X700753Y46742524D01*
X481175Y46567417D01*
X282583Y46368825D01*
X107476Y46149247D01*
X-41947Y45911443D01*
X-163800Y45658412D01*
X-256557Y45393330D01*
X-256561Y45393318D01*
X-319055Y45119513D01*
X-319058Y45119495D01*
X-350500Y44840432D01*
X-350500Y44559569D01*
X-319058Y44280506D01*
X-319055Y44280488D01*
X-256561Y44006683D01*
X-256557Y44006671D01*
X-163800Y43741589D01*
X-41947Y43488558D01*
X-41945Y43488555D01*
X107477Y43250752D01*
X282584Y43031175D01*
X481175Y42832584D01*
X700752Y42657477D01*
X938555Y42508055D01*
X949632Y42502721D01*
X1001492Y42455898D01*
X1019805Y42388472D01*
X998758Y42321847D01*
X945032Y42277179D01*
X895831Y42267000D01*
X-2525500Y42267000D01*
X-2592539Y42286685D01*
X-2638294Y42339489D01*
X-2649500Y42391000D01*
X-2649501Y43715371D01*
X-2649502Y43715377D01*
X-2649503Y43715384D01*
X-2655909Y43774983D01*
X-2706204Y43909831D01*
X-2706205Y43909832D01*
X-2706207Y43909836D01*
X-2792453Y44025045D01*
X-2792456Y44025048D01*
X-2907665Y44111294D01*
X-2907672Y44111298D01*
X-3042518Y44161592D01*
X-3042517Y44161592D01*
X-3102117Y44167999D01*
X-3102119Y44168000D01*
X-3102127Y44168000D01*
X-3102136Y44168000D01*
X-4897871Y44168000D01*
X-4897877Y44167999D01*
X-4957484Y44161592D01*
X-5092329Y44111298D01*
X-5092336Y44111294D01*
X-5207545Y44025048D01*
X-5207548Y44025045D01*
X-5293794Y43909836D01*
X-5293798Y43909829D01*
X-5344092Y43774983D01*
X-5350499Y43715384D01*
X-5350499Y43715377D01*
X-5350500Y43715365D01*
X-5350500Y43567000D01*
X-5370185Y43499961D01*
X-5422989Y43454206D01*
X-5474500Y43443000D01*
X-6525501Y43443000D01*
X-6592540Y43462685D01*
X-6638295Y43515489D01*
X-6649501Y43567000D01*
X-6649501Y43715371D01*
X-6649502Y43715377D01*
X-6649503Y43715384D01*
X-6655909Y43774983D01*
X-6706204Y43909831D01*
X-6706205Y43909832D01*
X-6706207Y43909836D01*
X-6792453Y44025045D01*
X-6792456Y44025048D01*
X-6907665Y44111294D01*
X-6907672Y44111298D01*
X-7042518Y44161592D01*
X-7042517Y44161592D01*
X-7102117Y44167999D01*
X-7102119Y44168000D01*
X-7102127Y44168000D01*
X-7102136Y44168000D01*
X-8897871Y44168000D01*
X-8897877Y44167999D01*
X-8957484Y44161592D01*
X-9092329Y44111298D01*
X-9092336Y44111294D01*
X-9207545Y44025048D01*
X-9207548Y44025045D01*
X-9293794Y43909836D01*
X-9293798Y43909829D01*
X-9344092Y43774983D01*
X-9350499Y43715384D01*
X-9350499Y43715377D01*
X-9350500Y43715365D01*
X-9350500Y41919630D01*
X-9350499Y41919624D01*
X-9344092Y41860017D01*
X-9293798Y41725172D01*
X-9293794Y41725165D01*
X-9207548Y41609956D01*
X-9207545Y41609953D01*
X-9092336Y41523707D01*
X-9092329Y41523703D01*
X-8960918Y41474690D01*
X-8904984Y41432819D01*
X-8880567Y41367355D01*
X-8895418Y41299082D01*
X-8916569Y41270827D01*
X-9030111Y41157285D01*
X-9155049Y40985321D01*
X-9251556Y40795915D01*
X-9317247Y40593740D01*
X-9350500Y40383787D01*
X-9350500Y40171214D01*
X-9319105Y39972989D01*
X-9317246Y39961257D01*
X-9272145Y39822450D01*
X-9251556Y39759086D01*
X-9155049Y39569680D01*
X-9030110Y39397714D01*
X-8879787Y39247391D01*
X-8707818Y39122450D01*
X-8699054Y39117984D01*
X-8648258Y39070009D01*
X-8631464Y39002188D01*
X-8654002Y38936053D01*
X-8699054Y38897016D01*
X-8707818Y38892551D01*
X-8879787Y38767610D01*
X-9030110Y38617287D01*
X-9155049Y38445321D01*
X-9251556Y38255915D01*
X-9251557Y38255913D01*
X-9251557Y38255912D01*
X-9265018Y38214484D01*
X-9317247Y38053740D01*
X-9350500Y37843787D01*
X-9350500Y37631214D01*
X-9317718Y37424233D01*
X-9317246Y37421257D01*
X-9256237Y37233490D01*
X-9251556Y37219086D01*
X-9155049Y37029680D01*
X-9030110Y36857714D01*
X-8879787Y36707391D01*
X-8707821Y36582452D01*
X-8707819Y36582451D01*
X-8707816Y36582449D01*
X-8698507Y36577706D01*
X-8647710Y36529734D01*
X-8630913Y36461913D01*
X-8653448Y36395778D01*
X-8698495Y36356740D01*
X-8707554Y36352124D01*
X-8707560Y36352120D01*
X-8761718Y36312773D01*
X-8761718Y36312772D01*
X-8129409Y35680463D01*
X-8192993Y35663425D01*
X-8307007Y35597599D01*
X-8400099Y35504507D01*
X-8465925Y35390493D01*
X-8482963Y35326909D01*
X-9115272Y35959218D01*
X-9115273Y35959218D01*
X-9154620Y35905061D01*
X-9251096Y35715718D01*
X-9316758Y35513631D01*
X-9316758Y35513628D01*
X-9350000Y35303747D01*
X-9350000Y35091254D01*
X-9316758Y34881373D01*
X-9316758Y34881370D01*
X-9251096Y34679283D01*
X-9154625Y34489950D01*
X-9115272Y34435784D01*
X-8482963Y35068092D01*
X-8465925Y35004507D01*
X-8400099Y34890493D01*
X-8307007Y34797401D01*
X-8192993Y34731575D01*
X-8129410Y34714538D01*
X-8761718Y34082231D01*
X-8761718Y34082230D01*
X-8707551Y34042876D01*
X-8518218Y33946405D01*
X-8316130Y33880743D01*
X-8106246Y33847500D01*
X-7893754Y33847500D01*
X-7683873Y33880743D01*
X-7683870Y33880743D01*
X-7481783Y33946405D01*
X-7292446Y34042878D01*
X-7238284Y34082230D01*
X-7238283Y34082230D01*
X-7870592Y34714538D01*
X-7807007Y34731575D01*
X-7692993Y34797401D01*
X-7599901Y34890493D01*
X-7534075Y35004507D01*
X-7517038Y35068091D01*
X-6884730Y34435783D01*
X-6884730Y34435784D01*
X-6845378Y34489946D01*
X-6748905Y34679283D01*
X-6683243Y34881370D01*
X-6683243Y34881373D01*
X-6650000Y35091254D01*
X-6650000Y35303747D01*
X-6683243Y35513628D01*
X-6683243Y35513631D01*
X-6748905Y35715718D01*
X-6845376Y35905051D01*
X-6884730Y35959218D01*
X-6884731Y35959218D01*
X-7517038Y35326910D01*
X-7534075Y35390493D01*
X-7599901Y35504507D01*
X-7692993Y35597599D01*
X-7807007Y35663425D01*
X-7870591Y35680463D01*
X-7238284Y36312772D01*
X-7292453Y36352127D01*
X-7292453Y36352128D01*
X-7301500Y36356737D01*
X-7352294Y36404712D01*
X-7369088Y36472534D01*
X-7346549Y36538668D01*
X-7301492Y36577707D01*
X-7292184Y36582449D01*
X-7189314Y36657188D01*
X-7120214Y36707391D01*
X-7120212Y36707394D01*
X-7120208Y36707396D01*
X-6969896Y36857708D01*
X-6969894Y36857712D01*
X-6969891Y36857714D01*
X-6844951Y37029681D01*
X-6837503Y37044297D01*
X-6789527Y37095092D01*
X-6727019Y37112000D01*
X-5272981Y37112000D01*
X-5205942Y37092315D01*
X-5162497Y37044297D01*
X-5155050Y37029681D01*
X-5030110Y36857714D01*
X-4879787Y36707391D01*
X-4707821Y36582452D01*
X-4707819Y36582451D01*
X-4707816Y36582449D01*
X-4698507Y36577706D01*
X-4647710Y36529734D01*
X-4630913Y36461913D01*
X-4653448Y36395778D01*
X-4698495Y36356740D01*
X-4707554Y36352124D01*
X-4707560Y36352120D01*
X-4761718Y36312773D01*
X-4761718Y36312772D01*
X-4129409Y35680463D01*
X-4192993Y35663425D01*
X-4307007Y35597599D01*
X-4400099Y35504507D01*
X-4465925Y35390493D01*
X-4482963Y35326909D01*
X-5115272Y35959218D01*
X-5115273Y35959218D01*
X-5154620Y35905061D01*
X-5251096Y35715718D01*
X-5316758Y35513631D01*
X-5316758Y35513628D01*
X-5350000Y35303747D01*
X-5350000Y35091254D01*
X-5316758Y34881373D01*
X-5316758Y34881370D01*
X-5251096Y34679283D01*
X-5154625Y34489950D01*
X-5115272Y34435784D01*
X-4482963Y35068092D01*
X-4465925Y35004507D01*
X-4400099Y34890493D01*
X-4307007Y34797401D01*
X-4192993Y34731575D01*
X-4129410Y34714538D01*
X-4761718Y34082231D01*
X-4761718Y34082230D01*
X-4707551Y34042876D01*
X-4518218Y33946405D01*
X-4316130Y33880743D01*
X-4106246Y33847500D01*
X-3893754Y33847500D01*
X-3683873Y33880743D01*
X-3683870Y33880743D01*
X-3481783Y33946405D01*
X-3292446Y34042878D01*
X-3238284Y34082230D01*
X-3238283Y34082230D01*
X-3870592Y34714538D01*
X-3807007Y34731575D01*
X-3692993Y34797401D01*
X-3599901Y34890493D01*
X-3534075Y35004507D01*
X-3517038Y35068091D01*
X-2884730Y34435783D01*
X-2884730Y34435784D01*
X-2845378Y34489946D01*
X-2748905Y34679283D01*
X-2683243Y34881370D01*
X-2683243Y34881373D01*
X-2650000Y35091254D01*
X-2650000Y35303747D01*
X-2683243Y35513628D01*
X-2683243Y35513631D01*
X-2748905Y35715718D01*
X-2845376Y35905051D01*
X-2884730Y35959218D01*
X-2884731Y35959218D01*
X-3517038Y35326910D01*
X-3534075Y35390493D01*
X-3599901Y35504507D01*
X-3692993Y35597599D01*
X-3807007Y35663425D01*
X-3870591Y35680463D01*
X-3424208Y36126847D01*
X-2516500Y36126847D01*
X-2516500Y35969154D01*
X-2485739Y35814511D01*
X-2485736Y35814499D01*
X-2425398Y35668828D01*
X-2425391Y35668816D01*
X-2362398Y35574541D01*
X-2341520Y35507864D01*
X-2341500Y35505650D01*
X-2341500Y34298381D01*
X-2317465Y34177548D01*
X-2317460Y34177531D01*
X-2270315Y34063712D01*
X-2270314Y34063710D01*
X-2270312Y34063706D01*
X-2236420Y34012984D01*
X-2201858Y33961259D01*
X-2157341Y33916742D01*
X-2153346Y33911836D01*
X-2142167Y33885229D01*
X-2128334Y33859898D01*
X-2127238Y33849700D01*
X-2126280Y33847421D01*
X-2126722Y33844901D01*
X-2125500Y33833539D01*
X-2125500Y33287880D01*
X-2145185Y33220841D01*
X-2161819Y33200199D01*
X-2177059Y33184960D01*
X-2177066Y33184951D01*
X-2261371Y33042399D01*
X-2261372Y33042396D01*
X-2307576Y32883363D01*
X-2307577Y32883357D01*
X-2310500Y32846211D01*
X-2310500Y32288810D01*
X-2310499Y32288785D01*
X-2307577Y32251646D01*
X-2307576Y32251644D01*
X-2307576Y32251642D01*
X-2261370Y32092600D01*
X-2243649Y32062635D01*
X-2243646Y32062631D01*
X-2226463Y31994908D01*
X-2243644Y31936391D01*
X-2260907Y31907200D01*
X-2260909Y31907196D01*
X-2307078Y31748284D01*
X-2307079Y31748278D01*
X-2310000Y31711158D01*
X-2310000Y31682500D01*
X-690000Y31682500D01*
X-690000Y31711143D01*
X-690001Y31711158D01*
X-692922Y31748278D01*
X-692923Y31748284D01*
X-739092Y31907195D01*
X-739094Y31907200D01*
X-756355Y31936387D01*
X-773539Y32004111D01*
X-756354Y32062631D01*
X-738630Y32092600D01*
X-697698Y32233490D01*
X-692425Y32251638D01*
X-692424Y32251644D01*
X-689501Y32288790D01*
X-689500Y32288797D01*
X-689501Y32846202D01*
X-692424Y32883358D01*
X-738630Y33042400D01*
X-822937Y33184954D01*
X-822939Y33184956D01*
X-822942Y33184960D01*
X-838181Y33200199D01*
X-871666Y33261522D01*
X-874500Y33287880D01*
X-874500Y33572475D01*
X-450500Y33572475D01*
X-450500Y33427525D01*
X-413082Y33287880D01*
X-412983Y33287512D01*
X-340512Y33161989D01*
X-340510Y33161987D01*
X-340509Y33161985D01*
X-238015Y33059491D01*
X-238014Y33059490D01*
X-238012Y33059489D01*
X-112489Y32987018D01*
X-112488Y32987018D01*
X-112485Y32987016D01*
X27525Y32949500D01*
X27528Y32949500D01*
X172472Y32949500D01*
X172475Y32949500D01*
X312485Y32987016D01*
X438015Y33059491D01*
X540509Y33161985D01*
X612984Y33287515D01*
X650500Y33427525D01*
X650500Y33572475D01*
X3649500Y33572475D01*
X3649500Y33427525D01*
X3686918Y33287880D01*
X3687017Y33287512D01*
X3759488Y33161989D01*
X3759490Y33161987D01*
X3759491Y33161985D01*
X3861985Y33059491D01*
X3861986Y33059490D01*
X3861988Y33059489D01*
X3987511Y32987018D01*
X3987512Y32987018D01*
X3987515Y32987016D01*
X4127525Y32949500D01*
X4127528Y32949500D01*
X4272472Y32949500D01*
X4272475Y32949500D01*
X4412485Y32987016D01*
X4538015Y33059491D01*
X4640509Y33161985D01*
X4712984Y33287515D01*
X4750500Y33427525D01*
X4750500Y33572475D01*
X4712984Y33712485D01*
X4707933Y33721233D01*
X4640511Y33838012D01*
X4640506Y33838018D01*
X4538017Y33940507D01*
X4538011Y33940512D01*
X4412488Y34012983D01*
X4412489Y34012983D01*
X4394310Y34017854D01*
X4272475Y34050500D01*
X4127525Y34050500D01*
X4005690Y34017854D01*
X3987511Y34012983D01*
X3861988Y33940512D01*
X3861982Y33940507D01*
X3759493Y33838018D01*
X3759488Y33838012D01*
X3687017Y33712489D01*
X3687016Y33712485D01*
X3649500Y33572475D01*
X650500Y33572475D01*
X612984Y33712485D01*
X607933Y33721233D01*
X540511Y33838012D01*
X540506Y33838018D01*
X438017Y33940507D01*
X438011Y33940512D01*
X312488Y34012983D01*
X312489Y34012983D01*
X294310Y34017854D01*
X172475Y34050500D01*
X27525Y34050500D01*
X-94310Y34017854D01*
X-112489Y34012983D01*
X-238012Y33940512D01*
X-238018Y33940507D01*
X-340507Y33838018D01*
X-340512Y33838012D01*
X-412983Y33712489D01*
X-412984Y33712485D01*
X-450500Y33572475D01*
X-874500Y33572475D01*
X-874500Y34205596D01*
X-886614Y34266499D01*
X-898537Y34326444D01*
X-912348Y34359785D01*
X-945688Y34440278D01*
X-985928Y34500500D01*
X-1014142Y34542725D01*
X-1014144Y34542728D01*
X-1054181Y34582765D01*
X-1087666Y34644088D01*
X-1090500Y34670446D01*
X-1090500Y35505650D01*
X-1070815Y35572689D01*
X-1069602Y35574541D01*
X-1054195Y35597599D01*
X-1006606Y35668821D01*
X-946263Y35814503D01*
X-915500Y35969158D01*
X-915500Y36126842D01*
X-915500Y36126845D01*
X-915501Y36126847D01*
X-936072Y36230263D01*
X-946263Y36281497D01*
X-959218Y36312773D01*
X-1006603Y36427173D01*
X-1006610Y36427186D01*
X-1094211Y36558289D01*
X-1094214Y36558293D01*
X-1205708Y36669787D01*
X-1205712Y36669790D01*
X-1336815Y36757391D01*
X-1336828Y36757398D01*
X-1482499Y36817736D01*
X-1482511Y36817739D01*
X-1637155Y36848500D01*
X-1637158Y36848500D01*
X-1794842Y36848500D01*
X-1794845Y36848500D01*
X-1949490Y36817739D01*
X-1949502Y36817736D01*
X-2095173Y36757398D01*
X-2095186Y36757391D01*
X-2226289Y36669790D01*
X-2226293Y36669787D01*
X-2337787Y36558293D01*
X-2337790Y36558289D01*
X-2425391Y36427186D01*
X-2425398Y36427173D01*
X-2485736Y36281502D01*
X-2485739Y36281490D01*
X-2516500Y36126847D01*
X-3424208Y36126847D01*
X-3330440Y36220615D01*
X-3238284Y36312772D01*
X-3292453Y36352127D01*
X-3292453Y36352128D01*
X-3301500Y36356737D01*
X-3352294Y36404712D01*
X-3369088Y36472534D01*
X-3346549Y36538668D01*
X-3301492Y36577707D01*
X-3292184Y36582449D01*
X-3189314Y36657188D01*
X-3120214Y36707391D01*
X-3120212Y36707394D01*
X-3120208Y36707396D01*
X-2969896Y36857708D01*
X-2969894Y36857712D01*
X-2969891Y36857714D01*
X-2844951Y37029681D01*
X-2837503Y37044297D01*
X-2789527Y37095092D01*
X-2727019Y37112000D01*
X-472892Y37112000D01*
X-472892Y37112001D01*
X-390619Y37128365D01*
X-352048Y37136037D01*
X-318708Y37149848D01*
X-238214Y37183188D01*
X-186991Y37217416D01*
X-135767Y37251642D01*
X-126093Y37261317D01*
X-117932Y37267187D01*
X-94078Y37275572D01*
X-71888Y37287690D01*
X-69842Y37288117D01*
X41497Y37310263D01*
X187179Y37370606D01*
X318289Y37458211D01*
X429789Y37569711D01*
X517394Y37700821D01*
X577737Y37846503D01*
X608500Y38001158D01*
X608500Y38158842D01*
X608500Y38158845D01*
X608499Y38158847D01*
X588056Y38261620D01*
X577737Y38313497D01*
X560749Y38354511D01*
X517397Y38459173D01*
X517390Y38459186D01*
X452294Y38556609D01*
X431416Y38623287D01*
X449901Y38690667D01*
X501879Y38737357D01*
X555396Y38749500D01*
X1611258Y38749500D01*
X1678297Y38729815D01*
X1724052Y38677011D01*
X1733996Y38607853D01*
X1704971Y38544297D01*
X1698939Y38537819D01*
X1539487Y38378368D01*
X1539485Y38378365D01*
X1463719Y38247137D01*
X1424500Y38100766D01*
X1424500Y37607941D01*
X1404815Y37540902D01*
X1388181Y37520260D01*
X1378213Y37510293D01*
X1378210Y37510289D01*
X1290609Y37379186D01*
X1290602Y37379173D01*
X1230264Y37233502D01*
X1230261Y37233490D01*
X1199500Y37078847D01*
X1199500Y36921154D01*
X1230261Y36766511D01*
X1230264Y36766499D01*
X1290602Y36620828D01*
X1290609Y36620815D01*
X1378210Y36489712D01*
X1378213Y36489708D01*
X1489707Y36378214D01*
X1489711Y36378211D01*
X1620814Y36290610D01*
X1620827Y36290603D01*
X1766498Y36230265D01*
X1766503Y36230263D01*
X1921153Y36199501D01*
X1921156Y36199500D01*
X1921158Y36199500D01*
X2078844Y36199500D01*
X2078845Y36199501D01*
X2233497Y36230263D01*
X2379179Y36290606D01*
X2510289Y36378211D01*
X2621789Y36489711D01*
X2709394Y36620821D01*
X2769737Y36766503D01*
X2800500Y36921158D01*
X2800500Y37078842D01*
X2800500Y37078845D01*
X2800499Y37078847D01*
X2781014Y37176809D01*
X2787241Y37246401D01*
X2830104Y37301578D01*
X2895994Y37324822D01*
X2902631Y37325000D01*
X3150000Y37325000D01*
X3150000Y37901000D01*
X3152550Y37909686D01*
X3151262Y37918647D01*
X3162240Y37942688D01*
X3169685Y37968039D01*
X3176525Y37973967D01*
X3180287Y37982203D01*
X3202521Y37996493D01*
X3222489Y38013794D01*
X3233003Y38016082D01*
X3239065Y38019977D01*
X3274000Y38025000D01*
X3426000Y38025000D01*
X3493039Y38005315D01*
X3538794Y37952511D01*
X3550000Y37901000D01*
X3550000Y37325000D01*
X3711757Y37325000D01*
X3778796Y37305315D01*
X3824551Y37252511D01*
X3834495Y37183353D01*
X3805470Y37119797D01*
X3799438Y37113319D01*
X2608582Y35922463D01*
X2547259Y35888978D01*
X2545092Y35888527D01*
X2466510Y35872896D01*
X2466498Y35872893D01*
X2320827Y35812555D01*
X2320814Y35812548D01*
X2189711Y35724947D01*
X2189707Y35724944D01*
X2078213Y35613450D01*
X2078210Y35613446D01*
X1990609Y35482343D01*
X1990602Y35482330D01*
X1930264Y35336659D01*
X1930261Y35336647D01*
X1899500Y35182004D01*
X1899500Y35024311D01*
X1930261Y34869668D01*
X1930264Y34869656D01*
X1990602Y34723985D01*
X1990609Y34723972D01*
X2078210Y34592869D01*
X2078213Y34592865D01*
X2189707Y34481371D01*
X2189711Y34481368D01*
X2320814Y34393767D01*
X2320827Y34393760D01*
X2415355Y34354606D01*
X2466503Y34333420D01*
X2565134Y34313801D01*
X2621153Y34302658D01*
X2621156Y34302657D01*
X2621158Y34302657D01*
X2778844Y34302657D01*
X2778845Y34302658D01*
X2933497Y34333420D01*
X3079179Y34393763D01*
X3210289Y34481368D01*
X3321789Y34592868D01*
X3409394Y34723978D01*
X3469737Y34869660D01*
X3500500Y35024315D01*
X3500500Y35135260D01*
X3520185Y35202299D01*
X3536814Y35222936D01*
X5343155Y37029278D01*
X5343160Y37029281D01*
X5353363Y37039485D01*
X5353365Y37039485D01*
X5460515Y37146635D01*
X5536281Y37277865D01*
X5539035Y37288144D01*
X5545236Y37311282D01*
X5563428Y37379179D01*
X5575500Y37424233D01*
X5575500Y37575766D01*
X5575500Y38210259D01*
X5584144Y38239700D01*
X5590668Y38269686D01*
X5594422Y38274702D01*
X5595185Y38277298D01*
X5611815Y38297936D01*
X5662320Y38348441D01*
X5723642Y38381925D01*
X5793334Y38376941D01*
X5837681Y38348440D01*
X5860144Y38325977D01*
X5860154Y38325966D01*
X5864484Y38321636D01*
X5864485Y38321635D01*
X5971635Y38214485D01*
X6089154Y38146635D01*
X6102865Y38138719D01*
X6249233Y38099500D01*
X6249234Y38099500D01*
X6775500Y38099500D01*
X6842539Y38079815D01*
X6888294Y38027011D01*
X6899500Y37975500D01*
X6899500Y37805248D01*
X6911131Y37746771D01*
X6911132Y37746770D01*
X6911133Y37746769D01*
X6955448Y37680448D01*
X7019392Y37637721D01*
X7064196Y37584112D01*
X7074500Y37534621D01*
X7074500Y36850766D01*
X7074500Y36699234D01*
X7107062Y36577708D01*
X7113721Y36552859D01*
X7115062Y36549621D01*
X7124500Y36502172D01*
X7124500Y36421154D01*
X7155261Y36266511D01*
X7155264Y36266499D01*
X7215602Y36120828D01*
X7215609Y36120815D01*
X7303210Y35989712D01*
X7303213Y35989708D01*
X7414707Y35878214D01*
X7414711Y35878211D01*
X7545814Y35790610D01*
X7545818Y35790608D01*
X7545821Y35790606D01*
X7679068Y35735414D01*
X7733467Y35691576D01*
X7755533Y35625282D01*
X7738254Y35557583D01*
X7719293Y35533174D01*
X4797939Y32611819D01*
X4736616Y32578334D01*
X4710258Y32575500D01*
X3907941Y32575500D01*
X3840902Y32595185D01*
X3820260Y32611819D01*
X3810292Y32621787D01*
X3810288Y32621790D01*
X3679185Y32709391D01*
X3679172Y32709398D01*
X3533501Y32769736D01*
X3533489Y32769739D01*
X3378845Y32800500D01*
X3378842Y32800500D01*
X3221158Y32800500D01*
X3221155Y32800500D01*
X3066510Y32769739D01*
X3066498Y32769736D01*
X2920827Y32709398D01*
X2920814Y32709391D01*
X2789711Y32621790D01*
X2789707Y32621787D01*
X2678213Y32510293D01*
X2678210Y32510289D01*
X2590609Y32379186D01*
X2590602Y32379173D01*
X2530264Y32233502D01*
X2530261Y32233490D01*
X2499500Y32078847D01*
X2499500Y31921154D01*
X2530261Y31766511D01*
X2530264Y31766499D01*
X2590602Y31620828D01*
X2590609Y31620815D01*
X2678210Y31489712D01*
X2678213Y31489708D01*
X2789707Y31378214D01*
X2789711Y31378211D01*
X2920814Y31290610D01*
X2920827Y31290603D01*
X3066498Y31230265D01*
X3066503Y31230263D01*
X3221153Y31199501D01*
X3221156Y31199500D01*
X3221158Y31199500D01*
X3378844Y31199500D01*
X3378845Y31199501D01*
X3533497Y31230263D01*
X3679179Y31290606D01*
X3810289Y31378211D01*
X3810292Y31378214D01*
X3820260Y31388181D01*
X3881583Y31421666D01*
X3907941Y31424500D01*
X5075764Y31424500D01*
X5075766Y31424500D01*
X5222135Y31463719D01*
X5353365Y31539485D01*
X5787819Y31973941D01*
X5849142Y32007425D01*
X5918833Y32002441D01*
X5974767Y31960570D01*
X5999184Y31895105D01*
X5999500Y31886259D01*
X5999500Y31859569D01*
X6030942Y31580506D01*
X6030945Y31580488D01*
X6093439Y31306683D01*
X6093443Y31306671D01*
X6186200Y31041589D01*
X6308053Y30788558D01*
X6308055Y30788555D01*
X6457477Y30550752D01*
X6632584Y30331175D01*
X6831175Y30132584D01*
X7050752Y29957477D01*
X7288555Y29808055D01*
X7541592Y29686199D01*
X7740680Y29616535D01*
X7806670Y29593444D01*
X7806682Y29593440D01*
X8080491Y29530945D01*
X8080497Y29530945D01*
X8080505Y29530943D01*
X8266547Y29509982D01*
X8359569Y29499501D01*
X8359572Y29499500D01*
X8359575Y29499500D01*
X8640428Y29499500D01*
X8640429Y29499501D01*
X8783055Y29515571D01*
X8919494Y29530943D01*
X8919499Y29530944D01*
X8919509Y29530945D01*
X9193318Y29593440D01*
X9458408Y29686199D01*
X9711445Y29808055D01*
X9949248Y29957477D01*
X10168825Y30132584D01*
X10367416Y30331175D01*
X10542523Y30550752D01*
X10691945Y30788555D01*
X10813801Y31041592D01*
X10906560Y31306682D01*
X10969055Y31580491D01*
X10973599Y31620815D01*
X10990014Y31766511D01*
X11000500Y31859575D01*
X11000500Y32140425D01*
X10987969Y32251644D01*
X10969057Y32419495D01*
X10969054Y32419513D01*
X10906560Y32693318D01*
X10906556Y32693330D01*
X10853067Y32846191D01*
X10813801Y32958408D01*
X10704702Y33184954D01*
X10691946Y33211443D01*
X10660479Y33261522D01*
X10542523Y33449248D01*
X10367416Y33668825D01*
X10168825Y33867416D01*
X10152113Y33880743D01*
X10113060Y33911887D01*
X9949248Y34042523D01*
X9711445Y34191945D01*
X9711442Y34191947D01*
X9458411Y34313800D01*
X9193329Y34406557D01*
X9193317Y34406561D01*
X8919512Y34469055D01*
X8919494Y34469058D01*
X8640431Y34500500D01*
X8640425Y34500500D01*
X8613741Y34500500D01*
X8546702Y34520185D01*
X8500947Y34572989D01*
X8491003Y34642147D01*
X8520028Y34705703D01*
X8526060Y34712181D01*
X8746922Y34933043D01*
X9050685Y35236807D01*
X9112006Y35270290D01*
X9181697Y35265306D01*
X9185767Y35263705D01*
X9266503Y35230263D01*
X9390904Y35205518D01*
X9421153Y35199501D01*
X9421156Y35199500D01*
X9421158Y35199500D01*
X9578844Y35199500D01*
X9578845Y35199501D01*
X9733497Y35230263D01*
X9879179Y35290606D01*
X10010289Y35378211D01*
X10010292Y35378214D01*
X10020260Y35388181D01*
X10081583Y35421666D01*
X10107941Y35424500D01*
X10298264Y35424500D01*
X10298266Y35424500D01*
X10444635Y35463719D01*
X10575865Y35539485D01*
X12937819Y37901441D01*
X12999142Y37934925D01*
X13068834Y37929941D01*
X13124767Y37888069D01*
X13149184Y37822605D01*
X13149500Y37813759D01*
X13149500Y37631214D01*
X13182282Y37424233D01*
X13182754Y37421257D01*
X13243763Y37233490D01*
X13248444Y37219086D01*
X13344951Y37029680D01*
X13469890Y36857714D01*
X13620213Y36707391D01*
X13792179Y36582452D01*
X13792181Y36582451D01*
X13792184Y36582449D01*
X13801493Y36577706D01*
X13852290Y36529734D01*
X13869087Y36461913D01*
X13846552Y36395778D01*
X13801505Y36356740D01*
X13792446Y36352124D01*
X13792440Y36352120D01*
X13738282Y36312773D01*
X13738282Y36312772D01*
X14370591Y35680463D01*
X14307007Y35663425D01*
X14192993Y35597599D01*
X14099901Y35504507D01*
X14034075Y35390493D01*
X14017037Y35326909D01*
X13384728Y35959218D01*
X13384727Y35959218D01*
X13345380Y35905061D01*
X13248904Y35715718D01*
X13183242Y35513631D01*
X13183242Y35513628D01*
X13150000Y35303747D01*
X13150000Y35091254D01*
X13183242Y34881373D01*
X13183242Y34881370D01*
X13248904Y34679283D01*
X13345375Y34489950D01*
X13384728Y34435784D01*
X14017037Y35068092D01*
X14034075Y35004507D01*
X14099901Y34890493D01*
X14192993Y34797401D01*
X14307007Y34731575D01*
X14370590Y34714538D01*
X13738282Y34082231D01*
X13738282Y34082230D01*
X13792449Y34042876D01*
X13981782Y33946405D01*
X14183870Y33880743D01*
X14393754Y33847500D01*
X14606246Y33847500D01*
X14816127Y33880743D01*
X14816130Y33880743D01*
X15018217Y33946405D01*
X15207554Y34042878D01*
X15261716Y34082230D01*
X15261717Y34082230D01*
X14629408Y34714538D01*
X14692993Y34731575D01*
X14807007Y34797401D01*
X14900099Y34890493D01*
X14965925Y35004507D01*
X14982962Y35068092D01*
X15615270Y34435783D01*
X15615270Y34435784D01*
X15654622Y34489946D01*
X15751095Y34679283D01*
X15816757Y34881370D01*
X15816757Y34881373D01*
X15850000Y35091254D01*
X15850000Y35303747D01*
X15816757Y35513628D01*
X15816757Y35513631D01*
X15751095Y35715718D01*
X15654624Y35905051D01*
X15615270Y35959218D01*
X15615269Y35959218D01*
X14982962Y35326910D01*
X14965925Y35390493D01*
X14900099Y35504507D01*
X14807007Y35597599D01*
X14692993Y35663425D01*
X14629409Y35680463D01*
X15261716Y36312772D01*
X15207547Y36352127D01*
X15207547Y36352128D01*
X15198500Y36356737D01*
X15147706Y36404712D01*
X15130912Y36472534D01*
X15153451Y36538668D01*
X15198508Y36577707D01*
X15207816Y36582449D01*
X15310686Y36657188D01*
X15379786Y36707391D01*
X15379788Y36707394D01*
X15379792Y36707396D01*
X15530104Y36857708D01*
X15530106Y36857712D01*
X15530109Y36857714D01*
X15655049Y37029681D01*
X15662497Y37044297D01*
X15710473Y37095092D01*
X15772981Y37112000D01*
X17227019Y37112000D01*
X17294058Y37092315D01*
X17337503Y37044297D01*
X17344950Y37029681D01*
X17469890Y36857714D01*
X17620213Y36707391D01*
X17792179Y36582452D01*
X17792181Y36582451D01*
X17792184Y36582449D01*
X17801493Y36577706D01*
X17852290Y36529734D01*
X17869087Y36461913D01*
X17846552Y36395778D01*
X17801505Y36356740D01*
X17792446Y36352124D01*
X17792440Y36352120D01*
X17738282Y36312773D01*
X17738282Y36312772D01*
X18370591Y35680463D01*
X18307007Y35663425D01*
X18192993Y35597599D01*
X18099901Y35504507D01*
X18034075Y35390493D01*
X18017037Y35326909D01*
X17384728Y35959218D01*
X17384727Y35959218D01*
X17345380Y35905061D01*
X17248904Y35715718D01*
X17183242Y35513631D01*
X17183242Y35513628D01*
X17150000Y35303747D01*
X17150000Y35091254D01*
X17183242Y34881373D01*
X17183242Y34881370D01*
X17248904Y34679283D01*
X17345375Y34489950D01*
X17384728Y34435784D01*
X18017037Y35068092D01*
X18034075Y35004507D01*
X18099901Y34890493D01*
X18192993Y34797401D01*
X18307007Y34731575D01*
X18370589Y34714538D01*
X17738282Y34082231D01*
X17738282Y34082230D01*
X17792449Y34042876D01*
X17981782Y33946405D01*
X18183870Y33880743D01*
X18393754Y33847500D01*
X18606246Y33847500D01*
X18737114Y33868228D01*
X18806407Y33859274D01*
X18859859Y33814278D01*
X18880499Y33747526D01*
X18861774Y33680212D01*
X18844194Y33658075D01*
X18797940Y33611820D01*
X18736617Y33578334D01*
X18710258Y33575500D01*
X13789742Y33575500D01*
X13722703Y33595185D01*
X13702061Y33611819D01*
X12836819Y34477061D01*
X12803334Y34538384D01*
X12800500Y34564742D01*
X12800500Y34578845D01*
X12800499Y34578847D01*
X12797710Y34592869D01*
X12769737Y34733497D01*
X12769735Y34733502D01*
X12709397Y34879173D01*
X12709390Y34879186D01*
X12621789Y35010289D01*
X12621786Y35010293D01*
X12510292Y35121787D01*
X12510288Y35121790D01*
X12384982Y35205517D01*
X12384981Y35205518D01*
X12379186Y35209390D01*
X12379172Y35209398D01*
X12233501Y35269736D01*
X12233489Y35269739D01*
X12078845Y35300500D01*
X12078842Y35300500D01*
X11921158Y35300500D01*
X11921155Y35300500D01*
X11766510Y35269739D01*
X11766498Y35269736D01*
X11620827Y35209398D01*
X11620814Y35209391D01*
X11489711Y35121790D01*
X11489707Y35121787D01*
X11378213Y35010293D01*
X11378210Y35010289D01*
X11290609Y34879186D01*
X11290602Y34879173D01*
X11230264Y34733502D01*
X11230261Y34733490D01*
X11199500Y34578847D01*
X11199500Y34421154D01*
X11230261Y34266511D01*
X11230264Y34266499D01*
X11290602Y34120828D01*
X11290609Y34120815D01*
X11378210Y33989712D01*
X11378213Y33989708D01*
X11489707Y33878214D01*
X11489711Y33878211D01*
X11620814Y33790610D01*
X11620827Y33790603D01*
X11724826Y33747526D01*
X11766503Y33730263D01*
X11878371Y33708011D01*
X11921153Y33699501D01*
X11921156Y33699500D01*
X11921158Y33699500D01*
X11935258Y33699500D01*
X12002297Y33679815D01*
X12022939Y33663181D01*
X13039485Y32646635D01*
X13146635Y32539485D01*
X13277865Y32463719D01*
X13424233Y32424500D01*
X13424234Y32424500D01*
X13424235Y32424500D01*
X19075764Y32424500D01*
X19075766Y32424500D01*
X19222135Y32463719D01*
X19353365Y32539485D01*
X20460515Y33646635D01*
X20468113Y33659796D01*
X20518680Y33708011D01*
X20587287Y33721233D01*
X20652152Y33695265D01*
X20692680Y33638351D01*
X20699500Y33597795D01*
X20699500Y29356093D01*
X20698903Y29343939D01*
X20698903Y29343938D01*
X20687256Y29225689D01*
X20682514Y29201849D01*
X20649798Y29093998D01*
X20640495Y29071539D01*
X20587370Y28972151D01*
X20573866Y28951941D01*
X20502369Y28864821D01*
X20485179Y28847631D01*
X20398059Y28776134D01*
X20377849Y28762630D01*
X20278461Y28709505D01*
X20256002Y28700202D01*
X20148151Y28667486D01*
X20124311Y28662744D01*
X20037215Y28654166D01*
X20006060Y28651097D01*
X19993907Y28650500D01*
X-9493907Y28650500D01*
X-9506061Y28651097D01*
X-9556919Y28656107D01*
X-9624312Y28662744D01*
X-9648152Y28667486D01*
X-9756003Y28700202D01*
X-9778459Y28709504D01*
X-9877850Y28762630D01*
X-9898060Y28776134D01*
X-9985180Y28847631D01*
X-10002370Y28864821D01*
X-10073867Y28951941D01*
X-10087371Y28972151D01*
X-10126559Y29045466D01*
X-10140499Y29071547D01*
X-10149799Y29093998D01*
X-10182517Y29201855D01*
X-10187256Y29225683D01*
X-10198903Y29343939D01*
X-10199500Y29356093D01*
X-10199500Y31153843D01*
X-2310000Y31153843D01*
X-2307079Y31116723D01*
X-2307078Y31116717D01*
X-2260909Y30957806D01*
X-2260908Y30957803D01*
X-2176667Y30815358D01*
X-2176661Y30815350D01*
X-2059651Y30698340D01*
X-2059643Y30698334D01*
X-1917198Y30614093D01*
X-1917195Y30614091D01*
X-1758283Y30567923D01*
X-1758276Y30567921D01*
X-1750002Y30567271D01*
X-1750000Y30567272D01*
X-1250000Y30567272D01*
X-1249999Y30567271D01*
X-1241725Y30567921D01*
X-1241718Y30567923D01*
X-1082806Y30614091D01*
X-1082803Y30614093D01*
X-940358Y30698334D01*
X-940350Y30698340D01*
X-823340Y30815350D01*
X-823334Y30815358D01*
X-739093Y30957803D01*
X-739092Y30957806D01*
X-692923Y31116717D01*
X-692922Y31116723D01*
X-690001Y31153843D01*
X-690000Y31153858D01*
X-690000Y31182500D01*
X-1250000Y31182500D01*
X-1250000Y30567272D01*
X-1750000Y30567272D01*
X-1750000Y31182500D01*
X-2310000Y31182500D01*
X-2310000Y31153843D01*
X-10199500Y31153843D01*
X-10199500Y47343908D01*
X-10198903Y47356062D01*
X-10198903Y47356063D01*
X-10187256Y47474322D01*
X-10182517Y47498144D01*
X-10149797Y47606010D01*
X-10140501Y47628451D01*
X-10087368Y47727856D01*
X-10073867Y47748060D01*
X-10002365Y47835186D01*
X-9985186Y47852365D01*
X-9898058Y47923869D01*
X-9877856Y47937368D01*
X-9778451Y47990501D01*
X-9756010Y47999797D01*
X-9648144Y48032517D01*
X-9624318Y48037256D01*
X-9524270Y48047110D01*
X-9506060Y48048903D01*
X-9493907Y48049500D01*
X-9452405Y48049500D01*
X19952405Y48049500D01*
X19993907Y48049500D01*
X20006061Y48048903D01*
G37*
%TD.AperFunction*%
%TA.AperFunction,Conductor*%
G36*
X10438314Y39214870D02*
G01*
X10451647Y39216786D01*
X10471790Y39207587D01*
X10493427Y39202880D01*
X10511152Y39189612D01*
X10515203Y39187761D01*
X10521656Y39181753D01*
X10585267Y39118142D01*
X10585269Y39118141D01*
X10710436Y38992974D01*
X10743921Y38931651D01*
X10738937Y38861959D01*
X10737317Y38857843D01*
X10722263Y38821499D01*
X10722260Y38821489D01*
X10691500Y38666847D01*
X10691500Y38509154D01*
X10722261Y38354511D01*
X10722264Y38354499D01*
X10782602Y38208828D01*
X10782609Y38208815D01*
X10870210Y38077712D01*
X10870213Y38077708D01*
X10981707Y37966214D01*
X10981711Y37966211D01*
X11091738Y37892693D01*
X11136543Y37839081D01*
X11145250Y37769756D01*
X11115096Y37706729D01*
X11110528Y37701910D01*
X10094308Y36685689D01*
X10032985Y36652204D01*
X9963293Y36657188D01*
X9937736Y36670268D01*
X9879185Y36709391D01*
X9879172Y36709398D01*
X9733501Y36769736D01*
X9733489Y36769739D01*
X9578845Y36800500D01*
X9578842Y36800500D01*
X9499500Y36800500D01*
X9432461Y36820185D01*
X9386706Y36872989D01*
X9375500Y36924500D01*
X9375500Y37999772D01*
X9750000Y37999772D01*
X9750001Y37999771D01*
X9758275Y38000421D01*
X9758282Y38000423D01*
X9917194Y38046591D01*
X9917197Y38046593D01*
X10059642Y38130834D01*
X10059650Y38130840D01*
X10176660Y38247850D01*
X10176666Y38247858D01*
X10260907Y38390303D01*
X10260908Y38390306D01*
X10307077Y38549217D01*
X10307078Y38549223D01*
X10309999Y38586343D01*
X10310000Y38586358D01*
X10310000Y38615000D01*
X9750000Y38615000D01*
X9750000Y37999772D01*
X9375500Y37999772D01*
X9375500Y38741000D01*
X9395185Y38808039D01*
X9447989Y38853794D01*
X9499500Y38865000D01*
X9500000Y38865000D01*
X9500000Y38991000D01*
X9519685Y39058039D01*
X9572489Y39103794D01*
X9624000Y39115000D01*
X10310000Y39115000D01*
X10316696Y39121697D01*
X10317818Y39137382D01*
X10325890Y39148166D01*
X10329685Y39161087D01*
X10346418Y39175587D01*
X10359690Y39193315D01*
X10372310Y39198023D01*
X10382489Y39206842D01*
X10404406Y39209994D01*
X10425154Y39217732D01*
X10438314Y39214870D01*
G37*
%TD.AperFunction*%
%TD*%
M02*
