solid OpenSCAD_Model
  facet normal 0.382852 -0.92381 0
    outer loop
      vertex 74.6137 -54.3551 0
      vertex 74.6844 -54.3258 5
      vertex 74.6137 -54.3551 5
    endloop
  endfacet
  facet normal 0.382852 -0.92381 0
    outer loop
      vertex 74.6844 -54.3258 5
      vertex 74.6137 -54.3551 0
      vertex 74.6844 -54.3258 0
    endloop
  endfacet
  facet normal 0.707107 -0.707107 0
    outer loop
      vertex 74.6844 -54.3258 5
      vertex 96.3844 -32.6258 0
      vertex 96.3844 -32.6258 5
    endloop
  endfacet
  facet normal 0.707107 -0.707107 0
    outer loop
      vertex 96.3844 -32.6258 0
      vertex 74.6844 -54.3258 5
      vertex 74.6844 -54.3258 0
    endloop
  endfacet
  facet normal 0 0 1
    outer loop
      vertex 91.3137 30.4738 5
      vertex 96.4137 32.5449 5
      vertex 96.3844 32.6156 5
    endloop
  endfacet
  facet normal 0 0 1
    outer loop
      vertex 96.4137 32.5449 5
      vertex 91.3137 30.4738 5
      vertex 96.4137 -32.5551 5
    endloop
  endfacet
  facet normal -0 0 1
    outer loop
      vertex 91.3137 -30.484 5
      vertex 96.4137 -32.5551 5
      vertex 91.3137 30.4738 5
    endloop
  endfacet
  facet normal 0 0 1
    outer loop
      vertex 74.6844 54.3156 5
      vertex 91.3137 30.4738 5
      vertex 96.3844 32.6156 5
    endloop
  endfacet
  facet normal 0 0 1
    outer loop
      vertex 72.5427 49.2449 5
      vertex 74.6844 54.3156 5
      vertex 74.6137 54.3449 5
    endloop
  endfacet
  facet normal 0 0 1
    outer loop
      vertex 74.6844 54.3156 5
      vertex 72.5427 49.2449 5
      vertex 91.3137 30.4738 5
    endloop
  endfacet
  facet normal 0 0 1
    outer loop
      vertex 74.6137 54.3449 5
      vertex -47.4152 49.2449 5
      vertex 72.5427 49.2449 5
    endloop
  endfacet
  facet normal -0 0 1
    outer loop
      vertex -49.4862 54.3449 5
      vertex -47.4152 49.2449 5
      vertex 74.6137 54.3449 5
    endloop
  endfacet
  facet normal -0 0 1
    outer loop
      vertex -49.5569 54.3156 5
      vertex -47.4152 49.2449 5
      vertex -49.4862 54.3449 5
    endloop
  endfacet
  facet normal 0 0 1
    outer loop
      vertex -49.5569 54.3156 5
      vertex -66.1862 30.4738 5
      vertex -47.4152 49.2449 5
    endloop
  endfacet
  facet normal -0 0 1
    outer loop
      vertex -71.2863 32.5449 5
      vertex -66.1862 30.4738 5
      vertex -71.257 32.6156 5
    endloop
  endfacet
  facet normal -0 0 1
    outer loop
      vertex -71.257 32.6156 5
      vertex -66.1862 30.4738 5
      vertex -49.5569 54.3156 5
    endloop
  endfacet
  facet normal 0 0 1
    outer loop
      vertex 96.4137 -32.5551 5
      vertex 91.3137 -30.484 5
      vertex 96.3844 -32.6258 5
    endloop
  endfacet
  facet normal 0 0 1
    outer loop
      vertex 91.3137 -30.484 5
      vertex 74.6844 -54.3258 5
      vertex 96.3844 -32.6258 5
    endloop
  endfacet
  facet normal -0 0 1
    outer loop
      vertex 72.5427 -49.2551 5
      vertex 74.6844 -54.3258 5
      vertex 91.3137 -30.484 5
    endloop
  endfacet
  facet normal 0 0 1
    outer loop
      vertex 74.6844 -54.3258 5
      vertex 72.5427 -49.2551 5
      vertex 74.6137 -54.3551 5
    endloop
  endfacet
  facet normal -0 0 1
    outer loop
      vertex -47.4152 -49.2551 5
      vertex 74.6137 -54.3551 5
      vertex 72.5427 -49.2551 5
    endloop
  endfacet
  facet normal 0 0 1
    outer loop
      vertex -47.4152 -49.2551 5
      vertex -49.4862 -54.3551 5
      vertex 74.6137 -54.3551 5
    endloop
  endfacet
  facet normal 0 0 1
    outer loop
      vertex -47.4152 -49.2551 5
      vertex -49.5569 -54.3258 5
      vertex -49.4862 -54.3551 5
    endloop
  endfacet
  facet normal 0 0 1
    outer loop
      vertex -66.1862 -30.484 5
      vertex -49.5569 -54.3258 5
      vertex -47.4152 -49.2551 5
    endloop
  endfacet
  facet normal 0 0 1
    outer loop
      vertex -66.1862 -30.484 5
      vertex -71.257 -32.6258 5
      vertex -49.5569 -54.3258 5
    endloop
  endfacet
  facet normal 0 0 1
    outer loop
      vertex -66.1862 30.4738 5
      vertex -71.2863 32.5449 5
      vertex -66.1862 -30.484 5
    endloop
  endfacet
  facet normal 0 0 1
    outer loop
      vertex -71.2863 -32.5551 5
      vertex -66.1862 -30.484 5
      vertex -71.2863 32.5449 5
    endloop
  endfacet
  facet normal 0 0 1
    outer loop
      vertex -66.1862 -30.484 5
      vertex -71.2863 -32.5551 5
      vertex -71.257 -32.6258 5
    endloop
  endfacet
  facet normal -0.382852 0.92381 0
    outer loop
      vertex -49.4862 54.3449 0
      vertex -49.5569 54.3156 5
      vertex -49.4862 54.3449 5
    endloop
  endfacet
  facet normal -0.382852 0.92381 0
    outer loop
      vertex -49.5569 54.3156 5
      vertex -49.4862 54.3449 0
      vertex -49.5569 54.3156 0
    endloop
  endfacet
  facet normal 0.382852 0.92381 -0
    outer loop
      vertex 74.6844 54.3156 0
      vertex 74.6137 54.3449 5
      vertex 74.6844 54.3156 5
    endloop
  endfacet
  facet normal 0.382852 0.92381 0
    outer loop
      vertex 74.6137 54.3449 5
      vertex 74.6844 54.3156 0
      vertex 74.6137 54.3449 0
    endloop
  endfacet
  facet normal -0.382852 -0.92381 0
    outer loop
      vertex -49.5569 -54.3258 0
      vertex -49.4862 -54.3551 5
      vertex -49.5569 -54.3258 5
    endloop
  endfacet
  facet normal -0.382852 -0.92381 -0
    outer loop
      vertex -49.4862 -54.3551 5
      vertex -49.5569 -54.3258 0
      vertex -49.4862 -54.3551 0
    endloop
  endfacet
  facet normal 0 -1 0
    outer loop
      vertex -49.4862 -54.3551 0
      vertex 74.6137 -54.3551 5
      vertex -49.4862 -54.3551 5
    endloop
  endfacet
  facet normal 0 -1 -0
    outer loop
      vertex 74.6137 -54.3551 5
      vertex -49.4862 -54.3551 0
      vertex 74.6137 -54.3551 0
    endloop
  endfacet
  facet normal -0.707105 -0.707108 0
    outer loop
      vertex -71.257 -32.6258 0
      vertex -49.5569 -54.3258 5
      vertex -71.257 -32.6258 5
    endloop
  endfacet
  facet normal -0.707105 -0.707108 -0
    outer loop
      vertex -49.5569 -54.3258 5
      vertex -71.257 -32.6258 0
      vertex -49.5569 -54.3258 0
    endloop
  endfacet
  facet normal 0 1 -0
    outer loop
      vertex 74.6137 54.3449 0
      vertex -49.4862 54.3449 5
      vertex 74.6137 54.3449 5
    endloop
  endfacet
  facet normal 0 1 0
    outer loop
      vertex -49.4862 54.3449 5
      vertex 74.6137 54.3449 0
      vertex -49.4862 54.3449 0
    endloop
  endfacet
  facet normal -0.92381 0.382852 0
    outer loop
      vertex -71.2863 32.5449 0
      vertex -71.257 32.6156 5
      vertex -71.257 32.6156 0
    endloop
  endfacet
  facet normal -0.92381 0.382852 0
    outer loop
      vertex -71.257 32.6156 5
      vertex -71.2863 32.5449 0
      vertex -71.2863 32.5449 5
    endloop
  endfacet
  facet normal -0.707105 0.707108 0
    outer loop
      vertex -49.5569 54.3156 0
      vertex -71.257 32.6156 5
      vertex -49.5569 54.3156 5
    endloop
  endfacet
  facet normal -0.707105 0.707108 0
    outer loop
      vertex -71.257 32.6156 5
      vertex -49.5569 54.3156 0
      vertex -71.257 32.6156 0
    endloop
  endfacet
  facet normal -0.92381 -0.382852 0
    outer loop
      vertex -71.257 -32.6258 0
      vertex -71.2863 -32.5551 5
      vertex -71.2863 -32.5551 0
    endloop
  endfacet
  facet normal -0.92381 -0.382852 0
    outer loop
      vertex -71.2863 -32.5551 5
      vertex -71.257 -32.6258 0
      vertex -71.257 -32.6258 5
    endloop
  endfacet
  facet normal -1 0 0
    outer loop
      vertex -71.2863 -32.5551 0
      vertex -71.2863 32.5449 5
      vertex -71.2863 32.5449 0
    endloop
  endfacet
  facet normal -1 -0 0
    outer loop
      vertex -71.2863 32.5449 5
      vertex -71.2863 -32.5551 0
      vertex -71.2863 -32.5551 5
    endloop
  endfacet
  facet normal 0 0 -1
    outer loop
      vertex 91.3137 -30.484 0
      vertex 96.4137 -32.5551 0
      vertex 96.3844 -32.6258 0
    endloop
  endfacet
  facet normal 0 0 -1
    outer loop
      vertex 96.4137 -32.5551 0
      vertex 91.3137 -30.484 0
      vertex 96.4137 32.5449 0
    endloop
  endfacet
  facet normal 0 0 -1
    outer loop
      vertex 91.3137 30.4738 0
      vertex 96.4137 32.5449 0
      vertex 91.3137 -30.484 0
    endloop
  endfacet
  facet normal 0 0 -1
    outer loop
      vertex 74.6844 -54.3258 0
      vertex 91.3137 -30.484 0
      vertex 96.3844 -32.6258 0
    endloop
  endfacet
  facet normal 0 0 -1
    outer loop
      vertex 72.5427 -49.2551 0
      vertex 74.6844 -54.3258 0
      vertex 74.6137 -54.3551 0
    endloop
  endfacet
  facet normal 0 0 -1
    outer loop
      vertex 74.6844 -54.3258 0
      vertex 72.5427 -49.2551 0
      vertex 91.3137 -30.484 0
    endloop
  endfacet
  facet normal 0 0 -1
    outer loop
      vertex 74.6137 -54.3551 0
      vertex -47.4152 -49.2551 0
      vertex 72.5427 -49.2551 0
    endloop
  endfacet
  facet normal 0 0 -1
    outer loop
      vertex -49.4862 -54.3551 0
      vertex -47.4152 -49.2551 0
      vertex 74.6137 -54.3551 0
    endloop
  endfacet
  facet normal 0 0 -1
    outer loop
      vertex -49.5569 -54.3258 0
      vertex -47.4152 -49.2551 0
      vertex -49.4862 -54.3551 0
    endloop
  endfacet
  facet normal 0 0 -1
    outer loop
      vertex -49.5569 -54.3258 0
      vertex -66.1862 -30.484 0
      vertex -47.4152 -49.2551 0
    endloop
  endfacet
  facet normal 0 0 -1
    outer loop
      vertex -71.2863 -32.5551 0
      vertex -66.1862 -30.484 0
      vertex -71.257 -32.6258 0
    endloop
  endfacet
  facet normal 0 0 -1
    outer loop
      vertex -71.257 -32.6258 0
      vertex -66.1862 -30.484 0
      vertex -49.5569 -54.3258 0
    endloop
  endfacet
  facet normal -0 0 -1
    outer loop
      vertex 96.4137 32.5449 0
      vertex 91.3137 30.4738 0
      vertex 96.3844 32.6156 0
    endloop
  endfacet
  facet normal 0 0 -1
    outer loop
      vertex 91.3137 30.4738 0
      vertex 74.6844 54.3156 0
      vertex 96.3844 32.6156 0
    endloop
  endfacet
  facet normal 0 0 -1
    outer loop
      vertex 72.5427 49.2449 0
      vertex 74.6844 54.3156 0
      vertex 91.3137 30.4738 0
    endloop
  endfacet
  facet normal -0 0 -1
    outer loop
      vertex 74.6844 54.3156 0
      vertex 72.5427 49.2449 0
      vertex 74.6137 54.3449 0
    endloop
  endfacet
  facet normal 0 0 -1
    outer loop
      vertex -47.4152 49.2449 0
      vertex 74.6137 54.3449 0
      vertex 72.5427 49.2449 0
    endloop
  endfacet
  facet normal 0 0 -1
    outer loop
      vertex -47.4152 49.2449 0
      vertex -49.4862 54.3449 0
      vertex 74.6137 54.3449 0
    endloop
  endfacet
  facet normal 0 0 -1
    outer loop
      vertex -47.4152 49.2449 0
      vertex -49.5569 54.3156 0
      vertex -49.4862 54.3449 0
    endloop
  endfacet
  facet normal 0 0 -1
    outer loop
      vertex -66.1862 30.4738 0
      vertex -49.5569 54.3156 0
      vertex -47.4152 49.2449 0
    endloop
  endfacet
  facet normal 0 0 -1
    outer loop
      vertex -66.1862 30.4738 0
      vertex -71.257 32.6156 0
      vertex -49.5569 54.3156 0
    endloop
  endfacet
  facet normal -0 0 -1
    outer loop
      vertex -66.1862 -30.484 0
      vertex -71.2863 -32.5551 0
      vertex -66.1862 30.4738 0
    endloop
  endfacet
  facet normal 0 0 -1
    outer loop
      vertex -71.2863 32.5449 0
      vertex -66.1862 30.4738 0
      vertex -71.2863 -32.5551 0
    endloop
  endfacet
  facet normal 0 0 -1
    outer loop
      vertex -66.1862 30.4738 0
      vertex -71.2863 32.5449 0
      vertex -71.257 32.6156 0
    endloop
  endfacet
  facet normal 0.707107 0.707107 0
    outer loop
      vertex 96.3844 32.6156 5
      vertex 74.6844 54.3156 0
      vertex 74.6844 54.3156 5
    endloop
  endfacet
  facet normal 0.707107 0.707107 0
    outer loop
      vertex 74.6844 54.3156 0
      vertex 96.3844 32.6156 5
      vertex 96.3844 32.6156 0
    endloop
  endfacet
  facet normal 0.92381 -0.382852 0
    outer loop
      vertex 96.3844 -32.6258 5
      vertex 96.4137 -32.5551 0
      vertex 96.4137 -32.5551 5
    endloop
  endfacet
  facet normal 0.92381 -0.382852 0
    outer loop
      vertex 96.4137 -32.5551 0
      vertex 96.3844 -32.6258 5
      vertex 96.3844 -32.6258 0
    endloop
  endfacet
  facet normal 0.92381 0.382852 0
    outer loop
      vertex 96.4137 32.5449 5
      vertex 96.3844 32.6156 0
      vertex 96.3844 32.6156 5
    endloop
  endfacet
  facet normal 0.92381 0.382852 0
    outer loop
      vertex 96.3844 32.6156 0
      vertex 96.4137 32.5449 5
      vertex 96.4137 32.5449 0
    endloop
  endfacet
  facet normal 1 -0 0
    outer loop
      vertex 96.4137 -32.5551 5
      vertex 96.4137 32.5449 0
      vertex 96.4137 32.5449 5
    endloop
  endfacet
  facet normal 1 0 0
    outer loop
      vertex 96.4137 32.5449 0
      vertex 96.4137 -32.5551 5
      vertex 96.4137 -32.5551 0
    endloop
  endfacet
  facet normal -0.707109 0.707105 0
    outer loop
      vertex 72.5427 -49.2551 0
      vertex 91.3137 -30.484 5
      vertex 91.3137 -30.484 0
    endloop
  endfacet
  facet normal -0.707109 0.707105 0
    outer loop
      vertex 91.3137 -30.484 5
      vertex 72.5427 -49.2551 0
      vertex 72.5427 -49.2551 5
    endloop
  endfacet
  facet normal -0.707109 -0.707105 0
    outer loop
      vertex 91.3137 30.4738 0
      vertex 72.5427 49.2449 5
      vertex 72.5427 49.2449 0
    endloop
  endfacet
  facet normal -0.707109 -0.707105 0
    outer loop
      vertex 72.5427 49.2449 5
      vertex 91.3137 30.4738 0
      vertex 91.3137 30.4738 5
    endloop
  endfacet
  facet normal 1 -0 0
    outer loop
      vertex -66.1862 -30.484 5
      vertex -66.1862 30.4738 0
      vertex -66.1862 30.4738 5
    endloop
  endfacet
  facet normal 1 0 0
    outer loop
      vertex -66.1862 30.4738 0
      vertex -66.1862 -30.484 5
      vertex -66.1862 -30.484 0
    endloop
  endfacet
  facet normal -1 0 0
    outer loop
      vertex 91.3137 -30.484 0
      vertex 91.3137 30.4738 5
      vertex 91.3137 30.4738 0
    endloop
  endfacet
  facet normal -1 -0 0
    outer loop
      vertex 91.3137 30.4738 5
      vertex 91.3137 -30.484 0
      vertex 91.3137 -30.484 5
    endloop
  endfacet
  facet normal 0 -1 0
    outer loop
      vertex -47.4152 49.2449 0
      vertex 72.5427 49.2449 5
      vertex -47.4152 49.2449 5
    endloop
  endfacet
  facet normal 0 -1 -0
    outer loop
      vertex 72.5427 49.2449 5
      vertex -47.4152 49.2449 0
      vertex 72.5427 49.2449 0
    endloop
  endfacet
  facet normal 0.707109 0.707105 -0
    outer loop
      vertex -47.4152 -49.2551 0
      vertex -66.1862 -30.484 5
      vertex -47.4152 -49.2551 5
    endloop
  endfacet
  facet normal 0.707109 0.707105 0
    outer loop
      vertex -66.1862 -30.484 5
      vertex -47.4152 -49.2551 0
      vertex -66.1862 -30.484 0
    endloop
  endfacet
  facet normal 0.707109 -0.707105 0
    outer loop
      vertex -66.1862 30.4738 0
      vertex -47.4152 49.2449 5
      vertex -66.1862 30.4738 5
    endloop
  endfacet
  facet normal 0.707109 -0.707105 0
    outer loop
      vertex -47.4152 49.2449 5
      vertex -66.1862 30.4738 0
      vertex -47.4152 49.2449 0
    endloop
  endfacet
  facet normal 0 1 -0
    outer loop
      vertex 72.5427 -49.2551 0
      vertex -47.4152 -49.2551 5
      vertex 72.5427 -49.2551 5
    endloop
  endfacet
  facet normal 0 1 0
    outer loop
      vertex -47.4152 -49.2551 5
      vertex 72.5427 -49.2551 0
      vertex -47.4152 -49.2551 0
    endloop
  endfacet
endsolid OpenSCAD_Model
