%TF.GenerationSoftware,KiCad,Pcbnew,9.0.2*%
%TF.CreationDate,2025-11-02T17:25:33-06:00*%
%TF.ProjectId,just proximity actually,6a757374-2070-4726-9f78-696d69747920,rev?*%
%TF.SameCoordinates,Original*%
%TF.FileFunction,Legend,Top*%
%TF.FilePolarity,Positive*%
%FSLAX46Y46*%
G04 Gerber Fmt 4.6, Leading zero omitted, Abs format (unit mm)*
G04 Created by KiCad (PCBNEW 9.0.2) date 2025-11-02 17:25:33*
%MOMM*%
%LPD*%
G01*
G04 APERTURE LIST*
%ADD10C,0.100000*%
%ADD11C,0.120000*%
G04 APERTURE END LIST*
D10*
X116237217Y-99696895D02*
X115856265Y-99696895D01*
X115856265Y-99696895D02*
X115818169Y-100077847D01*
X115818169Y-100077847D02*
X115856265Y-100039752D01*
X115856265Y-100039752D02*
X115932455Y-100001657D01*
X115932455Y-100001657D02*
X116122931Y-100001657D01*
X116122931Y-100001657D02*
X116199122Y-100039752D01*
X116199122Y-100039752D02*
X116237217Y-100077847D01*
X116237217Y-100077847D02*
X116275312Y-100154038D01*
X116275312Y-100154038D02*
X116275312Y-100344514D01*
X116275312Y-100344514D02*
X116237217Y-100420704D01*
X116237217Y-100420704D02*
X116199122Y-100458800D01*
X116199122Y-100458800D02*
X116122931Y-100496895D01*
X116122931Y-100496895D02*
X115932455Y-100496895D01*
X115932455Y-100496895D02*
X115856265Y-100458800D01*
X115856265Y-100458800D02*
X115818169Y-100420704D01*
X116503884Y-99696895D02*
X116770551Y-100496895D01*
X116770551Y-100496895D02*
X117037217Y-99696895D01*
X117880074Y-99696895D02*
X118375312Y-99696895D01*
X118375312Y-99696895D02*
X118108646Y-100001657D01*
X118108646Y-100001657D02*
X118222931Y-100001657D01*
X118222931Y-100001657D02*
X118299122Y-100039752D01*
X118299122Y-100039752D02*
X118337217Y-100077847D01*
X118337217Y-100077847D02*
X118375312Y-100154038D01*
X118375312Y-100154038D02*
X118375312Y-100344514D01*
X118375312Y-100344514D02*
X118337217Y-100420704D01*
X118337217Y-100420704D02*
X118299122Y-100458800D01*
X118299122Y-100458800D02*
X118222931Y-100496895D01*
X118222931Y-100496895D02*
X117994360Y-100496895D01*
X117994360Y-100496895D02*
X117918169Y-100458800D01*
X117918169Y-100458800D02*
X117880074Y-100420704D01*
X118603884Y-99696895D02*
X118870551Y-100496895D01*
X118870551Y-100496895D02*
X119137217Y-99696895D01*
X119327693Y-99696895D02*
X119822931Y-99696895D01*
X119822931Y-99696895D02*
X119556265Y-100001657D01*
X119556265Y-100001657D02*
X119670550Y-100001657D01*
X119670550Y-100001657D02*
X119746741Y-100039752D01*
X119746741Y-100039752D02*
X119784836Y-100077847D01*
X119784836Y-100077847D02*
X119822931Y-100154038D01*
X119822931Y-100154038D02*
X119822931Y-100344514D01*
X119822931Y-100344514D02*
X119784836Y-100420704D01*
X119784836Y-100420704D02*
X119746741Y-100458800D01*
X119746741Y-100458800D02*
X119670550Y-100496895D01*
X119670550Y-100496895D02*
X119441979Y-100496895D01*
X119441979Y-100496895D02*
X119365788Y-100458800D01*
X119365788Y-100458800D02*
X119327693Y-100420704D01*
X120418169Y-100458800D02*
X120532455Y-100496895D01*
X120532455Y-100496895D02*
X120722931Y-100496895D01*
X120722931Y-100496895D02*
X120799122Y-100458800D01*
X120799122Y-100458800D02*
X120837217Y-100420704D01*
X120837217Y-100420704D02*
X120875312Y-100344514D01*
X120875312Y-100344514D02*
X120875312Y-100268323D01*
X120875312Y-100268323D02*
X120837217Y-100192133D01*
X120837217Y-100192133D02*
X120799122Y-100154038D01*
X120799122Y-100154038D02*
X120722931Y-100115942D01*
X120722931Y-100115942D02*
X120570550Y-100077847D01*
X120570550Y-100077847D02*
X120494360Y-100039752D01*
X120494360Y-100039752D02*
X120456265Y-100001657D01*
X120456265Y-100001657D02*
X120418169Y-99925466D01*
X120418169Y-99925466D02*
X120418169Y-99849276D01*
X120418169Y-99849276D02*
X120456265Y-99773085D01*
X120456265Y-99773085D02*
X120494360Y-99734990D01*
X120494360Y-99734990D02*
X120570550Y-99696895D01*
X120570550Y-99696895D02*
X120761027Y-99696895D01*
X120761027Y-99696895D02*
X120875312Y-99734990D01*
X121218170Y-100496895D02*
X121218170Y-99696895D01*
X121218170Y-99696895D02*
X121408646Y-99696895D01*
X121408646Y-99696895D02*
X121522932Y-99734990D01*
X121522932Y-99734990D02*
X121599122Y-99811180D01*
X121599122Y-99811180D02*
X121637217Y-99887371D01*
X121637217Y-99887371D02*
X121675313Y-100039752D01*
X121675313Y-100039752D02*
X121675313Y-100154038D01*
X121675313Y-100154038D02*
X121637217Y-100306419D01*
X121637217Y-100306419D02*
X121599122Y-100382609D01*
X121599122Y-100382609D02*
X121522932Y-100458800D01*
X121522932Y-100458800D02*
X121408646Y-100496895D01*
X121408646Y-100496895D02*
X121218170Y-100496895D01*
X121980074Y-100268323D02*
X122361027Y-100268323D01*
X121903884Y-100496895D02*
X122170551Y-99696895D01*
X122170551Y-99696895D02*
X122437217Y-100496895D01*
X125775312Y-88834990D02*
X125699122Y-88796895D01*
X125699122Y-88796895D02*
X125584836Y-88796895D01*
X125584836Y-88796895D02*
X125470550Y-88834990D01*
X125470550Y-88834990D02*
X125394360Y-88911180D01*
X125394360Y-88911180D02*
X125356265Y-88987371D01*
X125356265Y-88987371D02*
X125318169Y-89139752D01*
X125318169Y-89139752D02*
X125318169Y-89254038D01*
X125318169Y-89254038D02*
X125356265Y-89406419D01*
X125356265Y-89406419D02*
X125394360Y-89482609D01*
X125394360Y-89482609D02*
X125470550Y-89558800D01*
X125470550Y-89558800D02*
X125584836Y-89596895D01*
X125584836Y-89596895D02*
X125661027Y-89596895D01*
X125661027Y-89596895D02*
X125775312Y-89558800D01*
X125775312Y-89558800D02*
X125813408Y-89520704D01*
X125813408Y-89520704D02*
X125813408Y-89254038D01*
X125813408Y-89254038D02*
X125661027Y-89254038D01*
X126156265Y-89596895D02*
X126156265Y-88796895D01*
X126156265Y-88796895D02*
X126613408Y-89596895D01*
X126613408Y-89596895D02*
X126613408Y-88796895D01*
X126994360Y-89596895D02*
X126994360Y-88796895D01*
X126994360Y-88796895D02*
X127184836Y-88796895D01*
X127184836Y-88796895D02*
X127299122Y-88834990D01*
X127299122Y-88834990D02*
X127375312Y-88911180D01*
X127375312Y-88911180D02*
X127413407Y-88987371D01*
X127413407Y-88987371D02*
X127451503Y-89139752D01*
X127451503Y-89139752D02*
X127451503Y-89254038D01*
X127451503Y-89254038D02*
X127413407Y-89406419D01*
X127413407Y-89406419D02*
X127375312Y-89482609D01*
X127375312Y-89482609D02*
X127299122Y-89558800D01*
X127299122Y-89558800D02*
X127184836Y-89596895D01*
X127184836Y-89596895D02*
X126994360Y-89596895D01*
X120418169Y-89558800D02*
X120532455Y-89596895D01*
X120532455Y-89596895D02*
X120722931Y-89596895D01*
X120722931Y-89596895D02*
X120799122Y-89558800D01*
X120799122Y-89558800D02*
X120837217Y-89520704D01*
X120837217Y-89520704D02*
X120875312Y-89444514D01*
X120875312Y-89444514D02*
X120875312Y-89368323D01*
X120875312Y-89368323D02*
X120837217Y-89292133D01*
X120837217Y-89292133D02*
X120799122Y-89254038D01*
X120799122Y-89254038D02*
X120722931Y-89215942D01*
X120722931Y-89215942D02*
X120570550Y-89177847D01*
X120570550Y-89177847D02*
X120494360Y-89139752D01*
X120494360Y-89139752D02*
X120456265Y-89101657D01*
X120456265Y-89101657D02*
X120418169Y-89025466D01*
X120418169Y-89025466D02*
X120418169Y-88949276D01*
X120418169Y-88949276D02*
X120456265Y-88873085D01*
X120456265Y-88873085D02*
X120494360Y-88834990D01*
X120494360Y-88834990D02*
X120570550Y-88796895D01*
X120570550Y-88796895D02*
X120761027Y-88796895D01*
X120761027Y-88796895D02*
X120875312Y-88834990D01*
X121218170Y-89596895D02*
X121218170Y-88796895D01*
X121218170Y-88796895D02*
X121408646Y-88796895D01*
X121408646Y-88796895D02*
X121522932Y-88834990D01*
X121522932Y-88834990D02*
X121599122Y-88911180D01*
X121599122Y-88911180D02*
X121637217Y-88987371D01*
X121637217Y-88987371D02*
X121675313Y-89139752D01*
X121675313Y-89139752D02*
X121675313Y-89254038D01*
X121675313Y-89254038D02*
X121637217Y-89406419D01*
X121637217Y-89406419D02*
X121599122Y-89482609D01*
X121599122Y-89482609D02*
X121522932Y-89558800D01*
X121522932Y-89558800D02*
X121408646Y-89596895D01*
X121408646Y-89596895D02*
X121218170Y-89596895D01*
X121980074Y-89368323D02*
X122361027Y-89368323D01*
X121903884Y-89596895D02*
X122170551Y-88796895D01*
X122170551Y-88796895D02*
X122437217Y-89596895D01*
X125775312Y-99734990D02*
X125699122Y-99696895D01*
X125699122Y-99696895D02*
X125584836Y-99696895D01*
X125584836Y-99696895D02*
X125470550Y-99734990D01*
X125470550Y-99734990D02*
X125394360Y-99811180D01*
X125394360Y-99811180D02*
X125356265Y-99887371D01*
X125356265Y-99887371D02*
X125318169Y-100039752D01*
X125318169Y-100039752D02*
X125318169Y-100154038D01*
X125318169Y-100154038D02*
X125356265Y-100306419D01*
X125356265Y-100306419D02*
X125394360Y-100382609D01*
X125394360Y-100382609D02*
X125470550Y-100458800D01*
X125470550Y-100458800D02*
X125584836Y-100496895D01*
X125584836Y-100496895D02*
X125661027Y-100496895D01*
X125661027Y-100496895D02*
X125775312Y-100458800D01*
X125775312Y-100458800D02*
X125813408Y-100420704D01*
X125813408Y-100420704D02*
X125813408Y-100154038D01*
X125813408Y-100154038D02*
X125661027Y-100154038D01*
X126156265Y-100496895D02*
X126156265Y-99696895D01*
X126156265Y-99696895D02*
X126613408Y-100496895D01*
X126613408Y-100496895D02*
X126613408Y-99696895D01*
X126994360Y-100496895D02*
X126994360Y-99696895D01*
X126994360Y-99696895D02*
X127184836Y-99696895D01*
X127184836Y-99696895D02*
X127299122Y-99734990D01*
X127299122Y-99734990D02*
X127375312Y-99811180D01*
X127375312Y-99811180D02*
X127413407Y-99887371D01*
X127413407Y-99887371D02*
X127451503Y-100039752D01*
X127451503Y-100039752D02*
X127451503Y-100154038D01*
X127451503Y-100154038D02*
X127413407Y-100306419D01*
X127413407Y-100306419D02*
X127375312Y-100382609D01*
X127375312Y-100382609D02*
X127299122Y-100458800D01*
X127299122Y-100458800D02*
X127184836Y-100496895D01*
X127184836Y-100496895D02*
X126994360Y-100496895D01*
X122918169Y-89558800D02*
X123032455Y-89596895D01*
X123032455Y-89596895D02*
X123222931Y-89596895D01*
X123222931Y-89596895D02*
X123299122Y-89558800D01*
X123299122Y-89558800D02*
X123337217Y-89520704D01*
X123337217Y-89520704D02*
X123375312Y-89444514D01*
X123375312Y-89444514D02*
X123375312Y-89368323D01*
X123375312Y-89368323D02*
X123337217Y-89292133D01*
X123337217Y-89292133D02*
X123299122Y-89254038D01*
X123299122Y-89254038D02*
X123222931Y-89215942D01*
X123222931Y-89215942D02*
X123070550Y-89177847D01*
X123070550Y-89177847D02*
X122994360Y-89139752D01*
X122994360Y-89139752D02*
X122956265Y-89101657D01*
X122956265Y-89101657D02*
X122918169Y-89025466D01*
X122918169Y-89025466D02*
X122918169Y-88949276D01*
X122918169Y-88949276D02*
X122956265Y-88873085D01*
X122956265Y-88873085D02*
X122994360Y-88834990D01*
X122994360Y-88834990D02*
X123070550Y-88796895D01*
X123070550Y-88796895D02*
X123261027Y-88796895D01*
X123261027Y-88796895D02*
X123375312Y-88834990D01*
X124175313Y-89520704D02*
X124137217Y-89558800D01*
X124137217Y-89558800D02*
X124022932Y-89596895D01*
X124022932Y-89596895D02*
X123946741Y-89596895D01*
X123946741Y-89596895D02*
X123832455Y-89558800D01*
X123832455Y-89558800D02*
X123756265Y-89482609D01*
X123756265Y-89482609D02*
X123718170Y-89406419D01*
X123718170Y-89406419D02*
X123680074Y-89254038D01*
X123680074Y-89254038D02*
X123680074Y-89139752D01*
X123680074Y-89139752D02*
X123718170Y-88987371D01*
X123718170Y-88987371D02*
X123756265Y-88911180D01*
X123756265Y-88911180D02*
X123832455Y-88834990D01*
X123832455Y-88834990D02*
X123946741Y-88796895D01*
X123946741Y-88796895D02*
X124022932Y-88796895D01*
X124022932Y-88796895D02*
X124137217Y-88834990D01*
X124137217Y-88834990D02*
X124175313Y-88873085D01*
X124899122Y-89596895D02*
X124518170Y-89596895D01*
X124518170Y-89596895D02*
X124518170Y-88796895D01*
X116237217Y-88796895D02*
X115856265Y-88796895D01*
X115856265Y-88796895D02*
X115818169Y-89177847D01*
X115818169Y-89177847D02*
X115856265Y-89139752D01*
X115856265Y-89139752D02*
X115932455Y-89101657D01*
X115932455Y-89101657D02*
X116122931Y-89101657D01*
X116122931Y-89101657D02*
X116199122Y-89139752D01*
X116199122Y-89139752D02*
X116237217Y-89177847D01*
X116237217Y-89177847D02*
X116275312Y-89254038D01*
X116275312Y-89254038D02*
X116275312Y-89444514D01*
X116275312Y-89444514D02*
X116237217Y-89520704D01*
X116237217Y-89520704D02*
X116199122Y-89558800D01*
X116199122Y-89558800D02*
X116122931Y-89596895D01*
X116122931Y-89596895D02*
X115932455Y-89596895D01*
X115932455Y-89596895D02*
X115856265Y-89558800D01*
X115856265Y-89558800D02*
X115818169Y-89520704D01*
X116503884Y-88796895D02*
X116770551Y-89596895D01*
X116770551Y-89596895D02*
X117037217Y-88796895D01*
X122918169Y-100458800D02*
X123032455Y-100496895D01*
X123032455Y-100496895D02*
X123222931Y-100496895D01*
X123222931Y-100496895D02*
X123299122Y-100458800D01*
X123299122Y-100458800D02*
X123337217Y-100420704D01*
X123337217Y-100420704D02*
X123375312Y-100344514D01*
X123375312Y-100344514D02*
X123375312Y-100268323D01*
X123375312Y-100268323D02*
X123337217Y-100192133D01*
X123337217Y-100192133D02*
X123299122Y-100154038D01*
X123299122Y-100154038D02*
X123222931Y-100115942D01*
X123222931Y-100115942D02*
X123070550Y-100077847D01*
X123070550Y-100077847D02*
X122994360Y-100039752D01*
X122994360Y-100039752D02*
X122956265Y-100001657D01*
X122956265Y-100001657D02*
X122918169Y-99925466D01*
X122918169Y-99925466D02*
X122918169Y-99849276D01*
X122918169Y-99849276D02*
X122956265Y-99773085D01*
X122956265Y-99773085D02*
X122994360Y-99734990D01*
X122994360Y-99734990D02*
X123070550Y-99696895D01*
X123070550Y-99696895D02*
X123261027Y-99696895D01*
X123261027Y-99696895D02*
X123375312Y-99734990D01*
X124175313Y-100420704D02*
X124137217Y-100458800D01*
X124137217Y-100458800D02*
X124022932Y-100496895D01*
X124022932Y-100496895D02*
X123946741Y-100496895D01*
X123946741Y-100496895D02*
X123832455Y-100458800D01*
X123832455Y-100458800D02*
X123756265Y-100382609D01*
X123756265Y-100382609D02*
X123718170Y-100306419D01*
X123718170Y-100306419D02*
X123680074Y-100154038D01*
X123680074Y-100154038D02*
X123680074Y-100039752D01*
X123680074Y-100039752D02*
X123718170Y-99887371D01*
X123718170Y-99887371D02*
X123756265Y-99811180D01*
X123756265Y-99811180D02*
X123832455Y-99734990D01*
X123832455Y-99734990D02*
X123946741Y-99696895D01*
X123946741Y-99696895D02*
X124022932Y-99696895D01*
X124022932Y-99696895D02*
X124137217Y-99734990D01*
X124137217Y-99734990D02*
X124175313Y-99773085D01*
X124899122Y-100496895D02*
X124518170Y-100496895D01*
X124518170Y-100496895D02*
X124518170Y-99696895D01*
X117880074Y-88796895D02*
X118375312Y-88796895D01*
X118375312Y-88796895D02*
X118108646Y-89101657D01*
X118108646Y-89101657D02*
X118222931Y-89101657D01*
X118222931Y-89101657D02*
X118299122Y-89139752D01*
X118299122Y-89139752D02*
X118337217Y-89177847D01*
X118337217Y-89177847D02*
X118375312Y-89254038D01*
X118375312Y-89254038D02*
X118375312Y-89444514D01*
X118375312Y-89444514D02*
X118337217Y-89520704D01*
X118337217Y-89520704D02*
X118299122Y-89558800D01*
X118299122Y-89558800D02*
X118222931Y-89596895D01*
X118222931Y-89596895D02*
X117994360Y-89596895D01*
X117994360Y-89596895D02*
X117918169Y-89558800D01*
X117918169Y-89558800D02*
X117880074Y-89520704D01*
X118603884Y-88796895D02*
X118870551Y-89596895D01*
X118870551Y-89596895D02*
X119137217Y-88796895D01*
X119327693Y-88796895D02*
X119822931Y-88796895D01*
X119822931Y-88796895D02*
X119556265Y-89101657D01*
X119556265Y-89101657D02*
X119670550Y-89101657D01*
X119670550Y-89101657D02*
X119746741Y-89139752D01*
X119746741Y-89139752D02*
X119784836Y-89177847D01*
X119784836Y-89177847D02*
X119822931Y-89254038D01*
X119822931Y-89254038D02*
X119822931Y-89444514D01*
X119822931Y-89444514D02*
X119784836Y-89520704D01*
X119784836Y-89520704D02*
X119746741Y-89558800D01*
X119746741Y-89558800D02*
X119670550Y-89596895D01*
X119670550Y-89596895D02*
X119441979Y-89596895D01*
X119441979Y-89596895D02*
X119365788Y-89558800D01*
X119365788Y-89558800D02*
X119327693Y-89520704D01*
D11*
%TO.C,C11*%
X124940000Y-95615835D02*
X124940000Y-95384165D01*
X125660000Y-95615835D02*
X125660000Y-95384165D01*
%TO.C,C12*%
X123953733Y-97190000D02*
X124246267Y-97190000D01*
X123953733Y-98210000D02*
X124246267Y-98210000D01*
%TO.C,R21*%
X119132379Y-97120000D02*
X119467621Y-97120000D01*
X119132379Y-97880000D02*
X119467621Y-97880000D01*
%TO.C,R20*%
X119467621Y-91320000D02*
X119132379Y-91320000D01*
X119467621Y-92080000D02*
X119132379Y-92080000D01*
D10*
%TO.C,IC1*%
X124260000Y-95300000D02*
X124260000Y-95300000D01*
X124360000Y-95300000D02*
X124360000Y-95300000D01*
X124260000Y-95300000D02*
G75*
G02*
X124360000Y-95300000I50000J0D01*
G01*
X124360000Y-95300000D02*
G75*
G02*
X124260000Y-95300000I-50000J0D01*
G01*
%TD*%
M02*
