%TF.GenerationSoftware,KiCad,Pcbnew,9.0.2*%
%TF.CreationDate,2025-11-02T17:25:33-06:00*%
%TF.ProjectId,just proximity actually,6a757374-2070-4726-9f78-696d69747920,rev?*%
%TF.SameCoordinates,Original*%
%TF.FileFunction,Legend,Bot*%
%TF.FilePolarity,Positive*%
%FSLAX46Y46*%
G04 Gerber Fmt 4.6, Leading zero omitted, Abs format (unit mm)*
G04 Created by KiCad (PCBNEW 9.0.2) date 2025-11-02 17:25:33*
%MOMM*%
%LPD*%
G01*
G04 APERTURE LIST*
%ADD10C,0.100000*%
%ADD11C,0.000000*%
G04 APERTURE END LIST*
D10*
X127143734Y-90108940D02*
X127143734Y-89308940D01*
X127143734Y-89308940D02*
X126953258Y-89308940D01*
X126953258Y-89308940D02*
X126838972Y-89347035D01*
X126838972Y-89347035D02*
X126762782Y-89423225D01*
X126762782Y-89423225D02*
X126724687Y-89499416D01*
X126724687Y-89499416D02*
X126686591Y-89651797D01*
X126686591Y-89651797D02*
X126686591Y-89766083D01*
X126686591Y-89766083D02*
X126724687Y-89918464D01*
X126724687Y-89918464D02*
X126762782Y-89994654D01*
X126762782Y-89994654D02*
X126838972Y-90070845D01*
X126838972Y-90070845D02*
X126953258Y-90108940D01*
X126953258Y-90108940D02*
X127143734Y-90108940D01*
X126038972Y-90070845D02*
X126115163Y-90108940D01*
X126115163Y-90108940D02*
X126267544Y-90108940D01*
X126267544Y-90108940D02*
X126343734Y-90070845D01*
X126343734Y-90070845D02*
X126381830Y-89994654D01*
X126381830Y-89994654D02*
X126381830Y-89689892D01*
X126381830Y-89689892D02*
X126343734Y-89613702D01*
X126343734Y-89613702D02*
X126267544Y-89575606D01*
X126267544Y-89575606D02*
X126115163Y-89575606D01*
X126115163Y-89575606D02*
X126038972Y-89613702D01*
X126038972Y-89613702D02*
X126000877Y-89689892D01*
X126000877Y-89689892D02*
X126000877Y-89766083D01*
X126000877Y-89766083D02*
X126381830Y-89842273D01*
X125696116Y-90070845D02*
X125619925Y-90108940D01*
X125619925Y-90108940D02*
X125467544Y-90108940D01*
X125467544Y-90108940D02*
X125391354Y-90070845D01*
X125391354Y-90070845D02*
X125353258Y-89994654D01*
X125353258Y-89994654D02*
X125353258Y-89956559D01*
X125353258Y-89956559D02*
X125391354Y-89880368D01*
X125391354Y-89880368D02*
X125467544Y-89842273D01*
X125467544Y-89842273D02*
X125581830Y-89842273D01*
X125581830Y-89842273D02*
X125658020Y-89804178D01*
X125658020Y-89804178D02*
X125696116Y-89727987D01*
X125696116Y-89727987D02*
X125696116Y-89689892D01*
X125696116Y-89689892D02*
X125658020Y-89613702D01*
X125658020Y-89613702D02*
X125581830Y-89575606D01*
X125581830Y-89575606D02*
X125467544Y-89575606D01*
X125467544Y-89575606D02*
X125391354Y-89613702D01*
X125010401Y-90108940D02*
X125010401Y-89575606D01*
X125010401Y-89308940D02*
X125048497Y-89347035D01*
X125048497Y-89347035D02*
X125010401Y-89385130D01*
X125010401Y-89385130D02*
X124972306Y-89347035D01*
X124972306Y-89347035D02*
X125010401Y-89308940D01*
X125010401Y-89308940D02*
X125010401Y-89385130D01*
X124286592Y-89575606D02*
X124286592Y-90223225D01*
X124286592Y-90223225D02*
X124324687Y-90299416D01*
X124324687Y-90299416D02*
X124362783Y-90337511D01*
X124362783Y-90337511D02*
X124438973Y-90375606D01*
X124438973Y-90375606D02*
X124553259Y-90375606D01*
X124553259Y-90375606D02*
X124629449Y-90337511D01*
X124286592Y-90070845D02*
X124362783Y-90108940D01*
X124362783Y-90108940D02*
X124515164Y-90108940D01*
X124515164Y-90108940D02*
X124591354Y-90070845D01*
X124591354Y-90070845D02*
X124629449Y-90032749D01*
X124629449Y-90032749D02*
X124667545Y-89956559D01*
X124667545Y-89956559D02*
X124667545Y-89727987D01*
X124667545Y-89727987D02*
X124629449Y-89651797D01*
X124629449Y-89651797D02*
X124591354Y-89613702D01*
X124591354Y-89613702D02*
X124515164Y-89575606D01*
X124515164Y-89575606D02*
X124362783Y-89575606D01*
X124362783Y-89575606D02*
X124286592Y-89613702D01*
X123905639Y-89575606D02*
X123905639Y-90108940D01*
X123905639Y-89651797D02*
X123867544Y-89613702D01*
X123867544Y-89613702D02*
X123791354Y-89575606D01*
X123791354Y-89575606D02*
X123677068Y-89575606D01*
X123677068Y-89575606D02*
X123600877Y-89613702D01*
X123600877Y-89613702D02*
X123562782Y-89689892D01*
X123562782Y-89689892D02*
X123562782Y-90108940D01*
X122877067Y-90070845D02*
X122953258Y-90108940D01*
X122953258Y-90108940D02*
X123105639Y-90108940D01*
X123105639Y-90108940D02*
X123181829Y-90070845D01*
X123181829Y-90070845D02*
X123219925Y-89994654D01*
X123219925Y-89994654D02*
X123219925Y-89689892D01*
X123219925Y-89689892D02*
X123181829Y-89613702D01*
X123181829Y-89613702D02*
X123105639Y-89575606D01*
X123105639Y-89575606D02*
X122953258Y-89575606D01*
X122953258Y-89575606D02*
X122877067Y-89613702D01*
X122877067Y-89613702D02*
X122838972Y-89689892D01*
X122838972Y-89689892D02*
X122838972Y-89766083D01*
X122838972Y-89766083D02*
X123219925Y-89842273D01*
X122153258Y-90108940D02*
X122153258Y-89308940D01*
X122153258Y-90070845D02*
X122229449Y-90108940D01*
X122229449Y-90108940D02*
X122381830Y-90108940D01*
X122381830Y-90108940D02*
X122458020Y-90070845D01*
X122458020Y-90070845D02*
X122496115Y-90032749D01*
X122496115Y-90032749D02*
X122534211Y-89956559D01*
X122534211Y-89956559D02*
X122534211Y-89727987D01*
X122534211Y-89727987D02*
X122496115Y-89651797D01*
X122496115Y-89651797D02*
X122458020Y-89613702D01*
X122458020Y-89613702D02*
X122381830Y-89575606D01*
X122381830Y-89575606D02*
X122229449Y-89575606D01*
X122229449Y-89575606D02*
X122153258Y-89613702D01*
X120896115Y-89689892D02*
X120781829Y-89727987D01*
X120781829Y-89727987D02*
X120743734Y-89766083D01*
X120743734Y-89766083D02*
X120705638Y-89842273D01*
X120705638Y-89842273D02*
X120705638Y-89956559D01*
X120705638Y-89956559D02*
X120743734Y-90032749D01*
X120743734Y-90032749D02*
X120781829Y-90070845D01*
X120781829Y-90070845D02*
X120858019Y-90108940D01*
X120858019Y-90108940D02*
X121162781Y-90108940D01*
X121162781Y-90108940D02*
X121162781Y-89308940D01*
X121162781Y-89308940D02*
X120896115Y-89308940D01*
X120896115Y-89308940D02*
X120819924Y-89347035D01*
X120819924Y-89347035D02*
X120781829Y-89385130D01*
X120781829Y-89385130D02*
X120743734Y-89461321D01*
X120743734Y-89461321D02*
X120743734Y-89537511D01*
X120743734Y-89537511D02*
X120781829Y-89613702D01*
X120781829Y-89613702D02*
X120819924Y-89651797D01*
X120819924Y-89651797D02*
X120896115Y-89689892D01*
X120896115Y-89689892D02*
X121162781Y-89689892D01*
X120438972Y-89575606D02*
X120248496Y-90108940D01*
X120058019Y-89575606D02*
X120248496Y-90108940D01*
X120248496Y-90108940D02*
X120324686Y-90299416D01*
X120324686Y-90299416D02*
X120362781Y-90337511D01*
X120362781Y-90337511D02*
X120438972Y-90375606D01*
X126724687Y-90634990D02*
X126800877Y-90596895D01*
X126800877Y-90596895D02*
X126915163Y-90596895D01*
X126915163Y-90596895D02*
X127029449Y-90634990D01*
X127029449Y-90634990D02*
X127105639Y-90711180D01*
X127105639Y-90711180D02*
X127143734Y-90787371D01*
X127143734Y-90787371D02*
X127181830Y-90939752D01*
X127181830Y-90939752D02*
X127181830Y-91054038D01*
X127181830Y-91054038D02*
X127143734Y-91206419D01*
X127143734Y-91206419D02*
X127105639Y-91282609D01*
X127105639Y-91282609D02*
X127029449Y-91358800D01*
X127029449Y-91358800D02*
X126915163Y-91396895D01*
X126915163Y-91396895D02*
X126838972Y-91396895D01*
X126838972Y-91396895D02*
X126724687Y-91358800D01*
X126724687Y-91358800D02*
X126686591Y-91320704D01*
X126686591Y-91320704D02*
X126686591Y-91054038D01*
X126686591Y-91054038D02*
X126838972Y-91054038D01*
X126038972Y-91358800D02*
X126115163Y-91396895D01*
X126115163Y-91396895D02*
X126267544Y-91396895D01*
X126267544Y-91396895D02*
X126343734Y-91358800D01*
X126343734Y-91358800D02*
X126381830Y-91282609D01*
X126381830Y-91282609D02*
X126381830Y-90977847D01*
X126381830Y-90977847D02*
X126343734Y-90901657D01*
X126343734Y-90901657D02*
X126267544Y-90863561D01*
X126267544Y-90863561D02*
X126115163Y-90863561D01*
X126115163Y-90863561D02*
X126038972Y-90901657D01*
X126038972Y-90901657D02*
X126000877Y-90977847D01*
X126000877Y-90977847D02*
X126000877Y-91054038D01*
X126000877Y-91054038D02*
X126381830Y-91130228D01*
X125658020Y-90863561D02*
X125658020Y-91396895D01*
X125658020Y-90939752D02*
X125619925Y-90901657D01*
X125619925Y-90901657D02*
X125543735Y-90863561D01*
X125543735Y-90863561D02*
X125429449Y-90863561D01*
X125429449Y-90863561D02*
X125353258Y-90901657D01*
X125353258Y-90901657D02*
X125315163Y-90977847D01*
X125315163Y-90977847D02*
X125315163Y-91396895D01*
X124591353Y-90863561D02*
X124591353Y-91511180D01*
X124591353Y-91511180D02*
X124629448Y-91587371D01*
X124629448Y-91587371D02*
X124667544Y-91625466D01*
X124667544Y-91625466D02*
X124743734Y-91663561D01*
X124743734Y-91663561D02*
X124858020Y-91663561D01*
X124858020Y-91663561D02*
X124934210Y-91625466D01*
X124591353Y-91358800D02*
X124667544Y-91396895D01*
X124667544Y-91396895D02*
X124819925Y-91396895D01*
X124819925Y-91396895D02*
X124896115Y-91358800D01*
X124896115Y-91358800D02*
X124934210Y-91320704D01*
X124934210Y-91320704D02*
X124972306Y-91244514D01*
X124972306Y-91244514D02*
X124972306Y-91015942D01*
X124972306Y-91015942D02*
X124934210Y-90939752D01*
X124934210Y-90939752D02*
X124896115Y-90901657D01*
X124896115Y-90901657D02*
X124819925Y-90863561D01*
X124819925Y-90863561D02*
X124667544Y-90863561D01*
X124667544Y-90863561D02*
X124591353Y-90901657D01*
X124286591Y-90863561D02*
X124134210Y-91396895D01*
X124134210Y-91396895D02*
X123981829Y-91015942D01*
X123981829Y-91015942D02*
X123829448Y-91396895D01*
X123829448Y-91396895D02*
X123677067Y-90863561D01*
X123067543Y-91358800D02*
X123143734Y-91396895D01*
X123143734Y-91396895D02*
X123296115Y-91396895D01*
X123296115Y-91396895D02*
X123372305Y-91358800D01*
X123372305Y-91358800D02*
X123410401Y-91282609D01*
X123410401Y-91282609D02*
X123410401Y-90977847D01*
X123410401Y-90977847D02*
X123372305Y-90901657D01*
X123372305Y-90901657D02*
X123296115Y-90863561D01*
X123296115Y-90863561D02*
X123143734Y-90863561D01*
X123143734Y-90863561D02*
X123067543Y-90901657D01*
X123067543Y-90901657D02*
X123029448Y-90977847D01*
X123029448Y-90977847D02*
X123029448Y-91054038D01*
X123029448Y-91054038D02*
X123410401Y-91130228D01*
X122686591Y-90863561D02*
X122686591Y-91396895D01*
X122686591Y-90939752D02*
X122648496Y-90901657D01*
X122648496Y-90901657D02*
X122572306Y-90863561D01*
X122572306Y-90863561D02*
X122458020Y-90863561D01*
X122458020Y-90863561D02*
X122381829Y-90901657D01*
X122381829Y-90901657D02*
X122343734Y-90977847D01*
X122343734Y-90977847D02*
X122343734Y-91396895D01*
X120972305Y-91396895D02*
X121353257Y-91396895D01*
X121353257Y-91396895D02*
X121353257Y-90596895D01*
X120705638Y-91396895D02*
X120705638Y-90863561D01*
X120705638Y-90596895D02*
X120743734Y-90634990D01*
X120743734Y-90634990D02*
X120705638Y-90673085D01*
X120705638Y-90673085D02*
X120667543Y-90634990D01*
X120667543Y-90634990D02*
X120705638Y-90596895D01*
X120705638Y-90596895D02*
X120705638Y-90673085D01*
D11*
%TO.C,G\u002A\u002A\u002A*%
G36*
X117555201Y-95212553D02*
G01*
X117552865Y-95214889D01*
X117550528Y-95212553D01*
X117552865Y-95210216D01*
X117555201Y-95212553D01*
G37*
G36*
X118602046Y-94390032D02*
G01*
X118599709Y-94392369D01*
X118597372Y-94390032D01*
X118599709Y-94387695D01*
X118602046Y-94390032D01*
G37*
G36*
X121443481Y-95880851D02*
G01*
X121441144Y-95883187D01*
X121438807Y-95880851D01*
X121441144Y-95878514D01*
X121443481Y-95880851D01*
G37*
G36*
X117810681Y-94805187D02*
G01*
X117811412Y-94806592D01*
X117807566Y-94808302D01*
X117805091Y-94807965D01*
X117804450Y-94805187D01*
X117805135Y-94804627D01*
X117810681Y-94805187D01*
G37*
G36*
X118023711Y-94235051D02*
G01*
X118024504Y-94236674D01*
X118017869Y-94237408D01*
X118011440Y-94236757D01*
X118012027Y-94235051D01*
X118014143Y-94234434D01*
X118023711Y-94235051D01*
G37*
G36*
X118078624Y-94766242D02*
G01*
X118078286Y-94768716D01*
X118075508Y-94769357D01*
X118074949Y-94768672D01*
X118075508Y-94763126D01*
X118076914Y-94762395D01*
X118078624Y-94766242D01*
G37*
G36*
X117902280Y-94489058D02*
G01*
X117905707Y-94495963D01*
X117903959Y-94498223D01*
X117896360Y-94499857D01*
X117889485Y-94498400D01*
X117887415Y-94493851D01*
X117893567Y-94488996D01*
X117893772Y-94488919D01*
X117902280Y-94489058D01*
G37*
G36*
X119908755Y-96610752D02*
G01*
X119912401Y-96614562D01*
X119909257Y-96622002D01*
X119904080Y-96629439D01*
X119901745Y-96628872D01*
X119901255Y-96619397D01*
X119902758Y-96611297D01*
X119908045Y-96610465D01*
X119908755Y-96610752D01*
G37*
G36*
X117696014Y-97566988D02*
G01*
X117700077Y-97572626D01*
X117699637Y-97576099D01*
X117694952Y-97579436D01*
X117684102Y-97576800D01*
X117683880Y-97576713D01*
X117677226Y-97571894D01*
X117678989Y-97567522D01*
X117688394Y-97565616D01*
X117696014Y-97566988D01*
G37*
G36*
X118418740Y-94613971D02*
G01*
X118424456Y-94621366D01*
X118425819Y-94624061D01*
X118426496Y-94629474D01*
X118419947Y-94630713D01*
X118413715Y-94629152D01*
X118410436Y-94621366D01*
X118411281Y-94615935D01*
X118414945Y-94612019D01*
X118418740Y-94613971D01*
G37*
G36*
X117864052Y-94426112D02*
G01*
X117868162Y-94432889D01*
X117865407Y-94445928D01*
X117864210Y-94448442D01*
X117858976Y-94451963D01*
X117853726Y-94447963D01*
X117850484Y-94437574D01*
X117850190Y-94434361D01*
X117851713Y-94426974D01*
X117858663Y-94425083D01*
X117864052Y-94426112D01*
G37*
G36*
X119724360Y-96437551D02*
G01*
X119733711Y-96443767D01*
X119737685Y-96453244D01*
X119737551Y-96455623D01*
X119734001Y-96461197D01*
X119723829Y-96462691D01*
X119714711Y-96461182D01*
X119705949Y-96455328D01*
X119703026Y-96447204D01*
X119707545Y-96439127D01*
X119713485Y-96436402D01*
X119724360Y-96437551D01*
G37*
G36*
X120797396Y-95679320D02*
G01*
X120799182Y-95687152D01*
X120798887Y-95700475D01*
X120796034Y-95718285D01*
X120793312Y-95724631D01*
X120786819Y-95725963D01*
X120783030Y-95724028D01*
X120780372Y-95719452D01*
X120781158Y-95710762D01*
X120785269Y-95695625D01*
X120789499Y-95684161D01*
X120794009Y-95677988D01*
X120797396Y-95679320D01*
G37*
G36*
X118957306Y-95009523D02*
G01*
X118967213Y-95011913D01*
X118971245Y-95016269D01*
X118970431Y-95019539D01*
X118964235Y-95023279D01*
X118962220Y-95023619D01*
X118958383Y-95028975D01*
X118957225Y-95041973D01*
X118957225Y-95060667D01*
X118938532Y-95060667D01*
X118919838Y-95060667D01*
X118919838Y-95040571D01*
X118919989Y-95035797D01*
X118921947Y-95022786D01*
X118925446Y-95014867D01*
X118933001Y-95011045D01*
X118944807Y-95009201D01*
X118957306Y-95009523D01*
G37*
G36*
X117640880Y-93604120D02*
G01*
X117640517Y-93604460D01*
X117632076Y-93607127D01*
X117623909Y-93604284D01*
X117622817Y-93601938D01*
X117623245Y-93600225D01*
X117625302Y-93600225D01*
X117627639Y-93602562D01*
X117629976Y-93600225D01*
X117627639Y-93597888D01*
X117625302Y-93600225D01*
X117623245Y-93600225D01*
X117624673Y-93594515D01*
X117630299Y-93587184D01*
X117637150Y-93583868D01*
X117637850Y-93583919D01*
X117642708Y-93588327D01*
X117644001Y-93596597D01*
X117642496Y-93600225D01*
X117640880Y-93604120D01*
G37*
G36*
X119906025Y-96427151D02*
G01*
X119916334Y-96438258D01*
X119919948Y-96455299D01*
X119917014Y-96470185D01*
X119907744Y-96484125D01*
X119894177Y-96491971D01*
X119892489Y-96492377D01*
X119872800Y-96494430D01*
X119853729Y-96492258D01*
X119837434Y-96486587D01*
X119826073Y-96478144D01*
X119821807Y-96467653D01*
X119821842Y-96465617D01*
X119825833Y-96449152D01*
X119837093Y-96436816D01*
X119856555Y-96427534D01*
X119868525Y-96424144D01*
X119889822Y-96422330D01*
X119906025Y-96427151D01*
G37*
G36*
X117478245Y-94520752D02*
G01*
X117494447Y-94534622D01*
X117505032Y-94544272D01*
X117516085Y-94552487D01*
X117523380Y-94555726D01*
X117528153Y-94556289D01*
X117533710Y-94560935D01*
X117531170Y-94570232D01*
X117520535Y-94584168D01*
X117516763Y-94588583D01*
X117507299Y-94602993D01*
X117503794Y-94614759D01*
X117503265Y-94621201D01*
X117499973Y-94625044D01*
X117493675Y-94620052D01*
X117484378Y-94606233D01*
X117472089Y-94583593D01*
X117463118Y-94564833D01*
X117455344Y-94544062D01*
X117453383Y-94530234D01*
X117453564Y-94528632D01*
X117457664Y-94517742D01*
X117465937Y-94515121D01*
X117478245Y-94520752D01*
G37*
G36*
X120064429Y-96443808D02*
G01*
X120076345Y-96446616D01*
X120084875Y-96452624D01*
X120086422Y-96454202D01*
X120091316Y-96460984D01*
X120091906Y-96468802D01*
X120088704Y-96481515D01*
X120084626Y-96492343D01*
X120076878Y-96501997D01*
X120063360Y-96509683D01*
X120058782Y-96511741D01*
X120045079Y-96516921D01*
X120035249Y-96517163D01*
X120025890Y-96511824D01*
X120013597Y-96500258D01*
X120006350Y-96492795D01*
X119999531Y-96484024D01*
X119997713Y-96476900D01*
X119999660Y-96468616D01*
X120002418Y-96462221D01*
X120011878Y-96451396D01*
X120026957Y-96445368D01*
X120049239Y-96443328D01*
X120064429Y-96443808D01*
G37*
G36*
X117942973Y-94220890D02*
G01*
X117964627Y-94222456D01*
X117981551Y-94225221D01*
X117991476Y-94229204D01*
X117994057Y-94231417D01*
X117998219Y-94237153D01*
X117995781Y-94241717D01*
X117985853Y-94245902D01*
X117967547Y-94250499D01*
X117952559Y-94253055D01*
X117930212Y-94255082D01*
X117906220Y-94255796D01*
X117882771Y-94255262D01*
X117862053Y-94253540D01*
X117846253Y-94250694D01*
X117837559Y-94246786D01*
X117833113Y-94241246D01*
X117834529Y-94236699D01*
X117843042Y-94230429D01*
X117843092Y-94230396D01*
X117854393Y-94226246D01*
X117872299Y-94223202D01*
X117894542Y-94221282D01*
X117918856Y-94220505D01*
X117942973Y-94220890D01*
G37*
G36*
X120125495Y-95225897D02*
G01*
X120130973Y-95237686D01*
X120132810Y-95253516D01*
X120130373Y-95270546D01*
X120130352Y-95270620D01*
X120128307Y-95280999D01*
X120128881Y-95286736D01*
X120128422Y-95289612D01*
X120122932Y-95296207D01*
X120114356Y-95303839D01*
X120105383Y-95310175D01*
X120098706Y-95312883D01*
X120096558Y-95313336D01*
X120092418Y-95318873D01*
X120091675Y-95319409D01*
X120088810Y-95313978D01*
X120084622Y-95302629D01*
X120083779Y-95300062D01*
X120080096Y-95285873D01*
X120080138Y-95274447D01*
X120083806Y-95260748D01*
X120088469Y-95248634D01*
X120098139Y-95232048D01*
X120108778Y-95222623D01*
X120119420Y-95221428D01*
X120125495Y-95225897D01*
G37*
G36*
X120677321Y-95260808D02*
G01*
X120679167Y-95263455D01*
X120685069Y-95276541D01*
X120688962Y-95291956D01*
X120690098Y-95303107D01*
X120688381Y-95315238D01*
X120681752Y-95326999D01*
X120676521Y-95333741D01*
X120670417Y-95338111D01*
X120664901Y-95336020D01*
X120661653Y-95332435D01*
X120658348Y-95323867D01*
X120657764Y-95320989D01*
X120653674Y-95320041D01*
X120652609Y-95320311D01*
X120649974Y-95315667D01*
X120649001Y-95303684D01*
X120649133Y-95298758D01*
X120650486Y-95289409D01*
X120652828Y-95286805D01*
X120654970Y-95284731D01*
X120654767Y-95276299D01*
X120654822Y-95267573D01*
X120660822Y-95256836D01*
X120664907Y-95253902D01*
X120670460Y-95253836D01*
X120677321Y-95260808D01*
G37*
G36*
X118381418Y-94407073D02*
G01*
X118387216Y-94410532D01*
X118390758Y-94418930D01*
X118393784Y-94434429D01*
X118396457Y-94445974D01*
X118400796Y-94456650D01*
X118405272Y-94461529D01*
X118408854Y-94458936D01*
X118410272Y-94456687D01*
X118415462Y-94455678D01*
X118416840Y-94458301D01*
X118413894Y-94464876D01*
X118411853Y-94467061D01*
X118404441Y-94471383D01*
X118398752Y-94467143D01*
X118394352Y-94464193D01*
X118384456Y-94462470D01*
X118377039Y-94461340D01*
X118373049Y-94457796D01*
X118372316Y-94455699D01*
X118366203Y-94453123D01*
X118363083Y-94452564D01*
X118355778Y-94445899D01*
X118351680Y-94434084D01*
X118352078Y-94420135D01*
X118354413Y-94412483D01*
X118359910Y-94407504D01*
X118371230Y-94406389D01*
X118371622Y-94406389D01*
X118381418Y-94407073D01*
G37*
G36*
X121821892Y-98091263D02*
G01*
X121832121Y-98099732D01*
X121836048Y-98112446D01*
X121836075Y-98113135D01*
X121837550Y-98122237D01*
X121840827Y-98137069D01*
X121845284Y-98154782D01*
X121846072Y-98157765D01*
X121850376Y-98174829D01*
X121853436Y-98188256D01*
X121854631Y-98195359D01*
X121853717Y-98197218D01*
X121847189Y-98199523D01*
X121833476Y-98200795D01*
X121811512Y-98201177D01*
X121768283Y-98201154D01*
X121782065Y-98190127D01*
X121785635Y-98187223D01*
X121792203Y-98180294D01*
X121793384Y-98172869D01*
X121790356Y-98160775D01*
X121789544Y-98158254D01*
X121783030Y-98143597D01*
X121775406Y-98132297D01*
X121767289Y-98119383D01*
X121768337Y-98107491D01*
X121778681Y-98096316D01*
X121791835Y-98089683D01*
X121807688Y-98087696D01*
X121821892Y-98091263D01*
G37*
G36*
X121306764Y-95941062D02*
G01*
X121310801Y-95945929D01*
X121311018Y-95946605D01*
X121311259Y-95955534D01*
X121309292Y-95968105D01*
X121305934Y-95981086D01*
X121302002Y-95991245D01*
X121298313Y-95995349D01*
X121295625Y-95997011D01*
X121291690Y-96004396D01*
X121288802Y-96009702D01*
X121280860Y-96015524D01*
X121276566Y-96016230D01*
X121265891Y-96015496D01*
X121262734Y-96014618D01*
X121251278Y-96011720D01*
X121236682Y-96008239D01*
X121229114Y-96006251D01*
X121218607Y-96002416D01*
X121214484Y-95999220D01*
X121213699Y-95997446D01*
X121207474Y-95995349D01*
X121202865Y-95994303D01*
X121200643Y-95989081D01*
X121203672Y-95981153D01*
X121210665Y-95972416D01*
X121220334Y-95964767D01*
X121231392Y-95960104D01*
X121244130Y-95956452D01*
X121258881Y-95950901D01*
X121259402Y-95950674D01*
X121274295Y-95945470D01*
X121290377Y-95941481D01*
X121298275Y-95940304D01*
X121306764Y-95941062D01*
G37*
G36*
X119022242Y-95786350D02*
G01*
X119043689Y-95790982D01*
X119059173Y-95797484D01*
X119068081Y-95801183D01*
X119084877Y-95801763D01*
X119086879Y-95801431D01*
X119093979Y-95800761D01*
X119093675Y-95801930D01*
X119093424Y-95802046D01*
X119090732Y-95805607D01*
X119096011Y-95811348D01*
X119100940Y-95815856D01*
X119100631Y-95820026D01*
X119093130Y-95826064D01*
X119092591Y-95826442D01*
X119079800Y-95833528D01*
X119065090Y-95839468D01*
X119061519Y-95840530D01*
X119036093Y-95844689D01*
X119009548Y-95844293D01*
X118986529Y-95839350D01*
X118982958Y-95838079D01*
X118965519Y-95832415D01*
X118947878Y-95827314D01*
X118942975Y-95825935D01*
X118926639Y-95820505D01*
X118913617Y-95815070D01*
X118901234Y-95810614D01*
X118886745Y-95808413D01*
X118879385Y-95807353D01*
X118873398Y-95802685D01*
X118874629Y-95796780D01*
X118883619Y-95792407D01*
X118886004Y-95791986D01*
X118898888Y-95790405D01*
X118917789Y-95788636D01*
X118940173Y-95786882D01*
X118963509Y-95785347D01*
X118985266Y-95784233D01*
X118998132Y-95784178D01*
X119022242Y-95786350D01*
G37*
G36*
X117535946Y-94119726D02*
G01*
X117544122Y-94127790D01*
X117555835Y-94136558D01*
X117559351Y-94139217D01*
X117569329Y-94150381D01*
X117577904Y-94164335D01*
X117580453Y-94169228D01*
X117592277Y-94184343D01*
X117609983Y-94196331D01*
X117614189Y-94198700D01*
X117629517Y-94210153D01*
X117638759Y-94221997D01*
X117645520Y-94233969D01*
X117654389Y-94245927D01*
X117659618Y-94253638D01*
X117660479Y-94265789D01*
X117660393Y-94266053D01*
X117653905Y-94273859D01*
X117644186Y-94274803D01*
X117634649Y-94268523D01*
X117630799Y-94264719D01*
X117624533Y-94261513D01*
X117622382Y-94261032D01*
X117613392Y-94255626D01*
X117601364Y-94245823D01*
X117588383Y-94233650D01*
X117576530Y-94221134D01*
X117567891Y-94210302D01*
X117564548Y-94203178D01*
X117562643Y-94198078D01*
X117555201Y-94191412D01*
X117549513Y-94187341D01*
X117545854Y-94181469D01*
X117545854Y-94181429D01*
X117543137Y-94174513D01*
X117536686Y-94164874D01*
X117530269Y-94152345D01*
X117527947Y-94131874D01*
X117528166Y-94123631D01*
X117529045Y-94115616D01*
X117531334Y-94114776D01*
X117535946Y-94119726D01*
G37*
G36*
X120788358Y-94951279D02*
G01*
X120797617Y-94957188D01*
X120804563Y-94962779D01*
X120812207Y-94971875D01*
X120819198Y-94984975D01*
X120827094Y-95004586D01*
X120827739Y-95006213D01*
X120835860Y-95021222D01*
X120846248Y-95034963D01*
X120859870Y-95052575D01*
X120870933Y-95075932D01*
X120878476Y-95105509D01*
X120878778Y-95107203D01*
X120881153Y-95129418D01*
X120881386Y-95153714D01*
X120879745Y-95178191D01*
X120876493Y-95200945D01*
X120871897Y-95220074D01*
X120866221Y-95233677D01*
X120859731Y-95239851D01*
X120856042Y-95240779D01*
X120843347Y-95241836D01*
X120834535Y-95236762D01*
X120826518Y-95224093D01*
X120825005Y-95220991D01*
X120817854Y-95203023D01*
X120812864Y-95185538D01*
X120811694Y-95179833D01*
X120807832Y-95160998D01*
X120804003Y-95142326D01*
X120802061Y-95134246D01*
X120795660Y-95113374D01*
X120787138Y-95089715D01*
X120777884Y-95067006D01*
X120769289Y-95048983D01*
X120765764Y-95040884D01*
X120760922Y-95023975D01*
X120757538Y-95005244D01*
X120756190Y-94988229D01*
X120757454Y-94976464D01*
X120763155Y-94966502D01*
X120773073Y-94956414D01*
X120773916Y-94955801D01*
X120781982Y-94950864D01*
X120788358Y-94951279D01*
G37*
G36*
X120513461Y-94316503D02*
G01*
X120520262Y-94319892D01*
X120529829Y-94322267D01*
X120536050Y-94323446D01*
X120546553Y-94328109D01*
X120551913Y-94330771D01*
X120558244Y-94329913D01*
X120565861Y-94322267D01*
X120566188Y-94321878D01*
X120573728Y-94315002D01*
X120577630Y-94316426D01*
X120579364Y-94319077D01*
X120587010Y-94322267D01*
X120589215Y-94322833D01*
X120597657Y-94328497D01*
X120608336Y-94338259D01*
X120618897Y-94349656D01*
X120626984Y-94360222D01*
X120630241Y-94367495D01*
X120629881Y-94369003D01*
X120624637Y-94376228D01*
X120615118Y-94384968D01*
X120611755Y-94387524D01*
X120601398Y-94394262D01*
X120594652Y-94396990D01*
X120590679Y-94395295D01*
X120581466Y-94388527D01*
X120570111Y-94378348D01*
X120561604Y-94370513D01*
X120551843Y-94362685D01*
X120546180Y-94359655D01*
X120543677Y-94358420D01*
X120541216Y-94351476D01*
X120541112Y-94349694D01*
X120539846Y-94347452D01*
X120536693Y-94353813D01*
X120536050Y-94355260D01*
X120529179Y-94362765D01*
X120521138Y-94363626D01*
X120515162Y-94357318D01*
X120513247Y-94354064D01*
X120506686Y-94350308D01*
X120500647Y-94347886D01*
X120492292Y-94340796D01*
X120486820Y-94333871D01*
X120487181Y-94328581D01*
X120493957Y-94321011D01*
X120498684Y-94316643D01*
X120505767Y-94313471D01*
X120513461Y-94316503D01*
G37*
G36*
X121097873Y-94915825D02*
G01*
X121114573Y-94919969D01*
X121126078Y-94926417D01*
X121130362Y-94934709D01*
X121131035Y-94939541D01*
X121135036Y-94946168D01*
X121137874Y-94950133D01*
X121139709Y-94959740D01*
X121140073Y-94963866D01*
X121144985Y-94973801D01*
X121156617Y-94983091D01*
X121176212Y-94992863D01*
X121187553Y-94998447D01*
X121198481Y-95007638D01*
X121203763Y-95020334D01*
X121205137Y-95039329D01*
X121205364Y-95045892D01*
X121207040Y-95056486D01*
X121209810Y-95060667D01*
X121213836Y-95063270D01*
X121214244Y-95070907D01*
X121210740Y-95080517D01*
X121203968Y-95088971D01*
X121193479Y-95094811D01*
X121179389Y-95097899D01*
X121169550Y-95099607D01*
X121159487Y-95107401D01*
X121154426Y-95113139D01*
X121146680Y-95116748D01*
X121143500Y-95117203D01*
X121139709Y-95120853D01*
X121139484Y-95121347D01*
X121133461Y-95124096D01*
X121120898Y-95127265D01*
X121104035Y-95130264D01*
X121086142Y-95133660D01*
X121067942Y-95138945D01*
X121056133Y-95144704D01*
X121046944Y-95150800D01*
X121037725Y-95153038D01*
X121029530Y-95148082D01*
X121019882Y-95135290D01*
X121007411Y-95116445D01*
X121013084Y-95033643D01*
X121013342Y-95029890D01*
X121015800Y-94995926D01*
X121018162Y-94969999D01*
X121020832Y-94950927D01*
X121024213Y-94937530D01*
X121028709Y-94928627D01*
X121034723Y-94923036D01*
X121042658Y-94919578D01*
X121052919Y-94917072D01*
X121056981Y-94916296D01*
X121078001Y-94914447D01*
X121097873Y-94915825D01*
G37*
G36*
X117389865Y-93402078D02*
G01*
X117395880Y-93405529D01*
X117406402Y-93407147D01*
X117408817Y-93407180D01*
X117418821Y-93411875D01*
X117430763Y-93422328D01*
X117435654Y-93427024D01*
X117449010Y-93436704D01*
X117461130Y-93441909D01*
X117464359Y-93442768D01*
X117477585Y-93449551D01*
X117490356Y-93460020D01*
X117499987Y-93471656D01*
X117503794Y-93481940D01*
X117504546Y-93486528D01*
X117508467Y-93490400D01*
X117511541Y-93493301D01*
X117513141Y-93502083D01*
X117512118Y-93509611D01*
X117507173Y-93513017D01*
X117495615Y-93513735D01*
X117485654Y-93512995D01*
X117476113Y-93508490D01*
X117467235Y-93497762D01*
X117456856Y-93486258D01*
X117439252Y-93477770D01*
X117437114Y-93477204D01*
X117424882Y-93471662D01*
X117417392Y-93464534D01*
X117412487Y-93455277D01*
X117407248Y-93447208D01*
X117403571Y-93445542D01*
X117400039Y-93449009D01*
X117396330Y-93452756D01*
X117393223Y-93449508D01*
X117392911Y-93448841D01*
X117387489Y-93444507D01*
X117380851Y-93444056D01*
X117377612Y-93447950D01*
X117378041Y-93449731D01*
X117383453Y-93454591D01*
X117384626Y-93456249D01*
X117378633Y-93457317D01*
X117371581Y-93456221D01*
X117365578Y-93451448D01*
X117363347Y-93448675D01*
X117355722Y-93447182D01*
X117341189Y-93448718D01*
X117328749Y-93450199D01*
X117319225Y-93449240D01*
X117313431Y-93444825D01*
X117310838Y-93435895D01*
X117315491Y-93428209D01*
X117325652Y-93424972D01*
X117331424Y-93423114D01*
X117339005Y-93415842D01*
X117340633Y-93413625D01*
X117351333Y-93405554D01*
X117365518Y-93400286D01*
X117379569Y-93398800D01*
X117389865Y-93402078D01*
G37*
G36*
X119952868Y-94763518D02*
G01*
X119970352Y-94769686D01*
X119983714Y-94778211D01*
X119987317Y-94782607D01*
X119994868Y-94796120D01*
X120002293Y-94813649D01*
X120008251Y-94831845D01*
X120011401Y-94847359D01*
X120012571Y-94854722D01*
X120019782Y-94870697D01*
X120032194Y-94879424D01*
X120049026Y-94880224D01*
X120066333Y-94880766D01*
X120086229Y-94889115D01*
X120105512Y-94904593D01*
X120122883Y-94926128D01*
X120137039Y-94952651D01*
X120141372Y-94962315D01*
X120147881Y-94974960D01*
X120152739Y-94982209D01*
X120155222Y-94985543D01*
X120158292Y-94995784D01*
X120158823Y-95000006D01*
X120162222Y-95005365D01*
X120165774Y-95008435D01*
X120173550Y-95017239D01*
X120183253Y-95029479D01*
X120188297Y-95036325D01*
X120196024Y-95049210D01*
X120199528Y-95061549D01*
X120200353Y-95077689D01*
X120200014Y-95087732D01*
X120198261Y-95102688D01*
X120195515Y-95112382D01*
X120194529Y-95113928D01*
X120184764Y-95120060D01*
X120169910Y-95121262D01*
X120152575Y-95117239D01*
X120147682Y-95114271D01*
X120137703Y-95104556D01*
X120127972Y-95091535D01*
X120122192Y-95083068D01*
X120114341Y-95073669D01*
X120109107Y-95070014D01*
X120107716Y-95069905D01*
X120104011Y-95068326D01*
X120098553Y-95063801D01*
X120089852Y-95054988D01*
X120076419Y-95040543D01*
X120068848Y-95031873D01*
X120049220Y-95005614D01*
X120033166Y-94978882D01*
X120031523Y-94975769D01*
X120016450Y-94952354D01*
X119999763Y-94934070D01*
X119983251Y-94922921D01*
X119979575Y-94921083D01*
X119967278Y-94912850D01*
X119953925Y-94901768D01*
X119941693Y-94889891D01*
X119932757Y-94879275D01*
X119929295Y-94871975D01*
X119928400Y-94868000D01*
X119922691Y-94860047D01*
X119918365Y-94852975D01*
X119914535Y-94839818D01*
X119912209Y-94824566D01*
X119911922Y-94810855D01*
X119914208Y-94802322D01*
X119914831Y-94801419D01*
X119918666Y-94792106D01*
X119921887Y-94779094D01*
X119924674Y-94767946D01*
X119929450Y-94762714D01*
X119938634Y-94761568D01*
X119952868Y-94763518D01*
G37*
G36*
X121655305Y-98164332D02*
G01*
X121644241Y-98168538D01*
X121626391Y-98170716D01*
X121600484Y-98171616D01*
X121590086Y-98171784D01*
X121562094Y-98172211D01*
X121541832Y-98172624D01*
X121528066Y-98173244D01*
X121519567Y-98174293D01*
X121515100Y-98175990D01*
X121513436Y-98178557D01*
X121513340Y-98182213D01*
X121513582Y-98187180D01*
X121513582Y-98201200D01*
X121433221Y-98201200D01*
X121352861Y-98201200D01*
X121339753Y-98188642D01*
X121334787Y-98183752D01*
X121328123Y-98175842D01*
X121326725Y-98170315D01*
X121331407Y-98166774D01*
X121342983Y-98164823D01*
X121362269Y-98164064D01*
X121390078Y-98164099D01*
X121396450Y-98164145D01*
X121419101Y-98164091D01*
X121437774Y-98163709D01*
X121450678Y-98163052D01*
X121456026Y-98162172D01*
X121455796Y-98159140D01*
X121476195Y-98159140D01*
X121476331Y-98160257D01*
X121480868Y-98163813D01*
X121481985Y-98163677D01*
X121485542Y-98159140D01*
X121485406Y-98158023D01*
X121480868Y-98154466D01*
X121479751Y-98154602D01*
X121476195Y-98159140D01*
X121455796Y-98159140D01*
X121455762Y-98158692D01*
X121450172Y-98151901D01*
X121441226Y-98144379D01*
X121431556Y-98138284D01*
X121423798Y-98135773D01*
X121419241Y-98135622D01*
X121413804Y-98134580D01*
X121407756Y-98131847D01*
X121400073Y-98126628D01*
X121389729Y-98118131D01*
X121375700Y-98105561D01*
X121356961Y-98088123D01*
X121332487Y-98065025D01*
X121332089Y-98064647D01*
X121319776Y-98052030D01*
X121313725Y-98042495D01*
X121314530Y-98035140D01*
X121322786Y-98029062D01*
X121339089Y-98023356D01*
X121364033Y-98017119D01*
X121378912Y-98014282D01*
X121400589Y-98011662D01*
X121418900Y-98011016D01*
X121426018Y-98011110D01*
X121439536Y-98009785D01*
X121445486Y-98006448D01*
X121449030Y-98002768D01*
X121458290Y-97999438D01*
X121466333Y-97995820D01*
X121473183Y-97983887D01*
X121473902Y-97981602D01*
X121479366Y-97967104D01*
X121486129Y-97951899D01*
X121489722Y-97943193D01*
X121494138Y-97924501D01*
X121494899Y-97906321D01*
X121492025Y-97891360D01*
X121485542Y-97882324D01*
X121479891Y-97876735D01*
X121476195Y-97866427D01*
X121474843Y-97859988D01*
X121469185Y-97853678D01*
X121466422Y-97852426D01*
X121462334Y-97847471D01*
X121466616Y-97842530D01*
X121478583Y-97838693D01*
X121480450Y-97838319D01*
X121491625Y-97835029D01*
X121497553Y-97831471D01*
X121497573Y-97831439D01*
X121504203Y-97828358D01*
X121516474Y-97827480D01*
X121530984Y-97828757D01*
X121544328Y-97832141D01*
X121555284Y-97834522D01*
X121572966Y-97831682D01*
X121581259Y-97829331D01*
X121590190Y-97829428D01*
X121597997Y-97834603D01*
X121602246Y-97838191D01*
X121608338Y-97840187D01*
X121615229Y-97835614D01*
X121621482Y-97831105D01*
X121633500Y-97825362D01*
X121640172Y-97822438D01*
X121649289Y-97815429D01*
X121651565Y-97811850D01*
X121649826Y-97807650D01*
X121640365Y-97803469D01*
X121635460Y-97801629D01*
X121628957Y-97797318D01*
X121626271Y-97789865D01*
X121625744Y-97776172D01*
X121625869Y-97767310D01*
X121627499Y-97757507D01*
X121632635Y-97751739D01*
X121643269Y-97746649D01*
X121646258Y-97745411D01*
X121659354Y-97740216D01*
X121668701Y-97736843D01*
X121675840Y-97732328D01*
X121683953Y-97723150D01*
X121684046Y-97723008D01*
X121688400Y-97714675D01*
X121688428Y-97706745D01*
X121684163Y-97694858D01*
X121682624Y-97691501D01*
X121676147Y-97681714D01*
X121670079Y-97677778D01*
X121668181Y-97677469D01*
X121664308Y-97672127D01*
X121663131Y-97659084D01*
X121663237Y-97654898D01*
X121664688Y-97644538D01*
X121667297Y-97640391D01*
X121668530Y-97639842D01*
X121673340Y-97633452D01*
X121678745Y-97622193D01*
X121679657Y-97620023D01*
X121688128Y-97604379D01*
X121697946Y-97591133D01*
X121699677Y-97589211D01*
X121706937Y-97579669D01*
X121709902Y-97573112D01*
X121709959Y-97572485D01*
X121714385Y-97566695D01*
X121723128Y-97561783D01*
X121732309Y-97559395D01*
X121738049Y-97561175D01*
X121743835Y-97562712D01*
X121755540Y-97557743D01*
X121757545Y-97556626D01*
X121767175Y-97552274D01*
X121772268Y-97551686D01*
X121772697Y-97552801D01*
X121773697Y-97561316D01*
X121774486Y-97576294D01*
X121775001Y-97595658D01*
X121775176Y-97617327D01*
X121774949Y-97639222D01*
X121774914Y-97640353D01*
X121773431Y-97650319D01*
X121770603Y-97654411D01*
X121767363Y-97656692D01*
X121763295Y-97664749D01*
X121758251Y-97673902D01*
X121748960Y-97683782D01*
X121741543Y-97692480D01*
X121737906Y-97703821D01*
X121736901Y-97711174D01*
X121733719Y-97715165D01*
X121733088Y-97715548D01*
X121730675Y-97722134D01*
X121728239Y-97735204D01*
X121726222Y-97752553D01*
X121725710Y-97757892D01*
X121723586Y-97774226D01*
X121721230Y-97785644D01*
X121719064Y-97789940D01*
X121717735Y-97792066D01*
X121717016Y-97801157D01*
X121717798Y-97814971D01*
X121718336Y-97832395D01*
X121715569Y-97852966D01*
X121709487Y-97869168D01*
X121700728Y-97878623D01*
X121694673Y-97883682D01*
X121690124Y-97891783D01*
X121689574Y-97898989D01*
X121693946Y-97902102D01*
X121695081Y-97902234D01*
X121699208Y-97907430D01*
X121700519Y-97920796D01*
X121700638Y-97924986D01*
X121702266Y-97935343D01*
X121705192Y-97939489D01*
X121708510Y-97942455D01*
X121709992Y-97951475D01*
X121709176Y-97963405D01*
X121706321Y-97975017D01*
X121701687Y-97983079D01*
X121699392Y-97985243D01*
X121684417Y-97998232D01*
X121667433Y-98011553D01*
X121650691Y-98023574D01*
X121636445Y-98032665D01*
X121626947Y-98037194D01*
X121619076Y-98040115D01*
X121613162Y-98045307D01*
X121614916Y-98049761D01*
X121624630Y-98051651D01*
X121629904Y-98052010D01*
X121642474Y-98057572D01*
X121650769Y-98070443D01*
X121655369Y-98091375D01*
X121656063Y-98097198D01*
X121658623Y-98117514D01*
X121661112Y-98135956D01*
X121662174Y-98146843D01*
X121660859Y-98157350D01*
X121659435Y-98159140D01*
X121655305Y-98164332D01*
G37*
G36*
X121629309Y-96807035D02*
G01*
X121640212Y-96818092D01*
X121648883Y-96837732D01*
X121650107Y-96841319D01*
X121654491Y-96851263D01*
X121657960Y-96855257D01*
X121659382Y-96856029D01*
X121664814Y-96862557D01*
X121671702Y-96873568D01*
X121677615Y-96887380D01*
X121682607Y-96908398D01*
X121686258Y-96936958D01*
X121687476Y-96948505D01*
X121689990Y-96966937D01*
X121692609Y-96980744D01*
X121694934Y-96987580D01*
X121695198Y-96987925D01*
X121698829Y-96995632D01*
X121702285Y-97009242D01*
X121705799Y-97029897D01*
X121709609Y-97058740D01*
X121710825Y-97067377D01*
X121715155Y-97088766D01*
X121720732Y-97108071D01*
X121726791Y-97122891D01*
X121732567Y-97130825D01*
X121734028Y-97132511D01*
X121738727Y-97141051D01*
X121744230Y-97153684D01*
X121746314Y-97159425D01*
X121749077Y-97170564D01*
X121750358Y-97183885D01*
X121750316Y-97201757D01*
X121749109Y-97226550D01*
X121747678Y-97257083D01*
X121747731Y-97282325D01*
X121749733Y-97301690D01*
X121754012Y-97316922D01*
X121760893Y-97329764D01*
X121770703Y-97341959D01*
X121774638Y-97346333D01*
X121788652Y-97364111D01*
X121795744Y-97378664D01*
X121796503Y-97391778D01*
X121791516Y-97405239D01*
X121790859Y-97406512D01*
X121785420Y-97422550D01*
X121783653Y-97438601D01*
X121783854Y-97448209D01*
X121783041Y-97463595D01*
X121781086Y-97475597D01*
X121778375Y-97482228D01*
X121775296Y-97481500D01*
X121773661Y-97479820D01*
X121763136Y-97476239D01*
X121744875Y-97474813D01*
X121742311Y-97474771D01*
X121726685Y-97473621D01*
X121716893Y-97470336D01*
X121709870Y-97463969D01*
X121702368Y-97456801D01*
X121695069Y-97453454D01*
X121694925Y-97453451D01*
X121688783Y-97449393D01*
X121682812Y-97439972D01*
X121682037Y-97438249D01*
X121671195Y-97419983D01*
X121658542Y-97409848D01*
X121642721Y-97406720D01*
X121640043Y-97406772D01*
X121629865Y-97408169D01*
X121625744Y-97410874D01*
X121625327Y-97412396D01*
X121619902Y-97414811D01*
X121605546Y-97414955D01*
X121592766Y-97417478D01*
X121588357Y-97422532D01*
X121586331Y-97426965D01*
X121578431Y-97431593D01*
X121578223Y-97431648D01*
X121571136Y-97435989D01*
X121571105Y-97444989D01*
X121571362Y-97446167D01*
X121573056Y-97457272D01*
X121574972Y-97473988D01*
X121576742Y-97493178D01*
X121577441Y-97507739D01*
X121576283Y-97530836D01*
X121572385Y-97549170D01*
X121566135Y-97561257D01*
X121557917Y-97565616D01*
X121556019Y-97565926D01*
X121552146Y-97571267D01*
X121550969Y-97584310D01*
X121550969Y-97603003D01*
X121569663Y-97603003D01*
X121588357Y-97603003D01*
X121588357Y-97584310D01*
X121588484Y-97578935D01*
X121590492Y-97568703D01*
X121595367Y-97565616D01*
X121599028Y-97567111D01*
X121601626Y-97574289D01*
X121602377Y-97588983D01*
X121601928Y-97601188D01*
X121599775Y-97609849D01*
X121595367Y-97612350D01*
X121592147Y-97612839D01*
X121588357Y-97616695D01*
X121587134Y-97617533D01*
X121578467Y-97619120D01*
X121562771Y-97620566D01*
X121541572Y-97621746D01*
X121516395Y-97622536D01*
X121499992Y-97622918D01*
X121476023Y-97623759D01*
X121459085Y-97624930D01*
X121447673Y-97626609D01*
X121440283Y-97628977D01*
X121435411Y-97632212D01*
X121427004Y-97637328D01*
X121413904Y-97640391D01*
X121405444Y-97641551D01*
X121401420Y-97644749D01*
X121400084Y-97647839D01*
X121391232Y-97652243D01*
X121375254Y-97654764D01*
X121353518Y-97655106D01*
X121342818Y-97655061D01*
X121330986Y-97656338D01*
X121326646Y-97659024D01*
X121326459Y-97659781D01*
X121321144Y-97660500D01*
X121309718Y-97656810D01*
X121306416Y-97655449D01*
X121295863Y-97651377D01*
X121290440Y-97649738D01*
X121289546Y-97646003D01*
X121290704Y-97636666D01*
X121291308Y-97633365D01*
X121291513Y-97623934D01*
X121287401Y-97617250D01*
X121277372Y-97611711D01*
X121259826Y-97605711D01*
X121252103Y-97603073D01*
X121235425Y-97595102D01*
X121225730Y-97586635D01*
X121219629Y-97580168D01*
X121210438Y-97578118D01*
X121204749Y-97578067D01*
X121196060Y-97572951D01*
X121190032Y-97568500D01*
X121178672Y-97565616D01*
X121178310Y-97565613D01*
X121166080Y-97562489D01*
X121153500Y-97555092D01*
X121143674Y-97545726D01*
X121139709Y-97536697D01*
X121136850Y-97530219D01*
X121126976Y-97528229D01*
X121125414Y-97528172D01*
X121112703Y-97523488D01*
X121098547Y-97510704D01*
X121093092Y-97504437D01*
X121086547Y-97494672D01*
X121084580Y-97484842D01*
X121085794Y-97470552D01*
X121086207Y-97466996D01*
X121086445Y-97451040D01*
X121083533Y-97441656D01*
X121083513Y-97441632D01*
X121082114Y-97432927D01*
X121088360Y-97419348D01*
X121102322Y-97400744D01*
X121108614Y-97390777D01*
X121114317Y-97377688D01*
X121114349Y-97377593D01*
X121120522Y-97365775D01*
X121128337Y-97357974D01*
X121129708Y-97357197D01*
X121140334Y-97350541D01*
X121152684Y-97342141D01*
X121154732Y-97340741D01*
X121168277Y-97333271D01*
X121180279Y-97329054D01*
X121191674Y-97325713D01*
X121207219Y-97318899D01*
X121223305Y-97310191D01*
X121237637Y-97300957D01*
X121247921Y-97292564D01*
X121251863Y-97286380D01*
X121252196Y-97284229D01*
X121256544Y-97280538D01*
X121259707Y-97277236D01*
X121261218Y-97268097D01*
X121262615Y-97260158D01*
X121268085Y-97245735D01*
X121276054Y-97230165D01*
X121284754Y-97216801D01*
X121292413Y-97208997D01*
X121296920Y-97204197D01*
X121304340Y-97193105D01*
X121312463Y-97178620D01*
X121321413Y-97162647D01*
X121334490Y-97145312D01*
X121348549Y-97134647D01*
X121365201Y-97129143D01*
X121368465Y-97128479D01*
X121378631Y-97125458D01*
X121382727Y-97122571D01*
X121382818Y-97121963D01*
X121385168Y-97119404D01*
X121391817Y-97115838D01*
X121404266Y-97110546D01*
X121424012Y-97102811D01*
X121432733Y-97098597D01*
X121440160Y-97091428D01*
X121444380Y-97080431D01*
X121446012Y-97063800D01*
X121445678Y-97039726D01*
X121445585Y-97024413D01*
X121448211Y-96998984D01*
X121454196Y-96979541D01*
X121463150Y-96967117D01*
X121474684Y-96962746D01*
X121475529Y-96962739D01*
X121490209Y-96960175D01*
X121499374Y-96953827D01*
X121501152Y-96944955D01*
X121501161Y-96939121D01*
X121506247Y-96930302D01*
X121511399Y-96921702D01*
X121513582Y-96909304D01*
X121514008Y-96904991D01*
X121520246Y-96890630D01*
X121532045Y-96876669D01*
X121546989Y-96865105D01*
X121562660Y-96857938D01*
X121576639Y-96857168D01*
X121578265Y-96857554D01*
X121586194Y-96857683D01*
X121588357Y-96852357D01*
X121586824Y-96846661D01*
X121580178Y-96838247D01*
X121577269Y-96835879D01*
X121574565Y-96831204D01*
X121579420Y-96826049D01*
X121583325Y-96821788D01*
X121585071Y-96814960D01*
X121584936Y-96813465D01*
X121589744Y-96808722D01*
X121601102Y-96805287D01*
X121616841Y-96803914D01*
X121629309Y-96807035D01*
G37*
G36*
X121301098Y-95257288D02*
G01*
X121319791Y-95262558D01*
X121342149Y-95273393D01*
X121366209Y-95288734D01*
X121390008Y-95307523D01*
X121402822Y-95317970D01*
X121419946Y-95328384D01*
X121434039Y-95331725D01*
X121435090Y-95331739D01*
X121454158Y-95336234D01*
X121472791Y-95347327D01*
X121488804Y-95362917D01*
X121500013Y-95380905D01*
X121504235Y-95399193D01*
X121505970Y-95408009D01*
X121511574Y-95422586D01*
X121519708Y-95438427D01*
X121531277Y-95459774D01*
X121549527Y-95503394D01*
X121563037Y-95552288D01*
X121566565Y-95569130D01*
X121568396Y-95582467D01*
X121568135Y-95594418D01*
X121565686Y-95608458D01*
X121560954Y-95628062D01*
X121555242Y-95652155D01*
X121552139Y-95669819D01*
X121551593Y-95683240D01*
X121553509Y-95694772D01*
X121557793Y-95706767D01*
X121560817Y-95714958D01*
X121564577Y-95734773D01*
X121563512Y-95757246D01*
X121557617Y-95785046D01*
X121553399Y-95800501D01*
X121550017Y-95812051D01*
X121548239Y-95817061D01*
X121548145Y-95817160D01*
X121543906Y-95815499D01*
X121536556Y-95808378D01*
X121528091Y-95797993D01*
X121520506Y-95786538D01*
X121517934Y-95782490D01*
X121510239Y-95774569D01*
X121498436Y-95768063D01*
X121479987Y-95761395D01*
X121478083Y-95760791D01*
X121450923Y-95754261D01*
X121430565Y-95753807D01*
X121416293Y-95756129D01*
X121395529Y-95760425D01*
X121380396Y-95765434D01*
X121368491Y-95772054D01*
X121357410Y-95781185D01*
X121348891Y-95787460D01*
X121337254Y-95792743D01*
X121330603Y-95795859D01*
X121326646Y-95801909D01*
X121324334Y-95806003D01*
X121315897Y-95808413D01*
X121308478Y-95809522D01*
X121299360Y-95814200D01*
X121295927Y-95816974D01*
X121287910Y-95820189D01*
X121279071Y-95820937D01*
X121261043Y-95824614D01*
X121245234Y-95830274D01*
X121235206Y-95836794D01*
X121226971Y-95842575D01*
X121214259Y-95845800D01*
X121204973Y-95847573D01*
X121198862Y-95852579D01*
X121195881Y-95856097D01*
X121186067Y-95862784D01*
X121172356Y-95869642D01*
X121162709Y-95874254D01*
X121154535Y-95879745D01*
X121153767Y-95883211D01*
X121155757Y-95886338D01*
X121156643Y-95895633D01*
X121155303Y-95906963D01*
X121152302Y-95916540D01*
X121148202Y-95920575D01*
X121144345Y-95921855D01*
X121136705Y-95927585D01*
X121131885Y-95931828D01*
X121124180Y-95933971D01*
X121116568Y-95927858D01*
X121116026Y-95927268D01*
X121105780Y-95922845D01*
X121087804Y-95921648D01*
X121079447Y-95921674D01*
X121067713Y-95920028D01*
X121057941Y-95914728D01*
X121046089Y-95904070D01*
X121038730Y-95896396D01*
X121030677Y-95886390D01*
X121027547Y-95880065D01*
X121027073Y-95877990D01*
X121022233Y-95869355D01*
X121013851Y-95858566D01*
X121010168Y-95854170D01*
X121003800Y-95843560D01*
X121004427Y-95836205D01*
X121006652Y-95827277D01*
X121006037Y-95814879D01*
X121005368Y-95808431D01*
X121006809Y-95801617D01*
X121011689Y-95793718D01*
X121021136Y-95782969D01*
X121036282Y-95767603D01*
X121054503Y-95750546D01*
X121071600Y-95737549D01*
X121084472Y-95731834D01*
X121092295Y-95729478D01*
X121109642Y-95721178D01*
X121128577Y-95709251D01*
X121145874Y-95695602D01*
X121154288Y-95690193D01*
X121172684Y-95684371D01*
X121195206Y-95682162D01*
X121199038Y-95681880D01*
X121211938Y-95679507D01*
X121227974Y-95675455D01*
X121244075Y-95670614D01*
X121257166Y-95665878D01*
X121264175Y-95662137D01*
X121265626Y-95661323D01*
X121274478Y-95659564D01*
X121287606Y-95658864D01*
X121301235Y-95658006D01*
X121326136Y-95651190D01*
X121350448Y-95636925D01*
X121375716Y-95614431D01*
X121379529Y-95610575D01*
X121394121Y-95596537D01*
X121407235Y-95584920D01*
X121416416Y-95577924D01*
X121424323Y-95571311D01*
X121433849Y-95554987D01*
X121437300Y-95534840D01*
X121433966Y-95513478D01*
X121432232Y-95508706D01*
X121426732Y-95497558D01*
X121421703Y-95492024D01*
X121417303Y-95488398D01*
X121409145Y-95478758D01*
X121399760Y-95465648D01*
X121392156Y-95454779D01*
X121381632Y-95441235D01*
X121373337Y-95432203D01*
X121372498Y-95431419D01*
X121364188Y-95422204D01*
X121353096Y-95408329D01*
X121341380Y-95392479D01*
X121330946Y-95377912D01*
X121320469Y-95363972D01*
X121313202Y-95355593D01*
X121308003Y-95351500D01*
X121303732Y-95350418D01*
X121303057Y-95350480D01*
X121296861Y-95355514D01*
X121290879Y-95366556D01*
X121286368Y-95380682D01*
X121284585Y-95394967D01*
X121284583Y-95395317D01*
X121282819Y-95409576D01*
X121278364Y-95428051D01*
X121272131Y-95448068D01*
X121265035Y-95466951D01*
X121257988Y-95482027D01*
X121251905Y-95490621D01*
X121244655Y-95498633D01*
X121237095Y-95510456D01*
X121235224Y-95513446D01*
X121225484Y-95523746D01*
X121211448Y-95535046D01*
X121195853Y-95545455D01*
X121181440Y-95553085D01*
X121170950Y-95556049D01*
X121165028Y-95556721D01*
X121156132Y-95559291D01*
X121143199Y-95564329D01*
X121124785Y-95572400D01*
X121099447Y-95584070D01*
X121094293Y-95586444D01*
X121084868Y-95590402D01*
X121075560Y-95593360D01*
X121064794Y-95595526D01*
X121050992Y-95597108D01*
X121032577Y-95598316D01*
X121007973Y-95599358D01*
X120975602Y-95600441D01*
X120970739Y-95600602D01*
X120941187Y-95601836D01*
X120914298Y-95603369D01*
X120891743Y-95605079D01*
X120875192Y-95606842D01*
X120866314Y-95608535D01*
X120851063Y-95616940D01*
X120834361Y-95630552D01*
X120819555Y-95646312D01*
X120809879Y-95661200D01*
X120808770Y-95663580D01*
X120804902Y-95669552D01*
X120803406Y-95667042D01*
X120802327Y-95662709D01*
X120796797Y-95658864D01*
X120794245Y-95658372D01*
X120789146Y-95651257D01*
X120787695Y-95635891D01*
X120789894Y-95612539D01*
X120795748Y-95581467D01*
X120798454Y-95569314D01*
X120802973Y-95550864D01*
X120807351Y-95537856D01*
X120812765Y-95527822D01*
X120820395Y-95518300D01*
X120831417Y-95506823D01*
X120831994Y-95506241D01*
X120846268Y-95493053D01*
X120860102Y-95482188D01*
X120870579Y-95475946D01*
X120877411Y-95472756D01*
X120892079Y-95464598D01*
X120907330Y-95454939D01*
X120916884Y-95448777D01*
X120930447Y-95441067D01*
X120940044Y-95436858D01*
X120947213Y-95434646D01*
X120959783Y-95430057D01*
X120963038Y-95428767D01*
X120974894Y-95424311D01*
X120991784Y-95418125D01*
X121011190Y-95411134D01*
X121019803Y-95407966D01*
X121040164Y-95399821D01*
X121057789Y-95391929D01*
X121069608Y-95385631D01*
X121097222Y-95368882D01*
X121122765Y-95355805D01*
X121148119Y-95345648D01*
X121164591Y-95338448D01*
X121184488Y-95325505D01*
X121199446Y-95310608D01*
X121207336Y-95295560D01*
X121210055Y-95288390D01*
X121213030Y-95286653D01*
X121218513Y-95286667D01*
X121227991Y-95282771D01*
X121231068Y-95281126D01*
X121249725Y-95272164D01*
X121268714Y-95264430D01*
X121285186Y-95259000D01*
X121296292Y-95256950D01*
X121301098Y-95257288D01*
G37*
G36*
X121627279Y-96330710D02*
G01*
X121627142Y-96331492D01*
X121624130Y-96342522D01*
X121620554Y-96348511D01*
X121617733Y-96353756D01*
X121616397Y-96364182D01*
X121616244Y-96366491D01*
X121611236Y-96380903D01*
X121599696Y-96399509D01*
X121582363Y-96421076D01*
X121578242Y-96426009D01*
X121572406Y-96433992D01*
X121569436Y-96440937D01*
X121564947Y-96454791D01*
X121560047Y-96472084D01*
X121555544Y-96489783D01*
X121552248Y-96504856D01*
X121550969Y-96514271D01*
X121547291Y-96530079D01*
X121535335Y-96550114D01*
X121515407Y-96572782D01*
X121508046Y-96580527D01*
X121498562Y-96593320D01*
X121496993Y-96601637D01*
X121497891Y-96610462D01*
X121496223Y-96626041D01*
X121492322Y-96644875D01*
X121486798Y-96664083D01*
X121480260Y-96680786D01*
X121475111Y-96690574D01*
X121467191Y-96700789D01*
X121456312Y-96708763D01*
X121440414Y-96715901D01*
X121417440Y-96723604D01*
X121396947Y-96730986D01*
X121383162Y-96738740D01*
X121373808Y-96748189D01*
X121373322Y-96748848D01*
X121367066Y-96758411D01*
X121366304Y-96764491D01*
X121370526Y-96770565D01*
X121371530Y-96771708D01*
X121373385Y-96774945D01*
X121371452Y-96777060D01*
X121364341Y-96778362D01*
X121350663Y-96779158D01*
X121329028Y-96779757D01*
X121319711Y-96779983D01*
X121300691Y-96780704D01*
X121288023Y-96782019D01*
X121279535Y-96784445D01*
X121273054Y-96788500D01*
X121266410Y-96794703D01*
X121263437Y-96797478D01*
X121252215Y-96805357D01*
X121242884Y-96808523D01*
X121237109Y-96809393D01*
X121233177Y-96812928D01*
X121232474Y-96814157D01*
X121225447Y-96817166D01*
X121213315Y-96819278D01*
X121210614Y-96819524D01*
X121183440Y-96819290D01*
X121163302Y-96813243D01*
X121149766Y-96801160D01*
X121142400Y-96782819D01*
X121141765Y-96778301D01*
X121142854Y-96768776D01*
X121148009Y-96757104D01*
X121158176Y-96740759D01*
X121158486Y-96740293D01*
X121167759Y-96724927D01*
X121174391Y-96711360D01*
X121176964Y-96702479D01*
X121177950Y-96695871D01*
X121181770Y-96689351D01*
X121183263Y-96687249D01*
X121185545Y-96677782D01*
X121186443Y-96664054D01*
X121186823Y-96654247D01*
X121190157Y-96640431D01*
X121198127Y-96629038D01*
X121199707Y-96627293D01*
X121206891Y-96618073D01*
X121209810Y-96611999D01*
X121210599Y-96609962D01*
X121216820Y-96607566D01*
X121220066Y-96606902D01*
X121223916Y-96601725D01*
X121224573Y-96598894D01*
X121228823Y-96590063D01*
X121235534Y-96579047D01*
X121242955Y-96568434D01*
X121249338Y-96560815D01*
X121252932Y-96558778D01*
X121253343Y-96558635D01*
X121254878Y-96552728D01*
X121256649Y-96540195D01*
X121258351Y-96523054D01*
X121259213Y-96512194D01*
X121259935Y-96497005D01*
X121259121Y-96487542D01*
X121256425Y-96481455D01*
X121251504Y-96476392D01*
X121241489Y-96467707D01*
X121258363Y-96459660D01*
X121261917Y-96457880D01*
X121271424Y-96452028D01*
X121275238Y-96447805D01*
X121277677Y-96445400D01*
X121286026Y-96443997D01*
X121292118Y-96442763D01*
X121299204Y-96436282D01*
X121306673Y-96422568D01*
X121316532Y-96401139D01*
X121300355Y-96394380D01*
X121298272Y-96393454D01*
X121287271Y-96386616D01*
X121281245Y-96379590D01*
X121280524Y-96377986D01*
X121274154Y-96368736D01*
X121264634Y-96358230D01*
X121260385Y-96353861D01*
X121254710Y-96345391D01*
X121256087Y-96339770D01*
X121257148Y-96338291D01*
X121258424Y-96334078D01*
X121365031Y-96334078D01*
X121365591Y-96339624D01*
X121366996Y-96340355D01*
X121368706Y-96336508D01*
X121368388Y-96334172D01*
X121387664Y-96334172D01*
X121388096Y-96336508D01*
X121389621Y-96344750D01*
X121394241Y-96357539D01*
X121400661Y-96371559D01*
X121401041Y-96358599D01*
X121401593Y-96350897D01*
X121404399Y-96348351D01*
X121411999Y-96352571D01*
X121419923Y-96356073D01*
X121432518Y-96355202D01*
X121442397Y-96347065D01*
X121447280Y-96332930D01*
X121447599Y-96327164D01*
X121445202Y-96318215D01*
X121436763Y-96312424D01*
X121429246Y-96310606D01*
X121415517Y-96311980D01*
X121401976Y-96317267D01*
X121391674Y-96325115D01*
X121387664Y-96334172D01*
X121368388Y-96334172D01*
X121368369Y-96334034D01*
X121365591Y-96333393D01*
X121365031Y-96334078D01*
X121258424Y-96334078D01*
X121260052Y-96328704D01*
X121261218Y-96315294D01*
X121260587Y-96304003D01*
X121257175Y-96295747D01*
X121249314Y-96290525D01*
X121239288Y-96287077D01*
X121226690Y-96285101D01*
X121220458Y-96283683D01*
X121212559Y-96276648D01*
X121203543Y-96262270D01*
X121202668Y-96260656D01*
X121194763Y-96244434D01*
X121191842Y-96232261D01*
X121193694Y-96220709D01*
X121200109Y-96206348D01*
X121202134Y-96202640D01*
X121209793Y-96192086D01*
X121220780Y-96181773D01*
X121236418Y-96170731D01*
X121258025Y-96157991D01*
X121286922Y-96142582D01*
X121295344Y-96138180D01*
X121315460Y-96126973D01*
X121330900Y-96116740D01*
X121344567Y-96105412D01*
X121359359Y-96090920D01*
X121364576Y-96085814D01*
X121375262Y-96075749D01*
X121387943Y-96064071D01*
X121391137Y-96061161D01*
X121412094Y-96042011D01*
X121427101Y-96028041D01*
X121437020Y-96018278D01*
X121442712Y-96011749D01*
X121445039Y-96007481D01*
X121444863Y-96004501D01*
X121443046Y-96001835D01*
X121442923Y-96001686D01*
X121440548Y-95996606D01*
X121446414Y-95995194D01*
X121450743Y-95994572D01*
X121462620Y-95988508D01*
X121472235Y-95978517D01*
X121476195Y-95967728D01*
X121477127Y-95961894D01*
X121480868Y-95957962D01*
X121481916Y-95957485D01*
X121484505Y-95950974D01*
X121485542Y-95939268D01*
X121485422Y-95935078D01*
X121483795Y-95924721D01*
X121480868Y-95920575D01*
X121479467Y-95920336D01*
X121476195Y-95915406D01*
X121476193Y-95915302D01*
X121472687Y-95908962D01*
X121464511Y-95901046D01*
X121461745Y-95898789D01*
X121454036Y-95890201D01*
X121454958Y-95884961D01*
X121464511Y-95883187D01*
X121472200Y-95884519D01*
X121476195Y-95888543D01*
X121476520Y-95889419D01*
X121480782Y-95887769D01*
X121488407Y-95880722D01*
X121488906Y-95880184D01*
X121496877Y-95872412D01*
X121501459Y-95871092D01*
X121505051Y-95875464D01*
X121508297Y-95879554D01*
X121513414Y-95880955D01*
X121514242Y-95880750D01*
X121518315Y-95884719D01*
X121522687Y-95894106D01*
X121526177Y-95905903D01*
X121527602Y-95917098D01*
X121527683Y-95918934D01*
X121529234Y-95929833D01*
X121532267Y-95945072D01*
X121536138Y-95961948D01*
X121540198Y-95977756D01*
X121543803Y-95989791D01*
X121546304Y-95995349D01*
X121546529Y-95995559D01*
X121550287Y-96001744D01*
X121555116Y-96012413D01*
X121555737Y-96013885D01*
X121562949Y-96026389D01*
X121572041Y-96037192D01*
X121580879Y-96044134D01*
X121587331Y-96045054D01*
X121587341Y-96045048D01*
X121593191Y-96046212D01*
X121601151Y-96052743D01*
X121604043Y-96056011D01*
X121614772Y-96071277D01*
X121621857Y-96088715D01*
X121626026Y-96110679D01*
X121628008Y-96139523D01*
X121628227Y-96145176D01*
X121629773Y-96172160D01*
X121632022Y-96200301D01*
X121634567Y-96224347D01*
X121635990Y-96237133D01*
X121637180Y-96265771D01*
X121634716Y-96289774D01*
X121632884Y-96299550D01*
X121629662Y-96317164D01*
X121627903Y-96327164D01*
X121627279Y-96330710D01*
G37*
G36*
X119266131Y-96719729D02*
G01*
X119282755Y-96722523D01*
X119294153Y-96729911D01*
X119298384Y-96740643D01*
X119299754Y-96748402D01*
X119305620Y-96752442D01*
X119307952Y-96752716D01*
X119318419Y-96755884D01*
X119331524Y-96761462D01*
X119335044Y-96763099D01*
X119351097Y-96769471D01*
X119365181Y-96773650D01*
X119378236Y-96778417D01*
X119390684Y-96786475D01*
X119394904Y-96790946D01*
X119398868Y-96798650D01*
X119400733Y-96810125D01*
X119401199Y-96828147D01*
X119401207Y-96832775D01*
X119401624Y-96848032D01*
X119403241Y-96856860D01*
X119406836Y-96861632D01*
X119413187Y-96864720D01*
X119423173Y-96867525D01*
X119437396Y-96869278D01*
X119440807Y-96869615D01*
X119453334Y-96875627D01*
X119468637Y-96889618D01*
X119479170Y-96899875D01*
X119494371Y-96909899D01*
X119513361Y-96916313D01*
X119524458Y-96919638D01*
X119544054Y-96929306D01*
X119564533Y-96945043D01*
X119565325Y-96945735D01*
X119579167Y-96956686D01*
X119591382Y-96964462D01*
X119599407Y-96967419D01*
X119604748Y-96968976D01*
X119615705Y-96975736D01*
X119627779Y-96986034D01*
X119631767Y-96989831D01*
X119644640Y-96999809D01*
X119659239Y-97006606D01*
X119679364Y-97012147D01*
X119697140Y-97016480D01*
X119712857Y-97020751D01*
X119722865Y-97023977D01*
X119728737Y-97025317D01*
X119745487Y-97024938D01*
X119770390Y-97020884D01*
X119773480Y-97020273D01*
X119792654Y-97017064D01*
X119809354Y-97015167D01*
X119820261Y-97014975D01*
X119821767Y-97015158D01*
X119829543Y-97017339D01*
X119832819Y-97023049D01*
X119833490Y-97035184D01*
X119833490Y-97053877D01*
X119882561Y-97052573D01*
X119897295Y-97051967D01*
X119917339Y-97050427D01*
X119933055Y-97048365D01*
X119941934Y-97046056D01*
X119950176Y-97043635D01*
X119961979Y-97044321D01*
X119979628Y-97048528D01*
X119992331Y-97051838D01*
X120014233Y-97055637D01*
X120028406Y-97054758D01*
X120035094Y-97049204D01*
X120040740Y-97044280D01*
X120052472Y-97042026D01*
X120066761Y-97038752D01*
X120080615Y-97030855D01*
X120087226Y-97025013D01*
X120091464Y-97018417D01*
X120092366Y-97009269D01*
X120090868Y-96994231D01*
X120089871Y-96981203D01*
X120092141Y-96965993D01*
X120100020Y-96956346D01*
X120114457Y-96950504D01*
X120127736Y-96950064D01*
X120144361Y-96953345D01*
X120161139Y-96959246D01*
X120174912Y-96966654D01*
X120182523Y-96974459D01*
X120183806Y-96976986D01*
X120194933Y-96988149D01*
X120212626Y-96993361D01*
X120237324Y-96992770D01*
X120247674Y-96991207D01*
X120263829Y-96987649D01*
X120275128Y-96983776D01*
X120282161Y-96981155D01*
X120297273Y-96977420D01*
X120314548Y-96974580D01*
X120318436Y-96974095D01*
X120339659Y-96970603D01*
X120355117Y-96965706D01*
X120367920Y-96958088D01*
X120381181Y-96946434D01*
X120387292Y-96940873D01*
X120397639Y-96933088D01*
X120404528Y-96930032D01*
X120406738Y-96929770D01*
X120417885Y-96925061D01*
X120432278Y-96915662D01*
X120447387Y-96903160D01*
X120448132Y-96902476D01*
X120456549Y-96895478D01*
X120461578Y-96892542D01*
X120463517Y-96891153D01*
X120469652Y-96883949D01*
X120477769Y-96872680D01*
X120482079Y-96866782D01*
X120494071Y-96853264D01*
X120505460Y-96843574D01*
X120505937Y-96843256D01*
X120517313Y-96832114D01*
X120524971Y-96818618D01*
X120525238Y-96817842D01*
X120531215Y-96805672D01*
X120539662Y-96793533D01*
X120548377Y-96784209D01*
X120555157Y-96780483D01*
X120557066Y-96781810D01*
X120562051Y-96789119D01*
X120567694Y-96799904D01*
X120572313Y-96810811D01*
X120574226Y-96818491D01*
X120574243Y-96818884D01*
X120576328Y-96826803D01*
X120580839Y-96838194D01*
X120582950Y-96843849D01*
X120586981Y-96859977D01*
X120589498Y-96877441D01*
X120592009Y-96893240D01*
X120598370Y-96909841D01*
X120609984Y-96928849D01*
X120619520Y-96943337D01*
X120628375Y-96957945D01*
X120633786Y-96968254D01*
X120639606Y-96976677D01*
X120650983Y-96988287D01*
X120665105Y-96999947D01*
X120665264Y-97000064D01*
X120678265Y-97010622D01*
X120687530Y-97019930D01*
X120691061Y-97025984D01*
X120691561Y-97029072D01*
X120695708Y-97032847D01*
X120700347Y-97035277D01*
X120709747Y-97042783D01*
X120721402Y-97053597D01*
X120732613Y-97065104D01*
X120738412Y-97073095D01*
X120739634Y-97079720D01*
X120737461Y-97087471D01*
X120730970Y-97100644D01*
X120720500Y-97112602D01*
X120709307Y-97116968D01*
X120704713Y-97117615D01*
X120698030Y-97121709D01*
X120688574Y-97130475D01*
X120671255Y-97138129D01*
X120648607Y-97143184D01*
X120622673Y-97145009D01*
X120606462Y-97144693D01*
X120589414Y-97142748D01*
X120573766Y-97138130D01*
X120554981Y-97129820D01*
X120538044Y-97120807D01*
X120523523Y-97109663D01*
X120515761Y-97097528D01*
X120513400Y-97082866D01*
X120512455Y-97075308D01*
X120505375Y-97063140D01*
X120492869Y-97056169D01*
X120476726Y-97054719D01*
X120458732Y-97059115D01*
X120440676Y-97069681D01*
X120439737Y-97070409D01*
X120429941Y-97076911D01*
X120423246Y-97079581D01*
X120419223Y-97080705D01*
X120411025Y-97085992D01*
X120407423Y-97088551D01*
X120395431Y-97094596D01*
X120379946Y-97100683D01*
X120363955Y-97105804D01*
X120350444Y-97108953D01*
X120342401Y-97109123D01*
X120336161Y-97108661D01*
X120323322Y-97111715D01*
X120309014Y-97117910D01*
X120296837Y-97125917D01*
X120289607Y-97129626D01*
X120273151Y-97133693D01*
X120250103Y-97136615D01*
X120226666Y-97138676D01*
X120200992Y-97140990D01*
X120179017Y-97143023D01*
X120176586Y-97143246D01*
X120156813Y-97144256D01*
X120142925Y-97142893D01*
X120131992Y-97138899D01*
X120122433Y-97135465D01*
X120103147Y-97132587D01*
X120075699Y-97131656D01*
X120068400Y-97131616D01*
X120047539Y-97131097D01*
X120029511Y-97130104D01*
X120017572Y-97128799D01*
X120007443Y-97128137D01*
X119993964Y-97131146D01*
X119976420Y-97139161D01*
X119973870Y-97140478D01*
X119957060Y-97147842D01*
X119941765Y-97150968D01*
X119922675Y-97151028D01*
X119903283Y-97150173D01*
X119879613Y-97149224D01*
X119856857Y-97148391D01*
X119853146Y-97148233D01*
X119829292Y-97145560D01*
X119810500Y-97140527D01*
X119798186Y-97133649D01*
X119793766Y-97125442D01*
X119792292Y-97123962D01*
X119783523Y-97123003D01*
X119768377Y-97124142D01*
X119757179Y-97125192D01*
X119741158Y-97124348D01*
X119727484Y-97119515D01*
X119723034Y-97117488D01*
X119706733Y-97111750D01*
X119689438Y-97107388D01*
X119670732Y-97102865D01*
X119640680Y-97090088D01*
X119614786Y-97070610D01*
X119608887Y-97065052D01*
X119596353Y-97053268D01*
X119586746Y-97044265D01*
X119585252Y-97042941D01*
X119573102Y-97034314D01*
X119558927Y-97026521D01*
X119554938Y-97024523D01*
X119545250Y-97018074D01*
X119541348Y-97012766D01*
X119541116Y-97011752D01*
X119535388Y-97006019D01*
X119523952Y-96999282D01*
X119509455Y-96992924D01*
X119494541Y-96988325D01*
X119493946Y-96988175D01*
X119483147Y-96982102D01*
X119473511Y-96971861D01*
X119464108Y-96961989D01*
X119454406Y-96958086D01*
X119444810Y-96955828D01*
X119433375Y-96949521D01*
X119423933Y-96943051D01*
X119414975Y-96938339D01*
X119413256Y-96937285D01*
X119406546Y-96929546D01*
X119398481Y-96917089D01*
X119390696Y-96902827D01*
X119384826Y-96889670D01*
X119382506Y-96880530D01*
X119381659Y-96877426D01*
X119375391Y-96873951D01*
X119370766Y-96872386D01*
X119360553Y-96865875D01*
X119348519Y-96856027D01*
X119340060Y-96848717D01*
X119328475Y-96839826D01*
X119320583Y-96835143D01*
X119316242Y-96832473D01*
X119312405Y-96825027D01*
X119311682Y-96821642D01*
X119306367Y-96817870D01*
X119303785Y-96817272D01*
X119294660Y-96811141D01*
X119283406Y-96800198D01*
X119272002Y-96786702D01*
X119262426Y-96772913D01*
X119256657Y-96761091D01*
X119253998Y-96749368D01*
X119254000Y-96734381D01*
X119258123Y-96723762D01*
X119265873Y-96719728D01*
X119266131Y-96719729D01*
G37*
G36*
X120637404Y-96019290D02*
G01*
X120640277Y-96039747D01*
X120640535Y-96041585D01*
X120642406Y-96053464D01*
X120643748Y-96070042D01*
X120642404Y-96084802D01*
X120638198Y-96102356D01*
X120634720Y-96115922D01*
X120631504Y-96131237D01*
X120630235Y-96141323D01*
X120629526Y-96149326D01*
X120623902Y-96159494D01*
X120611079Y-96165139D01*
X120605640Y-96165685D01*
X120593054Y-96162182D01*
X120583005Y-96153946D01*
X120578899Y-96143290D01*
X120578804Y-96142075D01*
X120573376Y-96133398D01*
X120561194Y-96125372D01*
X120544468Y-96119524D01*
X120540698Y-96118958D01*
X120527734Y-96121174D01*
X120517578Y-96128391D01*
X120513472Y-96138613D01*
X120513065Y-96141169D01*
X120508798Y-96144899D01*
X120507702Y-96144789D01*
X120504125Y-96140965D01*
X120502851Y-96139103D01*
X120495085Y-96134968D01*
X120482949Y-96130770D01*
X120469577Y-96127514D01*
X120458106Y-96126205D01*
X120450291Y-96128832D01*
X120445169Y-96139057D01*
X120441876Y-96149102D01*
X120436700Y-96158919D01*
X120435550Y-96160605D01*
X120430321Y-96171054D01*
X120425139Y-96184623D01*
X120420292Y-96197999D01*
X120412302Y-96213108D01*
X120402704Y-96221929D01*
X120389930Y-96226318D01*
X120386422Y-96227061D01*
X120375463Y-96231983D01*
X120370448Y-96240969D01*
X120369517Y-96246055D01*
X120371738Y-96257523D01*
X120381355Y-96263358D01*
X120398252Y-96263466D01*
X120405045Y-96262971D01*
X120425271Y-96264271D01*
X120447867Y-96268675D01*
X120453004Y-96269928D01*
X120476674Y-96274343D01*
X120504434Y-96277939D01*
X120533632Y-96280520D01*
X120561616Y-96281888D01*
X120585733Y-96281848D01*
X120603331Y-96280203D01*
X120607692Y-96279485D01*
X120623311Y-96278612D01*
X120641899Y-96280430D01*
X120652896Y-96282560D01*
X120666372Y-96285170D01*
X120667482Y-96285413D01*
X120691505Y-96289635D01*
X120717559Y-96292595D01*
X120743766Y-96294263D01*
X120768248Y-96294610D01*
X120789128Y-96293608D01*
X120804528Y-96291227D01*
X120812570Y-96287438D01*
X120818324Y-96283219D01*
X120829499Y-96280428D01*
X120833668Y-96280618D01*
X120837574Y-96282472D01*
X120839647Y-96287915D01*
X120840466Y-96298865D01*
X120840611Y-96317243D01*
X120840592Y-96321775D01*
X120839764Y-96341327D01*
X120837522Y-96353494D01*
X120833601Y-96359876D01*
X120829920Y-96364011D01*
X120826590Y-96372904D01*
X120826367Y-96373838D01*
X120821628Y-96381046D01*
X120811665Y-96392904D01*
X120797718Y-96407999D01*
X120781025Y-96424917D01*
X120765996Y-96439844D01*
X120736609Y-96470258D01*
X120713772Y-96495949D01*
X120696895Y-96517604D01*
X120685386Y-96535910D01*
X120671981Y-96559555D01*
X120656624Y-96583042D01*
X120642920Y-96599979D01*
X120631677Y-96609262D01*
X120625518Y-96613125D01*
X120610381Y-96626310D01*
X120594898Y-96643629D01*
X120581567Y-96662123D01*
X120572889Y-96678836D01*
X120569796Y-96683267D01*
X120560853Y-96687014D01*
X120559410Y-96686979D01*
X120554500Y-96685707D01*
X120550485Y-96681476D01*
X120546634Y-96672742D01*
X120542219Y-96657967D01*
X120536509Y-96635607D01*
X120533153Y-96622989D01*
X120527160Y-96606732D01*
X120518949Y-96594070D01*
X120506545Y-96582276D01*
X120487973Y-96568622D01*
X120484269Y-96565429D01*
X120474506Y-96554496D01*
X120462614Y-96539041D01*
X120450387Y-96521322D01*
X120441822Y-96508527D01*
X120431674Y-96494733D01*
X120420777Y-96481959D01*
X120407790Y-96468870D01*
X120391373Y-96454135D01*
X120370187Y-96436420D01*
X120342892Y-96414392D01*
X120333054Y-96406431D01*
X120309503Y-96386191D01*
X120292878Y-96369638D01*
X120282380Y-96355918D01*
X120277212Y-96344176D01*
X120274032Y-96335807D01*
X120266558Y-96324118D01*
X120260270Y-96316283D01*
X120251156Y-96303492D01*
X120241428Y-96288856D01*
X120232601Y-96274734D01*
X120226779Y-96264515D01*
X120271154Y-96264515D01*
X120272930Y-96274617D01*
X120281831Y-96281138D01*
X120290044Y-96285952D01*
X120293821Y-96290525D01*
X120296718Y-96293103D01*
X120305505Y-96294448D01*
X120307973Y-96294382D01*
X120315334Y-96291557D01*
X120317188Y-96282560D01*
X120316983Y-96279021D01*
X120312710Y-96266421D01*
X120304418Y-96256631D01*
X120294121Y-96250517D01*
X120283830Y-96248941D01*
X120275558Y-96252769D01*
X120271316Y-96262863D01*
X120271154Y-96264515D01*
X120226779Y-96264515D01*
X120226193Y-96263487D01*
X120223720Y-96257473D01*
X120222913Y-96255464D01*
X120216865Y-96248283D01*
X120206839Y-96239153D01*
X120196425Y-96229237D01*
X120190484Y-96218267D01*
X120187788Y-96202594D01*
X120187032Y-96196057D01*
X120184266Y-96180076D01*
X120181017Y-96168266D01*
X120175303Y-96159255D01*
X120161842Y-96147586D01*
X120145151Y-96138893D01*
X120128759Y-96135396D01*
X120118972Y-96133664D01*
X120106668Y-96128339D01*
X120096865Y-96121290D01*
X120092865Y-96114445D01*
X120092854Y-96114295D01*
X120089220Y-96109235D01*
X120081041Y-96101893D01*
X120076621Y-96098180D01*
X120073110Y-96093630D01*
X120071041Y-96087063D01*
X120070118Y-96076647D01*
X120070045Y-96060551D01*
X120070526Y-96036944D01*
X120070623Y-96034219D01*
X120491520Y-96034219D01*
X120494778Y-96039747D01*
X120498328Y-96043660D01*
X120502360Y-96046757D01*
X120503164Y-96045982D01*
X120504125Y-96039747D01*
X120503098Y-96036235D01*
X120496543Y-96032737D01*
X120495813Y-96032743D01*
X120491520Y-96034219D01*
X120070623Y-96034219D01*
X120071214Y-96017673D01*
X120071472Y-96014043D01*
X120490105Y-96014043D01*
X120490937Y-96016094D01*
X120497115Y-96020406D01*
X120501811Y-96020627D01*
X120504125Y-96014043D01*
X120502900Y-96008448D01*
X120497115Y-96007680D01*
X120493811Y-96009384D01*
X120490105Y-96014043D01*
X120071472Y-96014043D01*
X120072587Y-95998353D01*
X120074396Y-95985905D01*
X120076508Y-95981567D01*
X120079371Y-95984745D01*
X120080245Y-95993677D01*
X120080200Y-95994291D01*
X120081124Y-96002352D01*
X120086087Y-96002917D01*
X120089997Y-96002518D01*
X120092865Y-96007904D01*
X120093766Y-96011322D01*
X120098139Y-96010729D01*
X120105013Y-96004162D01*
X120113123Y-95992938D01*
X120121204Y-95978375D01*
X120124790Y-95971677D01*
X120131778Y-95961833D01*
X120137257Y-95957962D01*
X120140572Y-95955342D01*
X120144941Y-95943996D01*
X120149132Y-95924080D01*
X120149943Y-95919426D01*
X120154356Y-95900290D01*
X120160046Y-95886970D01*
X120168198Y-95876509D01*
X120170555Y-95874008D01*
X120179341Y-95863059D01*
X120184262Y-95854310D01*
X120190531Y-95847523D01*
X120201878Y-95845848D01*
X120215653Y-95849230D01*
X120229246Y-95857484D01*
X120231614Y-95859409D01*
X120241851Y-95866357D01*
X120248993Y-95869167D01*
X120254805Y-95872481D01*
X120261262Y-95881139D01*
X120262121Y-95882791D01*
X120265230Y-95893073D01*
X120262051Y-95902106D01*
X120261618Y-95902813D01*
X120257324Y-95913888D01*
X120258935Y-95920179D01*
X120264807Y-95920184D01*
X120273295Y-95912396D01*
X120276147Y-95908738D01*
X120279047Y-95906775D01*
X120279652Y-95912396D01*
X120279733Y-95913611D01*
X120281639Y-95917239D01*
X120287440Y-95919350D01*
X120298952Y-95920333D01*
X120317989Y-95920575D01*
X120326068Y-95920517D01*
X120344964Y-95919546D01*
X120357157Y-95917134D01*
X120364588Y-95912962D01*
X120367580Y-95910436D01*
X120372808Y-95908428D01*
X120379181Y-95911306D01*
X120389512Y-95919848D01*
X120397357Y-95925654D01*
X120414604Y-95935105D01*
X120432780Y-95942124D01*
X120443647Y-95945725D01*
X120462265Y-95953490D01*
X120477041Y-95961487D01*
X120481225Y-95964066D01*
X120493512Y-95969518D01*
X120502075Y-95970182D01*
X120502844Y-95969919D01*
X120509384Y-95971480D01*
X120514899Y-95981321D01*
X120515181Y-95982058D01*
X120519635Y-95991470D01*
X120523102Y-95995349D01*
X120523738Y-95995082D01*
X120524675Y-95989365D01*
X120523453Y-95978400D01*
X120520657Y-95965103D01*
X120516868Y-95952390D01*
X120512671Y-95943177D01*
X120509362Y-95935728D01*
X120505360Y-95920721D01*
X120502626Y-95903353D01*
X120500473Y-95886117D01*
X120496830Y-95862501D01*
X120492781Y-95840262D01*
X120487137Y-95808367D01*
X120483276Y-95776853D01*
X120481973Y-95750584D01*
X120483387Y-95731386D01*
X120486146Y-95722671D01*
X120493137Y-95715700D01*
X120502672Y-95715904D01*
X120513877Y-95722507D01*
X120525875Y-95734735D01*
X120537793Y-95751811D01*
X120548753Y-95772960D01*
X120557882Y-95797405D01*
X120559677Y-95803359D01*
X120564715Y-95821280D01*
X120568231Y-95835655D01*
X120569553Y-95843807D01*
X120570766Y-95853626D01*
X120573868Y-95866499D01*
X120575281Y-95871446D01*
X120579388Y-95888063D01*
X120584437Y-95911425D01*
X120590703Y-95942773D01*
X120591347Y-95945717D01*
X120595617Y-95955446D01*
X120601172Y-95956864D01*
X120607506Y-95950676D01*
X120614112Y-95937587D01*
X120620483Y-95918301D01*
X120626112Y-95893523D01*
X120629821Y-95877255D01*
X120634863Y-95865215D01*
X120641466Y-95858941D01*
X120648066Y-95854912D01*
X120653991Y-95849707D01*
X120654625Y-95849154D01*
X120661397Y-95849332D01*
X120672037Y-95853346D01*
X120678507Y-95856344D01*
X120686652Y-95858242D01*
X120691071Y-95855131D01*
X120694468Y-95852702D01*
X120697715Y-95858698D01*
X120701190Y-95864555D01*
X120710517Y-95870721D01*
X120716322Y-95873558D01*
X120717609Y-95880337D01*
X120717531Y-95880554D01*
X120719746Y-95888245D01*
X120730929Y-95897297D01*
X120742903Y-95907365D01*
X120751648Y-95924626D01*
X120752497Y-95927341D01*
X120760199Y-95942520D01*
X120770880Y-95955848D01*
X120772948Y-95957910D01*
X120784715Y-95972579D01*
X120793989Y-95988339D01*
X120804767Y-96013371D01*
X120816827Y-96045245D01*
X120827495Y-96077564D01*
X120836469Y-96109027D01*
X120843444Y-96138335D01*
X120848117Y-96164186D01*
X120850184Y-96185279D01*
X120849341Y-96200314D01*
X120845284Y-96207990D01*
X120843707Y-96210326D01*
X120841484Y-96220032D01*
X120840611Y-96233969D01*
X120840181Y-96245797D01*
X120838032Y-96254533D01*
X120833601Y-96257060D01*
X120829983Y-96256391D01*
X120826677Y-96251585D01*
X120830778Y-96245677D01*
X120830824Y-96245648D01*
X120832698Y-96239540D01*
X120830830Y-96228661D01*
X120826352Y-96216175D01*
X120820395Y-96205244D01*
X120814092Y-96199032D01*
X120807511Y-96193462D01*
X120798953Y-96180273D01*
X120791278Y-96162641D01*
X120785830Y-96143222D01*
X120782863Y-96135425D01*
X120772639Y-96120250D01*
X120756549Y-96102525D01*
X120754241Y-96100209D01*
X120732444Y-96073946D01*
X120716796Y-96044904D01*
X120710926Y-96032322D01*
X120698613Y-96012462D01*
X120685959Y-95999798D01*
X120673850Y-95995349D01*
X120672973Y-95995263D01*
X120665029Y-95990855D01*
X120655673Y-95982038D01*
X120647842Y-95971970D01*
X120644475Y-95963804D01*
X120644095Y-95961665D01*
X120639654Y-95957962D01*
X120638482Y-95958527D01*
X120636132Y-95965641D01*
X120635182Y-95979411D01*
X120635613Y-95997930D01*
X120636964Y-96014043D01*
X120637404Y-96019290D01*
G37*
G36*
X120418457Y-94330538D02*
G01*
X120420003Y-94344614D01*
X120420236Y-94352116D01*
X120423740Y-94371206D01*
X120431055Y-94383404D01*
X120441671Y-94387695D01*
X120445542Y-94387931D01*
X120446931Y-94388437D01*
X120462814Y-94394224D01*
X120479059Y-94408013D01*
X120492451Y-94427854D01*
X120496976Y-94437200D01*
X120502102Y-94449270D01*
X120504105Y-94456239D01*
X120504273Y-94457876D01*
X120507934Y-94463249D01*
X120508684Y-94463833D01*
X120512941Y-94470774D01*
X120518763Y-94483262D01*
X120525107Y-94498669D01*
X120530931Y-94514367D01*
X120535192Y-94527728D01*
X120536848Y-94536125D01*
X120536928Y-94536967D01*
X120540180Y-94545671D01*
X120547243Y-94559070D01*
X120556806Y-94574632D01*
X120560992Y-94581259D01*
X120573323Y-94603868D01*
X120583483Y-94626972D01*
X120590379Y-94647873D01*
X120592920Y-94663874D01*
X120595101Y-94669986D01*
X120604627Y-94675534D01*
X120609294Y-94677755D01*
X120618836Y-94687890D01*
X120627496Y-94703300D01*
X120634158Y-94721276D01*
X120637704Y-94739108D01*
X120637018Y-94754088D01*
X120636059Y-94762372D01*
X120639147Y-94766242D01*
X120643621Y-94767020D01*
X120644305Y-94770339D01*
X120638983Y-94774663D01*
X120629139Y-94778215D01*
X120620486Y-94780427D01*
X120618148Y-94782555D01*
X120623297Y-94785268D01*
X120627864Y-94787726D01*
X120626468Y-94789280D01*
X120616110Y-94793323D01*
X120610278Y-94802217D01*
X120611390Y-94812558D01*
X120614020Y-94819106D01*
X120616287Y-94832065D01*
X120616683Y-94835353D01*
X120620152Y-94846964D01*
X120626075Y-94861753D01*
X120633088Y-94876716D01*
X120639825Y-94888842D01*
X120644920Y-94895127D01*
X120646522Y-94898165D01*
X120648307Y-94908476D01*
X120649001Y-94923010D01*
X120649030Y-94926062D01*
X120650704Y-94942812D01*
X120655770Y-94959230D01*
X120665358Y-94979203D01*
X120672905Y-94994508D01*
X120678409Y-95009780D01*
X120680999Y-95025321D01*
X120680812Y-95043325D01*
X120677987Y-95065984D01*
X120672660Y-95095493D01*
X120670120Y-95109163D01*
X120667223Y-95126826D01*
X120665622Y-95139540D01*
X120665614Y-95145203D01*
X120665703Y-95147666D01*
X120661253Y-95153663D01*
X120656354Y-95156208D01*
X120651426Y-95153961D01*
X120645622Y-95145404D01*
X120637758Y-95129312D01*
X120634836Y-95121364D01*
X120631422Y-95105202D01*
X120628985Y-95082635D01*
X120627329Y-95052200D01*
X120627039Y-95045303D01*
X120624617Y-95009385D01*
X120620954Y-94977669D01*
X120616268Y-94951442D01*
X120610781Y-94931986D01*
X120604713Y-94920586D01*
X120600370Y-94915218D01*
X120597593Y-94909998D01*
X120597394Y-94909150D01*
X120594458Y-94901708D01*
X120588743Y-94888687D01*
X120581193Y-94872256D01*
X120574081Y-94856324D01*
X120568466Y-94840286D01*
X120566034Y-94826000D01*
X120565915Y-94809917D01*
X120565948Y-94798760D01*
X120564402Y-94775777D01*
X120561298Y-94754558D01*
X120558990Y-94742630D01*
X120555472Y-94722129D01*
X120553022Y-94704984D01*
X120551106Y-94693536D01*
X120546725Y-94683804D01*
X120538854Y-94678151D01*
X120537039Y-94677194D01*
X120526757Y-94668514D01*
X120517568Y-94656488D01*
X120510379Y-94646223D01*
X120490840Y-94628301D01*
X120467367Y-94616360D01*
X120442689Y-94612019D01*
X120424115Y-94613584D01*
X120406141Y-94620517D01*
X120395479Y-94633108D01*
X120391963Y-94651489D01*
X120391982Y-94653219D01*
X120394054Y-94668361D01*
X120398973Y-94677447D01*
X120402785Y-94681278D01*
X120405983Y-94687389D01*
X120407114Y-94691480D01*
X120411418Y-94702091D01*
X120417837Y-94716025D01*
X120421575Y-94724771D01*
X120427230Y-94742529D01*
X120431362Y-94761188D01*
X120433588Y-94778316D01*
X120433524Y-94791477D01*
X120430787Y-94798239D01*
X120428613Y-94801672D01*
X120427642Y-94811227D01*
X120429007Y-94822685D01*
X120432147Y-94832305D01*
X120436500Y-94836343D01*
X120441657Y-94840250D01*
X120445597Y-94849859D01*
X120447068Y-94854848D01*
X120453073Y-94868920D01*
X120461183Y-94883741D01*
X120471965Y-94902808D01*
X120482443Y-94924419D01*
X120485343Y-94931388D01*
X120491204Y-94945476D01*
X120497218Y-94963491D01*
X120499451Y-94975980D01*
X120499451Y-94975981D01*
X120501908Y-94983956D01*
X120507813Y-94994518D01*
X120511342Y-95001058D01*
X120514154Y-95011582D01*
X120515434Y-95026786D01*
X120515509Y-95048983D01*
X120515293Y-95059454D01*
X120513481Y-95095756D01*
X120510069Y-95123695D01*
X120504943Y-95143966D01*
X120497992Y-95157265D01*
X120497591Y-95157781D01*
X120487981Y-95172591D01*
X120477559Y-95192256D01*
X120467788Y-95213593D01*
X120460129Y-95233422D01*
X120456044Y-95248559D01*
X120455690Y-95251095D01*
X120456223Y-95265659D01*
X120462919Y-95278006D01*
X120463373Y-95278588D01*
X120468076Y-95285949D01*
X120470369Y-95294292D01*
X120470621Y-95306374D01*
X120469202Y-95324953D01*
X120468894Y-95328085D01*
X120466770Y-95344162D01*
X120464371Y-95355484D01*
X120462158Y-95359765D01*
X120461469Y-95360135D01*
X120460693Y-95366182D01*
X120462349Y-95377290D01*
X120462713Y-95378961D01*
X120464019Y-95391007D01*
X120461857Y-95396374D01*
X120459301Y-95400184D01*
X120457705Y-95409663D01*
X120457647Y-95421016D01*
X120459107Y-95430542D01*
X120462064Y-95434540D01*
X120463112Y-95435016D01*
X120465701Y-95441527D01*
X120466738Y-95453233D01*
X120466843Y-95457420D01*
X120468290Y-95467780D01*
X120470891Y-95471927D01*
X120471364Y-95472022D01*
X120474954Y-95477157D01*
X120478006Y-95487715D01*
X120478059Y-95487989D01*
X120483582Y-95502696D01*
X120484893Y-95504641D01*
X120492546Y-95515996D01*
X120493889Y-95517487D01*
X120501160Y-95527350D01*
X120504125Y-95534665D01*
X120503861Y-95536655D01*
X120500817Y-95546792D01*
X120495176Y-95561800D01*
X120487959Y-95579063D01*
X120480188Y-95595966D01*
X120477837Y-95606029D01*
X120478499Y-95619333D01*
X120480330Y-95630860D01*
X120482335Y-95648068D01*
X120484061Y-95667133D01*
X120485148Y-95684362D01*
X120484949Y-95694444D01*
X120483188Y-95698565D01*
X120479627Y-95698404D01*
X120477468Y-95697422D01*
X120469617Y-95690047D01*
X120464016Y-95676925D01*
X120460494Y-95657190D01*
X120458877Y-95629973D01*
X120458993Y-95594409D01*
X120459344Y-95570974D01*
X120459011Y-95546246D01*
X120457716Y-95530757D01*
X120455460Y-95524471D01*
X120454224Y-95523857D01*
X120444908Y-95521170D01*
X120431747Y-95518825D01*
X120417577Y-95514382D01*
X120407541Y-95504510D01*
X120406646Y-95502210D01*
X120425675Y-95502210D01*
X120426235Y-95507757D01*
X120427640Y-95508488D01*
X120429350Y-95504641D01*
X120429013Y-95502167D01*
X120426235Y-95501525D01*
X120425675Y-95502210D01*
X120406646Y-95502210D01*
X120401115Y-95488004D01*
X120397533Y-95463624D01*
X120396796Y-95452357D01*
X120397785Y-95441467D01*
X120402495Y-95432879D01*
X120412404Y-95422507D01*
X120418325Y-95416476D01*
X120426246Y-95407174D01*
X120429350Y-95401601D01*
X120430139Y-95399557D01*
X120436360Y-95397152D01*
X120438962Y-95396810D01*
X120443058Y-95392321D01*
X120441395Y-95385172D01*
X120434331Y-95378623D01*
X120433878Y-95378391D01*
X120422641Y-95375130D01*
X120408627Y-95373785D01*
X120406606Y-95373763D01*
X120395440Y-95371915D01*
X120391963Y-95366775D01*
X120393944Y-95362444D01*
X120402396Y-95359765D01*
X120406882Y-95359198D01*
X120407382Y-95356406D01*
X120402325Y-95350059D01*
X120390990Y-95338838D01*
X120380084Y-95327945D01*
X120373319Y-95319103D01*
X120371016Y-95311257D01*
X120371779Y-95301713D01*
X120372678Y-95297215D01*
X120378296Y-95285978D01*
X120390195Y-95278024D01*
X120391668Y-95277297D01*
X120402280Y-95269582D01*
X120406192Y-95261633D01*
X120402411Y-95255294D01*
X120401694Y-95253555D01*
X120401162Y-95244285D01*
X120401709Y-95229052D01*
X120403293Y-95210035D01*
X120404621Y-95196596D01*
X120405750Y-95180633D01*
X120405425Y-95170742D01*
X120403507Y-95164932D01*
X120399855Y-95161212D01*
X120395315Y-95157125D01*
X120391963Y-95151256D01*
X120388217Y-95146628D01*
X120379111Y-95141303D01*
X120379043Y-95141273D01*
X120365723Y-95134586D01*
X120351744Y-95126621D01*
X120345482Y-95122021D01*
X120340121Y-95115431D01*
X120336200Y-95106026D01*
X120333465Y-95092500D01*
X120331661Y-95073546D01*
X120330534Y-95047858D01*
X120329830Y-95014131D01*
X120329719Y-95007893D01*
X120329031Y-94985250D01*
X120328020Y-94966578D01*
X120326806Y-94953668D01*
X120325504Y-94948314D01*
X120324141Y-94945161D01*
X120325242Y-94935912D01*
X120329165Y-94924559D01*
X120334569Y-94914651D01*
X120335563Y-94913768D01*
X120349902Y-94913768D01*
X120350986Y-94915718D01*
X120357136Y-94922757D01*
X120366913Y-94932462D01*
X120368242Y-94933713D01*
X120379573Y-94943765D01*
X120386546Y-94947534D01*
X120391153Y-94945387D01*
X120395390Y-94937690D01*
X120397646Y-94931388D01*
X120396819Y-94920192D01*
X120387807Y-94913402D01*
X120370700Y-94911118D01*
X120364636Y-94911233D01*
X120354080Y-94912179D01*
X120349902Y-94913768D01*
X120335563Y-94913768D01*
X120340109Y-94909732D01*
X120340901Y-94909513D01*
X120341825Y-94907238D01*
X120333873Y-94904138D01*
X120326049Y-94900532D01*
X120312891Y-94891464D01*
X120299540Y-94879695D01*
X120289510Y-94870154D01*
X120280929Y-94863042D01*
X120276867Y-94861086D01*
X120276715Y-94861245D01*
X120273138Y-94870167D01*
X120270173Y-94888362D01*
X120267827Y-94915777D01*
X120266106Y-94952361D01*
X120265758Y-94956665D01*
X120262184Y-94969416D01*
X120256097Y-94977822D01*
X120249065Y-94979391D01*
X120245811Y-94978725D01*
X120242414Y-94981365D01*
X120244531Y-94984127D01*
X120252539Y-94985892D01*
X120258271Y-94986545D01*
X120259767Y-94988790D01*
X120254926Y-94989960D01*
X120245057Y-94988723D01*
X120233245Y-94985759D01*
X120233949Y-94914556D01*
X120234019Y-94906491D01*
X120234003Y-94879598D01*
X120233413Y-94859987D01*
X120232115Y-94846013D01*
X120229973Y-94836031D01*
X120226850Y-94828397D01*
X120221359Y-94813054D01*
X120219047Y-94796892D01*
X120215921Y-94782228D01*
X120205993Y-94767270D01*
X120191633Y-94756736D01*
X120175294Y-94753082D01*
X120163692Y-94752262D01*
X120146566Y-94749504D01*
X120127915Y-94745414D01*
X120123931Y-94744391D01*
X120105030Y-94738373D01*
X120091785Y-94731228D01*
X120081062Y-94721348D01*
X120076872Y-94716905D01*
X120067547Y-94708729D01*
X120061200Y-94705487D01*
X120057779Y-94703540D01*
X120055477Y-94695736D01*
X120055217Y-94691479D01*
X120053096Y-94689482D01*
X120047260Y-94692312D01*
X120035863Y-94700410D01*
X120019799Y-94710793D01*
X120008409Y-94714196D01*
X120000594Y-94710465D01*
X119995086Y-94699576D01*
X119993479Y-94695075D01*
X119990178Y-94688265D01*
X119984986Y-94680952D01*
X119976662Y-94671674D01*
X119963965Y-94658970D01*
X119945652Y-94641377D01*
X119938561Y-94634369D01*
X119927507Y-94622463D01*
X119920324Y-94613449D01*
X119917743Y-94610407D01*
X119906907Y-94602316D01*
X119892901Y-94595397D01*
X119886670Y-94592575D01*
X119870014Y-94582010D01*
X119855762Y-94569361D01*
X119849413Y-94562778D01*
X119839823Y-94554500D01*
X119833584Y-94551265D01*
X119833339Y-94551273D01*
X119829186Y-94555580D01*
X119827585Y-94565759D01*
X119828371Y-94578871D01*
X119831378Y-94591975D01*
X119836442Y-94602134D01*
X119842562Y-94614707D01*
X119845174Y-94631343D01*
X119845186Y-94632946D01*
X119846907Y-94645370D01*
X119851653Y-94649406D01*
X119854283Y-94649932D01*
X119856562Y-94652569D01*
X119858573Y-94658756D01*
X119860646Y-94669927D01*
X119863112Y-94687516D01*
X119866300Y-94712958D01*
X119867634Y-94725473D01*
X119867040Y-94734031D01*
X119862981Y-94738871D01*
X119854256Y-94742984D01*
X119837278Y-94752549D01*
X119821818Y-94769435D01*
X119810801Y-94793563D01*
X119803077Y-94817178D01*
X119817115Y-94840986D01*
X119823289Y-94851695D01*
X119828964Y-94862164D01*
X119831153Y-94867121D01*
X119833474Y-94871185D01*
X119839907Y-94878843D01*
X119843756Y-94882754D01*
X119848512Y-94885241D01*
X119851443Y-94880984D01*
X119855994Y-94876319D01*
X119865937Y-94873730D01*
X119873424Y-94875662D01*
X119883097Y-94884806D01*
X119889596Y-94899366D01*
X119891537Y-94917004D01*
X119891866Y-94929743D01*
X119893908Y-94949684D01*
X119897196Y-94971395D01*
X119901157Y-94991173D01*
X119905218Y-95005318D01*
X119908343Y-95014907D01*
X119913014Y-95042733D01*
X119913254Y-95073357D01*
X119908912Y-95102836D01*
X119905715Y-95116698D01*
X119900548Y-95141181D01*
X119896331Y-95163461D01*
X119893157Y-95178483D01*
X119888321Y-95195203D01*
X119883498Y-95206653D01*
X119882990Y-95207489D01*
X119870288Y-95219911D01*
X119853446Y-95226002D01*
X119835053Y-95225770D01*
X119817700Y-95219225D01*
X119803976Y-95206374D01*
X119803325Y-95205368D01*
X119797940Y-95193736D01*
X119792106Y-95176698D01*
X119786977Y-95157568D01*
X119785902Y-95153009D01*
X119781548Y-95136459D01*
X119777648Y-95124337D01*
X119774940Y-95119002D01*
X119773640Y-95116622D01*
X119770752Y-95106591D01*
X119767292Y-95090739D01*
X119763753Y-95071172D01*
X119762020Y-95060844D01*
X119758121Y-95038720D01*
X119754458Y-95019236D01*
X119751639Y-95005687D01*
X119748656Y-94989474D01*
X119747148Y-94969005D01*
X119748043Y-94945963D01*
X119751489Y-94918776D01*
X119757633Y-94885875D01*
X119766621Y-94845690D01*
X119775989Y-94805966D01*
X119766430Y-94773252D01*
X119761517Y-94756829D01*
X119752665Y-94729053D01*
X119744517Y-94705716D01*
X119737861Y-94689130D01*
X119736043Y-94685049D01*
X119730612Y-94672542D01*
X119724299Y-94657741D01*
X119723998Y-94657034D01*
X119712489Y-94633950D01*
X119699052Y-94613030D01*
X119685306Y-94596511D01*
X119672868Y-94586631D01*
X119667204Y-94584126D01*
X119655205Y-94582255D01*
X119639207Y-94584659D01*
X119629513Y-94586075D01*
X119610515Y-94587004D01*
X119587518Y-94586846D01*
X119563190Y-94585736D01*
X119540199Y-94583809D01*
X119521211Y-94581201D01*
X119508893Y-94578047D01*
X119500032Y-94574628D01*
X119493420Y-94572687D01*
X119493297Y-94572657D01*
X119488398Y-94568926D01*
X119478466Y-94559880D01*
X119464881Y-94546815D01*
X119449022Y-94531026D01*
X119447002Y-94528983D01*
X119426874Y-94508695D01*
X119411935Y-94493928D01*
X119400919Y-94483638D01*
X119392564Y-94476778D01*
X119385605Y-94472304D01*
X119378779Y-94469170D01*
X119370822Y-94466331D01*
X119367046Y-94465005D01*
X119353866Y-94459778D01*
X119345006Y-94455381D01*
X119344751Y-94455212D01*
X119336342Y-94446902D01*
X119326592Y-94433615D01*
X119317343Y-94418378D01*
X119310442Y-94404221D01*
X119307731Y-94394171D01*
X119306961Y-94391208D01*
X119300829Y-94387695D01*
X119300569Y-94387687D01*
X119293353Y-94383762D01*
X119285701Y-94374843D01*
X119281831Y-94368938D01*
X119274282Y-94359496D01*
X119265874Y-94353922D01*
X119253782Y-94350744D01*
X119235184Y-94348487D01*
X119233749Y-94348344D01*
X119215081Y-94346660D01*
X119199453Y-94345836D01*
X119183780Y-94345871D01*
X119164975Y-94346769D01*
X119139949Y-94348530D01*
X119120146Y-94349145D01*
X119100259Y-94347027D01*
X119087751Y-94341797D01*
X119083407Y-94333661D01*
X119083002Y-94331023D01*
X119079746Y-94327344D01*
X119072174Y-94324827D01*
X119059030Y-94323273D01*
X119039059Y-94322486D01*
X119011003Y-94322267D01*
X118992065Y-94322391D01*
X118970395Y-94323168D01*
X118953848Y-94324925D01*
X118939917Y-94327966D01*
X118926095Y-94332597D01*
X118913260Y-94337812D01*
X118902126Y-94343149D01*
X118897250Y-94346618D01*
X118896788Y-94346924D01*
X118889597Y-94348001D01*
X118874844Y-94348931D01*
X118853935Y-94349660D01*
X118828280Y-94350137D01*
X118799284Y-94350308D01*
X118702875Y-94350308D01*
X118693353Y-94338645D01*
X118689538Y-94334763D01*
X118679536Y-94328563D01*
X118663968Y-94322767D01*
X118642588Y-94317025D01*
X119515042Y-94317025D01*
X119516013Y-94331294D01*
X119517108Y-94340869D01*
X119522721Y-94362849D01*
X119533184Y-94379489D01*
X119549923Y-94393404D01*
X119553728Y-94395881D01*
X119562771Y-94400710D01*
X119568493Y-94400247D01*
X119574151Y-94394662D01*
X119574847Y-94393775D01*
X119576534Y-94388437D01*
X119572952Y-94381783D01*
X119563040Y-94371609D01*
X119557257Y-94365868D01*
X119549226Y-94356578D01*
X119546075Y-94350854D01*
X119545555Y-94348566D01*
X119540233Y-94342362D01*
X119537886Y-94340406D01*
X119533924Y-94332783D01*
X119533779Y-94331009D01*
X119532326Y-94319276D01*
X119529904Y-94314089D01*
X119525434Y-94312921D01*
X119522650Y-94312461D01*
X119516074Y-94307079D01*
X119516047Y-94307023D01*
X119515055Y-94308318D01*
X119515042Y-94317025D01*
X118642588Y-94317025D01*
X118640980Y-94316593D01*
X118623032Y-94312089D01*
X118609012Y-94307810D01*
X118600330Y-94303544D01*
X118594945Y-94298246D01*
X118590816Y-94290869D01*
X118589795Y-94288849D01*
X118583049Y-94279383D01*
X118576751Y-94275533D01*
X118572686Y-94274790D01*
X118563824Y-94269680D01*
X118561898Y-94268094D01*
X118551974Y-94261783D01*
X118540538Y-94255800D01*
X120226450Y-94255800D01*
X120228883Y-94266397D01*
X120235848Y-94279583D01*
X120246463Y-94294025D01*
X120259846Y-94308391D01*
X120275113Y-94321347D01*
X120291381Y-94331561D01*
X120296459Y-94334090D01*
X120307233Y-94339008D01*
X120313003Y-94340961D01*
X120313811Y-94340865D01*
X120318120Y-94336112D01*
X120319612Y-94327602D01*
X120317310Y-94320077D01*
X120315380Y-94317046D01*
X120315218Y-94311775D01*
X120315412Y-94311533D01*
X120314903Y-94305299D01*
X120310430Y-94294709D01*
X120303574Y-94282587D01*
X120295917Y-94271754D01*
X120289038Y-94265033D01*
X120283511Y-94259461D01*
X120279801Y-94248666D01*
X120279665Y-94244427D01*
X120277441Y-94240620D01*
X120270454Y-94243904D01*
X120261288Y-94247403D01*
X120251761Y-94243904D01*
X120245607Y-94241097D01*
X120242414Y-94242780D01*
X120241719Y-94244858D01*
X120235679Y-94247493D01*
X120229434Y-94249125D01*
X120226450Y-94255800D01*
X118540538Y-94255800D01*
X118538955Y-94254972D01*
X118534591Y-94252902D01*
X118521389Y-94246599D01*
X118512146Y-94242132D01*
X118507075Y-94240207D01*
X118494839Y-94238146D01*
X118491379Y-94237148D01*
X118481091Y-94231140D01*
X118467147Y-94220908D01*
X118451546Y-94207850D01*
X118442029Y-94199554D01*
X118427534Y-94188019D01*
X118413317Y-94178764D01*
X118397076Y-94170531D01*
X118376505Y-94162067D01*
X118349303Y-94152114D01*
X118340357Y-94148537D01*
X118323403Y-94139085D01*
X118311874Y-94128719D01*
X118307621Y-94118912D01*
X118310880Y-94113170D01*
X118319918Y-94106117D01*
X118331342Y-94100339D01*
X118341721Y-94097944D01*
X118342800Y-94097862D01*
X118352076Y-94095142D01*
X118364152Y-94089765D01*
X118366023Y-94088842D01*
X118374294Y-94085734D01*
X118384648Y-94083635D01*
X118398533Y-94082470D01*
X118417398Y-94082160D01*
X118442692Y-94082629D01*
X118475864Y-94083798D01*
X118490447Y-94083815D01*
X118510178Y-94082406D01*
X118525627Y-94079739D01*
X118530251Y-94078579D01*
X118549007Y-94074947D01*
X118567688Y-94072537D01*
X118573070Y-94071997D01*
X118592227Y-94069192D01*
X118609056Y-94065636D01*
X118620711Y-94064103D01*
X118640014Y-94063618D01*
X118664248Y-94064190D01*
X118691185Y-94065694D01*
X118718597Y-94068004D01*
X118744256Y-94070992D01*
X118765932Y-94074532D01*
X118775334Y-94075926D01*
X118795134Y-94075780D01*
X118819676Y-94071640D01*
X118836553Y-94068139D01*
X118859949Y-94063783D01*
X118880114Y-94060527D01*
X118891455Y-94058792D01*
X118912979Y-94055006D01*
X118931521Y-94051205D01*
X118945969Y-94049029D01*
X118968657Y-94047284D01*
X118996966Y-94046147D01*
X119028983Y-94045628D01*
X119062794Y-94045739D01*
X119096484Y-94046491D01*
X119128139Y-94047892D01*
X119155845Y-94049956D01*
X119169327Y-94051469D01*
X119195273Y-94055423D01*
X119219272Y-94060279D01*
X119237630Y-94065340D01*
X119257846Y-94071424D01*
X119295226Y-94077864D01*
X119329581Y-94077428D01*
X119359327Y-94070054D01*
X119370392Y-94065497D01*
X119384372Y-94059469D01*
X119393235Y-94055309D01*
X119396470Y-94054087D01*
X119408435Y-94051142D01*
X119425812Y-94047848D01*
X119446057Y-94044714D01*
X119454175Y-94043560D01*
X119473089Y-94040379D01*
X119485377Y-94037106D01*
X119493054Y-94033082D01*
X119498136Y-94027646D01*
X119501999Y-94022162D01*
X119509220Y-94012894D01*
X119516382Y-94006797D01*
X119525364Y-94003319D01*
X119538044Y-94001912D01*
X119556303Y-94002025D01*
X119582020Y-94003109D01*
X119585378Y-94003268D01*
X119607664Y-94004560D01*
X119626125Y-94006026D01*
X119638922Y-94007498D01*
X119644217Y-94008806D01*
X119648170Y-94010709D01*
X119659113Y-94013921D01*
X119674148Y-94017362D01*
X119685824Y-94020131D01*
X119704273Y-94025800D01*
X119718546Y-94031674D01*
X119726239Y-94035482D01*
X119736555Y-94039731D01*
X119747744Y-94042932D01*
X119761217Y-94045250D01*
X119778387Y-94046850D01*
X119800667Y-94047899D01*
X119829468Y-94048563D01*
X119866204Y-94049007D01*
X119882165Y-94049167D01*
X119945960Y-94050021D01*
X120000997Y-94051152D01*
X120047750Y-94052585D01*
X120086697Y-94054345D01*
X120118313Y-94056457D01*
X120143072Y-94058946D01*
X120161452Y-94061838D01*
X120173928Y-94065156D01*
X120188512Y-94069292D01*
X120214999Y-94073685D01*
X120247087Y-94076312D01*
X120258829Y-94077010D01*
X120284485Y-94079279D01*
X120308801Y-94082286D01*
X120327773Y-94085570D01*
X120338296Y-94087669D01*
X120359191Y-94089926D01*
X120374507Y-94088123D01*
X120376794Y-94087260D01*
X120387882Y-94081160D01*
X120403848Y-94070748D01*
X120422913Y-94057224D01*
X120443298Y-94041784D01*
X120451419Y-94035473D01*
X120469945Y-94021402D01*
X120485457Y-94010069D01*
X120496524Y-94002504D01*
X120501716Y-93999737D01*
X120503025Y-93999318D01*
X120510599Y-93994499D01*
X120522514Y-93985435D01*
X120536839Y-93973565D01*
X120539805Y-93971032D01*
X120556830Y-93957000D01*
X120573247Y-93944180D01*
X120585868Y-93935074D01*
X120590218Y-93932102D01*
X120604587Y-93921743D01*
X120622194Y-93908549D01*
X120640181Y-93894650D01*
X120645017Y-93890855D01*
X120666199Y-93874376D01*
X120688161Y-93857464D01*
X120706854Y-93843243D01*
X120708262Y-93842181D01*
X120728156Y-93827023D01*
X120750421Y-93809848D01*
X120770497Y-93794172D01*
X120773602Y-93791735D01*
X120794416Y-93775827D01*
X120817183Y-93759016D01*
X120840554Y-93742234D01*
X120863185Y-93726412D01*
X120883727Y-93712479D01*
X120900835Y-93701366D01*
X120913162Y-93694003D01*
X120919360Y-93691322D01*
X120921065Y-93690737D01*
X120929524Y-93686559D01*
X120943088Y-93679245D01*
X120959783Y-93669843D01*
X120974991Y-93661281D01*
X120998985Y-93648124D01*
X121025094Y-93634096D01*
X121049849Y-93621077D01*
X121050187Y-93620902D01*
X121071552Y-93609557D01*
X121090937Y-93598800D01*
X121106219Y-93589837D01*
X121115277Y-93583875D01*
X121117016Y-93582539D01*
X121130318Y-93572698D01*
X121144382Y-93562742D01*
X121156533Y-93554410D01*
X121181701Y-93537492D01*
X121200917Y-93525410D01*
X121215330Y-93517706D01*
X121226093Y-93513922D01*
X121234358Y-93513598D01*
X121241275Y-93516278D01*
X121247998Y-93521501D01*
X121249638Y-93523087D01*
X121254992Y-93531438D01*
X121256482Y-93542430D01*
X121253910Y-93557427D01*
X121247075Y-93577795D01*
X121235776Y-93604899D01*
X121230626Y-93619298D01*
X121226580Y-93635276D01*
X121223133Y-93645661D01*
X121215305Y-93661366D01*
X121205209Y-93677336D01*
X121196725Y-93689814D01*
X121183947Y-93710238D01*
X121173474Y-93728744D01*
X121165963Y-93742394D01*
X121153769Y-93762935D01*
X121141715Y-93781814D01*
X121131953Y-93796602D01*
X121122567Y-93811279D01*
X121116342Y-93821538D01*
X121110732Y-93830846D01*
X121106855Y-93836233D01*
X121106749Y-93836346D01*
X121103103Y-93841405D01*
X121095587Y-93852352D01*
X121085370Y-93867447D01*
X121073616Y-93884947D01*
X121061491Y-93903112D01*
X121050163Y-93920200D01*
X121040796Y-93934471D01*
X121034557Y-93944183D01*
X121034378Y-93944467D01*
X121029671Y-93951636D01*
X121020992Y-93964637D01*
X121009515Y-93981716D01*
X120996416Y-94001119D01*
X120995428Y-94002581D01*
X120982494Y-94022171D01*
X120971465Y-94039653D01*
X120963481Y-94053170D01*
X120959685Y-94060865D01*
X120955417Y-94069466D01*
X120947073Y-94082655D01*
X120936534Y-94097396D01*
X120926434Y-94111511D01*
X120914763Y-94129540D01*
X120906199Y-94144678D01*
X120905618Y-94145820D01*
X120896684Y-94160083D01*
X120885046Y-94174777D01*
X120872653Y-94187833D01*
X120861451Y-94197183D01*
X120853388Y-94200759D01*
X120848996Y-94202012D01*
X120837991Y-94209232D01*
X120823777Y-94221497D01*
X120807795Y-94237222D01*
X120791486Y-94254824D01*
X120776293Y-94272720D01*
X120763655Y-94289327D01*
X120755016Y-94303060D01*
X120751816Y-94312336D01*
X120749362Y-94316951D01*
X120741301Y-94322594D01*
X120739248Y-94323717D01*
X120729434Y-94332117D01*
X120720033Y-94343821D01*
X120719328Y-94344880D01*
X120709687Y-94355752D01*
X120701339Y-94358506D01*
X120697341Y-94356688D01*
X120694682Y-94350851D01*
X120694767Y-94348498D01*
X120691383Y-94347773D01*
X120691295Y-94347824D01*
X120685790Y-94346240D01*
X120679043Y-94338770D01*
X120671269Y-94329483D01*
X120660733Y-94321095D01*
X120660408Y-94320916D01*
X120648669Y-94314359D01*
X120635349Y-94306845D01*
X120634073Y-94306147D01*
X120621836Y-94301611D01*
X120605141Y-94299165D01*
X120581593Y-94298433D01*
X120576719Y-94298454D01*
X120557445Y-94298917D01*
X120541373Y-94299865D01*
X120531573Y-94301134D01*
X120526177Y-94301665D01*
X120516045Y-94298212D01*
X120503057Y-94288192D01*
X120495699Y-94281132D01*
X120488664Y-94271591D01*
X120484414Y-94259703D01*
X120481303Y-94241975D01*
X120479423Y-94230550D01*
X120473802Y-94209208D01*
X120466697Y-94195961D01*
X120458379Y-94191412D01*
X120457777Y-94191436D01*
X120448718Y-94195988D01*
X120439550Y-94206312D01*
X120432427Y-94219374D01*
X120429498Y-94232140D01*
X120427740Y-94243125D01*
X120420003Y-94252166D01*
X120414425Y-94256978D01*
X120410657Y-94266351D01*
X120409705Y-94271632D01*
X120405463Y-94275533D01*
X120403100Y-94277748D01*
X120402561Y-94286032D01*
X120404482Y-94297566D01*
X120408285Y-94309244D01*
X120413389Y-94317962D01*
X120414618Y-94319670D01*
X120417420Y-94327602D01*
X120418457Y-94330538D01*
G37*
G36*
X119578633Y-95010473D02*
G01*
X119585781Y-95023244D01*
X119591890Y-95036703D01*
X119595361Y-95050847D01*
X119594631Y-95065173D01*
X119593128Y-95072200D01*
X119586931Y-95083546D01*
X119575823Y-95088111D01*
X119558315Y-95086783D01*
X119548586Y-95083664D01*
X119532097Y-95075894D01*
X119513695Y-95065460D01*
X119496404Y-95054103D01*
X119483249Y-95043566D01*
X119480167Y-95040733D01*
X119462721Y-95028221D01*
X119447624Y-95023415D01*
X119435708Y-95026410D01*
X119427809Y-95037300D01*
X119422005Y-95047097D01*
X119414195Y-95051320D01*
X119409744Y-95051961D01*
X119405873Y-95055426D01*
X119405823Y-95055788D01*
X119401206Y-95060371D01*
X119391373Y-95065539D01*
X119390006Y-95066092D01*
X119376206Y-95069170D01*
X119361833Y-95066106D01*
X119354722Y-95064168D01*
X119338159Y-95061651D01*
X119320251Y-95060667D01*
X119308895Y-95060250D01*
X119297944Y-95058684D01*
X119293711Y-95056356D01*
X119293239Y-95054805D01*
X119286555Y-95050074D01*
X119274011Y-95046001D01*
X119258243Y-95043284D01*
X119241885Y-95042621D01*
X119236930Y-95042660D01*
X119221863Y-95041218D01*
X119210932Y-95038018D01*
X119201724Y-95033639D01*
X119196754Y-95033708D01*
X119195569Y-95039297D01*
X119195569Y-95039357D01*
X119192103Y-95046754D01*
X119183886Y-95055158D01*
X119177901Y-95062068D01*
X119173059Y-95073470D01*
X119173046Y-95073570D01*
X119171488Y-95085198D01*
X119173492Y-95094357D01*
X119177599Y-95096937D01*
X119179377Y-95098054D01*
X119179739Y-95098057D01*
X119184100Y-95099983D01*
X119181812Y-95106910D01*
X119180548Y-95110498D01*
X119181916Y-95119046D01*
X119186874Y-95123758D01*
X119187705Y-95124548D01*
X119195398Y-95123864D01*
X119198613Y-95123101D01*
X119202562Y-95127015D01*
X119203508Y-95134564D01*
X119200465Y-95142183D01*
X119198314Y-95146756D01*
X119200842Y-95153318D01*
X119209941Y-95163114D01*
X119210794Y-95163913D01*
X119227083Y-95175262D01*
X119246260Y-95183562D01*
X119263801Y-95186823D01*
X119266957Y-95187783D01*
X119276434Y-95192943D01*
X119288574Y-95201071D01*
X119292314Y-95203602D01*
X119308052Y-95212590D01*
X119328037Y-95222426D01*
X119348861Y-95231396D01*
X119357870Y-95235000D01*
X119375751Y-95242373D01*
X119389822Y-95248463D01*
X119397631Y-95252225D01*
X119402838Y-95254734D01*
X119411651Y-95256979D01*
X119411941Y-95256988D01*
X119420249Y-95259268D01*
X119431577Y-95264340D01*
X119437800Y-95267385D01*
X119451780Y-95273372D01*
X119466891Y-95279097D01*
X119480699Y-95283715D01*
X119490770Y-95286381D01*
X119494668Y-95286249D01*
X119496623Y-95286233D01*
X119502846Y-95290802D01*
X119512390Y-95297645D01*
X119527632Y-95306759D01*
X119545143Y-95316213D01*
X119561712Y-95324279D01*
X119572587Y-95328612D01*
X119574131Y-95329227D01*
X119587966Y-95334012D01*
X119611212Y-95343481D01*
X119641880Y-95357150D01*
X119650641Y-95360961D01*
X119666952Y-95367193D01*
X119679679Y-95371028D01*
X119682677Y-95372007D01*
X119694520Y-95378452D01*
X119709644Y-95389046D01*
X119725518Y-95402076D01*
X119730427Y-95406359D01*
X119739776Y-95414009D01*
X119747109Y-95420010D01*
X119762635Y-95431521D01*
X119774178Y-95438761D01*
X119785272Y-95445057D01*
X119797372Y-95454942D01*
X119807650Y-95468476D01*
X119818451Y-95488284D01*
X119830027Y-95511014D01*
X119857834Y-95561028D01*
X119884690Y-95602783D01*
X119886140Y-95604850D01*
X119897457Y-95621131D01*
X119907380Y-95635634D01*
X119913907Y-95645435D01*
X119915477Y-95647624D01*
X119926716Y-95658712D01*
X119942686Y-95670618D01*
X119960190Y-95681145D01*
X119976029Y-95688098D01*
X119977813Y-95688524D01*
X119989677Y-95689264D01*
X120006904Y-95688563D01*
X120026420Y-95686517D01*
X120037122Y-95685204D01*
X120061326Y-95684066D01*
X120078884Y-95686890D01*
X120091304Y-95694076D01*
X120100095Y-95706024D01*
X120100216Y-95706259D01*
X120105121Y-95721148D01*
X120106690Y-95737649D01*
X120104936Y-95752311D01*
X120099875Y-95761679D01*
X120096249Y-95765926D01*
X120092865Y-95776033D01*
X120092765Y-95777160D01*
X120087811Y-95786022D01*
X120077341Y-95795900D01*
X120064075Y-95804606D01*
X120050733Y-95809950D01*
X120050334Y-95810047D01*
X120036076Y-95817393D01*
X120021927Y-95830608D01*
X120010533Y-95846680D01*
X120004539Y-95862592D01*
X120002880Y-95869910D01*
X119996695Y-95882052D01*
X119988226Y-95886933D01*
X119978758Y-95883513D01*
X119974949Y-95878229D01*
X119971561Y-95864910D01*
X119971375Y-95848686D01*
X119974304Y-95833135D01*
X119980260Y-95821832D01*
X119982599Y-95819003D01*
X119986121Y-95810627D01*
X119985501Y-95799617D01*
X119980457Y-95784217D01*
X119970705Y-95762670D01*
X119954174Y-95735366D01*
X119933533Y-95714029D01*
X119910280Y-95700794D01*
X119885178Y-95696251D01*
X119884719Y-95696250D01*
X119872597Y-95695117D01*
X119862515Y-95690933D01*
X119852960Y-95682351D01*
X119842417Y-95668024D01*
X119829372Y-95646604D01*
X119819769Y-95631744D01*
X119807023Y-95615095D01*
X119795471Y-95602855D01*
X119778235Y-95587722D01*
X119696331Y-95590510D01*
X119690895Y-95590695D01*
X119662753Y-95591592D01*
X119642085Y-95591995D01*
X119627290Y-95591767D01*
X119616765Y-95590769D01*
X119608906Y-95588864D01*
X119602110Y-95585914D01*
X119594774Y-95581782D01*
X119590660Y-95579511D01*
X119575830Y-95573519D01*
X119556955Y-95569277D01*
X119531390Y-95566130D01*
X119524692Y-95565458D01*
X119500053Y-95561927D01*
X119481073Y-95556912D01*
X119464763Y-95549675D01*
X119455614Y-95545249D01*
X119440083Y-95539575D01*
X119428097Y-95537355D01*
X119416065Y-95535686D01*
X119401920Y-95530529D01*
X119392601Y-95525635D01*
X119375695Y-95517459D01*
X119357607Y-95509307D01*
X119340726Y-95502209D01*
X119327442Y-95497194D01*
X119320146Y-95495294D01*
X119313718Y-95494398D01*
X119302476Y-95490236D01*
X119287009Y-95482155D01*
X119266241Y-95469581D01*
X119239097Y-95451939D01*
X119238301Y-95451410D01*
X119217001Y-95437191D01*
X119200314Y-95425684D01*
X119186350Y-95415355D01*
X119173222Y-95404669D01*
X119159040Y-95392090D01*
X119141916Y-95376085D01*
X119119961Y-95355117D01*
X119115796Y-95351091D01*
X119099002Y-95334150D01*
X119085020Y-95318936D01*
X119079286Y-95311949D01*
X119176255Y-95311949D01*
X119180628Y-95320441D01*
X119193374Y-95331725D01*
X119196668Y-95334286D01*
X119206960Y-95344981D01*
X119212566Y-95355092D01*
X119214404Y-95360901D01*
X119224397Y-95376444D01*
X119239142Y-95385084D01*
X119242703Y-95386734D01*
X119252423Y-95394813D01*
X119262121Y-95406534D01*
X119262530Y-95407129D01*
X119271638Y-95418596D01*
X119280117Y-95423901D01*
X119291330Y-95425193D01*
X119300674Y-95424686D01*
X119306419Y-95421584D01*
X119307731Y-95414009D01*
X119306168Y-95406391D01*
X119300721Y-95400136D01*
X119297483Y-95398135D01*
X119293711Y-95390783D01*
X119293098Y-95387906D01*
X119286816Y-95377807D01*
X119275120Y-95364753D01*
X119259723Y-95350288D01*
X119242339Y-95335959D01*
X119239495Y-95333922D01*
X119294402Y-95333922D01*
X119297376Y-95339432D01*
X119305607Y-95347869D01*
X119306812Y-95349034D01*
X119316995Y-95356547D01*
X119325469Y-95359449D01*
X119327369Y-95359330D01*
X119343883Y-95354157D01*
X119355670Y-95343202D01*
X119361198Y-95328612D01*
X119358933Y-95312536D01*
X119357587Y-95309715D01*
X119347697Y-95299563D01*
X119334382Y-95295896D01*
X119320071Y-95298393D01*
X119307193Y-95306731D01*
X119298176Y-95320590D01*
X119295607Y-95327392D01*
X119294402Y-95333922D01*
X119239495Y-95333922D01*
X119224682Y-95323313D01*
X119208468Y-95313895D01*
X119205519Y-95312503D01*
X119189486Y-95307051D01*
X119179470Y-95307176D01*
X119176255Y-95311949D01*
X119079286Y-95311949D01*
X119075207Y-95306979D01*
X119070921Y-95299812D01*
X119066417Y-95289504D01*
X119058267Y-95278033D01*
X119050167Y-95268824D01*
X119043683Y-95260826D01*
X119039938Y-95255840D01*
X119027788Y-95240751D01*
X119014889Y-95225947D01*
X119002877Y-95213190D01*
X118993388Y-95204243D01*
X118988056Y-95200869D01*
X118981817Y-95203023D01*
X118970748Y-95213746D01*
X118957290Y-95233432D01*
X118941467Y-95262047D01*
X118930813Y-95281663D01*
X118920663Y-95296825D01*
X118909777Y-95308470D01*
X118896019Y-95319293D01*
X118883503Y-95327726D01*
X118865842Y-95338492D01*
X118851099Y-95346301D01*
X118845334Y-95349096D01*
X118834260Y-95355384D01*
X118828550Y-95360019D01*
X118826822Y-95361597D01*
X118818036Y-95367054D01*
X118803840Y-95374666D01*
X118786295Y-95383298D01*
X118771271Y-95390679D01*
X118756408Y-95399333D01*
X118748902Y-95406420D01*
X118747896Y-95412863D01*
X118752530Y-95419585D01*
X118755781Y-95423814D01*
X118752530Y-95425193D01*
X118749398Y-95426699D01*
X118746922Y-95433973D01*
X118743482Y-95441446D01*
X118731733Y-95448419D01*
X118717990Y-95453612D01*
X118706018Y-95458238D01*
X118704778Y-95458800D01*
X118695099Y-95466399D01*
X118686157Y-95477674D01*
X118684578Y-95480275D01*
X118679855Y-95489298D01*
X118680055Y-95494483D01*
X118684999Y-95499129D01*
X118689723Y-95503613D01*
X118692194Y-95509090D01*
X118693391Y-95510555D01*
X118701649Y-95513181D01*
X118715949Y-95515805D01*
X118734220Y-95518206D01*
X118754389Y-95520164D01*
X118774386Y-95521458D01*
X118792138Y-95521867D01*
X118805574Y-95521171D01*
X118808740Y-95520739D01*
X118827763Y-95515701D01*
X118840639Y-95506712D01*
X118841061Y-95506268D01*
X118853348Y-95497771D01*
X118869786Y-95495294D01*
X118874361Y-95495500D01*
X118888661Y-95497665D01*
X118904430Y-95501531D01*
X118918999Y-95506272D01*
X118929698Y-95511065D01*
X118933858Y-95515085D01*
X118935113Y-95516269D01*
X118943113Y-95517998D01*
X118956057Y-95518690D01*
X118961811Y-95518909D01*
X118978681Y-95521441D01*
X118992012Y-95525892D01*
X118994385Y-95527084D01*
X119006402Y-95530577D01*
X119018203Y-95527916D01*
X119031227Y-95524212D01*
X119046507Y-95522252D01*
X119052718Y-95522458D01*
X119069026Y-95524480D01*
X119088960Y-95528059D01*
X119109295Y-95532522D01*
X119126803Y-95537196D01*
X119138260Y-95541406D01*
X119143630Y-95544038D01*
X119166489Y-95553824D01*
X119194269Y-95564175D01*
X119224275Y-95574220D01*
X119253815Y-95583091D01*
X119280195Y-95589919D01*
X119300721Y-95593834D01*
X119318016Y-95596523D01*
X119338461Y-95600622D01*
X119354465Y-95604798D01*
X119356618Y-95605481D01*
X119374723Y-95610921D01*
X119392915Y-95615964D01*
X119408193Y-95619806D01*
X119417556Y-95621647D01*
X119421225Y-95622918D01*
X119429240Y-95628353D01*
X119429947Y-95628908D01*
X119438852Y-95633464D01*
X119453543Y-95639162D01*
X119471232Y-95644902D01*
X119491596Y-95651474D01*
X119514845Y-95659946D01*
X119534323Y-95667984D01*
X119548394Y-95674329D01*
X119563694Y-95681152D01*
X119574116Y-95685712D01*
X119584592Y-95691097D01*
X119597277Y-95699315D01*
X119602244Y-95703333D01*
X119614135Y-95714086D01*
X119628125Y-95727669D01*
X119642427Y-95742241D01*
X119655252Y-95755962D01*
X119664813Y-95766992D01*
X119669323Y-95773490D01*
X119672627Y-95777451D01*
X119681690Y-95780372D01*
X119696549Y-95783521D01*
X119715648Y-95795527D01*
X119735711Y-95816267D01*
X119743863Y-95825971D01*
X119757531Y-95841348D01*
X119769231Y-95853562D01*
X119777731Y-95862931D01*
X119783103Y-95874196D01*
X119784419Y-95889474D01*
X119784219Y-95895148D01*
X119782156Y-95908513D01*
X119778578Y-95916754D01*
X119775759Y-95919770D01*
X119767722Y-95929579D01*
X119763980Y-95938563D01*
X119763713Y-95950053D01*
X119766098Y-95967377D01*
X119766428Y-95969514D01*
X119768156Y-95995486D01*
X119765755Y-96018802D01*
X119759629Y-96037387D01*
X119750182Y-96049167D01*
X119746794Y-96051025D01*
X119731452Y-96054798D01*
X119708769Y-96056104D01*
X119694374Y-96055876D01*
X119682728Y-96054592D01*
X119676067Y-96051590D01*
X119671969Y-96046219D01*
X119669091Y-96041846D01*
X119662291Y-96038224D01*
X119650311Y-96038990D01*
X119639247Y-96039738D01*
X119630374Y-96036285D01*
X119620387Y-96026803D01*
X119616948Y-96022934D01*
X119609712Y-96013892D01*
X119606830Y-96008785D01*
X119606416Y-96007581D01*
X119599959Y-96003381D01*
X119587833Y-95999430D01*
X119572839Y-95996497D01*
X119557779Y-95995349D01*
X119550095Y-95995034D01*
X119529770Y-95990336D01*
X119510124Y-95979169D01*
X119489028Y-95960450D01*
X119479327Y-95951515D01*
X119466378Y-95941861D01*
X119456317Y-95936859D01*
X119449030Y-95935931D01*
X119431019Y-95938208D01*
X119412842Y-95945044D01*
X119398863Y-95955058D01*
X119392030Y-95961174D01*
X119378953Y-95971032D01*
X119363812Y-95981166D01*
X119351960Y-95988334D01*
X119341462Y-95993286D01*
X119330650Y-95995869D01*
X119316515Y-95996773D01*
X119296048Y-95996687D01*
X119290735Y-95996588D01*
X119266281Y-95995141D01*
X119247308Y-95991794D01*
X119230620Y-95986024D01*
X119223068Y-95983075D01*
X119202739Y-95976965D01*
X119183886Y-95973327D01*
X119176161Y-95972284D01*
X119161559Y-95969405D01*
X119151952Y-95966292D01*
X119147753Y-95963899D01*
X119146042Y-95960008D01*
X119151200Y-95953257D01*
X119153013Y-95951584D01*
X119164189Y-95945561D01*
X119178460Y-95941634D01*
X119181327Y-95941154D01*
X119196820Y-95937963D01*
X119216782Y-95933254D01*
X119237630Y-95927863D01*
X119240542Y-95927082D01*
X119264269Y-95921234D01*
X119288774Y-95915913D01*
X119309189Y-95912187D01*
X119311032Y-95911899D01*
X119330188Y-95907933D01*
X119343042Y-95902674D01*
X119352418Y-95895000D01*
X119353642Y-95893648D01*
X119360863Y-95884035D01*
X119363812Y-95877099D01*
X119362093Y-95872670D01*
X119355312Y-95863240D01*
X119345116Y-95851558D01*
X119333374Y-95839517D01*
X119321958Y-95829012D01*
X119312740Y-95821936D01*
X119307589Y-95820184D01*
X119302154Y-95820335D01*
X119293755Y-95815463D01*
X119289121Y-95812010D01*
X119282063Y-95809879D01*
X119271210Y-95810086D01*
X119253886Y-95812427D01*
X119240179Y-95814328D01*
X119225762Y-95814968D01*
X119213311Y-95812904D01*
X119198647Y-95807784D01*
X119192044Y-95805141D01*
X119176414Y-95798122D01*
X119168024Y-95792338D01*
X119165590Y-95786623D01*
X119167828Y-95779812D01*
X119170084Y-95772353D01*
X119165394Y-95768119D01*
X119161531Y-95765252D01*
X119158182Y-95756505D01*
X119157357Y-95751549D01*
X119153408Y-95747658D01*
X119148723Y-95744492D01*
X119143247Y-95735833D01*
X119141853Y-95733372D01*
X119132011Y-95723541D01*
X119117643Y-95715066D01*
X119111244Y-95711980D01*
X119101333Y-95705822D01*
X119097428Y-95701187D01*
X119095773Y-95698361D01*
X119088301Y-95696251D01*
X119083578Y-95695930D01*
X119074980Y-95693936D01*
X119062437Y-95689474D01*
X119043683Y-95681810D01*
X119040590Y-95680534D01*
X119017826Y-95672295D01*
X118994207Y-95665385D01*
X118972863Y-95660632D01*
X118956924Y-95658864D01*
X118949246Y-95659265D01*
X118930885Y-95661892D01*
X118912538Y-95666159D01*
X118909833Y-95666902D01*
X118884632Y-95671076D01*
X118854505Y-95672419D01*
X118822274Y-95671139D01*
X118790757Y-95667441D01*
X118762774Y-95661531D01*
X118741143Y-95653616D01*
X118736134Y-95651565D01*
X118726008Y-95649517D01*
X118725143Y-95649379D01*
X118717798Y-95644950D01*
X118707044Y-95635853D01*
X118694994Y-95624215D01*
X118683761Y-95612163D01*
X118675457Y-95601825D01*
X118672195Y-95595328D01*
X118669956Y-95589996D01*
X118663064Y-95581991D01*
X118657656Y-95578959D01*
X118644694Y-95575470D01*
X118627983Y-95573151D01*
X118610108Y-95572123D01*
X118593654Y-95572504D01*
X118581208Y-95574412D01*
X118575355Y-95577967D01*
X118573913Y-95580362D01*
X118566495Y-95584089D01*
X118565711Y-95584153D01*
X118561380Y-95589107D01*
X118559985Y-95602393D01*
X118559883Y-95606010D01*
X118558064Y-95617115D01*
X118554691Y-95622462D01*
X118551998Y-95625451D01*
X118552691Y-95634603D01*
X118555779Y-95640673D01*
X118560107Y-95642432D01*
X118562960Y-95641232D01*
X118573608Y-95642003D01*
X118584005Y-95647899D01*
X118589775Y-95656527D01*
X118590046Y-95656932D01*
X118593389Y-95664237D01*
X118599175Y-95668210D01*
X118601529Y-95669273D01*
X118607593Y-95676721D01*
X118609357Y-95679894D01*
X118614389Y-95688943D01*
X118620620Y-95703152D01*
X118624993Y-95716559D01*
X118626211Y-95726379D01*
X118624078Y-95733503D01*
X118617545Y-95743933D01*
X118615141Y-95746858D01*
X118612518Y-95753865D01*
X118617209Y-95756197D01*
X118628188Y-95752982D01*
X118635960Y-95747737D01*
X118637701Y-95740540D01*
X118637349Y-95737748D01*
X118642534Y-95734156D01*
X118655475Y-95734151D01*
X118675587Y-95737695D01*
X118702283Y-95744749D01*
X118705127Y-95745587D01*
X118726283Y-95751723D01*
X118746562Y-95757463D01*
X118761925Y-95761661D01*
X118769453Y-95763920D01*
X118779459Y-95768169D01*
X118782955Y-95771665D01*
X118783531Y-95773414D01*
X118789730Y-95779231D01*
X118800666Y-95786238D01*
X118806263Y-95789346D01*
X118816322Y-95794945D01*
X118821089Y-95797621D01*
X118821542Y-95800923D01*
X118820033Y-95809731D01*
X118819060Y-95812752D01*
X118813785Y-95820246D01*
X118803670Y-95826565D01*
X118787235Y-95832461D01*
X118762997Y-95838686D01*
X118745199Y-95842323D01*
X118713757Y-95845262D01*
X118685442Y-95842024D01*
X118657422Y-95832118D01*
X118626865Y-95815053D01*
X118612087Y-95805201D01*
X118602877Y-95797270D01*
X118598299Y-95789747D01*
X118596522Y-95780551D01*
X118596221Y-95777629D01*
X118593834Y-95768438D01*
X118587694Y-95763028D01*
X118575090Y-95758625D01*
X118572305Y-95757853D01*
X118555160Y-95755270D01*
X118540039Y-95757971D01*
X118532674Y-95760533D01*
X118524225Y-95764339D01*
X118522884Y-95767591D01*
X118527407Y-95771635D01*
X118531465Y-95775603D01*
X118528440Y-95778781D01*
X118526266Y-95780027D01*
X118522598Y-95786187D01*
X118521274Y-95789924D01*
X118514239Y-95798423D01*
X118503749Y-95807530D01*
X118492778Y-95814794D01*
X118484300Y-95817760D01*
X118482935Y-95817926D01*
X118474729Y-95823000D01*
X118466725Y-95832948D01*
X118465664Y-95834721D01*
X118458386Y-95846119D01*
X118452774Y-95853781D01*
X118449306Y-95860105D01*
X118447820Y-95870422D01*
X118449751Y-95879369D01*
X118454833Y-95883187D01*
X118458072Y-95883812D01*
X118461843Y-95888671D01*
X118461885Y-95889163D01*
X118464297Y-95896793D01*
X118468202Y-95906292D01*
X118469689Y-95909910D01*
X118477032Y-95925988D01*
X118481804Y-95935680D01*
X118489530Y-95949028D01*
X118496001Y-95955912D01*
X118502460Y-95957892D01*
X118509071Y-95958842D01*
X118515588Y-95962635D01*
X118516415Y-95963484D01*
X118524304Y-95966210D01*
X118536674Y-95967309D01*
X118538487Y-95967334D01*
X118553917Y-95969048D01*
X118566558Y-95972633D01*
X118570208Y-95973981D01*
X118580869Y-95975501D01*
X118596575Y-95974912D01*
X118619354Y-95972200D01*
X118624207Y-95971526D01*
X118646879Y-95968512D01*
X118668511Y-95965818D01*
X118684999Y-95963960D01*
X118691756Y-95963138D01*
X118705125Y-95959823D01*
X118709534Y-95955047D01*
X118711843Y-95951024D01*
X118720049Y-95948586D01*
X118731186Y-95946568D01*
X118744139Y-95941479D01*
X118744259Y-95941416D01*
X118758750Y-95936708D01*
X118774516Y-95935239D01*
X118787769Y-95937744D01*
X118804094Y-95943995D01*
X118818535Y-95952199D01*
X118827427Y-95960598D01*
X118827432Y-95960605D01*
X118833905Y-95966164D01*
X118844687Y-95971827D01*
X118854464Y-95978120D01*
X118859987Y-95987628D01*
X118862254Y-95993274D01*
X118870353Y-95999588D01*
X118885925Y-96005816D01*
X118894992Y-96008632D01*
X118912578Y-96013254D01*
X118926629Y-96015956D01*
X118941581Y-96019274D01*
X118955868Y-96024755D01*
X118957760Y-96025707D01*
X118971984Y-96031874D01*
X118987602Y-96037529D01*
X118992530Y-96039340D01*
X119007652Y-96046101D01*
X119026459Y-96055560D01*
X119045997Y-96066265D01*
X119052785Y-96070040D01*
X119075698Y-96081574D01*
X119098955Y-96091817D01*
X119118435Y-96098913D01*
X119136645Y-96104697D01*
X119153562Y-96110559D01*
X119165192Y-96115126D01*
X119177339Y-96119306D01*
X119196904Y-96124313D01*
X119220959Y-96129413D01*
X119247038Y-96134086D01*
X119272681Y-96137811D01*
X119286913Y-96139680D01*
X119302258Y-96142280D01*
X119311387Y-96145154D01*
X119316172Y-96148985D01*
X119318486Y-96154451D01*
X119318706Y-96155363D01*
X119317641Y-96163291D01*
X119308906Y-96168707D01*
X119304551Y-96170868D01*
X119292674Y-96179322D01*
X119280611Y-96190477D01*
X119267112Y-96203632D01*
X119252664Y-96213455D01*
X119238458Y-96217078D01*
X119222042Y-96215551D01*
X119219098Y-96214982D01*
X119200244Y-96212257D01*
X119181653Y-96210695D01*
X119174572Y-96210066D01*
X119156360Y-96204853D01*
X119136054Y-96193445D01*
X119120541Y-96183841D01*
X119099601Y-96172524D01*
X119079322Y-96163094D01*
X119062086Y-96156639D01*
X119050270Y-96154245D01*
X119046325Y-96154567D01*
X119033697Y-96156482D01*
X119015912Y-96159737D01*
X118995491Y-96163888D01*
X118987779Y-96165524D01*
X118953389Y-96172620D01*
X118925571Y-96177939D01*
X118902233Y-96181865D01*
X118881282Y-96184779D01*
X118873910Y-96185954D01*
X118863266Y-96188921D01*
X118859083Y-96192101D01*
X118857286Y-96195851D01*
X118850381Y-96204726D01*
X118840069Y-96215876D01*
X118839941Y-96216005D01*
X118829312Y-96227688D01*
X118825311Y-96234916D01*
X118827217Y-96238989D01*
X118830197Y-96240732D01*
X118835716Y-96242973D01*
X118838677Y-96245226D01*
X118847133Y-96252896D01*
X118859672Y-96264732D01*
X118874939Y-96279407D01*
X118891576Y-96295593D01*
X118908229Y-96311963D01*
X118923542Y-96327191D01*
X118936158Y-96339950D01*
X118944722Y-96348912D01*
X118947878Y-96352750D01*
X118947383Y-96353620D01*
X118941867Y-96358889D01*
X118932205Y-96366681D01*
X118925222Y-96371133D01*
X118903645Y-96379973D01*
X118873044Y-96387929D01*
X118872185Y-96388112D01*
X118850559Y-96392420D01*
X118834378Y-96394381D01*
X118820130Y-96393883D01*
X118804299Y-96390813D01*
X118783373Y-96385060D01*
X118780336Y-96383604D01*
X118771931Y-96375550D01*
X118764042Y-96363903D01*
X118758722Y-96352043D01*
X118758024Y-96343347D01*
X118758297Y-96342571D01*
X118757784Y-96330185D01*
X118750254Y-96316218D01*
X118737164Y-96302654D01*
X118719969Y-96291479D01*
X118712171Y-96287798D01*
X118697301Y-96282542D01*
X118681356Y-96280100D01*
X118660239Y-96279660D01*
X118647227Y-96280087D01*
X118625879Y-96282791D01*
X118611438Y-96288154D01*
X118611148Y-96288325D01*
X118601538Y-96293306D01*
X118595370Y-96293131D01*
X118588334Y-96287717D01*
X118583394Y-96283760D01*
X118575754Y-96281684D01*
X118564927Y-96284990D01*
X118563972Y-96285365D01*
X118549164Y-96288446D01*
X118533262Y-96288378D01*
X118520177Y-96286548D01*
X118501457Y-96283867D01*
X118481683Y-96280988D01*
X118466624Y-96279384D01*
X118443405Y-96278953D01*
X118421989Y-96280720D01*
X118404854Y-96284435D01*
X118394477Y-96289844D01*
X118391189Y-96292073D01*
X118381461Y-96294448D01*
X118377303Y-96294836D01*
X118373227Y-96298029D01*
X118376332Y-96302772D01*
X118385900Y-96307031D01*
X118398418Y-96309036D01*
X118417034Y-96310016D01*
X118438890Y-96309901D01*
X118461889Y-96308830D01*
X118483933Y-96306945D01*
X118502926Y-96304387D01*
X118516770Y-96301295D01*
X118523367Y-96297811D01*
X118528336Y-96296079D01*
X118539055Y-96301094D01*
X118545011Y-96305979D01*
X118547474Y-96312833D01*
X118541502Y-96317591D01*
X118527645Y-96319373D01*
X118522115Y-96319970D01*
X118508761Y-96325873D01*
X118492439Y-96338881D01*
X118486031Y-96345190D01*
X118474357Y-96361289D01*
X118471481Y-96374817D01*
X118477163Y-96385148D01*
X118491166Y-96391651D01*
X118513251Y-96393698D01*
X118537276Y-96393394D01*
X118568224Y-96393184D01*
X118594526Y-96393226D01*
X118615006Y-96393508D01*
X118628491Y-96394020D01*
X118633806Y-96394752D01*
X118634265Y-96395480D01*
X118632065Y-96400772D01*
X118624539Y-96407622D01*
X118614271Y-96414026D01*
X118603846Y-96417981D01*
X118591350Y-96422603D01*
X118578886Y-96430787D01*
X118573150Y-96437513D01*
X118572348Y-96444815D01*
X118579904Y-96450118D01*
X118596109Y-96453587D01*
X118621252Y-96455393D01*
X118629988Y-96455766D01*
X118655300Y-96458125D01*
X118673003Y-96462431D01*
X118684367Y-96469110D01*
X118690665Y-96478587D01*
X118695087Y-96486714D01*
X118702504Y-96494179D01*
X118703871Y-96495013D01*
X118706338Y-96498697D01*
X118703510Y-96504546D01*
X118694585Y-96514631D01*
X118682198Y-96526151D01*
X118666310Y-96535858D01*
X118646918Y-96541861D01*
X118621146Y-96545365D01*
X118605684Y-96547195D01*
X118590512Y-96549960D01*
X118581170Y-96552835D01*
X118580907Y-96552957D01*
X118572870Y-96554451D01*
X118557556Y-96555638D01*
X118536476Y-96556526D01*
X118511141Y-96557118D01*
X118483061Y-96557422D01*
X118453748Y-96557442D01*
X118424713Y-96557185D01*
X118397466Y-96556655D01*
X118373520Y-96555859D01*
X118354383Y-96554802D01*
X118341569Y-96553489D01*
X118336587Y-96551927D01*
X118331929Y-96548444D01*
X118321894Y-96546812D01*
X118319966Y-96546737D01*
X118307611Y-96545101D01*
X118290145Y-96541763D01*
X118270698Y-96537303D01*
X118270462Y-96537244D01*
X118252612Y-96533194D01*
X118236624Y-96530722D01*
X118219707Y-96529650D01*
X118199068Y-96529799D01*
X118171914Y-96530992D01*
X118167536Y-96531231D01*
X118145552Y-96532711D01*
X118127701Y-96534365D01*
X118115718Y-96536007D01*
X118111337Y-96537454D01*
X118110599Y-96538692D01*
X118103920Y-96543394D01*
X118092547Y-96549192D01*
X118091330Y-96549740D01*
X118080748Y-96554057D01*
X118072661Y-96555123D01*
X118063405Y-96552722D01*
X118049318Y-96546637D01*
X118039513Y-96541886D01*
X118024564Y-96533482D01*
X118014187Y-96526210D01*
X118005265Y-96520672D01*
X117989982Y-96517840D01*
X117988425Y-96517915D01*
X117977195Y-96514575D01*
X117971995Y-96504917D01*
X117973617Y-96490274D01*
X117978339Y-96483198D01*
X117987952Y-96482616D01*
X117995318Y-96482869D01*
X117999175Y-96478945D01*
X118001395Y-96474769D01*
X118009487Y-96470431D01*
X118011066Y-96469990D01*
X118016845Y-96466673D01*
X118013369Y-96463008D01*
X118000708Y-96459032D01*
X117978934Y-96454782D01*
X117971885Y-96453605D01*
X117947233Y-96449356D01*
X117929947Y-96446052D01*
X117918505Y-96443344D01*
X117911385Y-96440884D01*
X117907067Y-96438323D01*
X117906772Y-96438112D01*
X117898903Y-96435307D01*
X117884814Y-96432270D01*
X117867343Y-96429622D01*
X117862319Y-96428974D01*
X117844294Y-96425761D01*
X117833149Y-96421668D01*
X117826858Y-96416016D01*
X117821003Y-96410201D01*
X117811669Y-96406610D01*
X117806432Y-96405665D01*
X117802983Y-96400910D01*
X117807566Y-96394926D01*
X117810656Y-96389810D01*
X117812181Y-96379462D01*
X117812055Y-96376987D01*
X117807720Y-96366347D01*
X117795935Y-96356400D01*
X117786108Y-96349121D01*
X117781855Y-96342000D01*
X117782443Y-96332432D01*
X117782952Y-96322326D01*
X117779996Y-96315769D01*
X117778023Y-96314035D01*
X117774852Y-96305891D01*
X117772988Y-96299010D01*
X117765147Y-96288219D01*
X117754204Y-96279403D01*
X117743482Y-96275754D01*
X117743346Y-96275755D01*
X117731197Y-96277611D01*
X117717452Y-96281989D01*
X117712109Y-96284027D01*
X117700592Y-96285791D01*
X117688394Y-96282200D01*
X117681710Y-96280051D01*
X117665712Y-96277180D01*
X117648131Y-96275965D01*
X117629979Y-96277165D01*
X117612981Y-96283332D01*
X117601263Y-96295878D01*
X117593078Y-96316076D01*
X117590675Y-96323882D01*
X117585826Y-96337038D01*
X117581826Y-96344885D01*
X117579742Y-96348856D01*
X117582505Y-96356335D01*
X117585536Y-96361100D01*
X117587915Y-96371776D01*
X117589328Y-96380724D01*
X117595533Y-96398289D01*
X117606071Y-96420352D01*
X117612375Y-96426255D01*
X117623300Y-96431477D01*
X117634438Y-96436010D01*
X117643996Y-96441717D01*
X117650815Y-96446062D01*
X117662690Y-96451026D01*
X117671409Y-96454272D01*
X117681940Y-96460687D01*
X117686057Y-96467023D01*
X117686056Y-96467115D01*
X117682390Y-96474486D01*
X117673378Y-96484480D01*
X117661578Y-96494846D01*
X117649549Y-96503331D01*
X117639850Y-96507684D01*
X117639159Y-96507826D01*
X117629349Y-96511050D01*
X117625302Y-96514682D01*
X117625133Y-96515749D01*
X117620434Y-96518772D01*
X117614333Y-96521339D01*
X117605543Y-96528108D01*
X117603265Y-96530262D01*
X117598477Y-96536322D01*
X117598610Y-96542864D01*
X117603326Y-96553812D01*
X117604863Y-96556863D01*
X117610995Y-96566355D01*
X117615827Y-96570179D01*
X117618938Y-96570861D01*
X117627763Y-96576467D01*
X117635808Y-96584827D01*
X117639323Y-96592395D01*
X117638520Y-96595537D01*
X117632313Y-96601203D01*
X117627249Y-96607355D01*
X117625302Y-96621233D01*
X117625757Y-96631010D01*
X117628597Y-96637205D01*
X117636017Y-96641604D01*
X117650210Y-96646425D01*
X117652930Y-96647305D01*
X117671346Y-96655511D01*
X117681669Y-96666167D01*
X117684949Y-96681101D01*
X117682238Y-96702142D01*
X117681685Y-96704746D01*
X117679357Y-96720838D01*
X117680438Y-96734752D01*
X117685250Y-96751788D01*
X117686566Y-96755893D01*
X117691158Y-96778370D01*
X117690323Y-96800858D01*
X117689223Y-96811285D01*
X117689889Y-96825588D01*
X117694381Y-96836478D01*
X117694621Y-96836868D01*
X117699428Y-96850679D01*
X117700690Y-96867819D01*
X117700551Y-96872172D01*
X117702499Y-96886760D01*
X117709390Y-96897284D01*
X117715394Y-96905382D01*
X117716329Y-96911509D01*
X117715666Y-96912959D01*
X117716449Y-96920710D01*
X117717945Y-96926186D01*
X117719593Y-96938658D01*
X117720776Y-96954788D01*
X117721459Y-96966206D01*
X117723263Y-96977795D01*
X117727356Y-96987218D01*
X117735161Y-96997419D01*
X117748098Y-97011340D01*
X117759986Y-97024577D01*
X117771446Y-97041107D01*
X117778247Y-97058271D01*
X117782140Y-97079581D01*
X117782505Y-97082320D01*
X117787849Y-97105004D01*
X117796229Y-97123159D01*
X117806581Y-97134398D01*
X117815353Y-97140392D01*
X117821684Y-97147036D01*
X117824762Y-97155734D01*
X117825369Y-97168903D01*
X117824290Y-97188958D01*
X117824287Y-97189000D01*
X117823523Y-97210891D01*
X117825584Y-97225177D01*
X117831632Y-97233451D01*
X117842829Y-97237305D01*
X117860337Y-97238329D01*
X117865259Y-97238478D01*
X117884024Y-97242462D01*
X117896065Y-97252349D01*
X117902297Y-97268805D01*
X117902996Y-97278621D01*
X117898579Y-97294010D01*
X117886381Y-97310334D01*
X117881069Y-97316915D01*
X117878097Y-97326725D01*
X117883275Y-97335684D01*
X117886158Y-97340011D01*
X117881253Y-97341292D01*
X117876437Y-97342873D01*
X117870781Y-97350249D01*
X117870706Y-97350472D01*
X117864351Y-97358180D01*
X117853370Y-97364283D01*
X117841430Y-97370295D01*
X117832881Y-97377816D01*
X117829793Y-97381382D01*
X117819709Y-97390394D01*
X117806875Y-97400000D01*
X117801410Y-97403867D01*
X117784797Y-97416714D01*
X117770306Y-97429235D01*
X117769798Y-97429709D01*
X117757190Y-97440333D01*
X117740369Y-97453133D01*
X117722828Y-97465446D01*
X117722271Y-97465820D01*
X117704671Y-97479058D01*
X117688106Y-97493843D01*
X117676094Y-97507046D01*
X117669314Y-97515625D01*
X117661279Y-97524561D01*
X117656659Y-97528084D01*
X117655848Y-97528170D01*
X117647252Y-97532254D01*
X117637177Y-97540317D01*
X117628801Y-97549454D01*
X117625302Y-97556759D01*
X117624536Y-97561085D01*
X117619461Y-97567421D01*
X117617026Y-97570610D01*
X117622556Y-97575989D01*
X117637510Y-97587627D01*
X117644886Y-97598055D01*
X117645371Y-97608498D01*
X117641609Y-97617547D01*
X117628253Y-97632880D01*
X117606725Y-97647640D01*
X117601895Y-97650622D01*
X117588724Y-97660615D01*
X117575007Y-97672961D01*
X117562738Y-97685653D01*
X117553913Y-97696690D01*
X117550528Y-97704067D01*
X117550211Y-97706732D01*
X117547023Y-97710516D01*
X117546136Y-97711104D01*
X117543852Y-97717890D01*
X117542411Y-97729825D01*
X117542400Y-97730016D01*
X117540601Y-97744303D01*
X117535933Y-97754529D01*
X117526487Y-97763270D01*
X117510355Y-97773105D01*
X117498345Y-97779266D01*
X117491670Y-97780899D01*
X117489773Y-97777827D01*
X117486648Y-97771821D01*
X117477955Y-97765661D01*
X117472451Y-97763539D01*
X117463732Y-97763600D01*
X117453419Y-97769742D01*
X117450280Y-97772221D01*
X117444054Y-97779497D01*
X117440811Y-97789659D01*
X117439291Y-97805932D01*
X117438367Y-97819018D01*
X117436296Y-97828718D01*
X117431975Y-97833966D01*
X117424103Y-97837459D01*
X117418085Y-97839816D01*
X117411315Y-97844786D01*
X117413780Y-97849723D01*
X117425514Y-97855078D01*
X117427470Y-97855794D01*
X117435435Y-97860172D01*
X117435403Y-97863713D01*
X117433120Y-97866767D01*
X117432590Y-97875696D01*
X117435173Y-97891658D01*
X117437346Y-97902980D01*
X117438069Y-97912743D01*
X117435732Y-97918604D01*
X117429833Y-97923556D01*
X117423123Y-97929878D01*
X117420484Y-97936336D01*
X117420126Y-97949802D01*
X117414908Y-97966725D01*
X117406114Y-97983989D01*
X117395188Y-97999237D01*
X117383576Y-98010114D01*
X117372719Y-98014264D01*
X117370731Y-98014454D01*
X117364239Y-98020189D01*
X117362309Y-98033534D01*
X117365039Y-98053988D01*
X117368868Y-98074175D01*
X117371949Y-98096848D01*
X117373160Y-98115606D01*
X117372405Y-98128723D01*
X117369584Y-98134473D01*
X117366441Y-98136961D01*
X117363591Y-98145344D01*
X117362843Y-98150193D01*
X117358318Y-98157174D01*
X117356287Y-98158842D01*
X117356799Y-98162698D01*
X117363815Y-98165547D01*
X117375297Y-98166813D01*
X117389208Y-98165918D01*
X117399673Y-98163797D01*
X117410649Y-98158326D01*
X117418747Y-98148118D01*
X117426498Y-98138623D01*
X117439718Y-98126439D01*
X117455128Y-98114793D01*
X117469155Y-98104758D01*
X117488716Y-98089420D01*
X117505266Y-98075069D01*
X117511747Y-98069165D01*
X117542731Y-98045183D01*
X117573153Y-98028287D01*
X117581627Y-98024075D01*
X117600421Y-98012790D01*
X117622106Y-97998087D01*
X117644137Y-97981805D01*
X117663966Y-97965781D01*
X117679047Y-97951854D01*
X117683744Y-97947109D01*
X117699366Y-97932659D01*
X117714989Y-97919858D01*
X117728944Y-97909929D01*
X117739558Y-97904091D01*
X117745159Y-97903565D01*
X117745433Y-97903942D01*
X117745795Y-97910981D01*
X117743673Y-97923112D01*
X117739907Y-97937147D01*
X117735334Y-97949900D01*
X117730793Y-97958183D01*
X117729239Y-97960277D01*
X117723038Y-97970177D01*
X117714460Y-97985059D01*
X117704870Y-98002580D01*
X117700641Y-98010322D01*
X117691251Y-98026282D01*
X117683329Y-98038162D01*
X117678249Y-98043832D01*
X117674492Y-98047520D01*
X117667328Y-98057951D01*
X117659693Y-98071873D01*
X117655029Y-98081250D01*
X117646224Y-98098520D01*
X117638898Y-98112405D01*
X117637776Y-98114564D01*
X117632240Y-98128779D01*
X117629983Y-98141080D01*
X117628087Y-98153113D01*
X117622995Y-98166784D01*
X117618169Y-98178944D01*
X117615984Y-98190685D01*
X117615956Y-98201200D01*
X116987382Y-98201200D01*
X116358807Y-98201200D01*
X116358807Y-98184697D01*
X116357099Y-98172264D01*
X116351797Y-98165503D01*
X116349278Y-98164356D01*
X116345369Y-98159600D01*
X116348081Y-98152555D01*
X116357911Y-98142437D01*
X116375357Y-98128463D01*
X116384392Y-98121434D01*
X116399316Y-98107763D01*
X116407273Y-98095782D01*
X116409199Y-98083701D01*
X116406028Y-98069730D01*
X116405191Y-98067251D01*
X116401343Y-98047407D01*
X116404435Y-98029475D01*
X116414977Y-98010050D01*
X116428916Y-97989480D01*
X116417229Y-97968569D01*
X116413281Y-97961054D01*
X116407724Y-97948347D01*
X116405542Y-97940000D01*
X116408541Y-97934870D01*
X116419968Y-97926680D01*
X116439424Y-97916700D01*
X116439873Y-97916492D01*
X116465871Y-97903759D01*
X116484116Y-97892884D01*
X116495743Y-97882896D01*
X116501887Y-97872822D01*
X116503683Y-97861693D01*
X116505880Y-97845903D01*
X116511361Y-97830385D01*
X116511684Y-97829764D01*
X116518144Y-97817237D01*
X116523122Y-97807404D01*
X116525207Y-97800719D01*
X116527808Y-97786832D01*
X116529850Y-97770016D01*
X116532022Y-97752057D01*
X116536235Y-97732324D01*
X116541510Y-97719645D01*
X116547479Y-97715165D01*
X116551892Y-97713289D01*
X116560204Y-97705477D01*
X116568874Y-97694290D01*
X116575694Y-97682688D01*
X116578458Y-97673630D01*
X116579285Y-97667982D01*
X116583420Y-97661243D01*
X116587355Y-97657333D01*
X116592967Y-97648115D01*
X116597456Y-97638986D01*
X116604293Y-97626370D01*
X116605307Y-97624323D01*
X116608559Y-97612692D01*
X116610535Y-97597689D01*
X116611083Y-97582447D01*
X116610054Y-97570098D01*
X116607297Y-97563773D01*
X116605023Y-97560182D01*
X116601115Y-97549565D01*
X116597061Y-97534861D01*
X116596040Y-97530575D01*
X116593393Y-97517162D01*
X116593547Y-97507207D01*
X116597048Y-97496814D01*
X116604441Y-97482089D01*
X116606918Y-97477267D01*
X116612857Y-97463891D01*
X116616325Y-97451037D01*
X116618002Y-97435419D01*
X116618568Y-97413752D01*
X116618821Y-97401096D01*
X116620363Y-97380111D01*
X116623722Y-97363598D01*
X116629440Y-97348302D01*
X116630015Y-97347006D01*
X116636897Y-97326089D01*
X116637280Y-97308578D01*
X116634160Y-97288941D01*
X116631729Y-97271181D01*
X116630922Y-97258593D01*
X116631774Y-97248941D01*
X116634325Y-97239986D01*
X116638611Y-97229492D01*
X116644862Y-97210401D01*
X116648559Y-97179043D01*
X116648926Y-97169057D01*
X116651469Y-97146487D01*
X116655635Y-97126165D01*
X116656043Y-97124605D01*
X116658931Y-97109079D01*
X116661703Y-97087269D01*
X116664062Y-97061851D01*
X116665709Y-97035501D01*
X116666266Y-97023540D01*
X116667493Y-97000908D01*
X116668968Y-96984565D01*
X116671159Y-96972365D01*
X116674533Y-96962164D01*
X116679558Y-96951818D01*
X116686700Y-96939183D01*
X116692799Y-96928221D01*
X116707649Y-96895685D01*
X116715978Y-96865001D01*
X116718610Y-96833436D01*
X116719058Y-96821754D01*
X116721585Y-96798369D01*
X116725587Y-96777355D01*
X116728358Y-96763163D01*
X116730979Y-96736570D01*
X116731429Y-96707239D01*
X116731168Y-96694206D01*
X116731388Y-96677572D01*
X116732811Y-96666462D01*
X116735846Y-96658462D01*
X116740900Y-96651158D01*
X116742675Y-96648905D01*
X116751505Y-96636029D01*
X116758294Y-96621969D01*
X116764141Y-96604032D01*
X116770145Y-96579526D01*
X116774826Y-96559460D01*
X116780819Y-96535119D01*
X116786258Y-96514259D01*
X116787562Y-96509391D01*
X116791526Y-96492365D01*
X116793743Y-96476671D01*
X116794338Y-96459660D01*
X116793437Y-96438682D01*
X116791168Y-96411089D01*
X116787511Y-96371172D01*
X116808969Y-96347998D01*
X116819843Y-96335799D01*
X116831706Y-96319696D01*
X116837795Y-96305298D01*
X116839025Y-96290045D01*
X116836308Y-96271375D01*
X116832016Y-96242848D01*
X116830939Y-96213502D01*
X116833491Y-96188058D01*
X116839598Y-96168902D01*
X116840751Y-96166656D01*
X116847914Y-96152260D01*
X116853584Y-96140225D01*
X116857895Y-96131177D01*
X116863118Y-96121531D01*
X116865649Y-96116120D01*
X116870289Y-96103470D01*
X116875230Y-96087778D01*
X116879011Y-96076227D01*
X116885325Y-96060781D01*
X116891118Y-96050391D01*
X116896716Y-96041884D01*
X116902553Y-96029583D01*
X117883796Y-96029583D01*
X117885108Y-96045314D01*
X117889863Y-96057115D01*
X117900076Y-96069570D01*
X117903016Y-96072735D01*
X117911254Y-96083334D01*
X117914335Y-96092989D01*
X117913825Y-96105835D01*
X117913334Y-96115781D01*
X117916473Y-96127893D01*
X117925840Y-96136676D01*
X117942981Y-96144159D01*
X117954292Y-96147345D01*
X117970044Y-96149137D01*
X117988189Y-96147989D01*
X118010255Y-96143668D01*
X118037771Y-96135943D01*
X118072268Y-96124581D01*
X118078645Y-96122319D01*
X118097487Y-96114148D01*
X118111993Y-96104365D01*
X118126012Y-96090531D01*
X118135979Y-96079745D01*
X118149050Y-96066210D01*
X118159240Y-96056323D01*
X118160980Y-96054691D01*
X118168881Y-96045553D01*
X118172092Y-96038706D01*
X118172708Y-96036170D01*
X118178557Y-96032737D01*
X118183220Y-96030483D01*
X118186949Y-96020795D01*
X118188250Y-96003014D01*
X118187197Y-95976656D01*
X118186424Y-95963576D01*
X118186558Y-95951078D01*
X118188450Y-95944324D01*
X118192406Y-95941233D01*
X118193743Y-95940565D01*
X118201515Y-95933547D01*
X118209650Y-95922636D01*
X118213107Y-95916635D01*
X118216565Y-95906292D01*
X118214447Y-95897758D01*
X118204413Y-95885088D01*
X118186979Y-95872946D01*
X118167005Y-95866222D01*
X118165268Y-95865911D01*
X118150871Y-95861264D01*
X118139863Y-95854596D01*
X118132464Y-95848692D01*
X118126343Y-95845800D01*
X118122224Y-95843126D01*
X118116521Y-95835069D01*
X118115353Y-95833202D01*
X118104109Y-95824217D01*
X118083954Y-95816376D01*
X118065501Y-95811458D01*
X118047427Y-95808900D01*
X118031289Y-95810206D01*
X118013475Y-95815324D01*
X118002608Y-95818473D01*
X117983378Y-95822511D01*
X117963685Y-95825330D01*
X117948804Y-95827324D01*
X117946058Y-95827911D01*
X117936607Y-95829931D01*
X117931004Y-95832439D01*
X117930462Y-95833774D01*
X117933472Y-95836453D01*
X117933799Y-95836489D01*
X117936700Y-95841259D01*
X117938136Y-95851900D01*
X117938100Y-95865324D01*
X117936584Y-95878443D01*
X117933583Y-95888168D01*
X117929483Y-95893516D01*
X117922400Y-95897208D01*
X117917638Y-95898877D01*
X117912454Y-95906886D01*
X117910441Y-95918686D01*
X117911966Y-95931096D01*
X117917391Y-95940937D01*
X117921395Y-95945844D01*
X117924401Y-95952955D01*
X117924803Y-95954783D01*
X117930195Y-95957962D01*
X117931136Y-95958236D01*
X117929951Y-95962351D01*
X117923185Y-95969835D01*
X117921429Y-95971524D01*
X117913572Y-95980941D01*
X117910381Y-95988137D01*
X117910378Y-95988274D01*
X117906331Y-95994515D01*
X117896914Y-96000527D01*
X117892577Y-96002593D01*
X117886576Y-96007469D01*
X117884118Y-96015426D01*
X117883796Y-96029583D01*
X116902553Y-96029583D01*
X116904710Y-96025037D01*
X116910225Y-96007483D01*
X116912445Y-95992105D01*
X116910553Y-95981787D01*
X116908699Y-95973509D01*
X116911146Y-95962222D01*
X116916937Y-95952652D01*
X116924472Y-95948615D01*
X116927084Y-95948505D01*
X116934087Y-95945653D01*
X116937743Y-95937465D01*
X116939133Y-95921973D01*
X116939161Y-95921107D01*
X116940845Y-95902541D01*
X116945328Y-95891169D01*
X116954076Y-95885001D01*
X116968556Y-95882047D01*
X116983153Y-95880019D01*
X116991618Y-95876909D01*
X116994919Y-95871166D01*
X116995200Y-95861103D01*
X116994327Y-95838348D01*
X116994215Y-95831780D01*
X117908044Y-95831780D01*
X117910036Y-95834848D01*
X117913066Y-95835754D01*
X117919727Y-95831780D01*
X117921439Y-95830613D01*
X117922936Y-95827911D01*
X117915947Y-95827178D01*
X117909596Y-95828245D01*
X117908044Y-95831780D01*
X116994215Y-95831780D01*
X116993970Y-95817334D01*
X116994865Y-95801677D01*
X116997518Y-95789189D01*
X117002432Y-95777679D01*
X117010113Y-95764959D01*
X117021063Y-95748839D01*
X117033940Y-95729576D01*
X117052573Y-95698588D01*
X118410436Y-95698588D01*
X118412773Y-95700924D01*
X118415109Y-95698588D01*
X118412773Y-95696251D01*
X118410436Y-95698588D01*
X117052573Y-95698588D01*
X117058338Y-95689000D01*
X117062091Y-95681682D01*
X118405799Y-95681682D01*
X118409715Y-95685874D01*
X118419307Y-95690683D01*
X118431062Y-95694620D01*
X118441469Y-95696251D01*
X118448335Y-95697191D01*
X118450767Y-95698588D01*
X118454833Y-95700924D01*
X118455791Y-95702214D01*
X118461843Y-95705598D01*
X118463094Y-95705416D01*
X118468853Y-95700924D01*
X118469166Y-95698393D01*
X118463938Y-95696251D01*
X118461129Y-95696014D01*
X118460464Y-95693529D01*
X118467167Y-95687267D01*
X118476222Y-95679894D01*
X118485210Y-95679894D01*
X118485550Y-95681909D01*
X118490906Y-95685747D01*
X118503904Y-95686904D01*
X118509278Y-95686777D01*
X118519511Y-95684768D01*
X118522598Y-95679894D01*
X118522258Y-95677879D01*
X118516902Y-95674041D01*
X118503904Y-95672884D01*
X118498530Y-95673011D01*
X118488297Y-95675020D01*
X118486230Y-95678283D01*
X118485210Y-95679894D01*
X118476222Y-95679894D01*
X118478200Y-95678283D01*
X118466312Y-95673729D01*
X118461372Y-95672632D01*
X118449147Y-95672238D01*
X118434547Y-95673331D01*
X118420502Y-95675526D01*
X118409942Y-95678438D01*
X118405799Y-95681682D01*
X117062091Y-95681682D01*
X117074991Y-95656527D01*
X118559985Y-95656527D01*
X118562322Y-95658864D01*
X118564658Y-95656527D01*
X118562322Y-95654190D01*
X118559985Y-95656527D01*
X117074991Y-95656527D01*
X117080983Y-95644843D01*
X117085771Y-95632028D01*
X117089605Y-95617110D01*
X117089666Y-95616791D01*
X117095605Y-95600009D01*
X117105031Y-95588415D01*
X117116266Y-95584089D01*
X117127044Y-95580628D01*
X117139378Y-95571200D01*
X117149928Y-95558543D01*
X117155877Y-95545407D01*
X117159816Y-95534795D01*
X117170302Y-95518118D01*
X117184069Y-95502575D01*
X117198359Y-95491658D01*
X117206712Y-95483734D01*
X117212204Y-95467528D01*
X117214054Y-95459000D01*
X117218366Y-95451133D01*
X117226457Y-95446593D01*
X117240177Y-95444495D01*
X117261372Y-95443950D01*
X117269103Y-95443705D01*
X117286889Y-95440058D01*
X117296990Y-95431480D01*
X117299939Y-95417253D01*
X117296265Y-95396656D01*
X117295423Y-95392501D01*
X117297897Y-95380231D01*
X117307892Y-95372073D01*
X117324301Y-95369112D01*
X117330771Y-95368825D01*
X117340057Y-95365402D01*
X117345953Y-95356260D01*
X117348128Y-95351582D01*
X117357780Y-95337677D01*
X117372083Y-95326833D01*
X117393370Y-95317126D01*
X117399753Y-95314476D01*
X117415603Y-95305497D01*
X117424579Y-95296238D01*
X117430094Y-95288701D01*
X117436311Y-95284991D01*
X117438727Y-95284269D01*
X117447457Y-95278185D01*
X117459402Y-95267422D01*
X117472799Y-95253820D01*
X117485884Y-95239217D01*
X117496893Y-95225452D01*
X117504062Y-95214363D01*
X117506156Y-95210416D01*
X117512785Y-95199642D01*
X117517760Y-95193892D01*
X117519968Y-95191055D01*
X117517827Y-95182199D01*
X117514141Y-95172743D01*
X117515005Y-95157878D01*
X117524834Y-95142882D01*
X117528946Y-95138169D01*
X117539750Y-95122994D01*
X117547537Y-95108042D01*
X117550528Y-95096522D01*
X117551396Y-95092494D01*
X117557079Y-95084414D01*
X117561923Y-95078224D01*
X117566645Y-95066969D01*
X117568053Y-95062268D01*
X117573213Y-95048516D01*
X117579869Y-95033279D01*
X117586255Y-95015524D01*
X117590263Y-94987754D01*
X117588115Y-94960420D01*
X117579813Y-94936821D01*
X117572964Y-94923852D01*
X117562102Y-94902146D01*
X117549635Y-94876349D01*
X117536747Y-94848921D01*
X117524626Y-94822323D01*
X117517544Y-94803821D01*
X117512468Y-94784149D01*
X117510767Y-94767813D01*
X117512889Y-94757303D01*
X117516713Y-94757242D01*
X117524443Y-94763485D01*
X117534769Y-94774844D01*
X117546554Y-94789792D01*
X117558660Y-94806800D01*
X117569950Y-94824341D01*
X117579286Y-94840886D01*
X117585533Y-94854908D01*
X117585829Y-94855714D01*
X117592554Y-94869003D01*
X117603242Y-94885538D01*
X117615721Y-94901936D01*
X117639323Y-94930296D01*
X117639323Y-94975313D01*
X117638743Y-94995537D01*
X117635789Y-95025001D01*
X117630697Y-95050875D01*
X117623881Y-95071255D01*
X117615752Y-95084238D01*
X117611343Y-95091634D01*
X117606272Y-95105691D01*
X117602131Y-95122720D01*
X117600221Y-95131793D01*
X117593744Y-95151478D01*
X117585122Y-95163911D01*
X117584670Y-95164340D01*
X117577045Y-95173282D01*
X117573895Y-95180264D01*
X117573888Y-95180471D01*
X117570150Y-95187158D01*
X117561630Y-95195004D01*
X117555605Y-95200126D01*
X117551458Y-95207044D01*
X117549425Y-95217724D01*
X117548593Y-95234956D01*
X117548483Y-95238683D01*
X117547023Y-95256507D01*
X117543645Y-95268531D01*
X117537579Y-95277754D01*
X117537496Y-95277849D01*
X117532174Y-95285127D01*
X117529443Y-95293212D01*
X117528823Y-95304928D01*
X117529830Y-95323097D01*
X117530311Y-95329010D01*
X117532827Y-95347326D01*
X117537000Y-95360059D01*
X117543711Y-95370193D01*
X117555097Y-95383726D01*
X117566200Y-95371746D01*
X117567248Y-95370640D01*
X117576101Y-95362924D01*
X117582609Y-95359765D01*
X117584268Y-95359555D01*
X117587915Y-95355599D01*
X117588564Y-95354253D01*
X117595173Y-95349406D01*
X117606609Y-95343953D01*
X117611363Y-95341819D01*
X117621332Y-95335345D01*
X117625302Y-95329426D01*
X117625660Y-95327341D01*
X117631024Y-95323524D01*
X117643996Y-95322378D01*
X117648186Y-95322259D01*
X117658544Y-95320631D01*
X117662690Y-95317704D01*
X117663102Y-95315983D01*
X117668532Y-95313009D01*
X117670029Y-95312727D01*
X117678182Y-95308220D01*
X117688394Y-95299965D01*
X117689751Y-95298740D01*
X117704032Y-95288256D01*
X117718771Y-95280416D01*
X117725623Y-95276314D01*
X117737494Y-95267132D01*
X117752051Y-95254656D01*
X117767650Y-95240431D01*
X117782646Y-95226003D01*
X117795393Y-95212919D01*
X117804248Y-95202724D01*
X117807566Y-95196964D01*
X117810046Y-95193801D01*
X117818081Y-95189125D01*
X117820357Y-95187770D01*
X117827924Y-95177345D01*
X117833940Y-95159432D01*
X117838033Y-95135448D01*
X117839829Y-95106805D01*
X117839833Y-95106562D01*
X117840961Y-95089371D01*
X117844945Y-95078608D01*
X117853812Y-95071421D01*
X117869590Y-95064958D01*
X117886633Y-95057000D01*
X117898532Y-95045754D01*
X117906021Y-95029406D01*
X117910525Y-95005899D01*
X117912466Y-94979408D01*
X117910514Y-94944194D01*
X117903429Y-94912853D01*
X117891599Y-94886914D01*
X117875415Y-94867909D01*
X117871835Y-94864765D01*
X117861907Y-94853861D01*
X117856401Y-94844412D01*
X117855418Y-94841872D01*
X117848768Y-94830868D01*
X117839156Y-94819137D01*
X117836199Y-94815769D01*
X117827721Y-94802841D01*
X117823609Y-94791194D01*
X117821287Y-94781830D01*
X117817206Y-94776465D01*
X117813891Y-94772145D01*
X117812261Y-94762347D01*
X117812230Y-94760939D01*
X117811108Y-94749052D01*
X117808698Y-94731833D01*
X117805439Y-94712497D01*
X117802289Y-94695195D01*
X117796362Y-94661474D01*
X117792310Y-94635562D01*
X117790161Y-94616513D01*
X117789942Y-94603381D01*
X117791680Y-94595221D01*
X117795403Y-94591087D01*
X117801136Y-94590033D01*
X117808907Y-94591114D01*
X117822088Y-94595116D01*
X117834843Y-94601168D01*
X117843033Y-94605176D01*
X117848433Y-94605423D01*
X117850589Y-94604760D01*
X117857099Y-94607729D01*
X117860087Y-94609284D01*
X117863426Y-94606059D01*
X117866071Y-94594837D01*
X117866553Y-94591995D01*
X117868854Y-94579557D01*
X117870574Y-94571908D01*
X117871552Y-94570295D01*
X117879744Y-94564968D01*
X117893936Y-94559323D01*
X117911673Y-94553969D01*
X117930503Y-94549510D01*
X117947971Y-94546554D01*
X117961622Y-94545707D01*
X117969005Y-94547576D01*
X117970441Y-94548507D01*
X117977729Y-94548441D01*
X117983831Y-94549478D01*
X117992016Y-94555773D01*
X117999201Y-94562099D01*
X118006355Y-94565285D01*
X118008722Y-94566115D01*
X118016325Y-94572392D01*
X118025324Y-94582810D01*
X118029142Y-94587802D01*
X118038053Y-94599005D01*
X118044238Y-94606177D01*
X118051376Y-94610015D01*
X118061336Y-94611869D01*
X118070151Y-94611369D01*
X118073950Y-94608245D01*
X118075925Y-94605281D01*
X118083776Y-94598160D01*
X118095564Y-94589236D01*
X118110048Y-94580142D01*
X118122619Y-94575789D01*
X118136457Y-94575409D01*
X118137345Y-94575473D01*
X118149371Y-94575615D01*
X118155080Y-94572982D01*
X118157228Y-94566378D01*
X118157580Y-94562283D01*
X118155741Y-94558070D01*
X118148956Y-94556299D01*
X118135030Y-94555938D01*
X118132690Y-94555930D01*
X118119398Y-94555187D01*
X118112989Y-94552710D01*
X118111320Y-94547760D01*
X118109422Y-94543318D01*
X118100266Y-94536053D01*
X118085481Y-94529043D01*
X118067254Y-94523253D01*
X118047770Y-94519652D01*
X118041964Y-94518849D01*
X118030275Y-94516167D01*
X118024449Y-94513182D01*
X118024332Y-94512841D01*
X118027031Y-94507191D01*
X118034987Y-94497460D01*
X118046681Y-94485539D01*
X118048766Y-94483581D01*
X118060524Y-94473380D01*
X118069171Y-94467269D01*
X118072961Y-94466512D01*
X118077603Y-94467852D01*
X118087055Y-94464427D01*
X118097374Y-94459883D01*
X118105496Y-94457825D01*
X118108732Y-94456346D01*
X118111337Y-94449115D01*
X118110966Y-94446243D01*
X118107409Y-94442232D01*
X118098454Y-94439545D01*
X118082129Y-94437388D01*
X118082055Y-94437380D01*
X118063804Y-94434627D01*
X118052285Y-94430437D01*
X118044902Y-94423870D01*
X118043418Y-94421909D01*
X118039742Y-94415298D01*
X118041545Y-94409662D01*
X118049575Y-94401402D01*
X118057123Y-94395938D01*
X118071602Y-94387905D01*
X118089294Y-94379473D01*
X118107364Y-94371896D01*
X118122978Y-94366429D01*
X118133301Y-94364328D01*
X118137783Y-94362984D01*
X118145913Y-94357125D01*
X118150785Y-94353131D01*
X118156952Y-94352663D01*
X118167045Y-94357125D01*
X118180183Y-94362138D01*
X118193113Y-94364328D01*
X118204396Y-94367422D01*
X118216080Y-94376012D01*
X118216634Y-94376598D01*
X118226489Y-94384455D01*
X118235228Y-94387695D01*
X118236505Y-94387732D01*
X118240135Y-94389112D01*
X118241684Y-94393919D01*
X118241397Y-94404094D01*
X118239520Y-94421577D01*
X118238427Y-94432693D01*
X118236881Y-94456022D01*
X118235790Y-94482477D01*
X118235337Y-94508204D01*
X118235042Y-94525817D01*
X118234027Y-94544976D01*
X118232445Y-94558400D01*
X118230451Y-94564285D01*
X118227086Y-94570026D01*
X118225084Y-94580800D01*
X118222936Y-94591276D01*
X118217289Y-94601830D01*
X118216648Y-94602534D01*
X118208169Y-94611799D01*
X118198122Y-94622747D01*
X118196273Y-94624820D01*
X118189042Y-94634434D01*
X118186112Y-94641023D01*
X118185794Y-94642402D01*
X118180869Y-94649738D01*
X118171878Y-94658944D01*
X118157643Y-94671653D01*
X118174145Y-94674749D01*
X118177203Y-94675394D01*
X118194237Y-94680956D01*
X118211310Y-94689097D01*
X118225388Y-94698188D01*
X118233441Y-94706600D01*
X118236644Y-94710215D01*
X118247031Y-94717855D01*
X118261439Y-94726485D01*
X118277019Y-94734561D01*
X118290926Y-94740539D01*
X118300313Y-94742875D01*
X118304021Y-94743578D01*
X118311320Y-94750730D01*
X118315134Y-94763769D01*
X118314603Y-94780429D01*
X118313391Y-94791708D01*
X118312262Y-94810089D01*
X118311386Y-94832743D01*
X118310887Y-94857091D01*
X118310239Y-94915593D01*
X118296549Y-94920365D01*
X118292469Y-94921545D01*
X118277221Y-94924114D01*
X118260456Y-94925138D01*
X118254085Y-94925036D01*
X118243896Y-94923726D01*
X118234832Y-94919829D01*
X118224309Y-94912009D01*
X118209745Y-94898931D01*
X118205507Y-94894950D01*
X118193233Y-94882696D01*
X118184661Y-94873014D01*
X118181439Y-94867717D01*
X118181192Y-94866588D01*
X118176763Y-94859991D01*
X118168650Y-94851256D01*
X118159306Y-94842682D01*
X118151186Y-94836567D01*
X118146741Y-94835211D01*
X118146696Y-94835252D01*
X118144148Y-94832779D01*
X118141176Y-94824042D01*
X118137955Y-94815803D01*
X118130191Y-94801644D01*
X118120193Y-94786674D01*
X118109737Y-94773720D01*
X118098874Y-94764429D01*
X118088039Y-94760581D01*
X118080784Y-94759849D01*
X118072733Y-94761633D01*
X118071312Y-94768626D01*
X118075786Y-94782121D01*
X118076325Y-94783439D01*
X118079573Y-94794904D01*
X118077861Y-94799989D01*
X118076003Y-94801875D01*
X118072229Y-94810805D01*
X118068894Y-94824234D01*
X118066727Y-94832930D01*
X118059624Y-94852090D01*
X118050611Y-94869733D01*
X118044901Y-94879863D01*
X118037731Y-94899236D01*
X118038053Y-94914132D01*
X118045910Y-94924053D01*
X118051581Y-94929516D01*
X118055256Y-94939198D01*
X118056068Y-94944589D01*
X118059615Y-94948505D01*
X118061776Y-94949352D01*
X118066357Y-94956324D01*
X118069435Y-94967275D01*
X118069750Y-94978475D01*
X118069656Y-94979049D01*
X118062725Y-94991537D01*
X118046788Y-95002835D01*
X118022117Y-95012746D01*
X118006722Y-95019059D01*
X117990404Y-95028230D01*
X117975991Y-95038479D01*
X117965710Y-95048216D01*
X117961788Y-95055851D01*
X117961630Y-95057091D01*
X117957115Y-95060667D01*
X117955157Y-95061263D01*
X117952441Y-95067107D01*
X117950522Y-95072430D01*
X117943416Y-95079959D01*
X117940645Y-95082664D01*
X117935381Y-95095314D01*
X117932896Y-95116311D01*
X117933145Y-95145957D01*
X117933868Y-95152664D01*
X117936885Y-95156859D01*
X117944511Y-95158516D01*
X117959112Y-95158808D01*
X117960171Y-95158807D01*
X117975976Y-95157922D01*
X117985859Y-95154746D01*
X117992995Y-95148293D01*
X118012028Y-95128549D01*
X118032277Y-95116114D01*
X118053278Y-95112074D01*
X118061673Y-95111814D01*
X118071153Y-95109721D01*
X118073950Y-95105064D01*
X118075214Y-95101330D01*
X118082129Y-95098037D01*
X118083336Y-95097953D01*
X118093442Y-95094860D01*
X118105609Y-95088690D01*
X118107955Y-95087300D01*
X118119232Y-95081651D01*
X118126926Y-95079360D01*
X118133762Y-95076822D01*
X118142975Y-95070014D01*
X118150766Y-95063529D01*
X118155959Y-95060667D01*
X118160337Y-95057772D01*
X118167366Y-95050224D01*
X118171198Y-95045823D01*
X118176746Y-95042378D01*
X118184763Y-95042529D01*
X118198492Y-95045817D01*
X118206479Y-95048194D01*
X118217662Y-95052614D01*
X118222720Y-95056259D01*
X118222966Y-95056713D01*
X118229165Y-95059520D01*
X118240370Y-95060667D01*
X118247121Y-95061572D01*
X118261258Y-95067444D01*
X118274784Y-95076952D01*
X118284930Y-95087949D01*
X118288927Y-95098290D01*
X118289389Y-95100478D01*
X118296354Y-95108250D01*
X118310633Y-95116574D01*
X118327261Y-95125297D01*
X118340498Y-95135118D01*
X118345008Y-95143447D01*
X118345074Y-95143877D01*
X118349542Y-95149077D01*
X118358871Y-95155636D01*
X118362850Y-95158479D01*
X118374981Y-95172492D01*
X118387135Y-95193997D01*
X118396096Y-95210480D01*
X118407344Y-95223764D01*
X118419214Y-95228930D01*
X118432624Y-95226638D01*
X118446860Y-95222512D01*
X118469374Y-95219450D01*
X118492228Y-95219235D01*
X118510892Y-95222127D01*
X118522253Y-95224965D01*
X118541501Y-95228586D01*
X118561268Y-95231306D01*
X118563218Y-95231510D01*
X118579861Y-95232565D01*
X118594764Y-95231622D01*
X118611416Y-95228227D01*
X118633303Y-95221926D01*
X118640908Y-95219554D01*
X118661023Y-95213028D01*
X118678361Y-95207066D01*
X118689831Y-95202719D01*
X118697743Y-95200241D01*
X118714605Y-95197330D01*
X118732784Y-95196196D01*
X118745111Y-95195760D01*
X118757296Y-95194196D01*
X118763054Y-95191885D01*
X118763303Y-95191585D01*
X118769847Y-95188343D01*
X118782733Y-95184174D01*
X118799459Y-95179900D01*
X118801517Y-95179424D01*
X118818092Y-95174915D01*
X118830654Y-95170363D01*
X118836624Y-95166686D01*
X118837395Y-95165934D01*
X118844714Y-95163745D01*
X118859672Y-95162178D01*
X118882835Y-95161190D01*
X118914766Y-95160737D01*
X118923126Y-95160676D01*
X118953601Y-95160069D01*
X118975553Y-95158870D01*
X118989640Y-95157028D01*
X118996517Y-95154493D01*
X119001269Y-95151770D01*
X119008513Y-95151724D01*
X119009760Y-95152134D01*
X119017987Y-95150582D01*
X119029132Y-95145117D01*
X119034056Y-95142261D01*
X119047238Y-95136689D01*
X119056526Y-95135872D01*
X119060040Y-95140115D01*
X119061981Y-95144674D01*
X119066040Y-95143189D01*
X119068878Y-95136610D01*
X119070056Y-95124881D01*
X119070027Y-95123758D01*
X119116121Y-95123758D01*
X119118458Y-95126095D01*
X119120795Y-95123758D01*
X119118458Y-95121421D01*
X119116121Y-95123758D01*
X119070027Y-95123758D01*
X119069417Y-95100344D01*
X119067629Y-95095231D01*
X119136081Y-95095231D01*
X119136153Y-95096826D01*
X119142214Y-95097685D01*
X119146808Y-95096937D01*
X119145038Y-95094862D01*
X119142335Y-95094115D01*
X119136081Y-95095231D01*
X119067629Y-95095231D01*
X119063541Y-95083538D01*
X119052425Y-95074457D01*
X119048026Y-95071863D01*
X119145427Y-95071863D01*
X119145500Y-95073459D01*
X119151561Y-95074318D01*
X119156155Y-95073570D01*
X119154385Y-95071494D01*
X119151682Y-95070748D01*
X119145427Y-95071863D01*
X119048026Y-95071863D01*
X119044570Y-95069825D01*
X119043161Y-95062679D01*
X119043221Y-95062518D01*
X119041877Y-95055967D01*
X119031953Y-95050603D01*
X119031413Y-95050412D01*
X119021907Y-95045836D01*
X119017980Y-95041605D01*
X119020618Y-95038411D01*
X119029440Y-95034628D01*
X119040948Y-95032100D01*
X119051448Y-95031902D01*
X119055578Y-95031854D01*
X119062239Y-95028176D01*
X119062514Y-95025415D01*
X119057031Y-95023279D01*
X119056794Y-95023277D01*
X119053662Y-95021595D01*
X119056581Y-95016047D01*
X119066102Y-95005557D01*
X119069926Y-95001483D01*
X119182151Y-95001483D01*
X119182924Y-95015101D01*
X119183653Y-95017468D01*
X119184585Y-95014694D01*
X119184950Y-95004586D01*
X119184813Y-94997728D01*
X119184080Y-94991856D01*
X119182924Y-94994071D01*
X119182151Y-95001483D01*
X119069926Y-95001483D01*
X119072662Y-94998568D01*
X119080393Y-94989341D01*
X119083407Y-94984225D01*
X119083665Y-94983320D01*
X119088468Y-94977195D01*
X119097428Y-94968818D01*
X119100022Y-94966555D01*
X119108166Y-94958109D01*
X119111448Y-94952358D01*
X119112350Y-94949452D01*
X119117390Y-94940246D01*
X119125381Y-94928238D01*
X119126224Y-94927062D01*
X119133651Y-94916030D01*
X119136771Y-94907701D01*
X119136217Y-94898166D01*
X119132621Y-94883510D01*
X119129342Y-94869562D01*
X119128755Y-94858209D01*
X119132242Y-94848406D01*
X119140773Y-94837568D01*
X119155322Y-94823109D01*
X119168626Y-94811452D01*
X119178342Y-94805966D01*
X119186010Y-94805898D01*
X119191671Y-94809004D01*
X119195569Y-94815627D01*
X119196829Y-94819191D01*
X119203748Y-94822351D01*
X119212785Y-94824171D01*
X119224642Y-94829014D01*
X119228089Y-94830294D01*
X119241520Y-94832575D01*
X119260251Y-94833875D01*
X119281488Y-94834190D01*
X119302437Y-94833515D01*
X119320302Y-94831846D01*
X119332289Y-94829179D01*
X119333378Y-94828822D01*
X119344245Y-94827774D01*
X119357993Y-94828904D01*
X119365768Y-94830099D01*
X119383610Y-94832483D01*
X119402184Y-94834635D01*
X119406947Y-94835176D01*
X119422565Y-94838283D01*
X119434305Y-94844247D01*
X119446582Y-94855102D01*
X119463920Y-94872948D01*
X119477707Y-94888252D01*
X119486747Y-94899645D01*
X119489994Y-94905899D01*
X119490342Y-94906854D01*
X119495988Y-94912020D01*
X119506351Y-94918454D01*
X119509735Y-94920347D01*
X119518992Y-94926456D01*
X119522708Y-94930515D01*
X119522838Y-94931162D01*
X119526590Y-94937585D01*
X119533913Y-94947083D01*
X119536590Y-94950445D01*
X119546428Y-94964747D01*
X119555415Y-94980156D01*
X119558947Y-94986509D01*
X119565442Y-94996126D01*
X119569835Y-94999912D01*
X119572592Y-95001999D01*
X119574436Y-95004586D01*
X119578633Y-95010473D01*
G37*
G36*
X119108355Y-90834597D02*
G01*
X119120676Y-90849426D01*
X119125391Y-90870791D01*
X119123191Y-90886073D01*
X119113708Y-90902921D01*
X119102382Y-90910396D01*
X119081578Y-90914604D01*
X119080169Y-90914587D01*
X119059157Y-90909351D01*
X119044743Y-90896670D01*
X119038029Y-90879280D01*
X119040116Y-90859916D01*
X119052104Y-90841316D01*
X119053121Y-90840324D01*
X119071841Y-90828945D01*
X119091164Y-90827403D01*
X119108355Y-90834597D01*
G37*
G36*
X117968438Y-90700135D02*
G01*
X118005510Y-90710898D01*
X118036294Y-90730667D01*
X118059670Y-90758323D01*
X118074517Y-90792747D01*
X118079715Y-90832819D01*
X118075276Y-90869318D01*
X118060626Y-90903156D01*
X118035799Y-90931289D01*
X118000851Y-90953628D01*
X117984000Y-90960885D01*
X117963428Y-90965507D01*
X117939090Y-90965221D01*
X117905826Y-90959459D01*
X117871444Y-90944163D01*
X117844023Y-90919565D01*
X117823168Y-90885395D01*
X117818245Y-90872983D01*
X117811296Y-90836641D01*
X117814514Y-90801335D01*
X117826815Y-90768726D01*
X117847117Y-90740474D01*
X117874335Y-90718239D01*
X117907385Y-90703681D01*
X117945186Y-90698459D01*
X117968438Y-90700135D01*
G37*
G36*
X117453611Y-90700220D02*
G01*
X117490539Y-90709495D01*
X117521172Y-90728459D01*
X117546371Y-90757607D01*
X117557769Y-90781636D01*
X117564752Y-90814995D01*
X117564664Y-90850097D01*
X117557132Y-90882621D01*
X117545023Y-90904296D01*
X117524724Y-90927781D01*
X117500693Y-90947642D01*
X117476757Y-90960187D01*
X117467021Y-90962471D01*
X117446028Y-90964601D01*
X117423433Y-90964516D01*
X117408984Y-90962870D01*
X117373603Y-90951873D01*
X117344198Y-90932692D01*
X117321476Y-90907057D01*
X117306145Y-90876699D01*
X117298910Y-90843349D01*
X117300478Y-90808738D01*
X117311557Y-90774596D01*
X117332852Y-90742655D01*
X117344572Y-90730600D01*
X117372877Y-90710941D01*
X117405658Y-90700821D01*
X117444949Y-90699456D01*
X117453611Y-90700220D01*
G37*
G36*
X119409161Y-89580387D02*
G01*
X119496878Y-89703100D01*
X119576058Y-89831783D01*
X119646303Y-89965990D01*
X119707215Y-90105275D01*
X119758396Y-90249194D01*
X119799447Y-90397301D01*
X119802887Y-90414415D01*
X119829970Y-90549152D01*
X119849568Y-90704301D01*
X119850225Y-90712209D01*
X119852533Y-90751430D01*
X119854158Y-90798803D01*
X119855037Y-90847945D01*
X119855100Y-90851496D01*
X119855359Y-90906680D01*
X119854935Y-90961522D01*
X119853829Y-91013194D01*
X119852040Y-91058863D01*
X119849568Y-91095699D01*
X119843108Y-91157733D01*
X119818854Y-91312862D01*
X119783437Y-91465315D01*
X119737121Y-91614519D01*
X119724105Y-91647746D01*
X119680171Y-91759899D01*
X119612849Y-91900880D01*
X119535422Y-92036888D01*
X119448153Y-92167349D01*
X119351307Y-92291687D01*
X119245148Y-92409329D01*
X119141632Y-92509378D01*
X119019956Y-92611889D01*
X118892131Y-92704623D01*
X118758561Y-92787386D01*
X118619655Y-92859989D01*
X118475816Y-92922238D01*
X118327452Y-92973943D01*
X118174968Y-93014911D01*
X118018771Y-93044951D01*
X117859265Y-93063872D01*
X117847855Y-93064701D01*
X117817299Y-93066337D01*
X117780473Y-93067751D01*
X117741032Y-93068815D01*
X117702629Y-93069398D01*
X117624445Y-93068625D01*
X117467873Y-93058550D01*
X117313150Y-93037291D01*
X117160895Y-93005088D01*
X117011726Y-92962180D01*
X116866262Y-92908807D01*
X116725124Y-92845209D01*
X116588928Y-92771627D01*
X116458295Y-92688299D01*
X116333843Y-92595466D01*
X116216192Y-92493367D01*
X116171685Y-92450711D01*
X116060811Y-92334173D01*
X115960387Y-92212601D01*
X115870173Y-92085611D01*
X115789928Y-91952817D01*
X115719412Y-91813833D01*
X115658385Y-91668273D01*
X115651011Y-91646551D01*
X116648483Y-91646551D01*
X116648869Y-91658494D01*
X116653063Y-91684991D01*
X116662597Y-91710848D01*
X116678375Y-91737444D01*
X116701303Y-91766161D01*
X116732285Y-91798380D01*
X116772224Y-91835481D01*
X116800736Y-91861417D01*
X116829054Y-91888607D01*
X116854209Y-91914906D01*
X116878063Y-91942482D01*
X116902476Y-91973498D01*
X116929309Y-92010122D01*
X116960424Y-92054519D01*
X116966398Y-92063092D01*
X116998727Y-92106544D01*
X117028404Y-92140683D01*
X117056834Y-92166833D01*
X117085423Y-92186313D01*
X117115576Y-92200448D01*
X117124864Y-92203792D01*
X117140863Y-92208191D01*
X117157918Y-92210414D01*
X117179553Y-92210810D01*
X117209292Y-92209728D01*
X117213761Y-92209499D01*
X117240519Y-92207467D01*
X117265807Y-92204042D01*
X117292749Y-92198609D01*
X117324472Y-92190551D01*
X117364099Y-92179255D01*
X117395347Y-92170099D01*
X117461529Y-92151109D01*
X117518898Y-92135620D01*
X117569074Y-92123593D01*
X117613681Y-92114987D01*
X117654343Y-92109765D01*
X117692682Y-92107885D01*
X117730322Y-92109308D01*
X117768884Y-92113994D01*
X117809993Y-92121905D01*
X117855270Y-92132999D01*
X117906340Y-92147239D01*
X117964826Y-92164583D01*
X117998435Y-92174456D01*
X118033621Y-92184378D01*
X118066000Y-92193132D01*
X118091399Y-92199565D01*
X118109154Y-92203298D01*
X118150942Y-92209212D01*
X118190709Y-92211431D01*
X118191343Y-92211431D01*
X118218205Y-92210830D01*
X118238270Y-92208380D01*
X118256299Y-92203125D01*
X118277050Y-92194112D01*
X118286990Y-92189132D01*
X118314574Y-92171923D01*
X118341350Y-92149522D01*
X118368672Y-92120542D01*
X118397897Y-92083598D01*
X118430378Y-92037305D01*
X118433044Y-92033347D01*
X118451156Y-92007054D01*
X118468052Y-91984019D01*
X118485358Y-91962370D01*
X118504700Y-91940237D01*
X118527705Y-91915746D01*
X118555998Y-91887027D01*
X118591206Y-91852208D01*
X118601340Y-91842233D01*
X118638554Y-91804926D01*
X118668056Y-91773814D01*
X118690690Y-91747655D01*
X118707302Y-91725210D01*
X118718735Y-91705237D01*
X118725835Y-91686496D01*
X118729446Y-91667746D01*
X118730413Y-91647746D01*
X118730265Y-91641780D01*
X118727095Y-91619979D01*
X118719002Y-91598257D01*
X118704935Y-91574771D01*
X118683841Y-91547680D01*
X118654668Y-91515142D01*
X118636933Y-91495263D01*
X118615442Y-91468947D01*
X118596888Y-91443902D01*
X118583957Y-91423600D01*
X118578861Y-91414421D01*
X118564305Y-91388684D01*
X118547643Y-91359703D01*
X118531568Y-91332175D01*
X118520195Y-91312367D01*
X118504587Y-91282652D01*
X118491199Y-91253011D01*
X118479821Y-91222268D01*
X118470244Y-91189248D01*
X118462259Y-91152774D01*
X118455657Y-91111672D01*
X118450228Y-91064765D01*
X118445763Y-91010878D01*
X118442054Y-90948836D01*
X118438889Y-90877462D01*
X118436062Y-90795580D01*
X118434729Y-90755205D01*
X118432670Y-90703885D01*
X118430312Y-90661260D01*
X118427432Y-90625546D01*
X118423803Y-90594957D01*
X118419202Y-90567709D01*
X118413402Y-90542016D01*
X118406180Y-90516093D01*
X118397309Y-90488155D01*
X118379213Y-90439450D01*
X118365908Y-90412212D01*
X118531081Y-90412212D01*
X118531766Y-90456418D01*
X118542111Y-90511601D01*
X118562203Y-90563441D01*
X118591052Y-90610656D01*
X118627669Y-90651961D01*
X118671063Y-90686073D01*
X118720244Y-90711707D01*
X118774222Y-90727579D01*
X118785974Y-90729597D01*
X118807164Y-90732407D01*
X118823089Y-90733509D01*
X118834075Y-90733013D01*
X118837070Y-90729580D01*
X118832055Y-90720365D01*
X118830549Y-90717966D01*
X118823173Y-90706016D01*
X118810718Y-90685731D01*
X118793871Y-90658230D01*
X118773318Y-90624635D01*
X118749745Y-90586067D01*
X118723837Y-90543645D01*
X118696280Y-90498492D01*
X118681993Y-90475140D01*
X118655552Y-90432289D01*
X118631228Y-90393337D01*
X118609675Y-90359302D01*
X118591544Y-90331201D01*
X118577489Y-90310052D01*
X118568163Y-90296873D01*
X118564218Y-90292681D01*
X118560829Y-90296049D01*
X118553425Y-90310154D01*
X118545964Y-90331653D01*
X118539230Y-90357715D01*
X118534008Y-90385512D01*
X118531081Y-90412212D01*
X118365908Y-90412212D01*
X118339648Y-90358451D01*
X118290688Y-90283309D01*
X118233162Y-90214764D01*
X118167898Y-90153553D01*
X118095725Y-90100416D01*
X118017473Y-90056091D01*
X117933970Y-90021316D01*
X117846045Y-89996832D01*
X117841780Y-89995955D01*
X117799918Y-89989594D01*
X117751104Y-89985343D01*
X117699011Y-89983277D01*
X117647314Y-89983472D01*
X117599685Y-89986003D01*
X117559798Y-89990946D01*
X117526273Y-89997858D01*
X117451522Y-90019578D01*
X117377387Y-90049179D01*
X117307395Y-90085148D01*
X117245071Y-90125971D01*
X117189681Y-90172341D01*
X117136581Y-90226473D01*
X117088115Y-90285572D01*
X117046493Y-90346944D01*
X117013922Y-90407894D01*
X117010906Y-90414530D01*
X117009518Y-90417695D01*
X116996930Y-90446389D01*
X116985312Y-90475626D01*
X116975768Y-90503830D01*
X116968018Y-90532590D01*
X116961780Y-90563496D01*
X116956772Y-90598138D01*
X116952713Y-90638104D01*
X116949322Y-90684985D01*
X116946315Y-90740368D01*
X116943413Y-90805845D01*
X116942650Y-90824044D01*
X116939239Y-90899620D01*
X116935801Y-90964843D01*
X116932212Y-91020803D01*
X116928341Y-91068589D01*
X116924064Y-91109291D01*
X116919251Y-91143997D01*
X116913776Y-91173799D01*
X116907511Y-91199784D01*
X116900329Y-91223043D01*
X116892102Y-91244664D01*
X116886198Y-91257304D01*
X116875096Y-91278968D01*
X116860380Y-91306468D01*
X116843253Y-91337567D01*
X116824913Y-91370022D01*
X116822438Y-91374335D01*
X116799394Y-91413509D01*
X116779496Y-91444981D01*
X116760953Y-91471312D01*
X116741974Y-91495057D01*
X116720769Y-91518775D01*
X116717984Y-91521770D01*
X116690131Y-91553321D01*
X116670316Y-91579696D01*
X116657478Y-91602775D01*
X116650554Y-91624434D01*
X116648483Y-91646551D01*
X115651011Y-91646551D01*
X115606606Y-91515753D01*
X115591880Y-91464716D01*
X115559707Y-91329186D01*
X115537024Y-91191020D01*
X115523591Y-91048523D01*
X115519167Y-90900000D01*
X115519396Y-90855470D01*
X115520833Y-90791418D01*
X115521660Y-90775307D01*
X116167569Y-90775307D01*
X116180171Y-90801244D01*
X116188209Y-90815775D01*
X116211933Y-90847349D01*
X116240892Y-90875201D01*
X116271340Y-90895462D01*
X116301959Y-90906958D01*
X116336507Y-90913201D01*
X116372345Y-90916077D01*
X116389827Y-90890513D01*
X116395130Y-90882558D01*
X116408109Y-90862465D01*
X116425985Y-90834329D01*
X116448021Y-90799332D01*
X116473477Y-90758658D01*
X116492493Y-90728134D01*
X116519964Y-90728134D01*
X116521541Y-90729879D01*
X116531543Y-90732223D01*
X116547712Y-90732856D01*
X116549623Y-90732805D01*
X116607465Y-90725488D01*
X116661806Y-90707717D01*
X116711440Y-90680472D01*
X116755163Y-90644731D01*
X116791772Y-90601473D01*
X116820061Y-90551675D01*
X116838827Y-90496316D01*
X116844066Y-90464577D01*
X116845676Y-90417695D01*
X116841188Y-90370970D01*
X116830844Y-90329447D01*
X116828835Y-90324000D01*
X116818235Y-90300029D01*
X116806014Y-90278071D01*
X116793666Y-90260333D01*
X116782686Y-90249021D01*
X116774568Y-90246343D01*
X116768055Y-90252040D01*
X116758303Y-90267064D01*
X116747684Y-90288413D01*
X116737404Y-90313370D01*
X116728669Y-90339217D01*
X116722685Y-90363237D01*
X116721208Y-90370434D01*
X116718017Y-90382505D01*
X116713398Y-90395420D01*
X116706667Y-90410472D01*
X116697145Y-90428956D01*
X116684150Y-90452167D01*
X116667000Y-90481399D01*
X116645016Y-90517946D01*
X116617515Y-90563104D01*
X116604061Y-90585174D01*
X116581392Y-90622608D01*
X116561215Y-90656238D01*
X116544257Y-90684834D01*
X116531245Y-90707168D01*
X116522905Y-90722011D01*
X116519964Y-90728134D01*
X116492493Y-90728134D01*
X116501617Y-90713488D01*
X116531702Y-90665007D01*
X116562994Y-90614397D01*
X116594756Y-90562841D01*
X116626250Y-90511522D01*
X116640327Y-90488439D01*
X116661464Y-90453165D01*
X116677368Y-90425495D01*
X116688772Y-90404015D01*
X116696406Y-90387309D01*
X116701004Y-90373961D01*
X116703297Y-90362557D01*
X116704811Y-90351351D01*
X116709628Y-90325222D01*
X116716610Y-90303475D01*
X116727174Y-90283805D01*
X116742737Y-90263910D01*
X116764716Y-90241484D01*
X116794527Y-90214225D01*
X116814973Y-90196024D01*
X116800264Y-90182901D01*
X116786290Y-90171011D01*
X116769993Y-90158095D01*
X116754432Y-90146412D01*
X116859364Y-89982842D01*
X116876392Y-89956306D01*
X116897379Y-89923641D01*
X118238359Y-89923641D01*
X118239391Y-89946347D01*
X118241438Y-89968975D01*
X118245065Y-89986844D01*
X118251141Y-90003896D01*
X118260539Y-90024073D01*
X118285935Y-90065624D01*
X118322669Y-90105510D01*
X118366941Y-90137192D01*
X118417734Y-90159960D01*
X118474035Y-90173105D01*
X118480807Y-90174048D01*
X118501335Y-90177027D01*
X118515876Y-90179325D01*
X118521633Y-90180507D01*
X118523381Y-90183309D01*
X118530694Y-90195191D01*
X118543250Y-90215652D01*
X118560561Y-90243891D01*
X118582137Y-90279111D01*
X118607490Y-90320513D01*
X118636130Y-90367298D01*
X118667568Y-90418668D01*
X118701316Y-90473824D01*
X118736884Y-90531968D01*
X118752879Y-90558120D01*
X118795927Y-90628503D01*
X118833441Y-90689799D01*
X118857830Y-90729580D01*
X118865848Y-90742658D01*
X118893578Y-90787732D01*
X118917059Y-90825670D01*
X118936717Y-90857124D01*
X118952983Y-90882744D01*
X118966283Y-90903181D01*
X118977046Y-90919087D01*
X118985701Y-90931111D01*
X118992674Y-90939904D01*
X118998396Y-90946118D01*
X119003293Y-90950402D01*
X119007793Y-90953409D01*
X119012326Y-90955788D01*
X119017319Y-90958190D01*
X119025329Y-90961644D01*
X119051978Y-90968738D01*
X119080885Y-90971576D01*
X119107760Y-90969948D01*
X119128312Y-90963643D01*
X119132580Y-90961227D01*
X119163843Y-90936527D01*
X119185942Y-90904630D01*
X119198623Y-90865886D01*
X119199082Y-90863324D01*
X119200027Y-90855822D01*
X119200085Y-90847945D01*
X119198909Y-90839054D01*
X119196151Y-90828510D01*
X119191465Y-90815672D01*
X119184504Y-90799900D01*
X119174921Y-90780556D01*
X119162368Y-90757000D01*
X119146499Y-90728591D01*
X119126967Y-90694690D01*
X119103424Y-90654658D01*
X119075524Y-90607855D01*
X119042920Y-90553641D01*
X119005264Y-90491377D01*
X118962210Y-90420423D01*
X118913410Y-90340139D01*
X118786386Y-90131255D01*
X118809936Y-90131255D01*
X118811921Y-90135415D01*
X118819398Y-90148749D01*
X118831864Y-90170198D01*
X118848712Y-90198742D01*
X118869336Y-90233361D01*
X118893131Y-90273035D01*
X118919491Y-90316743D01*
X118947810Y-90363465D01*
X118971289Y-90402092D01*
X118998125Y-90446197D01*
X119022576Y-90486337D01*
X119044031Y-90521509D01*
X119061875Y-90550707D01*
X119075497Y-90572929D01*
X119084283Y-90587170D01*
X119087620Y-90592427D01*
X119088010Y-90592659D01*
X119092390Y-90588403D01*
X119099207Y-90576094D01*
X119107332Y-90558340D01*
X119115636Y-90537749D01*
X119122991Y-90516930D01*
X119128268Y-90498490D01*
X119133411Y-90470869D01*
X119135703Y-90414415D01*
X119127506Y-90359513D01*
X119109620Y-90307454D01*
X119082846Y-90259528D01*
X119047982Y-90217026D01*
X119005830Y-90181237D01*
X118957190Y-90153452D01*
X118902861Y-90134961D01*
X118898436Y-90133954D01*
X118873583Y-90129486D01*
X118849679Y-90126877D01*
X118829351Y-90126232D01*
X118815228Y-90127656D01*
X118809936Y-90131255D01*
X118786386Y-90131255D01*
X118729261Y-90037315D01*
X118741784Y-90010079D01*
X118746219Y-89999447D01*
X118750321Y-89985163D01*
X118752797Y-89967878D01*
X118754023Y-89944701D01*
X118754373Y-89912741D01*
X118754339Y-89893042D01*
X118753816Y-89868293D01*
X118752250Y-89850137D01*
X118749106Y-89835413D01*
X118743852Y-89820960D01*
X118735953Y-89803619D01*
X118707793Y-89756105D01*
X118671407Y-89716239D01*
X118627042Y-89684853D01*
X118574454Y-89661732D01*
X118556145Y-89655918D01*
X118527030Y-89648744D01*
X118507580Y-89647355D01*
X118498020Y-89651782D01*
X118499123Y-89656270D01*
X118505287Y-89669454D01*
X118515894Y-89689478D01*
X118530024Y-89714621D01*
X118546762Y-89743162D01*
X118598496Y-89829702D01*
X118577432Y-89868301D01*
X118565340Y-89890244D01*
X118551955Y-89914156D01*
X118541090Y-89933187D01*
X118525813Y-89959475D01*
X118450269Y-89960930D01*
X118374725Y-89962385D01*
X118322149Y-89875298D01*
X118311323Y-89857534D01*
X118292068Y-89827144D01*
X118277781Y-89806601D01*
X118268196Y-89795538D01*
X118263048Y-89793589D01*
X118256081Y-89802482D01*
X118247894Y-89823331D01*
X118241930Y-89851956D01*
X118238611Y-89886134D01*
X118238359Y-89923641D01*
X116897379Y-89923641D01*
X116915550Y-89895360D01*
X116949112Y-89843283D01*
X116977563Y-89799363D01*
X117001385Y-89762891D01*
X117021064Y-89733155D01*
X117037084Y-89709446D01*
X117049929Y-89691052D01*
X117060082Y-89677263D01*
X117068029Y-89667369D01*
X117074253Y-89660659D01*
X117079239Y-89656422D01*
X117083470Y-89653948D01*
X117086840Y-89652089D01*
X117097144Y-89642143D01*
X117108505Y-89624383D01*
X117122070Y-89597121D01*
X117127343Y-89585487D01*
X117136423Y-89564237D01*
X117142693Y-89547860D01*
X117145033Y-89539186D01*
X117140917Y-89530629D01*
X117130528Y-89519792D01*
X117118059Y-89510611D01*
X117107712Y-89506738D01*
X117105274Y-89507422D01*
X117095144Y-89514903D01*
X117081145Y-89528726D01*
X117065256Y-89546509D01*
X117049454Y-89565868D01*
X117035718Y-89584420D01*
X117026026Y-89599781D01*
X117022356Y-89609570D01*
X117022247Y-89613022D01*
X117020864Y-89621663D01*
X117017300Y-89631979D01*
X117010812Y-89645294D01*
X117000657Y-89662932D01*
X116986095Y-89686215D01*
X116966381Y-89716468D01*
X116940774Y-89755013D01*
X116931244Y-89769335D01*
X116907288Y-89805623D01*
X116879807Y-89847550D01*
X116850672Y-89892250D01*
X116821754Y-89936857D01*
X116794922Y-89978506D01*
X116773446Y-90011843D01*
X116752887Y-90043490D01*
X116735127Y-90070557D01*
X116721036Y-90091723D01*
X116711484Y-90105673D01*
X116707342Y-90111088D01*
X116703725Y-90110736D01*
X116692496Y-90105630D01*
X116677303Y-90096464D01*
X116667180Y-90090041D01*
X116653301Y-90082291D01*
X116645305Y-90079257D01*
X116643546Y-90080503D01*
X116637959Y-90090173D01*
X116630685Y-90107334D01*
X116622841Y-90129487D01*
X116622591Y-90130251D01*
X116620029Y-90136785D01*
X116607926Y-90167657D01*
X116590378Y-90196417D01*
X116567649Y-90219501D01*
X116537441Y-90239880D01*
X116531596Y-90243396D01*
X116523634Y-90248986D01*
X116515525Y-90256113D01*
X116506489Y-90265809D01*
X116495744Y-90279101D01*
X116482508Y-90297021D01*
X116466002Y-90320599D01*
X116445443Y-90350865D01*
X116420052Y-90388848D01*
X116389046Y-90435579D01*
X116369258Y-90465493D01*
X116339118Y-90511177D01*
X116309434Y-90556301D01*
X116281409Y-90599034D01*
X116256245Y-90637538D01*
X116235143Y-90669982D01*
X116219307Y-90694530D01*
X116167569Y-90775307D01*
X115521660Y-90775307D01*
X115523820Y-90733224D01*
X115528625Y-90677334D01*
X115535512Y-90620196D01*
X115544748Y-90558256D01*
X115560490Y-90471317D01*
X115576295Y-90405423D01*
X116241394Y-90405423D01*
X116241895Y-90462981D01*
X116253590Y-90520386D01*
X116257000Y-90531660D01*
X116261452Y-90545537D01*
X116265785Y-90555290D01*
X116270742Y-90560303D01*
X116277062Y-90559959D01*
X116285487Y-90553642D01*
X116296756Y-90540733D01*
X116311612Y-90520616D01*
X116330794Y-90492675D01*
X116355043Y-90456292D01*
X116385100Y-90410849D01*
X116392924Y-90399031D01*
X116420891Y-90356937D01*
X116443620Y-90323136D01*
X116462035Y-90296431D01*
X116477056Y-90275628D01*
X116489604Y-90259530D01*
X116500601Y-90246943D01*
X116510969Y-90236669D01*
X116521629Y-90227514D01*
X116533503Y-90218281D01*
X116557080Y-90199175D01*
X116581377Y-90175245D01*
X116596526Y-90154139D01*
X116601748Y-90136785D01*
X116601578Y-90134245D01*
X116599047Y-90129858D01*
X116591681Y-90127356D01*
X116577199Y-90126228D01*
X116553321Y-90125966D01*
X116540950Y-90126144D01*
X116481105Y-90132806D01*
X116427024Y-90149354D01*
X116377772Y-90176159D01*
X116332417Y-90213592D01*
X116303289Y-90246484D01*
X116272468Y-90295708D01*
X116251710Y-90349176D01*
X116241394Y-90405423D01*
X115576295Y-90405423D01*
X115596985Y-90319165D01*
X115643872Y-90171378D01*
X115700740Y-90028374D01*
X115767176Y-89890571D01*
X115842770Y-89758385D01*
X115927110Y-89632235D01*
X116019784Y-89512538D01*
X116120382Y-89399710D01*
X116228493Y-89294171D01*
X116343704Y-89196336D01*
X116465604Y-89106624D01*
X116593782Y-89025453D01*
X116727827Y-88953239D01*
X116867327Y-88890400D01*
X117011870Y-88837353D01*
X117161047Y-88794517D01*
X117314444Y-88762308D01*
X117352850Y-88755856D01*
X117400733Y-88748502D01*
X117444530Y-88742850D01*
X117486868Y-88738700D01*
X117530374Y-88735849D01*
X117577673Y-88734095D01*
X117631392Y-88733235D01*
X117694159Y-88733068D01*
X117751284Y-88733499D01*
X117819291Y-88735252D01*
X117880876Y-88738608D01*
X117939015Y-88743850D01*
X117996680Y-88751261D01*
X118056847Y-88761123D01*
X118122489Y-88773718D01*
X118150117Y-88779506D01*
X118301292Y-88818041D01*
X118447914Y-88866997D01*
X118589583Y-88925929D01*
X118725903Y-88994392D01*
X118856473Y-89071940D01*
X118980898Y-89158129D01*
X119098777Y-89252514D01*
X119209713Y-89354648D01*
X119313307Y-89464088D01*
X119375203Y-89539186D01*
X119409161Y-89580387D01*
G37*
%TD*%
M02*
