%TF.GenerationSoftware,KiCad,Pcbnew,9.0.2*%
%TF.CreationDate,2025-11-02T17:25:33-06:00*%
%TF.ProjectId,just proximity actually,6a757374-2070-4726-9f78-696d69747920,rev?*%
%TF.SameCoordinates,Original*%
%TF.FileFunction,Copper,L2,Bot*%
%TF.FilePolarity,Positive*%
%FSLAX46Y46*%
G04 Gerber Fmt 4.6, Leading zero omitted, Abs format (unit mm)*
G04 Created by KiCad (PCBNEW 9.0.2) date 2025-11-02 17:25:33*
%MOMM*%
%LPD*%
G01*
G04 APERTURE LIST*
%TA.AperFunction,ComponentPad*%
%ADD10R,1.700000X1.700000*%
%TD*%
%TA.AperFunction,ComponentPad*%
%ADD11C,1.700000*%
%TD*%
%TA.AperFunction,ViaPad*%
%ADD12C,0.600000*%
%TD*%
%TA.AperFunction,Conductor*%
%ADD13C,0.200000*%
%TD*%
G04 APERTURE END LIST*
D10*
%TO.P,J4,1,Pin_1*%
%TO.N,+5V*%
X116320000Y-102100000D03*
D11*
%TO.P,J4,2,Pin_2*%
%TO.N,+3.3V*%
X118860000Y-102100000D03*
%TO.P,J4,3,Pin_3*%
%TO.N,/sda*%
X121400000Y-102100000D03*
%TO.P,J4,4,Pin_4*%
%TO.N,/scl*%
X123940000Y-102100000D03*
%TO.P,J4,5,Pin_5*%
%TO.N,GND*%
X126480000Y-102100000D03*
%TD*%
D10*
%TO.P,J4,1,Pin_1*%
%TO.N,+5V*%
X116320000Y-87600000D03*
D11*
%TO.P,J4,2,Pin_2*%
%TO.N,+3.3V*%
X118860000Y-87600000D03*
%TO.P,J4,3,Pin_3*%
%TO.N,/sda*%
X121400000Y-87600000D03*
%TO.P,J4,4,Pin_4*%
%TO.N,/scl*%
X123940000Y-87600000D03*
%TO.P,J4,5,Pin_5*%
%TO.N,GND*%
X126480000Y-87600000D03*
%TD*%
D12*
%TO.N,/scl*%
X122260000Y-91800000D03*
%TO.N,GND*%
X123300000Y-96300000D03*
X126800000Y-94600000D03*
X123600000Y-99300000D03*
%TO.N,/sda*%
X121460000Y-91800000D03*
%TO.N,GND*%
X125300000Y-92200000D03*
X119500000Y-98500000D03*
X120200000Y-99200000D03*
%TD*%
D13*
%TO.N,/sda*%
X121400000Y-91860000D02*
X121400000Y-102100000D01*
X121460000Y-91800000D02*
X121400000Y-91860000D01*
X121300000Y-101500000D02*
X121400000Y-101600000D01*
%TO.N,/scl*%
X122260000Y-91800000D02*
X122260000Y-100420000D01*
X122260000Y-100420000D02*
X123940000Y-102100000D01*
%TO.N,+3.3V*%
X118860000Y-87600000D02*
X115601000Y-90859000D01*
X115601000Y-90859000D02*
X115601000Y-98841000D01*
X115601000Y-98841000D02*
X118860000Y-102100000D01*
%TD*%
%TA.AperFunction,Conductor*%
%TO.N,GND*%
G36*
X126014075Y-87792993D02*
G01*
X126079901Y-87907007D01*
X126172993Y-88000099D01*
X126287007Y-88065925D01*
X126350589Y-88082962D01*
X125718282Y-88715269D01*
X125718282Y-88715270D01*
X125772449Y-88754624D01*
X125961782Y-88851095D01*
X126163870Y-88916757D01*
X126373754Y-88950000D01*
X126586246Y-88950000D01*
X126796127Y-88916757D01*
X126796130Y-88916757D01*
X126998220Y-88851094D01*
X126998223Y-88851093D01*
X127019203Y-88840403D01*
X127087871Y-88827505D01*
X127152612Y-88853780D01*
X127192871Y-88910885D01*
X127199500Y-88950886D01*
X127199500Y-100749113D01*
X127179815Y-100816152D01*
X127127011Y-100861907D01*
X127057853Y-100871851D01*
X127019206Y-100859598D01*
X126998220Y-100848905D01*
X126796129Y-100783242D01*
X126586246Y-100750000D01*
X126373754Y-100750000D01*
X126163872Y-100783242D01*
X126163869Y-100783242D01*
X125961782Y-100848904D01*
X125772439Y-100945380D01*
X125718282Y-100984727D01*
X125718282Y-100984728D01*
X126350591Y-101617037D01*
X126287007Y-101634075D01*
X126172993Y-101699901D01*
X126079901Y-101792993D01*
X126014075Y-101907007D01*
X125997037Y-101970591D01*
X125364728Y-101338282D01*
X125364727Y-101338282D01*
X125325380Y-101392440D01*
X125325376Y-101392446D01*
X125320760Y-101401505D01*
X125272781Y-101452297D01*
X125204959Y-101469087D01*
X125138826Y-101446543D01*
X125099794Y-101401493D01*
X125095051Y-101392184D01*
X125095049Y-101392181D01*
X125095048Y-101392179D01*
X124970109Y-101220213D01*
X124819786Y-101069890D01*
X124647820Y-100944951D01*
X124458414Y-100848444D01*
X124458413Y-100848443D01*
X124458412Y-100848443D01*
X124256243Y-100782754D01*
X124256241Y-100782753D01*
X124256240Y-100782753D01*
X124094957Y-100757208D01*
X124046287Y-100749500D01*
X123833713Y-100749500D01*
X123805006Y-100754046D01*
X123623757Y-100782753D01*
X123581473Y-100796492D01*
X123511632Y-100798486D01*
X123455476Y-100766241D01*
X122896819Y-100207583D01*
X122863334Y-100146260D01*
X122860500Y-100119902D01*
X122860500Y-92379765D01*
X122880185Y-92312726D01*
X122881398Y-92310874D01*
X122969390Y-92179185D01*
X122969390Y-92179184D01*
X122969394Y-92179179D01*
X123029737Y-92033497D01*
X123060500Y-91878842D01*
X123060500Y-91721158D01*
X123060500Y-91721155D01*
X123060499Y-91721153D01*
X123029738Y-91566510D01*
X123029737Y-91566503D01*
X123029735Y-91566498D01*
X122969397Y-91420827D01*
X122969390Y-91420814D01*
X122881789Y-91289711D01*
X122881786Y-91289707D01*
X122770292Y-91178213D01*
X122770288Y-91178210D01*
X122639185Y-91090609D01*
X122639172Y-91090602D01*
X122493501Y-91030264D01*
X122493489Y-91030261D01*
X122338845Y-90999500D01*
X122338842Y-90999500D01*
X122181158Y-90999500D01*
X122181155Y-90999500D01*
X122026510Y-91030261D01*
X122026498Y-91030264D01*
X121907452Y-91079574D01*
X121837982Y-91087043D01*
X121812548Y-91079574D01*
X121693501Y-91030264D01*
X121693489Y-91030261D01*
X121538845Y-90999500D01*
X121538842Y-90999500D01*
X121381158Y-90999500D01*
X121381155Y-90999500D01*
X121226510Y-91030261D01*
X121226498Y-91030264D01*
X121080827Y-91090602D01*
X121080814Y-91090609D01*
X120949711Y-91178210D01*
X120949707Y-91178213D01*
X120838213Y-91289707D01*
X120838210Y-91289711D01*
X120750609Y-91420814D01*
X120750602Y-91420827D01*
X120690264Y-91566498D01*
X120690261Y-91566510D01*
X120659500Y-91721153D01*
X120659500Y-91878846D01*
X120690261Y-92033489D01*
X120690264Y-92033501D01*
X120750603Y-92179174D01*
X120750604Y-92179175D01*
X120750606Y-92179179D01*
X120778602Y-92221077D01*
X120799480Y-92287754D01*
X120799500Y-92289968D01*
X120799500Y-100814281D01*
X120779815Y-100881320D01*
X120731795Y-100924765D01*
X120692185Y-100944947D01*
X120692184Y-100944948D01*
X120520213Y-101069890D01*
X120369890Y-101220213D01*
X120244949Y-101392182D01*
X120240484Y-101400946D01*
X120192509Y-101451742D01*
X120124688Y-101468536D01*
X120058553Y-101445998D01*
X120019516Y-101400946D01*
X120015050Y-101392182D01*
X119890109Y-101220213D01*
X119739786Y-101069890D01*
X119567820Y-100944951D01*
X119378414Y-100848444D01*
X119378413Y-100848443D01*
X119378412Y-100848443D01*
X119176243Y-100782754D01*
X119176241Y-100782753D01*
X119176240Y-100782753D01*
X119014957Y-100757208D01*
X118966287Y-100749500D01*
X118753713Y-100749500D01*
X118725006Y-100754046D01*
X118543757Y-100782753D01*
X118501473Y-100796492D01*
X118431632Y-100798486D01*
X118375476Y-100766241D01*
X116237819Y-98628584D01*
X116204334Y-98567261D01*
X116201500Y-98540903D01*
X116201500Y-91159096D01*
X116221185Y-91092057D01*
X116237814Y-91071420D01*
X118375478Y-88933755D01*
X118436799Y-88900272D01*
X118501473Y-88903506D01*
X118543757Y-88917246D01*
X118753713Y-88950500D01*
X118753714Y-88950500D01*
X118966286Y-88950500D01*
X118966287Y-88950500D01*
X119176243Y-88917246D01*
X119378412Y-88851557D01*
X119567816Y-88755051D01*
X119622572Y-88715269D01*
X119739786Y-88630109D01*
X119739788Y-88630106D01*
X119739792Y-88630104D01*
X119890104Y-88479792D01*
X119890106Y-88479788D01*
X119890109Y-88479786D01*
X120015048Y-88307820D01*
X120015047Y-88307820D01*
X120015051Y-88307816D01*
X120019514Y-88299054D01*
X120067488Y-88248259D01*
X120135308Y-88231463D01*
X120201444Y-88253999D01*
X120240486Y-88299056D01*
X120244951Y-88307820D01*
X120369890Y-88479786D01*
X120520213Y-88630109D01*
X120692179Y-88755048D01*
X120692181Y-88755049D01*
X120692184Y-88755051D01*
X120881588Y-88851557D01*
X121083757Y-88917246D01*
X121293713Y-88950500D01*
X121293714Y-88950500D01*
X121506286Y-88950500D01*
X121506287Y-88950500D01*
X121716243Y-88917246D01*
X121918412Y-88851557D01*
X122107816Y-88755051D01*
X122162572Y-88715269D01*
X122279786Y-88630109D01*
X122279788Y-88630106D01*
X122279792Y-88630104D01*
X122430104Y-88479792D01*
X122430106Y-88479788D01*
X122430109Y-88479786D01*
X122555048Y-88307820D01*
X122555047Y-88307820D01*
X122555051Y-88307816D01*
X122559514Y-88299054D01*
X122607488Y-88248259D01*
X122675308Y-88231463D01*
X122741444Y-88253999D01*
X122780486Y-88299056D01*
X122784951Y-88307820D01*
X122909890Y-88479786D01*
X123060213Y-88630109D01*
X123232179Y-88755048D01*
X123232181Y-88755049D01*
X123232184Y-88755051D01*
X123421588Y-88851557D01*
X123623757Y-88917246D01*
X123833713Y-88950500D01*
X123833714Y-88950500D01*
X124046286Y-88950500D01*
X124046287Y-88950500D01*
X124256243Y-88917246D01*
X124458412Y-88851557D01*
X124647816Y-88755051D01*
X124702572Y-88715269D01*
X124819786Y-88630109D01*
X124819788Y-88630106D01*
X124819792Y-88630104D01*
X124970104Y-88479792D01*
X124970106Y-88479788D01*
X124970109Y-88479786D01*
X125037515Y-88387007D01*
X125095051Y-88307816D01*
X125099793Y-88298508D01*
X125147763Y-88247711D01*
X125215583Y-88230911D01*
X125281719Y-88253445D01*
X125320763Y-88298500D01*
X125325373Y-88307547D01*
X125364728Y-88361716D01*
X125997036Y-87729407D01*
X126014075Y-87792993D01*
G37*
%TD.AperFunction*%
%TD*%
M02*
