%TF.GenerationSoftware,KiCad,Pcbnew,9.0.2*%
%TF.CreationDate,2025-11-02T17:25:33-06:00*%
%TF.ProjectId,just proximity actually,6a757374-2070-4726-9f78-696d69747920,rev?*%
%TF.SameCoordinates,Original*%
%TF.FileFunction,Copper,L1,Top*%
%TF.FilePolarity,Positive*%
%FSLAX46Y46*%
G04 Gerber Fmt 4.6, Leading zero omitted, Abs format (unit mm)*
G04 Created by KiCad (PCBNEW 9.0.2) date 2025-11-02 17:25:33*
%MOMM*%
%LPD*%
G01*
G04 APERTURE LIST*
G04 Aperture macros list*
%AMRoundRect*
0 Rectangle with rounded corners*
0 $1 Rounding radius*
0 $2 $3 $4 $5 $6 $7 $8 $9 X,Y pos of 4 corners*
0 Add a 4 corners polygon primitive as box body*
4,1,4,$2,$3,$4,$5,$6,$7,$8,$9,$2,$3,0*
0 Add four circle primitives for the rounded corners*
1,1,$1+$1,$2,$3*
1,1,$1+$1,$4,$5*
1,1,$1+$1,$6,$7*
1,1,$1+$1,$8,$9*
0 Add four rect primitives between the rounded corners*
20,1,$1+$1,$2,$3,$4,$5,0*
20,1,$1+$1,$4,$5,$6,$7,0*
20,1,$1+$1,$6,$7,$8,$9,0*
20,1,$1+$1,$8,$9,$2,$3,0*%
G04 Aperture macros list end*
%TA.AperFunction,ComponentPad*%
%ADD10R,1.700000X1.700000*%
%TD*%
%TA.AperFunction,ComponentPad*%
%ADD11C,1.700000*%
%TD*%
%TA.AperFunction,SMDPad,CuDef*%
%ADD12RoundRect,0.155000X0.155000X-0.212500X0.155000X0.212500X-0.155000X0.212500X-0.155000X-0.212500X0*%
%TD*%
%TA.AperFunction,SMDPad,CuDef*%
%ADD13RoundRect,0.237500X-0.300000X-0.237500X0.300000X-0.237500X0.300000X0.237500X-0.300000X0.237500X0*%
%TD*%
%TA.AperFunction,SMDPad,CuDef*%
%ADD14RoundRect,0.160000X-0.197500X-0.160000X0.197500X-0.160000X0.197500X0.160000X-0.197500X0.160000X0*%
%TD*%
%TA.AperFunction,SMDPad,CuDef*%
%ADD15RoundRect,0.160000X0.197500X0.160000X-0.197500X0.160000X-0.197500X-0.160000X0.197500X-0.160000X0*%
%TD*%
%TA.AperFunction,SMDPad,CuDef*%
%ADD16R,0.580000X0.250000*%
%TD*%
%TA.AperFunction,SMDPad,CuDef*%
%ADD17R,0.500000X0.500000*%
%TD*%
%TA.AperFunction,SMDPad,CuDef*%
%ADD18R,0.500000X0.250000*%
%TD*%
%TA.AperFunction,ViaPad*%
%ADD19C,0.600000*%
%TD*%
%TA.AperFunction,Conductor*%
%ADD20C,0.200000*%
%TD*%
%TA.AperFunction,Conductor*%
%ADD21C,0.300000*%
%TD*%
G04 APERTURE END LIST*
D10*
%TO.P,J4,1,Pin_1*%
%TO.N,+5V*%
X116320000Y-102100000D03*
D11*
%TO.P,J4,2,Pin_2*%
%TO.N,+3.3V*%
X118860000Y-102100000D03*
%TO.P,J4,3,Pin_3*%
%TO.N,/sda*%
X121400000Y-102100000D03*
%TO.P,J4,4,Pin_4*%
%TO.N,/scl*%
X123940000Y-102100000D03*
%TO.P,J4,5,Pin_5*%
%TO.N,GND*%
X126480000Y-102100000D03*
%TD*%
D12*
%TO.P,C11,1*%
%TO.N,+3.3V*%
X125300000Y-96067500D03*
%TO.P,C11,2*%
%TO.N,GND*%
X125300000Y-94932500D03*
%TD*%
D13*
%TO.P,C12,1*%
%TO.N,+3.3V*%
X123237500Y-97700000D03*
%TO.P,C12,2*%
%TO.N,GND*%
X124962500Y-97700000D03*
%TD*%
D14*
%TO.P,R21,1*%
%TO.N,+3.3V*%
X118702500Y-97500000D03*
%TO.P,R21,2*%
%TO.N,Net-(IC1-XSHUT)*%
X119897500Y-97500000D03*
%TD*%
D15*
%TO.P,R20,1*%
%TO.N,Net-(IC1-GPIO1)*%
X119897500Y-91700000D03*
%TO.P,R20,2*%
%TO.N,+3.3V*%
X118702500Y-91700000D03*
%TD*%
D10*
%TO.P,J4,1,Pin_1*%
%TO.N,+5V*%
X116320000Y-87600000D03*
D11*
%TO.P,J4,2,Pin_2*%
%TO.N,+3.3V*%
X118860000Y-87600000D03*
%TO.P,J4,3,Pin_3*%
%TO.N,/sda*%
X121400000Y-87600000D03*
%TO.P,J4,4,Pin_4*%
%TO.N,/scl*%
X123940000Y-87600000D03*
%TO.P,J4,5,Pin_5*%
%TO.N,GND*%
X126480000Y-87600000D03*
%TD*%
D16*
%TO.P,IC1,1,AVDDVCSEL_1*%
%TO.N,+3.3V*%
X123100000Y-95300000D03*
D17*
%TO.P,IC1,2,AVSSVCSEL*%
%TO.N,GND*%
X122260000Y-95425000D03*
%TO.P,IC1,3,GND*%
X121460000Y-95425000D03*
%TO.P,IC1,4,GND2*%
X120660000Y-95425000D03*
%TO.P,IC1,5,XSHUT*%
%TO.N,Net-(IC1-XSHUT)*%
X119860000Y-95425000D03*
%TO.P,IC1,6,GND3*%
%TO.N,GND*%
X119860000Y-94625000D03*
%TO.P,IC1,7,GPIO1*%
%TO.N,Net-(IC1-GPIO1)*%
X119860000Y-93825000D03*
%TO.P,IC1,8,DNC*%
%TO.N,unconnected-(IC1-DNC-Pad8)*%
X120660000Y-93825000D03*
%TO.P,IC1,9,SDA*%
%TO.N,/sda*%
X121460000Y-93825000D03*
%TO.P,IC1,10,SCL*%
%TO.N,/scl*%
X122260000Y-93825000D03*
%TO.P,IC1,11,AVDD*%
%TO.N,+3.3V*%
X123060000Y-93825000D03*
%TO.P,IC1,12,GND4*%
%TO.N,GND*%
X123060000Y-94624000D03*
D18*
%TO.P,IC1,13,AVDDVCSEL_2*%
%TO.N,+3.3V*%
X123060000Y-95550000D03*
%TD*%
D19*
%TO.N,/scl*%
X122260000Y-91800000D03*
%TO.N,GND*%
X123300000Y-96300000D03*
X126800000Y-94600000D03*
X123600000Y-99300000D03*
%TO.N,/sda*%
X121460000Y-91800000D03*
%TO.N,GND*%
X125300000Y-92200000D03*
X119500000Y-98500000D03*
X120200000Y-99200000D03*
%TD*%
D20*
%TO.N,Net-(IC1-XSHUT)*%
X119860000Y-95425000D02*
X119860000Y-97462500D01*
X119860000Y-97462500D02*
X119897500Y-97500000D01*
%TO.N,Net-(IC1-GPIO1)*%
X119860000Y-91737500D02*
X119897500Y-91700000D01*
X119860000Y-93825000D02*
X119860000Y-91737500D01*
%TO.N,/sda*%
X121460000Y-93825000D02*
X121460000Y-91800000D01*
X121460000Y-91800000D02*
X121460000Y-87660000D01*
%TO.N,GND*%
X120600000Y-94625000D02*
X121400000Y-94625000D01*
%TO.N,/scl*%
X122260000Y-89280000D02*
X123940000Y-87600000D01*
%TO.N,GND*%
X120660000Y-94685000D02*
X120600000Y-94625000D01*
X122300000Y-94625000D02*
X123059000Y-94625000D01*
%TO.N,/sda*%
X121460000Y-87660000D02*
X121400000Y-87600000D01*
%TO.N,GND*%
X121460000Y-95425000D02*
X121460000Y-94685000D01*
%TO.N,/scl*%
X122260000Y-91800000D02*
X122260000Y-89280000D01*
D21*
%TO.N,+5V*%
X116320000Y-101600000D02*
X116320000Y-101580000D01*
D20*
%TO.N,GND*%
X122260000Y-94665000D02*
X122300000Y-94625000D01*
X121460000Y-94685000D02*
X121400000Y-94625000D01*
%TO.N,/scl*%
X122260000Y-93825000D02*
X122260000Y-91800000D01*
%TO.N,GND*%
X122260000Y-95425000D02*
X122260000Y-94665000D01*
X121400000Y-94625000D02*
X122300000Y-94625000D01*
X119860000Y-94625000D02*
X120600000Y-94625000D01*
X120660000Y-95425000D02*
X120660000Y-94685000D01*
X123059000Y-94625000D02*
X123060000Y-94624000D01*
%TO.N,+3.3V*%
X118702500Y-97500000D02*
X118702500Y-101942500D01*
X123237500Y-97700000D02*
X123237500Y-97509500D01*
X123060000Y-93825000D02*
X123363000Y-93825000D01*
X118860000Y-102100000D02*
X123237500Y-97722500D01*
X123237500Y-97722500D02*
X123237500Y-97700000D01*
X118702500Y-101942500D02*
X118860000Y-102100000D01*
X123611000Y-94073000D02*
X123611000Y-94999000D01*
X123611000Y-94999000D02*
X123060000Y-95550000D01*
X125300000Y-96067500D02*
X124679500Y-96067500D01*
X124679500Y-96067500D02*
X123611000Y-94999000D01*
X123363000Y-93825000D02*
X123611000Y-94073000D01*
X118860000Y-87600000D02*
X118860000Y-91542500D01*
X118860000Y-91542500D02*
X118702500Y-91700000D01*
X118702500Y-101442500D02*
X118860000Y-101600000D01*
X123237500Y-97509500D02*
X124679500Y-96067500D01*
%TD*%
%TA.AperFunction,Conductor*%
%TO.N,GND*%
G36*
X126014075Y-87792993D02*
G01*
X126079901Y-87907007D01*
X126172993Y-88000099D01*
X126287007Y-88065925D01*
X126350589Y-88082962D01*
X125718282Y-88715269D01*
X125718282Y-88715270D01*
X125772449Y-88754624D01*
X125961782Y-88851095D01*
X126163870Y-88916757D01*
X126373754Y-88950000D01*
X126586246Y-88950000D01*
X126796127Y-88916757D01*
X126796130Y-88916757D01*
X126998220Y-88851094D01*
X126998223Y-88851093D01*
X127019203Y-88840403D01*
X127087871Y-88827505D01*
X127152612Y-88853780D01*
X127192871Y-88910885D01*
X127199500Y-88950886D01*
X127199500Y-100749113D01*
X127179815Y-100816152D01*
X127127011Y-100861907D01*
X127057853Y-100871851D01*
X127019206Y-100859598D01*
X126998220Y-100848905D01*
X126796129Y-100783242D01*
X126586246Y-100750000D01*
X126373754Y-100750000D01*
X126163872Y-100783242D01*
X126163869Y-100783242D01*
X125961782Y-100848904D01*
X125772439Y-100945380D01*
X125718282Y-100984727D01*
X125718282Y-100984728D01*
X126350591Y-101617037D01*
X126287007Y-101634075D01*
X126172993Y-101699901D01*
X126079901Y-101792993D01*
X126014075Y-101907007D01*
X125997037Y-101970591D01*
X125364728Y-101338282D01*
X125364727Y-101338282D01*
X125325380Y-101392440D01*
X125325376Y-101392446D01*
X125320760Y-101401505D01*
X125272781Y-101452297D01*
X125204959Y-101469087D01*
X125138826Y-101446543D01*
X125099794Y-101401493D01*
X125095051Y-101392184D01*
X125095049Y-101392181D01*
X125095048Y-101392179D01*
X124970109Y-101220213D01*
X124819786Y-101069890D01*
X124647820Y-100944951D01*
X124458414Y-100848444D01*
X124458413Y-100848443D01*
X124458412Y-100848443D01*
X124256243Y-100782754D01*
X124256241Y-100782753D01*
X124256240Y-100782753D01*
X124094957Y-100757208D01*
X124046287Y-100749500D01*
X123833713Y-100749500D01*
X123785042Y-100757208D01*
X123623760Y-100782753D01*
X123421585Y-100848444D01*
X123232179Y-100944951D01*
X123060213Y-101069890D01*
X122909890Y-101220213D01*
X122784949Y-101392182D01*
X122780484Y-101400946D01*
X122732509Y-101451742D01*
X122664688Y-101468536D01*
X122598553Y-101445998D01*
X122559516Y-101400946D01*
X122555050Y-101392182D01*
X122430109Y-101220213D01*
X122279786Y-101069890D01*
X122107820Y-100944951D01*
X121918414Y-100848444D01*
X121918413Y-100848443D01*
X121918412Y-100848443D01*
X121716243Y-100782754D01*
X121716241Y-100782753D01*
X121716240Y-100782753D01*
X121554957Y-100757208D01*
X121506287Y-100749500D01*
X121359096Y-100749500D01*
X121292057Y-100729815D01*
X121246302Y-100677011D01*
X121236358Y-100607853D01*
X121265383Y-100544297D01*
X121271415Y-100537819D01*
X123097416Y-98711818D01*
X123158739Y-98678333D01*
X123185097Y-98675499D01*
X123586670Y-98675499D01*
X123586676Y-98675499D01*
X123687753Y-98665174D01*
X123851516Y-98610908D01*
X123998350Y-98520340D01*
X124012671Y-98506018D01*
X124073989Y-98472533D01*
X124143681Y-98477514D01*
X124188034Y-98506017D01*
X124201961Y-98519944D01*
X124201965Y-98519947D01*
X124348688Y-98610448D01*
X124348699Y-98610453D01*
X124512347Y-98664680D01*
X124613351Y-98674999D01*
X125212500Y-98674999D01*
X125311640Y-98674999D01*
X125311654Y-98674998D01*
X125412652Y-98664680D01*
X125576300Y-98610453D01*
X125576311Y-98610448D01*
X125723034Y-98519947D01*
X125723038Y-98519944D01*
X125844944Y-98398038D01*
X125844947Y-98398034D01*
X125935448Y-98251311D01*
X125935453Y-98251300D01*
X125989680Y-98087652D01*
X125999999Y-97986654D01*
X126000000Y-97986641D01*
X126000000Y-97950000D01*
X125212500Y-97950000D01*
X125212500Y-98674999D01*
X124613351Y-98674999D01*
X124712500Y-98674998D01*
X124712500Y-97824000D01*
X124732185Y-97756961D01*
X124784989Y-97711206D01*
X124836500Y-97700000D01*
X124962500Y-97700000D01*
X124962500Y-97574000D01*
X124982185Y-97506961D01*
X125034989Y-97461206D01*
X125086500Y-97450000D01*
X125999999Y-97450000D01*
X125999999Y-97413360D01*
X125999998Y-97413345D01*
X125989680Y-97312347D01*
X125935453Y-97148699D01*
X125935448Y-97148688D01*
X125844947Y-97001965D01*
X125844944Y-97001961D01*
X125837948Y-96994965D01*
X125804463Y-96933642D01*
X125809447Y-96863950D01*
X125851319Y-96808017D01*
X125858166Y-96803449D01*
X125859947Y-96802066D01*
X125859954Y-96802063D01*
X125977063Y-96684954D01*
X126061370Y-96542400D01*
X126107576Y-96383358D01*
X126110500Y-96346203D01*
X126110499Y-95788798D01*
X126107576Y-95751642D01*
X126061370Y-95592600D01*
X126043644Y-95562628D01*
X126026462Y-95494905D01*
X126043646Y-95436386D01*
X126060905Y-95407202D01*
X126060908Y-95407194D01*
X126107077Y-95248283D01*
X126107078Y-95248277D01*
X126109999Y-95211157D01*
X126110000Y-95211142D01*
X126110000Y-95182500D01*
X125424000Y-95182500D01*
X125356961Y-95162815D01*
X125311206Y-95110011D01*
X125300000Y-95058500D01*
X125300000Y-94932500D01*
X125174000Y-94932500D01*
X125106961Y-94912815D01*
X125061206Y-94860011D01*
X125050000Y-94808500D01*
X125050000Y-94682500D01*
X125550000Y-94682500D01*
X126110000Y-94682500D01*
X126110000Y-94653857D01*
X126109999Y-94653842D01*
X126107078Y-94616722D01*
X126107077Y-94616716D01*
X126060908Y-94457805D01*
X126060907Y-94457802D01*
X125976666Y-94315357D01*
X125976660Y-94315349D01*
X125859650Y-94198339D01*
X125859642Y-94198333D01*
X125717197Y-94114092D01*
X125717194Y-94114090D01*
X125558280Y-94067921D01*
X125558281Y-94067921D01*
X125550000Y-94067269D01*
X125550000Y-94682500D01*
X125050000Y-94682500D01*
X125050000Y-94067269D01*
X125041718Y-94067921D01*
X124882805Y-94114090D01*
X124882802Y-94114092D01*
X124740357Y-94198333D01*
X124740349Y-94198339D01*
X124623339Y-94315349D01*
X124623333Y-94315357D01*
X124539092Y-94457802D01*
X124539091Y-94457805D01*
X124492922Y-94616716D01*
X124492921Y-94616722D01*
X124490000Y-94653842D01*
X124490000Y-94729403D01*
X124483761Y-94750648D01*
X124482182Y-94772737D01*
X124474109Y-94783520D01*
X124470315Y-94796442D01*
X124453581Y-94810941D01*
X124440310Y-94828670D01*
X124427689Y-94833377D01*
X124417511Y-94842197D01*
X124395593Y-94845348D01*
X124374846Y-94853087D01*
X124361685Y-94850224D01*
X124348353Y-94852141D01*
X124328209Y-94842941D01*
X124306573Y-94838235D01*
X124288847Y-94824966D01*
X124284797Y-94823116D01*
X124278319Y-94817084D01*
X124247819Y-94786584D01*
X124214334Y-94725261D01*
X124211500Y-94698903D01*
X124211500Y-94162059D01*
X124211501Y-94162046D01*
X124211501Y-93993945D01*
X124211501Y-93993943D01*
X124170577Y-93841215D01*
X124141639Y-93791095D01*
X124091520Y-93704284D01*
X123979716Y-93592480D01*
X123979715Y-93592479D01*
X123975385Y-93588149D01*
X123975374Y-93588139D01*
X123850590Y-93463355D01*
X123850588Y-93463352D01*
X123793029Y-93405793D01*
X123764528Y-93361446D01*
X123753796Y-93332669D01*
X123753794Y-93332667D01*
X123753794Y-93332665D01*
X123667547Y-93217455D01*
X123667544Y-93217452D01*
X123552335Y-93131206D01*
X123552328Y-93131202D01*
X123417482Y-93080908D01*
X123417483Y-93080908D01*
X123357883Y-93074501D01*
X123357881Y-93074500D01*
X123357873Y-93074500D01*
X123357865Y-93074500D01*
X122984500Y-93074500D01*
X122917461Y-93054815D01*
X122871706Y-93002011D01*
X122860500Y-92950500D01*
X122860500Y-92379765D01*
X122880185Y-92312726D01*
X122881398Y-92310874D01*
X122969390Y-92179185D01*
X122969390Y-92179184D01*
X122969394Y-92179179D01*
X123029737Y-92033497D01*
X123060500Y-91878842D01*
X123060500Y-91721158D01*
X123060500Y-91721155D01*
X123060499Y-91721153D01*
X123029738Y-91566510D01*
X123029737Y-91566503D01*
X122996649Y-91486621D01*
X122969397Y-91420827D01*
X122969390Y-91420814D01*
X122881398Y-91289125D01*
X122860520Y-91222447D01*
X122860500Y-91220234D01*
X122860500Y-89580096D01*
X122880185Y-89513057D01*
X122896815Y-89492419D01*
X123455478Y-88933755D01*
X123516799Y-88900272D01*
X123581473Y-88903506D01*
X123623757Y-88917246D01*
X123833713Y-88950500D01*
X123833714Y-88950500D01*
X124046286Y-88950500D01*
X124046287Y-88950500D01*
X124256243Y-88917246D01*
X124458412Y-88851557D01*
X124647816Y-88755051D01*
X124734138Y-88692335D01*
X124819786Y-88630109D01*
X124819788Y-88630106D01*
X124819792Y-88630104D01*
X124970104Y-88479792D01*
X124970106Y-88479788D01*
X124970109Y-88479786D01*
X125037515Y-88387007D01*
X125095051Y-88307816D01*
X125099793Y-88298508D01*
X125147763Y-88247711D01*
X125215583Y-88230911D01*
X125281719Y-88253445D01*
X125320763Y-88298500D01*
X125325373Y-88307547D01*
X125364728Y-88361716D01*
X125997036Y-87729407D01*
X126014075Y-87792993D01*
G37*
%TD.AperFunction*%
%TA.AperFunction,Conductor*%
G36*
X120853039Y-94595184D02*
G01*
X120898794Y-94647988D01*
X120910000Y-94699499D01*
X120910000Y-95175000D01*
X122010000Y-95175000D01*
X122010000Y-94699499D01*
X122029685Y-94632460D01*
X122082489Y-94586705D01*
X122133996Y-94575499D01*
X122403107Y-94575499D01*
X122470146Y-94595184D01*
X122515901Y-94647988D01*
X122525845Y-94717146D01*
X122496820Y-94780702D01*
X122477419Y-94798765D01*
X122452452Y-94817455D01*
X122366206Y-94932664D01*
X122366202Y-94932671D01*
X122315908Y-95067517D01*
X122311340Y-95110011D01*
X122309501Y-95127123D01*
X122309500Y-95127135D01*
X122309500Y-95722869D01*
X122309501Y-95722876D01*
X122315908Y-95782483D01*
X122366202Y-95917328D01*
X122366203Y-95917329D01*
X122366204Y-95917331D01*
X122452454Y-96032546D01*
X122460308Y-96038425D01*
X122502180Y-96094356D01*
X122510000Y-96137694D01*
X122510000Y-96175000D01*
X122557828Y-96175000D01*
X122557844Y-96174999D01*
X122617375Y-96168598D01*
X122624926Y-96166814D01*
X122625315Y-96168462D01*
X122685624Y-96164140D01*
X122702387Y-96169060D01*
X122702511Y-96169088D01*
X122702517Y-96169091D01*
X122762127Y-96175500D01*
X123357872Y-96175499D01*
X123416681Y-96169177D01*
X123485441Y-96181584D01*
X123536577Y-96229195D01*
X123553856Y-96296894D01*
X123531790Y-96363188D01*
X123517616Y-96380148D01*
X123209582Y-96688181D01*
X123148259Y-96721666D01*
X123121902Y-96724500D01*
X122888331Y-96724500D01*
X122888312Y-96724501D01*
X122787247Y-96734825D01*
X122623484Y-96789092D01*
X122623481Y-96789093D01*
X122476648Y-96879661D01*
X122354661Y-97001648D01*
X122264093Y-97148481D01*
X122264091Y-97148486D01*
X122240372Y-97220065D01*
X122209826Y-97312247D01*
X122209826Y-97312248D01*
X122209825Y-97312248D01*
X122199500Y-97413315D01*
X122199500Y-97859902D01*
X122179815Y-97926941D01*
X122163181Y-97947583D01*
X119514681Y-100596083D01*
X119453358Y-100629568D01*
X119383666Y-100624584D01*
X119327733Y-100582712D01*
X119303316Y-100517248D01*
X119303000Y-100508402D01*
X119303000Y-98396635D01*
X119322685Y-98329596D01*
X119375489Y-98283841D01*
X119444647Y-98273897D01*
X119463891Y-98278250D01*
X119580067Y-98314452D01*
X119646619Y-98320500D01*
X120148380Y-98320499D01*
X120148388Y-98320499D01*
X120214926Y-98314453D01*
X120214927Y-98314452D01*
X120214933Y-98314452D01*
X120368069Y-98266733D01*
X120451840Y-98216092D01*
X120505329Y-98183757D01*
X120505330Y-98183755D01*
X120505335Y-98183753D01*
X120618753Y-98070335D01*
X120701733Y-97933069D01*
X120749452Y-97779933D01*
X120755500Y-97713381D01*
X120755499Y-97286620D01*
X120755499Y-97286619D01*
X120755499Y-97286611D01*
X120749453Y-97220073D01*
X120749452Y-97220070D01*
X120749452Y-97220067D01*
X120701733Y-97066931D01*
X120662460Y-97001965D01*
X120618757Y-96929670D01*
X120618756Y-96929669D01*
X120618754Y-96929667D01*
X120618753Y-96929665D01*
X120505335Y-96816247D01*
X120505334Y-96816246D01*
X120500031Y-96810943D01*
X120501601Y-96809372D01*
X120467388Y-96761497D01*
X120460500Y-96720744D01*
X120460500Y-96175000D01*
X120910000Y-96175000D01*
X120957828Y-96175000D01*
X120957844Y-96174999D01*
X121017377Y-96168597D01*
X121024933Y-96166813D01*
X121025272Y-96168250D01*
X121086342Y-96163874D01*
X121101633Y-96168364D01*
X121102622Y-96168597D01*
X121162155Y-96174999D01*
X121162172Y-96175000D01*
X121210000Y-96175000D01*
X121710000Y-96175000D01*
X121757828Y-96175000D01*
X121757844Y-96174999D01*
X121817377Y-96168597D01*
X121824933Y-96166813D01*
X121825272Y-96168250D01*
X121886342Y-96163874D01*
X121901633Y-96168364D01*
X121902622Y-96168597D01*
X121962155Y-96174999D01*
X121962172Y-96175000D01*
X122010000Y-96175000D01*
X122010000Y-95675000D01*
X121710000Y-95675000D01*
X121710000Y-96175000D01*
X121210000Y-96175000D01*
X121210000Y-95675000D01*
X120910000Y-95675000D01*
X120910000Y-96175000D01*
X120460500Y-96175000D01*
X120460500Y-96083230D01*
X120480185Y-96016191D01*
X120485233Y-96008919D01*
X120553796Y-95917331D01*
X120604091Y-95782483D01*
X120610500Y-95722873D01*
X120610499Y-95407202D01*
X120610499Y-95127129D01*
X120610498Y-95127123D01*
X120610497Y-95127117D01*
X120604091Y-95067517D01*
X120597802Y-95050656D01*
X120553797Y-94932671D01*
X120553793Y-94932664D01*
X120467547Y-94817455D01*
X120467051Y-94817084D01*
X120442581Y-94798765D01*
X120400710Y-94742830D01*
X120395727Y-94673139D01*
X120429213Y-94611816D01*
X120490537Y-94578332D01*
X120516886Y-94575499D01*
X120786000Y-94575499D01*
X120853039Y-94595184D01*
G37*
%TD.AperFunction*%
%TD*%
M02*
