%TF.GenerationSoftware,KiCad,Pcbnew,9.0.7*%
%TF.CreationDate,2026-03-31T13:43:48-05:00*%
%TF.ProjectId,sensor_base_iteration_2,73656e73-6f72-45f6-9261-73655f697465,2.0*%
%TF.SameCoordinates,Original*%
%TF.FileFunction,Soldermask,Bot*%
%TF.FilePolarity,Negative*%
%FSLAX46Y46*%
G04 Gerber Fmt 4.6, Leading zero omitted, Abs format (unit mm)*
G04 Created by KiCad (PCBNEW 9.0.7) date 2026-03-31 13:43:48*
%MOMM*%
%LPD*%
G01*
G04 APERTURE LIST*
G04 Aperture macros list*
%AMRoundRect*
0 Rectangle with rounded corners*
0 $1 Rounding radius*
0 $2 $3 $4 $5 $6 $7 $8 $9 X,Y pos of 4 corners*
0 Add a 4 corners polygon primitive as box body*
4,1,4,$2,$3,$4,$5,$6,$7,$8,$9,$2,$3,0*
0 Add four circle primitives for the rounded corners*
1,1,$1+$1,$2,$3*
1,1,$1+$1,$4,$5*
1,1,$1+$1,$6,$7*
1,1,$1+$1,$8,$9*
0 Add four rect primitives between the rounded corners*
20,1,$1+$1,$2,$3,$4,$5,0*
20,1,$1+$1,$4,$5,$6,$7,0*
20,1,$1+$1,$6,$7,$8,$9,0*
20,1,$1+$1,$8,$9,$2,$3,0*%
%AMRotRect*
0 Rectangle, with rotation*
0 The origin of the aperture is its center*
0 $1 length*
0 $2 width*
0 $3 Rotation angle, in degrees counterclockwise*
0 Add horizontal line*
21,1,$1,$2,0,0,$3*%
G04 Aperture macros list end*
%ADD10C,4.000000*%
%ADD11R,1.000000X1.000000*%
%ADD12C,1.000000*%
%ADD13C,0.600000*%
%ADD14RoundRect,0.160000X-0.026517X-0.252791X0.252791X0.026517X0.026517X0.252791X-0.252791X-0.026517X0*%
%ADD15R,1.000000X3.000000*%
%ADD16RoundRect,0.150000X0.700000X-0.150000X0.700000X0.150000X-0.700000X0.150000X-0.700000X-0.150000X0*%
%ADD17RoundRect,0.250000X1.100000X-0.250000X1.100000X0.250000X-1.100000X0.250000X-1.100000X-0.250000X0*%
%ADD18RotRect,1.100000X0.250000X45.000000*%
%ADD19RoundRect,0.150000X-0.700000X0.150000X-0.700000X-0.150000X0.700000X-0.150000X0.700000X0.150000X0*%
%ADD20RoundRect,0.250000X-1.100000X0.250000X-1.100000X-0.250000X1.100000X-0.250000X1.100000X0.250000X0*%
%ADD21RoundRect,0.150000X-0.150000X-0.700000X0.150000X-0.700000X0.150000X0.700000X-0.150000X0.700000X0*%
%ADD22RoundRect,0.250000X-0.250000X-1.100000X0.250000X-1.100000X0.250000X1.100000X-0.250000X1.100000X0*%
G04 APERTURE END LIST*
D10*
%TO.C,H4*%
X152775000Y-106350000D03*
%TD*%
D11*
%TO.C,J1*%
X183460000Y-103800000D03*
D12*
X184730000Y-103800000D03*
X186000000Y-103800000D03*
X187270000Y-103800000D03*
%TD*%
D10*
%TO.C,H6*%
X197225000Y-106350000D03*
%TD*%
D11*
%TO.C,J6*%
X183460000Y-107550000D03*
D12*
X184730000Y-107550000D03*
X186000000Y-107550000D03*
X187270000Y-107550000D03*
%TD*%
D11*
%TO.C,J7*%
X189770000Y-103800000D03*
D12*
X191040000Y-103800000D03*
X192310000Y-103800000D03*
%TD*%
D10*
%TO.C,H1*%
X171825000Y-93650000D03*
%TD*%
D13*
%TO.C,J4*%
X180225000Y-95150000D03*
X176125000Y-95150000D03*
%TD*%
D11*
%TO.C,J8*%
X190500000Y-107550000D03*
D12*
X191770000Y-107550000D03*
%TD*%
D10*
%TO.C,H3*%
X197225000Y-93650000D03*
%TD*%
%TO.C,H2*%
X178175000Y-106350000D03*
%TD*%
%TO.C,H5*%
X152775000Y-93650000D03*
%TD*%
D13*
%TO.C,J5*%
X169775000Y-104850000D03*
X173875000Y-104850000D03*
%TD*%
D14*
%TO.C,R9*%
X171155008Y-104044992D03*
X172000000Y-103200000D03*
%TD*%
D15*
%TO.C,SW5*%
X161300000Y-96300000D03*
X163840000Y-96300000D03*
X163840000Y-103800000D03*
X161300000Y-103800000D03*
X158760000Y-103800000D03*
X158760000Y-96300000D03*
%TD*%
D14*
%TO.C,R8*%
X170155008Y-103244992D03*
X171000000Y-102400000D03*
%TD*%
D16*
%TO.C,J3*%
X147000000Y-103125000D03*
X147000000Y-101875000D03*
X147000000Y-100625000D03*
X147000000Y-99375000D03*
X147000000Y-98125000D03*
X147000000Y-96875000D03*
D17*
X143800000Y-104975000D03*
X143800000Y-95025000D03*
%TD*%
D18*
%TO.C,U1*%
X173686827Y-102727386D03*
X173333274Y-102373833D03*
X172979720Y-102020280D03*
X172626167Y-101666726D03*
X172272614Y-101313173D03*
X175313173Y-98272614D03*
X175666726Y-98626167D03*
X176020280Y-98979720D03*
X176373833Y-99333274D03*
X176727386Y-99686827D03*
%TD*%
D19*
%TO.C,J9*%
X203000000Y-96875000D03*
X203000000Y-98125000D03*
X203000000Y-99375000D03*
X203000000Y-100625000D03*
X203000000Y-101875000D03*
X203000000Y-103125000D03*
D20*
X206200000Y-95025000D03*
X206200000Y-104975000D03*
%TD*%
D14*
%TO.C,R7*%
X171977504Y-105122496D03*
X172822496Y-104277504D03*
%TD*%
D21*
%TO.C,J2*%
X184625000Y-95000000D03*
X185875000Y-95000000D03*
X187125000Y-95000000D03*
X188375000Y-95000000D03*
D22*
X182775000Y-91800000D03*
X190225000Y-91800000D03*
%TD*%
M02*
