M48
; DRILL file {KiCad 9.0.7} date 2026-03-31T13:43:48-0500
; FORMAT={-:-/ absolute / inch / decimal}
; #@! TF.CreationDate,2026-03-31T13:43:48-05:00
; #@! TF.GenerationSoftware,Kicad,Pcbnew,9.0.7
; #@! TF.FileFunction,Plated,1,2,PTH
FMAT,2
INCH
; #@! TA.AperFunction,Plated,PTH,ViaDrill
T1C0.0118
; #@! TA.AperFunction,Plated,PTH,ComponentDrill
T2C0.0256
; #@! TA.AperFunction,Plated,PTH,ComponentDrill
T3C0.1250
%
G90
G05
T1
X5.811Y-3.7087
X5.811Y-3.7402
X5.8425Y-3.7087
X5.8425Y-3.7402
X5.874Y-3.7087
X5.874Y-3.7402
X6.0591Y-3.9213
X6.122Y-4.0433
X6.1535Y-4.0433
X6.1535Y-4.0787
X6.1614Y-3.9203
X6.2559Y-3.9203
X6.3543Y-3.9203
X6.4016Y-3.7638
X6.4016Y-3.8189
X6.4055Y-4.0285
X6.4055Y-4.06
X6.4528Y-4.2441
X6.4528Y-4.2756
X6.4843Y-4.2441
X6.4843Y-4.2756
X6.5079Y-4.1506
X6.5118Y-3.6811
X6.5157Y-4.2441
X6.5157Y-4.2756
X6.5551Y-4.0945
X6.626Y-4.0819
X6.6546Y-4.1762
X6.6555Y-4.0984
X6.6772Y-4.0433
X6.6811Y-3.8346
X6.6811Y-4.2323
X6.7126Y-3.8346
X6.7441Y-3.8346
X6.7756Y-3.8346
X6.8465Y-4.2756
X6.8534Y-3.9803
X6.8703Y-4.0624
X6.9015Y-3.9798
X6.9016Y-4.0591
X6.9016Y-4.2008
X6.9213Y-3.7874
X7.0315Y-4.0591
X7.0354Y-3.7047
X7.0384Y-3.9816
X7.0827Y-3.7047
X7.0906Y-3.6575
X7.1378Y-3.8553
X7.1693Y-4.0276
X7.1693Y-4.0591
X7.2165Y-3.752
X7.2362Y-3.7756
X7.3386Y-3.6147
X7.3504Y-3.689
X7.3583Y-3.8346
X7.437Y-3.8268
X7.4724Y-3.8268
X7.5079Y-3.8268
X7.5433Y-3.8268
X7.6063Y-3.7165
X7.6063Y-3.752
X7.6299Y-4.0679
X7.6299Y-4.0984
X7.6417Y-3.752
X7.9055Y-4.2087
X7.9409Y-4.0906
X7.9409Y-4.1732
X7.9409Y-4.2087
X7.9409Y-4.2441
X7.9606Y-3.7402
X7.9646Y-4.1142
X7.9646Y-4.1457
X8.0Y-3.7008
X8.0Y-3.7402
X8.0Y-3.7795
X8.0315Y-4.0472
X8.0641Y-4.0336
X8.0644Y-3.9385
X8.0748Y-4.0039
X8.0752Y-3.9681
T2
X7.2228Y-4.0866
X7.2228Y-4.2343
X7.2728Y-4.0866
X7.2728Y-4.2343
X7.3228Y-4.0866
X7.3228Y-4.2343
X7.3728Y-4.0866
X7.3728Y-4.2343
X7.4713Y-4.0866
X7.5Y-4.2343
X7.5213Y-4.0866
X7.55Y-4.2343
X7.5713Y-4.0866
T3
X6.0148Y-3.687
X6.0148Y-4.187
X6.7648Y-3.687
X7.0148Y-4.187
X7.7648Y-3.687
X7.7648Y-4.187
M30
