%TF.GenerationSoftware,KiCad,Pcbnew,9.0.7*%
%TF.CreationDate,2026-03-31T13:43:48-05:00*%
%TF.ProjectId,sensor_base_iteration_2,73656e73-6f72-45f6-9261-73655f697465,2.0*%
%TF.SameCoordinates,Original*%
%TF.FileFunction,Copper,L2,Bot*%
%TF.FilePolarity,Positive*%
%FSLAX46Y46*%
G04 Gerber Fmt 4.6, Leading zero omitted, Abs format (unit mm)*
G04 Created by KiCad (PCBNEW 9.0.7) date 2026-03-31 13:43:48*
%MOMM*%
%LPD*%
G01*
G04 APERTURE LIST*
G04 Aperture macros list*
%AMRoundRect*
0 Rectangle with rounded corners*
0 $1 Rounding radius*
0 $2 $3 $4 $5 $6 $7 $8 $9 X,Y pos of 4 corners*
0 Add a 4 corners polygon primitive as box body*
4,1,4,$2,$3,$4,$5,$6,$7,$8,$9,$2,$3,0*
0 Add four circle primitives for the rounded corners*
1,1,$1+$1,$2,$3*
1,1,$1+$1,$4,$5*
1,1,$1+$1,$6,$7*
1,1,$1+$1,$8,$9*
0 Add four rect primitives between the rounded corners*
20,1,$1+$1,$2,$3,$4,$5,0*
20,1,$1+$1,$4,$5,$6,$7,0*
20,1,$1+$1,$6,$7,$8,$9,0*
20,1,$1+$1,$8,$9,$2,$3,0*%
%AMRotRect*
0 Rectangle, with rotation*
0 The origin of the aperture is its center*
0 $1 length*
0 $2 width*
0 $3 Rotation angle, in degrees counterclockwise*
0 Add horizontal line*
21,1,$1,$2,0,0,$3*%
G04 Aperture macros list end*
%TA.AperFunction,ComponentPad*%
%ADD10C,4.000000*%
%TD*%
%TA.AperFunction,ComponentPad*%
%ADD11R,1.000000X1.000000*%
%TD*%
%TA.AperFunction,ComponentPad*%
%ADD12C,1.000000*%
%TD*%
%TA.AperFunction,SMDPad,CuDef*%
%ADD13RoundRect,0.160000X-0.026517X-0.252791X0.252791X0.026517X0.026517X0.252791X-0.252791X-0.026517X0*%
%TD*%
%TA.AperFunction,SMDPad,CuDef*%
%ADD14R,1.000000X3.000000*%
%TD*%
%TA.AperFunction,SMDPad,CuDef*%
%ADD15RoundRect,0.150000X0.700000X-0.150000X0.700000X0.150000X-0.700000X0.150000X-0.700000X-0.150000X0*%
%TD*%
%TA.AperFunction,SMDPad,CuDef*%
%ADD16RoundRect,0.250000X1.100000X-0.250000X1.100000X0.250000X-1.100000X0.250000X-1.100000X-0.250000X0*%
%TD*%
%TA.AperFunction,SMDPad,CuDef*%
%ADD17RotRect,1.100000X0.250000X45.000000*%
%TD*%
%TA.AperFunction,SMDPad,CuDef*%
%ADD18RoundRect,0.150000X-0.700000X0.150000X-0.700000X-0.150000X0.700000X-0.150000X0.700000X0.150000X0*%
%TD*%
%TA.AperFunction,SMDPad,CuDef*%
%ADD19RoundRect,0.250000X-1.100000X0.250000X-1.100000X-0.250000X1.100000X-0.250000X1.100000X0.250000X0*%
%TD*%
%TA.AperFunction,SMDPad,CuDef*%
%ADD20RoundRect,0.150000X-0.150000X-0.700000X0.150000X-0.700000X0.150000X0.700000X-0.150000X0.700000X0*%
%TD*%
%TA.AperFunction,SMDPad,CuDef*%
%ADD21RoundRect,0.250000X-0.250000X-1.100000X0.250000X-1.100000X0.250000X1.100000X-0.250000X1.100000X0*%
%TD*%
%TA.AperFunction,ViaPad*%
%ADD22C,0.600000*%
%TD*%
%TA.AperFunction,Conductor*%
%ADD23C,0.300000*%
%TD*%
%TA.AperFunction,Conductor*%
%ADD24C,0.400000*%
%TD*%
%TA.AperFunction,Conductor*%
%ADD25C,0.500000*%
%TD*%
%TA.AperFunction,Conductor*%
%ADD26C,0.200000*%
%TD*%
%TA.AperFunction,Conductor*%
%ADD27C,0.750000*%
%TD*%
%TA.AperFunction,Conductor*%
%ADD28C,0.250000*%
%TD*%
G04 APERTURE END LIST*
D10*
%TO.P,H4,*%
%TO.N,*%
X152775000Y-106350000D03*
%TD*%
D11*
%TO.P,J1,1,Pin_1*%
%TO.N,/DSDA+*%
X183460000Y-103800000D03*
D12*
%TO.P,J1,2,Pin_2*%
%TO.N,/DSDA-*%
X184730000Y-103800000D03*
%TO.P,J1,3,Pin_3*%
%TO.N,/DSCL+*%
X186000000Y-103800000D03*
%TO.P,J1,4,Pin_4*%
%TO.N,/DSCL-*%
X187270000Y-103800000D03*
%TD*%
D10*
%TO.P,H6,*%
%TO.N,*%
X197225000Y-106350000D03*
%TD*%
D11*
%TO.P,J6,1,Pin_1*%
%TO.N,/SCLIN*%
X183460000Y-107550000D03*
D12*
%TO.P,J6,2,Pin_2*%
%TO.N,/SDAIN*%
X184730000Y-107550000D03*
%TO.P,J6,3,Pin_3*%
%TO.N,/SCLOUT*%
X186000000Y-107550000D03*
%TO.P,J6,4,Pin_4*%
%TO.N,/SDAOUT*%
X187270000Y-107550000D03*
%TD*%
D11*
%TO.P,J7,1,Pin_1*%
%TO.N,+5V*%
X189770000Y-103800000D03*
D12*
%TO.P,J7,2,Pin_2*%
%TO.N,+3.3V*%
X191040000Y-103800000D03*
%TO.P,J7,3,Pin_3*%
%TO.N,GND*%
X192310000Y-103800000D03*
%TD*%
D10*
%TO.P,H1,*%
%TO.N,*%
X171825000Y-93650000D03*
%TD*%
D11*
%TO.P,J8,1,Pin_1*%
%TO.N,/XORH*%
X190500000Y-107550000D03*
D12*
%TO.P,J8,2,Pin_2*%
%TO.N,/XORL*%
X191770000Y-107550000D03*
%TD*%
D10*
%TO.P,H3,*%
%TO.N,*%
X197225000Y-93650000D03*
%TD*%
%TO.P,H2,*%
%TO.N,*%
X178175000Y-106350000D03*
%TD*%
%TO.P,H5,*%
%TO.N,*%
X152775000Y-93650000D03*
%TD*%
D13*
%TO.P,R9,1*%
%TO.N,+3.3V*%
X171155008Y-104044992D03*
%TO.P,R9,2*%
%TO.N,Net-(U1-EN)*%
X172000000Y-103200000D03*
%TD*%
D14*
%TO.P,SW5,1,1*%
%TO.N,Net-(R12-Pad1)*%
X161300000Y-96300000D03*
%TO.P,SW5,2,2*%
%TO.N,Net-(R13-Pad1)*%
X163840000Y-96300000D03*
%TO.P,SW5,4,4*%
%TO.N,Net-(R24-Pad1)*%
X163840000Y-103800000D03*
%TO.P,SW5,8,8*%
%TO.N,Net-(R25-Pad1)*%
X161300000Y-103800000D03*
%TO.P,SW5,C,C*%
%TO.N,GND*%
X158760000Y-103800000D03*
X158760000Y-96300000D03*
%TD*%
D13*
%TO.P,R8,1*%
%TO.N,+3.3V*%
X170155008Y-103244992D03*
%TO.P,R8,2*%
%TO.N,/SCLIN*%
X171000000Y-102400000D03*
%TD*%
D15*
%TO.P,J3,1,Pin_1*%
%TO.N,+5V*%
X147000000Y-103125000D03*
%TO.P,J3,2,Pin_2*%
%TO.N,/DSDA-*%
X147000000Y-101875000D03*
%TO.P,J3,3,Pin_3*%
%TO.N,/DSDA+*%
X147000000Y-100625000D03*
%TO.P,J3,4,Pin_4*%
%TO.N,/DSCL+*%
X147000000Y-99375000D03*
%TO.P,J3,5,Pin_5*%
%TO.N,/DSCL-*%
X147000000Y-98125000D03*
%TO.P,J3,6,Pin_6*%
%TO.N,GND*%
X147000000Y-96875000D03*
D16*
%TO.P,J3,MP*%
%TO.N,N/C*%
X143800000Y-104975000D03*
X143800000Y-95025000D03*
%TD*%
D17*
%TO.P,U1,1,V_{DD(A)}*%
%TO.N,+3.3V*%
X173686827Y-102727386D03*
%TO.P,U1,2,SDA*%
%TO.N,/SDAIN*%
X173333274Y-102373833D03*
%TO.P,U1,3,EN*%
%TO.N,Net-(U1-EN)*%
X172979720Y-102020280D03*
%TO.P,U1,4,SCL*%
%TO.N,/SCLIN*%
X172626167Y-101666726D03*
%TO.P,U1,5,V_{SS}*%
%TO.N,GND*%
X172272614Y-101313173D03*
%TO.P,U1,6,DSCLM*%
%TO.N,/DSCL-*%
X175313173Y-98272614D03*
%TO.P,U1,7,DSCLP*%
%TO.N,/DSCL+*%
X175666726Y-98626167D03*
%TO.P,U1,8,DSDAP*%
%TO.N,/DSDA+*%
X176020280Y-98979720D03*
%TO.P,U1,9,DSDAM*%
%TO.N,/DSDA-*%
X176373833Y-99333274D03*
%TO.P,U1,10,V_{DD(B)}*%
%TO.N,+5V*%
X176727386Y-99686827D03*
%TD*%
D18*
%TO.P,J9,1,Pin_1*%
%TO.N,GND*%
X203000000Y-96875000D03*
%TO.P,J9,2,Pin_2*%
%TO.N,/DSCL-*%
X203000000Y-98125000D03*
%TO.P,J9,3,Pin_3*%
%TO.N,/DSCL+*%
X203000000Y-99375000D03*
%TO.P,J9,4,Pin_4*%
%TO.N,/DSDA+*%
X203000000Y-100625000D03*
%TO.P,J9,5,Pin_5*%
%TO.N,/DSDA-*%
X203000000Y-101875000D03*
%TO.P,J9,6,Pin_6*%
%TO.N,+5V*%
X203000000Y-103125000D03*
D19*
%TO.P,J9,MP*%
%TO.N,N/C*%
X206200000Y-95025000D03*
X206200000Y-104975000D03*
%TD*%
D13*
%TO.P,R7,1*%
%TO.N,+3.3V*%
X171977504Y-105122496D03*
%TO.P,R7,2*%
%TO.N,/SDAIN*%
X172822496Y-104277504D03*
%TD*%
D20*
%TO.P,J2,1,Pin_1*%
%TO.N,GND*%
X184625000Y-95000000D03*
%TO.P,J2,2,Pin_2*%
%TO.N,+5V*%
X185875000Y-95000000D03*
%TO.P,J2,3,Pin_3*%
%TO.N,/SDAIN*%
X187125000Y-95000000D03*
%TO.P,J2,4,Pin_4*%
%TO.N,/SCLIN*%
X188375000Y-95000000D03*
D21*
%TO.P,J2,MP*%
%TO.N,N/C*%
X182775000Y-91800000D03*
X190225000Y-91800000D03*
%TD*%
D22*
%TO.N,+3.3V*%
X180100000Y-92900000D03*
X168300000Y-103679346D03*
X153900000Y-99600000D03*
X178700000Y-94100000D03*
X169600000Y-102700000D03*
X156500000Y-99575000D03*
X158900000Y-99575000D03*
X165300000Y-105424265D03*
X165400000Y-93500000D03*
X182100000Y-102300000D03*
X161400000Y-99575000D03*
%TO.N,+5V*%
X182100000Y-103100000D03*
X169025735Y-106074265D03*
X204000000Y-102800000D03*
X186700000Y-93700000D03*
X169700000Y-107500000D03*
X179900000Y-94100000D03*
X178600000Y-103100000D03*
%TO.N,Net-(R12-Pad1)*%
X162600000Y-97000000D03*
%TO.N,Net-(R13-Pad1)*%
X162600000Y-95600000D03*
%TO.N,/SCLOUT*%
X175300000Y-103100000D03*
%TO.N,Net-(R24-Pad1)*%
X162700000Y-103125003D03*
%TO.N,Net-(R25-Pad1)*%
X162700000Y-102325000D03*
%TO.N,/SCLIN*%
X174075907Y-101100000D03*
X186900000Y-97400000D03*
%TO.N,/XORH*%
X169050000Y-104099293D03*
%TO.N,/SDAIN*%
X181300000Y-97925000D03*
X178775000Y-101132100D03*
X175299000Y-101087384D03*
%TO.N,GND*%
X170500000Y-97400000D03*
X174504564Y-103185324D03*
X193200000Y-95300000D03*
X188900000Y-97200000D03*
X149200000Y-94200000D03*
X204834825Y-100038813D03*
X165500000Y-108600000D03*
X194100000Y-95300000D03*
X169700000Y-97400000D03*
X203200000Y-95000000D03*
X201700000Y-106900000D03*
X203200000Y-96000000D03*
X175800000Y-96200000D03*
X156300000Y-102700000D03*
X163900000Y-108600000D03*
X164700000Y-108600000D03*
X202200000Y-95000000D03*
X165500000Y-107800000D03*
X190700000Y-97200000D03*
X163900000Y-107800000D03*
X171300000Y-97400000D03*
X193200000Y-94400000D03*
X149200000Y-95000000D03*
X166500000Y-104000000D03*
X147600000Y-94200000D03*
X201700000Y-103900000D03*
X173900000Y-108600000D03*
X172100000Y-97400000D03*
X201700000Y-106000000D03*
X155500000Y-102700000D03*
X201700000Y-107800000D03*
X147600000Y-95000000D03*
X175300000Y-106700000D03*
X203200000Y-94000000D03*
X164700000Y-107800000D03*
X183300000Y-95300000D03*
X183800000Y-95900000D03*
X204828088Y-102452375D03*
X148400000Y-94200000D03*
X186400000Y-91812500D03*
X191600000Y-97200000D03*
X156300000Y-103600000D03*
X193800000Y-103325000D03*
X148400000Y-95000000D03*
X189800000Y-97200000D03*
X193800000Y-104100000D03*
X200800000Y-106900000D03*
%TO.N,/DSDA-*%
X205100000Y-101700000D03*
%TO.N,/DSDA+*%
X205110000Y-100790000D03*
%TO.N,/DSCL-*%
X202300000Y-105300003D03*
%TO.N,/DSCL+*%
X202300000Y-104500000D03*
%TD*%
D23*
%TO.N,+3.3V*%
X171155008Y-104300000D02*
X171977504Y-105122496D01*
X161400000Y-99575000D02*
X158900000Y-99575000D01*
X158900000Y-99575000D02*
X156500000Y-99575000D01*
X174800000Y-104400000D02*
X174800000Y-105600000D01*
D24*
X174800000Y-94100000D02*
X178900000Y-94100000D01*
X165400000Y-93500000D02*
X168000000Y-96100000D01*
D23*
X153925000Y-99575000D02*
X153900000Y-99600000D01*
X167820654Y-103679346D02*
X168300000Y-103679346D01*
X156500000Y-99575000D02*
X153925000Y-99575000D01*
X165300000Y-105424265D02*
X166075735Y-105424265D01*
D24*
X172800000Y-96100000D02*
X174800000Y-94100000D01*
D23*
X173055008Y-106200000D02*
X171977504Y-105122496D01*
X171155008Y-104044992D02*
X170955008Y-104044992D01*
X191040000Y-103092894D02*
X191040000Y-103800000D01*
X170144992Y-103244992D02*
X170155008Y-103244992D01*
X173686827Y-102727386D02*
X173686827Y-103286827D01*
X166075735Y-105424265D02*
X167820654Y-103679346D01*
X170955008Y-104044992D02*
X170155008Y-103244992D01*
X178900000Y-94100000D02*
X178700000Y-94100000D01*
X180100000Y-92900000D02*
X178900000Y-94100000D01*
D24*
X168000000Y-96100000D02*
X172800000Y-96100000D01*
D23*
X190247106Y-102300000D02*
X191040000Y-103092894D01*
X174800000Y-105600000D02*
X174200000Y-106200000D01*
X174200000Y-106200000D02*
X173055008Y-106200000D01*
X173686827Y-103286827D02*
X174800000Y-104400000D01*
X182100000Y-102300000D02*
X190247106Y-102300000D01*
X171977504Y-105122496D02*
X171977504Y-105067488D01*
X171155008Y-104044992D02*
X171155008Y-104300000D01*
X169600000Y-102700000D02*
X170144992Y-103244992D01*
D25*
%TO.N,+5V*%
X186700000Y-93700000D02*
X186400000Y-93700000D01*
D26*
X182100000Y-103100000D02*
X178600000Y-103100000D01*
D23*
X188170000Y-105400000D02*
X189770000Y-103800000D01*
X182100000Y-103100000D02*
X181900000Y-103100000D01*
D25*
X185875000Y-94225000D02*
X185875000Y-95000000D01*
D23*
X169025735Y-106074265D02*
X157574265Y-106074265D01*
X181900000Y-103100000D02*
X178486827Y-99686827D01*
X154625000Y-103125000D02*
X147000000Y-103125000D01*
X180300000Y-93700000D02*
X186700000Y-93700000D01*
D25*
X190370000Y-105400000D02*
X189770000Y-104800000D01*
X189770000Y-104800000D02*
X189770000Y-103800000D01*
X193800000Y-105400000D02*
X190370000Y-105400000D01*
D23*
X182100000Y-103100000D02*
X182100000Y-104600000D01*
D25*
X196075000Y-103125000D02*
X193800000Y-105400000D01*
X186400000Y-93700000D02*
X185875000Y-94225000D01*
D23*
X182900000Y-105400000D02*
X188170000Y-105400000D01*
D25*
X203000000Y-103125000D02*
X196075000Y-103125000D01*
D23*
X157574265Y-106074265D02*
X154625000Y-103125000D01*
X179900000Y-94100000D02*
X180300000Y-93700000D01*
D25*
X203000000Y-103125000D02*
X203675000Y-103125000D01*
D23*
X169025735Y-106074265D02*
X169025735Y-106825735D01*
X182100000Y-104600000D02*
X182900000Y-105400000D01*
X169025735Y-106825735D02*
X169700000Y-107500000D01*
X178486827Y-99686827D02*
X176727386Y-99686827D01*
D25*
X203675000Y-103125000D02*
X204000000Y-102800000D01*
D26*
%TO.N,Net-(U1-EN)*%
X172000000Y-103000000D02*
X172979720Y-102020280D01*
X172000000Y-103200000D02*
X172000000Y-103000000D01*
%TO.N,Net-(R12-Pad1)*%
X161300000Y-96300000D02*
X161900000Y-96300000D01*
X161900000Y-96300000D02*
X162600000Y-97000000D01*
%TO.N,Net-(R13-Pad1)*%
X163840000Y-96300000D02*
X163300000Y-96300000D01*
X163300000Y-96300000D02*
X162600000Y-95600000D01*
%TO.N,/SCLOUT*%
X175900000Y-103700000D02*
X179700000Y-103700000D01*
X179700000Y-103700000D02*
X182100000Y-106100000D01*
X184550000Y-106100000D02*
X186000000Y-107550000D01*
X182100000Y-106100000D02*
X184550000Y-106100000D01*
X185950000Y-107550000D02*
X186000000Y-107550000D01*
X175300000Y-103100000D02*
X175900000Y-103700000D01*
%TO.N,Net-(R24-Pad1)*%
X163400000Y-103800000D02*
X163840000Y-103800000D01*
X162700000Y-103125003D02*
X162725003Y-103125003D01*
X162725003Y-103125003D02*
X163400000Y-103800000D01*
%TO.N,Net-(R25-Pad1)*%
X162700000Y-102325000D02*
X162650060Y-102325000D01*
X162650060Y-102325000D02*
X161300000Y-103675060D01*
X161300000Y-103675060D02*
X161300000Y-103800000D01*
%TO.N,/SCLIN*%
X182110000Y-108900000D02*
X183460000Y-107550000D01*
X171000000Y-102400000D02*
X171892893Y-102400000D01*
X172200000Y-107000000D02*
X171000000Y-105800000D01*
X174500000Y-107000000D02*
X172200000Y-107000000D01*
X176400000Y-108900000D02*
X174500000Y-107000000D01*
X174075907Y-101100000D02*
X173192893Y-101100000D01*
X171000000Y-105800000D02*
X171000000Y-104900000D01*
X169800650Y-104000000D02*
X168900000Y-103099350D01*
X170100000Y-104000000D02*
X169800650Y-104000000D01*
X169301000Y-102099000D02*
X170699000Y-102099000D01*
X168900000Y-103099350D02*
X168900000Y-102500000D01*
X176400000Y-108900000D02*
X182110000Y-108900000D01*
X170699000Y-102099000D02*
X171000000Y-102400000D01*
X188375000Y-95925000D02*
X188375000Y-95000000D01*
X168900000Y-102500000D02*
X169301000Y-102099000D01*
X171000000Y-104900000D02*
X170100000Y-104000000D01*
X171892893Y-102400000D02*
X172626167Y-101666726D01*
X186900000Y-97400000D02*
X188375000Y-95925000D01*
X173192893Y-101100000D02*
X172626167Y-101666726D01*
%TO.N,/XORH*%
X169050000Y-105250000D02*
X171400000Y-107600000D01*
X171400000Y-107600000D02*
X174300000Y-107600000D01*
X174300000Y-107600000D02*
X176100000Y-109400000D01*
X169050000Y-104099293D02*
X169050000Y-105250000D01*
X188650000Y-109400000D02*
X190500000Y-107550000D01*
X176100000Y-109400000D02*
X188650000Y-109400000D01*
%TO.N,/SDAIN*%
X182325000Y-96900000D02*
X186100000Y-96900000D01*
X175146301Y-101132100D02*
X178775000Y-101132100D01*
X175146301Y-101132100D02*
X174500000Y-101778401D01*
X175146301Y-101132100D02*
X175254284Y-101132100D01*
X173928706Y-101778401D02*
X173333274Y-102373833D01*
X186100000Y-96900000D02*
X187125000Y-95875000D01*
X175254284Y-101132100D02*
X175299000Y-101087384D01*
X173333274Y-102373833D02*
X172822496Y-102884611D01*
X172822496Y-102884611D02*
X172822496Y-104277504D01*
X187125000Y-95875000D02*
X187125000Y-95000000D01*
X174500000Y-101778401D02*
X173928706Y-101778401D01*
X181300000Y-97925000D02*
X182325000Y-96900000D01*
D24*
%TO.N,GND*%
X175351000Y-106649000D02*
X175300000Y-106700000D01*
D27*
X156500000Y-103800000D02*
X156300000Y-103600000D01*
X184625000Y-95000000D02*
X183600000Y-95000000D01*
X186400000Y-91812500D02*
X187712432Y-91812500D01*
D28*
X205949000Y-100743702D02*
X205949000Y-101748546D01*
X205244111Y-100038813D02*
X205949000Y-100743702D01*
X201674000Y-105974000D02*
X201700000Y-106000000D01*
D23*
X174600000Y-97400000D02*
X172100000Y-97400000D01*
D24*
X175351000Y-104171768D02*
X175351000Y-106649000D01*
D23*
X169186827Y-101313173D02*
X166500000Y-104000000D01*
D27*
X158760000Y-103800000D02*
X156500000Y-103800000D01*
D28*
X203811298Y-103874000D02*
X201726000Y-103874000D01*
D27*
X191199932Y-95300000D02*
X193200000Y-95300000D01*
D28*
X201700000Y-103900000D02*
X201674000Y-103926000D01*
D27*
X183600000Y-95000000D02*
X183300000Y-95300000D01*
D23*
X174504564Y-103185324D02*
X174504564Y-103304564D01*
D28*
X205245171Y-102452375D02*
X204828088Y-102452375D01*
D24*
X174504564Y-103185324D02*
X174504564Y-103325332D01*
X173900000Y-108600000D02*
X165500000Y-108600000D01*
D27*
X187712432Y-91812500D02*
X191199932Y-95300000D01*
D24*
X174504564Y-103325332D02*
X175351000Y-104171768D01*
D28*
X201726000Y-103874000D02*
X201700000Y-103900000D01*
X201674000Y-103926000D02*
X201674000Y-105974000D01*
X204828088Y-102452375D02*
X204828088Y-102857210D01*
X204834825Y-100038813D02*
X205244111Y-100038813D01*
X205949000Y-101748546D02*
X205245171Y-102452375D01*
X204828088Y-102857210D02*
X203811298Y-103874000D01*
D23*
X172272614Y-101313173D02*
X169186827Y-101313173D01*
X175800000Y-96200000D02*
X174600000Y-97400000D01*
D26*
%TO.N,/DSDA-*%
X190179234Y-100870000D02*
X190179234Y-100105000D01*
X176338479Y-99333274D02*
X175171753Y-100500000D01*
X176373833Y-99333274D02*
X176373833Y-99297919D01*
X204275001Y-101875000D02*
X204675001Y-101475000D01*
X176373833Y-99333274D02*
X176338479Y-99333274D01*
X196341669Y-102005000D02*
X196341669Y-101695000D01*
X186534234Y-99950000D02*
X186724234Y-99950000D01*
X195791669Y-101695000D02*
X195791669Y-102005000D01*
X181156802Y-101475000D02*
X185774234Y-101475000D01*
X201724999Y-101875000D02*
X203000000Y-101875000D01*
X204675001Y-101475000D02*
X204875000Y-101475000D01*
X173340901Y-100500000D02*
X172840901Y-100000000D01*
X186379234Y-100870000D02*
X186379234Y-100105000D01*
X196671669Y-101475000D02*
X196805195Y-101475000D01*
X188434234Y-99950000D02*
X188624234Y-99950000D01*
X186879234Y-100105000D02*
X186879234Y-100870000D01*
X176946752Y-98725000D02*
X178406802Y-98725000D01*
X188279234Y-100870000D02*
X188279234Y-100105000D01*
X190334234Y-99950000D02*
X190524234Y-99950000D01*
X176373833Y-99297919D02*
X176946752Y-98725000D01*
X196011669Y-102225000D02*
X196121669Y-102225000D01*
X189384234Y-101475000D02*
X189574234Y-101475000D01*
X191284234Y-101475000D02*
X191474234Y-101475000D01*
X172840901Y-100000000D02*
X169600000Y-100000000D01*
X188779234Y-100105000D02*
X188779234Y-100870000D01*
X191474234Y-101475000D02*
X192255303Y-101475000D01*
X196561669Y-101475000D02*
X196671669Y-101475000D01*
X169600000Y-100000000D02*
X168125000Y-101475000D01*
X178406802Y-98725000D02*
X181156802Y-101475000D01*
X203000000Y-101875000D02*
X204275001Y-101875000D01*
X175171753Y-100500000D02*
X173340901Y-100500000D01*
X148275001Y-101875000D02*
X147000000Y-101875000D01*
X148675001Y-101475000D02*
X148275001Y-101875000D01*
X192255303Y-101475000D02*
X195571669Y-101475000D01*
X190679234Y-100105000D02*
X190679234Y-100870000D01*
X196805195Y-101475000D02*
X201324999Y-101475000D01*
X187484234Y-101475000D02*
X187674234Y-101475000D01*
X201324999Y-101475000D02*
X201724999Y-101875000D01*
X168125000Y-101475000D02*
X148675001Y-101475000D01*
X204875000Y-101475000D02*
X205100000Y-101700000D01*
X188279234Y-100105000D02*
G75*
G02*
X188434234Y-99950034I154966J0D01*
G01*
X195571669Y-101475000D02*
G75*
G02*
X195791700Y-101695000I31J-220000D01*
G01*
X188624234Y-99950000D02*
G75*
G02*
X188779200Y-100105000I-34J-155000D01*
G01*
X187674234Y-101475000D02*
G75*
G03*
X188279200Y-100870000I-34J605000D01*
G01*
X195791669Y-102005000D02*
G75*
G03*
X196011669Y-102225031I220031J0D01*
G01*
X190524234Y-99950000D02*
G75*
G02*
X190679200Y-100105000I-34J-155000D01*
G01*
X186879234Y-100870000D02*
G75*
G03*
X187484234Y-101474966I604966J0D01*
G01*
X186379234Y-100105000D02*
G75*
G02*
X186534234Y-99950034I154966J0D01*
G01*
X186724234Y-99950000D02*
G75*
G02*
X186879200Y-100105000I-34J-155000D01*
G01*
X190179234Y-100105000D02*
G75*
G02*
X190334234Y-99950034I154966J0D01*
G01*
X190679234Y-100870000D02*
G75*
G03*
X191284234Y-101474966I604966J0D01*
G01*
X189574234Y-101475000D02*
G75*
G03*
X190179200Y-100870000I-34J605000D01*
G01*
X196341669Y-101695000D02*
G75*
G02*
X196561669Y-101474969I220031J0D01*
G01*
X188779234Y-100870000D02*
G75*
G03*
X189384234Y-101474966I604966J0D01*
G01*
X185774234Y-101475000D02*
G75*
G03*
X186379200Y-100870000I-34J605000D01*
G01*
X196121669Y-102225000D02*
G75*
G03*
X196341700Y-102005000I31J220000D01*
G01*
%TO.N,/DSDA+*%
X204875000Y-101025000D02*
X205110000Y-100790000D01*
X191284234Y-101025000D02*
X191474234Y-101025000D01*
X189729234Y-100870000D02*
X189729234Y-100105000D01*
X191129234Y-100105000D02*
X191129234Y-100870000D01*
X185929234Y-100870000D02*
X185929234Y-100105000D01*
X201724999Y-100625000D02*
X203000000Y-100625000D01*
X148275001Y-100625000D02*
X147000000Y-100625000D01*
X192255303Y-101025000D02*
X201324999Y-101025000D01*
X190334234Y-99500000D02*
X190524234Y-99500000D01*
X188434234Y-99500000D02*
X188624234Y-99500000D01*
X187484234Y-101025000D02*
X187674234Y-101025000D01*
X204675001Y-101025000D02*
X204875000Y-101025000D01*
X201324999Y-101025000D02*
X201724999Y-100625000D01*
X178593198Y-98275000D02*
X181343198Y-101025000D01*
X173500000Y-100000000D02*
X173000000Y-99500000D01*
X167938606Y-101025000D02*
X148675001Y-101025000D01*
X204275001Y-100625000D02*
X204675001Y-101025000D01*
X189229234Y-100105000D02*
X189229234Y-100870000D01*
X187329234Y-100105000D02*
X187329234Y-100870000D01*
X173000000Y-99500000D02*
X169463606Y-99500000D01*
X189384234Y-101025000D02*
X189574234Y-101025000D01*
X186534234Y-99500000D02*
X186724234Y-99500000D01*
X187829234Y-100870000D02*
X187829234Y-100105000D01*
X169463606Y-99500000D02*
X167938606Y-101025000D01*
X175035355Y-100000000D02*
X173500000Y-100000000D01*
X191474234Y-101025000D02*
X192255303Y-101025000D01*
X176020280Y-98979720D02*
X176055634Y-98979720D01*
X176055634Y-98979720D02*
X176760354Y-98275000D01*
X181343198Y-101025000D02*
X185774234Y-101025000D01*
X176020280Y-99015075D02*
X175035355Y-100000000D01*
X176020280Y-98979720D02*
X176020280Y-99015075D01*
X203000000Y-100625000D02*
X204275001Y-100625000D01*
X148675001Y-101025000D02*
X148275001Y-100625000D01*
X176760354Y-98275000D02*
X178593198Y-98275000D01*
X186724234Y-99500000D02*
G75*
G02*
X187329200Y-100105000I-34J-605000D01*
G01*
X189229234Y-100870000D02*
G75*
G03*
X189384234Y-101024966I154966J0D01*
G01*
X188624234Y-99500000D02*
G75*
G02*
X189229200Y-100105000I-34J-605000D01*
G01*
X190524234Y-99500000D02*
G75*
G02*
X191129200Y-100105000I-34J-605000D01*
G01*
X185929234Y-100105000D02*
G75*
G02*
X186534234Y-99500034I604966J0D01*
G01*
X191129234Y-100870000D02*
G75*
G03*
X191284234Y-101024966I154966J0D01*
G01*
X189574234Y-101025000D02*
G75*
G03*
X189729200Y-100870000I-34J155000D01*
G01*
X189729234Y-100105000D02*
G75*
G02*
X190334234Y-99500034I604966J0D01*
G01*
X185774234Y-101025000D02*
G75*
G03*
X185929200Y-100870000I-34J155000D01*
G01*
X187674234Y-101025000D02*
G75*
G03*
X187829200Y-100870000I-34J155000D01*
G01*
X187329234Y-100870000D02*
G75*
G03*
X187484234Y-101024966I154966J0D01*
G01*
X187829234Y-100105000D02*
G75*
G02*
X188434234Y-99500034I604966J0D01*
G01*
%TO.N,/DSCL-*%
X174000000Y-99000000D02*
X173525000Y-98525000D01*
X182698180Y-99110000D02*
X182698180Y-99265000D01*
X183148180Y-99110000D02*
X183148180Y-98525000D01*
X175313173Y-98272614D02*
X175819424Y-97766363D01*
X175819424Y-97766363D02*
X175854780Y-97766363D01*
X203811394Y-105125000D02*
X202475003Y-105125000D01*
X183148180Y-98525000D02*
X183148180Y-98235000D01*
X176346143Y-97275000D02*
X179093198Y-97275000D01*
X184633180Y-99400000D02*
X184813180Y-99400000D01*
X184948180Y-99265000D02*
X184948180Y-99110000D01*
X184498180Y-98235000D02*
X184498180Y-98525000D01*
X201724999Y-98125000D02*
X203000000Y-98125000D01*
X174621141Y-99000000D02*
X174000000Y-99000000D01*
X185713180Y-98525000D02*
X186845068Y-98525000D01*
X148675001Y-98525000D02*
X148275001Y-98125000D01*
X201324999Y-98525000D02*
X201724999Y-98125000D01*
X202475003Y-105125000D02*
X202300000Y-105300003D01*
X179093198Y-97275000D02*
X180343198Y-98525000D01*
X182833180Y-99400000D02*
X183013180Y-99400000D01*
X203000000Y-98125000D02*
X204275001Y-98125000D01*
X206825000Y-102111394D02*
X203811394Y-105125000D01*
X184498180Y-98525000D02*
X184498180Y-99110000D01*
X175313173Y-98307968D02*
X174621141Y-99000000D01*
X205743198Y-98525000D02*
X206825000Y-99606802D01*
X183733180Y-97650000D02*
X183913180Y-97650000D01*
X183148180Y-99265000D02*
X183148180Y-99110000D01*
X206825000Y-99606802D02*
X206825000Y-102111394D01*
X173525000Y-98525000D02*
X148675001Y-98525000D01*
X148275001Y-98125000D02*
X147000000Y-98125000D01*
X180343198Y-98525000D02*
X182113180Y-98525000D01*
X185533180Y-98525000D02*
X185713180Y-98525000D01*
X204275001Y-98125000D02*
X204675001Y-98525000D01*
X184498180Y-99110000D02*
X184498180Y-99265000D01*
X175854780Y-97766363D02*
X176346143Y-97275000D01*
X204675001Y-98525000D02*
X205743198Y-98525000D01*
X186845068Y-98525000D02*
X201324999Y-98525000D01*
X175313173Y-98272614D02*
X175313173Y-98307968D01*
X183013180Y-99400000D02*
G75*
G03*
X183148200Y-99265000I20J135000D01*
G01*
X184813180Y-99400000D02*
G75*
G03*
X184948200Y-99265000I20J135000D01*
G01*
X182113180Y-98525000D02*
G75*
G02*
X182698200Y-99110000I20J-585000D01*
G01*
X183913180Y-97650000D02*
G75*
G02*
X184498200Y-98235000I20J-585000D01*
G01*
X183148180Y-98235000D02*
G75*
G02*
X183733180Y-97649980I585020J0D01*
G01*
X184498180Y-99265000D02*
G75*
G03*
X184633180Y-99400020I135020J0D01*
G01*
X184948180Y-99110000D02*
G75*
G02*
X185533180Y-98524980I585020J0D01*
G01*
X182698180Y-99265000D02*
G75*
G03*
X182833180Y-99400020I135020J0D01*
G01*
%TO.N,/DSCL+*%
X184048180Y-98525000D02*
X184048180Y-99110000D01*
X173338606Y-98975000D02*
X148675001Y-98975000D01*
X148675001Y-98975000D02*
X148275001Y-99375000D01*
X183598180Y-98525000D02*
X183598180Y-98235000D01*
X186845068Y-98975000D02*
X191860979Y-98975000D01*
X184048180Y-99110000D02*
X184048180Y-99265000D01*
X202475000Y-104675000D02*
X203625000Y-104675000D01*
X178906802Y-97725000D02*
X180156802Y-98975000D01*
X184633180Y-99850000D02*
X184813180Y-99850000D01*
X202300000Y-104500000D02*
X202475000Y-104675000D01*
X176172977Y-98119916D02*
X176172977Y-98084560D01*
X182833180Y-99850000D02*
X183013180Y-99850000D01*
X203625000Y-104675000D02*
X206375000Y-101925000D01*
X192610979Y-98975000D02*
X192760979Y-98975000D01*
X185713180Y-98975000D02*
X186845068Y-98975000D01*
X175666726Y-98626167D02*
X176172977Y-98119916D01*
X192760979Y-98975000D02*
X192851845Y-98975000D01*
X184048180Y-98235000D02*
X184048180Y-98525000D01*
X185533180Y-98975000D02*
X185713180Y-98975000D01*
X206375000Y-99793198D02*
X205556802Y-98975000D01*
X175666726Y-98626167D02*
X175631372Y-98626167D01*
X183598180Y-99265000D02*
X183598180Y-99110000D01*
X148275001Y-99375000D02*
X147000000Y-99375000D01*
X176172977Y-98084560D02*
X176532537Y-97725000D01*
X192160979Y-99275000D02*
X192310979Y-99275000D01*
X192851845Y-98975000D02*
X201324999Y-98975000D01*
X205556802Y-98975000D02*
X204675001Y-98975000D01*
X183598180Y-99110000D02*
X183598180Y-98525000D01*
X176532537Y-97725000D02*
X178906802Y-97725000D01*
X201724999Y-99375000D02*
X203000000Y-99375000D01*
X174757539Y-99500000D02*
X173863606Y-99500000D01*
X185398180Y-99265000D02*
X185398180Y-99110000D01*
X204675001Y-98975000D02*
X204275001Y-99375000D01*
X201324999Y-98975000D02*
X201724999Y-99375000D01*
X182248180Y-99110000D02*
X182248180Y-99265000D01*
X204275001Y-99375000D02*
X203000000Y-99375000D01*
X173863606Y-99500000D02*
X173338606Y-98975000D01*
X180156802Y-98975000D02*
X182113180Y-98975000D01*
X206375000Y-101925000D02*
X206375000Y-99793198D01*
X183733180Y-98100000D02*
X183913180Y-98100000D01*
X175631372Y-98626167D02*
X174757539Y-99500000D01*
X184813180Y-99850000D02*
G75*
G03*
X185398200Y-99265000I20J585000D01*
G01*
X191860979Y-98975000D02*
G75*
G02*
X192011000Y-99125000I21J-150000D01*
G01*
X185398180Y-99110000D02*
G75*
G02*
X185533180Y-98974980I135020J0D01*
G01*
X182113180Y-98975000D02*
G75*
G02*
X182248200Y-99110000I20J-135000D01*
G01*
X184048180Y-99265000D02*
G75*
G03*
X184633180Y-99850020I585020J0D01*
G01*
X182248180Y-99265000D02*
G75*
G03*
X182833180Y-99850020I585020J0D01*
G01*
X192460979Y-99125000D02*
G75*
G02*
X192610979Y-98974979I150021J0D01*
G01*
X183013180Y-99850000D02*
G75*
G03*
X183598200Y-99265000I20J585000D01*
G01*
X192010979Y-99125000D02*
G75*
G03*
X192160979Y-99275021I150021J0D01*
G01*
X183913180Y-98100000D02*
G75*
G02*
X184048200Y-98235000I20J-135000D01*
G01*
X192310979Y-99275000D02*
G75*
G03*
X192461000Y-99125000I21J150000D01*
G01*
X183598180Y-98235000D02*
G75*
G02*
X183733180Y-98099980I135020J0D01*
G01*
%TD*%
%TA.AperFunction,Conductor*%
%TO.N,GND*%
G36*
X150991039Y-104045185D02*
G01*
X151036794Y-104097989D01*
X151046738Y-104167147D01*
X151017713Y-104230703D01*
X151001313Y-104246447D01*
X150939326Y-104295879D01*
X150720879Y-104514326D01*
X150528264Y-104755858D01*
X150363903Y-105017437D01*
X150229868Y-105295763D01*
X150229862Y-105295777D01*
X150127835Y-105587352D01*
X150127831Y-105587364D01*
X150059089Y-105888544D01*
X150059086Y-105888562D01*
X150024500Y-106195528D01*
X150024500Y-106504471D01*
X150059086Y-106811437D01*
X150059089Y-106811455D01*
X150127831Y-107112635D01*
X150127835Y-107112647D01*
X150229862Y-107404222D01*
X150229868Y-107404236D01*
X150363903Y-107682562D01*
X150363905Y-107682565D01*
X150528265Y-107944143D01*
X150596754Y-108030025D01*
X150708107Y-108169658D01*
X150720880Y-108185674D01*
X150939326Y-108404120D01*
X151180857Y-108596735D01*
X151442435Y-108761095D01*
X151720771Y-108895135D01*
X151720777Y-108895137D01*
X152012352Y-108997164D01*
X152012364Y-108997168D01*
X152313548Y-109065911D01*
X152313554Y-109065911D01*
X152313562Y-109065913D01*
X152518206Y-109088970D01*
X152620529Y-109100499D01*
X152620532Y-109100500D01*
X152620535Y-109100500D01*
X152929468Y-109100500D01*
X152929469Y-109100499D01*
X153086356Y-109082822D01*
X153236437Y-109065913D01*
X153236442Y-109065912D01*
X153236452Y-109065911D01*
X153537636Y-108997168D01*
X153829229Y-108895135D01*
X154107565Y-108761095D01*
X154369143Y-108596735D01*
X154610674Y-108404120D01*
X154829120Y-108185674D01*
X155021735Y-107944143D01*
X155186095Y-107682565D01*
X155320135Y-107404229D01*
X155422168Y-107112636D01*
X155490911Y-106811452D01*
X155495162Y-106773729D01*
X155520273Y-106550858D01*
X155525500Y-106504465D01*
X155525500Y-106195535D01*
X155504800Y-106011819D01*
X155490913Y-105888562D01*
X155490910Y-105888544D01*
X155487642Y-105874228D01*
X155422168Y-105587364D01*
X155390767Y-105497624D01*
X155387205Y-105427845D01*
X155421933Y-105367218D01*
X155483926Y-105334990D01*
X155553502Y-105341395D01*
X155595489Y-105368988D01*
X156874801Y-106648300D01*
X156957164Y-106730663D01*
X157000231Y-106773730D01*
X157147713Y-106872275D01*
X157147714Y-106872275D01*
X157147718Y-106872278D01*
X157188992Y-106889374D01*
X157311599Y-106940160D01*
X157485569Y-106974764D01*
X157485573Y-106974765D01*
X157485574Y-106974765D01*
X157662957Y-106974765D01*
X168035472Y-106974765D01*
X168102511Y-106994450D01*
X168148266Y-107047254D01*
X168152281Y-107057153D01*
X168155323Y-107065692D01*
X168159840Y-107088401D01*
X168184170Y-107147137D01*
X168185364Y-107150019D01*
X168185367Y-107150028D01*
X168227719Y-107252277D01*
X168227720Y-107252279D01*
X168260888Y-107301918D01*
X168260889Y-107301919D01*
X168326272Y-107399773D01*
X168326273Y-107399774D01*
X168652582Y-107726082D01*
X168686067Y-107787405D01*
X168686518Y-107789572D01*
X168689867Y-107806413D01*
X168689869Y-107806418D01*
X168769058Y-107997596D01*
X168884024Y-108169657D01*
X169030342Y-108315975D01*
X169030345Y-108315977D01*
X169202402Y-108430941D01*
X169393580Y-108510130D01*
X169591508Y-108549500D01*
X169596530Y-108550499D01*
X169596534Y-108550500D01*
X169596535Y-108550500D01*
X169803466Y-108550500D01*
X169803467Y-108550499D01*
X170006420Y-108510130D01*
X170197598Y-108430941D01*
X170369655Y-108315977D01*
X170515977Y-108169655D01*
X170532525Y-108144887D01*
X170586134Y-108100083D01*
X170655459Y-108091374D01*
X170718487Y-108121527D01*
X170723289Y-108126078D01*
X170802616Y-108205405D01*
X170857839Y-108260628D01*
X170911696Y-108296614D01*
X170997137Y-108353704D01*
X170997139Y-108353705D01*
X170997143Y-108353707D01*
X171079222Y-108387703D01*
X171106584Y-108399037D01*
X171151918Y-108417816D01*
X171273299Y-108441960D01*
X171316228Y-108450499D01*
X171316232Y-108450500D01*
X171316233Y-108450500D01*
X173896349Y-108450500D01*
X173963388Y-108470185D01*
X173984030Y-108486819D01*
X174494379Y-108997168D01*
X174885031Y-109387819D01*
X174918516Y-109449142D01*
X174913532Y-109518833D01*
X174871660Y-109574767D01*
X174806196Y-109599184D01*
X174797350Y-109599500D01*
X163417255Y-109599500D01*
X163350216Y-109579815D01*
X163329574Y-109563181D01*
X162545915Y-108779522D01*
X162545913Y-108779520D01*
X162475925Y-108739112D01*
X162454589Y-108726793D01*
X162387742Y-108708882D01*
X162352727Y-108699500D01*
X156752727Y-108699500D01*
X156647273Y-108699500D01*
X156545410Y-108726793D01*
X156454087Y-108779520D01*
X156454084Y-108779522D01*
X155670426Y-109563181D01*
X155609103Y-109596666D01*
X155582745Y-109599500D01*
X144004428Y-109599500D01*
X143995582Y-109599184D01*
X143974407Y-109597669D01*
X143781211Y-109583851D01*
X143763700Y-109581333D01*
X143558039Y-109536595D01*
X143541063Y-109531611D01*
X143343849Y-109458053D01*
X143327757Y-109450703D01*
X143143031Y-109349836D01*
X143128146Y-109340271D01*
X142959646Y-109214133D01*
X142946276Y-109202547D01*
X142797452Y-109053723D01*
X142785866Y-109040353D01*
X142745924Y-108986997D01*
X142659724Y-108871848D01*
X142650163Y-108856968D01*
X142549296Y-108672242D01*
X142541946Y-108656150D01*
X142487483Y-108510130D01*
X142468385Y-108458928D01*
X142463406Y-108441969D01*
X142418665Y-108236296D01*
X142416148Y-108218787D01*
X142414037Y-108189278D01*
X142400816Y-108004418D01*
X142400500Y-107995572D01*
X142400500Y-106339545D01*
X142420185Y-106272506D01*
X142472989Y-106226751D01*
X142535478Y-106216032D01*
X142641963Y-106225500D01*
X144958036Y-106225499D01*
X145077418Y-106214886D01*
X145273049Y-106158909D01*
X145453407Y-106064698D01*
X145611109Y-105936109D01*
X145739698Y-105778407D01*
X145833909Y-105598049D01*
X145889886Y-105402418D01*
X145900500Y-105283037D01*
X145900499Y-104666964D01*
X145889886Y-104547582D01*
X145851701Y-104414133D01*
X145833909Y-104351950D01*
X145797464Y-104282181D01*
X145783872Y-104213646D01*
X145809490Y-104148643D01*
X145866186Y-104107809D01*
X145935957Y-104104109D01*
X145963662Y-104114282D01*
X145975512Y-104120320D01*
X146158355Y-104169312D01*
X146236979Y-104175500D01*
X147763020Y-104175499D01*
X147841645Y-104169312D01*
X148024488Y-104120320D01*
X148171949Y-104045185D01*
X148184059Y-104039015D01*
X148240353Y-104025500D01*
X150924000Y-104025500D01*
X150991039Y-104045185D01*
G37*
%TD.AperFunction*%
%TA.AperFunction,Conductor*%
G36*
X201172530Y-104131435D02*
G01*
X201193571Y-104132563D01*
X201205385Y-104141082D01*
X201219357Y-104145185D01*
X201233152Y-104161105D01*
X201250243Y-104173430D01*
X201255575Y-104186983D01*
X201265112Y-104197989D01*
X201268110Y-104218843D01*
X201275824Y-104238448D01*
X201274494Y-104263244D01*
X201275056Y-104267147D01*
X201273935Y-104273691D01*
X201249500Y-104396531D01*
X201249500Y-104603469D01*
X201289867Y-104806412D01*
X201289869Y-104806416D01*
X201289870Y-104806420D01*
X201308936Y-104852450D01*
X201308977Y-104852549D01*
X201316444Y-104922019D01*
X201308977Y-104947450D01*
X201289871Y-104993577D01*
X201289868Y-104993585D01*
X201249500Y-105196533D01*
X201249500Y-105403472D01*
X201289868Y-105606415D01*
X201289870Y-105606423D01*
X201361108Y-105778407D01*
X201369059Y-105797601D01*
X201415533Y-105867155D01*
X201484024Y-105969660D01*
X201630342Y-106115978D01*
X201630345Y-106115980D01*
X201802402Y-106230944D01*
X201993580Y-106310133D01*
X202143582Y-106339970D01*
X202196530Y-106350502D01*
X202196534Y-106350503D01*
X202196535Y-106350503D01*
X202403466Y-106350503D01*
X202403467Y-106350502D01*
X202606420Y-106310133D01*
X202797598Y-106230944D01*
X202969655Y-106115980D01*
X203073817Y-106011817D01*
X203135138Y-105978334D01*
X203161497Y-105975500D01*
X203895162Y-105975500D01*
X203895163Y-105975499D01*
X204059476Y-105942816D01*
X204110061Y-105921863D01*
X204214257Y-105878704D01*
X204216184Y-105877416D01*
X204223797Y-105874228D01*
X204252930Y-105870980D01*
X204281623Y-105865001D01*
X204287248Y-105867155D01*
X204293237Y-105866488D01*
X204319500Y-105879506D01*
X204346872Y-105889989D01*
X204353407Y-105896314D01*
X204355838Y-105897519D01*
X204357470Y-105900246D01*
X204367799Y-105910242D01*
X204388890Y-105936109D01*
X204481742Y-106011819D01*
X204546593Y-106064698D01*
X204726951Y-106158909D01*
X204922582Y-106214886D01*
X205041963Y-106225500D01*
X207358036Y-106225499D01*
X207464522Y-106216032D01*
X207533039Y-106229703D01*
X207583290Y-106278248D01*
X207599500Y-106339545D01*
X207599500Y-107995572D01*
X207599184Y-108004418D01*
X207599184Y-108004419D01*
X207583851Y-108218788D01*
X207581333Y-108236299D01*
X207536595Y-108441960D01*
X207531611Y-108458936D01*
X207458053Y-108656150D01*
X207450703Y-108672242D01*
X207349836Y-108856968D01*
X207340271Y-108871853D01*
X207214133Y-109040353D01*
X207202547Y-109053723D01*
X207053723Y-109202547D01*
X207040353Y-109214133D01*
X206871853Y-109340271D01*
X206856968Y-109349836D01*
X206672242Y-109450703D01*
X206656150Y-109458053D01*
X206458936Y-109531611D01*
X206441960Y-109536595D01*
X206236299Y-109581333D01*
X206218788Y-109583851D01*
X206023369Y-109597828D01*
X206004417Y-109599184D01*
X205995572Y-109599500D01*
X189952650Y-109599500D01*
X189885611Y-109579815D01*
X189839856Y-109527011D01*
X189829912Y-109457853D01*
X189858937Y-109394297D01*
X189864969Y-109387819D01*
X190152288Y-109100500D01*
X190415969Y-108836817D01*
X190477292Y-108803333D01*
X190503650Y-108800499D01*
X191050002Y-108800499D01*
X191050008Y-108800499D01*
X191152797Y-108789999D01*
X191305685Y-108739337D01*
X191375513Y-108736935D01*
X191383007Y-108739112D01*
X191391792Y-108741966D01*
X191477174Y-108769709D01*
X191539119Y-108779520D01*
X191671578Y-108800500D01*
X191671583Y-108800500D01*
X191868422Y-108800500D01*
X192062826Y-108769709D01*
X192089337Y-108761095D01*
X192250025Y-108708884D01*
X192425405Y-108619524D01*
X192584646Y-108503828D01*
X192723828Y-108364646D01*
X192839524Y-108205405D01*
X192928884Y-108030025D01*
X192989709Y-107842826D01*
X192995475Y-107806420D01*
X193020500Y-107648422D01*
X193020500Y-107451577D01*
X192989709Y-107257173D01*
X192928882Y-107069970D01*
X192851356Y-106917817D01*
X192839524Y-106894595D01*
X192723828Y-106735354D01*
X192600655Y-106612181D01*
X192567170Y-106550858D01*
X192572154Y-106481166D01*
X192614026Y-106425233D01*
X192679490Y-106400816D01*
X192688336Y-106400500D01*
X193898543Y-106400500D01*
X193925094Y-106395218D01*
X193998157Y-106380685D01*
X194091836Y-106362051D01*
X194146585Y-106339373D01*
X194273914Y-106286632D01*
X194273920Y-106286628D01*
X194281609Y-106281491D01*
X194348286Y-106260613D01*
X194415667Y-106279097D01*
X194462357Y-106331076D01*
X194474500Y-106384593D01*
X194474500Y-106504471D01*
X194509086Y-106811437D01*
X194509089Y-106811455D01*
X194577831Y-107112635D01*
X194577835Y-107112647D01*
X194679862Y-107404222D01*
X194679868Y-107404236D01*
X194813903Y-107682562D01*
X194813905Y-107682565D01*
X194978265Y-107944143D01*
X195046754Y-108030025D01*
X195158107Y-108169658D01*
X195170880Y-108185674D01*
X195389326Y-108404120D01*
X195630857Y-108596735D01*
X195892435Y-108761095D01*
X196170771Y-108895135D01*
X196170777Y-108895137D01*
X196462352Y-108997164D01*
X196462364Y-108997168D01*
X196763548Y-109065911D01*
X196763554Y-109065911D01*
X196763562Y-109065913D01*
X196968206Y-109088970D01*
X197070529Y-109100499D01*
X197070532Y-109100500D01*
X197070535Y-109100500D01*
X197379468Y-109100500D01*
X197379469Y-109100499D01*
X197536356Y-109082822D01*
X197686437Y-109065913D01*
X197686442Y-109065912D01*
X197686452Y-109065911D01*
X197987636Y-108997168D01*
X198279229Y-108895135D01*
X198557565Y-108761095D01*
X198819143Y-108596735D01*
X199060674Y-108404120D01*
X199279120Y-108185674D01*
X199471735Y-107944143D01*
X199636095Y-107682565D01*
X199770135Y-107404229D01*
X199872168Y-107112636D01*
X199940911Y-106811452D01*
X199945162Y-106773729D01*
X199970273Y-106550858D01*
X199975500Y-106504465D01*
X199975500Y-106195535D01*
X199954800Y-106011819D01*
X199940913Y-105888562D01*
X199940910Y-105888544D01*
X199937642Y-105874228D01*
X199872168Y-105587364D01*
X199770135Y-105295771D01*
X199636095Y-105017435D01*
X199471735Y-104755857D01*
X199279120Y-104514326D01*
X199101975Y-104337181D01*
X199068490Y-104275858D01*
X199073474Y-104206166D01*
X199115346Y-104150233D01*
X199180810Y-104125816D01*
X199189656Y-104125500D01*
X201152318Y-104125500D01*
X201172530Y-104131435D01*
G37*
%TD.AperFunction*%
%TA.AperFunction,Conductor*%
G36*
X157703039Y-102345185D02*
G01*
X157748794Y-102397989D01*
X157760000Y-102449500D01*
X157760000Y-103550000D01*
X159760000Y-103550000D01*
X159760000Y-102449500D01*
X159762550Y-102440814D01*
X159761262Y-102431853D01*
X159772240Y-102407812D01*
X159779685Y-102382461D01*
X159786525Y-102376533D01*
X159790287Y-102368297D01*
X159812521Y-102354007D01*
X159832489Y-102336706D01*
X159843003Y-102334418D01*
X159849065Y-102330523D01*
X159884000Y-102325500D01*
X159925500Y-102325500D01*
X159992539Y-102345185D01*
X160038294Y-102397989D01*
X160049500Y-102449500D01*
X160049501Y-105049765D01*
X160029816Y-105116804D01*
X159977013Y-105162559D01*
X159925501Y-105173765D01*
X159884000Y-105173765D01*
X159816961Y-105154080D01*
X159771206Y-105101276D01*
X159760000Y-105049765D01*
X159760000Y-104050000D01*
X157760000Y-104050000D01*
X157760000Y-104687137D01*
X157740315Y-104754176D01*
X157687511Y-104799931D01*
X157618353Y-104809875D01*
X157554797Y-104780850D01*
X157548319Y-104774818D01*
X155310682Y-102537181D01*
X155277197Y-102475858D01*
X155282181Y-102406166D01*
X155324053Y-102350233D01*
X155389517Y-102325816D01*
X155398363Y-102325500D01*
X157636000Y-102325500D01*
X157703039Y-102345185D01*
G37*
%TD.AperFunction*%
%TA.AperFunction,Conductor*%
G36*
X167934185Y-102328050D02*
G01*
X167943147Y-102326762D01*
X167967187Y-102337740D01*
X167992539Y-102345185D01*
X167998466Y-102352025D01*
X168006703Y-102355787D01*
X168020992Y-102378021D01*
X168038294Y-102397989D01*
X168040581Y-102408503D01*
X168044477Y-102414565D01*
X168049500Y-102449500D01*
X168049500Y-102563199D01*
X168029815Y-102630238D01*
X167977011Y-102675993D01*
X167972953Y-102677760D01*
X167802405Y-102748403D01*
X167786971Y-102758716D01*
X167737677Y-102776353D01*
X167737937Y-102777657D01*
X167557995Y-102813449D01*
X167557987Y-102813451D01*
X167503959Y-102835830D01*
X167503949Y-102835835D01*
X167498846Y-102837949D01*
X167394107Y-102881333D01*
X167317101Y-102932787D01*
X167311583Y-102936473D01*
X167311581Y-102936475D01*
X167246615Y-102979883D01*
X165810630Y-104415868D01*
X165749307Y-104449353D01*
X165679615Y-104444369D01*
X165675539Y-104442765D01*
X165606420Y-104414135D01*
X165606416Y-104414134D01*
X165606412Y-104414133D01*
X165403469Y-104373765D01*
X165403465Y-104373765D01*
X165214499Y-104373765D01*
X165147460Y-104354080D01*
X165101705Y-104301276D01*
X165090499Y-104249765D01*
X165090499Y-102449500D01*
X165110184Y-102382461D01*
X165162988Y-102336706D01*
X165214499Y-102325500D01*
X167925500Y-102325500D01*
X167934185Y-102328050D01*
G37*
%TD.AperFunction*%
%TA.AperFunction,Conductor*%
G36*
X194917363Y-102329916D02*
G01*
X194933034Y-102329363D01*
X194950204Y-102339560D01*
X194969361Y-102345185D01*
X194979627Y-102357032D01*
X194993109Y-102365039D01*
X195013227Y-102394038D01*
X195016413Y-102400409D01*
X195037774Y-102459103D01*
X195097536Y-102562627D01*
X195099202Y-102565957D01*
X195104761Y-102596836D01*
X195112156Y-102627326D01*
X195110901Y-102630948D01*
X195111581Y-102634721D01*
X195099566Y-102663696D01*
X195089301Y-102693352D01*
X195086286Y-102695722D01*
X195084819Y-102699262D01*
X195075978Y-102709100D01*
X193421899Y-104363181D01*
X193360576Y-104396666D01*
X193334218Y-104399500D01*
X193329651Y-104399500D01*
X193262612Y-104379815D01*
X193216857Y-104327011D01*
X193206913Y-104257853D01*
X193215090Y-104228048D01*
X193271569Y-104091693D01*
X193271572Y-104091681D01*
X193309999Y-103898495D01*
X193310000Y-103898492D01*
X193310000Y-103701508D01*
X193309999Y-103701504D01*
X193271572Y-103508318D01*
X193271569Y-103508306D01*
X193196192Y-103326328D01*
X193172572Y-103290979D01*
X192635000Y-103828551D01*
X192635000Y-103757213D01*
X192612851Y-103674555D01*
X192570064Y-103600446D01*
X192509554Y-103539936D01*
X192435445Y-103497149D01*
X192352787Y-103475000D01*
X192288246Y-103475000D01*
X192302957Y-103453487D01*
X192819019Y-102937425D01*
X192783675Y-102913809D01*
X192783673Y-102913808D01*
X192601693Y-102838430D01*
X192601681Y-102838427D01*
X192408495Y-102800000D01*
X192211504Y-102800000D01*
X192017398Y-102838610D01*
X191947806Y-102832383D01*
X191892629Y-102789519D01*
X191878649Y-102764452D01*
X191838013Y-102666347D01*
X191838011Y-102666344D01*
X191838009Y-102666340D01*
X191739152Y-102518391D01*
X191718274Y-102451714D01*
X191736758Y-102384333D01*
X191788737Y-102337643D01*
X191842254Y-102325500D01*
X192171536Y-102325500D01*
X194902322Y-102325500D01*
X194917363Y-102329916D01*
G37*
%TD.AperFunction*%
%TA.AperFunction,Conductor*%
G36*
X155649784Y-90420185D02*
G01*
X155670426Y-90436819D01*
X156454087Y-91220480D01*
X156545412Y-91273207D01*
X156647273Y-91300500D01*
X156647275Y-91300500D01*
X162352725Y-91300500D01*
X162352727Y-91300500D01*
X162454588Y-91273207D01*
X162545913Y-91220480D01*
X163329574Y-90436819D01*
X163390897Y-90403334D01*
X163417255Y-90400500D01*
X181410454Y-90400500D01*
X181477493Y-90420185D01*
X181523248Y-90472989D01*
X181533967Y-90535481D01*
X181524500Y-90641966D01*
X181524500Y-90641968D01*
X181524501Y-92675500D01*
X181521950Y-92684185D01*
X181523239Y-92693147D01*
X181512260Y-92717187D01*
X181504816Y-92742539D01*
X181497975Y-92748466D01*
X181494214Y-92756703D01*
X181471981Y-92770990D01*
X181452013Y-92788294D01*
X181441497Y-92790581D01*
X181435436Y-92794477D01*
X181400501Y-92799500D01*
X181252854Y-92799500D01*
X181185815Y-92779815D01*
X181140060Y-92727011D01*
X181131237Y-92699691D01*
X181110567Y-92595777D01*
X181110130Y-92593580D01*
X181030941Y-92402402D01*
X180915977Y-92230345D01*
X180915975Y-92230342D01*
X180769657Y-92084024D01*
X180637291Y-91995581D01*
X180597598Y-91969059D01*
X180545002Y-91947273D01*
X180406420Y-91889870D01*
X180406412Y-91889868D01*
X180203469Y-91849500D01*
X180203465Y-91849500D01*
X179996535Y-91849500D01*
X179996530Y-91849500D01*
X179793587Y-91889868D01*
X179793579Y-91889870D01*
X179602403Y-91969058D01*
X179430342Y-92084024D01*
X179284024Y-92230342D01*
X179169058Y-92402403D01*
X179089869Y-92593581D01*
X179089868Y-92593585D01*
X179086518Y-92610428D01*
X179054132Y-92672339D01*
X179052582Y-92673917D01*
X178713319Y-93013181D01*
X178651996Y-93046666D01*
X178625638Y-93049500D01*
X178596530Y-93049500D01*
X178393587Y-93089868D01*
X178393579Y-93089870D01*
X178272409Y-93140061D01*
X178224956Y-93149500D01*
X174706382Y-93149500D01*
X174657821Y-93159158D01*
X174588230Y-93152929D01*
X174533053Y-93110064D01*
X174512742Y-93065132D01*
X174472168Y-92887364D01*
X174472164Y-92887352D01*
X174370137Y-92595777D01*
X174370135Y-92595771D01*
X174236095Y-92317435D01*
X174071735Y-92055857D01*
X173879120Y-91814326D01*
X173660674Y-91595880D01*
X173419143Y-91403265D01*
X173157565Y-91238905D01*
X173157562Y-91238903D01*
X172879236Y-91104868D01*
X172879222Y-91104862D01*
X172587647Y-91002835D01*
X172587635Y-91002831D01*
X172286455Y-90934089D01*
X172286437Y-90934086D01*
X171979471Y-90899500D01*
X171979465Y-90899500D01*
X171670535Y-90899500D01*
X171670528Y-90899500D01*
X171363562Y-90934086D01*
X171363544Y-90934089D01*
X171062364Y-91002831D01*
X171062352Y-91002835D01*
X170770777Y-91104862D01*
X170770763Y-91104868D01*
X170492437Y-91238903D01*
X170230858Y-91403264D01*
X169989326Y-91595879D01*
X169770879Y-91814326D01*
X169578264Y-92055858D01*
X169413903Y-92317437D01*
X169279868Y-92595763D01*
X169279862Y-92595777D01*
X169177835Y-92887352D01*
X169177831Y-92887364D01*
X169109089Y-93188544D01*
X169109086Y-93188562D01*
X169074500Y-93495528D01*
X169074500Y-93804471D01*
X169109086Y-94111437D01*
X169109089Y-94111455D01*
X169177831Y-94412635D01*
X169177835Y-94412647D01*
X169279862Y-94704222D01*
X169279868Y-94704236D01*
X169408671Y-94971698D01*
X169420023Y-95040640D01*
X169392301Y-95104774D01*
X169334306Y-95143740D01*
X169296951Y-95149500D01*
X168445072Y-95149500D01*
X168378033Y-95129815D01*
X168357391Y-95113181D01*
X166408012Y-93163802D01*
X166381132Y-93123574D01*
X166375536Y-93110064D01*
X166330941Y-93002402D01*
X166215977Y-92830345D01*
X166215975Y-92830342D01*
X166069657Y-92684024D01*
X165983626Y-92626541D01*
X165897598Y-92569059D01*
X165706420Y-92489870D01*
X165706412Y-92489868D01*
X165503469Y-92449500D01*
X165503465Y-92449500D01*
X165296535Y-92449500D01*
X165296530Y-92449500D01*
X165093587Y-92489868D01*
X165093579Y-92489870D01*
X164902403Y-92569058D01*
X164730342Y-92684024D01*
X164584024Y-92830342D01*
X164469058Y-93002403D01*
X164389870Y-93193579D01*
X164389868Y-93193587D01*
X164349500Y-93396530D01*
X164349500Y-93603469D01*
X164389868Y-93806412D01*
X164389870Y-93806420D01*
X164419539Y-93878047D01*
X164427008Y-93947517D01*
X164395733Y-94009996D01*
X164335644Y-94045648D01*
X164304978Y-94049500D01*
X163289998Y-94049500D01*
X163289980Y-94049501D01*
X163187203Y-94060000D01*
X163187200Y-94060001D01*
X163020668Y-94115185D01*
X163020663Y-94115187D01*
X162871342Y-94207289D01*
X162747289Y-94331342D01*
X162747288Y-94331344D01*
X162678535Y-94442812D01*
X162675539Y-94447669D01*
X162623591Y-94494393D01*
X162554628Y-94505616D01*
X162490546Y-94477772D01*
X162464461Y-94447669D01*
X162392712Y-94331344D01*
X162268656Y-94207288D01*
X162119334Y-94115186D01*
X161952797Y-94060001D01*
X161952795Y-94060000D01*
X161850010Y-94049500D01*
X160749998Y-94049500D01*
X160749980Y-94049501D01*
X160647203Y-94060000D01*
X160647200Y-94060001D01*
X160480668Y-94115185D01*
X160480663Y-94115187D01*
X160331342Y-94207289D01*
X160207289Y-94331342D01*
X160115187Y-94480663D01*
X160115186Y-94480666D01*
X160060001Y-94647203D01*
X160060001Y-94647204D01*
X160060000Y-94647204D01*
X160049500Y-94749983D01*
X160049500Y-94749991D01*
X160049500Y-96208910D01*
X160049501Y-97550500D01*
X160046950Y-97559185D01*
X160048239Y-97568147D01*
X160037260Y-97592187D01*
X160029816Y-97617539D01*
X160022975Y-97623466D01*
X160019214Y-97631703D01*
X159996981Y-97645990D01*
X159977013Y-97663294D01*
X159966497Y-97665581D01*
X159960436Y-97669477D01*
X159925501Y-97674500D01*
X159884000Y-97674500D01*
X159816961Y-97654815D01*
X159771206Y-97602011D01*
X159760000Y-97550500D01*
X159760000Y-96550000D01*
X157760000Y-96550000D01*
X157760000Y-97550500D01*
X157740315Y-97617539D01*
X157687511Y-97663294D01*
X157636000Y-97674500D01*
X149078652Y-97674500D01*
X149011613Y-97654815D01*
X148990971Y-97638181D01*
X148817166Y-97464375D01*
X148817162Y-97464372D01*
X148677867Y-97371297D01*
X148677864Y-97371296D01*
X148566558Y-97325191D01*
X148566549Y-97325188D01*
X148559182Y-97322137D01*
X148523083Y-97307184D01*
X148435844Y-97289831D01*
X148431777Y-97288731D01*
X148405430Y-97272585D01*
X148378054Y-97258265D01*
X148375905Y-97254491D01*
X148372203Y-97252223D01*
X148358769Y-97224399D01*
X148343480Y-97197549D01*
X148343596Y-97192971D01*
X148341825Y-97189303D01*
X148344179Y-97170001D01*
X148345083Y-97134431D01*
X148347099Y-97127490D01*
X148347100Y-97127488D01*
X148347295Y-97125001D01*
X148347295Y-97125000D01*
X148023347Y-97125000D01*
X147991254Y-97120775D01*
X147841643Y-97080687D01*
X147763026Y-97074500D01*
X146236989Y-97074500D01*
X146236970Y-97074501D01*
X146158356Y-97080687D01*
X146008746Y-97120775D01*
X145976653Y-97125000D01*
X145652705Y-97125000D01*
X145652704Y-97125001D01*
X145652899Y-97127488D01*
X145680935Y-97223988D01*
X145680735Y-97293857D01*
X145658224Y-97336618D01*
X145540614Y-97481853D01*
X145454680Y-97650512D01*
X145405687Y-97833356D01*
X145405687Y-97833357D01*
X145399500Y-97911973D01*
X145399500Y-98338010D01*
X145399501Y-98338029D01*
X145405687Y-98416643D01*
X145405688Y-98416645D01*
X145454680Y-98599488D01*
X145499676Y-98687798D01*
X145502686Y-98693706D01*
X145515582Y-98762375D01*
X145502686Y-98806294D01*
X145454680Y-98900512D01*
X145405687Y-99083356D01*
X145405687Y-99083357D01*
X145399500Y-99161973D01*
X145399500Y-99588010D01*
X145399501Y-99588029D01*
X145405687Y-99666643D01*
X145405688Y-99666645D01*
X145454680Y-99849488D01*
X145499676Y-99937798D01*
X145502686Y-99943706D01*
X145515582Y-100012375D01*
X145502686Y-100056294D01*
X145454680Y-100150512D01*
X145405687Y-100333356D01*
X145405687Y-100333357D01*
X145399500Y-100411973D01*
X145399500Y-100838010D01*
X145399501Y-100838029D01*
X145405687Y-100916643D01*
X145425918Y-100992147D01*
X145454680Y-101099488D01*
X145493670Y-101176011D01*
X145502686Y-101193706D01*
X145515582Y-101262375D01*
X145502686Y-101306294D01*
X145454680Y-101400512D01*
X145405687Y-101583356D01*
X145405687Y-101583357D01*
X145399500Y-101661973D01*
X145399500Y-102088010D01*
X145399501Y-102088029D01*
X145405687Y-102166643D01*
X145411357Y-102187803D01*
X145454680Y-102349488D01*
X145487838Y-102414565D01*
X145502686Y-102443706D01*
X145515582Y-102512375D01*
X145502686Y-102556294D01*
X145454680Y-102650512D01*
X145405687Y-102833356D01*
X145405687Y-102833357D01*
X145399500Y-102911973D01*
X145399500Y-103338010D01*
X145399501Y-103338029D01*
X145405687Y-103416643D01*
X145429945Y-103507174D01*
X145454680Y-103599488D01*
X145477297Y-103643877D01*
X145490193Y-103712544D01*
X145463917Y-103777285D01*
X145406810Y-103817542D01*
X145337005Y-103820534D01*
X145309402Y-103810080D01*
X145273046Y-103791089D01*
X145142738Y-103753804D01*
X145077418Y-103735114D01*
X145077415Y-103735113D01*
X145077413Y-103735113D01*
X145010203Y-103729138D01*
X144958037Y-103724500D01*
X144958032Y-103724500D01*
X142641971Y-103724500D01*
X142641963Y-103724501D01*
X142535479Y-103733967D01*
X142466960Y-103720296D01*
X142416710Y-103671750D01*
X142400500Y-103610454D01*
X142400500Y-96624998D01*
X145652704Y-96624998D01*
X145652705Y-96625000D01*
X146750000Y-96625000D01*
X147250000Y-96625000D01*
X148347295Y-96625000D01*
X148347295Y-96624998D01*
X148347100Y-96622513D01*
X148301281Y-96464801D01*
X148217685Y-96323447D01*
X148217678Y-96323438D01*
X148101561Y-96207321D01*
X148101552Y-96207314D01*
X147960196Y-96123717D01*
X147960193Y-96123716D01*
X147802495Y-96077900D01*
X147802489Y-96077899D01*
X147765649Y-96075000D01*
X147250000Y-96075000D01*
X147250000Y-96625000D01*
X146750000Y-96625000D01*
X146750000Y-96075000D01*
X146234350Y-96075000D01*
X146197510Y-96077899D01*
X146197504Y-96077900D01*
X146039806Y-96123716D01*
X146039803Y-96123717D01*
X145898447Y-96207314D01*
X145898438Y-96207321D01*
X145782321Y-96323438D01*
X145782314Y-96323447D01*
X145698718Y-96464801D01*
X145652899Y-96622513D01*
X145652704Y-96624998D01*
X142400500Y-96624998D01*
X142400500Y-96389545D01*
X142420185Y-96322506D01*
X142472989Y-96276751D01*
X142535478Y-96266032D01*
X142641963Y-96275500D01*
X144958036Y-96275499D01*
X145077418Y-96264886D01*
X145273049Y-96208909D01*
X145453407Y-96114698D01*
X145611109Y-95986109D01*
X145739698Y-95828407D01*
X145833909Y-95648049D01*
X145889886Y-95452418D01*
X145900500Y-95333037D01*
X145900499Y-94716964D01*
X145889886Y-94597582D01*
X145833909Y-94401951D01*
X145739698Y-94221593D01*
X145687684Y-94157803D01*
X145611109Y-94063890D01*
X145488194Y-93963667D01*
X145453407Y-93935302D01*
X145273049Y-93841091D01*
X145273048Y-93841090D01*
X145273045Y-93841089D01*
X145151851Y-93806412D01*
X145077418Y-93785114D01*
X145077415Y-93785113D01*
X145077413Y-93785113D01*
X145011102Y-93779217D01*
X144958037Y-93774500D01*
X144958032Y-93774500D01*
X142641971Y-93774500D01*
X142641963Y-93774501D01*
X142535479Y-93783967D01*
X142521232Y-93781124D01*
X142506853Y-93783192D01*
X142487656Y-93774425D01*
X142466960Y-93770296D01*
X142456511Y-93760201D01*
X142443297Y-93754167D01*
X142431886Y-93736412D01*
X142416710Y-93721750D01*
X142412686Y-93706535D01*
X142405523Y-93695389D01*
X142400500Y-93660454D01*
X142400500Y-93495528D01*
X150024500Y-93495528D01*
X150024500Y-93804471D01*
X150059086Y-94111437D01*
X150059089Y-94111455D01*
X150127831Y-94412635D01*
X150127835Y-94412647D01*
X150229862Y-94704222D01*
X150229868Y-94704236D01*
X150363903Y-94982562D01*
X150363905Y-94982565D01*
X150528265Y-95244143D01*
X150638030Y-95381784D01*
X150694357Y-95452416D01*
X150720880Y-95485674D01*
X150939326Y-95704120D01*
X151180857Y-95896735D01*
X151442435Y-96061095D01*
X151720771Y-96195135D01*
X151720777Y-96195137D01*
X152012352Y-96297164D01*
X152012364Y-96297168D01*
X152313548Y-96365911D01*
X152313554Y-96365911D01*
X152313562Y-96365913D01*
X152518206Y-96388970D01*
X152620529Y-96400499D01*
X152620532Y-96400500D01*
X152620535Y-96400500D01*
X152929468Y-96400500D01*
X152929469Y-96400499D01*
X153086356Y-96382822D01*
X153236437Y-96365913D01*
X153236442Y-96365912D01*
X153236452Y-96365911D01*
X153537636Y-96297168D01*
X153829229Y-96195135D01*
X154107565Y-96061095D01*
X154369143Y-95896735D01*
X154610674Y-95704120D01*
X154829120Y-95485674D01*
X155021735Y-95244143D01*
X155186095Y-94982565D01*
X155297055Y-94752155D01*
X157760000Y-94752155D01*
X157760000Y-96050000D01*
X158510000Y-96050000D01*
X159010000Y-96050000D01*
X159760000Y-96050000D01*
X159760000Y-94752172D01*
X159759999Y-94752155D01*
X159753598Y-94692627D01*
X159753596Y-94692620D01*
X159703354Y-94557913D01*
X159703350Y-94557906D01*
X159617190Y-94442812D01*
X159617187Y-94442809D01*
X159502093Y-94356649D01*
X159502086Y-94356645D01*
X159367379Y-94306403D01*
X159367372Y-94306401D01*
X159307844Y-94300000D01*
X159010000Y-94300000D01*
X159010000Y-96050000D01*
X158510000Y-96050000D01*
X158510000Y-94300000D01*
X158212155Y-94300000D01*
X158152627Y-94306401D01*
X158152620Y-94306403D01*
X158017913Y-94356645D01*
X158017906Y-94356649D01*
X157902812Y-94442809D01*
X157902809Y-94442812D01*
X157816649Y-94557906D01*
X157816645Y-94557913D01*
X157766403Y-94692620D01*
X157766401Y-94692627D01*
X157760000Y-94752155D01*
X155297055Y-94752155D01*
X155320135Y-94704229D01*
X155422168Y-94412636D01*
X155490911Y-94111452D01*
X155506228Y-93975514D01*
X155514679Y-93900500D01*
X155525500Y-93804465D01*
X155525500Y-93495535D01*
X155500432Y-93273046D01*
X155490913Y-93188562D01*
X155490910Y-93188544D01*
X155422168Y-92887364D01*
X155422164Y-92887352D01*
X155320137Y-92595777D01*
X155320135Y-92595771D01*
X155186095Y-92317435D01*
X155021735Y-92055857D01*
X154829120Y-91814326D01*
X154610674Y-91595880D01*
X154369143Y-91403265D01*
X154107565Y-91238905D01*
X154107562Y-91238903D01*
X153829236Y-91104868D01*
X153829222Y-91104862D01*
X153537647Y-91002835D01*
X153537635Y-91002831D01*
X153236455Y-90934089D01*
X153236437Y-90934086D01*
X152929471Y-90899500D01*
X152929465Y-90899500D01*
X152620535Y-90899500D01*
X152620528Y-90899500D01*
X152313562Y-90934086D01*
X152313544Y-90934089D01*
X152012364Y-91002831D01*
X152012352Y-91002835D01*
X151720777Y-91104862D01*
X151720763Y-91104868D01*
X151442437Y-91238903D01*
X151180858Y-91403264D01*
X150939326Y-91595879D01*
X150720879Y-91814326D01*
X150528264Y-92055858D01*
X150363903Y-92317437D01*
X150229868Y-92595763D01*
X150229862Y-92595777D01*
X150127835Y-92887352D01*
X150127831Y-92887364D01*
X150059089Y-93188544D01*
X150059086Y-93188562D01*
X150024500Y-93495528D01*
X142400500Y-93495528D01*
X142400500Y-92004427D01*
X142400816Y-91995581D01*
X142416148Y-91781212D01*
X142418666Y-91763700D01*
X142463407Y-91558026D01*
X142468384Y-91541075D01*
X142541948Y-91343844D01*
X142549296Y-91327757D01*
X142579083Y-91273206D01*
X142650166Y-91143025D01*
X142659720Y-91128157D01*
X142785873Y-90959637D01*
X142797445Y-90946283D01*
X142946283Y-90797445D01*
X142959637Y-90785873D01*
X143128157Y-90659720D01*
X143143025Y-90650166D01*
X143327757Y-90549295D01*
X143343844Y-90541948D01*
X143541075Y-90468384D01*
X143558026Y-90463407D01*
X143763705Y-90418665D01*
X143781206Y-90416148D01*
X143995582Y-90400816D01*
X144004428Y-90400500D01*
X144057583Y-90400500D01*
X155582745Y-90400500D01*
X155649784Y-90420185D01*
G37*
%TD.AperFunction*%
%TA.AperFunction,Conductor*%
G36*
X171619080Y-100870185D02*
G01*
X171664835Y-100922989D01*
X171674779Y-100992147D01*
X171645754Y-101055703D01*
X171639722Y-101062182D01*
X171446709Y-101255193D01*
X171385385Y-101288677D01*
X171320711Y-101285442D01*
X171216866Y-101251702D01*
X171216863Y-101251701D01*
X171026517Y-101231694D01*
X171026516Y-101231694D01*
X170995940Y-101234907D01*
X170836170Y-101251701D01*
X170836167Y-101251701D01*
X170830467Y-101252301D01*
X170793317Y-101250598D01*
X170782768Y-101248500D01*
X170782767Y-101248500D01*
X169853651Y-101248500D01*
X169832405Y-101242261D01*
X169810317Y-101240682D01*
X169799533Y-101232609D01*
X169786612Y-101228815D01*
X169772112Y-101212081D01*
X169754384Y-101198810D01*
X169749676Y-101186189D01*
X169740857Y-101176011D01*
X169737705Y-101154093D01*
X169729967Y-101133346D01*
X169732829Y-101120185D01*
X169730913Y-101106853D01*
X169740112Y-101086709D01*
X169744819Y-101065073D01*
X169758087Y-101047347D01*
X169759938Y-101043297D01*
X169765970Y-101036819D01*
X169915970Y-100886819D01*
X169977293Y-100853334D01*
X170003651Y-100850500D01*
X171552041Y-100850500D01*
X171619080Y-100870185D01*
G37*
%TD.AperFunction*%
%TA.AperFunction,Conductor*%
G36*
X206004418Y-90400816D02*
G01*
X206218791Y-90416148D01*
X206236296Y-90418665D01*
X206441969Y-90463406D01*
X206458928Y-90468385D01*
X206638817Y-90535481D01*
X206656150Y-90541946D01*
X206672242Y-90549296D01*
X206856968Y-90650163D01*
X206871848Y-90659724D01*
X207040353Y-90785866D01*
X207053723Y-90797452D01*
X207202547Y-90946276D01*
X207214133Y-90959646D01*
X207340271Y-91128146D01*
X207349836Y-91143031D01*
X207450703Y-91327757D01*
X207458053Y-91343849D01*
X207531611Y-91541063D01*
X207536595Y-91558039D01*
X207581333Y-91763700D01*
X207583851Y-91781211D01*
X207599184Y-91995580D01*
X207599500Y-92004427D01*
X207599500Y-93660454D01*
X207579815Y-93727493D01*
X207527011Y-93773248D01*
X207464519Y-93783967D01*
X207432540Y-93781124D01*
X207358037Y-93774500D01*
X207358032Y-93774500D01*
X205041971Y-93774500D01*
X205041965Y-93774500D01*
X205041964Y-93774501D01*
X205030316Y-93775536D01*
X204922584Y-93785113D01*
X204726954Y-93841089D01*
X204656202Y-93878047D01*
X204546593Y-93935302D01*
X204546591Y-93935303D01*
X204546590Y-93935304D01*
X204388890Y-94063890D01*
X204260304Y-94221590D01*
X204166089Y-94401954D01*
X204110114Y-94597583D01*
X204110113Y-94597586D01*
X204108938Y-94610804D01*
X204100633Y-94704227D01*
X204099500Y-94716966D01*
X204099500Y-95333028D01*
X204099501Y-95333034D01*
X204110113Y-95452415D01*
X204166089Y-95648045D01*
X204166090Y-95648048D01*
X204166091Y-95648049D01*
X204260302Y-95828407D01*
X204260304Y-95828409D01*
X204388890Y-95986109D01*
X204466634Y-96049500D01*
X204546593Y-96114698D01*
X204726951Y-96208909D01*
X204922582Y-96264886D01*
X205041963Y-96275500D01*
X207358036Y-96275499D01*
X207464522Y-96266032D01*
X207533039Y-96279703D01*
X207583290Y-96328248D01*
X207599500Y-96389545D01*
X207599500Y-98879150D01*
X207579815Y-98946189D01*
X207527011Y-98991944D01*
X207457853Y-99001888D01*
X207394297Y-98972863D01*
X207387819Y-98966831D01*
X206285363Y-97864375D01*
X206285359Y-97864372D01*
X206146064Y-97771297D01*
X206146061Y-97771296D01*
X206027380Y-97722137D01*
X206027378Y-97722136D01*
X205991284Y-97707185D01*
X205991272Y-97707182D01*
X205826969Y-97674500D01*
X205826965Y-97674500D01*
X205078652Y-97674500D01*
X205011613Y-97654815D01*
X204990971Y-97638181D01*
X204817166Y-97464375D01*
X204817162Y-97464372D01*
X204677867Y-97371297D01*
X204677864Y-97371296D01*
X204566558Y-97325191D01*
X204566549Y-97325188D01*
X204559182Y-97322137D01*
X204523083Y-97307184D01*
X204435844Y-97289831D01*
X204431777Y-97288731D01*
X204405430Y-97272585D01*
X204378054Y-97258265D01*
X204375905Y-97254491D01*
X204372203Y-97252223D01*
X204358769Y-97224399D01*
X204343480Y-97197549D01*
X204343596Y-97192971D01*
X204341825Y-97189303D01*
X204344179Y-97170001D01*
X204345083Y-97134431D01*
X204347099Y-97127490D01*
X204347100Y-97127488D01*
X204347295Y-97125001D01*
X204347295Y-97125000D01*
X204023347Y-97125000D01*
X203991254Y-97120775D01*
X203841643Y-97080687D01*
X203763026Y-97074500D01*
X202236989Y-97074500D01*
X202236970Y-97074501D01*
X202158356Y-97080687D01*
X202008746Y-97120775D01*
X201976653Y-97125000D01*
X201652705Y-97125000D01*
X201652704Y-97125001D01*
X201652899Y-97127488D01*
X201654919Y-97134439D01*
X201654719Y-97204309D01*
X201616776Y-97262978D01*
X201560034Y-97290650D01*
X201476922Y-97307182D01*
X201476916Y-97307184D01*
X201334412Y-97366212D01*
X201334411Y-97366212D01*
X201322140Y-97371294D01*
X201322138Y-97371295D01*
X201182836Y-97464373D01*
X201182833Y-97464376D01*
X201009030Y-97638181D01*
X200947707Y-97671666D01*
X200921349Y-97674500D01*
X188127650Y-97674500D01*
X188060611Y-97654815D01*
X188014856Y-97602011D01*
X188004912Y-97532853D01*
X188033937Y-97469297D01*
X188039969Y-97462819D01*
X188877791Y-96624998D01*
X201652704Y-96624998D01*
X201652705Y-96625000D01*
X202750000Y-96625000D01*
X203250000Y-96625000D01*
X204347295Y-96625000D01*
X204347295Y-96624998D01*
X204347100Y-96622513D01*
X204301281Y-96464801D01*
X204217685Y-96323447D01*
X204217678Y-96323438D01*
X204101561Y-96207321D01*
X204101552Y-96207314D01*
X203960196Y-96123717D01*
X203960193Y-96123716D01*
X203802495Y-96077900D01*
X203802489Y-96077899D01*
X203765649Y-96075000D01*
X203250000Y-96075000D01*
X203250000Y-96625000D01*
X202750000Y-96625000D01*
X202750000Y-96075000D01*
X202234350Y-96075000D01*
X202197510Y-96077899D01*
X202197504Y-96077900D01*
X202039806Y-96123716D01*
X202039803Y-96123717D01*
X201898447Y-96207314D01*
X201898438Y-96207321D01*
X201782321Y-96323438D01*
X201782314Y-96323447D01*
X201698718Y-96464801D01*
X201652899Y-96622513D01*
X201652704Y-96624998D01*
X188877791Y-96624998D01*
X188919174Y-96583615D01*
X188919175Y-96583613D01*
X189035627Y-96467162D01*
X189062363Y-96427147D01*
X189068736Y-96420184D01*
X189072975Y-96417619D01*
X189082176Y-96407534D01*
X189165257Y-96340257D01*
X189284383Y-96193149D01*
X189370320Y-96024488D01*
X189419312Y-95841645D01*
X189425500Y-95763021D01*
X189425499Y-94236980D01*
X189419312Y-94158355D01*
X189370320Y-93975512D01*
X189364283Y-93963664D01*
X189351388Y-93894998D01*
X189377664Y-93830257D01*
X189434771Y-93790000D01*
X189504576Y-93787008D01*
X189532181Y-93797464D01*
X189601950Y-93833909D01*
X189627044Y-93841089D01*
X189797582Y-93889886D01*
X189916963Y-93900500D01*
X190533036Y-93900499D01*
X190652418Y-93889886D01*
X190848049Y-93833909D01*
X191028407Y-93739698D01*
X191186109Y-93611109D01*
X191280353Y-93495528D01*
X194474500Y-93495528D01*
X194474500Y-93804471D01*
X194509086Y-94111437D01*
X194509089Y-94111455D01*
X194577831Y-94412635D01*
X194577835Y-94412647D01*
X194679862Y-94704222D01*
X194679868Y-94704236D01*
X194813903Y-94982562D01*
X194813905Y-94982565D01*
X194978265Y-95244143D01*
X195088030Y-95381784D01*
X195144357Y-95452416D01*
X195170880Y-95485674D01*
X195389326Y-95704120D01*
X195630857Y-95896735D01*
X195892435Y-96061095D01*
X196170771Y-96195135D01*
X196170777Y-96195137D01*
X196462352Y-96297164D01*
X196462364Y-96297168D01*
X196763548Y-96365911D01*
X196763554Y-96365911D01*
X196763562Y-96365913D01*
X196968206Y-96388970D01*
X197070529Y-96400499D01*
X197070532Y-96400500D01*
X197070535Y-96400500D01*
X197379468Y-96400500D01*
X197379469Y-96400499D01*
X197536356Y-96382822D01*
X197686437Y-96365913D01*
X197686442Y-96365912D01*
X197686452Y-96365911D01*
X197987636Y-96297168D01*
X198279229Y-96195135D01*
X198557565Y-96061095D01*
X198819143Y-95896735D01*
X199060674Y-95704120D01*
X199279120Y-95485674D01*
X199471735Y-95244143D01*
X199636095Y-94982565D01*
X199770135Y-94704229D01*
X199872168Y-94412636D01*
X199940911Y-94111452D01*
X199956228Y-93975514D01*
X199964679Y-93900500D01*
X199975500Y-93804465D01*
X199975500Y-93495535D01*
X199950432Y-93273046D01*
X199940913Y-93188562D01*
X199940910Y-93188544D01*
X199872168Y-92887364D01*
X199872164Y-92887352D01*
X199770137Y-92595777D01*
X199770135Y-92595771D01*
X199636095Y-92317435D01*
X199471735Y-92055857D01*
X199279120Y-91814326D01*
X199060674Y-91595880D01*
X198819143Y-91403265D01*
X198557565Y-91238905D01*
X198557562Y-91238903D01*
X198279236Y-91104868D01*
X198279222Y-91104862D01*
X197987647Y-91002835D01*
X197987635Y-91002831D01*
X197686455Y-90934089D01*
X197686437Y-90934086D01*
X197379471Y-90899500D01*
X197379465Y-90899500D01*
X197070535Y-90899500D01*
X197070528Y-90899500D01*
X196763562Y-90934086D01*
X196763544Y-90934089D01*
X196462364Y-91002831D01*
X196462352Y-91002835D01*
X196170777Y-91104862D01*
X196170763Y-91104868D01*
X195892437Y-91238903D01*
X195630858Y-91403264D01*
X195389326Y-91595879D01*
X195170879Y-91814326D01*
X194978264Y-92055858D01*
X194813903Y-92317437D01*
X194679868Y-92595763D01*
X194679862Y-92595777D01*
X194577835Y-92887352D01*
X194577831Y-92887364D01*
X194509089Y-93188544D01*
X194509086Y-93188562D01*
X194474500Y-93495528D01*
X191280353Y-93495528D01*
X191314698Y-93453407D01*
X191408909Y-93273049D01*
X191464886Y-93077418D01*
X191475500Y-92958037D01*
X191475499Y-90641964D01*
X191466883Y-90545044D01*
X191466033Y-90535479D01*
X191479704Y-90466960D01*
X191528250Y-90416710D01*
X191589546Y-90400500D01*
X205942417Y-90400500D01*
X205995572Y-90400500D01*
X206004418Y-90400816D01*
G37*
%TD.AperFunction*%
%TA.AperFunction,Conductor*%
G36*
X183768039Y-94620185D02*
G01*
X183813794Y-94672989D01*
X183825000Y-94724500D01*
X183825000Y-94750000D01*
X184501000Y-94750000D01*
X184568039Y-94769685D01*
X184613794Y-94822489D01*
X184625000Y-94874000D01*
X184625000Y-95126000D01*
X184605315Y-95193039D01*
X184552511Y-95238794D01*
X184501000Y-95250000D01*
X183825000Y-95250000D01*
X183825000Y-95765649D01*
X183827899Y-95802489D01*
X183827900Y-95802495D01*
X183853586Y-95890905D01*
X183853387Y-95960775D01*
X183815445Y-96019445D01*
X183751806Y-96048288D01*
X183734510Y-96049500D01*
X182241228Y-96049500D01*
X182076925Y-96082182D01*
X182076917Y-96082184D01*
X182039706Y-96097598D01*
X182039705Y-96097598D01*
X181922136Y-96146296D01*
X181922133Y-96146297D01*
X181782838Y-96239372D01*
X181782834Y-96239375D01*
X181162184Y-96860025D01*
X181100861Y-96893510D01*
X181098694Y-96893961D01*
X180993587Y-96914868D01*
X180993579Y-96914870D01*
X180802403Y-96994058D01*
X180630342Y-97109024D01*
X180484025Y-97255341D01*
X180480159Y-97260053D01*
X180478968Y-97259076D01*
X180431143Y-97299030D01*
X180361816Y-97307725D01*
X180298795Y-97277558D01*
X180293993Y-97273006D01*
X179635363Y-96614375D01*
X179635359Y-96614372D01*
X179496064Y-96521297D01*
X179496061Y-96521296D01*
X179386614Y-96475962D01*
X179386612Y-96475961D01*
X179341284Y-96457185D01*
X179341272Y-96457182D01*
X179176969Y-96424500D01*
X179176965Y-96424500D01*
X176262376Y-96424500D01*
X176262371Y-96424500D01*
X176098068Y-96457182D01*
X176098056Y-96457185D01*
X176052726Y-96475962D01*
X175943286Y-96521292D01*
X175943280Y-96521295D01*
X175943280Y-96521296D01*
X175803983Y-96614373D01*
X175803974Y-96614379D01*
X175392451Y-97025902D01*
X175378849Y-97037661D01*
X175376293Y-97039564D01*
X175277262Y-97105736D01*
X175247444Y-97135552D01*
X175240217Y-97140937D01*
X175234713Y-97142975D01*
X175221790Y-97152307D01*
X175198483Y-97164012D01*
X175118370Y-97229272D01*
X174362897Y-97984745D01*
X174301574Y-98018230D01*
X174231882Y-98013246D01*
X174187535Y-97984745D01*
X174067165Y-97864375D01*
X174067161Y-97864372D01*
X173927866Y-97771297D01*
X173927863Y-97771296D01*
X173809182Y-97722137D01*
X173809180Y-97722136D01*
X173773086Y-97707185D01*
X173773074Y-97707182D01*
X173608771Y-97674500D01*
X173608767Y-97674500D01*
X165214500Y-97674500D01*
X165147461Y-97654815D01*
X165101706Y-97602011D01*
X165090500Y-97550500D01*
X165090499Y-94834071D01*
X165110184Y-94767032D01*
X165162987Y-94721277D01*
X165232146Y-94711333D01*
X165295702Y-94740358D01*
X165302180Y-94746390D01*
X167261698Y-96705908D01*
X167394089Y-96838299D01*
X167394093Y-96838303D01*
X167549762Y-96942318D01*
X167549766Y-96942320D01*
X167549769Y-96942322D01*
X167722749Y-97013973D01*
X167754370Y-97020262D01*
X167814517Y-97032227D01*
X167814550Y-97032232D01*
X167814566Y-97032236D01*
X167875777Y-97044412D01*
X167906382Y-97050500D01*
X167906383Y-97050500D01*
X172893618Y-97050500D01*
X172902115Y-97048809D01*
X172985433Y-97032236D01*
X173077251Y-97013973D01*
X173150174Y-96983767D01*
X173250230Y-96942323D01*
X173405908Y-96838302D01*
X175157391Y-95086819D01*
X175184318Y-95072115D01*
X175210137Y-95055523D01*
X175216337Y-95054631D01*
X175218714Y-95053334D01*
X175245072Y-95050500D01*
X175400500Y-95050500D01*
X175467539Y-95070185D01*
X175513294Y-95122989D01*
X175524500Y-95174500D01*
X175524500Y-95229057D01*
X175552362Y-95333037D01*
X175565423Y-95381783D01*
X175565426Y-95381790D01*
X175644475Y-95518709D01*
X175644479Y-95518714D01*
X175644480Y-95518716D01*
X175756284Y-95630520D01*
X175756286Y-95630521D01*
X175756290Y-95630524D01*
X175786638Y-95648045D01*
X175893216Y-95709577D01*
X176045943Y-95750500D01*
X176045945Y-95750500D01*
X176204055Y-95750500D01*
X176204057Y-95750500D01*
X176356784Y-95709577D01*
X176493716Y-95630520D01*
X176605520Y-95518716D01*
X176684577Y-95381784D01*
X176725500Y-95229057D01*
X176725500Y-95174500D01*
X176745185Y-95107461D01*
X176797989Y-95061706D01*
X176849500Y-95050500D01*
X178224956Y-95050500D01*
X178272408Y-95059938D01*
X178393580Y-95110130D01*
X178518968Y-95135071D01*
X178596530Y-95150499D01*
X178596534Y-95150500D01*
X178596535Y-95150500D01*
X178803466Y-95150500D01*
X178803467Y-95150499D01*
X179006420Y-95110130D01*
X179197598Y-95030941D01*
X179218856Y-95016736D01*
X179231109Y-95008550D01*
X179297786Y-94987672D01*
X179352701Y-94999408D01*
X179361137Y-95003368D01*
X179402402Y-95030941D01*
X179550622Y-95092336D01*
X179553201Y-95093547D01*
X179577305Y-95114883D01*
X179602356Y-95135071D01*
X179603294Y-95137889D01*
X179605518Y-95139858D01*
X179614256Y-95170827D01*
X179624421Y-95201365D01*
X179624500Y-95205791D01*
X179624500Y-95229057D01*
X179652362Y-95333037D01*
X179665423Y-95381783D01*
X179665426Y-95381790D01*
X179744475Y-95518709D01*
X179744479Y-95518714D01*
X179744480Y-95518716D01*
X179856284Y-95630520D01*
X179856286Y-95630521D01*
X179856290Y-95630524D01*
X179886638Y-95648045D01*
X179993216Y-95709577D01*
X180145943Y-95750500D01*
X180145945Y-95750500D01*
X180304055Y-95750500D01*
X180304057Y-95750500D01*
X180456784Y-95709577D01*
X180593716Y-95630520D01*
X180705520Y-95518716D01*
X180784577Y-95381784D01*
X180825500Y-95229057D01*
X180825500Y-95070943D01*
X180784577Y-94918216D01*
X180745317Y-94850216D01*
X180741541Y-94834650D01*
X180733124Y-94821024D01*
X180733474Y-94801395D01*
X180728846Y-94782317D01*
X180734099Y-94766375D01*
X180734371Y-94751165D01*
X180749601Y-94719331D01*
X180792180Y-94655607D01*
X180845791Y-94610804D01*
X180895281Y-94600500D01*
X183701000Y-94600500D01*
X183768039Y-94620185D01*
G37*
%TD.AperFunction*%
%TA.AperFunction,Conductor*%
G36*
X188927493Y-90420185D02*
G01*
X188973248Y-90472989D01*
X188983967Y-90535481D01*
X188974500Y-90641966D01*
X188974500Y-92958028D01*
X188974501Y-92958034D01*
X188985113Y-93077415D01*
X189041089Y-93273046D01*
X189060080Y-93309402D01*
X189073670Y-93377937D01*
X189048050Y-93442940D01*
X188991354Y-93483773D01*
X188921582Y-93487472D01*
X188893880Y-93477298D01*
X188849488Y-93454680D01*
X188849485Y-93454679D01*
X188666643Y-93405687D01*
X188600395Y-93400473D01*
X188588021Y-93399500D01*
X188588019Y-93399500D01*
X188161989Y-93399500D01*
X188161970Y-93399501D01*
X188083356Y-93405687D01*
X187900512Y-93454679D01*
X187883626Y-93463283D01*
X187814956Y-93476175D01*
X187750217Y-93449896D01*
X187714030Y-93398557D01*
X187712461Y-93399208D01*
X187630941Y-93202403D01*
X187630941Y-93202402D01*
X187515977Y-93030345D01*
X187515975Y-93030342D01*
X187369657Y-92884024D01*
X187226385Y-92788294D01*
X187197598Y-92769059D01*
X187167768Y-92756703D01*
X187006420Y-92689870D01*
X187006412Y-92689868D01*
X186803469Y-92649500D01*
X186803465Y-92649500D01*
X186596535Y-92649500D01*
X186596530Y-92649500D01*
X186393587Y-92689868D01*
X186393576Y-92689871D01*
X186393116Y-92690062D01*
X186391692Y-92690442D01*
X186387753Y-92691638D01*
X186387713Y-92691507D01*
X186361762Y-92698451D01*
X186353749Y-92699500D01*
X186301459Y-92699500D01*
X186204812Y-92718724D01*
X186200784Y-92719525D01*
X186200778Y-92719526D01*
X186108167Y-92737947D01*
X186108161Y-92737949D01*
X186054834Y-92760037D01*
X186054834Y-92760038D01*
X185989948Y-92786915D01*
X185982354Y-92790061D01*
X185934901Y-92799500D01*
X184149500Y-92799500D01*
X184082461Y-92779815D01*
X184036706Y-92727011D01*
X184025500Y-92675500D01*
X184025499Y-90641971D01*
X184025499Y-90641968D01*
X184025499Y-90641964D01*
X184016883Y-90545044D01*
X184016033Y-90535479D01*
X184029704Y-90466960D01*
X184078250Y-90416710D01*
X184139546Y-90400500D01*
X188860454Y-90400500D01*
X188927493Y-90420185D01*
G37*
%TD.AperFunction*%
%TD*%
M02*
