%TF.GenerationSoftware,KiCad,Pcbnew,9.0.7*%
%TF.CreationDate,2026-03-31T13:43:48-05:00*%
%TF.ProjectId,sensor_base_iteration_2,73656e73-6f72-45f6-9261-73655f697465,2.0*%
%TF.SameCoordinates,Original*%
%TF.FileFunction,Legend,Bot*%
%TF.FilePolarity,Positive*%
%FSLAX46Y46*%
G04 Gerber Fmt 4.6, Leading zero omitted, Abs format (unit mm)*
G04 Created by KiCad (PCBNEW 9.0.7) date 2026-03-31 13:43:48*
%MOMM*%
%LPD*%
G01*
G04 APERTURE LIST*
G04 Aperture macros list*
%AMRoundRect*
0 Rectangle with rounded corners*
0 $1 Rounding radius*
0 $2 $3 $4 $5 $6 $7 $8 $9 X,Y pos of 4 corners*
0 Add a 4 corners polygon primitive as box body*
4,1,4,$2,$3,$4,$5,$6,$7,$8,$9,$2,$3,0*
0 Add four circle primitives for the rounded corners*
1,1,$1+$1,$2,$3*
1,1,$1+$1,$4,$5*
1,1,$1+$1,$6,$7*
1,1,$1+$1,$8,$9*
0 Add four rect primitives between the rounded corners*
20,1,$1+$1,$2,$3,$4,$5,0*
20,1,$1+$1,$4,$5,$6,$7,0*
20,1,$1+$1,$6,$7,$8,$9,0*
20,1,$1+$1,$8,$9,$2,$3,0*%
%AMRotRect*
0 Rectangle, with rotation*
0 The origin of the aperture is its center*
0 $1 length*
0 $2 width*
0 $3 Rotation angle, in degrees counterclockwise*
0 Add horizontal line*
21,1,$1,$2,0,0,$3*%
G04 Aperture macros list end*
%ADD10C,0.150000*%
%ADD11C,0.100000*%
%ADD12C,0.120000*%
%ADD13C,0.000000*%
%ADD14C,4.000000*%
%ADD15R,1.000000X1.000000*%
%ADD16C,1.000000*%
%ADD17C,0.600000*%
%ADD18RoundRect,0.160000X-0.026517X-0.252791X0.252791X0.026517X0.026517X0.252791X-0.252791X-0.026517X0*%
%ADD19R,1.000000X3.000000*%
%ADD20RoundRect,0.150000X0.700000X-0.150000X0.700000X0.150000X-0.700000X0.150000X-0.700000X-0.150000X0*%
%ADD21RoundRect,0.250000X1.100000X-0.250000X1.100000X0.250000X-1.100000X0.250000X-1.100000X-0.250000X0*%
%ADD22RotRect,1.100000X0.250000X45.000000*%
%ADD23RoundRect,0.150000X-0.700000X0.150000X-0.700000X-0.150000X0.700000X-0.150000X0.700000X0.150000X0*%
%ADD24RoundRect,0.250000X-1.100000X0.250000X-1.100000X-0.250000X1.100000X-0.250000X1.100000X0.250000X0*%
%ADD25RoundRect,0.150000X-0.150000X-0.700000X0.150000X-0.700000X0.150000X0.700000X-0.150000X0.700000X0*%
%ADD26RoundRect,0.250000X-0.250000X-1.100000X0.250000X-1.100000X0.250000X1.100000X-0.250000X1.100000X0*%
G04 APERTURE END LIST*
D10*
X171139455Y-106103754D02*
X171038440Y-105531335D01*
X171543516Y-105699693D02*
X170836409Y-104992587D01*
X170836409Y-104992587D02*
X170567035Y-105261961D01*
X170567035Y-105261961D02*
X170533363Y-105362976D01*
X170533363Y-105362976D02*
X170533363Y-105430319D01*
X170533363Y-105430319D02*
X170567035Y-105531335D01*
X170567035Y-105531335D02*
X170668050Y-105632350D01*
X170668050Y-105632350D02*
X170769066Y-105666022D01*
X170769066Y-105666022D02*
X170836409Y-105666022D01*
X170836409Y-105666022D02*
X170937424Y-105632350D01*
X170937424Y-105632350D02*
X171206798Y-105362976D01*
X170802737Y-106440472D02*
X170668050Y-106575159D01*
X170668050Y-106575159D02*
X170567035Y-106608831D01*
X170567035Y-106608831D02*
X170499692Y-106608831D01*
X170499692Y-106608831D02*
X170331333Y-106575159D01*
X170331333Y-106575159D02*
X170162974Y-106474144D01*
X170162974Y-106474144D02*
X169893600Y-106204770D01*
X169893600Y-106204770D02*
X169859928Y-106103754D01*
X169859928Y-106103754D02*
X169859928Y-106036411D01*
X169859928Y-106036411D02*
X169893600Y-105935396D01*
X169893600Y-105935396D02*
X170028287Y-105800709D01*
X170028287Y-105800709D02*
X170129302Y-105767037D01*
X170129302Y-105767037D02*
X170196646Y-105767037D01*
X170196646Y-105767037D02*
X170297661Y-105800709D01*
X170297661Y-105800709D02*
X170466020Y-105969067D01*
X170466020Y-105969067D02*
X170499692Y-106070083D01*
X170499692Y-106070083D02*
X170499692Y-106137426D01*
X170499692Y-106137426D02*
X170466020Y-106238441D01*
X170466020Y-106238441D02*
X170331333Y-106373128D01*
X170331333Y-106373128D02*
X170230318Y-106406800D01*
X170230318Y-106406800D02*
X170162974Y-106406800D01*
X170162974Y-106406800D02*
X170061959Y-106373128D01*
D11*
X162254167Y-106140200D02*
X162397024Y-106092580D01*
X162397024Y-106092580D02*
X162635119Y-106092580D01*
X162635119Y-106092580D02*
X162730357Y-106140200D01*
X162730357Y-106140200D02*
X162777976Y-106187819D01*
X162777976Y-106187819D02*
X162825595Y-106283057D01*
X162825595Y-106283057D02*
X162825595Y-106378295D01*
X162825595Y-106378295D02*
X162777976Y-106473533D01*
X162777976Y-106473533D02*
X162730357Y-106521152D01*
X162730357Y-106521152D02*
X162635119Y-106568771D01*
X162635119Y-106568771D02*
X162444643Y-106616390D01*
X162444643Y-106616390D02*
X162349405Y-106664009D01*
X162349405Y-106664009D02*
X162301786Y-106711628D01*
X162301786Y-106711628D02*
X162254167Y-106806866D01*
X162254167Y-106806866D02*
X162254167Y-106902104D01*
X162254167Y-106902104D02*
X162301786Y-106997342D01*
X162301786Y-106997342D02*
X162349405Y-107044961D01*
X162349405Y-107044961D02*
X162444643Y-107092580D01*
X162444643Y-107092580D02*
X162682738Y-107092580D01*
X162682738Y-107092580D02*
X162825595Y-107044961D01*
X163158929Y-107092580D02*
X163397024Y-106092580D01*
X163397024Y-106092580D02*
X163587500Y-106806866D01*
X163587500Y-106806866D02*
X163777976Y-106092580D01*
X163777976Y-106092580D02*
X164016072Y-107092580D01*
X164873214Y-107092580D02*
X164397024Y-107092580D01*
X164397024Y-107092580D02*
X164349405Y-106616390D01*
X164349405Y-106616390D02*
X164397024Y-106664009D01*
X164397024Y-106664009D02*
X164492262Y-106711628D01*
X164492262Y-106711628D02*
X164730357Y-106711628D01*
X164730357Y-106711628D02*
X164825595Y-106664009D01*
X164825595Y-106664009D02*
X164873214Y-106616390D01*
X164873214Y-106616390D02*
X164920833Y-106521152D01*
X164920833Y-106521152D02*
X164920833Y-106283057D01*
X164920833Y-106283057D02*
X164873214Y-106187819D01*
X164873214Y-106187819D02*
X164825595Y-106140200D01*
X164825595Y-106140200D02*
X164730357Y-106092580D01*
X164730357Y-106092580D02*
X164492262Y-106092580D01*
X164492262Y-106092580D02*
X164397024Y-106140200D01*
X164397024Y-106140200D02*
X164349405Y-106187819D01*
D10*
X169039456Y-104203755D02*
X168938441Y-103631336D01*
X169443517Y-103799694D02*
X168736410Y-103092588D01*
X168736410Y-103092588D02*
X168467036Y-103361962D01*
X168467036Y-103361962D02*
X168433364Y-103462977D01*
X168433364Y-103462977D02*
X168433364Y-103530320D01*
X168433364Y-103530320D02*
X168467036Y-103631336D01*
X168467036Y-103631336D02*
X168568051Y-103732351D01*
X168568051Y-103732351D02*
X168669067Y-103766023D01*
X168669067Y-103766023D02*
X168736410Y-103766023D01*
X168736410Y-103766023D02*
X168837425Y-103732351D01*
X168837425Y-103732351D02*
X169106799Y-103462977D01*
X168231334Y-104203755D02*
X168265006Y-104102740D01*
X168265006Y-104102740D02*
X168265006Y-104035397D01*
X168265006Y-104035397D02*
X168231334Y-103934381D01*
X168231334Y-103934381D02*
X168197662Y-103900710D01*
X168197662Y-103900710D02*
X168096647Y-103867038D01*
X168096647Y-103867038D02*
X168029303Y-103867038D01*
X168029303Y-103867038D02*
X167928288Y-103900710D01*
X167928288Y-103900710D02*
X167793601Y-104035397D01*
X167793601Y-104035397D02*
X167759929Y-104136412D01*
X167759929Y-104136412D02*
X167759929Y-104203755D01*
X167759929Y-104203755D02*
X167793601Y-104304771D01*
X167793601Y-104304771D02*
X167827273Y-104338442D01*
X167827273Y-104338442D02*
X167928288Y-104372114D01*
X167928288Y-104372114D02*
X167995632Y-104372114D01*
X167995632Y-104372114D02*
X168096647Y-104338442D01*
X168096647Y-104338442D02*
X168231334Y-104203755D01*
X168231334Y-104203755D02*
X168332349Y-104170084D01*
X168332349Y-104170084D02*
X168399693Y-104170084D01*
X168399693Y-104170084D02*
X168500708Y-104203755D01*
X168500708Y-104203755D02*
X168635395Y-104338442D01*
X168635395Y-104338442D02*
X168669067Y-104439458D01*
X168669067Y-104439458D02*
X168669067Y-104506801D01*
X168669067Y-104506801D02*
X168635395Y-104607816D01*
X168635395Y-104607816D02*
X168500708Y-104742503D01*
X168500708Y-104742503D02*
X168399693Y-104776175D01*
X168399693Y-104776175D02*
X168332349Y-104776175D01*
X168332349Y-104776175D02*
X168231334Y-104742503D01*
X168231334Y-104742503D02*
X168096647Y-104607816D01*
X168096647Y-104607816D02*
X168062975Y-104506801D01*
X168062975Y-104506801D02*
X168062975Y-104439458D01*
X168062975Y-104439458D02*
X168096647Y-104338442D01*
X148504819Y-99666666D02*
X149219104Y-99666666D01*
X149219104Y-99666666D02*
X149361961Y-99619047D01*
X149361961Y-99619047D02*
X149457200Y-99523809D01*
X149457200Y-99523809D02*
X149504819Y-99380952D01*
X149504819Y-99380952D02*
X149504819Y-99285714D01*
X148504819Y-100047619D02*
X148504819Y-100666666D01*
X148504819Y-100666666D02*
X148885771Y-100333333D01*
X148885771Y-100333333D02*
X148885771Y-100476190D01*
X148885771Y-100476190D02*
X148933390Y-100571428D01*
X148933390Y-100571428D02*
X148981009Y-100619047D01*
X148981009Y-100619047D02*
X149076247Y-100666666D01*
X149076247Y-100666666D02*
X149314342Y-100666666D01*
X149314342Y-100666666D02*
X149409580Y-100619047D01*
X149409580Y-100619047D02*
X149457200Y-100571428D01*
X149457200Y-100571428D02*
X149504819Y-100476190D01*
X149504819Y-100476190D02*
X149504819Y-100190476D01*
X149504819Y-100190476D02*
X149457200Y-100095238D01*
X149457200Y-100095238D02*
X149409580Y-100047619D01*
X176456368Y-101378872D02*
X177028788Y-101951292D01*
X177028788Y-101951292D02*
X177062460Y-102052307D01*
X177062460Y-102052307D02*
X177062460Y-102119651D01*
X177062460Y-102119651D02*
X177028788Y-102220666D01*
X177028788Y-102220666D02*
X176894101Y-102355353D01*
X176894101Y-102355353D02*
X176793086Y-102389025D01*
X176793086Y-102389025D02*
X176725742Y-102389025D01*
X176725742Y-102389025D02*
X176624727Y-102355353D01*
X176624727Y-102355353D02*
X176052307Y-101782933D01*
X176052307Y-103197147D02*
X176456368Y-102793086D01*
X176254338Y-102995116D02*
X175547231Y-102288010D01*
X175547231Y-102288010D02*
X175715590Y-102321681D01*
X175715590Y-102321681D02*
X175850277Y-102321681D01*
X175850277Y-102321681D02*
X175951292Y-102288010D01*
X200404819Y-99666666D02*
X201119104Y-99666666D01*
X201119104Y-99666666D02*
X201261961Y-99619047D01*
X201261961Y-99619047D02*
X201357200Y-99523809D01*
X201357200Y-99523809D02*
X201404819Y-99380952D01*
X201404819Y-99380952D02*
X201404819Y-99285714D01*
X201404819Y-100190476D02*
X201404819Y-100380952D01*
X201404819Y-100380952D02*
X201357200Y-100476190D01*
X201357200Y-100476190D02*
X201309580Y-100523809D01*
X201309580Y-100523809D02*
X201166723Y-100619047D01*
X201166723Y-100619047D02*
X200976247Y-100666666D01*
X200976247Y-100666666D02*
X200595295Y-100666666D01*
X200595295Y-100666666D02*
X200500057Y-100619047D01*
X200500057Y-100619047D02*
X200452438Y-100571428D01*
X200452438Y-100571428D02*
X200404819Y-100476190D01*
X200404819Y-100476190D02*
X200404819Y-100285714D01*
X200404819Y-100285714D02*
X200452438Y-100190476D01*
X200452438Y-100190476D02*
X200500057Y-100142857D01*
X200500057Y-100142857D02*
X200595295Y-100095238D01*
X200595295Y-100095238D02*
X200833390Y-100095238D01*
X200833390Y-100095238D02*
X200928628Y-100142857D01*
X200928628Y-100142857D02*
X200976247Y-100190476D01*
X200976247Y-100190476D02*
X201023866Y-100285714D01*
X201023866Y-100285714D02*
X201023866Y-100476190D01*
X201023866Y-100476190D02*
X200976247Y-100571428D01*
X200976247Y-100571428D02*
X200928628Y-100619047D01*
X200928628Y-100619047D02*
X200833390Y-100666666D01*
X172017587Y-107225623D02*
X171916572Y-106653204D01*
X172421648Y-106821562D02*
X171714541Y-106114456D01*
X171714541Y-106114456D02*
X171445167Y-106383830D01*
X171445167Y-106383830D02*
X171411495Y-106484845D01*
X171411495Y-106484845D02*
X171411495Y-106552188D01*
X171411495Y-106552188D02*
X171445167Y-106653204D01*
X171445167Y-106653204D02*
X171546182Y-106754219D01*
X171546182Y-106754219D02*
X171647198Y-106787891D01*
X171647198Y-106787891D02*
X171714541Y-106787891D01*
X171714541Y-106787891D02*
X171815556Y-106754219D01*
X171815556Y-106754219D02*
X172084930Y-106484845D01*
X171074778Y-106754219D02*
X170603373Y-107225623D01*
X170603373Y-107225623D02*
X171613526Y-107629684D01*
X186833333Y-96504819D02*
X186833333Y-97219104D01*
X186833333Y-97219104D02*
X186880952Y-97361961D01*
X186880952Y-97361961D02*
X186976190Y-97457200D01*
X186976190Y-97457200D02*
X187119047Y-97504819D01*
X187119047Y-97504819D02*
X187214285Y-97504819D01*
X186404761Y-96600057D02*
X186357142Y-96552438D01*
X186357142Y-96552438D02*
X186261904Y-96504819D01*
X186261904Y-96504819D02*
X186023809Y-96504819D01*
X186023809Y-96504819D02*
X185928571Y-96552438D01*
X185928571Y-96552438D02*
X185880952Y-96600057D01*
X185880952Y-96600057D02*
X185833333Y-96695295D01*
X185833333Y-96695295D02*
X185833333Y-96790533D01*
X185833333Y-96790533D02*
X185880952Y-96933390D01*
X185880952Y-96933390D02*
X186452380Y-97504819D01*
X186452380Y-97504819D02*
X185833333Y-97504819D01*
D12*
%TO.C,R9*%
X171190277Y-103472321D02*
X171427329Y-103235269D01*
X171727679Y-104009723D02*
X171964731Y-103772671D01*
%TO.C,SW5*%
D11*
X165000000Y-105500000D02*
X157400000Y-105500000D01*
X157400000Y-94600000D01*
X165000000Y-94600000D01*
X165000000Y-105500000D01*
D12*
%TO.C,R8*%
X170190277Y-102672321D02*
X170427329Y-102435269D01*
X170727679Y-103209723D02*
X170964731Y-102972671D01*
%TO.C,J3*%
X142590000Y-104215000D02*
X142590000Y-95785000D01*
X145410000Y-94515000D02*
X146860000Y-94515000D01*
X145410000Y-105485000D02*
X146860000Y-105485000D01*
X146860000Y-94515000D02*
X146860000Y-96315000D01*
X146860000Y-103685000D02*
X147850000Y-103685000D01*
X146860000Y-105485000D02*
X146860000Y-103685000D01*
D13*
%TO.C,G\u002A\u002A\u002A*%
G36*
X150953334Y-99219032D02*
G01*
X150954116Y-99220536D01*
X150950000Y-99222366D01*
X150947354Y-99222005D01*
X150946667Y-99219032D01*
X150947400Y-99218434D01*
X150953334Y-99219032D01*
G37*
G36*
X151409606Y-100644730D02*
G01*
X151409252Y-100649802D01*
X151406980Y-100651293D01*
X151405989Y-100649524D01*
X151406585Y-100641708D01*
X151408385Y-100639393D01*
X151409606Y-100644730D01*
G37*
G36*
X151598334Y-99814149D02*
G01*
X151599116Y-99815654D01*
X151595000Y-99817483D01*
X151592354Y-99817123D01*
X151591667Y-99814149D01*
X151592400Y-99813551D01*
X151598334Y-99814149D01*
G37*
G36*
X151783334Y-99269042D02*
G01*
X151784116Y-99270546D01*
X151780000Y-99272376D01*
X151777354Y-99272015D01*
X151776667Y-99269042D01*
X151777400Y-99268444D01*
X151783334Y-99269042D01*
G37*
G36*
X152018334Y-99419072D02*
G01*
X152019116Y-99420576D01*
X152015000Y-99422406D01*
X152012354Y-99422045D01*
X152011667Y-99419072D01*
X152012400Y-99418473D01*
X152018334Y-99419072D01*
G37*
G36*
X150298487Y-99600541D02*
G01*
X150300000Y-99609943D01*
X150298458Y-99618118D01*
X150293194Y-99622445D01*
X150288990Y-99620080D01*
X150288777Y-99609943D01*
X150291450Y-99601711D01*
X150295583Y-99597440D01*
X150298487Y-99600541D01*
G37*
G36*
X150657067Y-99111796D02*
G01*
X150660000Y-99120436D01*
X150659327Y-99123769D01*
X150655000Y-99124847D01*
X150652934Y-99122895D01*
X150650000Y-99114255D01*
X150650674Y-99110922D01*
X150655000Y-99109844D01*
X150657067Y-99111796D01*
G37*
G36*
X151211196Y-100592781D02*
G01*
X151215000Y-100597637D01*
X151214855Y-100598832D01*
X151210000Y-100602638D01*
X151208805Y-100602493D01*
X151205000Y-100597637D01*
X151205146Y-100596442D01*
X151210000Y-100592636D01*
X151211196Y-100592781D01*
G37*
G36*
X151460826Y-99243268D02*
G01*
X151465000Y-99247371D01*
X151461742Y-99250696D01*
X151452205Y-99252372D01*
X151444271Y-99251080D01*
X151442500Y-99247371D01*
X151445724Y-99244667D01*
X151455296Y-99242370D01*
X151460826Y-99243268D01*
G37*
G36*
X151522492Y-100654543D02*
G01*
X151526449Y-100662650D01*
X151526946Y-100668976D01*
X151522032Y-100672652D01*
X151517929Y-100670760D01*
X151515000Y-100662650D01*
X151515827Y-100656841D01*
X151519417Y-100652648D01*
X151522492Y-100654543D01*
G37*
G36*
X151677511Y-100010717D02*
G01*
X151682809Y-100014051D01*
X151679170Y-100018142D01*
X151675270Y-100020384D01*
X151667471Y-100021751D01*
X151665000Y-100015022D01*
X151665311Y-100010187D01*
X151668420Y-100007883D01*
X151677511Y-100010717D01*
G37*
G36*
X151805951Y-100133110D02*
G01*
X151810000Y-100137546D01*
X151809154Y-100139847D01*
X151802500Y-100142547D01*
X151799050Y-100141983D01*
X151795000Y-100137546D01*
X151795847Y-100135246D01*
X151802500Y-100132545D01*
X151805951Y-100133110D01*
G37*
G36*
X151831196Y-100307725D02*
G01*
X151835000Y-100312581D01*
X151834855Y-100313776D01*
X151830000Y-100317582D01*
X151828805Y-100317437D01*
X151825000Y-100312581D01*
X151825146Y-100311386D01*
X151830000Y-100307580D01*
X151831196Y-100307725D01*
G37*
G36*
X151991196Y-99227513D02*
G01*
X151995000Y-99232368D01*
X151994855Y-99233564D01*
X151990000Y-99237369D01*
X151988805Y-99237224D01*
X151985000Y-99232368D01*
X151985146Y-99231173D01*
X151990000Y-99227367D01*
X151991196Y-99227513D01*
G37*
G36*
X151103974Y-100070423D02*
G01*
X151109940Y-100079078D01*
X151111133Y-100088745D01*
X151107957Y-100094648D01*
X151101890Y-100092031D01*
X151099089Y-100088633D01*
X151095635Y-100079824D01*
X151094927Y-100071334D01*
X151097712Y-100067533D01*
X151103974Y-100070423D01*
G37*
G36*
X151388188Y-99974585D02*
G01*
X151389085Y-99979535D01*
X151381250Y-99984070D01*
X151376473Y-99985356D01*
X151371250Y-99986937D01*
X151370671Y-99986346D01*
X151370000Y-99980015D01*
X151371857Y-99975641D01*
X151380000Y-99972514D01*
X151388188Y-99974585D01*
G37*
G36*
X151930898Y-99146284D02*
G01*
X151933874Y-99154934D01*
X151933106Y-99160776D01*
X151926250Y-99163365D01*
X151920756Y-99162943D01*
X151915813Y-99155545D01*
X151915759Y-99150004D01*
X151919524Y-99142781D01*
X151925616Y-99140899D01*
X151930898Y-99146284D01*
G37*
G36*
X150899304Y-100048199D02*
G01*
X150910557Y-100052889D01*
X150915000Y-100060566D01*
X150911586Y-100065440D01*
X150900000Y-100067533D01*
X150896128Y-100067429D01*
X150887358Y-100064852D01*
X150885000Y-100057531D01*
X150886342Y-100051694D01*
X150892092Y-100047529D01*
X150899304Y-100048199D01*
G37*
G36*
X152066134Y-99433162D02*
G01*
X152070000Y-99437570D01*
X152067437Y-99441794D01*
X152058750Y-99446915D01*
X152050472Y-99448908D01*
X152040549Y-99448450D01*
X152039634Y-99448077D01*
X152036959Y-99444720D01*
X152042755Y-99439105D01*
X152046012Y-99437015D01*
X152056937Y-99433045D01*
X152066134Y-99433162D01*
G37*
G36*
X151170656Y-100594126D02*
G01*
X151175000Y-100597637D01*
X151174999Y-100597699D01*
X151170532Y-100601189D01*
X151160000Y-100602638D01*
X151159814Y-100602638D01*
X151149345Y-100601148D01*
X151145000Y-100597637D01*
X151145002Y-100597575D01*
X151149469Y-100594085D01*
X151160000Y-100592636D01*
X151160187Y-100592636D01*
X151170656Y-100594126D01*
G37*
G36*
X151464225Y-98657484D02*
G01*
X151475532Y-98659274D01*
X151480000Y-98662256D01*
X151478968Y-98663751D01*
X151470919Y-98666264D01*
X151457500Y-98667257D01*
X151450776Y-98667028D01*
X151439469Y-98665238D01*
X151435000Y-98662256D01*
X151436033Y-98660761D01*
X151444082Y-98658248D01*
X151457500Y-98657255D01*
X151464225Y-98657484D01*
G37*
G36*
X151593262Y-99218071D02*
G01*
X151605473Y-99222590D01*
X151610000Y-99230403D01*
X151606586Y-99235277D01*
X151595000Y-99237369D01*
X151594842Y-99237369D01*
X151584354Y-99236748D01*
X151580000Y-99235278D01*
X151579613Y-99233248D01*
X151576966Y-99225276D01*
X151576731Y-99219580D01*
X151584057Y-99217365D01*
X151593262Y-99218071D01*
G37*
G36*
X151739904Y-99082340D02*
G01*
X151749367Y-99084253D01*
X151760990Y-99088622D01*
X151770843Y-99093723D01*
X151775000Y-99097831D01*
X151774906Y-99098309D01*
X151769419Y-99101173D01*
X151758084Y-99102343D01*
X151754482Y-99102265D01*
X151743408Y-99099660D01*
X151738552Y-99092341D01*
X151737745Y-99086340D01*
X151739722Y-99082339D01*
X151739904Y-99082340D01*
G37*
G36*
X151405476Y-99027475D02*
G01*
X151409211Y-99032644D01*
X151409775Y-99041509D01*
X151406667Y-99048999D01*
X151404759Y-99050148D01*
X151395816Y-99051924D01*
X151384258Y-99052182D01*
X151374261Y-99050988D01*
X151370000Y-99048410D01*
X151370156Y-99047713D01*
X151375411Y-99042229D01*
X151385390Y-99035477D01*
X151396344Y-99029747D01*
X151404522Y-99027328D01*
X151405476Y-99027475D01*
G37*
G36*
X152554060Y-100994407D02*
G01*
X152554004Y-100998987D01*
X152548742Y-101012038D01*
X152537735Y-101027645D01*
X152522504Y-101043444D01*
X152519051Y-101046458D01*
X152510188Y-101053299D01*
X152505827Y-101055220D01*
X152506186Y-101049569D01*
X152511057Y-101038599D01*
X152518914Y-101025084D01*
X152528175Y-101011741D01*
X152537255Y-101001288D01*
X152545140Y-100994254D01*
X152551428Y-100991004D01*
X152554060Y-100994407D01*
G37*
G36*
X151563929Y-99975699D02*
G01*
X151596938Y-99983631D01*
X151632500Y-99997092D01*
X151657500Y-100007871D01*
X151630000Y-100005083D01*
X151617275Y-100003996D01*
X151595235Y-100002493D01*
X151569208Y-100000994D01*
X151542500Y-99999700D01*
X151514073Y-99998351D01*
X151478541Y-99996153D01*
X151452827Y-99993777D01*
X151436823Y-99991191D01*
X151430418Y-99988365D01*
X151433503Y-99985265D01*
X151445968Y-99981862D01*
X151467705Y-99978123D01*
X151492564Y-99974927D01*
X151530221Y-99972923D01*
X151563929Y-99975699D01*
G37*
G36*
X151895141Y-100300057D02*
G01*
X151904053Y-100309998D01*
X151906619Y-100317136D01*
X151905392Y-100325185D01*
X151897356Y-100334775D01*
X151896381Y-100335773D01*
X151888312Y-100346186D01*
X151885000Y-100354514D01*
X151882543Y-100359579D01*
X151873750Y-100364062D01*
X151857275Y-100366336D01*
X151841127Y-100366800D01*
X151829478Y-100365277D01*
X151825000Y-100361888D01*
X151825467Y-100359276D01*
X151829216Y-100348883D01*
X151835494Y-100335170D01*
X151839637Y-100327834D01*
X151852684Y-100312157D01*
X151867553Y-100301835D01*
X151882340Y-100297569D01*
X151895141Y-100300057D01*
G37*
G36*
X152602884Y-101035202D02*
G01*
X152613534Y-101041041D01*
X152623747Y-101050112D01*
X152636468Y-101060165D01*
X152637291Y-101060782D01*
X152646295Y-101069416D01*
X152650000Y-101076575D01*
X152650860Y-101079904D01*
X152657500Y-101085925D01*
X152661021Y-101087802D01*
X152665000Y-101093270D01*
X152661075Y-101097191D01*
X152651204Y-101096827D01*
X152638422Y-101092251D01*
X152628377Y-101086860D01*
X152610384Y-101075589D01*
X152594920Y-101064017D01*
X152584092Y-101053795D01*
X152580010Y-101046571D01*
X152582626Y-101039642D01*
X152591383Y-101034933D01*
X152602884Y-101035202D01*
G37*
G36*
X151555723Y-99810429D02*
G01*
X151556897Y-99814378D01*
X151553648Y-99823021D01*
X151552240Y-99825453D01*
X151550602Y-99833309D01*
X151557119Y-99840229D01*
X151573128Y-99847905D01*
X151594747Y-99851156D01*
X151615368Y-99848110D01*
X151619716Y-99846812D01*
X151635034Y-99846083D01*
X151645882Y-99851604D01*
X151650000Y-99862439D01*
X151648401Y-99867345D01*
X151640176Y-99877919D01*
X151626781Y-99889769D01*
X151616386Y-99896990D01*
X151595067Y-99906143D01*
X151574092Y-99906239D01*
X151551306Y-99897499D01*
X151547023Y-99895287D01*
X151534448Y-99889725D01*
X151526325Y-99887497D01*
X151523953Y-99887122D01*
X151520000Y-99882389D01*
X151516696Y-99877432D01*
X151507500Y-99871584D01*
X151501765Y-99867679D01*
X151495461Y-99855964D01*
X151496036Y-99841814D01*
X151503790Y-99828696D01*
X151507880Y-99825409D01*
X151520088Y-99818788D01*
X151534572Y-99813226D01*
X151547670Y-99810010D01*
X151555723Y-99810429D01*
G37*
G36*
X152374904Y-100811704D02*
G01*
X152391059Y-100822612D01*
X152402429Y-100829979D01*
X152407326Y-100832683D01*
X152411320Y-100834811D01*
X152419260Y-100841435D01*
X152431108Y-100852278D01*
X152446750Y-100865445D01*
X152459012Y-100874392D01*
X152466050Y-100877692D01*
X152468254Y-100878906D01*
X152468050Y-100885565D01*
X152467972Y-100892218D01*
X152469649Y-100895196D01*
X152473342Y-100901753D01*
X152473824Y-100902237D01*
X152478106Y-100907759D01*
X152475509Y-100911117D01*
X152464578Y-100914413D01*
X152463217Y-100914760D01*
X152450313Y-100918085D01*
X152441991Y-100920289D01*
X152439408Y-100923456D01*
X152435891Y-100934256D01*
X152433196Y-100949777D01*
X152431688Y-100959974D01*
X152427219Y-100980703D01*
X152421913Y-100997727D01*
X152419668Y-101002914D01*
X152413687Y-101013505D01*
X152408979Y-101017720D01*
X152404286Y-101016890D01*
X152391473Y-101010209D01*
X152377790Y-100998884D01*
X152366502Y-100985399D01*
X152365531Y-100984029D01*
X152356284Y-100973777D01*
X152341311Y-100959472D01*
X152322459Y-100942818D01*
X152301579Y-100925521D01*
X152299804Y-100924097D01*
X152277223Y-100905705D01*
X152264632Y-100895196D01*
X152325000Y-100895196D01*
X152327500Y-100897696D01*
X152330000Y-100895196D01*
X152327500Y-100892695D01*
X152325000Y-100895196D01*
X152264632Y-100895196D01*
X152255167Y-100887296D01*
X152236083Y-100870935D01*
X152222416Y-100858687D01*
X152203384Y-100841346D01*
X152164367Y-100809393D01*
X152129757Y-100786411D01*
X152127541Y-100785133D01*
X152104056Y-100770295D01*
X152102945Y-100769503D01*
X152156083Y-100769503D01*
X152162135Y-100774102D01*
X152165205Y-100776073D01*
X152176617Y-100783549D01*
X152192724Y-100794207D01*
X152211078Y-100806428D01*
X152226647Y-100816544D01*
X152244630Y-100826815D01*
X152257474Y-100831592D01*
X152266743Y-100831380D01*
X152274000Y-100826682D01*
X152276389Y-100823907D01*
X152280371Y-100811504D01*
X152276317Y-100798624D01*
X152265390Y-100787414D01*
X152248750Y-100780020D01*
X152238842Y-100776612D01*
X152235537Y-100771463D01*
X152240917Y-100763753D01*
X152244468Y-100758075D01*
X152241067Y-100753663D01*
X152229352Y-100750645D01*
X152208489Y-100748634D01*
X152199133Y-100748142D01*
X152183947Y-100748468D01*
X152173686Y-100751306D01*
X152164931Y-100757341D01*
X152164403Y-100757796D01*
X152156660Y-100765141D01*
X152156083Y-100769503D01*
X152102945Y-100769503D01*
X152079630Y-100752875D01*
X152056161Y-100734429D01*
X152035544Y-100716515D01*
X152019677Y-100700687D01*
X152010455Y-100688504D01*
X152008890Y-100684632D01*
X152010654Y-100681521D01*
X152018596Y-100680196D01*
X152034621Y-100679985D01*
X152044104Y-100679751D01*
X152061266Y-100677508D01*
X152071647Y-100673349D01*
X152076420Y-100668372D01*
X152076059Y-100662743D01*
X152069452Y-100653345D01*
X152063960Y-100645864D01*
X152062456Y-100640707D01*
X152067023Y-100638528D01*
X152070702Y-100637674D01*
X152074270Y-100635088D01*
X152073069Y-100629050D01*
X152067109Y-100616884D01*
X152059218Y-100601621D01*
X152085781Y-100615882D01*
X152097738Y-100622547D01*
X152110478Y-100630293D01*
X152117422Y-100635365D01*
X152118643Y-100636423D01*
X152127078Y-100642648D01*
X152141632Y-100652808D01*
X152160655Y-100665764D01*
X152182500Y-100680374D01*
X152191023Y-100686040D01*
X152211594Y-100699843D01*
X152228487Y-100711358D01*
X152240142Y-100719516D01*
X152245000Y-100723247D01*
X152245038Y-100723291D01*
X152250421Y-100727465D01*
X152261810Y-100735251D01*
X152276792Y-100745002D01*
X152288739Y-100752779D01*
X152309285Y-100766516D01*
X152332527Y-100782347D01*
X152355368Y-100798177D01*
X152355651Y-100798375D01*
X152374615Y-100811504D01*
X152374904Y-100811704D01*
G37*
G36*
X151138750Y-98487357D02*
G01*
X151151306Y-98489638D01*
X151171079Y-98492511D01*
X151191954Y-98494984D01*
X151207218Y-98496986D01*
X151217437Y-98499746D01*
X151217694Y-98502716D01*
X151208005Y-98505825D01*
X151188389Y-98509003D01*
X151172770Y-98511682D01*
X151160241Y-98515090D01*
X151153192Y-98518418D01*
X151153053Y-98520976D01*
X151161250Y-98522076D01*
X151170683Y-98523551D01*
X151175000Y-98527229D01*
X151174742Y-98528369D01*
X151169018Y-98531504D01*
X151159008Y-98532037D01*
X151149008Y-98530139D01*
X151143312Y-98525979D01*
X151141803Y-98524533D01*
X151140687Y-98529978D01*
X151140363Y-98541423D01*
X151140764Y-98556672D01*
X151141824Y-98573525D01*
X151143475Y-98589783D01*
X151145652Y-98603248D01*
X151147376Y-98610391D01*
X151154032Y-98631300D01*
X151163095Y-98654217D01*
X151173603Y-98677237D01*
X151184594Y-98698457D01*
X151195106Y-98715972D01*
X151204176Y-98727878D01*
X151210843Y-98732270D01*
X151212668Y-98733006D01*
X151215000Y-98739476D01*
X151215324Y-98742558D01*
X151218857Y-98749066D01*
X151220528Y-98747251D01*
X151222059Y-98737933D01*
X151222607Y-98723106D01*
X151222500Y-98694762D01*
X151243750Y-98696103D01*
X151249141Y-98696286D01*
X151260540Y-98695237D01*
X151265000Y-98692353D01*
X151266948Y-98689363D01*
X151275157Y-98687261D01*
X151281410Y-98685937D01*
X151288192Y-98679759D01*
X151290886Y-98675955D01*
X151299942Y-98672258D01*
X151303347Y-98671530D01*
X151309427Y-98664579D01*
X151314648Y-98649081D01*
X151320743Y-98629293D01*
X151329611Y-98608484D01*
X151339201Y-98592232D01*
X151348175Y-98583162D01*
X151354063Y-98580646D01*
X151366272Y-98580903D01*
X151374863Y-98588330D01*
X151378311Y-98601008D01*
X151375093Y-98617023D01*
X151371524Y-98631423D01*
X151370889Y-98647910D01*
X151372447Y-98657552D01*
X151377323Y-98663937D01*
X151388378Y-98666296D01*
X151401241Y-98669458D01*
X151410240Y-98675048D01*
X151414246Y-98678750D01*
X151422765Y-98682260D01*
X151427179Y-98684715D01*
X151430903Y-98693512D01*
X151430964Y-98693935D01*
X151432513Y-98699425D01*
X151436420Y-98702649D01*
X151444582Y-98703923D01*
X151458898Y-98703561D01*
X151481266Y-98701880D01*
X151492337Y-98703114D01*
X151504159Y-98709004D01*
X151506791Y-98711332D01*
X151514743Y-98716466D01*
X151518858Y-98713312D01*
X151520934Y-98701014D01*
X151521585Y-98695589D01*
X151524012Y-98686455D01*
X151526837Y-98685703D01*
X151529472Y-98692188D01*
X151531330Y-98704764D01*
X151531825Y-98722286D01*
X151531696Y-98729622D01*
X151531776Y-98744630D01*
X151532962Y-98752107D01*
X151535820Y-98753883D01*
X151540911Y-98751786D01*
X151551037Y-98749422D01*
X151562836Y-98754534D01*
X151563410Y-98754915D01*
X151573238Y-98764622D01*
X151574000Y-98774961D01*
X151565491Y-98786548D01*
X151547500Y-98799999D01*
X151538879Y-98805745D01*
X151525559Y-98817224D01*
X151520722Y-98828320D01*
X151523837Y-98841415D01*
X151534372Y-98858894D01*
X151541616Y-98871799D01*
X151551093Y-98893295D01*
X151560895Y-98919276D01*
X151570035Y-98946925D01*
X151577526Y-98973426D01*
X151582383Y-98995963D01*
X151582896Y-98999564D01*
X151583845Y-99017285D01*
X151582524Y-99032220D01*
X151577639Y-99043786D01*
X151569034Y-99047332D01*
X151556994Y-99044818D01*
X151540093Y-99036522D01*
X151524176Y-99024770D01*
X151513106Y-99012004D01*
X151510524Y-99007952D01*
X151500089Y-98993983D01*
X151487966Y-98979969D01*
X151479594Y-98971850D01*
X151467351Y-98964356D01*
X151453471Y-98962315D01*
X151449633Y-98962396D01*
X151439148Y-98964495D01*
X151430333Y-98971049D01*
X151419912Y-98984194D01*
X151413158Y-98992772D01*
X151403638Y-99001271D01*
X151391778Y-99006926D01*
X151375666Y-99010291D01*
X151353395Y-99011922D01*
X151323053Y-99012375D01*
X151305399Y-99012902D01*
X151279984Y-99014455D01*
X151251338Y-99016782D01*
X151222932Y-99019632D01*
X151158364Y-99026840D01*
X151142932Y-99014107D01*
X151139144Y-99010925D01*
X151122181Y-98995758D01*
X151102352Y-98976939D01*
X151081109Y-98955966D01*
X151059905Y-98934338D01*
X151040191Y-98913554D01*
X151023420Y-98895111D01*
X151011043Y-98880509D01*
X151004512Y-98871246D01*
X151003240Y-98868614D01*
X150997382Y-98851602D01*
X150995000Y-98835818D01*
X150994752Y-98830825D01*
X150991761Y-98820520D01*
X150984059Y-98809558D01*
X150970000Y-98795269D01*
X150957368Y-98782755D01*
X150949383Y-98772458D01*
X150945858Y-98762774D01*
X150945105Y-98750682D01*
X150945543Y-98743703D01*
X150948818Y-98723716D01*
X150954550Y-98699267D01*
X150961848Y-98673611D01*
X150969825Y-98650005D01*
X150977590Y-98631708D01*
X150987113Y-98616144D01*
X151002350Y-98599525D01*
X151018738Y-98588878D01*
X151034520Y-98585250D01*
X151047942Y-98589690D01*
X151055151Y-98594117D01*
X151064285Y-98597084D01*
X151066934Y-98596928D01*
X151068781Y-98594643D01*
X151067134Y-98587819D01*
X151061738Y-98574145D01*
X151061913Y-98572240D01*
X151067947Y-98566472D01*
X151079717Y-98560433D01*
X151085187Y-98558074D01*
X151095789Y-98552207D01*
X151100000Y-98547735D01*
X151098779Y-98543465D01*
X151093966Y-98532265D01*
X151086748Y-98517608D01*
X151085318Y-98514810D01*
X151078286Y-98498439D01*
X151077620Y-98489597D01*
X151083404Y-98488051D01*
X151095728Y-98493567D01*
X151100705Y-98496342D01*
X151112460Y-98501408D01*
X151118374Y-98500229D01*
X151120000Y-98492754D01*
X151121169Y-98486888D01*
X151126518Y-98485310D01*
X151138750Y-98487357D01*
G37*
G36*
X151406762Y-99199062D02*
G01*
X151419759Y-99215958D01*
X151425892Y-99226865D01*
X151424936Y-99233266D01*
X151416670Y-99236646D01*
X151400873Y-99238489D01*
X151394061Y-99239307D01*
X151375965Y-99243303D01*
X151357208Y-99249354D01*
X151340399Y-99256423D01*
X151328148Y-99263471D01*
X151323065Y-99269459D01*
X151323054Y-99269642D01*
X151327234Y-99274281D01*
X151337411Y-99279014D01*
X151349512Y-99284280D01*
X151359018Y-99290683D01*
X151363287Y-99293215D01*
X151378332Y-99296323D01*
X151402183Y-99297381D01*
X151417834Y-99296952D01*
X151438768Y-99293520D01*
X151453461Y-99285372D01*
X151464130Y-99270990D01*
X151472993Y-99248855D01*
X151473909Y-99245996D01*
X151476887Y-99234817D01*
X151520483Y-99234817D01*
X151522026Y-99248995D01*
X151527281Y-99258351D01*
X151537809Y-99264345D01*
X151555166Y-99268436D01*
X151580913Y-99272084D01*
X151590431Y-99273312D01*
X151620286Y-99277199D01*
X151641821Y-99279913D01*
X151656313Y-99281412D01*
X151665040Y-99281655D01*
X151669277Y-99280599D01*
X151670302Y-99278202D01*
X151669392Y-99274422D01*
X151667824Y-99269217D01*
X151666756Y-99265352D01*
X151661504Y-99249972D01*
X151654833Y-99233433D01*
X151653785Y-99231192D01*
X151639161Y-99212415D01*
X151616842Y-99198012D01*
X151588311Y-99188699D01*
X151555053Y-99185194D01*
X151522500Y-99184859D01*
X151521015Y-99216003D01*
X151520483Y-99234817D01*
X151476887Y-99234817D01*
X151477502Y-99232510D01*
X151479854Y-99217890D01*
X151481143Y-99199922D01*
X151481544Y-99176394D01*
X151481232Y-99145091D01*
X151479964Y-99070317D01*
X151495415Y-99091331D01*
X151501466Y-99099116D01*
X151510117Y-99108630D01*
X151515433Y-99112345D01*
X151517662Y-99111483D01*
X151519815Y-99104050D01*
X151518123Y-99090976D01*
X151512756Y-99074677D01*
X151508510Y-99062873D01*
X151508434Y-99057874D01*
X151512441Y-99060516D01*
X151519904Y-99070360D01*
X151530198Y-99086963D01*
X151530750Y-99087912D01*
X151539524Y-99101858D01*
X151546403Y-99110831D01*
X151549938Y-99112928D01*
X151549997Y-99112844D01*
X151561091Y-99103137D01*
X151576942Y-99095445D01*
X151592363Y-99092292D01*
X151600431Y-99091274D01*
X151616775Y-99086731D01*
X151634247Y-99079789D01*
X151646207Y-99074506D01*
X151659647Y-99069336D01*
X151667429Y-99067336D01*
X151669315Y-99068076D01*
X151673903Y-99076022D01*
X151677403Y-99090932D01*
X151678056Y-99094938D01*
X151683751Y-99120513D01*
X151692602Y-99151897D01*
X151703702Y-99186496D01*
X151716144Y-99221722D01*
X151729021Y-99254982D01*
X151739054Y-99278202D01*
X151741425Y-99283688D01*
X151752449Y-99305247D01*
X151755726Y-99309883D01*
X151765349Y-99323499D01*
X151783471Y-99340678D01*
X151790265Y-99344474D01*
X151802589Y-99351360D01*
X151821022Y-99354662D01*
X151837089Y-99349701D01*
X151840340Y-99347685D01*
X151846946Y-99345098D01*
X151855038Y-99345214D01*
X151867244Y-99348294D01*
X151886193Y-99354601D01*
X151895181Y-99357645D01*
X151917258Y-99364231D01*
X151932498Y-99366845D01*
X151942591Y-99365655D01*
X151949225Y-99360827D01*
X151949820Y-99360020D01*
X151952512Y-99348789D01*
X151950988Y-99332779D01*
X151945907Y-99315504D01*
X151937926Y-99300482D01*
X151928450Y-99289553D01*
X151908375Y-99271843D01*
X151882757Y-99253266D01*
X151853842Y-99235411D01*
X151823876Y-99219866D01*
X151808477Y-99212551D01*
X151793623Y-99204681D01*
X151784788Y-99198196D01*
X151780111Y-99191632D01*
X151777735Y-99183524D01*
X151776494Y-99175795D01*
X151777398Y-99163763D01*
X151784460Y-99158837D01*
X151798788Y-99159766D01*
X151801734Y-99160452D01*
X151817371Y-99166106D01*
X151837891Y-99175474D01*
X151860567Y-99187106D01*
X151882669Y-99199553D01*
X151901470Y-99211367D01*
X151914243Y-99221097D01*
X151915587Y-99222343D01*
X151937044Y-99242572D01*
X151952663Y-99258215D01*
X151964087Y-99271122D01*
X151972960Y-99283144D01*
X151980927Y-99296131D01*
X151988096Y-99308024D01*
X151995229Y-99318395D01*
X151999260Y-99322386D01*
X152001432Y-99324609D01*
X152005619Y-99333675D01*
X152010053Y-99346524D01*
X152013569Y-99359658D01*
X152015000Y-99369581D01*
X152013287Y-99379859D01*
X152005039Y-99394900D01*
X152004187Y-99396454D01*
X151989426Y-99409447D01*
X151987917Y-99410336D01*
X151978305Y-99415154D01*
X151972330Y-99414174D01*
X151965631Y-99406939D01*
X151961739Y-99403055D01*
X151951832Y-99398790D01*
X151943501Y-99401091D01*
X151940000Y-99409618D01*
X151940001Y-99409722D01*
X151941928Y-99414935D01*
X151948398Y-99420616D01*
X151960641Y-99427454D01*
X151978505Y-99435514D01*
X151979888Y-99436138D01*
X152007370Y-99447359D01*
X152007372Y-99447360D01*
X152023396Y-99454079D01*
X152033489Y-99458311D01*
X152051398Y-99467488D01*
X152054579Y-99469915D01*
X152062481Y-99475945D01*
X152068121Y-99484737D01*
X152069702Y-99494920D01*
X152069298Y-99500775D01*
X152065988Y-99508726D01*
X152063875Y-99510709D01*
X152057668Y-99516534D01*
X152042359Y-99526484D01*
X152042219Y-99526568D01*
X152025619Y-99537322D01*
X152017174Y-99544994D01*
X152016016Y-99550794D01*
X152021280Y-99555933D01*
X152025855Y-99559922D01*
X152036603Y-99572035D01*
X152051227Y-99590495D01*
X152068750Y-99614107D01*
X152076098Y-99628720D01*
X152079278Y-99651184D01*
X152075348Y-99674131D01*
X152064939Y-99694563D01*
X152048682Y-99709482D01*
X152035951Y-99716720D01*
X151988313Y-99739451D01*
X151942596Y-99754524D01*
X151941765Y-99754730D01*
X151923651Y-99759748D01*
X151909154Y-99764661D01*
X151901346Y-99768432D01*
X151898048Y-99775348D01*
X151895656Y-99792429D01*
X151894738Y-99819346D01*
X151894522Y-99839824D01*
X151893928Y-99852815D01*
X151892634Y-99858534D01*
X151890310Y-99858377D01*
X151886628Y-99853741D01*
X151886361Y-99853360D01*
X151877891Y-99844227D01*
X151872128Y-99843827D01*
X151870000Y-99852242D01*
X151868565Y-99858415D01*
X151861250Y-99867093D01*
X151856351Y-99869700D01*
X151844365Y-99872392D01*
X151836354Y-99866442D01*
X151831156Y-99851240D01*
X151829011Y-99839812D01*
X151828361Y-99829805D01*
X151831089Y-99828488D01*
X151837393Y-99835352D01*
X151841517Y-99840616D01*
X151844296Y-99841839D01*
X151844841Y-99834692D01*
X151844774Y-99832473D01*
X151839160Y-99817533D01*
X151826212Y-99804751D01*
X151808261Y-99795845D01*
X151787638Y-99792533D01*
X151781246Y-99792829D01*
X151761986Y-99795514D01*
X151742819Y-99800075D01*
X151736158Y-99801966D01*
X151716793Y-99805005D01*
X151703590Y-99801924D01*
X151694999Y-99792476D01*
X151694353Y-99791145D01*
X151693592Y-99783999D01*
X151698039Y-99774854D01*
X151708755Y-99761306D01*
X151726317Y-99743310D01*
X151746998Y-99727116D01*
X151766681Y-99716424D01*
X151783149Y-99712682D01*
X151785719Y-99712811D01*
X151801029Y-99715370D01*
X151817500Y-99720108D01*
X151820736Y-99721246D01*
X151838917Y-99726262D01*
X151850766Y-99726914D01*
X151855000Y-99723102D01*
X151853008Y-99718869D01*
X151844771Y-99709516D01*
X151832280Y-99697928D01*
X151817857Y-99686094D01*
X151803825Y-99676001D01*
X151792509Y-99669636D01*
X151777364Y-99665615D01*
X151760232Y-99665657D01*
X151759888Y-99665728D01*
X151743408Y-99673011D01*
X151724647Y-99687381D01*
X151705674Y-99706984D01*
X151688553Y-99729966D01*
X151687254Y-99731965D01*
X151676706Y-99746220D01*
X151667442Y-99753687D01*
X151656933Y-99756485D01*
X151650503Y-99756939D01*
X151643978Y-99755386D01*
X151640603Y-99748829D01*
X151638253Y-99734799D01*
X151637443Y-99725085D01*
X151639399Y-99695249D01*
X151646536Y-99662343D01*
X151657817Y-99629602D01*
X151672206Y-99600258D01*
X151688666Y-99577543D01*
X151698411Y-99566699D01*
X151706698Y-99556456D01*
X151709916Y-99551003D01*
X151706826Y-99547289D01*
X151695864Y-99541254D01*
X151678895Y-99534281D01*
X151657935Y-99527182D01*
X151635000Y-99520772D01*
X151629085Y-99519331D01*
X151595161Y-99512183D01*
X151559825Y-99506379D01*
X151524480Y-99501986D01*
X151490531Y-99499072D01*
X151459382Y-99497704D01*
X151432438Y-99497950D01*
X151411102Y-99499877D01*
X151396778Y-99503553D01*
X151390872Y-99509045D01*
X151391585Y-99516694D01*
X151397400Y-99527315D01*
X151403210Y-99535481D01*
X151411743Y-99550027D01*
X151420672Y-99567206D01*
X151428160Y-99585757D01*
X151437165Y-99621202D01*
X151442843Y-99663473D01*
X151444912Y-99710898D01*
X151444965Y-99726641D01*
X151445000Y-99736839D01*
X151427920Y-99734067D01*
X151425980Y-99733770D01*
X151414844Y-99733637D01*
X151405270Y-99738081D01*
X151393390Y-99748747D01*
X151391828Y-99750289D01*
X151377744Y-99761750D01*
X151363355Y-99767735D01*
X151346575Y-99768357D01*
X151325319Y-99763731D01*
X151297500Y-99753969D01*
X151289045Y-99750833D01*
X151264844Y-99743016D01*
X151241732Y-99736979D01*
X151223750Y-99733825D01*
X151195000Y-99731078D01*
X151195000Y-99754198D01*
X151194516Y-99764973D01*
X151194514Y-99765026D01*
X151190414Y-99779788D01*
X151180411Y-99793650D01*
X151165821Y-99809982D01*
X151119161Y-99808318D01*
X151096356Y-99807137D01*
X151060397Y-99803480D01*
X151030908Y-99798024D01*
X151008764Y-99791009D01*
X150994837Y-99782670D01*
X150990000Y-99773245D01*
X150988814Y-99771202D01*
X150980825Y-99765744D01*
X150979130Y-99764973D01*
X151145000Y-99764973D01*
X151147500Y-99767474D01*
X151150000Y-99764973D01*
X151147500Y-99762473D01*
X151145000Y-99764973D01*
X150979130Y-99764973D01*
X150967792Y-99759817D01*
X150962094Y-99757369D01*
X150946138Y-99745836D01*
X150938643Y-99731285D01*
X150940370Y-99714963D01*
X150940759Y-99713884D01*
X150943385Y-99701357D01*
X150944649Y-99685959D01*
X150945470Y-99676603D01*
X150952900Y-99653113D01*
X151095000Y-99653113D01*
X151095152Y-99656272D01*
X151097689Y-99662431D01*
X151104685Y-99664951D01*
X151117854Y-99664110D01*
X151138908Y-99660182D01*
X151172849Y-99653637D01*
X151202491Y-99649610D01*
X151226034Y-99648799D01*
X151245223Y-99651155D01*
X151261799Y-99656626D01*
X151269924Y-99660420D01*
X151283614Y-99667746D01*
X151291941Y-99673484D01*
X151294538Y-99675886D01*
X151304581Y-99684564D01*
X151317165Y-99694959D01*
X151321628Y-99698578D01*
X151336592Y-99710822D01*
X151349111Y-99721208D01*
X151362374Y-99730735D01*
X151370426Y-99732621D01*
X151372695Y-99726641D01*
X151369109Y-99712993D01*
X151359598Y-99691876D01*
X151356907Y-99686714D01*
X151336284Y-99656451D01*
X151311287Y-99634670D01*
X151281302Y-99621076D01*
X151245713Y-99615374D01*
X151203906Y-99617270D01*
X151179549Y-99621130D01*
X151154113Y-99626788D01*
X151131064Y-99633432D01*
X151112279Y-99640446D01*
X151099633Y-99647212D01*
X151095000Y-99653113D01*
X150952900Y-99653113D01*
X150953849Y-99650112D01*
X150970576Y-99623188D01*
X150977893Y-99610099D01*
X150982926Y-99594432D01*
X150983318Y-99592481D01*
X150986612Y-99581795D01*
X150990063Y-99577436D01*
X150991236Y-99576859D01*
X150997006Y-99570569D01*
X151004961Y-99559717D01*
X151013017Y-99547265D01*
X151019088Y-99536178D01*
X151019346Y-99535494D01*
X151017108Y-99532836D01*
X151007564Y-99533399D01*
X150990031Y-99537287D01*
X150963826Y-99544603D01*
X150939211Y-99552033D01*
X150902665Y-99564106D01*
X150873962Y-99575404D01*
X150851834Y-99586612D01*
X150835012Y-99598416D01*
X150822228Y-99611501D01*
X150812214Y-99626552D01*
X150807451Y-99634377D01*
X150795677Y-99650210D01*
X150784345Y-99661791D01*
X150778684Y-99665905D01*
X150753356Y-99677052D01*
X150724995Y-99679953D01*
X150695680Y-99674620D01*
X150667489Y-99661066D01*
X150661978Y-99656819D01*
X150648893Y-99638578D01*
X150641626Y-99612958D01*
X150640301Y-99580616D01*
X150645042Y-99542209D01*
X150648328Y-99528135D01*
X150656142Y-99510291D01*
X150667362Y-99500443D01*
X150682980Y-99497420D01*
X150683857Y-99497414D01*
X150695769Y-99495966D01*
X150700522Y-99493625D01*
X151895713Y-99493625D01*
X151897977Y-99497732D01*
X151909752Y-99504793D01*
X151910555Y-99505205D01*
X151921678Y-99510265D01*
X151928502Y-99512257D01*
X151929453Y-99510709D01*
X151925094Y-99505880D01*
X151917169Y-99499812D01*
X151908509Y-99494620D01*
X151901947Y-99492419D01*
X151895713Y-99493625D01*
X150700522Y-99493625D01*
X150702295Y-99492752D01*
X150701214Y-99487092D01*
X150695966Y-99474572D01*
X150693675Y-99469915D01*
X151815000Y-99469915D01*
X151817500Y-99472415D01*
X151820000Y-99469915D01*
X151817500Y-99467415D01*
X151815000Y-99469915D01*
X150693675Y-99469915D01*
X150687385Y-99457129D01*
X150686551Y-99455583D01*
X150875885Y-99455583D01*
X150880000Y-99457413D01*
X150882647Y-99457052D01*
X150883334Y-99454079D01*
X150882601Y-99453480D01*
X150876667Y-99454079D01*
X150875885Y-99455583D01*
X150686551Y-99455583D01*
X150683008Y-99449011D01*
X150893263Y-99449011D01*
X150893313Y-99450947D01*
X150900279Y-99451511D01*
X150914905Y-99450670D01*
X150937933Y-99448393D01*
X150970105Y-99444648D01*
X150976069Y-99443944D01*
X151013135Y-99440249D01*
X151057017Y-99436805D01*
X151106422Y-99433645D01*
X151160058Y-99430804D01*
X151216635Y-99428315D01*
X151274860Y-99426210D01*
X151333441Y-99424523D01*
X151391088Y-99423288D01*
X151446508Y-99422538D01*
X151498409Y-99422306D01*
X151545501Y-99422626D01*
X151586491Y-99423530D01*
X151620088Y-99425053D01*
X151645000Y-99427227D01*
X151673754Y-99430781D01*
X151699984Y-99433893D01*
X151718428Y-99435843D01*
X151730243Y-99436709D01*
X151736588Y-99436573D01*
X151738621Y-99435514D01*
X151737500Y-99433612D01*
X151736351Y-99432604D01*
X151724907Y-99426301D01*
X151706375Y-99419134D01*
X151683082Y-99411846D01*
X151657359Y-99405179D01*
X151631535Y-99399873D01*
X151607643Y-99396445D01*
X151589893Y-99394900D01*
X151900000Y-99394900D01*
X151902500Y-99397401D01*
X151905000Y-99394900D01*
X151902500Y-99392400D01*
X151900000Y-99394900D01*
X151589893Y-99394900D01*
X151578026Y-99393867D01*
X151543796Y-99392503D01*
X151504068Y-99392365D01*
X151457959Y-99393463D01*
X151404584Y-99395808D01*
X151343059Y-99399410D01*
X151272500Y-99404282D01*
X151264669Y-99404857D01*
X151186189Y-99410893D01*
X151116618Y-99416776D01*
X151056114Y-99422489D01*
X151004829Y-99428013D01*
X150962921Y-99433331D01*
X150930543Y-99438424D01*
X150907851Y-99443276D01*
X150895000Y-99447867D01*
X150893263Y-99449011D01*
X150683008Y-99449011D01*
X150676340Y-99436644D01*
X150673909Y-99432299D01*
X150662072Y-99410512D01*
X150654386Y-99394440D01*
X150649978Y-99381643D01*
X150647974Y-99369681D01*
X150647500Y-99356114D01*
X150647791Y-99344793D01*
X150650112Y-99329667D01*
X150655000Y-99322280D01*
X150659346Y-99319968D01*
X150674789Y-99318213D01*
X150689392Y-99326137D01*
X150695608Y-99331924D01*
X150707795Y-99343257D01*
X150721660Y-99356143D01*
X150732964Y-99365731D01*
X150745327Y-99374154D01*
X150753629Y-99377397D01*
X150753958Y-99377386D01*
X150762460Y-99374216D01*
X150774343Y-99366952D01*
X150786579Y-99357838D01*
X150796141Y-99349116D01*
X150799167Y-99344344D01*
X150825786Y-99344344D01*
X150826980Y-99351037D01*
X150828686Y-99350960D01*
X150829606Y-99344474D01*
X150828805Y-99339558D01*
X150826585Y-99341452D01*
X150825786Y-99344344D01*
X150799167Y-99344344D01*
X150800000Y-99343030D01*
X150799892Y-99342574D01*
X150794546Y-99338357D01*
X150783628Y-99333477D01*
X150769584Y-99325047D01*
X150767727Y-99322996D01*
X150830854Y-99322996D01*
X150831897Y-99330951D01*
X150833204Y-99331124D01*
X150839868Y-99327027D01*
X150849359Y-99318071D01*
X150859293Y-99307974D01*
X150866005Y-99303332D01*
X150868191Y-99306481D01*
X150866750Y-99317385D01*
X150866011Y-99328124D01*
X150868792Y-99332388D01*
X150870533Y-99331991D01*
X150875566Y-99324580D01*
X150878749Y-99308549D01*
X150879854Y-99284879D01*
X150879849Y-99272376D01*
X150904267Y-99272376D01*
X150906790Y-99284879D01*
X150907493Y-99288361D01*
X150912817Y-99302382D01*
X150914969Y-99306298D01*
X150918159Y-99310723D01*
X150919297Y-99307271D01*
X150919302Y-99294881D01*
X150918923Y-99285280D01*
X150916594Y-99267549D01*
X150912622Y-99256318D01*
X150907500Y-99253327D01*
X150906887Y-99253659D01*
X150904361Y-99260379D01*
X150904267Y-99272376D01*
X150879849Y-99272376D01*
X150879844Y-99259874D01*
X150857374Y-99284879D01*
X150852366Y-99290566D01*
X150837731Y-99309437D01*
X150830854Y-99322996D01*
X150767727Y-99322996D01*
X150758628Y-99312947D01*
X150754157Y-99305024D01*
X150750561Y-99296117D01*
X150753238Y-99294381D01*
X150762325Y-99299306D01*
X150767150Y-99302262D01*
X150780618Y-99307467D01*
X150788030Y-99305243D01*
X150788521Y-99296394D01*
X150781224Y-99281725D01*
X150775283Y-99272777D01*
X150765140Y-99257514D01*
X150754047Y-99240834D01*
X150748419Y-99232161D01*
X150728504Y-99195785D01*
X150716773Y-99161884D01*
X150712736Y-99128573D01*
X150715904Y-99093966D01*
X150719874Y-99076401D01*
X150724695Y-99065230D01*
X150730796Y-99060678D01*
X150732505Y-99060126D01*
X150736414Y-99056922D01*
X150738686Y-99049844D01*
X150739742Y-99036852D01*
X150740000Y-99015906D01*
X150740158Y-98999933D01*
X150741621Y-98980780D01*
X150745608Y-98969978D01*
X150753300Y-98966506D01*
X150765877Y-98969346D01*
X150784519Y-98977478D01*
X150784634Y-98977533D01*
X150801236Y-98984984D01*
X150814672Y-98990296D01*
X150822042Y-98992321D01*
X150825720Y-98992790D01*
X150837513Y-98995496D01*
X150852843Y-98999808D01*
X150860748Y-99002442D01*
X150873714Y-99008940D01*
X150884860Y-99019020D01*
X150897470Y-99035292D01*
X150911815Y-99053820D01*
X150926130Y-99067719D01*
X150937172Y-99072337D01*
X150937804Y-99071830D01*
X150939373Y-99064865D01*
X150940000Y-99052333D01*
X150940040Y-99046430D01*
X150941316Y-99036674D01*
X150946296Y-99032934D01*
X150957500Y-99032329D01*
X150963948Y-99032624D01*
X150971782Y-99035147D01*
X150974268Y-99041176D01*
X150971224Y-99051821D01*
X150962470Y-99068191D01*
X150947823Y-99091396D01*
X150930450Y-99121247D01*
X150919242Y-99150154D01*
X150914989Y-99178482D01*
X150917008Y-99208835D01*
X150917015Y-99208881D01*
X150920501Y-99225064D01*
X150926257Y-99245294D01*
X150933326Y-99266826D01*
X150940753Y-99286914D01*
X150944175Y-99294881D01*
X150947581Y-99302813D01*
X150952854Y-99311776D01*
X150956102Y-99314028D01*
X150969094Y-99317652D01*
X150988321Y-99319277D01*
X150988632Y-99319284D01*
X151004878Y-99319333D01*
X151013685Y-99317928D01*
X151017567Y-99314030D01*
X151019037Y-99306603D01*
X151022173Y-99297040D01*
X151032390Y-99290354D01*
X151047208Y-99289124D01*
X151056625Y-99294592D01*
X151058850Y-99306706D01*
X151057500Y-99319885D01*
X151147370Y-99321256D01*
X151169466Y-99321486D01*
X151197090Y-99321373D01*
X151217371Y-99320738D01*
X151229425Y-99319616D01*
X151232370Y-99318040D01*
X151226323Y-99313874D01*
X151219536Y-99309883D01*
X151290000Y-99309883D01*
X151292500Y-99312384D01*
X151295000Y-99309883D01*
X151292500Y-99307383D01*
X151290000Y-99309883D01*
X151219536Y-99309883D01*
X151213875Y-99306554D01*
X151198047Y-99297916D01*
X151191020Y-99294375D01*
X151163956Y-99284605D01*
X151141112Y-99283421D01*
X151121854Y-99290763D01*
X151112700Y-99295854D01*
X151104691Y-99296077D01*
X151093280Y-99291083D01*
X151077452Y-99284520D01*
X151060002Y-99279526D01*
X151055533Y-99278564D01*
X151028861Y-99269467D01*
X151008159Y-99256387D01*
X150994761Y-99240410D01*
X150990003Y-99222619D01*
X150991322Y-99214163D01*
X150996589Y-99197627D01*
X150998173Y-99193787D01*
X151060583Y-99193787D01*
X151061005Y-99211244D01*
X151061012Y-99211380D01*
X151062205Y-99227612D01*
X151064692Y-99236807D01*
X151070085Y-99241902D01*
X151080000Y-99245839D01*
X151080431Y-99245977D01*
X151091745Y-99247872D01*
X151110653Y-99249411D01*
X151134903Y-99250552D01*
X151162244Y-99251259D01*
X151190425Y-99251490D01*
X151217196Y-99251206D01*
X151240305Y-99250369D01*
X151257500Y-99248939D01*
X151273653Y-99246641D01*
X151302170Y-99240987D01*
X151321007Y-99234539D01*
X151330016Y-99227338D01*
X151330369Y-99226642D01*
X151333894Y-99212903D01*
X151335144Y-99193853D01*
X151334268Y-99173284D01*
X151331412Y-99154988D01*
X151326724Y-99142759D01*
X151324123Y-99139222D01*
X151319903Y-99135339D01*
X151313696Y-99133171D01*
X151303505Y-99132452D01*
X151287331Y-99132916D01*
X151263176Y-99134297D01*
X151250428Y-99135171D01*
X151218498Y-99137962D01*
X151185795Y-99141481D01*
X151157703Y-99145172D01*
X151144498Y-99147173D01*
X151114029Y-99152252D01*
X151091805Y-99157279D01*
X151076586Y-99163100D01*
X151067135Y-99170560D01*
X151062213Y-99180507D01*
X151060583Y-99193787D01*
X150998173Y-99193787D01*
X151004602Y-99178201D01*
X151013979Y-99159153D01*
X151023339Y-99143750D01*
X151026310Y-99139846D01*
X151037324Y-99129142D01*
X151052164Y-99120176D01*
X151072368Y-99112309D01*
X151099468Y-99104904D01*
X151135000Y-99097323D01*
X151135308Y-99097263D01*
X151159365Y-99093356D01*
X151187654Y-99089998D01*
X151218403Y-99087263D01*
X151249842Y-99085225D01*
X151280199Y-99083959D01*
X151307706Y-99083539D01*
X151330590Y-99084038D01*
X151347080Y-99085531D01*
X151355407Y-99088092D01*
X151356982Y-99089895D01*
X151362769Y-99100379D01*
X151369732Y-99116824D01*
X151376692Y-99136550D01*
X151384460Y-99157785D01*
X151395591Y-99181526D01*
X151403444Y-99193853D01*
X151406762Y-99199062D01*
G37*
G36*
X150315244Y-99766183D02*
G01*
X150312221Y-99775916D01*
X150312357Y-99784803D01*
X150317823Y-99792835D01*
X150326947Y-99799117D01*
X150342650Y-99802480D01*
X150351287Y-99803021D01*
X150358339Y-99807259D01*
X150361930Y-99818381D01*
X150363803Y-99824929D01*
X150370570Y-99840806D01*
X150379649Y-99857138D01*
X150385361Y-99867599D01*
X150394261Y-99889706D01*
X150400424Y-99912502D01*
X150405631Y-99931279D01*
X150414768Y-99955469D01*
X150427036Y-99983564D01*
X150441643Y-100014112D01*
X150457800Y-100045660D01*
X150474714Y-100076753D01*
X150491596Y-100105939D01*
X150503476Y-100125044D01*
X150507655Y-100131765D01*
X150515003Y-100142453D01*
X150522101Y-100152778D01*
X150534142Y-100167523D01*
X150542988Y-100174549D01*
X150552741Y-100177218D01*
X150562092Y-100174693D01*
X150567355Y-100163852D01*
X150571002Y-100153802D01*
X150575868Y-100147012D01*
X150575965Y-100146950D01*
X150577376Y-100140292D01*
X150572431Y-100127410D01*
X150569351Y-100118703D01*
X150564949Y-100101296D01*
X150559923Y-100077651D01*
X150554684Y-100049701D01*
X150549637Y-100019380D01*
X150546068Y-99997260D01*
X150544107Y-99985921D01*
X150575595Y-99985921D01*
X150577071Y-100005591D01*
X150577148Y-100006430D01*
X150580505Y-100035766D01*
X150585284Y-100068149D01*
X150591000Y-100100980D01*
X150597167Y-100131659D01*
X150603299Y-100157586D01*
X150608912Y-100176161D01*
X150610616Y-100180659D01*
X150616576Y-100193171D01*
X150623109Y-100199189D01*
X150632626Y-100201266D01*
X150632903Y-100201287D01*
X150648994Y-100199302D01*
X150670254Y-100192309D01*
X150693988Y-100181378D01*
X150717500Y-100167579D01*
X150717572Y-100167532D01*
X150730105Y-100158053D01*
X150735777Y-100149508D01*
X150736780Y-100138606D01*
X150736547Y-100136570D01*
X150732022Y-100123290D01*
X150723094Y-100105658D01*
X150711471Y-100086360D01*
X150698859Y-100068084D01*
X150686966Y-100053515D01*
X150677500Y-100045340D01*
X150671018Y-100041574D01*
X150665000Y-100037087D01*
X150656984Y-100028820D01*
X150644079Y-100016973D01*
X150628599Y-100003575D01*
X150612543Y-99990277D01*
X150597908Y-99978732D01*
X150586691Y-99970593D01*
X150580892Y-99967513D01*
X150577566Y-99968770D01*
X150575697Y-99974274D01*
X150575595Y-99985921D01*
X150544107Y-99985921D01*
X150539995Y-99962145D01*
X150533638Y-99927865D01*
X150527564Y-99897443D01*
X150522340Y-99873900D01*
X150519573Y-99862301D01*
X150555307Y-99862301D01*
X150556166Y-99877869D01*
X150556181Y-99878023D01*
X150559348Y-99894947D01*
X150564545Y-99907969D01*
X150570652Y-99915083D01*
X150576548Y-99914288D01*
X150578841Y-99908486D01*
X150579982Y-99895659D01*
X150579433Y-99880356D01*
X150577377Y-99866620D01*
X150574000Y-99858491D01*
X150570518Y-99855782D01*
X150560864Y-99852490D01*
X150556846Y-99854514D01*
X150555307Y-99862301D01*
X150519573Y-99862301D01*
X150515727Y-99846176D01*
X150510318Y-99821955D01*
X150507201Y-99804679D01*
X150506276Y-99792875D01*
X150507441Y-99785072D01*
X150510598Y-99779800D01*
X150515646Y-99775586D01*
X150518515Y-99773607D01*
X150528248Y-99768344D01*
X150533546Y-99770225D01*
X150536998Y-99779755D01*
X150540183Y-99790804D01*
X150545289Y-99805740D01*
X150550498Y-99819444D01*
X150562081Y-99805961D01*
X150563286Y-99804600D01*
X150572913Y-99796041D01*
X150580582Y-99792616D01*
X150580929Y-99792656D01*
X150587288Y-99797283D01*
X150596785Y-99808086D01*
X150607500Y-99822907D01*
X150619127Y-99838840D01*
X150636979Y-99860157D01*
X150654493Y-99878330D01*
X150673004Y-99895659D01*
X150681485Y-99903599D01*
X150665741Y-99934306D01*
X150660335Y-99945774D01*
X150652778Y-99966986D01*
X150649999Y-99983872D01*
X150650000Y-100002731D01*
X150689593Y-100001375D01*
X150692962Y-100001265D01*
X150712605Y-100001066D01*
X150725603Y-100002324D01*
X150734876Y-100005583D01*
X150743343Y-100011387D01*
X150771899Y-100032194D01*
X150807989Y-100053144D01*
X150843745Y-100068512D01*
X150877642Y-100077780D01*
X150908153Y-100080431D01*
X150933750Y-100075947D01*
X150934387Y-100075720D01*
X150942703Y-100074426D01*
X150945000Y-100079463D01*
X150945036Y-100079989D01*
X150950074Y-100086525D01*
X150961250Y-100091865D01*
X150969145Y-100094461D01*
X150986208Y-100100856D01*
X151004235Y-100108300D01*
X151030970Y-100119937D01*
X151040037Y-100108738D01*
X151045733Y-100102106D01*
X151051044Y-100098448D01*
X151052677Y-100103403D01*
X151051366Y-100117542D01*
X151050575Y-100123377D01*
X151050144Y-100131381D01*
X151052617Y-100135703D01*
X151059747Y-100136953D01*
X151073290Y-100135739D01*
X151095000Y-100132669D01*
X151101378Y-100131697D01*
X151118663Y-100127902D01*
X151129962Y-100122566D01*
X151138403Y-100114370D01*
X151140573Y-100111696D01*
X151147855Y-100104693D01*
X151155716Y-100103352D01*
X151168576Y-100106523D01*
X151169453Y-100106781D01*
X151184618Y-100110693D01*
X151205113Y-100115330D01*
X151226762Y-100119745D01*
X151234655Y-100121464D01*
X151259857Y-100128647D01*
X151287839Y-100138471D01*
X151288163Y-100138606D01*
X151314209Y-100149443D01*
X151326713Y-100155001D01*
X151352034Y-100165425D01*
X151376128Y-100174414D01*
X151395122Y-100180483D01*
X151408788Y-100183520D01*
X151439426Y-100187373D01*
X151474973Y-100189045D01*
X151512960Y-100188654D01*
X151550924Y-100186316D01*
X151586396Y-100182150D01*
X151616910Y-100176273D01*
X151640000Y-100168803D01*
X151650786Y-100165086D01*
X151669749Y-100160587D01*
X151690000Y-100157400D01*
X151706147Y-100155282D01*
X151721862Y-100152558D01*
X151731250Y-100150117D01*
X151732706Y-100149606D01*
X151738703Y-100150949D01*
X151740159Y-100157755D01*
X151737212Y-100167137D01*
X151730000Y-100176214D01*
X151726016Y-100179951D01*
X151720682Y-100189480D01*
X151724724Y-100197951D01*
X151738430Y-100206391D01*
X151740724Y-100207510D01*
X151755720Y-100216376D01*
X151767464Y-100225575D01*
X151776062Y-100233358D01*
X151782785Y-100238078D01*
X151783410Y-100238383D01*
X151790037Y-100246760D01*
X151795949Y-100262975D01*
X151800709Y-100285047D01*
X151803881Y-100310994D01*
X151805025Y-100338836D01*
X151805026Y-100338920D01*
X151805203Y-100356699D01*
X151806183Y-100374614D01*
X151808150Y-100384502D01*
X151811250Y-100387509D01*
X151820631Y-100386518D01*
X151836304Y-100383608D01*
X151854314Y-100379518D01*
X151871617Y-100374997D01*
X151885172Y-100370794D01*
X151891935Y-100367657D01*
X151902267Y-100362893D01*
X151915913Y-100364958D01*
X151928803Y-100373843D01*
X151934647Y-100382047D01*
X151943673Y-100397457D01*
X151954392Y-100417564D01*
X151965548Y-100440106D01*
X151968986Y-100447354D01*
X151972378Y-100454763D01*
X151979200Y-100469666D01*
X151985789Y-100486307D01*
X151989504Y-100499822D01*
X151991092Y-100512756D01*
X151991303Y-100527654D01*
X151991265Y-100530419D01*
X151990858Y-100560191D01*
X152014179Y-100567662D01*
X152023750Y-100571468D01*
X152036540Y-100581128D01*
X152040496Y-100592685D01*
X152035037Y-100605094D01*
X152031903Y-100611635D01*
X152032716Y-100614604D01*
X152034829Y-100622322D01*
X152035100Y-100622830D01*
X152037560Y-100629398D01*
X152034029Y-100632111D01*
X152022508Y-100632644D01*
X152012011Y-100633488D01*
X152002764Y-100638431D01*
X151994338Y-100650147D01*
X151992034Y-100653784D01*
X151983680Y-100663679D01*
X151976732Y-100667651D01*
X151976373Y-100667630D01*
X151968297Y-100664532D01*
X151955010Y-100657199D01*
X151939195Y-100647100D01*
X151921656Y-100636523D01*
X151904105Y-100628185D01*
X151890661Y-100624097D01*
X151889228Y-100623892D01*
X151877401Y-100620476D01*
X151867869Y-100612838D01*
X151857442Y-100598523D01*
X151847491Y-100585135D01*
X151845173Y-100582795D01*
X151915000Y-100582795D01*
X151916013Y-100591625D01*
X151921482Y-100608159D01*
X151929908Y-100623086D01*
X151939249Y-100632241D01*
X151947981Y-100636571D01*
X151953300Y-100636596D01*
X151959000Y-100631644D01*
X151961847Y-100628085D01*
X151965229Y-100614604D01*
X151960960Y-100599489D01*
X151949617Y-100585579D01*
X151939931Y-100578516D01*
X151927134Y-100573131D01*
X151918297Y-100574515D01*
X151915000Y-100582795D01*
X151845173Y-100582795D01*
X151823373Y-100560790D01*
X151793758Y-100537898D01*
X151761347Y-100518217D01*
X151748702Y-100512492D01*
X151795000Y-100512492D01*
X151795162Y-100513260D01*
X151800566Y-100518987D01*
X151811250Y-100525631D01*
X151827500Y-100533897D01*
X151815379Y-100520758D01*
X151813644Y-100519129D01*
X151898539Y-100519129D01*
X151899997Y-100532462D01*
X151901303Y-100533897D01*
X151904329Y-100537222D01*
X151910498Y-100533836D01*
X151914581Y-100527328D01*
X151940000Y-100527328D01*
X151940191Y-100528731D01*
X151945000Y-100535125D01*
X151947577Y-100535595D01*
X151950000Y-100530419D01*
X151949389Y-100526693D01*
X151945000Y-100522622D01*
X151943814Y-100522757D01*
X151940000Y-100527328D01*
X151914581Y-100527328D01*
X151917464Y-100522732D01*
X151924186Y-100504335D01*
X151925360Y-100500672D01*
X151933056Y-100484392D01*
X151942475Y-100471828D01*
X151949443Y-100464469D01*
X151954662Y-100454763D01*
X151951081Y-100449346D01*
X151938750Y-100448541D01*
X151937332Y-100448691D01*
X151927009Y-100451497D01*
X151919267Y-100458692D01*
X151911222Y-100472822D01*
X151908142Y-100479646D01*
X151901808Y-100498352D01*
X151898722Y-100514785D01*
X151898539Y-100519129D01*
X151813644Y-100519129D01*
X151805125Y-100511133D01*
X151797662Y-100507822D01*
X151795000Y-100512492D01*
X151748702Y-100512492D01*
X151728841Y-100503500D01*
X151698941Y-100495505D01*
X151687541Y-100494161D01*
X151671878Y-100494881D01*
X151662037Y-100501071D01*
X151656306Y-100514233D01*
X151652975Y-100535871D01*
X151651019Y-100549133D01*
X151644316Y-100576774D01*
X151641244Y-100585388D01*
X151635199Y-100602339D01*
X151626062Y-100625592D01*
X151616939Y-100662015D01*
X151616215Y-100695006D01*
X151623935Y-100725889D01*
X151640140Y-100755992D01*
X151643036Y-100760468D01*
X151646567Y-100765926D01*
X151654385Y-100780408D01*
X151660420Y-100796016D01*
X151665089Y-100814525D01*
X151668805Y-100837709D01*
X151671985Y-100867341D01*
X151675042Y-100905198D01*
X151676265Y-100921640D01*
X151679612Y-100962913D01*
X151683138Y-100996326D01*
X151687409Y-101023456D01*
X151692994Y-101045881D01*
X151700460Y-101065177D01*
X151710375Y-101082923D01*
X151723306Y-101100695D01*
X151739822Y-101120071D01*
X151760490Y-101142629D01*
X151761814Y-101144269D01*
X151767672Y-101156181D01*
X151771695Y-101171342D01*
X151772821Y-101178726D01*
X151772842Y-101187922D01*
X151768029Y-101192111D01*
X151756206Y-101194552D01*
X151755153Y-101194722D01*
X151736418Y-101196814D01*
X151717500Y-101197716D01*
X151711550Y-101197393D01*
X151695751Y-101195026D01*
X151676743Y-101190949D01*
X151657133Y-101185867D01*
X151639532Y-101180483D01*
X151626548Y-101175501D01*
X151620789Y-101171625D01*
X151619986Y-101170508D01*
X151612682Y-101164946D01*
X151600789Y-101158133D01*
X151575173Y-101139750D01*
X151554062Y-101113518D01*
X151539143Y-101081311D01*
X151535387Y-101070862D01*
X151525894Y-101050661D01*
X151512679Y-101029796D01*
X151494442Y-101006333D01*
X151469880Y-100978335D01*
X151464013Y-100969165D01*
X151457143Y-100952158D01*
X151452015Y-100932957D01*
X151450000Y-100915870D01*
X151450000Y-100902697D01*
X151366250Y-100901447D01*
X151321588Y-100901003D01*
X151279236Y-100901044D01*
X151241935Y-100901565D01*
X151210674Y-100902535D01*
X151186441Y-100903923D01*
X151170226Y-100905698D01*
X151163017Y-100907829D01*
X151161799Y-100911920D01*
X151162786Y-100924107D01*
X151166767Y-100941516D01*
X151167586Y-100944461D01*
X151172665Y-100965850D01*
X151174004Y-100982915D01*
X151171082Y-100998769D01*
X151163376Y-101016526D01*
X151150365Y-101039298D01*
X151145773Y-101047057D01*
X151133538Y-101070154D01*
X151126223Y-101089400D01*
X151122636Y-101107737D01*
X151122628Y-101107802D01*
X151114724Y-101154858D01*
X151102359Y-101198001D01*
X151086167Y-101235757D01*
X151066779Y-101266650D01*
X151044829Y-101289204D01*
X151033696Y-101297224D01*
X151016169Y-101308020D01*
X151001484Y-101315107D01*
X150997919Y-101316381D01*
X150984609Y-101320563D01*
X150975922Y-101322427D01*
X150965153Y-101319984D01*
X150952532Y-101313467D01*
X150943827Y-101305778D01*
X150943566Y-101305365D01*
X150940547Y-101293358D01*
X150940598Y-101274107D01*
X150943579Y-101249721D01*
X150949350Y-101222310D01*
X150956010Y-101193964D01*
X150961190Y-101163938D01*
X150962986Y-101136584D01*
X150961371Y-101108891D01*
X150956319Y-101077847D01*
X150947806Y-101040440D01*
X150945348Y-101030308D01*
X150939305Y-101003917D01*
X150934434Y-100980508D01*
X150931183Y-100962314D01*
X150930000Y-100951567D01*
X150926287Y-100932051D01*
X150914383Y-100915827D01*
X150893420Y-100902002D01*
X150888005Y-100899165D01*
X150859713Y-100881820D01*
X150828583Y-100859243D01*
X150797500Y-100833493D01*
X150796241Y-100832378D01*
X150780311Y-100818692D01*
X150767750Y-100810058D01*
X150755974Y-100806058D01*
X150742400Y-100806276D01*
X150724444Y-100810297D01*
X150699523Y-100817703D01*
X150694540Y-100819224D01*
X150648722Y-100832643D01*
X150610581Y-100842412D01*
X150578656Y-100848594D01*
X150551485Y-100851250D01*
X150527605Y-100850444D01*
X150505555Y-100846237D01*
X150483874Y-100838692D01*
X150461098Y-100827872D01*
X150460050Y-100827323D01*
X150439894Y-100816063D01*
X150425869Y-100805956D01*
X150414996Y-100794436D01*
X150413869Y-100792804D01*
X151305000Y-100792804D01*
X151305190Y-100794043D01*
X151310640Y-100797206D01*
X151321520Y-100795974D01*
X151335000Y-100790556D01*
X151337561Y-100789249D01*
X151346683Y-100785636D01*
X151358515Y-100782645D01*
X151374513Y-100780072D01*
X151396133Y-100777715D01*
X151424832Y-100775369D01*
X151462066Y-100772833D01*
X151474536Y-100771972D01*
X151499622Y-100769854D01*
X151520343Y-100767584D01*
X151534824Y-100765385D01*
X151541193Y-100763477D01*
X151541387Y-100760468D01*
X151533858Y-100757733D01*
X151519266Y-100756004D01*
X151499197Y-100755237D01*
X151475235Y-100755391D01*
X151448965Y-100756424D01*
X151421972Y-100758293D01*
X151395840Y-100760957D01*
X151372155Y-100764373D01*
X151352500Y-100768499D01*
X151338638Y-100772682D01*
X151321469Y-100779660D01*
X151309497Y-100786755D01*
X151305000Y-100792804D01*
X150413869Y-100792804D01*
X150404296Y-100778938D01*
X150392165Y-100758760D01*
X150376347Y-100726633D01*
X150366538Y-100696108D01*
X150365165Y-100687191D01*
X150763438Y-100687191D01*
X150763683Y-100695638D01*
X150772890Y-100708065D01*
X150773580Y-100708779D01*
X150787675Y-100719908D01*
X150799261Y-100722826D01*
X150807111Y-100717651D01*
X150810000Y-100704501D01*
X150807801Y-100697657D01*
X150872728Y-100697657D01*
X150888688Y-100697657D01*
X150900617Y-100695811D01*
X150910040Y-100687581D01*
X150911298Y-100684917D01*
X150911867Y-100676735D01*
X150906376Y-100673742D01*
X150897005Y-100676220D01*
X150885930Y-100684452D01*
X150872728Y-100697657D01*
X150807801Y-100697657D01*
X150806646Y-100694064D01*
X150795425Y-100685721D01*
X150778124Y-100682654D01*
X150772091Y-100683040D01*
X150763438Y-100687191D01*
X150365165Y-100687191D01*
X150361622Y-100664186D01*
X150361381Y-100661449D01*
X150359377Y-100644314D01*
X150357116Y-100632222D01*
X150355042Y-100627643D01*
X150350449Y-100630155D01*
X150342607Y-100637527D01*
X150335304Y-100643373D01*
X150328723Y-100644357D01*
X150326961Y-100642026D01*
X150325537Y-100631409D01*
X150326869Y-100615187D01*
X150330524Y-100595939D01*
X150336072Y-100576246D01*
X150339215Y-100568370D01*
X150726138Y-100568370D01*
X150729129Y-100577784D01*
X150737966Y-100591512D01*
X150750963Y-100607613D01*
X150766437Y-100624145D01*
X150782705Y-100639167D01*
X150798082Y-100650735D01*
X150812128Y-100658860D01*
X150828900Y-100666657D01*
X150841587Y-100670479D01*
X150848588Y-100670600D01*
X150866981Y-100664834D01*
X150885721Y-100651840D01*
X150903302Y-100633374D01*
X150918217Y-100611192D01*
X150928961Y-100587050D01*
X150934027Y-100562703D01*
X150934406Y-100552423D01*
X150933090Y-100530740D01*
X150929386Y-100511265D01*
X150923890Y-100496590D01*
X150917196Y-100489307D01*
X150915844Y-100488950D01*
X150904601Y-100489671D01*
X150886907Y-100493932D01*
X150864538Y-100501003D01*
X150839270Y-100510154D01*
X150812878Y-100520653D01*
X150787137Y-100531772D01*
X150780037Y-100535125D01*
X150763824Y-100542781D01*
X150744714Y-100552948D01*
X150731583Y-100561544D01*
X150726205Y-100567840D01*
X150726138Y-100568370D01*
X150339215Y-100568370D01*
X150343078Y-100558688D01*
X150348051Y-100547564D01*
X150351532Y-100535125D01*
X150375000Y-100535125D01*
X150377500Y-100537625D01*
X150380000Y-100535125D01*
X150377500Y-100532624D01*
X150375000Y-100535125D01*
X150351532Y-100535125D01*
X150352750Y-100530773D01*
X150350539Y-100520869D01*
X150341407Y-100517615D01*
X150340011Y-100517529D01*
X150337071Y-100516049D01*
X150335012Y-100511633D01*
X150333681Y-100502868D01*
X150332922Y-100488342D01*
X150332882Y-100485786D01*
X150805885Y-100485786D01*
X150810000Y-100487615D01*
X150812647Y-100487254D01*
X150813334Y-100484281D01*
X150812601Y-100483683D01*
X150806667Y-100484281D01*
X150805885Y-100485786D01*
X150332882Y-100485786D01*
X150332580Y-100466640D01*
X150332500Y-100436349D01*
X150332491Y-100424799D01*
X150332296Y-100396955D01*
X150331682Y-100376559D01*
X150330440Y-100361706D01*
X150328357Y-100350492D01*
X150325222Y-100341015D01*
X150320821Y-100331369D01*
X150320099Y-100329917D01*
X150312232Y-100316308D01*
X150311761Y-100315748D01*
X150666658Y-100315748D01*
X150669220Y-100340603D01*
X150671727Y-100356818D01*
X150678236Y-100384200D01*
X150686361Y-100404309D01*
X150691825Y-100413707D01*
X150698550Y-100421468D01*
X150707388Y-100424247D01*
X150722273Y-100424226D01*
X150736272Y-100422811D01*
X150761564Y-100417568D01*
X150788454Y-100409641D01*
X150813089Y-100400218D01*
X150831616Y-100390490D01*
X150833268Y-100389349D01*
X150845467Y-100376624D01*
X150852311Y-100358246D01*
X150854349Y-100349522D01*
X150857835Y-100340820D01*
X150863625Y-100338235D01*
X150874465Y-100339436D01*
X150875301Y-100339579D01*
X150889311Y-100343796D01*
X150899320Y-100349765D01*
X150902281Y-100352995D01*
X150903902Y-100358914D01*
X150898274Y-100366737D01*
X150896034Y-100369391D01*
X150892322Y-100378387D01*
X150895076Y-100390295D01*
X150896574Y-100394075D01*
X150903856Y-100410492D01*
X150913472Y-100430372D01*
X150924118Y-100451206D01*
X150934489Y-100470485D01*
X150942460Y-100484281D01*
X150943280Y-100485701D01*
X150949187Y-100494344D01*
X150952244Y-100499218D01*
X150957139Y-100516366D01*
X150960328Y-100543233D01*
X150961157Y-100552423D01*
X150961531Y-100556568D01*
X150965654Y-100578910D01*
X150973316Y-100595794D01*
X150986213Y-100610268D01*
X151006042Y-100625380D01*
X151024974Y-100636035D01*
X151055659Y-100644292D01*
X151066272Y-100645941D01*
X151078626Y-100649181D01*
X151084137Y-100652557D01*
X151086299Y-100656919D01*
X151090311Y-100657524D01*
X151093623Y-100650767D01*
X151095000Y-100638270D01*
X151095809Y-100620700D01*
X151098101Y-100604100D01*
X151101355Y-100592193D01*
X151105042Y-100587635D01*
X151109006Y-100591089D01*
X151112637Y-100602052D01*
X151116115Y-100621353D01*
X151119636Y-100649823D01*
X151120052Y-100653551D01*
X151123346Y-100675247D01*
X151123797Y-100676735D01*
X151127474Y-100688862D01*
X151132921Y-100696082D01*
X151135141Y-100697334D01*
X151147383Y-100700335D01*
X151168273Y-100702088D01*
X151198456Y-100702658D01*
X151255000Y-100702658D01*
X151255000Y-100677324D01*
X151255286Y-100668916D01*
X151257348Y-100652542D01*
X151260746Y-100641252D01*
X151266492Y-100630514D01*
X151271226Y-100642831D01*
X151273696Y-100651355D01*
X151277097Y-100667781D01*
X151280018Y-100686585D01*
X151280951Y-100693371D01*
X151283183Y-100704501D01*
X151284999Y-100713554D01*
X151290336Y-100725098D01*
X151297713Y-100729080D01*
X151307880Y-100726580D01*
X151318446Y-100723632D01*
X151332736Y-100726860D01*
X151336976Y-100728814D01*
X151344441Y-100731793D01*
X151349463Y-100731122D01*
X151357106Y-100726783D01*
X151360304Y-100725592D01*
X151372340Y-100723944D01*
X151392492Y-100723217D01*
X151421376Y-100723397D01*
X151459606Y-100724469D01*
X151475845Y-100725012D01*
X151508894Y-100725778D01*
X151533814Y-100725552D01*
X151551915Y-100724079D01*
X151564510Y-100721105D01*
X151572910Y-100716375D01*
X151578425Y-100709635D01*
X151582369Y-100700629D01*
X151584392Y-100693939D01*
X151583746Y-100685650D01*
X151576202Y-100678871D01*
X151574110Y-100677416D01*
X151567334Y-100670282D01*
X151565951Y-100661282D01*
X151570120Y-100648337D01*
X151580000Y-100629373D01*
X151584957Y-100619728D01*
X151592242Y-100600735D01*
X151595000Y-100585388D01*
X151594742Y-100579807D01*
X151592691Y-100562276D01*
X151589070Y-100539473D01*
X151584452Y-100514412D01*
X151579412Y-100490105D01*
X151574520Y-100469566D01*
X151570352Y-100455807D01*
X151566427Y-100447054D01*
X151561767Y-100444533D01*
X151553664Y-100448815D01*
X151552725Y-100449445D01*
X151544848Y-100456325D01*
X151538146Y-100466165D01*
X151531860Y-100480682D01*
X151525232Y-100501593D01*
X151517501Y-100530614D01*
X151511392Y-100553793D01*
X151502965Y-100582552D01*
X151495477Y-100604218D01*
X151489253Y-100617885D01*
X151484616Y-100622642D01*
X151484546Y-100622642D01*
X151480297Y-100620989D01*
X151477792Y-100615330D01*
X151477042Y-100604499D01*
X151478056Y-100587328D01*
X151480846Y-100562651D01*
X151485420Y-100529302D01*
X151488161Y-100510013D01*
X151491907Y-100481148D01*
X151493654Y-100460222D01*
X151493101Y-100445970D01*
X151489947Y-100437129D01*
X151483891Y-100432434D01*
X151474631Y-100430623D01*
X151461868Y-100430431D01*
X151461016Y-100430445D01*
X151447244Y-100431786D01*
X151432965Y-100435849D01*
X151415582Y-100443592D01*
X151392500Y-100455967D01*
X151380402Y-100462730D01*
X151359348Y-100474166D01*
X151344420Y-100481197D01*
X151333847Y-100484177D01*
X151325856Y-100483462D01*
X151318675Y-100479405D01*
X151310531Y-100472361D01*
X151306547Y-100468969D01*
X151292229Y-100459466D01*
X151279430Y-100454245D01*
X151269307Y-100451021D01*
X151265000Y-100447211D01*
X151262704Y-100443665D01*
X151254275Y-100435530D01*
X151241781Y-100425332D01*
X151238649Y-100423010D01*
X151222271Y-100413121D01*
X151213778Y-100410100D01*
X151555000Y-100410100D01*
X151557500Y-100412601D01*
X151560000Y-100410100D01*
X151557500Y-100407600D01*
X151555000Y-100410100D01*
X151213778Y-100410100D01*
X151208329Y-100408162D01*
X151198635Y-100408546D01*
X151195000Y-100414686D01*
X151195440Y-100418544D01*
X151200167Y-100433090D01*
X151209032Y-100452534D01*
X151220732Y-100474615D01*
X151233961Y-100497074D01*
X151247414Y-100517653D01*
X151259787Y-100534093D01*
X151269774Y-100544134D01*
X151278747Y-100552311D01*
X151290559Y-100570988D01*
X151295000Y-100591248D01*
X151294993Y-100592572D01*
X151294273Y-100603256D01*
X151292736Y-100607639D01*
X151286666Y-100606261D01*
X151272075Y-100597917D01*
X151252724Y-100582522D01*
X151229406Y-100560664D01*
X151215917Y-100547030D01*
X151204290Y-100534170D01*
X151197660Y-100524473D01*
X151194707Y-100515913D01*
X151194114Y-100506465D01*
X151194121Y-100505745D01*
X151192583Y-100492277D01*
X151187917Y-100487615D01*
X151182566Y-100485816D01*
X151171994Y-100478129D01*
X151160806Y-100466904D01*
X151152026Y-100454899D01*
X151149541Y-100451912D01*
X151137419Y-100444664D01*
X151118703Y-100438533D01*
X151116655Y-100438030D01*
X151103937Y-100434422D01*
X151094850Y-100429791D01*
X151088275Y-100422380D01*
X151083093Y-100410433D01*
X151078185Y-100392193D01*
X151072431Y-100365903D01*
X151067659Y-100346061D01*
X151060486Y-100326595D01*
X151051508Y-100314765D01*
X151039560Y-100309207D01*
X151023476Y-100308556D01*
X151002500Y-100310080D01*
X150999268Y-100342587D01*
X150998763Y-100347410D01*
X150991415Y-100393532D01*
X150978810Y-100443857D01*
X150975370Y-100453738D01*
X150969617Y-100460840D01*
X150960348Y-100462610D01*
X150957229Y-100462497D01*
X150951292Y-100460644D01*
X150946534Y-100454990D01*
X150941681Y-100443586D01*
X150935463Y-100424483D01*
X150932846Y-100415936D01*
X150928104Y-100398312D01*
X150926237Y-100384633D01*
X150926936Y-100370917D01*
X150929889Y-100353182D01*
X150932122Y-100338751D01*
X150933253Y-100320690D01*
X150932382Y-100300716D01*
X150929320Y-100276903D01*
X150923879Y-100247326D01*
X150922517Y-100240991D01*
X151631238Y-100240991D01*
X151633011Y-100251882D01*
X151634285Y-100260003D01*
X151635859Y-100277880D01*
X151637014Y-100300608D01*
X151637564Y-100325178D01*
X151637592Y-100328383D01*
X151638193Y-100355270D01*
X151639599Y-100373721D01*
X151642105Y-100385150D01*
X151646005Y-100390970D01*
X151651593Y-100392597D01*
X151656650Y-100394752D01*
X151663840Y-100402599D01*
X151669046Y-100408746D01*
X151671728Y-100410100D01*
X151676293Y-100412405D01*
X151679236Y-100412118D01*
X151695021Y-100406732D01*
X151713453Y-100395925D01*
X151731396Y-100381460D01*
X151735941Y-100377078D01*
X151745130Y-100366154D01*
X151749127Y-100355011D01*
X151750000Y-100338920D01*
X151748812Y-100324467D01*
X151741435Y-100304387D01*
X151726599Y-100287873D01*
X151703479Y-100274124D01*
X151671250Y-100262337D01*
X151665182Y-100260433D01*
X151654308Y-100256412D01*
X151650000Y-100253823D01*
X151651413Y-100251322D01*
X151657767Y-100242951D01*
X151667500Y-100231210D01*
X151677621Y-100217919D01*
X151684706Y-100203727D01*
X151684536Y-100195257D01*
X151678006Y-100193404D01*
X151666009Y-100199061D01*
X151649438Y-100213124D01*
X151639342Y-100223620D01*
X151638907Y-100224230D01*
X151632884Y-100232667D01*
X151631238Y-100240991D01*
X150922517Y-100240991D01*
X150919238Y-100225734D01*
X151590885Y-100225734D01*
X151595000Y-100227564D01*
X151597647Y-100227203D01*
X151598334Y-100224230D01*
X151597601Y-100223632D01*
X151591667Y-100224230D01*
X151590885Y-100225734D01*
X150919238Y-100225734D01*
X150915869Y-100210061D01*
X150911506Y-100191991D01*
X150907040Y-100178364D01*
X150902481Y-100171184D01*
X150896981Y-100168590D01*
X150895258Y-100168625D01*
X150885309Y-100171629D01*
X150870491Y-100178079D01*
X150853135Y-100186721D01*
X150835576Y-100196300D01*
X150820145Y-100205559D01*
X150809175Y-100213242D01*
X150805000Y-100218095D01*
X150804567Y-100219735D01*
X150798750Y-100222694D01*
X150795561Y-100223855D01*
X150785252Y-100229911D01*
X150777614Y-100235066D01*
X150770350Y-100239969D01*
X150752889Y-100252699D01*
X150751849Y-100253483D01*
X150731907Y-100267875D01*
X150717183Y-100276782D01*
X150705518Y-100281312D01*
X150694751Y-100282575D01*
X150692661Y-100282590D01*
X150679350Y-100284059D01*
X150671037Y-100289036D01*
X150667035Y-100299079D01*
X150666658Y-100315748D01*
X150311761Y-100315748D01*
X150302714Y-100304990D01*
X150289658Y-100294408D01*
X150271178Y-100283009D01*
X150245386Y-100269238D01*
X150240735Y-100266817D01*
X150225084Y-100258197D01*
X150214128Y-100251412D01*
X150210000Y-100247760D01*
X150210743Y-100246730D01*
X150218142Y-100243339D01*
X150230911Y-100239777D01*
X150236236Y-100238425D01*
X150245383Y-100235066D01*
X150340000Y-100235066D01*
X150342500Y-100237566D01*
X150345000Y-100235066D01*
X150342500Y-100232565D01*
X150340000Y-100235066D01*
X150245383Y-100235066D01*
X150247894Y-100234144D01*
X150253187Y-100230065D01*
X150251945Y-100227338D01*
X150244022Y-100221053D01*
X150231027Y-100213903D01*
X150230944Y-100213863D01*
X150214986Y-100204734D01*
X150198671Y-100192940D01*
X150184239Y-100180423D01*
X150173928Y-100169125D01*
X150169979Y-100160986D01*
X150168844Y-100157036D01*
X150166978Y-100153324D01*
X150225000Y-100153324D01*
X150225048Y-100153719D01*
X150230156Y-100156590D01*
X150241336Y-100157538D01*
X150255217Y-100156737D01*
X150268430Y-100154363D01*
X150277606Y-100150590D01*
X150280595Y-100148282D01*
X150284305Y-100142453D01*
X150280092Y-100135156D01*
X150272042Y-100129574D01*
X150258109Y-100129673D01*
X150253308Y-100130924D01*
X150239804Y-100137140D01*
X150229257Y-100145400D01*
X150225000Y-100153324D01*
X150166978Y-100153324D01*
X150163408Y-100146223D01*
X150155000Y-100132545D01*
X150147551Y-100120487D01*
X150141146Y-100105406D01*
X150141998Y-100095560D01*
X150150000Y-100090037D01*
X150150135Y-100089995D01*
X150165563Y-100088627D01*
X150176100Y-100094717D01*
X150180000Y-100107265D01*
X150180041Y-100109311D01*
X150184012Y-100123423D01*
X150194642Y-100130191D01*
X150212165Y-100129778D01*
X150224787Y-100126339D01*
X150227107Y-100125044D01*
X150350000Y-100125044D01*
X150352500Y-100127544D01*
X150355000Y-100125044D01*
X150352500Y-100122543D01*
X150350000Y-100125044D01*
X150227107Y-100125044D01*
X150242112Y-100116667D01*
X150252690Y-100103821D01*
X150255878Y-100089496D01*
X150251030Y-100075389D01*
X150237500Y-100063194D01*
X150233716Y-100060846D01*
X150223925Y-100053393D01*
X150220000Y-100048038D01*
X150220233Y-100046773D01*
X150225918Y-100039634D01*
X150236592Y-100031670D01*
X150248734Y-100025196D01*
X150258825Y-100022524D01*
X150269030Y-100025061D01*
X150285214Y-100034079D01*
X150303470Y-100048155D01*
X150321558Y-100065746D01*
X150326010Y-100070384D01*
X150336883Y-100079200D01*
X150343048Y-100080235D01*
X150343666Y-100073779D01*
X150337897Y-100060119D01*
X150334730Y-100054563D01*
X150327872Y-100044360D01*
X150318193Y-100032162D01*
X150304296Y-100016257D01*
X150284785Y-99994932D01*
X150281274Y-99990997D01*
X150279685Y-99987538D01*
X150283344Y-99985983D01*
X150293830Y-99985867D01*
X150312722Y-99986727D01*
X150350000Y-99988610D01*
X150350000Y-99974311D01*
X150348675Y-99966771D01*
X150341570Y-99950416D01*
X150329347Y-99930892D01*
X150323812Y-99922764D01*
X150312163Y-99904124D01*
X150300052Y-99883191D01*
X150288630Y-99862120D01*
X150279047Y-99843068D01*
X150272454Y-99828191D01*
X150270000Y-99819645D01*
X150272093Y-99815509D01*
X150280449Y-99810916D01*
X150281230Y-99810696D01*
X150287210Y-99806468D01*
X150287816Y-99798146D01*
X150282818Y-99784446D01*
X150271981Y-99764083D01*
X150268705Y-99757871D01*
X150266343Y-99752000D01*
X150290243Y-99752000D01*
X150292917Y-99755481D01*
X150299531Y-99750536D01*
X150302485Y-99745699D01*
X150300208Y-99740096D01*
X150296902Y-99739606D01*
X150291847Y-99744868D01*
X150290243Y-99752000D01*
X150266343Y-99752000D01*
X150262474Y-99742380D01*
X150260000Y-99730165D01*
X150260090Y-99727265D01*
X150264395Y-99707490D01*
X150273641Y-99688723D01*
X150285722Y-99675447D01*
X150289861Y-99672608D01*
X150295858Y-99670326D01*
X150300334Y-99674325D01*
X150306054Y-99686046D01*
X150307886Y-99690278D01*
X150316261Y-99717745D01*
X150318837Y-99744126D01*
X150318581Y-99745699D01*
X150315244Y-99766183D01*
G37*
D10*
%TO.C,U1*%
X172201903Y-100500000D02*
X172361002Y-100659099D01*
X172201903Y-100500000D02*
X174500000Y-98201903D01*
X174500000Y-98201903D02*
X174659099Y-98361002D01*
X174500000Y-102798097D02*
X174340901Y-102638998D01*
X174500000Y-102798097D02*
X176798097Y-100500000D01*
X176798097Y-100500000D02*
X176638998Y-100340901D01*
D12*
X174408076Y-103038513D02*
X174068665Y-103377925D01*
X174005025Y-102974874D01*
X174408076Y-103038513D01*
G36*
X174408076Y-103038513D02*
G01*
X174068665Y-103377925D01*
X174005025Y-102974874D01*
X174408076Y-103038513D01*
G37*
D13*
%TO.C,G\u002A\u002A\u002A*%
G36*
X194805214Y-100046605D02*
G01*
X194856226Y-100150390D01*
X194865773Y-100241536D01*
X194853586Y-100308481D01*
X194789202Y-100336570D01*
X194683361Y-100319387D01*
X194612066Y-100252713D01*
X194582576Y-100146260D01*
X194604730Y-100050603D01*
X194705679Y-100019886D01*
X194805214Y-100046605D01*
G37*
G36*
X194804042Y-100450972D02*
G01*
X194827660Y-100456421D01*
X194870691Y-100483372D01*
X194911993Y-100541739D01*
X194955596Y-100643450D01*
X195005530Y-100800430D01*
X195065826Y-101024606D01*
X195140512Y-101327904D01*
X195233620Y-101722251D01*
X195305062Y-102028143D01*
X195169611Y-102012085D01*
X195116642Y-102000715D01*
X195071116Y-101968821D01*
X195030141Y-101900400D01*
X194986479Y-101778951D01*
X194932894Y-101587973D01*
X194862151Y-101310965D01*
X194793855Y-101036539D01*
X194736321Y-100792548D01*
X194703712Y-100625356D01*
X194695104Y-100521283D01*
X194709573Y-100466648D01*
X194746193Y-100447771D01*
X194804042Y-100450972D01*
G37*
G36*
X196078446Y-98565857D02*
G01*
X196115276Y-98583605D01*
X196267373Y-98706952D01*
X196380281Y-98873427D01*
X196424477Y-99042373D01*
X196390146Y-99101673D01*
X196266386Y-99124035D01*
X196223876Y-99122856D01*
X196132650Y-99095355D01*
X196108295Y-99017511D01*
X196088996Y-98945899D01*
X196000470Y-98860240D01*
X195878826Y-98824666D01*
X195767324Y-98859255D01*
X195724145Y-98907354D01*
X195686718Y-99004447D01*
X195686979Y-99008208D01*
X195724162Y-99089491D01*
X195811895Y-99224275D01*
X195932428Y-99389162D01*
X196068009Y-99560752D01*
X196200888Y-99715644D01*
X196313313Y-99830439D01*
X196320963Y-99837617D01*
X196399897Y-99959368D01*
X196425120Y-100094325D01*
X196387509Y-100197380D01*
X196368257Y-100205008D01*
X196262061Y-100216993D01*
X196088582Y-100222139D01*
X195873712Y-100219337D01*
X195824677Y-100217784D01*
X195616548Y-100209465D01*
X195488978Y-100196407D01*
X195421053Y-100171943D01*
X195391856Y-100129408D01*
X195380473Y-100062135D01*
X195380370Y-100061247D01*
X195377116Y-99980952D01*
X195407079Y-99936959D01*
X195494292Y-99915809D01*
X195662787Y-99904044D01*
X195961513Y-99888143D01*
X195666024Y-99528077D01*
X195574224Y-99412309D01*
X195438667Y-99208898D01*
X195377226Y-99044930D01*
X195384846Y-98901903D01*
X195456468Y-98761314D01*
X195460601Y-98755602D01*
X195573338Y-98649888D01*
X195719954Y-98564442D01*
X195818642Y-98528500D01*
X195936829Y-98519892D01*
X196078446Y-98565857D01*
G37*
G36*
X198814773Y-101394711D02*
G01*
X198979679Y-101641524D01*
X199106758Y-101835835D01*
X199188507Y-101966340D01*
X199217424Y-102021734D01*
X199205609Y-102061806D01*
X199133260Y-102080108D01*
X198992243Y-102037810D01*
X198779276Y-101933444D01*
X198491081Y-101765541D01*
X198124376Y-101532635D01*
X197859539Y-101359766D01*
X197622824Y-101205500D01*
X197429330Y-101079659D01*
X197294054Y-100991993D01*
X197231992Y-100952257D01*
X197202726Y-100951569D01*
X197157624Y-101028030D01*
X197113423Y-101204861D01*
X197095290Y-101297975D01*
X197046052Y-101550831D01*
X197000409Y-101785239D01*
X196969716Y-101929413D01*
X196933080Y-102027201D01*
X196879181Y-102067321D01*
X196789621Y-102075073D01*
X196724737Y-102072142D01*
X196652256Y-102037292D01*
X196635266Y-101940317D01*
X196636086Y-101912599D01*
X196653341Y-101758553D01*
X196685946Y-101584611D01*
X196702676Y-101506759D01*
X196739804Y-101322277D01*
X196788419Y-101072526D01*
X196844129Y-100780154D01*
X196893132Y-100518114D01*
X197226236Y-100518114D01*
X197227948Y-100576271D01*
X197229877Y-100577755D01*
X197288704Y-100617877D01*
X197415891Y-100702965D01*
X197594508Y-100821728D01*
X197807624Y-100962876D01*
X197841992Y-100985562D01*
X198052670Y-101122994D01*
X198228144Y-101234745D01*
X198350947Y-101309842D01*
X198403615Y-101337313D01*
X198394837Y-101313613D01*
X198337064Y-101216725D01*
X198235116Y-101058186D01*
X198098134Y-100852139D01*
X197935262Y-100612728D01*
X197811120Y-100434036D01*
X197656092Y-100216757D01*
X197527803Y-100043771D01*
X197436979Y-99929444D01*
X197394343Y-99888143D01*
X197390734Y-99889727D01*
X197361224Y-99950976D01*
X197322080Y-100077272D01*
X197281241Y-100235782D01*
X197246647Y-100393673D01*
X197226236Y-100518114D01*
X196893132Y-100518114D01*
X196902539Y-100467811D01*
X196946776Y-100230226D01*
X196998100Y-99957981D01*
X197040989Y-99734299D01*
X197071913Y-99577546D01*
X197087342Y-99506089D01*
X197090168Y-99499441D01*
X197160756Y-99457390D01*
X197287534Y-99440218D01*
X197295375Y-99440241D01*
X197348440Y-99443794D01*
X197399259Y-99459916D01*
X197455582Y-99497888D01*
X197525160Y-99566991D01*
X197615743Y-99676507D01*
X197735082Y-99835715D01*
X197890925Y-100053897D01*
X198091024Y-100340334D01*
X198343129Y-100704307D01*
X198401486Y-100788800D01*
X198619541Y-101106701D01*
X198775865Y-101337313D01*
X198814773Y-101394711D01*
G37*
D12*
%TO.C,J9*%
X203140000Y-94515000D02*
X203140000Y-96315000D01*
X203140000Y-96315000D02*
X202150000Y-96315000D01*
X203140000Y-105485000D02*
X203140000Y-103685000D01*
X204590000Y-94515000D02*
X203140000Y-94515000D01*
X204590000Y-105485000D02*
X203140000Y-105485000D01*
X207410000Y-95785000D02*
X207410000Y-104215000D01*
%TO.C,R7*%
X172012773Y-104549825D02*
X172249825Y-104312773D01*
X172550175Y-105087227D02*
X172787227Y-104850175D01*
%TO.C,J2*%
X182265000Y-93410000D02*
X182265000Y-94860000D01*
X182265000Y-94860000D02*
X184065000Y-94860000D01*
X183535000Y-90590000D02*
X189465000Y-90590000D01*
X184065000Y-94860000D02*
X184065000Y-95850000D01*
X190735000Y-93410000D02*
X190735000Y-94860000D01*
X190735000Y-94860000D02*
X188935000Y-94860000D01*
%TD*%
%LPC*%
D14*
%TO.C,H4*%
X152775000Y-106350000D03*
%TD*%
D15*
%TO.C,J1*%
X183460000Y-103800000D03*
D16*
X184730000Y-103800000D03*
X186000000Y-103800000D03*
X187270000Y-103800000D03*
%TD*%
D14*
%TO.C,H6*%
X197225000Y-106350000D03*
%TD*%
D15*
%TO.C,J6*%
X183460000Y-107550000D03*
D16*
X184730000Y-107550000D03*
X186000000Y-107550000D03*
X187270000Y-107550000D03*
%TD*%
D15*
%TO.C,J7*%
X189770000Y-103800000D03*
D16*
X191040000Y-103800000D03*
X192310000Y-103800000D03*
%TD*%
D14*
%TO.C,H1*%
X171825000Y-93650000D03*
%TD*%
D17*
%TO.C,J4*%
X180225000Y-95150000D03*
X176125000Y-95150000D03*
%TD*%
D15*
%TO.C,J8*%
X190500000Y-107550000D03*
D16*
X191770000Y-107550000D03*
%TD*%
D14*
%TO.C,H3*%
X197225000Y-93650000D03*
%TD*%
%TO.C,H2*%
X178175000Y-106350000D03*
%TD*%
%TO.C,H5*%
X152775000Y-93650000D03*
%TD*%
D17*
%TO.C,J5*%
X169775000Y-104850000D03*
X173875000Y-104850000D03*
%TD*%
D18*
%TO.C,R9*%
X171155008Y-104044992D03*
X172000000Y-103200000D03*
%TD*%
D19*
%TO.C,SW5*%
X161300000Y-96300000D03*
X163840000Y-96300000D03*
X163840000Y-103800000D03*
X161300000Y-103800000D03*
X158760000Y-103800000D03*
X158760000Y-96300000D03*
%TD*%
D18*
%TO.C,R8*%
X170155008Y-103244992D03*
X171000000Y-102400000D03*
%TD*%
D20*
%TO.C,J3*%
X147000000Y-103125000D03*
X147000000Y-101875000D03*
X147000000Y-100625000D03*
X147000000Y-99375000D03*
X147000000Y-98125000D03*
X147000000Y-96875000D03*
D21*
X143800000Y-104975000D03*
X143800000Y-95025000D03*
%TD*%
D22*
%TO.C,U1*%
X173686827Y-102727386D03*
X173333274Y-102373833D03*
X172979720Y-102020280D03*
X172626167Y-101666726D03*
X172272614Y-101313173D03*
X175313173Y-98272614D03*
X175666726Y-98626167D03*
X176020280Y-98979720D03*
X176373833Y-99333274D03*
X176727386Y-99686827D03*
%TD*%
D23*
%TO.C,J9*%
X203000000Y-96875000D03*
X203000000Y-98125000D03*
X203000000Y-99375000D03*
X203000000Y-100625000D03*
X203000000Y-101875000D03*
X203000000Y-103125000D03*
D24*
X206200000Y-95025000D03*
X206200000Y-104975000D03*
%TD*%
D18*
%TO.C,R7*%
X171977504Y-105122496D03*
X172822496Y-104277504D03*
%TD*%
D25*
%TO.C,J2*%
X184625000Y-95000000D03*
X185875000Y-95000000D03*
X187125000Y-95000000D03*
X188375000Y-95000000D03*
D26*
X182775000Y-91800000D03*
X190225000Y-91800000D03*
%TD*%
%LPD*%
M02*
