%TF.GenerationSoftware,KiCad,Pcbnew,9.0.4*%
%TF.CreationDate,2025-11-07T15:23:52-06:00*%
%TF.ProjectId,solenoid_breakoutboard,736f6c65-6e6f-4696-945f-627265616b6f,rev?*%
%TF.SameCoordinates,Original*%
%TF.FileFunction,Copper,L1,Top*%
%TF.FilePolarity,Positive*%
%FSLAX46Y46*%
G04 Gerber Fmt 4.6, Leading zero omitted, Abs format (unit mm)*
G04 Created by KiCad (PCBNEW 9.0.4) date 2025-11-07 15:23:52*
%MOMM*%
%LPD*%
G01*
G04 APERTURE LIST*
G04 Aperture macros list*
%AMRoundRect*
0 Rectangle with rounded corners*
0 $1 Rounding radius*
0 $2 $3 $4 $5 $6 $7 $8 $9 X,Y pos of 4 corners*
0 Add a 4 corners polygon primitive as box body*
4,1,4,$2,$3,$4,$5,$6,$7,$8,$9,$2,$3,0*
0 Add four circle primitives for the rounded corners*
1,1,$1+$1,$2,$3*
1,1,$1+$1,$4,$5*
1,1,$1+$1,$6,$7*
1,1,$1+$1,$8,$9*
0 Add four rect primitives between the rounded corners*
20,1,$1+$1,$2,$3,$4,$5,0*
20,1,$1+$1,$4,$5,$6,$7,0*
20,1,$1+$1,$6,$7,$8,$9,0*
20,1,$1+$1,$8,$9,$2,$3,0*%
G04 Aperture macros list end*
%TA.AperFunction,SMDPad,CuDef*%
%ADD10RoundRect,0.250000X-0.262500X-0.450000X0.262500X-0.450000X0.262500X0.450000X-0.262500X0.450000X0*%
%TD*%
%TA.AperFunction,SMDPad,CuDef*%
%ADD11RoundRect,0.150000X0.825000X0.150000X-0.825000X0.150000X-0.825000X-0.150000X0.825000X-0.150000X0*%
%TD*%
%TA.AperFunction,SMDPad,CuDef*%
%ADD12RoundRect,0.250000X0.262500X0.450000X-0.262500X0.450000X-0.262500X-0.450000X0.262500X-0.450000X0*%
%TD*%
%TA.AperFunction,ComponentPad*%
%ADD13C,2.600000*%
%TD*%
%TA.AperFunction,ComponentPad*%
%ADD14RoundRect,0.249999X0.850001X-0.850001X0.850001X0.850001X-0.850001X0.850001X-0.850001X-0.850001X0*%
%TD*%
%TA.AperFunction,ComponentPad*%
%ADD15C,2.200000*%
%TD*%
%TA.AperFunction,SMDPad,CuDef*%
%ADD16R,1.100000X0.400000*%
%TD*%
%TA.AperFunction,SMDPad,CuDef*%
%ADD17RoundRect,0.250000X0.450000X-0.262500X0.450000X0.262500X-0.450000X0.262500X-0.450000X-0.262500X0*%
%TD*%
%TA.AperFunction,SMDPad,CuDef*%
%ADD18RoundRect,0.250000X-0.450000X0.262500X-0.450000X-0.262500X0.450000X-0.262500X0.450000X0.262500X0*%
%TD*%
%TA.AperFunction,ViaPad*%
%ADD19C,0.600000*%
%TD*%
%TA.AperFunction,Conductor*%
%ADD20C,0.200000*%
%TD*%
G04 APERTURE END LIST*
D10*
%TO.P,R2,1*%
%TO.N,Net-(Q1A-G1)*%
X126837500Y-92000000D03*
%TO.P,R2,2*%
%TO.N,GND*%
X128662500Y-92000000D03*
%TD*%
D11*
%TO.P,Q1,1,S1*%
%TO.N,GND*%
X124700000Y-95405000D03*
%TO.P,Q1,2,G1*%
%TO.N,Net-(Q1A-G1)*%
X124700000Y-94135000D03*
%TO.P,Q1,3,S2*%
%TO.N,GND*%
X124700000Y-92865000D03*
%TO.P,Q1,4,G2*%
%TO.N,Net-(Q1A-G1)*%
X124700000Y-91595000D03*
%TO.P,Q1,5,D2*%
%TO.N,Net-(D1-A)*%
X119750000Y-91595000D03*
%TO.P,Q1,6,D2*%
X119750000Y-92865000D03*
%TO.P,Q1,7,D1*%
X119750000Y-94135000D03*
%TO.P,Q1,8,D1*%
X119750000Y-95405000D03*
%TD*%
D12*
%TO.P,R3,1*%
%TO.N,Net-(Q1A-G1)*%
X120662500Y-75500000D03*
%TO.P,R3,2*%
%TO.N,GND*%
X118837500Y-75500000D03*
%TD*%
D13*
%TO.P,L1,1,1*%
%TO.N,Net-(L1-Pad1)*%
X118000000Y-82750000D03*
%TO.P,L1,2,2*%
%TO.N,+5V*%
X123000000Y-82750000D03*
%TD*%
D14*
%TO.P,D1,1,K*%
%TO.N,+5V*%
X128000000Y-85410000D03*
D15*
%TO.P,D1,2,A*%
%TO.N,Net-(D1-A)*%
X128000000Y-75250000D03*
%TD*%
D16*
%TO.P,U1,1,IO0*%
%TO.N,Net-(U1-IO0)*%
X124600000Y-87775000D03*
%TO.P,U1,2,IO1*%
X124600000Y-88425000D03*
%TO.P,U1,3,IO2*%
%TO.N,GND*%
X124600000Y-89075000D03*
%TO.P,U1,4,VSS*%
X124600000Y-89725000D03*
%TO.P,U1,5,IO3*%
X128900000Y-89725000D03*
%TO.P,U1,6,SCL*%
%TO.N,scl*%
X128900000Y-89075000D03*
%TO.P,U1,7,SDA*%
%TO.N,sda*%
X128900000Y-88425000D03*
%TO.P,U1,8,VDD*%
%TO.N,+3.3V*%
X128900000Y-87775000D03*
%TD*%
D17*
%TO.P,R1,1*%
%TO.N,Net-(U1-IO0)*%
X127000000Y-95662500D03*
%TO.P,R1,2*%
%TO.N,Net-(Q1A-G1)*%
X127000000Y-93837500D03*
%TD*%
D18*
%TO.P,R4,1*%
%TO.N,Net-(D1-A)*%
X117250000Y-93587500D03*
%TO.P,R4,2*%
%TO.N,Net-(L1-Pad1)*%
X117250000Y-95412500D03*
%TD*%
D19*
%TO.N,Net-(D1-A)*%
X120000000Y-91500000D03*
%TO.N,Net-(Q1A-G1)*%
X122750000Y-75750000D03*
X118250000Y-90750000D03*
%TO.N,GND*%
X126000000Y-78750000D03*
X122750000Y-94000000D03*
X121750000Y-89750000D03*
%TO.N,Net-(U1-IO0)*%
X122584692Y-89140929D03*
X128500000Y-95500000D03*
%TO.N,Net-(L1-Pad1)*%
X116250000Y-92500000D03*
%TD*%
D20*
%TO.N,Net-(D1-A)*%
X120000000Y-91500000D02*
X119775000Y-91725000D01*
X117250000Y-93750000D02*
X117250000Y-93587500D01*
X119775000Y-95310000D02*
X119715000Y-95250000D01*
X119775000Y-91725000D02*
X119775000Y-95310000D01*
X119715000Y-95250000D02*
X118750000Y-95250000D01*
X118750000Y-95250000D02*
X117250000Y-93750000D01*
%TO.N,+5V*%
X123000000Y-82750000D02*
X125660000Y-85410000D01*
X125660000Y-85410000D02*
X128000000Y-85410000D01*
%TO.N,Net-(Q1A-G1)*%
X122250000Y-75750000D02*
X122000000Y-75500000D01*
X126750000Y-91000000D02*
X124750000Y-91000000D01*
X126837500Y-92000000D02*
X126837500Y-92087500D01*
X122750000Y-75750000D02*
X122250000Y-75750000D01*
X126837500Y-92000000D02*
X126837500Y-91087500D01*
X126837500Y-91087500D02*
X126750000Y-91000000D01*
X124750000Y-91000000D02*
X124500000Y-90750000D01*
X122000000Y-75500000D02*
X120662500Y-75500000D01*
X127000000Y-92250000D02*
X127000000Y-94087500D01*
X124500000Y-90750000D02*
X118250000Y-90750000D01*
X126837500Y-92087500D02*
X127000000Y-92250000D01*
%TO.N,GND*%
X128900000Y-91762500D02*
X128662500Y-92000000D01*
X121750000Y-89750000D02*
X124575000Y-89750000D01*
X128662500Y-92000000D02*
X128662500Y-94087500D01*
X126000000Y-78750000D02*
X125000000Y-77750000D01*
X123250001Y-95310000D02*
X122750000Y-94809999D01*
X124575000Y-89750000D02*
X124600000Y-89725000D01*
X123480000Y-92770000D02*
X124725000Y-92770000D01*
X128900000Y-89725000D02*
X128900000Y-91762500D01*
X122750000Y-93500000D02*
X123480000Y-92770000D01*
X122750000Y-94809999D02*
X122750000Y-94000000D01*
X128662500Y-94087500D02*
X128000000Y-94750000D01*
X117000000Y-77250000D02*
X118750000Y-75500000D01*
X124725000Y-95310000D02*
X123250001Y-95310000D01*
X126156968Y-94750000D02*
X126000000Y-94906968D01*
X126000000Y-94906968D02*
X125128032Y-94906968D01*
X128000000Y-94750000D02*
X126156968Y-94750000D01*
X118750000Y-75500000D02*
X118837500Y-75500000D01*
X122750000Y-93500000D02*
X122750000Y-94000000D01*
X124600000Y-89075000D02*
X124600000Y-89725000D01*
X125128032Y-94906968D02*
X124725000Y-95310000D01*
X125000000Y-77750000D02*
X124750000Y-77750000D01*
X124250000Y-77250000D02*
X117000000Y-77250000D01*
X124750000Y-77750000D02*
X124250000Y-77250000D01*
%TO.N,Net-(U1-IO0)*%
X122584692Y-89140929D02*
X123300621Y-88425000D01*
X128337500Y-95662500D02*
X128500000Y-95500000D01*
X127000000Y-95662500D02*
X128337500Y-95662500D01*
X123300621Y-88425000D02*
X124600000Y-88425000D01*
X124600000Y-88425000D02*
X124600000Y-87775000D01*
%TO.N,Net-(L1-Pad1)*%
X116000000Y-95250000D02*
X117087500Y-95250000D01*
X116000000Y-92750000D02*
X116000000Y-95250000D01*
X116250000Y-92500000D02*
X116000000Y-92750000D01*
X117087500Y-95250000D02*
X117250000Y-95412500D01*
%TD*%
M02*
