%TF.GenerationSoftware,KiCad,Pcbnew,9.0.7*%
%TF.CreationDate,2026-03-25T22:21:48-05:00*%
%TF.ProjectId,ghost_host,67686f73-745f-4686-9f73-742e6b696361,rev?*%
%TF.SameCoordinates,Original*%
%TF.FileFunction,Soldermask,Top*%
%TF.FilePolarity,Negative*%
%FSLAX46Y46*%
G04 Gerber Fmt 4.6, Leading zero omitted, Abs format (unit mm)*
G04 Created by KiCad (PCBNEW 9.0.7) date 2026-03-25 22:21:48*
%MOMM*%
%LPD*%
G01*
G04 APERTURE LIST*
G04 Aperture macros list*
%AMRoundRect*
0 Rectangle with rounded corners*
0 $1 Rounding radius*
0 $2 $3 $4 $5 $6 $7 $8 $9 X,Y pos of 4 corners*
0 Add a 4 corners polygon primitive as box body*
4,1,4,$2,$3,$4,$5,$6,$7,$8,$9,$2,$3,0*
0 Add four circle primitives for the rounded corners*
1,1,$1+$1,$2,$3*
1,1,$1+$1,$4,$5*
1,1,$1+$1,$6,$7*
1,1,$1+$1,$8,$9*
0 Add four rect primitives between the rounded corners*
20,1,$1+$1,$2,$3,$4,$5,0*
20,1,$1+$1,$4,$5,$6,$7,0*
20,1,$1+$1,$6,$7,$8,$9,0*
20,1,$1+$1,$8,$9,$2,$3,0*%
G04 Aperture macros list end*
%ADD10RoundRect,0.250000X-0.250000X-1.150000X0.250000X-1.150000X0.250000X1.150000X-0.250000X1.150000X0*%
%ADD11RoundRect,0.150000X-0.150000X-0.700000X0.150000X-0.700000X0.150000X0.700000X-0.150000X0.700000X0*%
%ADD12RoundRect,0.250000X0.250000X1.150000X-0.250000X1.150000X-0.250000X-1.150000X0.250000X-1.150000X0*%
%ADD13RoundRect,0.150000X0.150000X0.700000X-0.150000X0.700000X-0.150000X-0.700000X0.150000X-0.700000X0*%
%ADD14RoundRect,0.237500X-0.250000X-0.237500X0.250000X-0.237500X0.250000X0.237500X-0.250000X0.237500X0*%
%ADD15C,1.000000*%
%ADD16C,0.900000*%
%ADD17C,9.000000*%
%ADD18RoundRect,0.237500X0.250000X0.237500X-0.250000X0.237500X-0.250000X-0.237500X0.250000X-0.237500X0*%
%ADD19RoundRect,0.090000X0.660000X0.360000X-0.660000X0.360000X-0.660000X-0.360000X0.660000X-0.360000X0*%
%ADD20R,1.700000X1.700000*%
%ADD21C,1.700000*%
G04 APERTURE END LIST*
D10*
%TO.C,J2*%
X111525001Y-100300000D03*
X104075001Y-100300000D03*
D11*
X109675001Y-103650000D03*
X108425001Y-103650000D03*
X107175001Y-103650000D03*
X105925001Y-103650000D03*
%TD*%
D12*
%TO.C,J3*%
X129480170Y-75825001D03*
X136930170Y-75825001D03*
D13*
X131330170Y-72475001D03*
X132580170Y-72475001D03*
X133830170Y-72475001D03*
X135080170Y-72475001D03*
%TD*%
D12*
%TO.C,J5*%
X154875000Y-75825001D03*
X162325000Y-75825001D03*
D13*
X156725000Y-72475001D03*
X157975000Y-72475001D03*
X159225000Y-72475001D03*
X160475000Y-72475001D03*
%TD*%
D12*
%TO.C,J8*%
X180275000Y-75825001D03*
X187725000Y-75825001D03*
D13*
X182125000Y-72475001D03*
X183375000Y-72475001D03*
X184625000Y-72475001D03*
X185875000Y-72475001D03*
%TD*%
D10*
%TO.C,J11*%
X136925000Y-100300000D03*
X129475000Y-100300000D03*
D11*
X135075000Y-103650000D03*
X133825000Y-103650000D03*
X132575000Y-103650000D03*
X131325000Y-103650000D03*
%TD*%
D12*
%TO.C,J14*%
X104075000Y-75800000D03*
X111525000Y-75800000D03*
D13*
X105925000Y-72450000D03*
X107175000Y-72450000D03*
X108425000Y-72450000D03*
X109675000Y-72450000D03*
%TD*%
D10*
%TO.C,J17*%
X187724999Y-100300000D03*
X180274999Y-100300000D03*
D11*
X185874999Y-103650000D03*
X184624999Y-103650000D03*
X183374999Y-103650000D03*
X182124999Y-103650000D03*
%TD*%
D10*
%TO.C,J20*%
X162324999Y-100300000D03*
X154874999Y-100300000D03*
D11*
X160474999Y-103650000D03*
X159224999Y-103650000D03*
X157974999Y-103650000D03*
X156724999Y-103650000D03*
%TD*%
D14*
%TO.C,R7*%
X108387501Y-111349998D03*
X110212501Y-111349998D03*
%TD*%
D15*
%TO.C,SDA4*%
X186125000Y-62925000D03*
%TD*%
D14*
%TO.C,R49*%
X184587500Y-111423850D03*
X186412500Y-111423850D03*
%TD*%
D16*
%TO.C,H4*%
X83505000Y-113565000D03*
X84493515Y-111178515D03*
X84493515Y-115951485D03*
X86880000Y-110190000D03*
D17*
X86880000Y-113565000D03*
D16*
X86880000Y-116940000D03*
X89266485Y-111178515D03*
X89266485Y-115951485D03*
X90255000Y-113565000D03*
%TD*%
D18*
%TO.C,R18*%
X158037500Y-64925000D03*
X156212500Y-64925000D03*
%TD*%
D15*
%TO.C,DSCL-8*%
X176799999Y-118873852D03*
%TD*%
D16*
%TO.C,H2*%
X83505000Y-62765000D03*
X84493515Y-60378515D03*
X84493515Y-65151485D03*
X86880000Y-59390000D03*
D17*
X86880000Y-62765000D03*
D16*
X86880000Y-66140000D03*
X89266485Y-60378515D03*
X89266485Y-65151485D03*
X90255000Y-62765000D03*
%TD*%
D15*
%TO.C,DSCL+7*%
X151400000Y-120800000D03*
%TD*%
%TO.C,SCL2*%
X138255170Y-64875001D03*
%TD*%
%TO.C,SCL1*%
X112850000Y-64850000D03*
%TD*%
D16*
%TO.C,H1*%
X197805000Y-62765000D03*
X198793515Y-60378515D03*
X198793515Y-65151485D03*
X201180000Y-59390000D03*
D17*
X201180000Y-62765000D03*
D16*
X201180000Y-66140000D03*
X203566485Y-60378515D03*
X203566485Y-65151485D03*
X204555000Y-62765000D03*
%TD*%
D14*
%TO.C,R5*%
X130805170Y-63375001D03*
X132630170Y-63375001D03*
%TD*%
D15*
%TO.C,DSDA-7*%
X165900000Y-118800002D03*
%TD*%
%TO.C,SDA2*%
X135355170Y-62925001D03*
%TD*%
%TO.C,SDA1*%
X109950000Y-62900000D03*
%TD*%
D14*
%TO.C,R4*%
X130792670Y-61775001D03*
X132617670Y-61775001D03*
%TD*%
%TO.C,R31*%
X133787500Y-111350000D03*
X135612500Y-111350000D03*
%TD*%
%TO.C,R39*%
X105400000Y-63350000D03*
X107225000Y-63350000D03*
%TD*%
D15*
%TO.C,DSDA+7*%
X165899999Y-120800002D03*
%TD*%
%TO.C,SCL4*%
X189025000Y-64875000D03*
%TD*%
%TO.C,DSCL-5*%
X100600000Y-118800000D03*
%TD*%
D18*
%TO.C,R6*%
X132617670Y-64975001D03*
X130792670Y-64975001D03*
%TD*%
D16*
%TO.C,H5*%
X163080000Y-91539999D03*
X160693515Y-90551485D03*
X165466485Y-90551485D03*
X159705001Y-88165000D03*
D17*
X163080000Y-88165000D03*
D16*
X166454999Y-88165000D03*
X160693515Y-85778515D03*
X165466485Y-85778515D03*
X163080000Y-84790001D03*
%TD*%
D14*
%TO.C,R17*%
X156225000Y-63325000D03*
X158050000Y-63325000D03*
%TD*%
D15*
%TO.C,DSCL-6*%
X125999999Y-118800002D03*
%TD*%
D16*
%TO.C,H6*%
X175780000Y-91539999D03*
X173393515Y-90551485D03*
X178166485Y-90551485D03*
X172405001Y-88165000D03*
D17*
X175780000Y-88165000D03*
D16*
X179154999Y-88165000D03*
X173393515Y-85778515D03*
X178166485Y-85778515D03*
X175780000Y-84790001D03*
%TD*%
D18*
%TO.C,R1*%
X110212501Y-114550000D03*
X108387501Y-114550000D03*
%TD*%
D15*
%TO.C,DSCL-1*%
X115000000Y-57500000D03*
%TD*%
%TO.C,DSCL-2*%
X140405170Y-57525001D03*
%TD*%
%TO.C,DSCL+4*%
X191175000Y-55525000D03*
%TD*%
%TO.C,DSDA+3*%
X151325000Y-55475000D03*
%TD*%
%TO.C,DSDA-2*%
X125905170Y-57525001D03*
%TD*%
%TO.C,SCL7*%
X153550000Y-111450000D03*
%TD*%
%TO.C,SDA3*%
X160775000Y-62875000D03*
%TD*%
%TO.C,SCL6*%
X128150000Y-111450000D03*
%TD*%
%TO.C,DSCL-4*%
X191175000Y-57525000D03*
%TD*%
%TO.C,DSDA-3*%
X151325000Y-57475000D03*
%TD*%
D18*
%TO.C,R40*%
X107212500Y-64950000D03*
X105387500Y-64950000D03*
%TD*%
D15*
%TO.C,DSDA+5*%
X115100000Y-120800000D03*
%TD*%
%TO.C,DSCL-3*%
X165825000Y-57475000D03*
%TD*%
D14*
%TO.C,R58*%
X159187500Y-111350000D03*
X161012500Y-111350000D03*
%TD*%
D18*
%TO.C,R12*%
X183387500Y-64975000D03*
X181562500Y-64975000D03*
%TD*%
D14*
%TO.C,R8*%
X181562500Y-61775000D03*
X183387500Y-61775000D03*
%TD*%
D18*
%TO.C,R56*%
X161012500Y-114550002D03*
X159187500Y-114550002D03*
%TD*%
D15*
%TO.C,DSCL+3*%
X165825000Y-55475000D03*
%TD*%
D19*
%TO.C,D3*%
X148800000Y-95950000D03*
X148800000Y-92650000D03*
X143900000Y-92650000D03*
X143900000Y-95950000D03*
%TD*%
D14*
%TO.C,R38*%
X105387500Y-61750000D03*
X107212500Y-61750000D03*
%TD*%
%TO.C,R10*%
X181575000Y-63375000D03*
X183400000Y-63375000D03*
%TD*%
D15*
%TO.C,SCL5*%
X102750001Y-111449998D03*
%TD*%
%TO.C,DSCL+8*%
X176800000Y-120873850D03*
%TD*%
D18*
%TO.C,R57*%
X161000000Y-112950002D03*
X159175000Y-112950002D03*
%TD*%
D15*
%TO.C,DSCL+2*%
X140405170Y-55525001D03*
%TD*%
%TO.C,SDA6*%
X131050000Y-113400002D03*
%TD*%
D18*
%TO.C,R29*%
X135612500Y-114550002D03*
X133787500Y-114550002D03*
%TD*%
D20*
%TO.C,J1*%
X184550000Y-85300000D03*
D21*
X184550000Y-87840000D03*
X184550000Y-90380000D03*
%TD*%
D18*
%TO.C,R30*%
X135600000Y-112950002D03*
X133775000Y-112950002D03*
%TD*%
D15*
%TO.C,DSDA-6*%
X140500000Y-118800002D03*
%TD*%
%TO.C,SDA5*%
X105650001Y-113400000D03*
%TD*%
%TO.C,DSDA+8*%
X191299999Y-120873852D03*
%TD*%
%TO.C,DSCL+6*%
X126000000Y-120800000D03*
%TD*%
%TO.C,DSDA+1*%
X100500000Y-55500000D03*
%TD*%
%TO.C,SDA7*%
X156450000Y-113400002D03*
%TD*%
%TO.C,SCL3*%
X163675000Y-64825000D03*
%TD*%
%TO.C,DSDA-4*%
X176675000Y-57525000D03*
%TD*%
%TO.C,DSCL-7*%
X151399999Y-118800002D03*
%TD*%
D18*
%TO.C,R48*%
X186400000Y-113023852D03*
X184575000Y-113023852D03*
%TD*%
D15*
%TO.C,SDA8*%
X181850000Y-113473852D03*
%TD*%
%TO.C,DSDA-1*%
X100500000Y-57500000D03*
%TD*%
D14*
%TO.C,R16*%
X156212500Y-61725000D03*
X158037500Y-61725000D03*
%TD*%
D18*
%TO.C,R2*%
X110200001Y-112950000D03*
X108375001Y-112950000D03*
%TD*%
D16*
%TO.C,H3*%
X197805000Y-113565000D03*
X198793515Y-111178515D03*
X198793515Y-115951485D03*
X201180000Y-110190000D03*
D17*
X201180000Y-113565000D03*
D16*
X201180000Y-116940000D03*
X203566485Y-111178515D03*
X203566485Y-115951485D03*
X204555000Y-113565000D03*
%TD*%
D15*
%TO.C,DSDA-5*%
X115100001Y-118800000D03*
%TD*%
%TO.C,DSDA-8*%
X191300000Y-118873852D03*
%TD*%
%TO.C,DSCL+5*%
X100600001Y-120799998D03*
%TD*%
%TO.C,DSDA+4*%
X176675000Y-55525000D03*
%TD*%
%TO.C,DSDA+2*%
X125905170Y-55525001D03*
%TD*%
%TO.C,DSCL+1*%
X115000000Y-55500000D03*
%TD*%
%TO.C,DSDA+6*%
X140499999Y-120800002D03*
%TD*%
%TO.C,SCL8*%
X178950000Y-111523850D03*
%TD*%
D19*
%TO.C,D2*%
X138500000Y-95950000D03*
X138500000Y-92650000D03*
X133600000Y-92650000D03*
X133600000Y-95950000D03*
%TD*%
D18*
%TO.C,R47*%
X184575000Y-114650000D03*
X186400000Y-114650000D03*
%TD*%
M02*
