%TF.GenerationSoftware,KiCad,Pcbnew,9.0.7*%
%TF.CreationDate,2026-03-25T22:21:49-05:00*%
%TF.ProjectId,ghost_host,67686f73-745f-4686-9f73-742e6b696361,rev?*%
%TF.SameCoordinates,Original*%
%TF.FileFunction,Paste,Bot*%
%TF.FilePolarity,Positive*%
%FSLAX46Y46*%
G04 Gerber Fmt 4.6, Leading zero omitted, Abs format (unit mm)*
G04 Created by KiCad (PCBNEW 9.0.7) date 2026-03-25 22:21:49*
%MOMM*%
%LPD*%
G01*
G04 APERTURE LIST*
G04 Aperture macros list*
%AMRoundRect*
0 Rectangle with rounded corners*
0 $1 Rounding radius*
0 $2 $3 $4 $5 $6 $7 $8 $9 X,Y pos of 4 corners*
0 Add a 4 corners polygon primitive as box body*
4,1,4,$2,$3,$4,$5,$6,$7,$8,$9,$2,$3,0*
0 Add four circle primitives for the rounded corners*
1,1,$1+$1,$2,$3*
1,1,$1+$1,$4,$5*
1,1,$1+$1,$6,$7*
1,1,$1+$1,$8,$9*
0 Add four rect primitives between the rounded corners*
20,1,$1+$1,$2,$3,$4,$5,0*
20,1,$1+$1,$4,$5,$6,$7,0*
20,1,$1+$1,$6,$7,$8,$9,0*
20,1,$1+$1,$8,$9,$2,$3,0*%
G04 Aperture macros list end*
%ADD10RoundRect,0.150000X0.150000X0.700000X-0.150000X0.700000X-0.150000X-0.700000X0.150000X-0.700000X0*%
%ADD11RoundRect,0.250000X0.250000X1.100000X-0.250000X1.100000X-0.250000X-1.100000X0.250000X-1.100000X0*%
%ADD12RoundRect,0.250000X-0.250000X-1.100000X0.250000X-1.100000X0.250000X1.100000X-0.250000X1.100000X0*%
%ADD13RoundRect,0.150000X-0.150000X-0.700000X0.150000X-0.700000X0.150000X0.700000X-0.150000X0.700000X0*%
%ADD14RoundRect,0.225000X-0.250000X0.225000X-0.250000X-0.225000X0.250000X-0.225000X0.250000X0.225000X0*%
%ADD15RoundRect,0.237500X-0.237500X0.250000X-0.237500X-0.250000X0.237500X-0.250000X0.237500X0.250000X0*%
%ADD16RoundRect,0.237500X0.237500X-0.250000X0.237500X0.250000X-0.237500X0.250000X-0.237500X-0.250000X0*%
%ADD17RoundRect,0.225000X0.250000X-0.225000X0.250000X0.225000X-0.250000X0.225000X-0.250000X-0.225000X0*%
%ADD18RoundRect,0.267411X-0.687629X-1.732589X0.687629X-1.732589X0.687629X1.732589X-0.687629X1.732589X0*%
%ADD19R,0.250000X1.100000*%
%ADD20RoundRect,0.250000X0.800000X-0.450000X0.800000X0.450000X-0.800000X0.450000X-0.800000X-0.450000X0*%
G04 APERTURE END LIST*
D10*
%TO.C,J21*%
X187124999Y-117364952D03*
X185874999Y-117364952D03*
X184624999Y-117364952D03*
X183374999Y-117364952D03*
X182124999Y-117364952D03*
X180874999Y-117364952D03*
D11*
X188974999Y-120564952D03*
X179024999Y-120564952D03*
%TD*%
%TO.C,J4*%
X102825000Y-120564952D03*
X112775000Y-120564952D03*
D10*
X104675000Y-117364952D03*
X105925000Y-117364952D03*
X107175000Y-117364952D03*
X108425000Y-117364952D03*
X109675000Y-117364952D03*
X110925000Y-117364952D03*
%TD*%
D12*
%TO.C,J6*%
X138180170Y-55765000D03*
X128230170Y-55765000D03*
D13*
X136330170Y-58965000D03*
X135080170Y-58965000D03*
X133830170Y-58965000D03*
X132580170Y-58965000D03*
X131330170Y-58965000D03*
X130080170Y-58965000D03*
%TD*%
D12*
%TO.C,J9*%
X163600000Y-55765000D03*
X153650000Y-55765000D03*
D13*
X161750000Y-58965000D03*
X160500000Y-58965000D03*
X159250000Y-58965000D03*
X158000000Y-58965000D03*
X156750000Y-58965000D03*
X155500000Y-58965000D03*
%TD*%
D12*
%TO.C,J12*%
X188950000Y-55765000D03*
X179000000Y-55765000D03*
D13*
X187100000Y-58965000D03*
X185850000Y-58965000D03*
X184600000Y-58965000D03*
X183350000Y-58965000D03*
X182100000Y-58965000D03*
X180850000Y-58965000D03*
%TD*%
D11*
%TO.C,J15*%
X128224999Y-120564952D03*
X138174999Y-120564952D03*
D10*
X130074999Y-117364952D03*
X131324999Y-117364952D03*
X132574999Y-117364952D03*
X133824999Y-117364952D03*
X135074999Y-117364952D03*
X136324999Y-117364952D03*
%TD*%
D12*
%TO.C,J18*%
X112775000Y-55765000D03*
X102825000Y-55765000D03*
D13*
X110925000Y-58965000D03*
X109675000Y-58965000D03*
X108425000Y-58965000D03*
X107175000Y-58965000D03*
X105925000Y-58965000D03*
X104675000Y-58965000D03*
%TD*%
D11*
%TO.C,J23*%
X153624999Y-120564952D03*
X163574999Y-120564952D03*
D10*
X155474999Y-117364952D03*
X156724999Y-117364952D03*
X157974999Y-117364952D03*
X159224999Y-117364952D03*
X160474999Y-117364952D03*
X161724999Y-117364952D03*
%TD*%
D14*
%TO.C,C1*%
X98100001Y-120650593D03*
X98100001Y-119100593D03*
%TD*%
D15*
%TO.C,R14*%
X191975000Y-68612500D03*
X191975000Y-70437500D03*
%TD*%
%TO.C,R55*%
X189700000Y-106161350D03*
X189700000Y-107986350D03*
%TD*%
D16*
%TO.C,R9*%
X99800001Y-107712500D03*
X99800001Y-105887500D03*
%TD*%
%TO.C,R20*%
X164825000Y-70387500D03*
X164825000Y-68562500D03*
%TD*%
D15*
%TO.C,R51*%
X177800000Y-105961352D03*
X177800000Y-107786352D03*
%TD*%
D16*
%TO.C,R71*%
X125705170Y-70237501D03*
X125705170Y-68412501D03*
%TD*%
%TO.C,R32*%
X125200000Y-107712502D03*
X125200000Y-105887502D03*
%TD*%
D17*
%TO.C,C20*%
X170925000Y-70000000D03*
X170925000Y-68450000D03*
%TD*%
D16*
%TO.C,R24*%
X152925000Y-70187500D03*
X152925000Y-68362500D03*
%TD*%
D17*
%TO.C,C19*%
X145575000Y-69950000D03*
X145575000Y-68400000D03*
%TD*%
D15*
%TO.C,R63*%
X166100000Y-106087500D03*
X166100000Y-107912500D03*
%TD*%
D18*
%TO.C,U9*%
X97310000Y-79165000D03*
X99850000Y-79165000D03*
X102390000Y-79165000D03*
X104930000Y-79165000D03*
X107470000Y-79165000D03*
X110010000Y-79165000D03*
X112550000Y-79165000D03*
X115090000Y-79165000D03*
X117630000Y-79165000D03*
X120170000Y-79165000D03*
X122710000Y-79165000D03*
X125250000Y-79165000D03*
X127790000Y-79165000D03*
X97310000Y-96165000D03*
X99850000Y-96165000D03*
X102390000Y-96165000D03*
X104930000Y-96165000D03*
X107470000Y-96165000D03*
X110010000Y-96165000D03*
X112550000Y-96165000D03*
X115090000Y-96165000D03*
X117630000Y-96165000D03*
X120170000Y-96165000D03*
X122710000Y-96165000D03*
X125250000Y-96165000D03*
X127790000Y-96165000D03*
%TD*%
D15*
%TO.C,R54*%
X191500000Y-106161350D03*
X191500000Y-107986350D03*
%TD*%
%TO.C,R22*%
X149325000Y-68375000D03*
X149325000Y-70200000D03*
%TD*%
D14*
%TO.C,C21*%
X146249999Y-106325002D03*
X146249999Y-107875002D03*
%TD*%
D16*
%TO.C,R62*%
X167899999Y-107900002D03*
X167899999Y-106075002D03*
%TD*%
D15*
%TO.C,R70*%
X123905170Y-68425001D03*
X123905170Y-70250001D03*
%TD*%
%TO.C,R36*%
X140700000Y-106087500D03*
X140700000Y-107912500D03*
%TD*%
D19*
%TO.C,U6*%
X106050001Y-67850000D03*
X106550001Y-67850000D03*
X107050001Y-67850000D03*
X107550001Y-67850000D03*
X108050001Y-67850000D03*
X108050001Y-72150000D03*
X107550001Y-72150000D03*
X107050001Y-72150000D03*
X106550001Y-72150000D03*
X106050001Y-72150000D03*
%TD*%
D17*
%TO.C,C18*%
X120155170Y-70012501D03*
X120155170Y-68462501D03*
%TD*%
%TO.C,C10*%
X121855170Y-69987501D03*
X121855170Y-68437501D03*
%TD*%
D14*
%TO.C,C16*%
X169950000Y-106337502D03*
X169950000Y-107887502D03*
%TD*%
D20*
%TO.C,D1*%
X95500000Y-105200000D03*
X95500000Y-100800000D03*
%TD*%
D19*
%TO.C,U8*%
X160349999Y-108450002D03*
X159849999Y-108450002D03*
X159349999Y-108450003D03*
X158849999Y-108450002D03*
X158349999Y-108450002D03*
X158349999Y-104150002D03*
X158849999Y-104150002D03*
X159349999Y-104150001D03*
X159849999Y-104150002D03*
X160349999Y-104150002D03*
%TD*%
D16*
%TO.C,R46*%
X102100000Y-70212500D03*
X102100000Y-68387500D03*
%TD*%
D17*
%TO.C,C3*%
X168325000Y-70250000D03*
X168325000Y-68700000D03*
%TD*%
D15*
%TO.C,R65*%
X115300001Y-106087498D03*
X115300001Y-107912498D03*
%TD*%
%TO.C,R33*%
X127000000Y-105887502D03*
X127000000Y-107712502D03*
%TD*%
D19*
%TO.C,U3*%
X156875001Y-67825000D03*
X157375001Y-67825000D03*
X157875001Y-67825000D03*
X158375001Y-67825000D03*
X158875001Y-67825000D03*
X158875001Y-72125000D03*
X158375001Y-72125000D03*
X157875001Y-72125000D03*
X157375001Y-72125000D03*
X156875001Y-72125000D03*
%TD*%
D15*
%TO.C,R60*%
X152400000Y-105887502D03*
X152400000Y-107712502D03*
%TD*%
D17*
%TO.C,C4*%
X193675000Y-70300000D03*
X193675000Y-68750000D03*
%TD*%
D16*
%TO.C,R50*%
X176000000Y-107786352D03*
X176000000Y-105961352D03*
%TD*%
%TO.C,R27*%
X176475000Y-70237500D03*
X176475000Y-68412500D03*
%TD*%
D15*
%TO.C,R52*%
X179599999Y-105961352D03*
X179599999Y-107786352D03*
%TD*%
D16*
%TO.C,R42*%
X114000000Y-70412500D03*
X114000000Y-68587500D03*
%TD*%
%TO.C,R69*%
X137605170Y-70437501D03*
X137605170Y-68612501D03*
%TD*%
D15*
%TO.C,R44*%
X98500000Y-68400000D03*
X98500000Y-70225000D03*
%TD*%
D17*
%TO.C,C12*%
X172625000Y-69987500D03*
X172625000Y-68437500D03*
%TD*%
D16*
%TO.C,R72*%
X127505170Y-70237501D03*
X127505170Y-68412501D03*
%TD*%
D15*
%TO.C,R64*%
X164300000Y-106087500D03*
X164300000Y-107912500D03*
%TD*%
D16*
%TO.C,R26*%
X188375000Y-70437500D03*
X188375000Y-68612500D03*
%TD*%
D15*
%TO.C,R11*%
X101600001Y-105887500D03*
X101600001Y-107712500D03*
%TD*%
D14*
%TO.C,C8*%
X148900000Y-106025000D03*
X148900000Y-107575000D03*
%TD*%
%TO.C,C7*%
X174300000Y-106098850D03*
X174300000Y-107648850D03*
%TD*%
D16*
%TO.C,R43*%
X112200000Y-70412500D03*
X112200000Y-68587500D03*
%TD*%
%TO.C,R28*%
X178275000Y-70237500D03*
X178275000Y-68412500D03*
%TD*%
D14*
%TO.C,C15*%
X195400000Y-109473850D03*
X195400000Y-111023850D03*
%TD*%
D19*
%TO.C,U1*%
X109550000Y-108450000D03*
X109050000Y-108450000D03*
X108550000Y-108450001D03*
X108050000Y-108450000D03*
X107550000Y-108450000D03*
X107550000Y-104150000D03*
X108050000Y-104150000D03*
X108550000Y-104149999D03*
X109050000Y-104150000D03*
X109550000Y-104150000D03*
%TD*%
%TO.C,U5*%
X134949999Y-108450002D03*
X134449999Y-108450002D03*
X133949999Y-108450003D03*
X133449999Y-108450002D03*
X132949999Y-108450002D03*
X132949999Y-104150002D03*
X133449999Y-104150002D03*
X133949999Y-104150001D03*
X134449999Y-104150002D03*
X134949999Y-104150002D03*
%TD*%
D14*
%TO.C,C9*%
X119150001Y-106337500D03*
X119150001Y-107887500D03*
%TD*%
D15*
%TO.C,R34*%
X128799999Y-105887502D03*
X128799999Y-107712502D03*
%TD*%
%TO.C,R3*%
X174675000Y-68425000D03*
X174675000Y-70250000D03*
%TD*%
D16*
%TO.C,R53*%
X193299999Y-107973852D03*
X193299999Y-106148852D03*
%TD*%
%TO.C,R15*%
X117100000Y-107900000D03*
X117100000Y-106075000D03*
%TD*%
D17*
%TO.C,C22*%
X94750000Y-69975000D03*
X94750000Y-68425000D03*
%TD*%
D16*
%TO.C,R25*%
X190175000Y-70437500D03*
X190175000Y-68612500D03*
%TD*%
D19*
%TO.C,U7*%
X185749999Y-108523852D03*
X185249999Y-108523852D03*
X184749999Y-108523853D03*
X184249999Y-108523852D03*
X183749999Y-108523852D03*
X183749999Y-104223852D03*
X184249999Y-104223852D03*
X184749999Y-104223851D03*
X185249999Y-104223852D03*
X185749999Y-104223852D03*
%TD*%
D16*
%TO.C,R59*%
X150600000Y-107712502D03*
X150600000Y-105887502D03*
%TD*%
D19*
%TO.C,U2*%
X131455171Y-67875001D03*
X131955171Y-67875001D03*
X132455171Y-67875001D03*
X132955171Y-67875001D03*
X133455171Y-67875001D03*
X133455171Y-72175001D03*
X132955171Y-72175001D03*
X132455171Y-72175001D03*
X131955171Y-72175001D03*
X131455171Y-72175001D03*
%TD*%
D17*
%TO.C,C23*%
X195400000Y-114973850D03*
X195400000Y-113423850D03*
%TD*%
D14*
%TO.C,C24*%
X171649999Y-106325002D03*
X171649999Y-107875002D03*
%TD*%
D15*
%TO.C,R41*%
X115800000Y-68587500D03*
X115800000Y-70412500D03*
%TD*%
D17*
%TO.C,C14*%
X96450000Y-69962500D03*
X96450000Y-68412500D03*
%TD*%
D15*
%TO.C,R19*%
X166625000Y-68562500D03*
X166625000Y-70387500D03*
%TD*%
%TO.C,R13*%
X103400000Y-105887500D03*
X103400000Y-107712500D03*
%TD*%
%TO.C,R61*%
X154199999Y-105887502D03*
X154199999Y-107712502D03*
%TD*%
D14*
%TO.C,C5*%
X123500000Y-106025000D03*
X123500000Y-107575000D03*
%TD*%
D16*
%TO.C,R45*%
X100300000Y-70212500D03*
X100300000Y-68387500D03*
%TD*%
D19*
%TO.C,U4*%
X182225001Y-67875000D03*
X182725001Y-67875000D03*
X183225001Y-67875000D03*
X183725001Y-67875000D03*
X184225001Y-67875000D03*
X184225001Y-72175000D03*
X183725001Y-72175000D03*
X183225001Y-72175000D03*
X182725001Y-72175000D03*
X182225001Y-72175000D03*
%TD*%
D16*
%TO.C,R35*%
X142499999Y-107900002D03*
X142499999Y-106075002D03*
%TD*%
D17*
%TO.C,C11*%
X147275000Y-69937500D03*
X147275000Y-68387500D03*
%TD*%
D14*
%TO.C,C17*%
X120850000Y-106325000D03*
X120850000Y-107875000D03*
%TD*%
D16*
%TO.C,R68*%
X139405170Y-70437501D03*
X139405170Y-68612501D03*
%TD*%
%TO.C,R21*%
X163025000Y-70387500D03*
X163025000Y-68562500D03*
%TD*%
D14*
%TO.C,C13*%
X144550000Y-106337502D03*
X144550000Y-107887502D03*
%TD*%
D15*
%TO.C,R67*%
X141205170Y-68612501D03*
X141205170Y-70437501D03*
%TD*%
D17*
%TO.C,C6*%
X117500000Y-70275000D03*
X117500000Y-68725000D03*
%TD*%
%TO.C,C2*%
X142905170Y-70300001D03*
X142905170Y-68750001D03*
%TD*%
D15*
%TO.C,R37*%
X138900000Y-106087500D03*
X138900000Y-107912500D03*
%TD*%
%TO.C,R66*%
X113500001Y-106087498D03*
X113500001Y-107912498D03*
%TD*%
D16*
%TO.C,R23*%
X151125000Y-70187500D03*
X151125000Y-68362500D03*
%TD*%
M02*
