%TF.GenerationSoftware,KiCad,Pcbnew,9.0.7*%
%TF.CreationDate,2026-03-31T12:56:17-05:00*%
%TF.ProjectId,proximity,70726f78-696d-4697-9479-2e6b69636164,rev?*%
%TF.SameCoordinates,Original*%
%TF.FileFunction,Legend,Bot*%
%TF.FilePolarity,Positive*%
%FSLAX46Y46*%
G04 Gerber Fmt 4.6, Leading zero omitted, Abs format (unit mm)*
G04 Created by KiCad (PCBNEW 9.0.7) date 2026-03-31 12:56:17*
%MOMM*%
%LPD*%
G01*
G04 APERTURE LIST*
%ADD10C,0.100000*%
%ADD11C,0.200000*%
%ADD12C,0.000000*%
%ADD13C,4.000000*%
%ADD14C,0.600000*%
%ADD15R,0.300000X1.600000*%
G04 APERTURE END LIST*
D10*
X148283333Y-107557419D02*
X148283333Y-108271704D01*
X148283333Y-108271704D02*
X148330952Y-108414561D01*
X148330952Y-108414561D02*
X148426190Y-108509800D01*
X148426190Y-108509800D02*
X148569047Y-108557419D01*
X148569047Y-108557419D02*
X148664285Y-108557419D01*
X147283333Y-108557419D02*
X147854761Y-108557419D01*
X147569047Y-108557419D02*
X147569047Y-107557419D01*
X147569047Y-107557419D02*
X147664285Y-107700276D01*
X147664285Y-107700276D02*
X147759523Y-107795514D01*
X147759523Y-107795514D02*
X147854761Y-107843133D01*
X141266666Y-121342580D02*
X141266666Y-120628295D01*
X141266666Y-120628295D02*
X141219047Y-120485438D01*
X141219047Y-120485438D02*
X141123809Y-120390200D01*
X141123809Y-120390200D02*
X140980952Y-120342580D01*
X140980952Y-120342580D02*
X140885714Y-120342580D01*
X141695238Y-121247342D02*
X141742857Y-121294961D01*
X141742857Y-121294961D02*
X141838095Y-121342580D01*
X141838095Y-121342580D02*
X142076190Y-121342580D01*
X142076190Y-121342580D02*
X142171428Y-121294961D01*
X142171428Y-121294961D02*
X142219047Y-121247342D01*
X142219047Y-121247342D02*
X142266666Y-121152104D01*
X142266666Y-121152104D02*
X142266666Y-121056866D01*
X142266666Y-121056866D02*
X142219047Y-120914009D01*
X142219047Y-120914009D02*
X141647619Y-120342580D01*
X141647619Y-120342580D02*
X142266666Y-120342580D01*
D11*
%TO.C,J1*%
X145500000Y-106150000D02*
X146500000Y-106150000D01*
X145500000Y-106200000D02*
X145500000Y-107200000D01*
X145500000Y-110000000D02*
X145500000Y-109000000D01*
X145500000Y-110050000D02*
X146500000Y-110050000D01*
X149400000Y-106150000D02*
X150400000Y-106150000D01*
X150400000Y-106200000D02*
X150400000Y-107200000D01*
X150400000Y-110000000D02*
X150400000Y-109000000D01*
X150400000Y-110050000D02*
X149400000Y-110050000D01*
%TO.C,J2*%
X139150000Y-118850000D02*
X140150000Y-118850000D01*
X139150000Y-118900001D02*
X139149999Y-119900000D01*
X139150000Y-122699999D02*
X139149999Y-121700000D01*
X140150000Y-122750000D02*
X139150000Y-122750000D01*
X144050000Y-118850000D02*
X143050000Y-118850000D01*
X144050000Y-118900001D02*
X144050001Y-119900000D01*
X144050000Y-122699999D02*
X144050001Y-121700000D01*
X144050000Y-122750000D02*
X143050000Y-122750000D01*
D12*
%TO.C,G\u002A\u002A\u002A*%
G36*
X142993014Y-114199877D02*
G01*
X142992441Y-114203131D01*
X142989186Y-114202558D01*
X142989760Y-114199303D01*
X142993014Y-114199877D01*
G37*
G36*
X143378761Y-112925662D02*
G01*
X143378187Y-112928917D01*
X143374932Y-112928343D01*
X143375506Y-112925088D01*
X143378761Y-112925662D01*
G37*
G36*
X146561427Y-112517089D02*
G01*
X146560852Y-112520343D01*
X146557598Y-112519770D01*
X146558172Y-112516515D01*
X146561427Y-112517089D01*
G37*
G36*
X142817704Y-113131303D02*
G01*
X142812690Y-113135710D01*
X142807050Y-113138864D01*
X142806552Y-113137130D01*
X142807932Y-113135411D01*
X142816123Y-113130428D01*
X142817704Y-113131303D01*
G37*
G36*
X142970040Y-113720377D02*
G01*
X142967871Y-113723984D01*
X142965650Y-113725127D01*
X142963532Y-113723219D01*
X142963772Y-113722368D01*
X142968636Y-113719645D01*
X142970040Y-113720377D01*
G37*
G36*
X143165784Y-113534058D02*
G01*
X143166926Y-113536278D01*
X143165018Y-113538397D01*
X143164167Y-113538156D01*
X143161444Y-113533293D01*
X143162177Y-113531887D01*
X143165784Y-113534058D01*
G37*
G36*
X142869113Y-113411839D02*
G01*
X142868977Y-113414693D01*
X142863690Y-113420390D01*
X142857222Y-113423140D01*
X142852918Y-113420601D01*
X142855172Y-113413096D01*
X142855296Y-113412915D01*
X142862345Y-113408149D01*
X142869113Y-113411839D01*
G37*
G36*
X145728079Y-113996302D02*
G01*
X145729771Y-114004199D01*
X145729796Y-114013261D01*
X145727558Y-114014136D01*
X145721722Y-114006655D01*
X145718307Y-113999158D01*
X145722161Y-113995444D01*
X145722907Y-113995272D01*
X145728079Y-113996302D01*
G37*
G36*
X143365975Y-113217021D02*
G01*
X143368638Y-113218447D01*
X143372297Y-113222493D01*
X143367643Y-113227264D01*
X143361643Y-113229560D01*
X143354491Y-113225063D01*
X143352068Y-113220129D01*
X143352823Y-113214820D01*
X143357052Y-113214242D01*
X143365975Y-113217021D01*
G37*
G36*
X144465372Y-116050039D02*
G01*
X144467004Y-116053136D01*
X144465080Y-116058557D01*
X144454680Y-116062621D01*
X144454448Y-116062677D01*
X144446234Y-116062546D01*
X144445170Y-116057953D01*
X144451781Y-116050997D01*
X144458810Y-116047751D01*
X144465372Y-116050039D01*
G37*
G36*
X142802180Y-113381707D02*
G01*
X142807402Y-113393968D01*
X142807864Y-113396714D01*
X142805596Y-113402600D01*
X142799001Y-113402335D01*
X142790386Y-113395684D01*
X142788303Y-113393221D01*
X142785313Y-113386297D01*
X142789922Y-113380761D01*
X142794926Y-113378513D01*
X142802180Y-113381707D01*
G37*
G36*
X145492432Y-113964371D02*
G01*
X145493686Y-113966396D01*
X145493976Y-113972998D01*
X145486500Y-113980057D01*
X145478166Y-113984050D01*
X145467630Y-113984281D01*
X145460576Y-113979303D01*
X145459645Y-113970094D01*
X145462948Y-113964455D01*
X145472515Y-113959159D01*
X145483741Y-113958887D01*
X145492432Y-113964371D01*
G37*
G36*
X145922547Y-112727975D02*
G01*
X145929947Y-112739058D01*
X145937825Y-112755283D01*
X145939235Y-112762043D01*
X145934681Y-112766858D01*
X145930467Y-112767447D01*
X145925665Y-112765223D01*
X145921325Y-112757653D01*
X145916010Y-112742896D01*
X145912899Y-112731079D01*
X145913053Y-112723436D01*
X145916592Y-112722584D01*
X145922547Y-112727975D01*
G37*
G36*
X144040386Y-113226882D02*
G01*
X144041595Y-113230027D01*
X144038664Y-113236645D01*
X144037209Y-113238079D01*
X144037138Y-113244667D01*
X144043644Y-113255979D01*
X144054367Y-113271292D01*
X144039054Y-113282014D01*
X144023741Y-113292736D01*
X144012215Y-113276274D01*
X144009600Y-113272277D01*
X144003741Y-113260496D01*
X144002065Y-113252002D01*
X144006062Y-113244538D01*
X144014675Y-113236256D01*
X144025098Y-113229351D01*
X144034584Y-113225626D01*
X144040386Y-113226882D01*
G37*
G36*
X142133078Y-112819197D02*
G01*
X142138881Y-112825230D01*
X142139729Y-112829065D01*
X142140639Y-112833183D01*
X142140537Y-112833670D01*
X142135152Y-112840696D01*
X142126831Y-112843051D01*
X142124591Y-112841756D01*
X142123507Y-112838927D01*
X142125644Y-112838927D01*
X142128899Y-112839501D01*
X142129473Y-112836247D01*
X142126218Y-112835673D01*
X142125644Y-112838927D01*
X142123507Y-112838927D01*
X142121854Y-112834611D01*
X142122258Y-112825379D01*
X142125968Y-112818733D01*
X142126570Y-112818373D01*
X142133078Y-112819197D01*
G37*
G36*
X145630177Y-113849626D02*
G01*
X145642911Y-113861512D01*
X145649046Y-113875389D01*
X145649448Y-113892125D01*
X145642835Y-113906334D01*
X145641685Y-113907635D01*
X145626736Y-113920609D01*
X145609867Y-113929769D01*
X145593266Y-113934470D01*
X145579117Y-113934070D01*
X145569605Y-113927923D01*
X145568466Y-113926236D01*
X145562291Y-113910459D01*
X145564439Y-113893896D01*
X145575058Y-113875129D01*
X145582918Y-113865487D01*
X145599323Y-113851785D01*
X145615361Y-113846441D01*
X145630177Y-113849626D01*
G37*
G36*
X142554402Y-113679396D02*
G01*
X142568608Y-113681229D01*
X142582374Y-113681619D01*
X142590208Y-113680088D01*
X142594440Y-113677812D01*
X142601657Y-113678430D01*
X142604909Y-113687503D01*
X142604191Y-113705018D01*
X142603633Y-113710798D01*
X142604146Y-113728031D01*
X142608024Y-113739679D01*
X142611285Y-113745260D01*
X142610793Y-113750296D01*
X142602771Y-113749819D01*
X142587229Y-113743832D01*
X142564176Y-113732335D01*
X142546067Y-113722113D01*
X142527786Y-113709557D01*
X142518248Y-113699355D01*
X142517477Y-113697939D01*
X142514589Y-113686667D01*
X142519863Y-113679774D01*
X142533175Y-113677327D01*
X142554402Y-113679396D01*
G37*
G36*
X145776477Y-113764723D02*
G01*
X145778650Y-113765128D01*
X145786550Y-113767876D01*
X145791516Y-113773942D01*
X145796185Y-113786193D01*
X145799055Y-113797402D01*
X145798246Y-113809754D01*
X145791581Y-113823803D01*
X145789011Y-113828115D01*
X145780758Y-113840218D01*
X145772844Y-113846054D01*
X145762115Y-113847049D01*
X145745412Y-113844626D01*
X145735195Y-113842669D01*
X145724578Y-113839395D01*
X145719003Y-113834603D01*
X145715846Y-113826700D01*
X145714437Y-113819880D01*
X145715977Y-113805586D01*
X145724872Y-113791999D01*
X145741954Y-113777548D01*
X145754672Y-113769228D01*
X145766044Y-113764694D01*
X145776477Y-113764723D01*
G37*
G36*
X142789748Y-113144460D02*
G01*
X142796447Y-113146772D01*
X142797068Y-113151909D01*
X142791336Y-113161032D01*
X142778977Y-113175297D01*
X142768165Y-113185988D01*
X142751023Y-113200467D01*
X142731779Y-113214812D01*
X142712264Y-113227824D01*
X142694305Y-113238297D01*
X142679730Y-113245028D01*
X142670367Y-113246814D01*
X142663548Y-113244826D01*
X142662100Y-113240289D01*
X142665477Y-113230270D01*
X142665499Y-113230214D01*
X142672376Y-113220333D01*
X142685297Y-113207569D01*
X142702416Y-113193238D01*
X142721888Y-113178655D01*
X142741864Y-113165138D01*
X142760500Y-113154000D01*
X142775949Y-113146558D01*
X142786364Y-113144128D01*
X142789748Y-113144460D01*
G37*
G36*
X145106130Y-112736548D02*
G01*
X145117379Y-112743063D01*
X145127963Y-112754977D01*
X145135735Y-112770325D01*
X145135760Y-112770397D01*
X145140038Y-112780072D01*
X145143799Y-112784442D01*
X145145073Y-112787062D01*
X145144358Y-112795613D01*
X145141711Y-112806784D01*
X145137995Y-112817120D01*
X145134079Y-112823168D01*
X145132579Y-112824772D01*
X145132363Y-112831682D01*
X145132062Y-112832547D01*
X145126600Y-112829742D01*
X145116660Y-112822847D01*
X145114497Y-112821228D01*
X145103342Y-112811717D01*
X145096823Y-112802334D01*
X145091970Y-112789008D01*
X145088841Y-112776410D01*
X145087249Y-112757278D01*
X145090558Y-112743455D01*
X145098590Y-112736372D01*
X145106130Y-112736548D01*
G37*
G36*
X145578183Y-112448631D02*
G01*
X145581214Y-112449741D01*
X145593554Y-112457075D01*
X145605585Y-112467469D01*
X145612911Y-112475952D01*
X145618463Y-112486874D01*
X145619778Y-112500310D01*
X145619361Y-112508833D01*
X145616867Y-112515914D01*
X145611149Y-112517365D01*
X145606432Y-112516291D01*
X145598811Y-112511169D01*
X145596681Y-112509146D01*
X145592787Y-112510715D01*
X145592070Y-112511547D01*
X145587248Y-112509255D01*
X145579577Y-112499997D01*
X145576860Y-112495886D01*
X145572606Y-112487452D01*
X145573031Y-112483975D01*
X145573596Y-112481048D01*
X145568593Y-112474257D01*
X145563633Y-112467078D01*
X145562390Y-112454841D01*
X145564053Y-112450095D01*
X145568564Y-112446855D01*
X145578183Y-112448631D01*
G37*
G36*
X143222259Y-113070524D02*
G01*
X143233628Y-113081484D01*
X143242439Y-113089408D01*
X143252117Y-113095665D01*
X143258582Y-113097094D01*
X143260029Y-113092915D01*
X143259901Y-113090260D01*
X143263573Y-113086456D01*
X143266206Y-113087815D01*
X143267565Y-113094890D01*
X143267146Y-113097851D01*
X143263553Y-113105643D01*
X143256461Y-113105432D01*
X143251165Y-113105540D01*
X143242070Y-113109804D01*
X143235347Y-113113133D01*
X143230045Y-113112518D01*
X143228242Y-113111221D01*
X143221757Y-113112617D01*
X143218881Y-113113949D01*
X143209074Y-113112679D01*
X143198940Y-113105351D01*
X143191265Y-113093697D01*
X143188789Y-113086089D01*
X143190436Y-113078858D01*
X143199069Y-113071452D01*
X143199391Y-113071227D01*
X143207807Y-113066168D01*
X143214541Y-113065676D01*
X143222259Y-113070524D01*
G37*
G36*
X148152480Y-114111776D02*
G01*
X148162989Y-114119938D01*
X148163406Y-114120487D01*
X148169835Y-114127097D01*
X148181027Y-114137367D01*
X148194838Y-114149320D01*
X148197194Y-114151311D01*
X148210507Y-114162821D01*
X148220715Y-114172064D01*
X148225768Y-114177197D01*
X148226086Y-114179244D01*
X148222061Y-114184877D01*
X148211557Y-114193784D01*
X148193784Y-114206695D01*
X148158360Y-114231472D01*
X148163325Y-114214534D01*
X148164584Y-114210107D01*
X148165989Y-114200664D01*
X148162698Y-114193904D01*
X148153281Y-114185734D01*
X148151170Y-114184135D01*
X148137427Y-114175865D01*
X148124700Y-114170982D01*
X148110644Y-114165059D01*
X148104681Y-114154716D01*
X148106745Y-114139629D01*
X148113716Y-114126651D01*
X148125562Y-114115930D01*
X148139243Y-114110705D01*
X148152480Y-114111776D01*
G37*
G36*
X146490069Y-112646500D02*
G01*
X146490634Y-112646930D01*
X146495952Y-112654106D01*
X146501552Y-112665530D01*
X146506247Y-112678091D01*
X146508853Y-112688668D01*
X146508185Y-112694146D01*
X146506937Y-112697049D01*
X146507949Y-112705355D01*
X146508627Y-112711358D01*
X146505461Y-112720683D01*
X146502348Y-112723724D01*
X146493183Y-112729246D01*
X146490093Y-112730337D01*
X146479047Y-112734534D01*
X146465094Y-112740055D01*
X146457754Y-112742767D01*
X146446948Y-112745652D01*
X146441737Y-112745399D01*
X146440077Y-112744396D01*
X146433775Y-112746250D01*
X146429399Y-112748035D01*
X146424584Y-112745032D01*
X146422518Y-112736801D01*
X146423235Y-112725633D01*
X146426768Y-112713821D01*
X146433151Y-112703659D01*
X146441491Y-112693361D01*
X146450390Y-112680353D01*
X146450687Y-112679868D01*
X146459902Y-112667063D01*
X146470787Y-112654571D01*
X146476582Y-112649077D01*
X146483970Y-112644829D01*
X146490069Y-112646500D01*
G37*
G36*
X144591311Y-113800234D02*
G01*
X144591172Y-113800473D01*
X144591009Y-113804934D01*
X144598627Y-113806609D01*
X144605250Y-113807475D01*
X144607389Y-113811068D01*
X144604707Y-113820316D01*
X144604483Y-113820935D01*
X144598069Y-113834076D01*
X144589427Y-113847379D01*
X144587111Y-113850298D01*
X144568668Y-113868288D01*
X144546697Y-113883189D01*
X144525006Y-113892344D01*
X144521351Y-113893351D01*
X144503817Y-113898714D01*
X144486441Y-113904654D01*
X144481634Y-113906336D01*
X144465137Y-113911258D01*
X144451353Y-113914275D01*
X144438654Y-113917728D01*
X144425523Y-113924235D01*
X144418886Y-113927588D01*
X144411304Y-113927199D01*
X144408925Y-113921655D01*
X144413781Y-113912917D01*
X144415493Y-113911204D01*
X144425141Y-113902519D01*
X144439609Y-113890229D01*
X144456939Y-113875953D01*
X144475174Y-113861311D01*
X144492357Y-113847919D01*
X144502865Y-113840494D01*
X144523860Y-113828444D01*
X144544086Y-113819937D01*
X144560499Y-113816382D01*
X144569917Y-113814303D01*
X144584009Y-113805144D01*
X144585458Y-113803724D01*
X144590891Y-113799102D01*
X144591311Y-113800234D01*
G37*
G36*
X142350422Y-113315730D02*
G01*
X142361744Y-113317646D01*
X142376368Y-113318110D01*
X142380774Y-113318272D01*
X142395350Y-113321694D01*
X142410378Y-113328206D01*
X142415273Y-113330752D01*
X142433628Y-113336351D01*
X142455008Y-113336015D01*
X142459812Y-113335544D01*
X142478937Y-113336134D01*
X142493301Y-113340535D01*
X142505707Y-113346464D01*
X142519830Y-113351172D01*
X142528537Y-113354489D01*
X142536211Y-113363949D01*
X142536292Y-113364214D01*
X142535455Y-113374330D01*
X142528035Y-113380678D01*
X142516621Y-113381004D01*
X142511285Y-113380096D01*
X142504314Y-113381064D01*
X142502276Y-113381904D01*
X142491811Y-113382632D01*
X142476335Y-113381501D01*
X142458720Y-113378975D01*
X142441831Y-113375521D01*
X142428542Y-113371603D01*
X142421717Y-113367685D01*
X142417231Y-113364600D01*
X142407312Y-113363408D01*
X142400318Y-113363335D01*
X142393952Y-113360624D01*
X142393929Y-113360591D01*
X142387737Y-113356485D01*
X142376924Y-113352289D01*
X142364481Y-113345706D01*
X142350837Y-113330269D01*
X142346289Y-113323391D01*
X142342411Y-113316322D01*
X142343805Y-113314321D01*
X142350422Y-113315730D01*
G37*
G36*
X145511471Y-112131517D02*
G01*
X145522950Y-112134584D01*
X145536191Y-112141305D01*
X145553907Y-112152840D01*
X145555369Y-112153803D01*
X145570630Y-112161440D01*
X145587021Y-112166737D01*
X145608281Y-112173351D01*
X145630740Y-112186138D01*
X145653884Y-112206040D01*
X145655103Y-112207254D01*
X145669790Y-112224090D01*
X145683917Y-112243858D01*
X145696612Y-112264850D01*
X145706999Y-112285354D01*
X145714206Y-112303660D01*
X145717359Y-112318058D01*
X145715584Y-112326838D01*
X145713095Y-112329714D01*
X145703302Y-112337862D01*
X145693173Y-112338760D01*
X145679339Y-112332980D01*
X145676321Y-112331307D01*
X145660157Y-112320690D01*
X145646040Y-112309229D01*
X145641810Y-112305227D01*
X145627843Y-112292014D01*
X145613997Y-112278915D01*
X145607771Y-112273410D01*
X145590556Y-112259984D01*
X145570005Y-112245492D01*
X145549399Y-112232197D01*
X145532021Y-112222364D01*
X145524488Y-112217751D01*
X145510823Y-112206677D01*
X145497308Y-112193275D01*
X145486444Y-112180110D01*
X145480731Y-112169748D01*
X145479687Y-112158317D01*
X145482025Y-112144365D01*
X145482364Y-112143379D01*
X145486140Y-112134709D01*
X145491601Y-112131392D01*
X145502575Y-112130921D01*
X145511471Y-112131517D01*
G37*
G36*
X144992522Y-111732491D02*
G01*
X145007710Y-111735770D01*
X145020395Y-111739786D01*
X145027234Y-111743876D01*
X145027804Y-111745318D01*
X145027653Y-111754244D01*
X145024868Y-111766863D01*
X145023580Y-111770886D01*
X145018960Y-111782346D01*
X145014999Y-111788450D01*
X145010772Y-111789340D01*
X144999344Y-111789081D01*
X144984204Y-111787255D01*
X144972741Y-111785717D01*
X144960255Y-111784903D01*
X144953879Y-111785669D01*
X144951120Y-111786093D01*
X144945121Y-111781817D01*
X144944014Y-111780417D01*
X144941691Y-111779306D01*
X144942757Y-111786325D01*
X144943060Y-111787879D01*
X144941736Y-111797968D01*
X144935643Y-111803286D01*
X144927130Y-111801546D01*
X144923695Y-111799979D01*
X144916166Y-111800665D01*
X144909830Y-111802145D01*
X144898919Y-111801130D01*
X144890465Y-111798596D01*
X144887726Y-111794055D01*
X144888935Y-111783968D01*
X144890302Y-111777678D01*
X144894284Y-111771017D01*
X144902326Y-111769088D01*
X144909841Y-111767963D01*
X144919040Y-111764421D01*
X144924812Y-111761819D01*
X144936090Y-111759614D01*
X144942008Y-111758721D01*
X144946702Y-111754386D01*
X144948556Y-111743754D01*
X144948600Y-111743248D01*
X144950833Y-111733291D01*
X144954846Y-111732219D01*
X144957787Y-111733396D01*
X144965880Y-111731624D01*
X144968011Y-111730823D01*
X144978175Y-111730620D01*
X144992522Y-111732491D01*
G37*
G36*
X145762250Y-111921653D02*
G01*
X145765573Y-111925225D01*
X145772651Y-111928359D01*
X145777250Y-111929979D01*
X145784264Y-111936796D01*
X145786929Y-111939967D01*
X145796651Y-111945288D01*
X145811508Y-111946226D01*
X145833164Y-111942991D01*
X145845657Y-111941061D01*
X145859880Y-111942321D01*
X145871489Y-111949692D01*
X145883510Y-111964463D01*
X145887460Y-111969709D01*
X145894909Y-111977426D01*
X145899577Y-111979262D01*
X145904367Y-111979085D01*
X145909082Y-111985107D01*
X145911724Y-111994989D01*
X145911026Y-112005798D01*
X145905783Y-112016598D01*
X145896012Y-112027210D01*
X145888933Y-112034252D01*
X145885160Y-112046408D01*
X145884305Y-112054012D01*
X145880030Y-112061411D01*
X145877686Y-112063608D01*
X145876674Y-112068772D01*
X145876773Y-112069306D01*
X145873416Y-112075012D01*
X145864943Y-112084814D01*
X145852850Y-112096943D01*
X145840141Y-112109988D01*
X145828263Y-112124756D01*
X145821893Y-112136247D01*
X145817863Y-112146511D01*
X145811595Y-112153632D01*
X145802039Y-112154273D01*
X145786799Y-112149328D01*
X145765774Y-112141044D01*
X145722928Y-112069963D01*
X145720986Y-112066741D01*
X145703519Y-112037509D01*
X145690583Y-112014916D01*
X145681831Y-111997762D01*
X145676916Y-111984848D01*
X145675492Y-111974977D01*
X145677212Y-111966947D01*
X145681728Y-111959563D01*
X145688696Y-111951625D01*
X145691579Y-111948659D01*
X145707737Y-111935088D01*
X145724805Y-111924819D01*
X145740862Y-111918635D01*
X145753985Y-111917318D01*
X145762250Y-111921653D01*
G37*
G36*
X141934685Y-112801480D02*
G01*
X141949248Y-112805488D01*
X141958265Y-112811728D01*
X141961513Y-112815055D01*
X141966946Y-112815978D01*
X141971128Y-112816591D01*
X141977475Y-112822867D01*
X141980955Y-112829620D01*
X141978858Y-112835247D01*
X141969802Y-112842464D01*
X141961218Y-112847572D01*
X141950819Y-112849354D01*
X141937393Y-112845658D01*
X141922293Y-112842188D01*
X141903004Y-112845332D01*
X141900928Y-112846095D01*
X141887729Y-112848571D01*
X141877505Y-112847028D01*
X141868178Y-112842259D01*
X141859258Y-112838654D01*
X141855290Y-112839398D01*
X141854386Y-112844264D01*
X141853497Y-112849461D01*
X141849089Y-112848582D01*
X141848450Y-112848215D01*
X141841523Y-112847775D01*
X141835827Y-112851213D01*
X141835407Y-112856260D01*
X141836780Y-112857473D01*
X141844001Y-112858350D01*
X141845913Y-112859035D01*
X141841616Y-112863348D01*
X141835211Y-112866495D01*
X141827556Y-112866028D01*
X141824138Y-112865036D01*
X141817035Y-112868187D01*
X141806012Y-112877781D01*
X141796671Y-112886129D01*
X141788319Y-112890806D01*
X141781041Y-112890513D01*
X141773795Y-112884685D01*
X141773199Y-112875720D01*
X141779664Y-112867241D01*
X141783327Y-112862408D01*
X141785366Y-112852103D01*
X141785428Y-112849353D01*
X141789563Y-112836604D01*
X141798161Y-112824153D01*
X141808819Y-112814876D01*
X141819133Y-112811656D01*
X141826040Y-112811033D01*
X141835587Y-112806323D01*
X141837584Y-112804965D01*
X141848472Y-112803073D01*
X141864250Y-112804786D01*
X141870950Y-112805827D01*
X141887443Y-112806096D01*
X141900356Y-112803408D01*
X141903494Y-112802259D01*
X141918219Y-112800230D01*
X141934685Y-112801480D01*
G37*
G36*
X144738680Y-112452682D02*
G01*
X144752616Y-112459420D01*
X144768753Y-112469520D01*
X144784070Y-112481008D01*
X144795549Y-112491910D01*
X144800731Y-112497270D01*
X144815800Y-112506220D01*
X144830973Y-112506249D01*
X144845220Y-112497250D01*
X144859708Y-112487767D01*
X144880795Y-112483195D01*
X144905468Y-112484813D01*
X144932050Y-112492490D01*
X144958859Y-112506097D01*
X144967951Y-112511528D01*
X144980536Y-112518153D01*
X144988673Y-112521304D01*
X144992619Y-112522611D01*
X145001008Y-112529239D01*
X145003865Y-112532393D01*
X145009723Y-112534833D01*
X145014393Y-112535311D01*
X145025813Y-112538062D01*
X145040782Y-112542523D01*
X145048840Y-112545238D01*
X145062560Y-112551361D01*
X145072508Y-112559459D01*
X145082441Y-112572207D01*
X145087924Y-112580628D01*
X145095066Y-112593884D01*
X145098377Y-112603400D01*
X145098456Y-112605232D01*
X145093974Y-112615856D01*
X145082496Y-112625361D01*
X145065989Y-112632008D01*
X145060278Y-112632384D01*
X145046532Y-112630149D01*
X145031092Y-112625065D01*
X145021501Y-112621444D01*
X145009678Y-112618248D01*
X145003295Y-112618256D01*
X145002093Y-112618965D01*
X144998152Y-112619796D01*
X144991086Y-112619220D01*
X144978903Y-112616992D01*
X144959614Y-112612864D01*
X144948440Y-112610104D01*
X144917300Y-112599852D01*
X144888816Y-112587163D01*
X144885685Y-112585555D01*
X144859907Y-112575021D01*
X144835751Y-112569614D01*
X144815830Y-112569953D01*
X144811765Y-112570555D01*
X144796970Y-112570865D01*
X144779675Y-112569446D01*
X144762843Y-112566733D01*
X144749434Y-112563162D01*
X144742411Y-112559168D01*
X144739398Y-112556425D01*
X144730159Y-112553185D01*
X144722559Y-112549873D01*
X144711876Y-112541292D01*
X144701222Y-112530133D01*
X144693123Y-112519066D01*
X144690101Y-112510765D01*
X144690093Y-112509668D01*
X144687893Y-112499840D01*
X144683068Y-112487333D01*
X144678957Y-112476603D01*
X144679868Y-112469578D01*
X144686734Y-112463371D01*
X144699512Y-112456804D01*
X144717372Y-112451828D01*
X144733207Y-112451148D01*
X144738680Y-112452682D01*
G37*
G36*
X147790096Y-113697840D02*
G01*
X147795799Y-113704242D01*
X147805036Y-113716058D01*
X147816565Y-113731625D01*
X147829137Y-113749275D01*
X147841510Y-113767340D01*
X147842130Y-113768287D01*
X147846631Y-113777301D01*
X147846662Y-113782275D01*
X147845316Y-113786002D01*
X147846605Y-113794935D01*
X147847723Y-113805326D01*
X147845779Y-113818748D01*
X147844693Y-113830128D01*
X147848218Y-113841504D01*
X147851613Y-113848103D01*
X147851295Y-113853198D01*
X147850998Y-113853873D01*
X147852799Y-113860652D01*
X147858300Y-113872756D01*
X147866599Y-113888124D01*
X147869242Y-113892791D01*
X147876871Y-113907390D01*
X147881490Y-113918094D01*
X147882180Y-113922856D01*
X147882310Y-113925359D01*
X147886936Y-113933219D01*
X147895500Y-113944086D01*
X147905934Y-113958049D01*
X147915467Y-113976488D01*
X147919778Y-113993249D01*
X147918026Y-114006018D01*
X147915968Y-114013635D01*
X147916888Y-114022880D01*
X147920571Y-114029098D01*
X147925938Y-114029140D01*
X147926943Y-114028598D01*
X147933304Y-114030487D01*
X147942044Y-114040684D01*
X147944545Y-114044048D01*
X147951819Y-114051598D01*
X147956594Y-114053316D01*
X147961013Y-114053842D01*
X147967401Y-114060381D01*
X147973575Y-114070621D01*
X147977897Y-114081771D01*
X147978725Y-114091033D01*
X147978086Y-114094122D01*
X147973270Y-114113351D01*
X147966998Y-114134005D01*
X147960179Y-114153455D01*
X147953723Y-114169073D01*
X147948541Y-114178230D01*
X147943769Y-114185138D01*
X147941902Y-114192783D01*
X147945894Y-114195425D01*
X147954935Y-114191402D01*
X147959461Y-114188671D01*
X147972948Y-114186017D01*
X147987126Y-114191803D01*
X148002900Y-114206311D01*
X148006808Y-114210683D01*
X148020558Y-114225856D01*
X148033175Y-114239535D01*
X148040289Y-114247844D01*
X148045239Y-114257205D01*
X148045099Y-114259488D01*
X148044694Y-114266110D01*
X148038043Y-114275902D01*
X148024671Y-114287924D01*
X148003965Y-114303521D01*
X147995544Y-114309623D01*
X147972859Y-114326028D01*
X147956498Y-114337988D01*
X147945577Y-114346392D01*
X147939217Y-114352126D01*
X147936531Y-114356078D01*
X147936641Y-114359135D01*
X147938659Y-114362185D01*
X147941706Y-114366115D01*
X147949748Y-114377600D01*
X147883920Y-114423693D01*
X147818093Y-114469785D01*
X147800152Y-114467017D01*
X147793280Y-114465860D01*
X147783284Y-114463203D01*
X147778968Y-114459477D01*
X147780773Y-114453891D01*
X147789136Y-114445653D01*
X147804499Y-114433969D01*
X147827299Y-114418047D01*
X147832545Y-114414430D01*
X147851069Y-114401394D01*
X147866145Y-114390371D01*
X147876339Y-114382431D01*
X147880215Y-114378643D01*
X147878003Y-114375943D01*
X147869529Y-114373587D01*
X147857886Y-114372556D01*
X147846469Y-114373110D01*
X147838674Y-114375503D01*
X147834854Y-114377993D01*
X147829803Y-114380258D01*
X147823281Y-114381488D01*
X147813994Y-114381620D01*
X147800647Y-114380593D01*
X147781945Y-114378343D01*
X147756593Y-114374807D01*
X147723297Y-114369924D01*
X147722754Y-114369842D01*
X147705431Y-114366569D01*
X147700677Y-114364590D01*
X147894997Y-114364590D01*
X147895750Y-114365427D01*
X147901506Y-114365738D01*
X147902343Y-114364986D01*
X147902654Y-114359229D01*
X147901902Y-114358392D01*
X147896144Y-114358081D01*
X147895307Y-114358834D01*
X147894997Y-114364590D01*
X147700677Y-114364590D01*
X147695005Y-114362229D01*
X147691446Y-114355743D01*
X147694722Y-114346029D01*
X147704804Y-114332004D01*
X147721660Y-114312587D01*
X147732221Y-114301729D01*
X147748475Y-114287149D01*
X147763104Y-114276117D01*
X147768988Y-114272112D01*
X147779302Y-114263273D01*
X147782262Y-114257126D01*
X147783054Y-114252079D01*
X147788729Y-114244040D01*
X147793242Y-114236463D01*
X147792009Y-114222759D01*
X147791287Y-114220475D01*
X147787448Y-114205465D01*
X147784266Y-114189131D01*
X147782216Y-114179938D01*
X147775112Y-114162094D01*
X147765308Y-114146765D01*
X147754372Y-114136158D01*
X147743879Y-114132475D01*
X147736044Y-114131138D01*
X147727104Y-114124814D01*
X147722303Y-114120315D01*
X147714049Y-114118391D01*
X147711068Y-114118951D01*
X147704877Y-114117237D01*
X147705551Y-114110733D01*
X147713153Y-114100726D01*
X147714468Y-114099349D01*
X147721735Y-114090244D01*
X147724550Y-114083929D01*
X147724548Y-114083892D01*
X147728211Y-114077565D01*
X147737761Y-114069807D01*
X147750378Y-114062531D01*
X147763250Y-114057649D01*
X147773590Y-114053315D01*
X147786445Y-114040847D01*
X147791890Y-114034165D01*
X147799262Y-114029121D01*
X147808625Y-114028883D01*
X147814164Y-114029385D01*
X147820299Y-114027525D01*
X147823321Y-114019827D01*
X147825856Y-114012547D01*
X147832407Y-114000949D01*
X147836195Y-113994727D01*
X147839643Y-113983756D01*
X147839455Y-113979519D01*
X147835621Y-113977076D01*
X147825473Y-113979078D01*
X147820400Y-113980384D01*
X147812600Y-113980583D01*
X147806125Y-113976018D01*
X147797839Y-113965104D01*
X147792859Y-113957773D01*
X147788571Y-113948808D01*
X147789470Y-113941137D01*
X147795261Y-113930868D01*
X147797000Y-113928139D01*
X147804748Y-113916372D01*
X147810470Y-113908248D01*
X147813728Y-113900455D01*
X147815109Y-113888283D01*
X147815104Y-113888114D01*
X147813891Y-113878790D01*
X147809365Y-113872278D01*
X147799054Y-113864987D01*
X147795867Y-113863120D01*
X147784948Y-113858818D01*
X147777720Y-113859075D01*
X147775988Y-113859910D01*
X147769751Y-113857756D01*
X147761306Y-113847747D01*
X147758992Y-113844257D01*
X147754238Y-113834938D01*
X147753997Y-113830045D01*
X147754692Y-113828888D01*
X147754967Y-113820894D01*
X147752937Y-113808571D01*
X147752439Y-113806271D01*
X147750405Y-113788597D01*
X147750850Y-113772115D01*
X147751165Y-113769548D01*
X147751639Y-113757567D01*
X147750307Y-113750496D01*
X147749994Y-113749949D01*
X147750299Y-113742668D01*
X147754643Y-113733629D01*
X147760794Y-113726407D01*
X147766517Y-113724573D01*
X147772138Y-113722513D01*
X147778876Y-113711729D01*
X147779878Y-113709664D01*
X147785270Y-113700576D01*
X147789105Y-113697173D01*
X147790096Y-113697840D01*
G37*
G36*
X147260159Y-113171992D02*
G01*
X147278527Y-113183107D01*
X147281587Y-113185343D01*
X147290882Y-113190974D01*
X147296014Y-113192256D01*
X147297622Y-113192073D01*
X147305816Y-113194304D01*
X147317774Y-113199373D01*
X147330539Y-113207296D01*
X147346684Y-113221650D01*
X147366056Y-113242950D01*
X147373677Y-113251711D01*
X147386308Y-113265367D01*
X147396373Y-113275175D01*
X147402199Y-113279441D01*
X147402613Y-113279572D01*
X147410008Y-113283803D01*
X147420645Y-113292969D01*
X147435371Y-113307873D01*
X147455035Y-113329315D01*
X147460986Y-113335692D01*
X147476801Y-113350730D01*
X147492442Y-113363345D01*
X147505906Y-113372009D01*
X147515188Y-113375195D01*
X147517352Y-113375738D01*
X147526099Y-113380039D01*
X147537853Y-113387231D01*
X147542853Y-113390738D01*
X147551505Y-113398278D01*
X147560195Y-113408455D01*
X147570412Y-113423119D01*
X147583644Y-113444120D01*
X147599985Y-113469952D01*
X147614506Y-113490599D01*
X147627254Y-113505314D01*
X147639495Y-113515337D01*
X147652498Y-113521909D01*
X147667528Y-113526272D01*
X147673261Y-113527598D01*
X147694937Y-113534123D01*
X147709094Y-113541976D01*
X147717238Y-113552283D01*
X147720873Y-113566170D01*
X147721065Y-113567590D01*
X147725809Y-113583847D01*
X147733568Y-113598009D01*
X147739244Y-113605764D01*
X147747403Y-113618834D01*
X147752685Y-113629787D01*
X147754268Y-113636773D01*
X147751328Y-113637943D01*
X147749025Y-113637505D01*
X147738350Y-113640608D01*
X147722573Y-113649914D01*
X147720449Y-113651350D01*
X147706989Y-113659371D01*
X147697084Y-113662297D01*
X147687679Y-113661109D01*
X147677422Y-113659541D01*
X147669524Y-113660985D01*
X147669404Y-113661066D01*
X147662045Y-113661264D01*
X147651750Y-113656972D01*
X147650127Y-113656005D01*
X147630769Y-113647261D01*
X147614591Y-113646216D01*
X147599837Y-113652729D01*
X147597673Y-113654307D01*
X147590137Y-113661290D01*
X147588313Y-113665869D01*
X147588844Y-113667355D01*
X147585786Y-113672445D01*
X147574109Y-113680797D01*
X147565087Y-113690194D01*
X147564374Y-113696863D01*
X147565257Y-113701656D01*
X147561440Y-113709979D01*
X147561302Y-113710143D01*
X147557986Y-113717764D01*
X147563123Y-113725154D01*
X147564009Y-113725972D01*
X147571766Y-113734097D01*
X147582924Y-113746691D01*
X147595381Y-113761395D01*
X147604305Y-113772922D01*
X147616604Y-113792506D01*
X147623927Y-113809760D01*
X147625740Y-113823246D01*
X147621509Y-113831530D01*
X147620132Y-113832873D01*
X147620023Y-113839469D01*
X147626540Y-113850829D01*
X147637262Y-113866141D01*
X147652575Y-113855419D01*
X147667888Y-113844696D01*
X147657166Y-113829384D01*
X147654187Y-113824908D01*
X147649963Y-113815375D01*
X147652186Y-113810050D01*
X147656042Y-113809175D01*
X147662288Y-113813564D01*
X147671331Y-113825170D01*
X147677964Y-113835425D01*
X147681168Y-113843755D01*
X147678992Y-113848332D01*
X147676634Y-113850580D01*
X147675741Y-113855912D01*
X147675220Y-113857300D01*
X147669031Y-113863571D01*
X147657003Y-113873759D01*
X147640315Y-113886884D01*
X147620144Y-113901972D01*
X147606926Y-113911694D01*
X147587775Y-113926131D01*
X147574571Y-113936805D01*
X147566186Y-113944726D01*
X147561491Y-113950905D01*
X147559356Y-113956349D01*
X147555403Y-113965362D01*
X147546429Y-113975385D01*
X147540165Y-113981188D01*
X147538703Y-113986115D01*
X147539381Y-113989413D01*
X147534656Y-113998098D01*
X147523013Y-114009327D01*
X147505404Y-114022075D01*
X147496614Y-114028175D01*
X147487654Y-114036008D01*
X147485639Y-114040697D01*
X147485920Y-114041425D01*
X147481979Y-114045062D01*
X147470503Y-114048593D01*
X147467017Y-114049372D01*
X147456037Y-114052090D01*
X147450655Y-114053857D01*
X147447780Y-114051311D01*
X147443373Y-114042998D01*
X147441975Y-114039948D01*
X147436733Y-114032105D01*
X147429531Y-114028988D01*
X147418139Y-114030203D01*
X147400324Y-114035352D01*
X147392485Y-114037621D01*
X147374251Y-114040658D01*
X147361453Y-114039283D01*
X147352746Y-114037485D01*
X147344042Y-114041077D01*
X147339352Y-114044298D01*
X147329300Y-114045091D01*
X147321809Y-114044903D01*
X147310849Y-114049056D01*
X147310551Y-114049261D01*
X147298741Y-114053717D01*
X147284193Y-114054874D01*
X147270772Y-114052837D01*
X147262346Y-114047715D01*
X147256288Y-114044049D01*
X147247058Y-114048082D01*
X147245746Y-114048931D01*
X147232647Y-114052385D01*
X147213719Y-114050033D01*
X147205656Y-114048028D01*
X147194693Y-114043783D01*
X147187444Y-114036859D01*
X147180242Y-114024457D01*
X147178540Y-114021307D01*
X147169583Y-114008100D01*
X147161816Y-114002084D01*
X147161785Y-114002075D01*
X147155647Y-113995747D01*
X147152974Y-113981041D01*
X147153741Y-113957794D01*
X147153178Y-113946020D01*
X147150342Y-113932027D01*
X147150314Y-113931931D01*
X147148592Y-113918710D01*
X147150519Y-113907837D01*
X147151196Y-113906414D01*
X147156083Y-113894867D01*
X147161381Y-113880902D01*
X147162256Y-113878581D01*
X147169067Y-113864693D01*
X147176479Y-113854353D01*
X147183897Y-113845082D01*
X147192723Y-113830584D01*
X147200905Y-113814224D01*
X147207349Y-113798439D01*
X147210959Y-113785666D01*
X147210641Y-113778339D01*
X147209680Y-113776386D01*
X147211124Y-113770869D01*
X147211821Y-113766349D01*
X147207816Y-113757997D01*
X147204408Y-113750692D01*
X147200616Y-113735740D01*
X147198213Y-113718415D01*
X147197675Y-113702478D01*
X147199472Y-113691692D01*
X147200411Y-113685175D01*
X147200127Y-113671833D01*
X147198473Y-113655308D01*
X147196643Y-113637091D01*
X147197412Y-113615390D01*
X147202811Y-113598590D01*
X147213294Y-113584530D01*
X147215587Y-113582114D01*
X147222182Y-113573808D01*
X147223881Y-113569094D01*
X147223607Y-113568544D01*
X147224064Y-113565100D01*
X147227466Y-113558365D01*
X147234628Y-113546889D01*
X147246366Y-113529227D01*
X147251093Y-113520773D01*
X147253065Y-113510641D01*
X147250214Y-113499212D01*
X147242012Y-113484653D01*
X147227930Y-113465124D01*
X147219071Y-113452635D01*
X147206636Y-113430297D01*
X147200387Y-113410938D01*
X147200595Y-113395625D01*
X147207536Y-113385429D01*
X147208224Y-113384938D01*
X147218779Y-113374418D01*
X147222645Y-113363961D01*
X147219013Y-113355674D01*
X147215674Y-113350890D01*
X147214782Y-113340748D01*
X147214070Y-113330748D01*
X147208747Y-113319340D01*
X147206622Y-113315563D01*
X147203494Y-113300220D01*
X147205152Y-113282018D01*
X147210760Y-113263972D01*
X147219487Y-113249114D01*
X147230496Y-113240465D01*
X147232049Y-113239849D01*
X147238618Y-113235406D01*
X147237335Y-113229803D01*
X147232812Y-113226016D01*
X147222542Y-113222936D01*
X147218801Y-113222665D01*
X147213905Y-113220386D01*
X147214925Y-113213379D01*
X147215680Y-113207649D01*
X147213193Y-113201054D01*
X147212225Y-113199907D01*
X147213443Y-113193264D01*
X147220777Y-113183935D01*
X147232882Y-113173783D01*
X147244886Y-113169188D01*
X147260159Y-113171992D01*
G37*
G36*
X146301478Y-112066826D02*
G01*
X146320978Y-112075132D01*
X146334926Y-112087691D01*
X146341404Y-112093918D01*
X146354355Y-112102644D01*
X146370104Y-112110955D01*
X146391825Y-112121806D01*
X146431794Y-112147069D01*
X146470905Y-112179372D01*
X146483455Y-112191144D01*
X146492605Y-112201019D01*
X146499246Y-112210959D01*
X146505293Y-112223864D01*
X146512661Y-112242637D01*
X146521801Y-112265649D01*
X146529391Y-112281898D01*
X146536642Y-112293205D01*
X146544826Y-112301553D01*
X146555215Y-112308921D01*
X146562391Y-112313897D01*
X146576836Y-112327971D01*
X146588854Y-112346991D01*
X146599970Y-112373145D01*
X146605379Y-112388224D01*
X146609234Y-112399625D01*
X146610651Y-112404749D01*
X146610631Y-112404884D01*
X146606206Y-112405955D01*
X146596101Y-112404337D01*
X146583210Y-112400686D01*
X146570426Y-112395653D01*
X146565998Y-112393812D01*
X146555151Y-112391737D01*
X146541751Y-112393178D01*
X146522814Y-112398298D01*
X146520908Y-112398895D01*
X146494914Y-112409124D01*
X146477977Y-112420429D01*
X146467618Y-112430517D01*
X146453073Y-112445946D01*
X146443550Y-112458729D01*
X146437595Y-112470981D01*
X146433755Y-112484816D01*
X146430376Y-112494843D01*
X146423874Y-112505845D01*
X146420213Y-112512212D01*
X146420442Y-112519438D01*
X146420896Y-112524117D01*
X146415367Y-112530931D01*
X146409926Y-112536095D01*
X146405140Y-112545156D01*
X146403919Y-112549398D01*
X146399196Y-112556630D01*
X146392385Y-112562312D01*
X146379726Y-112575665D01*
X146370023Y-112589369D01*
X146365548Y-112600462D01*
X146362118Y-112609921D01*
X146353555Y-112619854D01*
X146346965Y-112626632D01*
X146344830Y-112634238D01*
X146344406Y-112638830D01*
X146340203Y-112649936D01*
X146332905Y-112663418D01*
X146327648Y-112672730D01*
X146324102Y-112681916D01*
X146325461Y-112685196D01*
X146328884Y-112686616D01*
X146334941Y-112693722D01*
X146340342Y-112703771D01*
X146343376Y-112713338D01*
X146342333Y-112718994D01*
X146339908Y-112722255D01*
X146336936Y-112731331D01*
X146335422Y-112737571D01*
X146330339Y-112743746D01*
X146320597Y-112743105D01*
X146319815Y-112742932D01*
X146308885Y-112745186D01*
X146293473Y-112754516D01*
X146286643Y-112759331D01*
X146276087Y-112764713D01*
X146265042Y-112765976D01*
X146249220Y-112764044D01*
X146238790Y-112761979D01*
X146226455Y-112758401D01*
X146220263Y-112755015D01*
X146218684Y-112753588D01*
X146209767Y-112749290D01*
X146196712Y-112745260D01*
X146191174Y-112743772D01*
X146179872Y-112738733D01*
X146176167Y-112732349D01*
X146172869Y-112723759D01*
X146165254Y-112713956D01*
X146161007Y-112709058D01*
X146158279Y-112702649D01*
X146157746Y-112693380D01*
X146159319Y-112679156D01*
X146162913Y-112657882D01*
X146168055Y-112633458D01*
X146174605Y-112613005D01*
X146181871Y-112600941D01*
X146186928Y-112594524D01*
X146196377Y-112577775D01*
X146205047Y-112557144D01*
X146211387Y-112536043D01*
X146215177Y-112526786D01*
X146226907Y-112511465D01*
X146244089Y-112496738D01*
X146247066Y-112494309D01*
X146256272Y-112484966D01*
X146267083Y-112472449D01*
X146277496Y-112459248D01*
X146285503Y-112447860D01*
X146289099Y-112440775D01*
X146289820Y-112439276D01*
X146296063Y-112432758D01*
X146306415Y-112424654D01*
X146317087Y-112416134D01*
X146333575Y-112396268D01*
X146345308Y-112370638D01*
X146353105Y-112337719D01*
X146354016Y-112332374D01*
X146357918Y-112312505D01*
X146361997Y-112295467D01*
X146365505Y-112284470D01*
X146368189Y-112274518D01*
X146366629Y-112255682D01*
X146357900Y-112237199D01*
X146342916Y-112221613D01*
X146338759Y-112218698D01*
X146327859Y-112212721D01*
X146320565Y-112211072D01*
X146314881Y-112210626D01*
X146302669Y-112207408D01*
X146287462Y-112202052D01*
X146274999Y-112197510D01*
X146258610Y-112192452D01*
X146246634Y-112189811D01*
X146245497Y-112189650D01*
X146233405Y-112186868D01*
X146216360Y-112181865D01*
X146197672Y-112175601D01*
X146180770Y-112169653D01*
X146164192Y-112164244D01*
X146153433Y-112161548D01*
X146146826Y-112161177D01*
X146142707Y-112162741D01*
X146142190Y-112163179D01*
X146140002Y-112170856D01*
X146141435Y-112183332D01*
X146145842Y-112197491D01*
X146152575Y-112210216D01*
X146152774Y-112210503D01*
X146159508Y-112223195D01*
X146166455Y-112240885D01*
X146172831Y-112260857D01*
X146177849Y-112280395D01*
X146180724Y-112296786D01*
X146180670Y-112307315D01*
X146179327Y-112318037D01*
X146179915Y-112332058D01*
X146180098Y-112335580D01*
X146178027Y-112349604D01*
X146173011Y-112366911D01*
X146166207Y-112384383D01*
X146158777Y-112398900D01*
X146151884Y-112407345D01*
X146147418Y-112411292D01*
X146141605Y-112418499D01*
X146133901Y-112430044D01*
X146123446Y-112447218D01*
X146109384Y-112471310D01*
X146106524Y-112476211D01*
X146101074Y-112484859D01*
X146095146Y-112492621D01*
X146087569Y-112500571D01*
X146077170Y-112509783D01*
X146062779Y-112521335D01*
X146043222Y-112536301D01*
X146017326Y-112555755D01*
X146013435Y-112558677D01*
X145989935Y-112576638D01*
X145968788Y-112593316D01*
X145951293Y-112607654D01*
X145938747Y-112618592D01*
X145932445Y-112625071D01*
X145924773Y-112640703D01*
X145918899Y-112661433D01*
X145915811Y-112682836D01*
X145916424Y-112700581D01*
X145916880Y-112703167D01*
X145917137Y-112710277D01*
X145914472Y-112709079D01*
X145911103Y-112706149D01*
X145904368Y-112706171D01*
X145901995Y-112707232D01*
X145893737Y-112704328D01*
X145883735Y-112692573D01*
X145872142Y-112672183D01*
X145859115Y-112643373D01*
X145854361Y-112631865D01*
X145847481Y-112614160D01*
X145843606Y-112600993D01*
X145842285Y-112589669D01*
X145843074Y-112577492D01*
X145845520Y-112561769D01*
X145845659Y-112560961D01*
X145849787Y-112541971D01*
X145854887Y-112525136D01*
X145859889Y-112514014D01*
X145863656Y-112507482D01*
X145870992Y-112492386D01*
X145877945Y-112475726D01*
X145882236Y-112465199D01*
X145888924Y-112451104D01*
X145894371Y-112442151D01*
X145898975Y-112436227D01*
X145906640Y-112425258D01*
X145908566Y-112422335D01*
X145915722Y-112411884D01*
X145926010Y-112397129D01*
X145937896Y-112380272D01*
X145943134Y-112372736D01*
X145955141Y-112354386D01*
X145965052Y-112337812D01*
X145971121Y-112325874D01*
X145984135Y-112296315D01*
X145997558Y-112270952D01*
X146012501Y-112248089D01*
X146021864Y-112232744D01*
X146030739Y-112210729D01*
X146034447Y-112189946D01*
X146032279Y-112173094D01*
X146030394Y-112165661D01*
X146031834Y-112162532D01*
X146036334Y-112159399D01*
X146041863Y-112150771D01*
X146043440Y-112147659D01*
X146053583Y-112129616D01*
X146064701Y-112112389D01*
X146075080Y-112098493D01*
X146083002Y-112090444D01*
X146087132Y-112087964D01*
X146105468Y-112081559D01*
X146129997Y-112077611D01*
X146158505Y-112076377D01*
X146188777Y-112078117D01*
X146205266Y-112079325D01*
X146225266Y-112078034D01*
X146238727Y-112072687D01*
X146239596Y-112072096D01*
X146257793Y-112064841D01*
X146279419Y-112063241D01*
X146301478Y-112066826D01*
G37*
G36*
X146608772Y-112477362D02*
G01*
X146613777Y-112478850D01*
X146618772Y-112477063D01*
X146619333Y-112476420D01*
X146624946Y-112477335D01*
X146633910Y-112482517D01*
X146643537Y-112490178D01*
X146651125Y-112498531D01*
X146652245Y-112499989D01*
X146659766Y-112508027D01*
X146670992Y-112518771D01*
X146683842Y-112530374D01*
X146696235Y-112540995D01*
X146706091Y-112548785D01*
X146711328Y-112551904D01*
X146711633Y-112551947D01*
X146718259Y-112554858D01*
X146728335Y-112560827D01*
X146729687Y-112561677D01*
X146742766Y-112567783D01*
X146756411Y-112571417D01*
X146767632Y-112572035D01*
X146773445Y-112569088D01*
X146773450Y-112569077D01*
X146778909Y-112566675D01*
X146789176Y-112567459D01*
X146793419Y-112568477D01*
X146810964Y-112574829D01*
X146826770Y-112585049D01*
X146842783Y-112600650D01*
X146860951Y-112623141D01*
X146864372Y-112627646D01*
X146881116Y-112648863D01*
X146899100Y-112670625D01*
X146914977Y-112688862D01*
X146923476Y-112698520D01*
X146940877Y-112721296D01*
X146952626Y-112742372D01*
X146956733Y-112751430D01*
X146964196Y-112767707D01*
X146968491Y-112776907D01*
X146970014Y-112780170D01*
X146970350Y-112780889D01*
X146974209Y-112791652D01*
X146974715Y-112798609D01*
X146975413Y-112804524D01*
X146980299Y-112813830D01*
X146981498Y-112815810D01*
X146985662Y-112830488D01*
X146986881Y-112852348D01*
X146985053Y-112879956D01*
X146984506Y-112886361D01*
X146984305Y-112896248D01*
X146985855Y-112903640D01*
X146990124Y-112917563D01*
X146996029Y-112934540D01*
X147002492Y-112951621D01*
X147008438Y-112965858D01*
X147012791Y-112974304D01*
X147018845Y-112989363D01*
X147020543Y-113012632D01*
X147017220Y-113042631D01*
X147015633Y-113053197D01*
X147015202Y-113069117D01*
X147018687Y-113076829D01*
X147024485Y-113083543D01*
X147032054Y-113097262D01*
X147039661Y-113114927D01*
X147046153Y-113133830D01*
X147050378Y-113151262D01*
X147051775Y-113162233D01*
X147051146Y-113175144D01*
X147046808Y-113187916D01*
X147037879Y-113202881D01*
X147023479Y-113222369D01*
X147010926Y-113240170D01*
X147004081Y-113254428D01*
X147001839Y-113267534D01*
X147001819Y-113268352D01*
X147002179Y-113279774D01*
X147005042Y-113285192D01*
X147011985Y-113287747D01*
X147013463Y-113288106D01*
X147016839Y-113289694D01*
X147016468Y-113292535D01*
X147011390Y-113297680D01*
X147000642Y-113306178D01*
X146983264Y-113319078D01*
X146975761Y-113324607D01*
X146960595Y-113336107D01*
X146950972Y-113344450D01*
X146945410Y-113351306D01*
X146942427Y-113358345D01*
X146940543Y-113367237D01*
X146939699Y-113371215D01*
X146935026Y-113384106D01*
X146929198Y-113392052D01*
X146924967Y-113396077D01*
X146923773Y-113401228D01*
X146923901Y-113402638D01*
X146919872Y-113409133D01*
X146911145Y-113417822D01*
X146909074Y-113419572D01*
X146886680Y-113434967D01*
X146866716Y-113441564D01*
X146848697Y-113439430D01*
X146832143Y-113428631D01*
X146829032Y-113425295D01*
X146824460Y-113416868D01*
X146821988Y-113404350D01*
X146820942Y-113385129D01*
X146820928Y-113384569D01*
X146819711Y-113366664D01*
X146817362Y-113351746D01*
X146814374Y-113342996D01*
X146811393Y-113337017D01*
X146810782Y-113329485D01*
X146810800Y-113326907D01*
X146807239Y-113317843D01*
X146800100Y-113306083D01*
X146794787Y-113297831D01*
X146789593Y-113284602D01*
X146789587Y-113270698D01*
X146789880Y-113268362D01*
X146790477Y-113256689D01*
X146789384Y-113250039D01*
X146788862Y-113247918D01*
X146792584Y-113242387D01*
X146794862Y-113239981D01*
X146795046Y-113233532D01*
X146793960Y-113230836D01*
X146792377Y-113221165D01*
X146791555Y-113208292D01*
X146791547Y-113195341D01*
X146792405Y-113185439D01*
X146794181Y-113181709D01*
X146794436Y-113181356D01*
X146792305Y-113175637D01*
X146786567Y-113164355D01*
X146778131Y-113149337D01*
X146772607Y-113139947D01*
X146764486Y-113127091D01*
X146758392Y-113119806D01*
X146752692Y-113116366D01*
X146745757Y-113115041D01*
X146732571Y-113113672D01*
X146741778Y-113097401D01*
X146743669Y-113093906D01*
X146748100Y-113083658D01*
X146748802Y-113078011D01*
X146749420Y-113074642D01*
X146755454Y-113068704D01*
X146759737Y-113064199D01*
X146761824Y-113054826D01*
X146760076Y-113039308D01*
X146755861Y-113016099D01*
X146738733Y-113019841D01*
X146736496Y-113020278D01*
X146723562Y-113020986D01*
X146714596Y-113018687D01*
X146713085Y-113017787D01*
X146702562Y-113013863D01*
X146688737Y-113010718D01*
X146682751Y-113009576D01*
X146673244Y-113005893D01*
X146671148Y-113000499D01*
X146671169Y-112998679D01*
X146668048Y-112989160D01*
X146661312Y-112977506D01*
X146654319Y-112968619D01*
X146646788Y-112963813D01*
X146637354Y-112964044D01*
X146627163Y-112966971D01*
X146615710Y-112972578D01*
X146609792Y-112974991D01*
X146599286Y-112973759D01*
X146583654Y-112967152D01*
X146582012Y-112966332D01*
X146566232Y-112957578D01*
X146556857Y-112949282D01*
X146551748Y-112938757D01*
X146550704Y-112933348D01*
X146757125Y-112933348D01*
X146760764Y-112937570D01*
X146762335Y-112937363D01*
X146761529Y-112933231D01*
X146759834Y-112931398D01*
X146757190Y-112932466D01*
X146757125Y-112933348D01*
X146550704Y-112933348D01*
X146548766Y-112923313D01*
X146548298Y-112919114D01*
X146548440Y-112910724D01*
X146773808Y-112910724D01*
X146775718Y-112920444D01*
X146777412Y-112922109D01*
X146783389Y-112927986D01*
X146794509Y-112935812D01*
X146807809Y-112943614D01*
X146800687Y-112932780D01*
X146796721Y-112926154D01*
X146797561Y-112922459D01*
X146806206Y-112921557D01*
X146814705Y-112919881D01*
X146824523Y-112911943D01*
X146827948Y-112899611D01*
X146823841Y-112885232D01*
X146820795Y-112880326D01*
X146813698Y-112874370D01*
X146803464Y-112874467D01*
X146796264Y-112877289D01*
X146785805Y-112886289D01*
X146777746Y-112898387D01*
X146773808Y-112910724D01*
X146548440Y-112910724D01*
X146548518Y-112906076D01*
X146551603Y-112891326D01*
X146558079Y-112873312D01*
X146568471Y-112850482D01*
X146583304Y-112821285D01*
X146587678Y-112812849D01*
X146597728Y-112792131D01*
X146604506Y-112774892D01*
X146609204Y-112757774D01*
X146613009Y-112737418D01*
X146614354Y-112730243D01*
X146617334Y-112715869D01*
X146621023Y-112699030D01*
X146621971Y-112694814D01*
X146628154Y-112667107D01*
X146632434Y-112647056D01*
X146634959Y-112633369D01*
X146635877Y-112624756D01*
X146635335Y-112619925D01*
X146633482Y-112617585D01*
X146630464Y-112616443D01*
X146630278Y-112616392D01*
X146625419Y-112613593D01*
X146629414Y-112609071D01*
X146632603Y-112606079D01*
X146638854Y-112594299D01*
X146641000Y-112580600D01*
X146638055Y-112569491D01*
X146635472Y-112564177D01*
X146636281Y-112558811D01*
X146636866Y-112557819D01*
X146635253Y-112551000D01*
X146629388Y-112540817D01*
X146626886Y-112537453D01*
X146619613Y-112529902D01*
X146614837Y-112528185D01*
X146613552Y-112528793D01*
X146608044Y-112526631D01*
X146607983Y-112526547D01*
X146601475Y-112523365D01*
X146590237Y-112521570D01*
X146586677Y-112521308D01*
X146575436Y-112518694D01*
X146573186Y-112513873D01*
X146579993Y-112506941D01*
X146587056Y-112503621D01*
X146592636Y-112504625D01*
X146593405Y-112505157D01*
X146595950Y-112501361D01*
X146598154Y-112491215D01*
X146598254Y-112490488D01*
X146600326Y-112479550D01*
X146603322Y-112475840D01*
X146608772Y-112477362D01*
G37*
G36*
X146360363Y-113766666D02*
G01*
X146371171Y-113772264D01*
X146381211Y-113778549D01*
X146387183Y-113783743D01*
X146387422Y-113784055D01*
X146393672Y-113789346D01*
X146403901Y-113796090D01*
X146408874Y-113799511D01*
X146421427Y-113810411D01*
X146433505Y-113823273D01*
X146444624Y-113834774D01*
X146459357Y-113844724D01*
X146479773Y-113853633D01*
X146495894Y-113860032D01*
X146511527Y-113866919D01*
X146521872Y-113872260D01*
X146531471Y-113875821D01*
X146547450Y-113878806D01*
X146565706Y-113880257D01*
X146565903Y-113880262D01*
X146582609Y-113881453D01*
X146595537Y-113883764D01*
X146601902Y-113886698D01*
X146604083Y-113888941D01*
X146609645Y-113889654D01*
X146614839Y-113888984D01*
X146626844Y-113889741D01*
X146642594Y-113891914D01*
X146658377Y-113894910D01*
X146667711Y-113898129D01*
X146672512Y-113902855D01*
X146675178Y-113910451D01*
X146677416Y-113924965D01*
X146675699Y-113940766D01*
X146669034Y-113950762D01*
X146665642Y-113953927D01*
X146662516Y-113961114D01*
X146659798Y-113973718D01*
X146650001Y-113989922D01*
X146634349Y-114007053D01*
X146614151Y-114023423D01*
X146600691Y-114032463D01*
X146585610Y-114040648D01*
X146570144Y-114045840D01*
X146549989Y-114049808D01*
X146530946Y-114052139D01*
X146512659Y-114051339D01*
X146499340Y-114045851D01*
X146488997Y-114035195D01*
X146483887Y-114029546D01*
X146471108Y-114023639D01*
X146456866Y-114025102D01*
X146442810Y-114033174D01*
X146430592Y-114047096D01*
X146421862Y-114066107D01*
X146421510Y-114067242D01*
X146417215Y-114078187D01*
X146413262Y-114084214D01*
X146410612Y-114087442D01*
X146406929Y-114096476D01*
X146405446Y-114100638D01*
X146399090Y-114112468D01*
X146389897Y-114126336D01*
X146379735Y-114139703D01*
X146370474Y-114150032D01*
X146363983Y-114154784D01*
X146358606Y-114157985D01*
X146349841Y-114167851D01*
X146341674Y-114181132D01*
X146336292Y-114194676D01*
X146332496Y-114201861D01*
X146321349Y-114214631D01*
X146304145Y-114230245D01*
X146286129Y-114245376D01*
X146266425Y-114261997D01*
X146249591Y-114276267D01*
X146247727Y-114277844D01*
X146232109Y-114290013D01*
X146219951Y-114296862D01*
X146208705Y-114299861D01*
X146198905Y-114302531D01*
X146181456Y-114311235D01*
X146158438Y-114326216D01*
X146152436Y-114330370D01*
X146135050Y-114341910D01*
X146119712Y-114351437D01*
X146109184Y-114357216D01*
X146100507Y-114362484D01*
X146091192Y-114372680D01*
X146081418Y-114389308D01*
X146080084Y-114391850D01*
X146070538Y-114407524D01*
X146059802Y-114418857D01*
X146044199Y-114429856D01*
X146027824Y-114440278D01*
X146007890Y-114453078D01*
X145988772Y-114465447D01*
X145985641Y-114467447D01*
X145964568Y-114478939D01*
X145946288Y-114485595D01*
X145932255Y-114487024D01*
X145923927Y-114482836D01*
X145921871Y-114482469D01*
X145914138Y-114486714D01*
X145902384Y-114496334D01*
X145893814Y-114503617D01*
X145880206Y-114512115D01*
X145866233Y-114515999D01*
X145861425Y-114516891D01*
X145844781Y-114521541D01*
X145828112Y-114527887D01*
X145810194Y-114534912D01*
X145778249Y-114541683D01*
X145745865Y-114540579D01*
X145737845Y-114539410D01*
X145720819Y-114536946D01*
X145707785Y-114535082D01*
X145705802Y-114534854D01*
X145690901Y-114534756D01*
X145674820Y-114536503D01*
X145670406Y-114537154D01*
X145658771Y-114537428D01*
X145652530Y-114535319D01*
X145651759Y-114534621D01*
X145643778Y-114533210D01*
X145630546Y-114534251D01*
X145615024Y-114537358D01*
X145600170Y-114542145D01*
X145599596Y-114542363D01*
X145587267Y-114543583D01*
X145573499Y-114540721D01*
X145560135Y-114538027D01*
X145549949Y-114540395D01*
X145540793Y-114544050D01*
X145527808Y-114545442D01*
X145516363Y-114545558D01*
X145506322Y-114546836D01*
X145504309Y-114546959D01*
X145494374Y-114544468D01*
X145480623Y-114538890D01*
X145466065Y-114531672D01*
X145453710Y-114524262D01*
X145446567Y-114518105D01*
X145444093Y-114516048D01*
X145436965Y-114516797D01*
X145432279Y-114518168D01*
X145420179Y-114518692D01*
X145404672Y-114517528D01*
X145393550Y-114516392D01*
X145378961Y-114515753D01*
X145369810Y-114516444D01*
X145364723Y-114516747D01*
X145357309Y-114512848D01*
X145354775Y-114510490D01*
X145348258Y-114510449D01*
X145345799Y-114511440D01*
X145334808Y-114511651D01*
X145319313Y-114509142D01*
X145302230Y-114504628D01*
X145286477Y-114498826D01*
X145274970Y-114492450D01*
X145266068Y-114484373D01*
X145257474Y-114472095D01*
X145254760Y-114461031D01*
X145258795Y-114453282D01*
X145259007Y-114453135D01*
X145274227Y-114445888D01*
X145287801Y-114445403D01*
X145297423Y-114451767D01*
X145302995Y-114457337D01*
X145310118Y-114457282D01*
X145312185Y-114456168D01*
X145322576Y-114452760D01*
X145336511Y-114449812D01*
X145340333Y-114449134D01*
X145357138Y-114445146D01*
X145371072Y-114440491D01*
X145384500Y-114436908D01*
X145399319Y-114436369D01*
X145405340Y-114437611D01*
X145413006Y-114441648D01*
X145421115Y-114449978D01*
X145431834Y-114464474D01*
X145434495Y-114468260D01*
X145443588Y-114480519D01*
X145449976Y-114486823D01*
X145455658Y-114488670D01*
X145462631Y-114487556D01*
X145472420Y-114484126D01*
X145485077Y-114477404D01*
X145488064Y-114475724D01*
X145501774Y-114473464D01*
X145522334Y-114476147D01*
X145536846Y-114478507D01*
X145555047Y-114478000D01*
X145574282Y-114472362D01*
X145585279Y-114468720D01*
X145606876Y-114465400D01*
X145632678Y-114466545D01*
X145633724Y-114466657D01*
X145651344Y-114467688D01*
X145665810Y-114467052D01*
X145674080Y-114464871D01*
X145679348Y-114463083D01*
X145692201Y-114462336D01*
X145707998Y-114463846D01*
X145713442Y-114464669D01*
X145729710Y-114465459D01*
X145745568Y-114462653D01*
X145765231Y-114455649D01*
X145782278Y-114449002D01*
X145797602Y-114443486D01*
X145807651Y-114440388D01*
X145813229Y-114438118D01*
X145826733Y-114428200D01*
X145844807Y-114410595D01*
X145846988Y-114408322D01*
X145860853Y-114394696D01*
X145873445Y-114383563D01*
X145882270Y-114377150D01*
X145883608Y-114376436D01*
X145891229Y-114373763D01*
X145897188Y-114376561D01*
X145904698Y-114386117D01*
X145915419Y-114401429D01*
X145954868Y-114372215D01*
X145966590Y-114363267D01*
X145982126Y-114350509D01*
X145993817Y-114339806D01*
X145999766Y-114332821D01*
X146005128Y-114326111D01*
X146015190Y-114319903D01*
X146032061Y-114313226D01*
X146044365Y-114308651D01*
X146064485Y-114299201D01*
X146075591Y-114290351D01*
X146077883Y-114281966D01*
X146079684Y-114274694D01*
X146088002Y-114266118D01*
X146097829Y-114255240D01*
X146104648Y-114240825D01*
X146106712Y-114232248D01*
X146106400Y-114224414D01*
X146101892Y-114216403D01*
X146092040Y-114204944D01*
X146083750Y-114194844D01*
X146076886Y-114181082D01*
X146077807Y-114168661D01*
X146086282Y-114155595D01*
X146096907Y-114147618D01*
X146112407Y-114140770D01*
X146129536Y-114135980D01*
X146145067Y-114134148D01*
X146155778Y-114136176D01*
X146158279Y-114137510D01*
X146173796Y-114140273D01*
X146191279Y-114134394D01*
X146211171Y-114119743D01*
X146218753Y-114112526D01*
X146229946Y-114100346D01*
X146236980Y-114090692D01*
X146241238Y-114084511D01*
X146251474Y-114072784D01*
X146263996Y-114060549D01*
X146266903Y-114057922D01*
X146282285Y-114042888D01*
X146292138Y-114030011D01*
X146298257Y-114016427D01*
X146302435Y-113999274D01*
X146304251Y-113991214D01*
X146308262Y-113978902D01*
X146312152Y-113972447D01*
X146313812Y-113970965D01*
X146320242Y-113960714D01*
X146326641Y-113944759D01*
X146331847Y-113925852D01*
X146332065Y-113924864D01*
X146334946Y-113914304D01*
X146337381Y-113909015D01*
X146338173Y-113906765D01*
X146339066Y-113897345D01*
X146339252Y-113883458D01*
X146339399Y-113876154D01*
X146341469Y-113858203D01*
X146345240Y-113843733D01*
X146345449Y-113843199D01*
X146348376Y-113827547D01*
X146346909Y-113812099D01*
X146346682Y-113811310D01*
X146344598Y-113797913D01*
X146344555Y-113783124D01*
X146346345Y-113770487D01*
X146349762Y-113763546D01*
X146352087Y-113763539D01*
X146360363Y-113766666D01*
G37*
G36*
X145725959Y-112923715D02*
G01*
X145745516Y-112930867D01*
X145766625Y-112941905D01*
X145788124Y-112956693D01*
X145793009Y-112960541D01*
X145807415Y-112972331D01*
X145818541Y-112982090D01*
X145824299Y-112988009D01*
X145830925Y-112995357D01*
X145840850Y-113004122D01*
X145844845Y-113007364D01*
X145857740Y-113018620D01*
X145875276Y-113034862D01*
X145898389Y-113056946D01*
X145900605Y-113058988D01*
X145909683Y-113064509D01*
X145915047Y-113062484D01*
X145916686Y-113053782D01*
X145914590Y-113039271D01*
X145908747Y-113019819D01*
X145899146Y-112996293D01*
X145892853Y-112980840D01*
X145890077Y-112968085D01*
X145891888Y-112959159D01*
X145894983Y-112952073D01*
X145896851Y-112944411D01*
X145897053Y-112943594D01*
X145902703Y-112939855D01*
X145913721Y-112937041D01*
X145920740Y-112935785D01*
X145928501Y-112932668D01*
X145930336Y-112927585D01*
X145931726Y-112923647D01*
X145937825Y-112926697D01*
X145944031Y-112929501D01*
X145955208Y-112929202D01*
X145961590Y-112928197D01*
X145966532Y-112933011D01*
X145966593Y-112933234D01*
X145972819Y-112938264D01*
X145987171Y-112939264D01*
X146002755Y-112940643D01*
X146019819Y-112949767D01*
X146022071Y-112951504D01*
X146037087Y-112959520D01*
X146053481Y-112964311D01*
X146056358Y-112964814D01*
X146074410Y-112970081D01*
X146091047Y-112977672D01*
X146114233Y-112991995D01*
X146142394Y-113011187D01*
X146169671Y-113031542D01*
X146195068Y-113052168D01*
X146217592Y-113072175D01*
X146236247Y-113090671D01*
X146250039Y-113106763D01*
X146257972Y-113119563D01*
X146259052Y-113128178D01*
X146259100Y-113130996D01*
X146262846Y-113140221D01*
X146270125Y-113152139D01*
X146276557Y-113162074D01*
X146279807Y-113170463D01*
X146277627Y-113175075D01*
X146274280Y-113176602D01*
X146268815Y-113174561D01*
X146268785Y-113167369D01*
X146268807Y-113167319D01*
X146266838Y-113161241D01*
X146259068Y-113153401D01*
X146248238Y-113145741D01*
X146237089Y-113140204D01*
X146228363Y-113138731D01*
X146219777Y-113137943D01*
X146205202Y-113132048D01*
X146188801Y-113122007D01*
X146173200Y-113109224D01*
X146166298Y-113104539D01*
X146149219Y-113097973D01*
X146125872Y-113092682D01*
X146122653Y-113092109D01*
X146089734Y-113083098D01*
X146060258Y-113068283D01*
X146048233Y-113061343D01*
X146026756Y-113052138D01*
X146009126Y-113049022D01*
X145996655Y-113052323D01*
X145995888Y-113052755D01*
X145986852Y-113053701D01*
X145974131Y-113051845D01*
X145961941Y-113048089D01*
X145954498Y-113043332D01*
X145952961Y-113041797D01*
X145947199Y-113041311D01*
X145946563Y-113042446D01*
X145948719Y-113049622D01*
X145955839Y-113061446D01*
X145966814Y-113076369D01*
X145977163Y-113088793D01*
X145980533Y-113092839D01*
X145994620Y-113107948D01*
X145995885Y-113109306D01*
X146004231Y-113117963D01*
X146014839Y-113130774D01*
X146022204Y-113143635D01*
X146028828Y-113160427D01*
X146033760Y-113173535D01*
X146039911Y-113187924D01*
X146044655Y-113196914D01*
X146048665Y-113203877D01*
X146049890Y-113215432D01*
X146042624Y-113227411D01*
X146038482Y-113230978D01*
X146026163Y-113235327D01*
X146013207Y-113234344D01*
X146003732Y-113227971D01*
X146002957Y-113227030D01*
X145993534Y-113223035D01*
X145978951Y-113223448D01*
X145961896Y-113228252D01*
X145958483Y-113229950D01*
X145949134Y-113239201D01*
X145944955Y-113250938D01*
X145947454Y-113261667D01*
X145948587Y-113263994D01*
X145947231Y-113269497D01*
X145946270Y-113270036D01*
X145941147Y-113268955D01*
X145939035Y-113268160D01*
X145930302Y-113269227D01*
X145917953Y-113272750D01*
X145905131Y-113277752D01*
X145894984Y-113283259D01*
X145890089Y-113289894D01*
X145891758Y-113301208D01*
X145894822Y-113311325D01*
X145896213Y-113322335D01*
X145896238Y-113324376D01*
X145897948Y-113335934D01*
X145901486Y-113350022D01*
X145905188Y-113363759D01*
X145907309Y-113380718D01*
X145904506Y-113393448D01*
X145896560Y-113404371D01*
X145894113Y-113406992D01*
X145887959Y-113417310D01*
X145889005Y-113427547D01*
X145891159Y-113432247D01*
X145899557Y-113440368D01*
X145910781Y-113439631D01*
X145924684Y-113430028D01*
X145929965Y-113425726D01*
X145947279Y-113415190D01*
X145968314Y-113405837D01*
X145973241Y-113403917D01*
X145995163Y-113393957D01*
X146019965Y-113380980D01*
X146045363Y-113366347D01*
X146069071Y-113351417D01*
X146088803Y-113337551D01*
X146102275Y-113326110D01*
X146105436Y-113323020D01*
X146117729Y-113313346D01*
X146133998Y-113304174D01*
X146144228Y-113299611D01*
X146156764Y-113294020D01*
X146157813Y-113293582D01*
X146179913Y-113283261D01*
X146202953Y-113270742D01*
X146225377Y-113257077D01*
X146245631Y-113243319D01*
X146262160Y-113230522D01*
X146273409Y-113219738D01*
X146277823Y-113212022D01*
X146280117Y-113205265D01*
X146287670Y-113196569D01*
X146291194Y-113194334D01*
X146295457Y-113193612D01*
X146300277Y-113196882D01*
X146307229Y-113205382D01*
X146317889Y-113220353D01*
X146320473Y-113224076D01*
X146331009Y-113240567D01*
X146336151Y-113251820D01*
X146336600Y-113259296D01*
X146335956Y-113264795D01*
X146338329Y-113273990D01*
X146338682Y-113274883D01*
X146338935Y-113283505D01*
X146337575Y-113298933D01*
X146334808Y-113319298D01*
X146330838Y-113342731D01*
X146327089Y-113363579D01*
X146320461Y-113405348D01*
X146316490Y-113439492D01*
X146315086Y-113466911D01*
X146316158Y-113488508D01*
X146318740Y-113515565D01*
X146319631Y-113543613D01*
X146318120Y-113565347D01*
X146314235Y-113579400D01*
X146311406Y-113586097D01*
X146306569Y-113605580D01*
X146303820Y-113628648D01*
X146303507Y-113651443D01*
X146305985Y-113670111D01*
X146305993Y-113675515D01*
X146300816Y-113683714D01*
X146299614Y-113684513D01*
X146294863Y-113686287D01*
X146289147Y-113685124D01*
X146280983Y-113680179D01*
X146268892Y-113670608D01*
X146251389Y-113655567D01*
X146241403Y-113647156D01*
X146227169Y-113637276D01*
X146213180Y-113631614D01*
X146196255Y-113629068D01*
X146173210Y-113628535D01*
X146168344Y-113628044D01*
X146154076Y-113624688D01*
X146135470Y-113618849D01*
X146115291Y-113611348D01*
X146100936Y-113605779D01*
X146084711Y-113600301D01*
X146068458Y-113596087D01*
X146050312Y-113592814D01*
X146028413Y-113590160D01*
X146000897Y-113587801D01*
X145965904Y-113585412D01*
X145953279Y-113584534D01*
X145922378Y-113581463D01*
X145899265Y-113577439D01*
X145882796Y-113572222D01*
X145871827Y-113565567D01*
X145864422Y-113560536D01*
X145851595Y-113555248D01*
X145841951Y-113552436D01*
X145827148Y-113547186D01*
X145810785Y-113540777D01*
X145795454Y-113534272D01*
X145783754Y-113528734D01*
X145778279Y-113525226D01*
X145776465Y-113524043D01*
X145767392Y-113521630D01*
X145753943Y-113519902D01*
X145739724Y-113517752D01*
X145728566Y-113512174D01*
X145717368Y-113500883D01*
X145712999Y-113495961D01*
X145708705Y-113491640D01*
X145818044Y-113491640D01*
X145820359Y-113502342D01*
X145821173Y-113503788D01*
X145828422Y-113511044D01*
X145839454Y-113511280D01*
X145848943Y-113510513D01*
X145854660Y-113512093D01*
X145858512Y-113512543D01*
X145866481Y-113508604D01*
X145868465Y-113507135D01*
X145872874Y-113500599D01*
X145869232Y-113492165D01*
X145867035Y-113489384D01*
X145856307Y-113481513D01*
X145843900Y-113478250D01*
X145831958Y-113479148D01*
X145822624Y-113483760D01*
X145818044Y-113491640D01*
X145708705Y-113491640D01*
X145701567Y-113484456D01*
X145692130Y-113476646D01*
X145682282Y-113472542D01*
X145664563Y-113470704D01*
X145645904Y-113473157D01*
X145630471Y-113479694D01*
X145621460Y-113483889D01*
X145608327Y-113486584D01*
X145596254Y-113486433D01*
X145589051Y-113483120D01*
X145588956Y-113483003D01*
X145583077Y-113480943D01*
X145572166Y-113479620D01*
X145566415Y-113479114D01*
X145560930Y-113477400D01*
X145555468Y-113473208D01*
X145548738Y-113465205D01*
X145539446Y-113452062D01*
X145526299Y-113432448D01*
X145515809Y-113416267D01*
X145505853Y-113399654D01*
X145500195Y-113388419D01*
X145499436Y-113383655D01*
X145503604Y-113384616D01*
X145509444Y-113391431D01*
X145509759Y-113391960D01*
X145515139Y-113398033D01*
X145519529Y-113395649D01*
X145522503Y-113393080D01*
X145527942Y-113395847D01*
X145530640Y-113398130D01*
X145533882Y-113395136D01*
X145535745Y-113385814D01*
X145535952Y-113371968D01*
X145534218Y-113355403D01*
X145533314Y-113347860D01*
X145533392Y-113335788D01*
X145535660Y-113329474D01*
X145536873Y-113325427D01*
X145533944Y-113313627D01*
X145525953Y-113294909D01*
X145523948Y-113290631D01*
X145516587Y-113272425D01*
X145513608Y-113258250D01*
X145514286Y-113245005D01*
X145514782Y-113241604D01*
X145515699Y-113227596D01*
X145514712Y-113217607D01*
X145515954Y-113208451D01*
X145524288Y-113200571D01*
X145537512Y-113195440D01*
X145553381Y-113194405D01*
X145556425Y-113194623D01*
X145568796Y-113194443D01*
X145576258Y-113192649D01*
X145582920Y-113192030D01*
X145593175Y-113195418D01*
X145594826Y-113196279D01*
X145603270Y-113202918D01*
X145605847Y-113212141D01*
X145605898Y-113212968D01*
X145608733Y-113224503D01*
X145613661Y-113228733D01*
X145618474Y-113225369D01*
X145620960Y-113214121D01*
X145621198Y-113209488D01*
X145622448Y-113206217D01*
X145626167Y-113210474D01*
X145626931Y-113211423D01*
X145630573Y-113213302D01*
X145636536Y-113211704D01*
X145646529Y-113205906D01*
X145662262Y-113195185D01*
X145668847Y-113190504D01*
X145671106Y-113188743D01*
X145869594Y-113188743D01*
X145875434Y-113191403D01*
X145880586Y-113192572D01*
X145885665Y-113192796D01*
X145885879Y-113191700D01*
X145883090Y-113186042D01*
X145880235Y-113183754D01*
X145872859Y-113184648D01*
X145872264Y-113185072D01*
X145869594Y-113188743D01*
X145671106Y-113188743D01*
X145683769Y-113178870D01*
X145689373Y-113173028D01*
X145856863Y-113173028D01*
X145858721Y-113174231D01*
X145866255Y-113174219D01*
X145870228Y-113171707D01*
X145868347Y-113164986D01*
X145864135Y-113161106D01*
X145858955Y-113163795D01*
X145857226Y-113167086D01*
X145856863Y-113173028D01*
X145689373Y-113173028D01*
X145692373Y-113169901D01*
X145696068Y-113162221D01*
X145697070Y-113158435D01*
X145700200Y-113153792D01*
X145707072Y-113152494D01*
X145720434Y-113153566D01*
X145730190Y-113153822D01*
X145749739Y-113151671D01*
X145768654Y-113146996D01*
X145779621Y-113143712D01*
X145799326Y-113139394D01*
X145816016Y-113137470D01*
X145820923Y-113137182D01*
X145834115Y-113134601D01*
X145841510Y-113130233D01*
X145841989Y-113129577D01*
X145848242Y-113127104D01*
X145858404Y-113132002D01*
X145859058Y-113132444D01*
X145868105Y-113137599D01*
X145873170Y-113138788D01*
X145873538Y-113138205D01*
X145871026Y-113132984D01*
X145863736Y-113124703D01*
X145853819Y-113115415D01*
X145843423Y-113107174D01*
X145834701Y-113102035D01*
X145827717Y-113097831D01*
X145815832Y-113087833D01*
X145803630Y-113075174D01*
X145791980Y-113062290D01*
X145775451Y-113045035D01*
X145759378Y-113029140D01*
X145736461Y-113006250D01*
X145715222Y-112982650D01*
X145699087Y-112961879D01*
X145689234Y-112945342D01*
X145686496Y-112936621D01*
X145688224Y-112926901D01*
X145696151Y-112921599D01*
X145709117Y-112920581D01*
X145725959Y-112923715D01*
G37*
G36*
X145048029Y-110696547D02*
G01*
X145050282Y-110696906D01*
X145059458Y-110700676D01*
X145066983Y-110708825D01*
X145073478Y-110722585D01*
X145079562Y-110743190D01*
X145085852Y-110771873D01*
X145089893Y-110786622D01*
X145095743Y-110802031D01*
X145098876Y-110812515D01*
X145101472Y-110829870D01*
X145102362Y-110848743D01*
X145102569Y-110863830D01*
X145103817Y-110887890D01*
X145105852Y-110909056D01*
X145107529Y-110924546D01*
X145109322Y-110948366D01*
X145110276Y-110970745D01*
X145110762Y-110988458D01*
X145111492Y-111005864D01*
X145112277Y-111017838D01*
X145113020Y-111028681D01*
X145112934Y-111035317D01*
X145112912Y-111035470D01*
X145112827Y-111041706D01*
X145112949Y-111054984D01*
X145113238Y-111073209D01*
X145113648Y-111094286D01*
X145114134Y-111116121D01*
X145114656Y-111136616D01*
X145115169Y-111153679D01*
X145115629Y-111165213D01*
X145115645Y-111165548D01*
X145115901Y-111174121D01*
X145116249Y-111189748D01*
X145116644Y-111210322D01*
X145117043Y-111233729D01*
X145117072Y-111235493D01*
X145117713Y-111258959D01*
X145118706Y-111279606D01*
X145119919Y-111295257D01*
X145121223Y-111303738D01*
X145122660Y-111313232D01*
X145123390Y-111328821D01*
X145123212Y-111346941D01*
X145123035Y-111364297D01*
X145123816Y-111385760D01*
X145125483Y-111403072D01*
X145125662Y-111404341D01*
X145126525Y-111421149D01*
X145125420Y-111439861D01*
X145122757Y-111457664D01*
X145118943Y-111471748D01*
X145114390Y-111479302D01*
X145111511Y-111482848D01*
X145106637Y-111495074D01*
X145102029Y-111513274D01*
X145097956Y-111535322D01*
X145094693Y-111559095D01*
X145092512Y-111582469D01*
X145091685Y-111603321D01*
X145092486Y-111619526D01*
X145095185Y-111628960D01*
X145095822Y-111634148D01*
X145092455Y-111643394D01*
X145091418Y-111645491D01*
X145088196Y-111658001D01*
X145087209Y-111672981D01*
X145087239Y-111674253D01*
X145085577Y-111688688D01*
X145080318Y-111695733D01*
X145076001Y-111696536D01*
X145070475Y-111693280D01*
X145069195Y-111691304D01*
X145066007Y-111692651D01*
X145065964Y-111692743D01*
X145060546Y-111694603D01*
X145050735Y-111692354D01*
X145039040Y-111689206D01*
X145025598Y-111688378D01*
X145025229Y-111688418D01*
X145011852Y-111689780D01*
X144996631Y-111691265D01*
X144995185Y-111691425D01*
X144982560Y-111694728D01*
X144967481Y-111702300D01*
X144947772Y-111715207D01*
X144943791Y-111718020D01*
X144928269Y-111729454D01*
X144915647Y-111739449D01*
X144908347Y-111746110D01*
X144904231Y-111749640D01*
X144893951Y-111752623D01*
X144877565Y-111751865D01*
X144867488Y-111750302D01*
X144856253Y-111746521D01*
X144845953Y-111739221D01*
X144833236Y-111726483D01*
X144825143Y-111718203D01*
X144808297Y-111703945D01*
X144794879Y-111697169D01*
X144785456Y-111698213D01*
X144784977Y-111698578D01*
X144780167Y-111707503D01*
X144778579Y-111721218D01*
X144780236Y-111736004D01*
X144785159Y-111748141D01*
X144790019Y-111758148D01*
X144788867Y-111769992D01*
X144787058Y-111777133D01*
X144789348Y-111786972D01*
X144791597Y-111791844D01*
X144790360Y-111797473D01*
X144789694Y-111800641D01*
X144794004Y-111807736D01*
X144802194Y-111816084D01*
X144812007Y-111823468D01*
X144821189Y-111827682D01*
X144823175Y-111828376D01*
X144830020Y-111833267D01*
X144832553Y-111835077D01*
X144841893Y-111845721D01*
X144846387Y-111851732D01*
X144860207Y-111865360D01*
X144873196Y-111871156D01*
X144884353Y-111868582D01*
X144887659Y-111866555D01*
X144889087Y-111866173D01*
X144905417Y-111861803D01*
X144926633Y-111863781D01*
X144948984Y-111872352D01*
X144958051Y-111877413D01*
X144969173Y-111884360D01*
X144974811Y-111888919D01*
X144975888Y-111890164D01*
X144981968Y-111892466D01*
X144982918Y-111892514D01*
X144990386Y-111895758D01*
X145002318Y-111902648D01*
X145016352Y-111911630D01*
X145030127Y-111921148D01*
X145041281Y-111929649D01*
X145047453Y-111935578D01*
X145048002Y-111936221D01*
X145055658Y-111941486D01*
X145069129Y-111948411D01*
X145085889Y-111955673D01*
X145093119Y-111958701D01*
X145116188Y-111970148D01*
X145137762Y-111983246D01*
X145155399Y-111996412D01*
X145166659Y-112008062D01*
X145171951Y-112011818D01*
X145182936Y-112010898D01*
X145188033Y-112010041D01*
X145201663Y-112012870D01*
X145217596Y-112020526D01*
X145233363Y-112031430D01*
X145246496Y-112044003D01*
X145254526Y-112056667D01*
X145258492Y-112064003D01*
X145263242Y-112065402D01*
X145267353Y-112063473D01*
X145269817Y-112065800D01*
X145267937Y-112072394D01*
X145261911Y-112080950D01*
X145256091Y-112087725D01*
X145255397Y-112090810D01*
X145261171Y-112090079D01*
X145266323Y-112089472D01*
X145266070Y-112091546D01*
X145259904Y-112100799D01*
X145260228Y-112111430D01*
X145267070Y-112119263D01*
X145272980Y-112123118D01*
X145282270Y-112132433D01*
X145284481Y-112134899D01*
X145293982Y-112142421D01*
X145307316Y-112151138D01*
X145321644Y-112159372D01*
X145334117Y-112165441D01*
X145341896Y-112167667D01*
X145344951Y-112169237D01*
X145352327Y-112176659D01*
X145361232Y-112188167D01*
X145363006Y-112190650D01*
X145373985Y-112203411D01*
X145387552Y-112213954D01*
X145406862Y-112224816D01*
X145421822Y-112233024D01*
X145435091Y-112242377D01*
X145446126Y-112253622D01*
X145456300Y-112268477D01*
X145466982Y-112288659D01*
X145479544Y-112315887D01*
X145485305Y-112328541D01*
X145493063Y-112344672D01*
X145499043Y-112356005D01*
X145502285Y-112360648D01*
X145503771Y-112362615D01*
X145503565Y-112370079D01*
X145501012Y-112374974D01*
X145495686Y-112375960D01*
X145486024Y-112372280D01*
X145470352Y-112363608D01*
X145463400Y-112358774D01*
X145451333Y-112347493D01*
X145436393Y-112330405D01*
X145417580Y-112306424D01*
X145413386Y-112300940D01*
X145390800Y-112272907D01*
X145369608Y-112249028D01*
X145350726Y-112230232D01*
X145335072Y-112217442D01*
X145323563Y-112211584D01*
X145316926Y-112209678D01*
X145311658Y-112206995D01*
X145311008Y-112206414D01*
X145304335Y-112202002D01*
X145292185Y-112194614D01*
X145276575Y-112185485D01*
X145261611Y-112176513D01*
X145247813Y-112166596D01*
X145237627Y-112156289D01*
X145228304Y-112143183D01*
X145221932Y-112134025D01*
X145207483Y-112116085D01*
X145192770Y-112100484D01*
X145184037Y-112092037D01*
X145169397Y-112077261D01*
X145157556Y-112064622D01*
X145149420Y-112056343D01*
X145140249Y-112050884D01*
X145130559Y-112050768D01*
X145128524Y-112051025D01*
X145115123Y-112049812D01*
X145100698Y-112045232D01*
X145088921Y-112040947D01*
X145062636Y-112037473D01*
X145036559Y-112041155D01*
X145013854Y-112051754D01*
X144999537Y-112063689D01*
X144988790Y-112079678D01*
X144987278Y-112096107D01*
X144994941Y-112113181D01*
X144995948Y-112114587D01*
X145006331Y-112125802D01*
X145015572Y-112130424D01*
X145020892Y-112131375D01*
X145027017Y-112134547D01*
X145030289Y-112137249D01*
X145039901Y-112143473D01*
X145053152Y-112151205D01*
X145061230Y-112156225D01*
X145076048Y-112167528D01*
X145090135Y-112180443D01*
X145101783Y-112193196D01*
X145109279Y-112204014D01*
X145110916Y-112211123D01*
X145111104Y-112215182D01*
X145115789Y-112223566D01*
X145123479Y-112232169D01*
X145131569Y-112238248D01*
X145137451Y-112239059D01*
X145143916Y-112239302D01*
X145152655Y-112244913D01*
X145156722Y-112248156D01*
X145169712Y-112256239D01*
X145184857Y-112263728D01*
X145204625Y-112273162D01*
X145225604Y-112284855D01*
X145231976Y-112288900D01*
X145244858Y-112297079D01*
X145260117Y-112308386D01*
X145269110Y-112317336D01*
X145269111Y-112317337D01*
X145275698Y-112322460D01*
X145286593Y-112327725D01*
X145293235Y-112331058D01*
X145301574Y-112338066D01*
X145311344Y-112349786D01*
X145324137Y-112367926D01*
X145329966Y-112376627D01*
X145349303Y-112407403D01*
X145362534Y-112432247D01*
X145369962Y-112451792D01*
X145371896Y-112466673D01*
X145371863Y-112467325D01*
X145372486Y-112484969D01*
X145375228Y-112507055D01*
X145379462Y-112530138D01*
X145384562Y-112550774D01*
X145389898Y-112565517D01*
X145391063Y-112567797D01*
X145399853Y-112579422D01*
X145412420Y-112585695D01*
X145413125Y-112585911D01*
X145421200Y-112589244D01*
X145427865Y-112594762D01*
X145435000Y-112604515D01*
X145444494Y-112620548D01*
X145446038Y-112623290D01*
X145453520Y-112637678D01*
X145458049Y-112648328D01*
X145458691Y-112653104D01*
X145458339Y-112653803D01*
X145461172Y-112659201D01*
X145468900Y-112667351D01*
X145470156Y-112668511D01*
X145478136Y-112677629D01*
X145479443Y-112683265D01*
X145479534Y-112687852D01*
X145483664Y-112696533D01*
X145490128Y-112705866D01*
X145496788Y-112712832D01*
X145501504Y-112714410D01*
X145502635Y-112714199D01*
X145508490Y-112718048D01*
X145516054Y-112727042D01*
X145518542Y-112730412D01*
X145525669Y-112738068D01*
X145530179Y-112739973D01*
X145530620Y-112739780D01*
X145536507Y-112741927D01*
X145545062Y-112748825D01*
X145545263Y-112749019D01*
X145558223Y-112757898D01*
X145560412Y-112758740D01*
X145573194Y-112763652D01*
X145575150Y-112764103D01*
X145586763Y-112768011D01*
X145593387Y-112772303D01*
X145594312Y-112774084D01*
X145597633Y-112784134D01*
X145601622Y-112799663D01*
X145605611Y-112817944D01*
X145608940Y-112836247D01*
X145612786Y-112845839D01*
X145620959Y-112856357D01*
X145629071Y-112864749D01*
X145640583Y-112877695D01*
X145652932Y-112892323D01*
X145663705Y-112905812D01*
X145669325Y-112914185D01*
X145670246Y-112918571D01*
X145667237Y-112920481D01*
X145664905Y-112920915D01*
X145654243Y-112919377D01*
X145642129Y-112911841D01*
X145627924Y-112897695D01*
X145610989Y-112876328D01*
X145590685Y-112847129D01*
X145577531Y-112827731D01*
X145563075Y-112807666D01*
X145553130Y-112795721D01*
X145547676Y-112791866D01*
X145546312Y-112792072D01*
X145537139Y-112795214D01*
X145525013Y-112800842D01*
X145510857Y-112805330D01*
X145496974Y-112803000D01*
X145482243Y-112793165D01*
X145479929Y-112790714D01*
X145510509Y-112790714D01*
X145514150Y-112794937D01*
X145515720Y-112794730D01*
X145514914Y-112790598D01*
X145513219Y-112788765D01*
X145510575Y-112789832D01*
X145510509Y-112790714D01*
X145479929Y-112790714D01*
X145465325Y-112775248D01*
X145458259Y-112766441D01*
X145452822Y-112756954D01*
X145451755Y-112747217D01*
X145453923Y-112733037D01*
X145455314Y-112724701D01*
X145456467Y-112712538D01*
X145455813Y-112706192D01*
X145455287Y-112704066D01*
X145459003Y-112698527D01*
X145460938Y-112696755D01*
X145461719Y-112690728D01*
X145456256Y-112685826D01*
X145446713Y-112684513D01*
X145446209Y-112684583D01*
X145435134Y-112688357D01*
X145422883Y-112695293D01*
X145421215Y-112696434D01*
X145411008Y-112701325D01*
X145405212Y-112699109D01*
X145404350Y-112694425D01*
X145409737Y-112687383D01*
X145413087Y-112684345D01*
X145411895Y-112681771D01*
X145404112Y-112679473D01*
X145388391Y-112676782D01*
X145373209Y-112674115D01*
X145362596Y-112670752D01*
X145356209Y-112665646D01*
X145351360Y-112657390D01*
X145349516Y-112653190D01*
X145347673Y-112640763D01*
X145352858Y-112627422D01*
X145353648Y-112625982D01*
X145357915Y-112613575D01*
X145356561Y-112604820D01*
X145349827Y-112601796D01*
X145348243Y-112600783D01*
X145342490Y-112593495D01*
X145334201Y-112580703D01*
X145324590Y-112564216D01*
X145317970Y-112552446D01*
X145309739Y-112538722D01*
X145303799Y-112530807D01*
X145298896Y-112527147D01*
X145293770Y-112526195D01*
X145287707Y-112525451D01*
X145281595Y-112522566D01*
X145275872Y-112520924D01*
X145265359Y-112521785D01*
X145265286Y-112521799D01*
X145250539Y-112523961D01*
X145234520Y-112525455D01*
X145226752Y-112525279D01*
X145218580Y-112522955D01*
X145209974Y-112517500D01*
X145199975Y-112507989D01*
X145187626Y-112493498D01*
X145171969Y-112473102D01*
X145152047Y-112445878D01*
X145148378Y-112440832D01*
X145134827Y-112422678D01*
X145123289Y-112407963D01*
X145114890Y-112398084D01*
X145110752Y-112394445D01*
X145107827Y-112392644D01*
X145103424Y-112384436D01*
X145100126Y-112372886D01*
X145098870Y-112361670D01*
X145100586Y-112354463D01*
X145101110Y-112353830D01*
X145100726Y-112352153D01*
X145110922Y-112352153D01*
X145112930Y-112353128D01*
X145122005Y-112355367D01*
X145135580Y-112357709D01*
X145137387Y-112357971D01*
X145152434Y-112359706D01*
X145160308Y-112358794D01*
X145162850Y-112354393D01*
X145161906Y-112345657D01*
X145160139Y-112339201D01*
X145153040Y-112330504D01*
X145141763Y-112330111D01*
X145126440Y-112338053D01*
X145121539Y-112341625D01*
X145113434Y-112348454D01*
X145110922Y-112352153D01*
X145100726Y-112352153D01*
X145100562Y-112351436D01*
X145092270Y-112353458D01*
X145083792Y-112354992D01*
X145067813Y-112355111D01*
X145050126Y-112353128D01*
X145036437Y-112351065D01*
X145025330Y-112350161D01*
X145020879Y-112350889D01*
X145020846Y-112351107D01*
X145023033Y-112360467D01*
X145031041Y-112377072D01*
X145044844Y-112400874D01*
X145064418Y-112431829D01*
X145066601Y-112435555D01*
X145070987Y-112448050D01*
X145070823Y-112458427D01*
X145065962Y-112463745D01*
X145062915Y-112465066D01*
X145061646Y-112469177D01*
X145064965Y-112470226D01*
X145072537Y-112467078D01*
X145077607Y-112464325D01*
X145080120Y-112465306D01*
X145076825Y-112469041D01*
X145068032Y-112473689D01*
X145056656Y-112478036D01*
X145016392Y-112419306D01*
X145011824Y-112412659D01*
X144996385Y-112390639D01*
X144984654Y-112374913D01*
X144975575Y-112364211D01*
X144968095Y-112357263D01*
X144961158Y-112352800D01*
X144947860Y-112343382D01*
X144936696Y-112331469D01*
X144925724Y-112321250D01*
X144909012Y-112314691D01*
X144891207Y-112314299D01*
X144875727Y-112320677D01*
X144865753Y-112326660D01*
X144850142Y-112334224D01*
X144832518Y-112341571D01*
X144828668Y-112343019D01*
X144809733Y-112348930D01*
X144794786Y-112350674D01*
X144780335Y-112348732D01*
X144774354Y-112347495D01*
X144762026Y-112346147D01*
X144754967Y-112347131D01*
X144751048Y-112347499D01*
X144744686Y-112342426D01*
X144742032Y-112339088D01*
X144739149Y-112338669D01*
X144735992Y-112344336D01*
X144731300Y-112357505D01*
X144724097Y-112375224D01*
X144716719Y-112384545D01*
X144708177Y-112385971D01*
X144697420Y-112380211D01*
X144693522Y-112377446D01*
X144686911Y-112373760D01*
X144678464Y-112370748D01*
X144666324Y-112367922D01*
X144648636Y-112364799D01*
X144623544Y-112360891D01*
X144613716Y-112359218D01*
X144597832Y-112355805D01*
X144586778Y-112352541D01*
X144582919Y-112351530D01*
X144569402Y-112351117D01*
X144553960Y-112353483D01*
X144547237Y-112354746D01*
X144527534Y-112355646D01*
X144508604Y-112353458D01*
X144499627Y-112351707D01*
X144487023Y-112350427D01*
X144480057Y-112351355D01*
X144479861Y-112351502D01*
X144478930Y-112357412D01*
X144483457Y-112366669D01*
X144491621Y-112376959D01*
X144501600Y-112385968D01*
X144511576Y-112391385D01*
X144523800Y-112398174D01*
X144535482Y-112410304D01*
X144536411Y-112411610D01*
X144544947Y-112420800D01*
X144551150Y-112421384D01*
X144553606Y-112420306D01*
X144556985Y-112421159D01*
X144562181Y-112425074D01*
X144570287Y-112433035D01*
X144582395Y-112446029D01*
X144599600Y-112465041D01*
X144607871Y-112474528D01*
X144612293Y-112481879D01*
X144611744Y-112488172D01*
X144606956Y-112496545D01*
X144598535Y-112514119D01*
X144595556Y-112536818D01*
X144600371Y-112562902D01*
X144607589Y-112586677D01*
X144632744Y-112598127D01*
X144643944Y-112603358D01*
X144654597Y-112608679D01*
X144659233Y-112611484D01*
X144663466Y-112613481D01*
X144673128Y-112616065D01*
X144678524Y-112617061D01*
X144683846Y-112616370D01*
X144683805Y-112611202D01*
X144684858Y-112604770D01*
X144691518Y-112596946D01*
X144698759Y-112594234D01*
X144711927Y-112596177D01*
X144725602Y-112604376D01*
X144737309Y-112617711D01*
X144744885Y-112627957D01*
X144757995Y-112643121D01*
X144773142Y-112659019D01*
X144787731Y-112672949D01*
X144799170Y-112682206D01*
X144807230Y-112688269D01*
X144827017Y-112708383D01*
X144844779Y-112733331D01*
X144858130Y-112759969D01*
X144863462Y-112773158D01*
X144873273Y-112796177D01*
X144882598Y-112816847D01*
X144888614Y-112830973D01*
X144894243Y-112847443D01*
X144896859Y-112859588D01*
X144896923Y-112860564D01*
X144893643Y-112878025D01*
X144883340Y-112892675D01*
X144868141Y-112903035D01*
X144850172Y-112907627D01*
X144831559Y-112904972D01*
X144830449Y-112904521D01*
X144819366Y-112898081D01*
X144804814Y-112887471D01*
X144789640Y-112874742D01*
X144786145Y-112871624D01*
X144773085Y-112860565D01*
X144762938Y-112852872D01*
X144757659Y-112850055D01*
X144755229Y-112848851D01*
X144747110Y-112842291D01*
X144735184Y-112831290D01*
X144721061Y-112817292D01*
X144713718Y-112809825D01*
X144697834Y-112793939D01*
X144683658Y-112780079D01*
X144673578Y-112770599D01*
X144661835Y-112759028D01*
X144648859Y-112743125D01*
X144636376Y-112723737D01*
X144623605Y-112699490D01*
X144609766Y-112669015D01*
X144594080Y-112630943D01*
X144578969Y-112593029D01*
X144552374Y-112571714D01*
X144538930Y-112561079D01*
X144515747Y-112543404D01*
X144495687Y-112528961D01*
X144480722Y-112519192D01*
X144476892Y-112516892D01*
X144465269Y-112509762D01*
X144451608Y-112501259D01*
X144450956Y-112500852D01*
X144428288Y-112488544D01*
X144405282Y-112479115D01*
X144384547Y-112473467D01*
X144368691Y-112472507D01*
X144362615Y-112473705D01*
X144351713Y-112479055D01*
X144339987Y-112490200D01*
X144332858Y-112496920D01*
X144317829Y-112508578D01*
X144298900Y-112521639D01*
X144278335Y-112534684D01*
X144258397Y-112546292D01*
X144241347Y-112555047D01*
X144229447Y-112559529D01*
X144220228Y-112561811D01*
X144213698Y-112564013D01*
X144213580Y-112564059D01*
X144207427Y-112563813D01*
X144194103Y-112562100D01*
X144175481Y-112559189D01*
X144153434Y-112555352D01*
X144150607Y-112554837D01*
X144122483Y-112549763D01*
X144101775Y-112546235D01*
X144086850Y-112544125D01*
X144076071Y-112543298D01*
X144067804Y-112543624D01*
X144060415Y-112544972D01*
X144052269Y-112547211D01*
X144048415Y-112548290D01*
X144034620Y-112551568D01*
X144024841Y-112553049D01*
X144024535Y-112553056D01*
X144012880Y-112551072D01*
X143997272Y-112545781D01*
X143980956Y-112538604D01*
X143967183Y-112530966D01*
X143959198Y-112524288D01*
X143956868Y-112522303D01*
X143949830Y-112522942D01*
X143949612Y-112523085D01*
X143941450Y-112524009D01*
X143930066Y-112521092D01*
X143923509Y-112518474D01*
X143911910Y-112515070D01*
X143901825Y-112515326D01*
X143890097Y-112519659D01*
X143873568Y-112528477D01*
X143872310Y-112529183D01*
X143856053Y-112538511D01*
X143842778Y-112546800D01*
X143829960Y-112555819D01*
X143815071Y-112567340D01*
X143795581Y-112583137D01*
X143779713Y-112594999D01*
X143762206Y-112604671D01*
X143748961Y-112607561D01*
X143740736Y-112603388D01*
X143738891Y-112601460D01*
X143734113Y-112600314D01*
X143726467Y-112602595D01*
X143714809Y-112608861D01*
X143697998Y-112619671D01*
X143674890Y-112635584D01*
X143659448Y-112646548D01*
X143642143Y-112659614D01*
X143629596Y-112670544D01*
X143619929Y-112681026D01*
X143611263Y-112692747D01*
X143603740Y-112704381D01*
X143597681Y-112715139D01*
X143595677Y-112720777D01*
X143595474Y-112721293D01*
X143590201Y-112726300D01*
X143578649Y-112735524D01*
X143561940Y-112748114D01*
X143541198Y-112763220D01*
X143517544Y-112779991D01*
X143438570Y-112835289D01*
X143424081Y-112831197D01*
X143418729Y-112830205D01*
X143406980Y-112830863D01*
X143390903Y-112835045D01*
X143368531Y-112843173D01*
X143351245Y-112849778D01*
X143337306Y-112854314D01*
X143327748Y-112855800D01*
X143320298Y-112854548D01*
X143312684Y-112850874D01*
X143310689Y-112849805D01*
X143299734Y-112845920D01*
X143292366Y-112846379D01*
X143288610Y-112848102D01*
X143278420Y-112848999D01*
X143275933Y-112848804D01*
X143264184Y-112849327D01*
X143249613Y-112851215D01*
X143244850Y-112852022D01*
X143230421Y-112854432D01*
X143220287Y-112856074D01*
X143215029Y-112857406D01*
X143203824Y-112862736D01*
X143200417Y-112863903D01*
X143188544Y-112864882D01*
X143171253Y-112864499D01*
X143150983Y-112862751D01*
X143138429Y-112861414D01*
X143119939Y-112860279D01*
X143102985Y-112860852D01*
X143084959Y-112863423D01*
X143063253Y-112868289D01*
X143035262Y-112875739D01*
X143025882Y-112877940D01*
X143006573Y-112879921D01*
X142991183Y-112878043D01*
X142982074Y-112872449D01*
X142981450Y-112865876D01*
X142984808Y-112854915D01*
X142990852Y-112843629D01*
X142997980Y-112835714D01*
X142998817Y-112835028D01*
X143004855Y-112827479D01*
X143011663Y-112816148D01*
X143012667Y-112814319D01*
X143017659Y-112807029D01*
X143024937Y-112799371D01*
X143035642Y-112790452D01*
X143050918Y-112779378D01*
X143071907Y-112765254D01*
X143099750Y-112747185D01*
X143111705Y-112738834D01*
X143127060Y-112726363D01*
X143138185Y-112715317D01*
X143141308Y-112711715D01*
X143154589Y-112697982D01*
X143168509Y-112685292D01*
X143172608Y-112681763D01*
X143186691Y-112668477D01*
X143198437Y-112655912D01*
X143207105Y-112647971D01*
X143222639Y-112636502D01*
X143242818Y-112623070D01*
X143265747Y-112608852D01*
X143289526Y-112595021D01*
X143312259Y-112582752D01*
X143332045Y-112573218D01*
X143340546Y-112568968D01*
X143356682Y-112557491D01*
X143374411Y-112540023D01*
X143386228Y-112527475D01*
X143402894Y-112510487D01*
X143417545Y-112496254D01*
X143425839Y-112488328D01*
X143441299Y-112472881D01*
X143454308Y-112459132D01*
X143464895Y-112449063D01*
X143482479Y-112434620D01*
X143505016Y-112417451D01*
X143530945Y-112398662D01*
X143558705Y-112379360D01*
X143586734Y-112360652D01*
X143613468Y-112343643D01*
X143627926Y-112335045D01*
X144079785Y-112335045D01*
X144084768Y-112342185D01*
X144093748Y-112353317D01*
X144100137Y-112360532D01*
X144117342Y-112375318D01*
X144135457Y-112382947D01*
X144157150Y-112384744D01*
X144161688Y-112384591D01*
X144171865Y-112383360D01*
X144176287Y-112379699D01*
X144177718Y-112371878D01*
X144177781Y-112370752D01*
X144176100Y-112365412D01*
X144169349Y-112362016D01*
X144155394Y-112359367D01*
X144147364Y-112357982D01*
X144135457Y-112354978D01*
X144129593Y-112352097D01*
X144127854Y-112350521D01*
X144119936Y-112348491D01*
X144116892Y-112348235D01*
X144109274Y-112344263D01*
X144108138Y-112342893D01*
X144100218Y-112334115D01*
X144095259Y-112331256D01*
X144090927Y-112332863D01*
X144088383Y-112334083D01*
X144079909Y-112333446D01*
X144079855Y-112333416D01*
X144079785Y-112335045D01*
X143627926Y-112335045D01*
X143637347Y-112329442D01*
X143649258Y-112322949D01*
X143672780Y-112311305D01*
X143695224Y-112301518D01*
X143713165Y-112295134D01*
X143733215Y-112288522D01*
X143767528Y-112272357D01*
X143795420Y-112252295D01*
X143815557Y-112229193D01*
X143822007Y-112219113D01*
X143830002Y-112206157D01*
X143834876Y-112197666D01*
X143836825Y-112194809D01*
X143844937Y-112185534D01*
X143857282Y-112172869D01*
X143872068Y-112158689D01*
X143878056Y-112153088D01*
X143891725Y-112139633D01*
X143899913Y-112129904D01*
X143903894Y-112122205D01*
X143904939Y-112114837D01*
X143904958Y-112108129D01*
X143905557Y-112096395D01*
X143907927Y-112087293D01*
X143913289Y-112079292D01*
X143922869Y-112070866D01*
X143937891Y-112060486D01*
X143959579Y-112046623D01*
X143962421Y-112044828D01*
X143981417Y-112033103D01*
X143997380Y-112023715D01*
X144008707Y-112017581D01*
X144013795Y-112015615D01*
X144018125Y-112014907D01*
X144028931Y-112011261D01*
X144043221Y-112005456D01*
X144054373Y-112001027D01*
X144072737Y-111995088D01*
X144087798Y-111991714D01*
X144096284Y-111990421D01*
X144107172Y-111987985D01*
X144118173Y-111984189D01*
X144130539Y-111978360D01*
X144145522Y-111969822D01*
X144164374Y-111957902D01*
X144188348Y-111941927D01*
X144218695Y-111921220D01*
X144231861Y-111912196D01*
X144283870Y-111876806D01*
X144631018Y-111876806D01*
X144632402Y-111883986D01*
X144640474Y-111891271D01*
X144653742Y-111898077D01*
X144670721Y-111903819D01*
X144689924Y-111907911D01*
X144709861Y-111909767D01*
X144729045Y-111908803D01*
X144734656Y-111907962D01*
X144746302Y-111905811D01*
X144752149Y-111904101D01*
X144752756Y-111903559D01*
X144753559Y-111897194D01*
X144749900Y-111889367D01*
X144743698Y-111884523D01*
X144740379Y-111883147D01*
X144737223Y-111878923D01*
X144737243Y-111878613D01*
X144733250Y-111873798D01*
X144723512Y-111867689D01*
X144710943Y-111861692D01*
X144698457Y-111857210D01*
X144688967Y-111855650D01*
X144681244Y-111854256D01*
X144672013Y-111847541D01*
X144669470Y-111844147D01*
X144665465Y-111842304D01*
X144661625Y-111849002D01*
X144656124Y-111857125D01*
X144646313Y-111859723D01*
X144639662Y-111860954D01*
X144638011Y-111864164D01*
X144638634Y-111866265D01*
X144635198Y-111871888D01*
X144631018Y-111876806D01*
X144283870Y-111876806D01*
X144284608Y-111876304D01*
X144330341Y-111845663D01*
X144369461Y-111820020D01*
X144402374Y-111799123D01*
X144429483Y-111782718D01*
X144451192Y-111770556D01*
X144467907Y-111762383D01*
X144480030Y-111757945D01*
X144494349Y-111752968D01*
X144518565Y-111741374D01*
X144546357Y-111725121D01*
X144556376Y-111718958D01*
X144578694Y-111706101D01*
X144600337Y-111694617D01*
X144617761Y-111686425D01*
X144627585Y-111682109D01*
X144645996Y-111671973D01*
X144657508Y-111661711D01*
X144658886Y-111659692D01*
X144664470Y-111648336D01*
X144671577Y-111630649D01*
X144679437Y-111608635D01*
X144687279Y-111584295D01*
X144690312Y-111574468D01*
X144697417Y-111552315D01*
X144703623Y-111534134D01*
X144708349Y-111521590D01*
X144711015Y-111516345D01*
X144711847Y-111515251D01*
X144715288Y-111506959D01*
X144719849Y-111492700D01*
X144724775Y-111474761D01*
X144725752Y-111470984D01*
X144731649Y-111449725D01*
X144737744Y-111429807D01*
X144742860Y-111415109D01*
X144744718Y-111410179D01*
X144750547Y-111393452D01*
X144757402Y-111372545D01*
X144764164Y-111350843D01*
X144765949Y-111344960D01*
X144773848Y-111319312D01*
X144782138Y-111292862D01*
X144789293Y-111270491D01*
X144789838Y-111268813D01*
X144797440Y-111244986D01*
X144805827Y-111218146D01*
X144813281Y-111193790D01*
X144814426Y-111190013D01*
X144822352Y-111165043D01*
X144831359Y-111138214D01*
X144840878Y-111111062D01*
X144850341Y-111085120D01*
X144859176Y-111061925D01*
X144866816Y-111043009D01*
X144872690Y-111029907D01*
X144876230Y-111024156D01*
X144877291Y-111022699D01*
X144881824Y-111014424D01*
X144888740Y-111000653D01*
X144897023Y-110983375D01*
X144904569Y-110967639D01*
X144916677Y-110943099D01*
X144930019Y-110916632D01*
X144942829Y-110891769D01*
X144943006Y-110891432D01*
X144954000Y-110869884D01*
X144963709Y-110849954D01*
X144971086Y-110833846D01*
X144975087Y-110823767D01*
X144975745Y-110821675D01*
X144980997Y-110805984D01*
X144986807Y-110789762D01*
X144991981Y-110775967D01*
X145002894Y-110747673D01*
X145011705Y-110726754D01*
X145019092Y-110712176D01*
X145025738Y-110702903D01*
X145032323Y-110697897D01*
X145039526Y-110696125D01*
X145048029Y-110696547D01*
G37*
G36*
X144337317Y-112822219D02*
G01*
X144361756Y-112826893D01*
X144381828Y-112831522D01*
X144395768Y-112835669D01*
X144402014Y-112838930D01*
X144402847Y-112839512D01*
X144410435Y-112840506D01*
X144422615Y-112839832D01*
X144426472Y-112839442D01*
X144437559Y-112839136D01*
X144442931Y-112840330D01*
X144443409Y-112840785D01*
X144450166Y-112843895D01*
X144461613Y-112847475D01*
X144465734Y-112848693D01*
X144481996Y-112854766D01*
X144498196Y-112862233D01*
X144504733Y-112865412D01*
X144515570Y-112869564D01*
X144521340Y-112870146D01*
X144524795Y-112870274D01*
X144527790Y-112871335D01*
X144534604Y-112873750D01*
X144547785Y-112880112D01*
X144560509Y-112887633D01*
X144571465Y-112897228D01*
X144579084Y-112909382D01*
X144581883Y-112916000D01*
X144583315Y-112928849D01*
X144576834Y-112938959D01*
X144561731Y-112947914D01*
X144551972Y-112950939D01*
X144534008Y-112954032D01*
X144512950Y-112956040D01*
X144492272Y-112956655D01*
X144475452Y-112955569D01*
X144471302Y-112955016D01*
X144449835Y-112954773D01*
X144434711Y-112959495D01*
X144426668Y-112968784D01*
X144426444Y-112982235D01*
X144427309Y-112993589D01*
X144423334Y-113001528D01*
X144420055Y-113004606D01*
X144418872Y-113009665D01*
X144419038Y-113009990D01*
X144417885Y-113016392D01*
X144412795Y-113026266D01*
X144411992Y-113027503D01*
X144402453Y-113037939D01*
X144388922Y-113043674D01*
X144381985Y-113046165D01*
X144366974Y-113053603D01*
X144351740Y-113063069D01*
X144342199Y-113069241D01*
X144332330Y-113074239D01*
X144327527Y-113074760D01*
X144326251Y-113073760D01*
X144318062Y-113073719D01*
X144305451Y-113077577D01*
X144290976Y-113084396D01*
X144277196Y-113093235D01*
X144273159Y-113096109D01*
X144259990Y-113103570D01*
X144249201Y-113107218D01*
X144239146Y-113108913D01*
X144235115Y-113111820D01*
X144237350Y-113117078D01*
X144237384Y-113117127D01*
X144238788Y-113125174D01*
X144236877Y-113136772D01*
X144235938Y-113145865D01*
X144238511Y-113157982D01*
X144238558Y-113158072D01*
X144243951Y-113168490D01*
X144250846Y-113174843D01*
X144255690Y-113174601D01*
X144257787Y-113174495D01*
X144258086Y-113174291D01*
X144262763Y-113173367D01*
X144264862Y-113180354D01*
X144265884Y-113184018D01*
X144271908Y-113190236D01*
X144278672Y-113191252D01*
X144279806Y-113191422D01*
X144285715Y-113186449D01*
X144287911Y-113183980D01*
X144293391Y-113184921D01*
X144298496Y-113190563D01*
X144300373Y-113198549D01*
X144301234Y-113203529D01*
X144307069Y-113207454D01*
X144320141Y-113210260D01*
X144321298Y-113210425D01*
X144341151Y-113210378D01*
X144361620Y-113206178D01*
X144377859Y-113198788D01*
X144380995Y-113197764D01*
X144391718Y-113196555D01*
X144406325Y-113196250D01*
X144410840Y-113196178D01*
X144428887Y-113194514D01*
X144450899Y-113191108D01*
X144473102Y-113186512D01*
X144482549Y-113184297D01*
X144501426Y-113180080D01*
X144516445Y-113176998D01*
X144525000Y-113175600D01*
X144530704Y-113174669D01*
X144539211Y-113171453D01*
X144539454Y-113171294D01*
X144547567Y-113168397D01*
X144559755Y-113166054D01*
X144566599Y-113164979D01*
X144581485Y-113161864D01*
X144597147Y-113157887D01*
X144611107Y-113153750D01*
X144620886Y-113150157D01*
X144624003Y-113147813D01*
X144625595Y-113146679D01*
X144633313Y-113146852D01*
X144645056Y-113146983D01*
X144662770Y-113145707D01*
X144682536Y-113143407D01*
X144700735Y-113140511D01*
X144712129Y-113137822D01*
X144713746Y-113137441D01*
X144727824Y-113133425D01*
X144752297Y-113127848D01*
X144785259Y-113121455D01*
X144794622Y-113119551D01*
X144811556Y-113115301D01*
X144824182Y-113111142D01*
X144827200Y-113110224D01*
X144840598Y-113108711D01*
X144859063Y-113108714D01*
X144879540Y-113110283D01*
X144886018Y-113110976D01*
X144898064Y-113111880D01*
X144907513Y-113112590D01*
X144926833Y-113113113D01*
X144940441Y-113112422D01*
X144953140Y-113111217D01*
X144968722Y-113112374D01*
X144984904Y-113117566D01*
X145005113Y-113127596D01*
X145027633Y-113139576D01*
X145079098Y-113164595D01*
X145125047Y-113183395D01*
X145127420Y-113184257D01*
X145146029Y-113191102D01*
X145162476Y-113197291D01*
X145173444Y-113201575D01*
X145175986Y-113202468D01*
X145191552Y-113205104D01*
X145211463Y-113205697D01*
X145231839Y-113204281D01*
X145248802Y-113200891D01*
X145250508Y-113200217D01*
X145260650Y-113194018D01*
X145274360Y-113183563D01*
X145289173Y-113170693D01*
X145297186Y-113163479D01*
X145316360Y-113148664D01*
X145332363Y-113140907D01*
X145346659Y-113139669D01*
X145360713Y-113144414D01*
X145360947Y-113144537D01*
X145373505Y-113153920D01*
X145384254Y-113166537D01*
X145391227Y-113179553D01*
X145392455Y-113190130D01*
X145391921Y-113195689D01*
X145394946Y-113205909D01*
X145395509Y-113206890D01*
X145396535Y-113216990D01*
X145393625Y-113231087D01*
X145387751Y-113245828D01*
X145379887Y-113257858D01*
X145379616Y-113258166D01*
X145372150Y-113272362D01*
X145368140Y-113291303D01*
X145368025Y-113311003D01*
X145372242Y-113327476D01*
X145375080Y-113334422D01*
X145376978Y-113347916D01*
X145372840Y-113356771D01*
X145363123Y-113359401D01*
X145356972Y-113357257D01*
X145346557Y-113348290D01*
X145337099Y-113335107D01*
X145330579Y-113320688D01*
X145328974Y-113308013D01*
X145329268Y-113304354D01*
X145327349Y-113295473D01*
X145320526Y-113286809D01*
X145307561Y-113277088D01*
X145287213Y-113265031D01*
X145258011Y-113252146D01*
X145228865Y-113246507D01*
X145202226Y-113249003D01*
X145179058Y-113259680D01*
X145178681Y-113259942D01*
X145168101Y-113265967D01*
X145157443Y-113268323D01*
X145144693Y-113266773D01*
X145127839Y-113261084D01*
X145104868Y-113251020D01*
X145088478Y-113244356D01*
X145068488Y-113238029D01*
X145052004Y-113234628D01*
X145029205Y-113232118D01*
X144963713Y-113281380D01*
X144959366Y-113284650D01*
X144936828Y-113301526D01*
X144920129Y-113313711D01*
X144907878Y-113322010D01*
X144898684Y-113327229D01*
X144891154Y-113330177D01*
X144883895Y-113331658D01*
X144875516Y-113332481D01*
X144870843Y-113332981D01*
X144855258Y-113336578D01*
X144837364Y-113343930D01*
X144814617Y-113356015D01*
X144808745Y-113359307D01*
X144786536Y-113370547D01*
X144768113Y-113377325D01*
X144750601Y-113380752D01*
X144740568Y-113382374D01*
X144724591Y-113386634D01*
X144713500Y-113391691D01*
X144702686Y-113397225D01*
X144688141Y-113401114D01*
X144677701Y-113402450D01*
X144659163Y-113405449D01*
X144639670Y-113409147D01*
X144621771Y-113413015D01*
X144608013Y-113416526D01*
X144600946Y-113419154D01*
X144595167Y-113422107D01*
X144583571Y-113425146D01*
X144566266Y-113427398D01*
X144542041Y-113429010D01*
X144509687Y-113430128D01*
X144508732Y-113430151D01*
X144483128Y-113430721D01*
X144462859Y-113430866D01*
X144445496Y-113430415D01*
X144428613Y-113429191D01*
X144409780Y-113427021D01*
X144386573Y-113423733D01*
X144356562Y-113419150D01*
X144350841Y-113418241D01*
X144327367Y-113413996D01*
X144307187Y-113409553D01*
X144292291Y-113405387D01*
X144284669Y-113401975D01*
X144275067Y-113396114D01*
X144261812Y-113391392D01*
X144249894Y-113388495D01*
X144239996Y-113385662D01*
X144234068Y-113383726D01*
X144215461Y-113378335D01*
X144196403Y-113373607D01*
X144179246Y-113370046D01*
X144166342Y-113368160D01*
X144160039Y-113368455D01*
X144156164Y-113373798D01*
X144153247Y-113388930D01*
X144153514Y-113412775D01*
X144156966Y-113445291D01*
X144159490Y-113467470D01*
X144159872Y-113485712D01*
X144157634Y-113501495D01*
X144152572Y-113518252D01*
X144147156Y-113532339D01*
X144138864Y-113551288D01*
X144131267Y-113566141D01*
X144128147Y-113571737D01*
X144122683Y-113583240D01*
X144120664Y-113590312D01*
X144120153Y-113592595D01*
X144116086Y-113602105D01*
X144108824Y-113616483D01*
X144099403Y-113633617D01*
X144091329Y-113648281D01*
X144084118Y-113663895D01*
X144082034Y-113674005D01*
X144084906Y-113679860D01*
X144092557Y-113682708D01*
X144097646Y-113684308D01*
X144095774Y-113687302D01*
X144094072Y-113690332D01*
X144096216Y-113697711D01*
X144097685Y-113705806D01*
X144092060Y-113718257D01*
X144083781Y-113730393D01*
X144076628Y-113741049D01*
X144075934Y-113742221D01*
X144072364Y-113753997D01*
X144071506Y-113768362D01*
X144071705Y-113771398D01*
X144073011Y-113781499D01*
X144076149Y-113785631D01*
X144082864Y-113786601D01*
X144089305Y-113787565D01*
X144094471Y-113790634D01*
X144096292Y-113791147D01*
X144104563Y-113788562D01*
X144117782Y-113782509D01*
X144134125Y-113773996D01*
X144151770Y-113764032D01*
X144168893Y-113753622D01*
X144183669Y-113743775D01*
X144194276Y-113735498D01*
X144196622Y-113733328D01*
X144209315Y-113718290D01*
X144214706Y-113703541D01*
X144214797Y-113702936D01*
X144219988Y-113688928D01*
X144232033Y-113677470D01*
X144235899Y-113675015D01*
X144248854Y-113668586D01*
X144263989Y-113662708D01*
X144278643Y-113658236D01*
X144290156Y-113656025D01*
X144295869Y-113656932D01*
X144297576Y-113657182D01*
X144305121Y-113654010D01*
X144316121Y-113647152D01*
X144320960Y-113644031D01*
X144336232Y-113636429D01*
X144349705Y-113632429D01*
X144352332Y-113632044D01*
X144364180Y-113628013D01*
X144372320Y-113619064D01*
X144380864Y-113608560D01*
X144392257Y-113598190D01*
X144397463Y-113594796D01*
X144411981Y-113587099D01*
X144430363Y-113578597D01*
X144449580Y-113570589D01*
X144466603Y-113564376D01*
X144478403Y-113561253D01*
X144484311Y-113560329D01*
X144508649Y-113555233D01*
X144537342Y-113547779D01*
X144567683Y-113538796D01*
X144596969Y-113529119D01*
X144622495Y-113519582D01*
X144641554Y-113511015D01*
X144657264Y-113503298D01*
X144676363Y-113494929D01*
X144691868Y-113489170D01*
X144694023Y-113488495D01*
X144711974Y-113482567D01*
X144729769Y-113476263D01*
X144744487Y-113470647D01*
X144753213Y-113466785D01*
X144756947Y-113465721D01*
X144766630Y-113465576D01*
X144767528Y-113465625D01*
X144777436Y-113464250D01*
X144792738Y-113460491D01*
X144810520Y-113455047D01*
X144830971Y-113448750D01*
X144854875Y-113442355D01*
X144875441Y-113437767D01*
X144890606Y-113434894D01*
X144907053Y-113431707D01*
X144918206Y-113429465D01*
X144929876Y-113427867D01*
X144944980Y-113427323D01*
X144951354Y-113427765D01*
X144967262Y-113429753D01*
X144986513Y-113432855D01*
X145006586Y-113436589D01*
X145024962Y-113440472D01*
X145039120Y-113444024D01*
X145046542Y-113446760D01*
X145051520Y-113448109D01*
X145060620Y-113445304D01*
X145074598Y-113439360D01*
X145097129Y-113438240D01*
X145125460Y-113443722D01*
X145137703Y-113446995D01*
X145157719Y-113451752D01*
X145174309Y-113455046D01*
X145186646Y-113457845D01*
X145197508Y-113463992D01*
X145207349Y-113475752D01*
X145210439Y-113480514D01*
X145216415Y-113492646D01*
X145218211Y-113501449D01*
X145217632Y-113505536D01*
X145216675Y-113518181D01*
X145218762Y-113527686D01*
X145225134Y-113537252D01*
X145237024Y-113550075D01*
X145238520Y-113551636D01*
X145254833Y-113571920D01*
X145266240Y-113592396D01*
X145271881Y-113611134D01*
X145270900Y-113626202D01*
X145269190Y-113629667D01*
X145258787Y-113641558D01*
X145240955Y-113655638D01*
X145229032Y-113663708D01*
X145218756Y-113669336D01*
X145211578Y-113670698D01*
X145205140Y-113668648D01*
X145200275Y-113666717D01*
X145192627Y-113667650D01*
X145183253Y-113675149D01*
X145174619Y-113682108D01*
X145165370Y-113684369D01*
X145151750Y-113682330D01*
X145146714Y-113681133D01*
X145135600Y-113677877D01*
X145130309Y-113675347D01*
X145129281Y-113674598D01*
X145121582Y-113674861D01*
X145109383Y-113678580D01*
X145095418Y-113684777D01*
X145082424Y-113692475D01*
X145075948Y-113696624D01*
X145056605Y-113704434D01*
X145034106Y-113706555D01*
X145006089Y-113703321D01*
X144993017Y-113701566D01*
X144976873Y-113701086D01*
X144965762Y-113702759D01*
X144959261Y-113706178D01*
X144945813Y-113718374D01*
X144934844Y-113734400D01*
X144929137Y-113750621D01*
X144927048Y-113759550D01*
X144921990Y-113775126D01*
X144915400Y-113792112D01*
X144909803Y-113804781D01*
X144904044Y-113814859D01*
X144896669Y-113823177D01*
X144885608Y-113832025D01*
X144868793Y-113843694D01*
X144864385Y-113846660D01*
X144843523Y-113859501D01*
X144826061Y-113867642D01*
X144809082Y-113872487D01*
X144801204Y-113874403D01*
X144781047Y-113881058D01*
X144763517Y-113888892D01*
X144756591Y-113892468D01*
X144742978Y-113898485D01*
X144733323Y-113901446D01*
X144728511Y-113901894D01*
X144724878Y-113899688D01*
X144725231Y-113891199D01*
X144725756Y-113888789D01*
X144731456Y-113877445D01*
X144740894Y-113866043D01*
X144742967Y-113864005D01*
X144753828Y-113852505D01*
X144767479Y-113837197D01*
X144781464Y-113820824D01*
X144783402Y-113818513D01*
X144799484Y-113800114D01*
X144816505Y-113781700D01*
X144831091Y-113766938D01*
X144832435Y-113765645D01*
X144845852Y-113751409D01*
X144853365Y-113739728D01*
X144856644Y-113728064D01*
X144856871Y-113726254D01*
X144857272Y-113714238D01*
X144855710Y-113706865D01*
X144851761Y-113704223D01*
X144840798Y-113700388D01*
X144825745Y-113696667D01*
X144809220Y-113693538D01*
X144793843Y-113691481D01*
X144782234Y-113690972D01*
X144777009Y-113692491D01*
X144772644Y-113695732D01*
X144762969Y-113696559D01*
X144757193Y-113696388D01*
X144750189Y-113698691D01*
X144741417Y-113705086D01*
X144728569Y-113716940D01*
X144718431Y-113726359D01*
X144706989Y-113735153D01*
X144695606Y-113740603D01*
X144680657Y-113744820D01*
X144673732Y-113746443D01*
X144656903Y-113749658D01*
X144646713Y-113749732D01*
X144641441Y-113746447D01*
X144639367Y-113739584D01*
X144636937Y-113732180D01*
X144630667Y-113731402D01*
X144625858Y-113731269D01*
X144618098Y-113726025D01*
X144614579Y-113722438D01*
X144609112Y-113721516D01*
X144603459Y-113721610D01*
X144594007Y-113717658D01*
X144591453Y-113716441D01*
X144577752Y-113714033D01*
X144561121Y-113715332D01*
X144554110Y-113716475D01*
X144542459Y-113717115D01*
X144536602Y-113715558D01*
X144533625Y-113714192D01*
X144526294Y-113716750D01*
X144522241Y-113719196D01*
X144514054Y-113722494D01*
X144501220Y-113726033D01*
X144481462Y-113730512D01*
X144478197Y-113731241D01*
X144454824Y-113737549D01*
X144431513Y-113745436D01*
X144411303Y-113753785D01*
X144397232Y-113761479D01*
X144391173Y-113766211D01*
X144377639Y-113778895D01*
X144365057Y-113792913D01*
X144363268Y-113795073D01*
X144345018Y-113812947D01*
X144321110Y-113831328D01*
X144293974Y-113848766D01*
X144266036Y-113863814D01*
X144239723Y-113875023D01*
X144217464Y-113880947D01*
X144212185Y-113882140D01*
X144202716Y-113886270D01*
X144201928Y-113886653D01*
X144193371Y-113887238D01*
X144179344Y-113885955D01*
X144162798Y-113883333D01*
X144146683Y-113879903D01*
X144133952Y-113876198D01*
X144127553Y-113872747D01*
X144122661Y-113869663D01*
X144112423Y-113867059D01*
X144106254Y-113867678D01*
X144093635Y-113872254D01*
X144078616Y-113879940D01*
X144063384Y-113889350D01*
X144050125Y-113899100D01*
X144041024Y-113907802D01*
X144038268Y-113914071D01*
X144038461Y-113916860D01*
X144034522Y-113924168D01*
X144033917Y-113924670D01*
X144033210Y-113931212D01*
X144039688Y-113942895D01*
X144041679Y-113945917D01*
X144046559Y-113956057D01*
X144046863Y-113962371D01*
X144046371Y-113966364D01*
X144052188Y-113973464D01*
X144058199Y-113976665D01*
X144062754Y-113975623D01*
X144064402Y-113973004D01*
X144073567Y-113967528D01*
X144085465Y-113966394D01*
X144095141Y-113970152D01*
X144095595Y-113970329D01*
X144102523Y-113974395D01*
X144109542Y-113974331D01*
X144112080Y-113973852D01*
X144121319Y-113976474D01*
X144124584Y-113978062D01*
X144133896Y-113982588D01*
X144147150Y-113990653D01*
X144158423Y-113999128D01*
X144165053Y-114006473D01*
X144167392Y-114013532D01*
X144168023Y-114025823D01*
X144167731Y-114029598D01*
X144169601Y-114036842D01*
X144174782Y-114036062D01*
X144181931Y-114027131D01*
X144185289Y-114018377D01*
X144182587Y-114011483D01*
X144180698Y-114009397D01*
X144182885Y-114003481D01*
X144193482Y-113996054D01*
X144211990Y-113987422D01*
X144237904Y-113977888D01*
X144240714Y-113976943D01*
X144261564Y-113969835D01*
X144281468Y-113962905D01*
X144296460Y-113957532D01*
X144303922Y-113955065D01*
X144314556Y-113952806D01*
X144319425Y-113953664D01*
X144320900Y-113954767D01*
X144329314Y-113955976D01*
X144342292Y-113955443D01*
X144348659Y-113954779D01*
X144360110Y-113953596D01*
X144365550Y-113953054D01*
X144367815Y-113955499D01*
X144371631Y-113963579D01*
X144372567Y-113966612D01*
X144372544Y-113975776D01*
X144367883Y-113986754D01*
X144357802Y-114001011D01*
X144341518Y-114020012D01*
X144329025Y-114033200D01*
X144304955Y-114053642D01*
X144279903Y-114067230D01*
X144251269Y-114075187D01*
X144216450Y-114078735D01*
X144198694Y-114079141D01*
X144186600Y-114077927D01*
X144178535Y-114074391D01*
X144171805Y-114067877D01*
X144169882Y-114065656D01*
X144162655Y-114059496D01*
X144154523Y-114058587D01*
X144141672Y-114062209D01*
X144138948Y-114063174D01*
X144123422Y-114070891D01*
X144112585Y-114081778D01*
X144108022Y-114088101D01*
X144103284Y-114096065D01*
X144104051Y-114099498D01*
X144110075Y-114100216D01*
X144115675Y-114101139D01*
X144115020Y-114105477D01*
X144113954Y-114107745D01*
X144114482Y-114114895D01*
X144115541Y-114118715D01*
X144114653Y-114129712D01*
X144111284Y-114143189D01*
X144106464Y-114155432D01*
X144101220Y-114162725D01*
X144100197Y-114163644D01*
X144096386Y-114172507D01*
X144095535Y-114185247D01*
X144095683Y-114187308D01*
X144096259Y-114200819D01*
X144096056Y-114210314D01*
X144096843Y-114217483D01*
X144101543Y-114226787D01*
X144108257Y-114233008D01*
X144114610Y-114233221D01*
X144117621Y-114231875D01*
X144123497Y-114233692D01*
X144123814Y-114234071D01*
X144130166Y-114238938D01*
X144138813Y-114244479D01*
X144142107Y-114246590D01*
X144157344Y-114255550D01*
X144166812Y-114260751D01*
X144180797Y-114267253D01*
X144190046Y-114269181D01*
X144196472Y-114267098D01*
X144202433Y-114264084D01*
X144209947Y-114263453D01*
X144211111Y-114263674D01*
X144219137Y-114261383D01*
X144229900Y-114255188D01*
X144231400Y-114254168D01*
X144245022Y-114246722D01*
X144257433Y-114242408D01*
X144261197Y-114241420D01*
X144270801Y-114236549D01*
X144283329Y-114227058D01*
X144300433Y-114211771D01*
X144304022Y-114208435D01*
X144320865Y-114192962D01*
X144337040Y-114178348D01*
X144349480Y-114167369D01*
X144354544Y-114162820D01*
X144363593Y-114152436D01*
X144364466Y-114145995D01*
X144364050Y-114141375D01*
X144369373Y-114134671D01*
X144377339Y-114126630D01*
X144385030Y-114115032D01*
X144385092Y-114114911D01*
X144394262Y-114102743D01*
X144406334Y-114092497D01*
X144418627Y-114086947D01*
X144435585Y-114082704D01*
X144452120Y-114081141D01*
X144464222Y-114082921D01*
X144464230Y-114082924D01*
X144472721Y-114083765D01*
X144484801Y-114082220D01*
X144496419Y-114081767D01*
X144506397Y-114086387D01*
X144511493Y-114089712D01*
X144521748Y-114090239D01*
X144538077Y-114086409D01*
X144547119Y-114083515D01*
X144564176Y-114077214D01*
X144577235Y-114071368D01*
X144591386Y-114065510D01*
X144606233Y-114061805D01*
X144608329Y-114061499D01*
X144623518Y-114058393D01*
X144639555Y-114054067D01*
X144644631Y-114052724D01*
X144660896Y-114049588D01*
X144681727Y-114046549D01*
X144703872Y-114044112D01*
X144711598Y-114043311D01*
X144736983Y-114039617D01*
X144761909Y-114034667D01*
X144781936Y-114029307D01*
X144800170Y-114023600D01*
X144817390Y-114018699D01*
X144829536Y-114015769D01*
X144841884Y-114012226D01*
X144860783Y-114005105D01*
X144883413Y-113995486D01*
X144907456Y-113984355D01*
X144930598Y-113972698D01*
X144943328Y-113966066D01*
X144957389Y-113959395D01*
X144966516Y-113956513D01*
X144972633Y-113956906D01*
X144977663Y-113960056D01*
X144978367Y-113960677D01*
X144982042Y-113967782D01*
X144977993Y-113977229D01*
X144975665Y-113981497D01*
X144970785Y-113995235D01*
X144967302Y-114011291D01*
X144963789Y-114029810D01*
X144957588Y-114046144D01*
X144948030Y-114057260D01*
X144933707Y-114065425D01*
X144930969Y-114066647D01*
X144913961Y-114075229D01*
X144897837Y-114084613D01*
X144891675Y-114088159D01*
X144873767Y-114094335D01*
X144850590Y-114096637D01*
X144832374Y-114097668D01*
X144808729Y-114100408D01*
X144786709Y-114104315D01*
X144768888Y-114108914D01*
X144757835Y-114113730D01*
X144754789Y-114116257D01*
X144745543Y-114125068D01*
X144732841Y-114137936D01*
X144718494Y-114153049D01*
X144713115Y-114158813D01*
X144689015Y-114184351D01*
X144669278Y-114204663D01*
X144652413Y-114221266D01*
X144636922Y-114235670D01*
X144631557Y-114240860D01*
X144624540Y-114249396D01*
X144622938Y-114254400D01*
X144623616Y-114258503D01*
X144623051Y-114269733D01*
X144620999Y-114284782D01*
X144620968Y-114284961D01*
X144618962Y-114300627D01*
X144619831Y-114308843D01*
X144623728Y-114311086D01*
X144627169Y-114310805D01*
X144632975Y-114309475D01*
X144636693Y-114309622D01*
X144648019Y-114311055D01*
X144665079Y-114313558D01*
X144686003Y-114316823D01*
X144708915Y-114320539D01*
X144731946Y-114324396D01*
X144753224Y-114328087D01*
X144770876Y-114331303D01*
X144783032Y-114333732D01*
X144787819Y-114335065D01*
X144787912Y-114336062D01*
X144786416Y-114343542D01*
X144782971Y-114355467D01*
X144779804Y-114363119D01*
X144767200Y-114382736D01*
X144746696Y-114406805D01*
X144746097Y-114407448D01*
X144730853Y-114423381D01*
X144718723Y-114434269D01*
X144706767Y-114442033D01*
X144692038Y-114448598D01*
X144671596Y-114455888D01*
X144668273Y-114456438D01*
X144656769Y-114454661D01*
X144643626Y-114449645D01*
X144632466Y-114442982D01*
X144626906Y-114436259D01*
X144626685Y-114435467D01*
X144619160Y-114425615D01*
X144604981Y-114418493D01*
X144586478Y-114414890D01*
X144565983Y-114415598D01*
X144557484Y-114417056D01*
X144542288Y-114421280D01*
X144527826Y-114428425D01*
X144510276Y-114440177D01*
X144499862Y-114447990D01*
X144483926Y-114462449D01*
X144475172Y-114475126D01*
X144475033Y-114475432D01*
X144470018Y-114485024D01*
X144464865Y-114488419D01*
X144455996Y-114488020D01*
X144449680Y-114487612D01*
X144442231Y-114490293D01*
X144435258Y-114499211D01*
X144434691Y-114500066D01*
X144424328Y-114511084D01*
X144411263Y-114520149D01*
X144399495Y-114526155D01*
X144382622Y-114534696D01*
X144364773Y-114543680D01*
X144351517Y-114551004D01*
X144332250Y-114563968D01*
X144315721Y-114577699D01*
X144303816Y-114590571D01*
X144298418Y-114600954D01*
X144297003Y-114604665D01*
X144290396Y-114612191D01*
X144287213Y-114614893D01*
X144285705Y-114619847D01*
X144290969Y-114621951D01*
X144301250Y-114619952D01*
X144312654Y-114614414D01*
X144328465Y-114604539D01*
X144346303Y-114591909D01*
X144364528Y-114577840D01*
X144381504Y-114563652D01*
X144395595Y-114550663D01*
X144405162Y-114540189D01*
X144408568Y-114533552D01*
X144411645Y-114529283D01*
X144423302Y-114527243D01*
X144430983Y-114527828D01*
X144436931Y-114532030D01*
X144434769Y-114539353D01*
X144424440Y-114548760D01*
X144420252Y-114552421D01*
X144412699Y-114564916D01*
X144406790Y-114584934D01*
X144405159Y-114593777D01*
X144404831Y-114613661D01*
X144410234Y-114626392D01*
X144420814Y-114631595D01*
X144436015Y-114628891D01*
X144455280Y-114617900D01*
X144474786Y-114603871D01*
X144500016Y-114585948D01*
X144521586Y-114570896D01*
X144538524Y-114559380D01*
X144549864Y-114552065D01*
X144554637Y-114549616D01*
X144555431Y-114549949D01*
X144556664Y-114555546D01*
X144554428Y-114565474D01*
X144549690Y-114576609D01*
X144543419Y-114585828D01*
X144535834Y-114596782D01*
X144530318Y-114610635D01*
X144529478Y-114619434D01*
X144533009Y-114625876D01*
X144542240Y-114625886D01*
X144557504Y-114619433D01*
X144579136Y-114606491D01*
X144586506Y-114601785D01*
X144608593Y-114589199D01*
X144625565Y-114582573D01*
X144638704Y-114581526D01*
X144649299Y-114585676D01*
X144657583Y-114589797D01*
X144667940Y-114591658D01*
X144669539Y-114591557D01*
X144673672Y-114593160D01*
X144674711Y-114599573D01*
X144673183Y-114612954D01*
X144669645Y-114629495D01*
X144662198Y-114646560D01*
X144649756Y-114662600D01*
X144630655Y-114680252D01*
X144619039Y-114690620D01*
X144608197Y-114701587D01*
X144602193Y-114709301D01*
X144602048Y-114709551D01*
X144596321Y-114715385D01*
X144584457Y-114725141D01*
X144567699Y-114737960D01*
X144547285Y-114752976D01*
X144524458Y-114769331D01*
X144500458Y-114786161D01*
X144476526Y-114802604D01*
X144453903Y-114817798D01*
X144433831Y-114830881D01*
X144417548Y-114840992D01*
X144406299Y-114847266D01*
X144401322Y-114848844D01*
X144395508Y-114848662D01*
X144386352Y-114853081D01*
X144384730Y-114854126D01*
X144373671Y-114859872D01*
X144357449Y-114867156D01*
X144338961Y-114874657D01*
X144338733Y-114874744D01*
X144321789Y-114881665D01*
X144307274Y-114888810D01*
X144292802Y-114897635D01*
X144275981Y-114909595D01*
X144254422Y-114926147D01*
X144250972Y-114928854D01*
X144233813Y-114942676D01*
X144220139Y-114954270D01*
X144211265Y-114962488D01*
X144208506Y-114966186D01*
X144208612Y-114967624D01*
X144205838Y-114975306D01*
X144199847Y-114986579D01*
X144199164Y-114987726D01*
X144192972Y-114997332D01*
X144186959Y-115002844D01*
X144178000Y-115006186D01*
X144162970Y-115009281D01*
X144152214Y-115011013D01*
X144135148Y-115012704D01*
X144122476Y-115012699D01*
X144111991Y-115013280D01*
X144097848Y-115019726D01*
X144096616Y-115020680D01*
X144085501Y-115024386D01*
X144075702Y-115019457D01*
X144068631Y-115006532D01*
X144068441Y-114998027D01*
X144075981Y-114992036D01*
X144082160Y-114988019D01*
X144083069Y-114982592D01*
X144082492Y-114977898D01*
X144086633Y-114969703D01*
X144087673Y-114968436D01*
X144090505Y-114962404D01*
X144085555Y-114961396D01*
X144072903Y-114965401D01*
X144052629Y-114974409D01*
X144046180Y-114977488D01*
X144023549Y-114988147D01*
X144007494Y-114995355D01*
X143996568Y-114999700D01*
X143989325Y-115001769D01*
X143984319Y-115002147D01*
X143983956Y-115002144D01*
X143975901Y-115004360D01*
X143962618Y-115009953D01*
X143946788Y-115017805D01*
X143942301Y-115020156D01*
X143925693Y-115027862D01*
X143914216Y-115030902D01*
X143905821Y-115029881D01*
X143897689Y-115028476D01*
X143887984Y-115030888D01*
X143883152Y-115033117D01*
X143877599Y-115031201D01*
X143877921Y-115023670D01*
X143877518Y-115017707D01*
X143872832Y-115008357D01*
X143871309Y-115006401D01*
X143861655Y-115000171D01*
X143846296Y-114998783D01*
X143834071Y-114998457D01*
X143826503Y-114995063D01*
X143821496Y-114986888D01*
X143816117Y-114978318D01*
X143809934Y-114974642D01*
X143807324Y-114974353D01*
X143800055Y-114969501D01*
X143794581Y-114964933D01*
X143781969Y-114960591D01*
X143767948Y-114959646D01*
X143757072Y-114962807D01*
X143756961Y-114962886D01*
X143748074Y-114971375D01*
X143739326Y-114982845D01*
X143736118Y-114987579D01*
X143727696Y-114995630D01*
X143715644Y-114999685D01*
X143708936Y-115001758D01*
X143694185Y-115008582D01*
X143679086Y-115017671D01*
X143664905Y-115029066D01*
X143654519Y-115043867D01*
X143652116Y-115060865D01*
X143656996Y-115082105D01*
X143659505Y-115089878D01*
X143663079Y-115103436D01*
X143664303Y-115112158D01*
X143664874Y-115116606D01*
X143671427Y-115121148D01*
X143676643Y-115123313D01*
X143684715Y-115130693D01*
X143691005Y-115137213D01*
X143706163Y-115148042D01*
X143727450Y-115160071D01*
X143735999Y-115161290D01*
X143747944Y-115159302D01*
X143759668Y-115156626D01*
X143770770Y-115155819D01*
X143778848Y-115155467D01*
X143791423Y-115152722D01*
X143800427Y-115150380D01*
X143812733Y-115149595D01*
X143819740Y-115152423D01*
X143819792Y-115152499D01*
X143821016Y-115160640D01*
X143819367Y-115173996D01*
X143815646Y-115189255D01*
X143810660Y-115203105D01*
X143805211Y-115212234D01*
X143804727Y-115212747D01*
X143798540Y-115221014D01*
X143797308Y-115226311D01*
X143797782Y-115227282D01*
X143795666Y-115232453D01*
X143792141Y-115238055D01*
X143788823Y-115248642D01*
X143788193Y-115251713D01*
X143787747Y-115259423D01*
X143791608Y-115264706D01*
X143801751Y-115270969D01*
X143804760Y-115272587D01*
X143815227Y-115276845D01*
X143821379Y-115277206D01*
X143824318Y-115275980D01*
X143834763Y-115275511D01*
X143846148Y-115277744D01*
X143853368Y-115281927D01*
X143854512Y-115284962D01*
X143852678Y-115293163D01*
X143852058Y-115301107D01*
X143858423Y-115313592D01*
X143864404Y-115321340D01*
X143870284Y-115324786D01*
X143878885Y-115324133D01*
X143893276Y-115319942D01*
X143896009Y-115319102D01*
X143915801Y-115315261D01*
X143930370Y-115318069D01*
X143941622Y-115328421D01*
X143951470Y-115347212D01*
X143952511Y-115349662D01*
X143959834Y-115364179D01*
X143968700Y-115374957D01*
X143982413Y-115386152D01*
X143985846Y-115388760D01*
X144002499Y-115404538D01*
X144014714Y-115423438D01*
X144019794Y-115432610D01*
X144028543Y-115443945D01*
X144038469Y-115450289D01*
X144038889Y-115450470D01*
X144050749Y-115459027D01*
X144061613Y-115472343D01*
X144063996Y-115475988D01*
X144073959Y-115486821D01*
X144085641Y-115491489D01*
X144095204Y-115494679D01*
X144099484Y-115499162D01*
X144099772Y-115500730D01*
X144104860Y-115506630D01*
X144109226Y-115510257D01*
X144117730Y-115519529D01*
X144127950Y-115532063D01*
X144135059Y-115541024D01*
X144143184Y-115549483D01*
X144151941Y-115554854D01*
X144164186Y-115558733D01*
X144182768Y-115562716D01*
X144200099Y-115566741D01*
X144218967Y-115573708D01*
X144234383Y-115583867D01*
X144249795Y-115599090D01*
X144251665Y-115601125D01*
X144269054Y-115616641D01*
X144286331Y-115626705D01*
X144301258Y-115629975D01*
X144311881Y-115629854D01*
X144320878Y-115631665D01*
X144328389Y-115637024D01*
X144336439Y-115647464D01*
X144347058Y-115664511D01*
X144347080Y-115664547D01*
X144359010Y-115682917D01*
X144368893Y-115693437D01*
X144378593Y-115696746D01*
X144389975Y-115693481D01*
X144404904Y-115684277D01*
X144409022Y-115681576D01*
X144426678Y-115674076D01*
X144442213Y-115675269D01*
X144456756Y-115685174D01*
X144462959Y-115692814D01*
X144468168Y-115707954D01*
X144467539Y-115728322D01*
X144466962Y-115736760D01*
X144470154Y-115746500D01*
X144479535Y-115750869D01*
X144484378Y-115752760D01*
X144481095Y-115756623D01*
X144478057Y-115760680D01*
X144477654Y-115769966D01*
X144477721Y-115770192D01*
X144476936Y-115780151D01*
X144471442Y-115791449D01*
X144465109Y-115803222D01*
X144462420Y-115814286D01*
X144461936Y-115818979D01*
X144458845Y-115832145D01*
X144453842Y-115847375D01*
X144451583Y-115853677D01*
X144445343Y-115873730D01*
X144440655Y-115892298D01*
X144440509Y-115892978D01*
X144436276Y-115908912D01*
X144429839Y-115929045D01*
X144422533Y-115949192D01*
X144422291Y-115949818D01*
X144415467Y-115970757D01*
X144410378Y-115992370D01*
X144408111Y-116010075D01*
X144407478Y-116020991D01*
X144406022Y-116032920D01*
X144404258Y-116038456D01*
X144403643Y-116038991D01*
X144398944Y-116047267D01*
X144395316Y-116059651D01*
X144393695Y-116071939D01*
X144395019Y-116079930D01*
X144396873Y-116083913D01*
X144396350Y-116092014D01*
X144396184Y-116096023D01*
X144403799Y-116097258D01*
X144422724Y-116098214D01*
X144434748Y-116102525D01*
X144441135Y-116110801D01*
X144443243Y-116120372D01*
X144441098Y-116140592D01*
X144431929Y-116165031D01*
X144429683Y-116170244D01*
X144424625Y-116185984D01*
X144420470Y-116203965D01*
X144417700Y-116221399D01*
X144416802Y-116235502D01*
X144418260Y-116243487D01*
X144419529Y-116245851D01*
X144419088Y-116250780D01*
X144418699Y-116251770D01*
X144420720Y-116258639D01*
X144426385Y-116269242D01*
X144426486Y-116269405D01*
X144433207Y-116282140D01*
X144435248Y-116293194D01*
X144432524Y-116305772D01*
X144424951Y-116323082D01*
X144418647Y-116335017D01*
X144414116Y-116340183D01*
X144410800Y-116338755D01*
X144404795Y-116335627D01*
X144394141Y-116335568D01*
X144388415Y-116336986D01*
X144381308Y-116342037D01*
X144376383Y-116352984D01*
X144375233Y-116356815D01*
X144374307Y-116366346D01*
X144377479Y-116376531D01*
X144385567Y-116390732D01*
X144392316Y-116401982D01*
X144396184Y-116411116D01*
X144395654Y-116417893D01*
X144391209Y-116425269D01*
X144387632Y-116430652D01*
X144384937Y-116438606D01*
X144389788Y-116441236D01*
X144402471Y-116438893D01*
X144404484Y-116438357D01*
X144413520Y-116437375D01*
X144415524Y-116440294D01*
X144415406Y-116444105D01*
X144420093Y-116451723D01*
X144431365Y-116463317D01*
X144439639Y-116471345D01*
X144445831Y-116478928D01*
X144447278Y-116485069D01*
X144445286Y-116492509D01*
X144443416Y-116501537D01*
X144444958Y-116508340D01*
X144452389Y-116519576D01*
X144457821Y-116536432D01*
X144460520Y-116555618D01*
X144460316Y-116574375D01*
X144457042Y-116589945D01*
X144450529Y-116599572D01*
X144449010Y-116600868D01*
X144446981Y-116609290D01*
X144453055Y-116621328D01*
X144467023Y-116636517D01*
X144481738Y-116650857D01*
X144497267Y-116667663D01*
X144509018Y-116682334D01*
X144515923Y-116693512D01*
X144516910Y-116699840D01*
X144515763Y-116703681D01*
X144518236Y-116712182D01*
X144520405Y-116716583D01*
X144520702Y-116724897D01*
X144519995Y-116727429D01*
X144522627Y-116730294D01*
X144530008Y-116728603D01*
X144540140Y-116723054D01*
X144551021Y-116714342D01*
X144558377Y-116706602D01*
X144564230Y-116695825D01*
X144565009Y-116682818D01*
X144565912Y-116670595D01*
X144569753Y-116653031D01*
X144575696Y-116634653D01*
X144581430Y-116618387D01*
X144588656Y-116594603D01*
X144593982Y-116573355D01*
X144595904Y-116564801D01*
X144607529Y-116527385D01*
X144622758Y-116496095D01*
X144627284Y-116487784D01*
X144636206Y-116467760D01*
X144645536Y-116443278D01*
X144654244Y-116417304D01*
X144661296Y-116392805D01*
X144665662Y-116372746D01*
X144666787Y-116366165D01*
X144671296Y-116345368D01*
X144676751Y-116325921D01*
X144682488Y-116309784D01*
X144687833Y-116298914D01*
X144692120Y-116295270D01*
X144692561Y-116295423D01*
X144696894Y-116300980D01*
X144702114Y-116312134D01*
X144707080Y-116325791D01*
X144710648Y-116338861D01*
X144711680Y-116348250D01*
X144711608Y-116350857D01*
X144712206Y-116362523D01*
X144713716Y-116379634D01*
X144715910Y-116399487D01*
X144716886Y-116408255D01*
X144718349Y-116426714D01*
X144718673Y-116440990D01*
X144717764Y-116448548D01*
X144716802Y-116453724D01*
X144716917Y-116466378D01*
X144718648Y-116482161D01*
X144720206Y-116492518D01*
X144722899Y-116511715D01*
X144724862Y-116527291D01*
X144725181Y-116529703D01*
X144728799Y-116544522D01*
X144734006Y-116555893D01*
X144739355Y-116566838D01*
X144743025Y-116580957D01*
X144746047Y-116593686D01*
X144750991Y-116604557D01*
X144756999Y-116613186D01*
X144242102Y-116973721D01*
X143727203Y-117334257D01*
X143717737Y-117320739D01*
X143709207Y-117311534D01*
X143700986Y-117309037D01*
X143698265Y-117309542D01*
X143692335Y-117307888D01*
X143690515Y-117300562D01*
X143692764Y-117286635D01*
X143699040Y-117265182D01*
X143702409Y-117254242D01*
X143706793Y-117234483D01*
X143706439Y-117220105D01*
X143701087Y-117209104D01*
X143690476Y-117199478D01*
X143688369Y-117197928D01*
X143673835Y-117183880D01*
X143666082Y-117167417D01*
X143663576Y-117145458D01*
X143663196Y-117120613D01*
X143641628Y-117110188D01*
X143634084Y-117106296D01*
X143622243Y-117099075D01*
X143615668Y-117093489D01*
X143615182Y-117087566D01*
X143619845Y-117074303D01*
X143630058Y-117054968D01*
X143630307Y-117054541D01*
X143644300Y-117029198D01*
X143653008Y-117009825D01*
X143656803Y-116994975D01*
X143656058Y-116983198D01*
X143651145Y-116973052D01*
X143643888Y-116958857D01*
X143639477Y-116943002D01*
X143639386Y-116942308D01*
X143637492Y-116928341D01*
X143635930Y-116917431D01*
X143633804Y-116910759D01*
X143627969Y-116897892D01*
X143619996Y-116882946D01*
X143611475Y-116866989D01*
X143603607Y-116848408D01*
X143600656Y-116834996D01*
X143602976Y-116827903D01*
X143605515Y-116823835D01*
X143607843Y-116812668D01*
X143608528Y-116798531D01*
X143607460Y-116785116D01*
X143604529Y-116776111D01*
X143601967Y-116771010D01*
X143601489Y-116763118D01*
X143602469Y-116757658D01*
X143601779Y-116746888D01*
X143600220Y-116736835D01*
X143598585Y-116722579D01*
X143598241Y-116720321D01*
X143594234Y-116708928D01*
X143587247Y-116695505D01*
X143578953Y-116682705D01*
X143571027Y-116673179D01*
X143565141Y-116669580D01*
X143561219Y-116667942D01*
X143551928Y-116661487D01*
X143540173Y-116651767D01*
X143536878Y-116648842D01*
X143527017Y-116639373D01*
X143521433Y-116631130D01*
X143518340Y-116620609D01*
X143515950Y-116604306D01*
X143515213Y-116598935D01*
X143512406Y-116584572D01*
X143507874Y-116572053D01*
X143500289Y-116558298D01*
X143488325Y-116540225D01*
X143481273Y-116529712D01*
X143470500Y-116511638D01*
X143463780Y-116496185D01*
X143459691Y-116480375D01*
X143459418Y-116478984D01*
X143453058Y-116457902D01*
X143443328Y-116443339D01*
X143429509Y-116429042D01*
X143417331Y-116415889D01*
X143409450Y-116406040D01*
X143404611Y-116397645D01*
X143401565Y-116388846D01*
X143399056Y-116377792D01*
X143393227Y-116358568D01*
X143378269Y-116330760D01*
X143372842Y-116322370D01*
X143361979Y-116302423D01*
X143353736Y-116283387D01*
X143353175Y-116281875D01*
X143346636Y-116267500D01*
X143336397Y-116248044D01*
X143323750Y-116225870D01*
X143309985Y-116203341D01*
X143303581Y-116193223D01*
X143291605Y-116173981D01*
X143283439Y-116159747D01*
X143278236Y-116148497D01*
X143275149Y-116138205D01*
X143273331Y-116126848D01*
X143271934Y-116112402D01*
X143270643Y-116099924D01*
X143264145Y-116064754D01*
X143253368Y-116034842D01*
X143237419Y-116007476D01*
X143231086Y-115997650D01*
X143219743Y-115977044D01*
X143210968Y-115957535D01*
X143205098Y-115944321D01*
X143191991Y-115921033D01*
X143175536Y-115896749D01*
X143167847Y-115886222D01*
X143158487Y-115872471D01*
X143153280Y-115862554D01*
X143151176Y-115854260D01*
X143151128Y-115845378D01*
X143151290Y-115842514D01*
X143151137Y-115826902D01*
X143148634Y-115811491D01*
X143143135Y-115793444D01*
X143133998Y-115769926D01*
X143126323Y-115750804D01*
X143117270Y-115727427D01*
X143109761Y-115707220D01*
X143108037Y-115702485D01*
X143101518Y-115686264D01*
X143094333Y-115672137D01*
X143085063Y-115657861D01*
X143072292Y-115641193D01*
X143054607Y-115619892D01*
X143028716Y-115589292D01*
X143033001Y-115558001D01*
X143034912Y-115541771D01*
X143035393Y-115521776D01*
X143032122Y-115506489D01*
X143024381Y-115493289D01*
X143011447Y-115479554D01*
X142991569Y-115458648D01*
X142973854Y-115435227D01*
X142961351Y-115412920D01*
X142955366Y-115393726D01*
X142955022Y-115391225D01*
X142952633Y-115375324D01*
X142950374Y-115362213D01*
X142948716Y-115352329D01*
X142947461Y-115341431D01*
X142946431Y-115335547D01*
X142942976Y-115322523D01*
X142938023Y-115306835D01*
X142934495Y-115295204D01*
X142930808Y-115278930D01*
X142929593Y-115267097D01*
X142929300Y-115256917D01*
X142926185Y-115238532D01*
X142920634Y-115220989D01*
X142913632Y-115207119D01*
X142906164Y-115199752D01*
X142899897Y-115194034D01*
X142895428Y-115183385D01*
X142894682Y-115172224D01*
X142898539Y-115164595D01*
X142900616Y-115163007D01*
X142904716Y-115156654D01*
X142903015Y-115147850D01*
X142895268Y-115134362D01*
X142894794Y-115133637D01*
X142885524Y-115117463D01*
X142882674Y-115105576D01*
X142886302Y-115095506D01*
X142896469Y-115084781D01*
X142907263Y-115074747D01*
X142912413Y-115067344D01*
X142911823Y-115060746D01*
X142906281Y-115052342D01*
X142892514Y-115034203D01*
X142880169Y-115017194D01*
X142871922Y-115003855D01*
X142866932Y-114992104D01*
X142864355Y-114979857D01*
X142863351Y-114965032D01*
X142863075Y-114945546D01*
X142862575Y-114922381D01*
X142859287Y-114875149D01*
X142852509Y-114825989D01*
X142849081Y-114812745D01*
X142843665Y-114798326D01*
X142843532Y-114798030D01*
X142838771Y-114780876D01*
X142839842Y-114765973D01*
X142846564Y-114755985D01*
X142853408Y-114746968D01*
X142858104Y-114732170D01*
X142859486Y-114715751D01*
X142856824Y-114701578D01*
X142853964Y-114690626D01*
X142852988Y-114670951D01*
X142855351Y-114650322D01*
X142860795Y-114633183D01*
X142863092Y-114621901D01*
X142858295Y-114605476D01*
X142854919Y-114597429D01*
X142853939Y-114588511D01*
X142857963Y-114580152D01*
X142867998Y-114570564D01*
X142885048Y-114557960D01*
X142891240Y-114553325D01*
X142903717Y-114540136D01*
X142907072Y-114527316D01*
X142901327Y-114513970D01*
X142888255Y-114500950D01*
X143636464Y-114500950D01*
X143637220Y-114504736D01*
X143640612Y-114506107D01*
X143643614Y-114505111D01*
X143646791Y-114498035D01*
X143647524Y-114496097D01*
X143647200Y-114493025D01*
X143641055Y-114496433D01*
X143636464Y-114500950D01*
X142888255Y-114500950D01*
X142886503Y-114499205D01*
X142883431Y-114496285D01*
X142881605Y-114492107D01*
X143656406Y-114492107D01*
X143656728Y-114493511D01*
X143660730Y-114493979D01*
X143661019Y-114493821D01*
X143666131Y-114496064D01*
X143673411Y-114503957D01*
X143681081Y-114514974D01*
X143687364Y-114526590D01*
X143690484Y-114536278D01*
X143690193Y-114543010D01*
X143686508Y-114550097D01*
X143683565Y-114554196D01*
X143683912Y-114563730D01*
X143689031Y-114574550D01*
X143697398Y-114583841D01*
X143707487Y-114588791D01*
X143713581Y-114590514D01*
X143720122Y-114594615D01*
X143721500Y-114595882D01*
X143727740Y-114595393D01*
X143728668Y-114595078D01*
X143730058Y-114599128D01*
X143728808Y-114609140D01*
X143728339Y-114611530D01*
X143727304Y-114623751D01*
X143728817Y-114631476D01*
X143728894Y-114631590D01*
X143729158Y-114639023D01*
X143724893Y-114649349D01*
X143722525Y-114653529D01*
X143720406Y-114660966D01*
X143722956Y-114668894D01*
X143730813Y-114680675D01*
X143740910Y-114692808D01*
X143751574Y-114699748D01*
X143767084Y-114704093D01*
X143771308Y-114704999D01*
X143784135Y-114708956D01*
X143792197Y-114715098D01*
X143799147Y-114725913D01*
X143804450Y-114734342D01*
X143813968Y-114742463D01*
X143826679Y-114744285D01*
X143845012Y-114740583D01*
X143856105Y-114736705D01*
X143870036Y-114729138D01*
X143884241Y-114717790D01*
X143899838Y-114701594D01*
X143917947Y-114679484D01*
X143939689Y-114650390D01*
X143943615Y-114644879D01*
X143954363Y-114627378D01*
X143960634Y-114611044D01*
X143964183Y-114591671D01*
X143966161Y-114577119D01*
X143969104Y-114558535D01*
X143971781Y-114544591D01*
X143972270Y-114542256D01*
X143973501Y-114530239D01*
X143972204Y-114522788D01*
X143971254Y-114520358D01*
X143974076Y-114514191D01*
X143976603Y-114509670D01*
X143974101Y-114499595D01*
X143964967Y-114484283D01*
X143948987Y-114463296D01*
X143940851Y-114453025D01*
X143933792Y-114442710D01*
X143931468Y-114436092D01*
X143932936Y-114431291D01*
X143933648Y-114429977D01*
X143935989Y-114419771D01*
X143936394Y-114406167D01*
X143935784Y-114399268D01*
X143932684Y-114388812D01*
X143926054Y-114383037D01*
X143910568Y-114378413D01*
X143889322Y-114378467D01*
X143869104Y-114384415D01*
X143867503Y-114385157D01*
X143853044Y-114389608D01*
X143840202Y-114390460D01*
X143830755Y-114389868D01*
X143824082Y-114391009D01*
X143819174Y-114391182D01*
X143809881Y-114387853D01*
X143807854Y-114386993D01*
X143793489Y-114386083D01*
X143772482Y-114391220D01*
X143754545Y-114397776D01*
X143738273Y-114406047D01*
X143725802Y-114416372D01*
X143714146Y-114430783D01*
X143707050Y-114439596D01*
X143693614Y-114453934D01*
X143679099Y-114467538D01*
X143668053Y-114477707D01*
X143666140Y-114479763D01*
X143659557Y-114486838D01*
X143656406Y-114492107D01*
X142881605Y-114492107D01*
X142878419Y-114484815D01*
X142881928Y-114472399D01*
X142893671Y-114460562D01*
X142898806Y-114456616D01*
X142904449Y-114448486D01*
X142904035Y-114437615D01*
X142903134Y-114432536D01*
X142903065Y-114415609D01*
X142908561Y-114398522D01*
X142920431Y-114378361D01*
X142924139Y-114372529D01*
X142931973Y-114356083D01*
X142934015Y-114343350D01*
X142934209Y-114334013D01*
X142937174Y-114327408D01*
X142938739Y-114325431D01*
X142942401Y-114315439D01*
X142946012Y-114299772D01*
X142949184Y-114280945D01*
X142951527Y-114261478D01*
X142952650Y-114243888D01*
X142952162Y-114230692D01*
X142951613Y-114226258D01*
X142950864Y-114213630D01*
X142951641Y-114206067D01*
X142951822Y-114202476D01*
X142944989Y-114196450D01*
X142936546Y-114190818D01*
X142928727Y-114178146D01*
X142928177Y-114160224D01*
X142928843Y-114154005D01*
X142928989Y-114135377D01*
X142926791Y-114118663D01*
X142922634Y-114107511D01*
X142921034Y-114103713D01*
X142921055Y-114093835D01*
X142921473Y-114085986D01*
X142918885Y-114074058D01*
X142917342Y-114069400D01*
X142913681Y-114055175D01*
X142910394Y-114038876D01*
X142905441Y-114020669D01*
X142892796Y-113995622D01*
X142875358Y-113974464D01*
X142855022Y-113959894D01*
X142841973Y-113953199D01*
X142820625Y-113941649D01*
X142795616Y-113927668D01*
X142769327Y-113912592D01*
X142744142Y-113897757D01*
X142727728Y-113886663D01*
X142712287Y-113873460D01*
X142701524Y-113861054D01*
X142697234Y-113851228D01*
X142700331Y-113848984D01*
X142710244Y-113849665D01*
X142725218Y-113853047D01*
X142743445Y-113858532D01*
X142763117Y-113865520D01*
X142782427Y-113873413D01*
X142799564Y-113881611D01*
X142812724Y-113889514D01*
X142813429Y-113890005D01*
X142826560Y-113897033D01*
X142844799Y-113904447D01*
X142864427Y-113910722D01*
X142900027Y-113920416D01*
X142925848Y-113957291D01*
X142936973Y-113974191D01*
X142951453Y-114000021D01*
X142962122Y-114024136D01*
X142968228Y-114044740D01*
X142969016Y-114060037D01*
X142969647Y-114068625D01*
X142973556Y-114083048D01*
X142979931Y-114099373D01*
X142983570Y-114107900D01*
X142989556Y-114127740D01*
X142989624Y-114142870D01*
X142989500Y-114143481D01*
X142988383Y-114155179D01*
X142989807Y-114162705D01*
X142989920Y-114162879D01*
X142990694Y-114170501D01*
X142988215Y-114181815D01*
X142986217Y-114189466D01*
X142986788Y-114197512D01*
X142991249Y-114207426D01*
X143000451Y-114222019D01*
X143002499Y-114225135D01*
X143011526Y-114240573D01*
X143015656Y-114252360D01*
X143015977Y-114263395D01*
X143015963Y-114263520D01*
X143015778Y-114272534D01*
X143018179Y-114280724D01*
X143024391Y-114290676D01*
X143035637Y-114304982D01*
X143039423Y-114309550D01*
X143051989Y-114323110D01*
X143062711Y-114331147D01*
X143074021Y-114335599D01*
X143091110Y-114340154D01*
X143093334Y-114323972D01*
X143093558Y-114322465D01*
X143096384Y-114311066D01*
X143099903Y-114304746D01*
X143101141Y-114303622D01*
X143101860Y-114298290D01*
X143101619Y-114296815D01*
X143104253Y-114289054D01*
X143110493Y-114278028D01*
X143113163Y-114273553D01*
X143117616Y-114262532D01*
X143117473Y-114255406D01*
X143116571Y-114253493D01*
X143118775Y-114247289D01*
X143128744Y-114238910D01*
X143132108Y-114236409D01*
X143139659Y-114229135D01*
X143141376Y-114224359D01*
X143140727Y-114222713D01*
X143143469Y-114217162D01*
X143144533Y-114216073D01*
X143148627Y-114207704D01*
X143152257Y-114195085D01*
X143152666Y-114193303D01*
X143158351Y-114176524D01*
X143165928Y-114161648D01*
X143169188Y-114154357D01*
X143173645Y-114140027D01*
X143178414Y-114121458D01*
X143181550Y-114107471D01*
X143972360Y-114107471D01*
X143975614Y-114108044D01*
X143976188Y-114104791D01*
X143972934Y-114104217D01*
X143972360Y-114107471D01*
X143181550Y-114107471D01*
X143183033Y-114100858D01*
X143183931Y-114096282D01*
X143958866Y-114096282D01*
X143964477Y-114097470D01*
X143975093Y-114095908D01*
X143986980Y-114092390D01*
X143996440Y-114087757D01*
X144002604Y-114084589D01*
X144005397Y-114084338D01*
X144010068Y-114083920D01*
X144011592Y-114084427D01*
X144018491Y-114083728D01*
X144019411Y-114082861D01*
X144021552Y-114075878D01*
X144020357Y-114073626D01*
X144014846Y-114074870D01*
X144012409Y-114076287D01*
X144010439Y-114074632D01*
X144012338Y-114065658D01*
X144016223Y-114051971D01*
X144003872Y-114055059D01*
X143999197Y-114056994D01*
X143988956Y-114063683D01*
X143977624Y-114072953D01*
X143967378Y-114082807D01*
X143960398Y-114091249D01*
X143958866Y-114096282D01*
X143183931Y-114096282D01*
X143187041Y-114080438D01*
X143189978Y-114062409D01*
X143191384Y-114048979D01*
X143190900Y-114043506D01*
X144022622Y-114043506D01*
X144022800Y-114047365D01*
X144022889Y-114049270D01*
X144024323Y-114050725D01*
X144030912Y-114050797D01*
X144042223Y-114044289D01*
X144046552Y-114041103D01*
X144053782Y-114033588D01*
X144053515Y-114027825D01*
X144052081Y-114026369D01*
X144045492Y-114026297D01*
X144034181Y-114032805D01*
X144029852Y-114035991D01*
X144022622Y-114043506D01*
X143190900Y-114043506D01*
X143190798Y-114042357D01*
X143191015Y-114038344D01*
X143194915Y-114029905D01*
X143196002Y-114027489D01*
X143196221Y-114014609D01*
X143190875Y-113996485D01*
X143186501Y-113987239D01*
X144070738Y-113987239D01*
X144073993Y-113987813D01*
X144074566Y-113984559D01*
X144071312Y-113983984D01*
X144070738Y-113987239D01*
X143186501Y-113987239D01*
X143180471Y-113974491D01*
X143165513Y-113949998D01*
X143165377Y-113949797D01*
X143156441Y-113935067D01*
X143153531Y-113923966D01*
X143156672Y-113912993D01*
X143165890Y-113898649D01*
X143175286Y-113882354D01*
X143178583Y-113866317D01*
X143175340Y-113848630D01*
X143165547Y-113826791D01*
X143151942Y-113803977D01*
X143130145Y-113776251D01*
X143106365Y-113754642D01*
X143081797Y-113740180D01*
X143057639Y-113733894D01*
X143052904Y-113733372D01*
X143038516Y-113730135D01*
X143028586Y-113725553D01*
X143026324Y-113724036D01*
X143014565Y-113718836D01*
X142999962Y-113714740D01*
X142995608Y-113713677D01*
X142981248Y-113707950D01*
X142971200Y-113700768D01*
X142963927Y-113694429D01*
X142957506Y-113692375D01*
X142952313Y-113690738D01*
X142945358Y-113683647D01*
X142944525Y-113682511D01*
X142936788Y-113673417D01*
X142924937Y-113660695D01*
X142911177Y-113646725D01*
X142898673Y-113634359D01*
X142874476Y-113610136D01*
X142856294Y-113591234D01*
X142843608Y-113576863D01*
X142835896Y-113566231D01*
X142832639Y-113558550D01*
X142833318Y-113553028D01*
X142837410Y-113548876D01*
X142844395Y-113545305D01*
X142857488Y-113541023D01*
X142871408Y-113538664D01*
X142880415Y-113537250D01*
X142884980Y-113534355D01*
X142886366Y-113532575D01*
X142893402Y-113531273D01*
X142896741Y-113530833D01*
X142897627Y-113526276D01*
X142893357Y-113515566D01*
X142892121Y-113512962D01*
X142886872Y-113501454D01*
X142883894Y-113494201D01*
X142883770Y-113492319D01*
X142887425Y-113483257D01*
X142895812Y-113470492D01*
X142907271Y-113455933D01*
X142920138Y-113441480D01*
X142932751Y-113429039D01*
X142943448Y-113420516D01*
X142950568Y-113417812D01*
X142952278Y-113417751D01*
X142958210Y-113413517D01*
X142963803Y-113410866D01*
X142974119Y-113411328D01*
X142983633Y-113412389D01*
X142991320Y-113410895D01*
X142993735Y-113410218D01*
X143003564Y-113410998D01*
X143016911Y-113414371D01*
X143022902Y-113416270D01*
X143036627Y-113420336D01*
X143045807Y-113422663D01*
X143053855Y-113421713D01*
X143063078Y-113417519D01*
X143070012Y-113412053D01*
X143071332Y-113407315D01*
X143071250Y-113403754D01*
X143073596Y-113393418D01*
X143078134Y-113379347D01*
X143084781Y-113363590D01*
X143092583Y-113352813D01*
X143103701Y-113344565D01*
X143104465Y-113344108D01*
X143114397Y-113337327D01*
X143117564Y-113331895D01*
X143115535Y-113325253D01*
X143113475Y-113321697D01*
X143109552Y-113319301D01*
X143102978Y-113321742D01*
X143091364Y-113329435D01*
X143089442Y-113330769D01*
X143078128Y-113337785D01*
X143071457Y-113339432D01*
X143067251Y-113336334D01*
X143063148Y-113333784D01*
X143051481Y-113333085D01*
X143035349Y-113335823D01*
X143017097Y-113341534D01*
X142999072Y-113349760D01*
X142993855Y-113352433D01*
X142982742Y-113356940D01*
X142976257Y-113357837D01*
X142975966Y-113357624D01*
X142974936Y-113351448D01*
X142975871Y-113338914D01*
X142978613Y-113322441D01*
X142979198Y-113319641D01*
X142982978Y-113304541D01*
X142986557Y-113294575D01*
X142989227Y-113291782D01*
X142993798Y-113290217D01*
X142999576Y-113281990D01*
X143005423Y-113272349D01*
X143010895Y-113266004D01*
X143012698Y-113262937D01*
X143010684Y-113255519D01*
X143008733Y-113253379D01*
X143003519Y-113252134D01*
X142994642Y-113255069D01*
X142980032Y-113262666D01*
X142979967Y-113262702D01*
X142963437Y-113270915D01*
X142951598Y-113274090D01*
X142941784Y-113272945D01*
X142939443Y-113272190D01*
X142932640Y-113268883D01*
X142930885Y-113263232D01*
X142932725Y-113251860D01*
X142935774Y-113243055D01*
X142943027Y-113228170D01*
X142952683Y-113211115D01*
X142963139Y-113194544D01*
X142972793Y-113181110D01*
X142980044Y-113173468D01*
X142982945Y-113169796D01*
X142986244Y-113160333D01*
X142987944Y-113154267D01*
X142992727Y-113150347D01*
X143003554Y-113148213D01*
X143017192Y-113144783D01*
X143029039Y-113139161D01*
X143040056Y-113135224D01*
X143054554Y-113135559D01*
X143055344Y-113135721D01*
X143067924Y-113136504D01*
X143076941Y-113134146D01*
X143078008Y-113133444D01*
X143081773Y-113132492D01*
X143085799Y-113135541D01*
X143091400Y-113144041D01*
X143099890Y-113159439D01*
X143105371Y-113169171D01*
X143117486Y-113189168D01*
X143131766Y-113211464D01*
X143146151Y-113232799D01*
X143156012Y-113247396D01*
X143166170Y-113263672D01*
X143172573Y-113275576D01*
X143174315Y-113281540D01*
X143174852Y-113288173D01*
X143179392Y-113298147D01*
X143183641Y-113307960D01*
X143185069Y-113319844D01*
X143184947Y-113320789D01*
X143183316Y-113333242D01*
X143181366Y-113347972D01*
X143181040Y-113350731D01*
X143180631Y-113362754D01*
X143182010Y-113369832D01*
X143182541Y-113371144D01*
X143182714Y-113379978D01*
X143180629Y-113392676D01*
X143176258Y-113411252D01*
X143191552Y-113404323D01*
X143194427Y-113403097D01*
X143211570Y-113397883D01*
X143230225Y-113394759D01*
X143246972Y-113394131D01*
X143258393Y-113396403D01*
X143263090Y-113397527D01*
X143275981Y-113397827D01*
X143292733Y-113396632D01*
X143310128Y-113394312D01*
X143324949Y-113391232D01*
X143333978Y-113387761D01*
X143337419Y-113386210D01*
X143347500Y-113387882D01*
X143358103Y-113396375D01*
X143367224Y-113410327D01*
X143372700Y-113420262D01*
X143382319Y-113435966D01*
X143394595Y-113455025D01*
X143408151Y-113475256D01*
X143441176Y-113523550D01*
X143432699Y-113535311D01*
X143430034Y-113538618D01*
X143419017Y-113549468D01*
X143405871Y-113559923D01*
X143400594Y-113563494D01*
X143391496Y-113568265D01*
X143381836Y-113570272D01*
X143368731Y-113569902D01*
X143349299Y-113567542D01*
X143343544Y-113566712D01*
X143326461Y-113563714D01*
X143313886Y-113560700D01*
X143308209Y-113558209D01*
X143307359Y-113557426D01*
X143299947Y-113554562D01*
X143288291Y-113552060D01*
X143275719Y-113550397D01*
X143265560Y-113550045D01*
X143261141Y-113551484D01*
X143261128Y-113551543D01*
X143257622Y-113550979D01*
X143250176Y-113545526D01*
X143242812Y-113540625D01*
X143228331Y-113533480D01*
X143211554Y-113526952D01*
X143195559Y-113522338D01*
X143181332Y-113520958D01*
X143170249Y-113524020D01*
X143163886Y-113527582D01*
X143158315Y-113533661D01*
X143161162Y-113540205D01*
X143172567Y-113548693D01*
X143173764Y-113549463D01*
X143183001Y-113556992D01*
X143184515Y-113562139D01*
X143184075Y-113564750D01*
X143186106Y-113574230D01*
X143191076Y-113587143D01*
X143194289Y-113595509D01*
X143199460Y-113615278D01*
X143202197Y-113634900D01*
X143203330Y-113646473D01*
X143208568Y-113666455D01*
X143217376Y-113678473D01*
X143229503Y-113682093D01*
X143237282Y-113683315D01*
X143245845Y-113689138D01*
X143249603Y-113693089D01*
X143254754Y-113694262D01*
X143257010Y-113693716D01*
X143264762Y-113696800D01*
X143273564Y-113704005D01*
X143280247Y-113712999D01*
X143280499Y-113713523D01*
X143281984Y-113727728D01*
X143275409Y-113746124D01*
X143260885Y-113768393D01*
X143251895Y-113782395D01*
X143243788Y-113799267D01*
X143237861Y-113815929D01*
X143235024Y-113829802D01*
X143236190Y-113838306D01*
X143236772Y-113839412D01*
X143235125Y-113844931D01*
X143233863Y-113846543D01*
X143234990Y-113852888D01*
X143236471Y-113858349D01*
X143234969Y-113868592D01*
X143234250Y-113872397D01*
X143237194Y-113885779D01*
X143247202Y-113904404D01*
X143264410Y-113928545D01*
X143268849Y-113933625D01*
X143273727Y-113935331D01*
X143280924Y-113932314D01*
X143293052Y-113924178D01*
X143293919Y-113923570D01*
X143306358Y-113913780D01*
X143312632Y-113905509D01*
X143314776Y-113896130D01*
X143319042Y-113869040D01*
X143328497Y-113847240D01*
X143343383Y-113831885D01*
X143350110Y-113826857D01*
X143356675Y-113819705D01*
X143356295Y-113814285D01*
X143355189Y-113810502D01*
X143358965Y-113803838D01*
X143359905Y-113803077D01*
X143366410Y-113794747D01*
X143372837Y-113782714D01*
X143373962Y-113780230D01*
X143379959Y-113769134D01*
X143384948Y-113762844D01*
X143389092Y-113756844D01*
X143392734Y-113745983D01*
X143395396Y-113736202D01*
X143398008Y-113730879D01*
X143399934Y-113725997D01*
X143401362Y-113715782D01*
X143401977Y-113709979D01*
X143404546Y-113703975D01*
X143411200Y-113699500D01*
X143424332Y-113694319D01*
X143432238Y-113691685D01*
X143443933Y-113688891D01*
X143450167Y-113688976D01*
X143450629Y-113689207D01*
X143457317Y-113687950D01*
X143467154Y-113682463D01*
X143473203Y-113679332D01*
X143488151Y-113676033D01*
X143504685Y-113676064D01*
X143519303Y-113679253D01*
X143528509Y-113685431D01*
X143530142Y-113686958D01*
X143540306Y-113689330D01*
X143556777Y-113687958D01*
X143575401Y-113685566D01*
X143591877Y-113686019D01*
X143600349Y-113690254D01*
X143600649Y-113690569D01*
X143607292Y-113692266D01*
X143618696Y-113692288D01*
X143623586Y-113692334D01*
X143641561Y-113696855D01*
X143663851Y-113707500D01*
X143680646Y-113715862D01*
X143697479Y-113720292D01*
X143710166Y-113717715D01*
X143719836Y-113708146D01*
X143729131Y-113696601D01*
X143745817Y-113681179D01*
X143764415Y-113667894D01*
X143781362Y-113659558D01*
X143792296Y-113655367D01*
X143810140Y-113647293D01*
X143827892Y-113638183D01*
X143829607Y-113637231D01*
X143843845Y-113628550D01*
X143855512Y-113619229D01*
X143867205Y-113606897D01*
X143881520Y-113589181D01*
X143886389Y-113582876D01*
X143899123Y-113565993D01*
X143909906Y-113551165D01*
X143916808Y-113541025D01*
X143921868Y-113534457D01*
X143934011Y-113522401D01*
X143948252Y-113511045D01*
X143958099Y-113503617D01*
X143967184Y-113495347D01*
X143970575Y-113490151D01*
X143970607Y-113489763D01*
X143974108Y-113483353D01*
X143982272Y-113472547D01*
X143993522Y-113459453D01*
X143994935Y-113457882D01*
X144005926Y-113444682D01*
X144013605Y-113433748D01*
X144016386Y-113427311D01*
X144016587Y-113426253D01*
X144021326Y-113420262D01*
X144032680Y-113410399D01*
X144051088Y-113396304D01*
X144076984Y-113377618D01*
X144083797Y-113372773D01*
X144108413Y-113354796D01*
X144119944Y-113345746D01*
X144377811Y-113345746D01*
X144377915Y-113351500D01*
X144386368Y-113355948D01*
X144403281Y-113357880D01*
X144407449Y-113358089D01*
X144422014Y-113360946D01*
X144432405Y-113366013D01*
X144437243Y-113369717D01*
X144454344Y-113376718D01*
X144471378Y-113375338D01*
X144475241Y-113374647D01*
X144487837Y-113375690D01*
X144502504Y-113379728D01*
X144503181Y-113379981D01*
X144517219Y-113384150D01*
X144527207Y-113383632D01*
X144537133Y-113378259D01*
X144544497Y-113372484D01*
X144547423Y-113366648D01*
X144544153Y-113359691D01*
X144538503Y-113354347D01*
X144530454Y-113352347D01*
X144526654Y-113352565D01*
X144519347Y-113348707D01*
X144517195Y-113346701D01*
X144506256Y-113342032D01*
X144489188Y-113338047D01*
X144468279Y-113335030D01*
X144445820Y-113333263D01*
X144424102Y-113333032D01*
X144405419Y-113334617D01*
X144402205Y-113335168D01*
X144385944Y-113339898D01*
X144377811Y-113345746D01*
X144119944Y-113345746D01*
X144125707Y-113341223D01*
X144136190Y-113331634D01*
X144140369Y-113325613D01*
X144142700Y-113320656D01*
X144148608Y-113316464D01*
X144149864Y-113316084D01*
X144155713Y-113310094D01*
X144161708Y-113299225D01*
X144164104Y-113294061D01*
X144171706Y-113281936D01*
X144178845Y-113275939D01*
X144184158Y-113277400D01*
X144188362Y-113280021D01*
X144190836Y-113276476D01*
X144189937Y-113272122D01*
X144482180Y-113272122D01*
X144482743Y-113288647D01*
X144484540Y-113295692D01*
X144487299Y-113301732D01*
X144492895Y-113304540D01*
X144504477Y-113306730D01*
X144506132Y-113306993D01*
X144518783Y-113307307D01*
X144527389Y-113304824D01*
X144528877Y-113303636D01*
X144539438Y-113289927D01*
X144542809Y-113274192D01*
X144538969Y-113259070D01*
X144527893Y-113247201D01*
X144525172Y-113245662D01*
X144511248Y-113243018D01*
X144498238Y-113247652D01*
X144487947Y-113257906D01*
X144482180Y-113272122D01*
X144189937Y-113272122D01*
X144189387Y-113269459D01*
X144183624Y-113259176D01*
X144169027Y-113239443D01*
X144158450Y-113231834D01*
X144220714Y-113231834D01*
X144223969Y-113232408D01*
X144224543Y-113229153D01*
X144221288Y-113228579D01*
X144220714Y-113231834D01*
X144158450Y-113231834D01*
X144154574Y-113229046D01*
X144140260Y-113227983D01*
X144131169Y-113228695D01*
X144125916Y-113223649D01*
X144125872Y-113223483D01*
X144121014Y-113218887D01*
X144109808Y-113220186D01*
X144109256Y-113220339D01*
X144098845Y-113222043D01*
X144093201Y-113220830D01*
X144093530Y-113216700D01*
X144098587Y-113208541D01*
X144106563Y-113199870D01*
X144110478Y-113197017D01*
X144220702Y-113197017D01*
X144221676Y-113198283D01*
X144227134Y-113195510D01*
X144230468Y-113192262D01*
X144227828Y-113191578D01*
X144225185Y-113192516D01*
X144220702Y-113197017D01*
X144110478Y-113197017D01*
X144115051Y-113193685D01*
X144118407Y-113191277D01*
X144121753Y-113184443D01*
X144120395Y-113182024D01*
X144114678Y-113183419D01*
X144114483Y-113183553D01*
X144110953Y-113183972D01*
X144110162Y-113177753D01*
X144110826Y-113172515D01*
X144214955Y-113172515D01*
X144215930Y-113173780D01*
X144221388Y-113171008D01*
X144224722Y-113167760D01*
X144222081Y-113167074D01*
X144219439Y-113168014D01*
X144214955Y-113172515D01*
X144110826Y-113172515D01*
X144111944Y-113163699D01*
X144113309Y-113154211D01*
X144114349Y-113142219D01*
X144113884Y-113136299D01*
X144113576Y-113135410D01*
X144113997Y-113127638D01*
X144116532Y-113115636D01*
X144117359Y-113112295D01*
X144119186Y-113100705D01*
X144118575Y-113094112D01*
X144117648Y-113091214D01*
X144116940Y-113084806D01*
X144200727Y-113084806D01*
X144201051Y-113087284D01*
X144204669Y-113093799D01*
X144213113Y-113104511D01*
X144215068Y-113106032D01*
X144214240Y-113103225D01*
X144208742Y-113094735D01*
X144204696Y-113089196D01*
X144200727Y-113084806D01*
X144116940Y-113084806D01*
X144116496Y-113080782D01*
X144116154Y-113066362D01*
X144116170Y-113064915D01*
X144115926Y-113051618D01*
X144113705Y-113043006D01*
X144107782Y-113035513D01*
X144096430Y-113025570D01*
X144085744Y-113016026D01*
X144078751Y-113007062D01*
X144075985Y-112997032D01*
X144076756Y-112983261D01*
X144080381Y-112963072D01*
X144084593Y-112945892D01*
X144089405Y-112935825D01*
X144095647Y-112931372D01*
X144102066Y-112930669D01*
X144109058Y-112933858D01*
X144112134Y-112936055D01*
X144119614Y-112934675D01*
X144128061Y-112930982D01*
X144140551Y-112928149D01*
X144144109Y-112927220D01*
X144156420Y-112921385D01*
X144172509Y-112911706D01*
X144190086Y-112899783D01*
X144206859Y-112887214D01*
X144220536Y-112875600D01*
X144228825Y-112866540D01*
X144229513Y-112865623D01*
X144237813Y-112858532D01*
X144249723Y-112851572D01*
X144256777Y-112848091D01*
X144272760Y-112839810D01*
X144289209Y-112830919D01*
X144293421Y-112828630D01*
X144307997Y-112822217D01*
X144321035Y-112820369D01*
X144337317Y-112822219D01*
G37*
%TD*%
%LPC*%
D13*
%TO.C,*%
X147950000Y-120800000D03*
%TD*%
%TO.C,*%
X141600000Y-108100000D03*
%TD*%
D14*
%TO.C,J1*%
X150000000Y-109600000D03*
X145900000Y-109600000D03*
D15*
X148950000Y-106300000D03*
X148450000Y-106300000D03*
X147950000Y-106300000D03*
X147450000Y-106300000D03*
X146950000Y-106300000D03*
X148950000Y-109900000D03*
X148450000Y-109900000D03*
X147950000Y-109900000D03*
X147450000Y-109900000D03*
X146950000Y-109900000D03*
%TD*%
D14*
%TO.C,J2*%
X139550000Y-119300000D03*
X143650000Y-119300000D03*
D15*
X140600000Y-122600000D03*
X141100000Y-122600000D03*
X141600000Y-122600000D03*
X142100000Y-122600000D03*
X142600000Y-122600000D03*
X140600000Y-119000000D03*
X141100000Y-119000000D03*
X141600000Y-119000000D03*
X142100000Y-119000000D03*
X142600000Y-119000000D03*
%TD*%
%LPD*%
M02*
