%TF.GenerationSoftware,KiCad,Pcbnew,9.0.7*%
%TF.CreationDate,2026-03-31T12:56:17-05:00*%
%TF.ProjectId,proximity,70726f78-696d-4697-9479-2e6b69636164,rev?*%
%TF.SameCoordinates,Original*%
%TF.FileFunction,Copper,L2,Bot*%
%TF.FilePolarity,Positive*%
%FSLAX46Y46*%
G04 Gerber Fmt 4.6, Leading zero omitted, Abs format (unit mm)*
G04 Created by KiCad (PCBNEW 9.0.7) date 2026-03-31 12:56:17*
%MOMM*%
%LPD*%
G01*
G04 APERTURE LIST*
%TA.AperFunction,ComponentPad*%
%ADD10C,4.000000*%
%TD*%
%TA.AperFunction,SMDPad,CuDef*%
%ADD11R,0.300000X1.600000*%
%TD*%
%TA.AperFunction,ViaPad*%
%ADD12C,0.600000*%
%TD*%
%TA.AperFunction,Conductor*%
%ADD13C,0.200000*%
%TD*%
%TA.AperFunction,Conductor*%
%ADD14C,0.150000*%
%TD*%
G04 APERTURE END LIST*
D10*
%TO.P,,*%
%TO.N,*%
X147950000Y-120800000D03*
%TD*%
%TO.P,,*%
%TO.N,*%
X141600000Y-108100000D03*
%TD*%
D11*
%TO.P,J1,1,Pin_1*%
%TO.N,unconnected-(J1-Pin_1-Pad1)*%
X148950000Y-106300000D03*
%TO.P,J1,2,Pin_2*%
%TO.N,unconnected-(J1-Pin_2-Pad2)*%
X148450000Y-106300000D03*
%TO.P,J1,3,Pin_3*%
%TO.N,unconnected-(J1-Pin_3-Pad3)*%
X147950000Y-106300000D03*
%TO.P,J1,4,Pin_4*%
%TO.N,unconnected-(J1-Pin_4-Pad4)*%
X147450000Y-106300000D03*
%TO.P,J1,5,Pin_5*%
%TO.N,unconnected-(J1-Pin_5-Pad5)*%
X146950000Y-106300000D03*
%TO.P,J1,6,Pin_6*%
%TO.N,unconnected-(J1-Pin_6-Pad6)*%
X148950000Y-109900000D03*
%TO.P,J1,7,Pin_7*%
%TO.N,+3.3V*%
X148450000Y-109900000D03*
%TO.P,J1,8,Pin_8*%
%TO.N,/sda*%
X147950000Y-109900000D03*
%TO.P,J1,9,Pin_9*%
%TO.N,/scl*%
X147450000Y-109900000D03*
%TO.P,J1,10,Pin_10*%
%TO.N,GND*%
X146950000Y-109900000D03*
%TD*%
%TO.P,J2,1,Pin_1*%
%TO.N,unconnected-(J2-Pin_1-Pad1)*%
X140600000Y-122600000D03*
%TO.P,J2,2,Pin_2*%
%TO.N,unconnected-(J2-Pin_2-Pad2)*%
X141100000Y-122600000D03*
%TO.P,J2,3,Pin_3*%
%TO.N,unconnected-(J2-Pin_3-Pad3)*%
X141600000Y-122600000D03*
%TO.P,J2,4,Pin_4*%
%TO.N,unconnected-(J2-Pin_4-Pad4)*%
X142100000Y-122600000D03*
%TO.P,J2,5,Pin_5*%
%TO.N,unconnected-(J2-Pin_5-Pad5)*%
X142600000Y-122600000D03*
%TO.P,J2,6,Pin_6*%
%TO.N,unconnected-(J2-Pin_6-Pad6)*%
X140600000Y-119000000D03*
%TO.P,J2,7,Pin_7*%
%TO.N,+3.3V*%
X141100000Y-119000000D03*
%TO.P,J2,8,Pin_8*%
%TO.N,/sda*%
X141600000Y-119000000D03*
%TO.P,J2,9,Pin_9*%
%TO.N,/scl*%
X142100000Y-119000000D03*
%TO.P,J2,10,Pin_10*%
%TO.N,GND*%
X142600000Y-119000000D03*
%TD*%
D12*
%TO.N,+3.3V*%
X140000000Y-117600000D03*
X148450000Y-108450000D03*
%TO.N,/scl*%
X147450000Y-112600000D03*
%TO.N,GND*%
X142600000Y-114400000D03*
X140400000Y-116400000D03*
X149000000Y-117000000D03*
X143500000Y-118371846D03*
X140300000Y-112700000D03*
X146200000Y-115600000D03*
%TO.N,/sda*%
X142600000Y-112600000D03*
%TD*%
D13*
%TO.N,+3.3V*%
X140752000Y-117600000D02*
X141100000Y-117948000D01*
X140000000Y-117600000D02*
X140752000Y-117600000D01*
X141100000Y-117948000D02*
X141100000Y-119000000D01*
X148450000Y-109900000D02*
X148450000Y-108450000D01*
D14*
%TO.N,/scl*%
X147450000Y-112600000D02*
X147450000Y-109900000D01*
X142100000Y-117950000D02*
X142100000Y-119000000D01*
X147450000Y-112600000D02*
X142100000Y-117950000D01*
%TO.N,GND*%
X141600000Y-116400000D02*
X146950000Y-111050000D01*
X140400000Y-116400000D02*
X141600000Y-116400000D01*
D13*
X143500000Y-118371846D02*
X143228154Y-118371846D01*
X143228154Y-118371846D02*
X142600000Y-119000000D01*
D14*
X146950000Y-111050000D02*
X146950000Y-109900000D01*
%TO.N,/sda*%
X147300000Y-108100000D02*
X147950000Y-108750000D01*
X140800000Y-113200000D02*
X140800000Y-114000000D01*
X142600000Y-112600000D02*
X142600000Y-111500000D01*
X142600000Y-112600000D02*
X141400000Y-112600000D01*
X139600000Y-116600000D02*
X140000000Y-117000000D01*
X147950000Y-108750000D02*
X147950000Y-109900000D01*
X141600000Y-117400000D02*
X141600000Y-119000000D01*
X141200000Y-117000000D02*
X141600000Y-117400000D01*
X140000000Y-117000000D02*
X141200000Y-117000000D01*
X139600000Y-115200000D02*
X139600000Y-116600000D01*
X141400000Y-112600000D02*
X140800000Y-113200000D01*
X140800000Y-114000000D02*
X139600000Y-115200000D01*
X142600000Y-111500000D02*
X146000000Y-108100000D01*
X146000000Y-108100000D02*
X147300000Y-108100000D01*
%TD*%
%TA.AperFunction,Conductor*%
%TO.N,GND*%
G36*
X146526936Y-104870185D02*
G01*
X146572691Y-104922989D01*
X146582635Y-104992147D01*
X146553610Y-105055703D01*
X146534208Y-105073766D01*
X146442455Y-105142452D01*
X146442452Y-105142455D01*
X146356206Y-105257664D01*
X146356202Y-105257671D01*
X146305908Y-105392517D01*
X146299501Y-105452116D01*
X146299501Y-105452123D01*
X146299500Y-105452135D01*
X146299500Y-107147870D01*
X146299501Y-107147876D01*
X146305908Y-107207483D01*
X146359303Y-107350641D01*
X146357724Y-107351229D01*
X146370370Y-107409338D01*
X146345957Y-107474804D01*
X146290026Y-107516679D01*
X146246685Y-107524500D01*
X145924233Y-107524500D01*
X145777863Y-107563719D01*
X145646635Y-107639485D01*
X145646632Y-107639487D01*
X144128990Y-109157129D01*
X144067667Y-109190614D01*
X143997975Y-109185630D01*
X143942042Y-109143758D01*
X143917625Y-109078294D01*
X143924267Y-109028496D01*
X144006560Y-108793318D01*
X144069055Y-108519509D01*
X144100500Y-108240425D01*
X144100500Y-107959575D01*
X144079589Y-107773985D01*
X144069057Y-107680505D01*
X144069054Y-107680487D01*
X144061981Y-107649500D01*
X144006560Y-107406682D01*
X143913801Y-107141592D01*
X143791945Y-106888555D01*
X143642523Y-106650752D01*
X143467416Y-106431175D01*
X143268825Y-106232584D01*
X143049248Y-106057477D01*
X142811445Y-105908055D01*
X142811442Y-105908053D01*
X142558411Y-105786200D01*
X142293329Y-105693443D01*
X142293317Y-105693439D01*
X142019512Y-105630945D01*
X142019494Y-105630942D01*
X141740431Y-105599500D01*
X141740425Y-105599500D01*
X141459575Y-105599500D01*
X141459568Y-105599500D01*
X141180505Y-105630942D01*
X141180487Y-105630945D01*
X140906682Y-105693439D01*
X140906670Y-105693443D01*
X140641588Y-105786200D01*
X140388557Y-105908053D01*
X140150753Y-106057476D01*
X139931175Y-106232583D01*
X139732583Y-106431175D01*
X139557476Y-106650753D01*
X139408053Y-106888557D01*
X139286200Y-107141588D01*
X139193443Y-107406670D01*
X139193439Y-107406682D01*
X139130945Y-107680487D01*
X139130942Y-107680505D01*
X139099500Y-107959568D01*
X139099500Y-108240431D01*
X139130942Y-108519494D01*
X139130945Y-108519512D01*
X139193439Y-108793317D01*
X139193443Y-108793329D01*
X139286200Y-109058411D01*
X139408053Y-109311442D01*
X139408055Y-109311445D01*
X139557477Y-109549248D01*
X139609418Y-109614380D01*
X139714724Y-109746430D01*
X139732584Y-109768825D01*
X139931175Y-109967416D01*
X140150752Y-110142523D01*
X140388555Y-110291945D01*
X140641592Y-110413801D01*
X140840680Y-110483465D01*
X140906670Y-110506556D01*
X140906682Y-110506560D01*
X141180491Y-110569055D01*
X141180497Y-110569055D01*
X141180505Y-110569057D01*
X141366547Y-110590018D01*
X141459569Y-110600499D01*
X141459572Y-110600500D01*
X141459575Y-110600500D01*
X141740428Y-110600500D01*
X141740429Y-110600499D01*
X141883055Y-110584429D01*
X142019494Y-110569057D01*
X142019499Y-110569056D01*
X142019509Y-110569055D01*
X142293318Y-110506560D01*
X142528495Y-110424267D01*
X142598272Y-110420705D01*
X142658899Y-110455434D01*
X142691127Y-110517427D01*
X142684722Y-110587003D01*
X142657129Y-110628990D01*
X142246635Y-111039485D01*
X142139487Y-111146632D01*
X142139485Y-111146635D01*
X142063719Y-111277863D01*
X142024500Y-111424234D01*
X142024500Y-111900500D01*
X142004815Y-111967539D01*
X141952011Y-112013294D01*
X141900500Y-112024500D01*
X141324233Y-112024500D01*
X141177863Y-112063719D01*
X141046635Y-112139485D01*
X141046632Y-112139487D01*
X140339487Y-112846632D01*
X140339485Y-112846635D01*
X140263719Y-112977863D01*
X140224500Y-113124234D01*
X140224500Y-113710257D01*
X140204815Y-113777296D01*
X140188181Y-113797938D01*
X139229193Y-114756925D01*
X139229194Y-114756926D01*
X139139485Y-114846635D01*
X139063719Y-114977863D01*
X139024500Y-115124234D01*
X139024500Y-116675765D01*
X139063719Y-116822136D01*
X139101602Y-116887750D01*
X139139485Y-116953365D01*
X139139487Y-116953367D01*
X139266099Y-117079979D01*
X139299584Y-117141302D01*
X139294600Y-117210994D01*
X139292767Y-117215122D01*
X139292937Y-117215193D01*
X139230264Y-117366498D01*
X139230261Y-117366510D01*
X139199500Y-117521153D01*
X139199500Y-117678846D01*
X139230261Y-117833489D01*
X139230264Y-117833501D01*
X139290602Y-117979172D01*
X139290609Y-117979185D01*
X139378210Y-118110288D01*
X139378213Y-118110292D01*
X139489707Y-118221786D01*
X139489711Y-118221789D01*
X139620814Y-118309390D01*
X139620827Y-118309397D01*
X139766498Y-118369735D01*
X139766503Y-118369737D01*
X139849693Y-118386284D01*
X139877824Y-118400999D01*
X139906703Y-118414188D01*
X139908559Y-118417076D01*
X139911602Y-118418668D01*
X139927311Y-118446255D01*
X139944477Y-118472966D01*
X139945137Y-118477560D01*
X139946176Y-118479384D01*
X139949500Y-118507901D01*
X139949500Y-118624314D01*
X139929815Y-118691353D01*
X139877011Y-118737108D01*
X139807853Y-118747052D01*
X139789752Y-118742087D01*
X139789635Y-118742527D01*
X139781785Y-118740423D01*
X139781784Y-118740423D01*
X139629057Y-118699500D01*
X139470943Y-118699500D01*
X139318216Y-118740423D01*
X139318209Y-118740426D01*
X139181290Y-118819475D01*
X139181282Y-118819481D01*
X139069481Y-118931282D01*
X139069475Y-118931290D01*
X138990426Y-119068209D01*
X138990423Y-119068216D01*
X138949500Y-119220943D01*
X138949500Y-119379056D01*
X138990423Y-119531783D01*
X138990426Y-119531790D01*
X139069475Y-119668709D01*
X139069479Y-119668714D01*
X139069480Y-119668716D01*
X139181284Y-119780520D01*
X139181286Y-119780521D01*
X139181290Y-119780524D01*
X139313657Y-119856945D01*
X139318216Y-119859577D01*
X139470943Y-119900500D01*
X139470945Y-119900500D01*
X139629055Y-119900500D01*
X139629057Y-119900500D01*
X139781784Y-119859577D01*
X139783399Y-119858644D01*
X139784933Y-119858272D01*
X139789294Y-119856466D01*
X139789575Y-119857145D01*
X139851296Y-119842170D01*
X139917324Y-119865020D01*
X139960517Y-119919939D01*
X139961583Y-119922697D01*
X140006202Y-120042328D01*
X140006206Y-120042335D01*
X140092452Y-120157544D01*
X140092455Y-120157547D01*
X140207664Y-120243793D01*
X140207671Y-120243797D01*
X140252618Y-120260561D01*
X140342517Y-120294091D01*
X140402127Y-120300500D01*
X140797872Y-120300499D01*
X140797873Y-120300498D01*
X140797885Y-120300498D01*
X140836744Y-120296320D01*
X140863252Y-120296320D01*
X140902127Y-120300500D01*
X141297872Y-120300499D01*
X141297873Y-120300498D01*
X141297885Y-120300498D01*
X141336744Y-120296320D01*
X141363252Y-120296320D01*
X141402127Y-120300500D01*
X141797872Y-120300499D01*
X141797873Y-120300498D01*
X141797885Y-120300498D01*
X141836744Y-120296320D01*
X141863252Y-120296320D01*
X141902127Y-120300500D01*
X142297872Y-120300499D01*
X142357483Y-120294091D01*
X142492331Y-120243796D01*
X142551690Y-120199359D01*
X142617154Y-120174943D01*
X142685426Y-120189795D01*
X142734832Y-120239200D01*
X142750000Y-120298627D01*
X142750000Y-120300000D01*
X142797828Y-120300000D01*
X142797844Y-120299999D01*
X142857372Y-120293598D01*
X142857379Y-120293596D01*
X142992086Y-120243354D01*
X142992093Y-120243350D01*
X143107187Y-120157190D01*
X143107190Y-120157187D01*
X143193350Y-120042093D01*
X143193354Y-120042086D01*
X143237978Y-119922444D01*
X143279849Y-119866510D01*
X143345313Y-119842093D01*
X143413586Y-119856945D01*
X143416161Y-119858390D01*
X143418216Y-119859577D01*
X143570943Y-119900500D01*
X143570945Y-119900500D01*
X143729055Y-119900500D01*
X143729057Y-119900500D01*
X143881784Y-119859577D01*
X144018716Y-119780520D01*
X144130520Y-119668716D01*
X144209577Y-119531784D01*
X144250500Y-119379057D01*
X144250500Y-119220943D01*
X144209577Y-119068216D01*
X144131271Y-118932584D01*
X144130524Y-118931290D01*
X144130518Y-118931282D01*
X144018717Y-118819481D01*
X144018709Y-118819475D01*
X143881790Y-118740426D01*
X143881786Y-118740424D01*
X143881784Y-118740423D01*
X143729057Y-118699500D01*
X143570943Y-118699500D01*
X143418216Y-118740423D01*
X143418214Y-118740423D01*
X143410365Y-118742527D01*
X143409778Y-118740339D01*
X143351971Y-118746548D01*
X143289495Y-118715267D01*
X143253849Y-118655175D01*
X143250000Y-118624521D01*
X143250000Y-118152172D01*
X143249999Y-118152155D01*
X143243598Y-118092627D01*
X143243596Y-118092620D01*
X143193354Y-117957913D01*
X143193352Y-117957910D01*
X143134710Y-117879575D01*
X143110292Y-117814111D01*
X143125143Y-117745837D01*
X143146288Y-117717590D01*
X147427061Y-113436819D01*
X147488384Y-113403334D01*
X147514742Y-113400500D01*
X147528844Y-113400500D01*
X147528845Y-113400499D01*
X147683497Y-113369737D01*
X147829179Y-113309394D01*
X147960289Y-113221789D01*
X148071789Y-113110289D01*
X148159394Y-112979179D01*
X148219737Y-112833497D01*
X148250500Y-112678842D01*
X148250500Y-112521158D01*
X148250500Y-112521155D01*
X148250499Y-112521153D01*
X148219738Y-112366510D01*
X148219737Y-112366503D01*
X148219735Y-112366498D01*
X148159397Y-112220827D01*
X148159390Y-112220814D01*
X148071789Y-112089711D01*
X148071786Y-112089707D01*
X148061819Y-112079740D01*
X148028334Y-112018417D01*
X148025500Y-111992059D01*
X148025500Y-111324499D01*
X148026337Y-111321648D01*
X148025633Y-111318763D01*
X148036120Y-111288331D01*
X148045185Y-111257460D01*
X148047428Y-111255515D01*
X148048397Y-111252706D01*
X148073677Y-111232771D01*
X148097989Y-111211705D01*
X148101634Y-111210725D01*
X148103261Y-111209443D01*
X148114496Y-111207269D01*
X148137549Y-111201076D01*
X148143508Y-111200499D01*
X148147872Y-111200499D01*
X148187450Y-111196244D01*
X148188050Y-111196186D01*
X148188750Y-111196320D01*
X148213252Y-111196320D01*
X148252127Y-111200500D01*
X148647872Y-111200499D01*
X148647873Y-111200498D01*
X148647885Y-111200498D01*
X148686744Y-111196320D01*
X148713252Y-111196320D01*
X148752127Y-111200500D01*
X149147872Y-111200499D01*
X149207483Y-111194091D01*
X149342331Y-111143796D01*
X149457546Y-111057546D01*
X149543796Y-110942331D01*
X149594091Y-110807483D01*
X149600500Y-110747873D01*
X149600499Y-110275683D01*
X149620183Y-110208646D01*
X149672987Y-110162891D01*
X149742146Y-110152947D01*
X149760247Y-110157913D01*
X149760365Y-110157473D01*
X149768214Y-110159576D01*
X149768216Y-110159577D01*
X149920943Y-110200500D01*
X149920945Y-110200500D01*
X150079055Y-110200500D01*
X150079057Y-110200500D01*
X150231784Y-110159577D01*
X150368716Y-110080520D01*
X150480520Y-109968716D01*
X150559577Y-109831784D01*
X150600500Y-109679057D01*
X150600500Y-109520943D01*
X150559577Y-109368216D01*
X150526799Y-109311442D01*
X150480524Y-109231290D01*
X150480518Y-109231282D01*
X150368717Y-109119481D01*
X150368709Y-109119475D01*
X150231790Y-109040426D01*
X150231786Y-109040424D01*
X150231784Y-109040423D01*
X150079057Y-108999500D01*
X149920943Y-108999500D01*
X149768216Y-109040423D01*
X149768209Y-109040426D01*
X149766588Y-109041362D01*
X149765048Y-109041735D01*
X149760706Y-109043534D01*
X149760425Y-109042856D01*
X149698686Y-109057828D01*
X149632661Y-109034969D01*
X149589476Y-108980044D01*
X149588416Y-108977302D01*
X149543797Y-108857671D01*
X149543793Y-108857664D01*
X149457547Y-108742455D01*
X149457544Y-108742452D01*
X149342334Y-108656205D01*
X149342330Y-108656203D01*
X149331075Y-108652005D01*
X149275142Y-108610132D01*
X149250728Y-108544667D01*
X149250859Y-108534934D01*
X149250500Y-108534934D01*
X149250500Y-108371155D01*
X149250499Y-108371153D01*
X149219737Y-108216503D01*
X149219735Y-108216498D01*
X149159397Y-108070827D01*
X149159390Y-108070814D01*
X149071789Y-107939711D01*
X149071786Y-107939707D01*
X148960292Y-107828213D01*
X148960287Y-107828209D01*
X148959374Y-107827599D01*
X148959003Y-107827155D01*
X148955581Y-107824347D01*
X148956113Y-107823697D01*
X148914570Y-107773985D01*
X148905865Y-107704660D01*
X148936022Y-107641633D01*
X148995466Y-107604916D01*
X149028265Y-107600499D01*
X149147872Y-107600499D01*
X149207483Y-107594091D01*
X149342331Y-107543796D01*
X149457546Y-107457546D01*
X149543796Y-107342331D01*
X149594091Y-107207483D01*
X149600500Y-107147873D01*
X149600499Y-105452128D01*
X149594091Y-105392517D01*
X149570954Y-105330484D01*
X149543797Y-105257671D01*
X149543793Y-105257664D01*
X149457547Y-105142455D01*
X149457544Y-105142452D01*
X149365792Y-105073766D01*
X149323921Y-105017832D01*
X149318937Y-104948141D01*
X149352423Y-104886818D01*
X149413746Y-104853334D01*
X149440103Y-104850500D01*
X150217417Y-104850500D01*
X150268039Y-104850500D01*
X150281922Y-104851279D01*
X150394518Y-104863966D01*
X150421583Y-104870143D01*
X150521927Y-104905255D01*
X150546941Y-104917301D01*
X150636955Y-104973860D01*
X150658662Y-104991172D01*
X150733827Y-105066337D01*
X150751140Y-105088046D01*
X150807697Y-105178056D01*
X150819745Y-105203074D01*
X150854855Y-105303414D01*
X150861033Y-105330484D01*
X150873720Y-105443077D01*
X150874500Y-105456961D01*
X150874500Y-123443038D01*
X150873720Y-123456921D01*
X150873720Y-123456922D01*
X150861033Y-123569515D01*
X150854855Y-123596585D01*
X150819745Y-123696925D01*
X150807697Y-123721943D01*
X150751140Y-123811953D01*
X150733827Y-123833662D01*
X150658662Y-123908827D01*
X150636953Y-123926140D01*
X150546943Y-123982697D01*
X150521925Y-123994745D01*
X150421585Y-124029855D01*
X150394516Y-124036033D01*
X150309855Y-124045572D01*
X150281921Y-124048720D01*
X150268039Y-124049500D01*
X143090103Y-124049500D01*
X143023064Y-124029815D01*
X142977309Y-123977011D01*
X142967365Y-123907853D01*
X142996390Y-123844297D01*
X143015792Y-123826234D01*
X143080288Y-123777951D01*
X143107546Y-123757546D01*
X143193796Y-123642331D01*
X143244091Y-123507483D01*
X143250500Y-123447873D01*
X143250499Y-121752128D01*
X143244091Y-121692517D01*
X143193796Y-121557669D01*
X143193795Y-121557668D01*
X143193793Y-121557664D01*
X143107547Y-121442455D01*
X143107544Y-121442452D01*
X142992335Y-121356206D01*
X142992328Y-121356202D01*
X142857486Y-121305910D01*
X142857485Y-121305909D01*
X142857483Y-121305909D01*
X142797873Y-121299500D01*
X142797863Y-121299500D01*
X142402130Y-121299500D01*
X142402119Y-121299501D01*
X142363253Y-121303679D01*
X142336748Y-121303679D01*
X142297874Y-121299500D01*
X141902130Y-121299500D01*
X141902119Y-121299501D01*
X141863253Y-121303679D01*
X141836748Y-121303679D01*
X141797874Y-121299500D01*
X141402130Y-121299500D01*
X141402119Y-121299501D01*
X141363253Y-121303679D01*
X141336748Y-121303679D01*
X141297874Y-121299500D01*
X140902130Y-121299500D01*
X140902119Y-121299501D01*
X140863253Y-121303679D01*
X140836748Y-121303679D01*
X140797874Y-121299500D01*
X140402129Y-121299500D01*
X140402123Y-121299501D01*
X140342516Y-121305908D01*
X140207671Y-121356202D01*
X140207664Y-121356206D01*
X140092455Y-121442452D01*
X140092452Y-121442455D01*
X140006206Y-121557664D01*
X140006202Y-121557671D01*
X139955908Y-121692517D01*
X139949501Y-121752116D01*
X139949501Y-121752123D01*
X139949500Y-121752135D01*
X139949500Y-123447870D01*
X139949501Y-123447876D01*
X139955908Y-123507483D01*
X140006202Y-123642328D01*
X140006206Y-123642335D01*
X140092452Y-123757544D01*
X140092455Y-123757547D01*
X140184208Y-123826234D01*
X140226079Y-123882168D01*
X140231063Y-123951859D01*
X140197577Y-124013182D01*
X140136254Y-124046666D01*
X140109897Y-124049500D01*
X139281961Y-124049500D01*
X139268077Y-124048720D01*
X139155484Y-124036033D01*
X139128414Y-124029855D01*
X139028074Y-123994745D01*
X139003056Y-123982697D01*
X138913046Y-123926140D01*
X138891337Y-123908827D01*
X138816172Y-123833662D01*
X138798859Y-123811953D01*
X138764673Y-123757547D01*
X138742301Y-123721941D01*
X138730254Y-123696925D01*
X138711152Y-123642335D01*
X138695143Y-123596583D01*
X138688966Y-123569514D01*
X138676280Y-123456921D01*
X138675500Y-123443038D01*
X138675500Y-120659568D01*
X145449500Y-120659568D01*
X145449500Y-120940431D01*
X145480942Y-121219494D01*
X145480945Y-121219512D01*
X145543439Y-121493317D01*
X145543443Y-121493329D01*
X145636200Y-121758411D01*
X145758053Y-122011442D01*
X145758055Y-122011445D01*
X145907477Y-122249248D01*
X146082584Y-122468825D01*
X146281175Y-122667416D01*
X146500752Y-122842523D01*
X146738555Y-122991945D01*
X146991592Y-123113801D01*
X147190680Y-123183465D01*
X147256670Y-123206556D01*
X147256682Y-123206560D01*
X147530491Y-123269055D01*
X147530497Y-123269055D01*
X147530505Y-123269057D01*
X147716547Y-123290018D01*
X147809569Y-123300499D01*
X147809572Y-123300500D01*
X147809575Y-123300500D01*
X148090428Y-123300500D01*
X148090429Y-123300499D01*
X148233055Y-123284429D01*
X148369494Y-123269057D01*
X148369499Y-123269056D01*
X148369509Y-123269055D01*
X148643318Y-123206560D01*
X148908408Y-123113801D01*
X149161445Y-122991945D01*
X149399248Y-122842523D01*
X149618825Y-122667416D01*
X149817416Y-122468825D01*
X149992523Y-122249248D01*
X150141945Y-122011445D01*
X150263801Y-121758408D01*
X150356560Y-121493318D01*
X150419055Y-121219509D01*
X150450500Y-120940425D01*
X150450500Y-120659575D01*
X150419055Y-120380491D01*
X150356560Y-120106682D01*
X150263801Y-119841592D01*
X150141945Y-119588555D01*
X149992523Y-119350752D01*
X149817416Y-119131175D01*
X149618825Y-118932584D01*
X149617202Y-118931290D01*
X149476991Y-118819475D01*
X149399248Y-118757477D01*
X149235004Y-118654275D01*
X149161442Y-118608053D01*
X148908411Y-118486200D01*
X148643329Y-118393443D01*
X148643317Y-118393439D01*
X148369512Y-118330945D01*
X148369494Y-118330942D01*
X148090431Y-118299500D01*
X148090425Y-118299500D01*
X147809575Y-118299500D01*
X147809568Y-118299500D01*
X147530505Y-118330942D01*
X147530487Y-118330945D01*
X147256682Y-118393439D01*
X147256670Y-118393443D01*
X146991588Y-118486200D01*
X146738557Y-118608053D01*
X146500753Y-118757476D01*
X146281175Y-118932583D01*
X146082583Y-119131175D01*
X145907476Y-119350753D01*
X145758053Y-119588557D01*
X145636200Y-119841588D01*
X145543443Y-120106670D01*
X145543439Y-120106682D01*
X145480945Y-120380487D01*
X145480942Y-120380505D01*
X145449500Y-120659568D01*
X138675500Y-120659568D01*
X138675500Y-105456961D01*
X138676280Y-105443078D01*
X138688966Y-105330485D01*
X138688966Y-105330479D01*
X138695142Y-105303418D01*
X138730256Y-105203068D01*
X138742299Y-105178062D01*
X138798863Y-105088040D01*
X138816168Y-105066341D01*
X138891341Y-104991168D01*
X138913040Y-104973863D01*
X139003062Y-104917299D01*
X139028068Y-104905256D01*
X139128418Y-104870142D01*
X139155481Y-104863966D01*
X139252769Y-104853004D01*
X139268078Y-104851280D01*
X139281961Y-104850500D01*
X139332583Y-104850500D01*
X146459897Y-104850500D01*
X146526936Y-104870185D01*
G37*
%TD.AperFunction*%
%TA.AperFunction,Conductor*%
G36*
X145264979Y-109751414D02*
G01*
X145320912Y-109793286D01*
X145336191Y-109824741D01*
X145337314Y-109824277D01*
X145340422Y-109831780D01*
X145340423Y-109831784D01*
X145340424Y-109831787D01*
X145340426Y-109831790D01*
X145419475Y-109968709D01*
X145419479Y-109968714D01*
X145419480Y-109968716D01*
X145531284Y-110080520D01*
X145531286Y-110080521D01*
X145531290Y-110080524D01*
X145638677Y-110142523D01*
X145668216Y-110159577D01*
X145820943Y-110200500D01*
X145820945Y-110200500D01*
X145979055Y-110200500D01*
X145979057Y-110200500D01*
X146131784Y-110159577D01*
X146131785Y-110159576D01*
X146139635Y-110157473D01*
X146140221Y-110159663D01*
X146198005Y-110153446D01*
X146260487Y-110184715D01*
X146296145Y-110244800D01*
X146300000Y-110275478D01*
X146300000Y-110747844D01*
X146306401Y-110807372D01*
X146306403Y-110807379D01*
X146356645Y-110942086D01*
X146356649Y-110942093D01*
X146442809Y-111057187D01*
X146442812Y-111057190D01*
X146557906Y-111143350D01*
X146557913Y-111143354D01*
X146692620Y-111193596D01*
X146692627Y-111193598D01*
X146752155Y-111199999D01*
X146755479Y-111200177D01*
X146755469Y-111200355D01*
X146755475Y-111200356D01*
X146755463Y-111200459D01*
X146755411Y-111201442D01*
X146817539Y-111219685D01*
X146863294Y-111272489D01*
X146874500Y-111324000D01*
X146874500Y-111992059D01*
X146854815Y-112059098D01*
X146838181Y-112079740D01*
X146828213Y-112089707D01*
X146828210Y-112089711D01*
X146740609Y-112220814D01*
X146740602Y-112220827D01*
X146680264Y-112366498D01*
X146680261Y-112366510D01*
X146649500Y-112521153D01*
X146649500Y-112535257D01*
X146629815Y-112602296D01*
X146613181Y-112622938D01*
X142212680Y-117023438D01*
X142151357Y-117056923D01*
X142081665Y-117051939D01*
X142037318Y-117023438D01*
X141553367Y-116539487D01*
X141553365Y-116539485D01*
X141487750Y-116501602D01*
X141422136Y-116463719D01*
X141348950Y-116444109D01*
X141275766Y-116424500D01*
X141275765Y-116424500D01*
X140299500Y-116424500D01*
X140232461Y-116404815D01*
X140186706Y-116352011D01*
X140175500Y-116300500D01*
X140175500Y-115489740D01*
X140195185Y-115422701D01*
X140211815Y-115402063D01*
X141143155Y-114470722D01*
X141143160Y-114470719D01*
X141153363Y-114460515D01*
X141153365Y-114460515D01*
X141260515Y-114353365D01*
X141336281Y-114222135D01*
X141375500Y-114075766D01*
X141375500Y-113489742D01*
X141395185Y-113422703D01*
X141411819Y-113402061D01*
X141602061Y-113211819D01*
X141663384Y-113178334D01*
X141689742Y-113175500D01*
X141992059Y-113175500D01*
X142059098Y-113195185D01*
X142079740Y-113211819D01*
X142089707Y-113221786D01*
X142089711Y-113221789D01*
X142220814Y-113309390D01*
X142220827Y-113309397D01*
X142366498Y-113369735D01*
X142366503Y-113369737D01*
X142521153Y-113400499D01*
X142521156Y-113400500D01*
X142521158Y-113400500D01*
X142678844Y-113400500D01*
X142678845Y-113400499D01*
X142833497Y-113369737D01*
X142979179Y-113309394D01*
X143110289Y-113221789D01*
X143221789Y-113110289D01*
X143309394Y-112979179D01*
X143369737Y-112833497D01*
X143400500Y-112678842D01*
X143400500Y-112521158D01*
X143400500Y-112521155D01*
X143400499Y-112521153D01*
X143369738Y-112366510D01*
X143369737Y-112366503D01*
X143369735Y-112366498D01*
X143309397Y-112220827D01*
X143309390Y-112220814D01*
X143221789Y-112089711D01*
X143221786Y-112089707D01*
X143211819Y-112079740D01*
X143197115Y-112052812D01*
X143180523Y-112026994D01*
X143179631Y-112020793D01*
X143178334Y-112018417D01*
X143175500Y-111992059D01*
X143175500Y-111789742D01*
X143195185Y-111722703D01*
X143211819Y-111702061D01*
X144166036Y-110747844D01*
X145133966Y-109779913D01*
X145195287Y-109746430D01*
X145264979Y-109751414D01*
G37*
%TD.AperFunction*%
%TD*%
M02*
