%TF.GenerationSoftware,KiCad,Pcbnew,9.0.7*%
%TF.CreationDate,2026-03-31T12:56:17-05:00*%
%TF.ProjectId,proximity,70726f78-696d-4697-9479-2e6b69636164,rev?*%
%TF.SameCoordinates,Original*%
%TF.FileFunction,Copper,L1,Top*%
%TF.FilePolarity,Positive*%
%FSLAX46Y46*%
G04 Gerber Fmt 4.6, Leading zero omitted, Abs format (unit mm)*
G04 Created by KiCad (PCBNEW 9.0.7) date 2026-03-31 12:56:17*
%MOMM*%
%LPD*%
G01*
G04 APERTURE LIST*
G04 Aperture macros list*
%AMRoundRect*
0 Rectangle with rounded corners*
0 $1 Rounding radius*
0 $2 $3 $4 $5 $6 $7 $8 $9 X,Y pos of 4 corners*
0 Add a 4 corners polygon primitive as box body*
4,1,4,$2,$3,$4,$5,$6,$7,$8,$9,$2,$3,0*
0 Add four circle primitives for the rounded corners*
1,1,$1+$1,$2,$3*
1,1,$1+$1,$4,$5*
1,1,$1+$1,$6,$7*
1,1,$1+$1,$8,$9*
0 Add four rect primitives between the rounded corners*
20,1,$1+$1,$2,$3,$4,$5,0*
20,1,$1+$1,$4,$5,$6,$7,0*
20,1,$1+$1,$6,$7,$8,$9,0*
20,1,$1+$1,$8,$9,$2,$3,0*%
G04 Aperture macros list end*
%TA.AperFunction,ComponentPad*%
%ADD10C,4.000000*%
%TD*%
%TA.AperFunction,SMDPad,CuDef*%
%ADD11RoundRect,0.237500X-0.237500X0.300000X-0.237500X-0.300000X0.237500X-0.300000X0.237500X0.300000X0*%
%TD*%
%TA.AperFunction,SMDPad,CuDef*%
%ADD12RoundRect,0.160000X0.160000X-0.197500X0.160000X0.197500X-0.160000X0.197500X-0.160000X-0.197500X0*%
%TD*%
%TA.AperFunction,SMDPad,CuDef*%
%ADD13RoundRect,0.155000X-0.212500X-0.155000X0.212500X-0.155000X0.212500X0.155000X-0.212500X0.155000X0*%
%TD*%
%TA.AperFunction,SMDPad,CuDef*%
%ADD14RoundRect,0.237500X-0.300000X-0.237500X0.300000X-0.237500X0.300000X0.237500X-0.300000X0.237500X0*%
%TD*%
%TA.AperFunction,SMDPad,CuDef*%
%ADD15R,0.580000X0.250000*%
%TD*%
%TA.AperFunction,SMDPad,CuDef*%
%ADD16R,0.500000X0.500000*%
%TD*%
%TA.AperFunction,SMDPad,CuDef*%
%ADD17R,0.500000X0.250000*%
%TD*%
%TA.AperFunction,SMDPad,CuDef*%
%ADD18RoundRect,0.160000X0.197500X0.160000X-0.197500X0.160000X-0.197500X-0.160000X0.197500X-0.160000X0*%
%TD*%
%TA.AperFunction,ViaPad*%
%ADD19C,0.600000*%
%TD*%
%TA.AperFunction,Conductor*%
%ADD20C,0.200000*%
%TD*%
%TA.AperFunction,Conductor*%
%ADD21C,0.150000*%
%TD*%
%TA.AperFunction,Conductor*%
%ADD22C,0.250000*%
%TD*%
G04 APERTURE END LIST*
D10*
%TO.P,,*%
%TO.N,*%
X147950000Y-120800000D03*
%TD*%
D11*
%TO.P,C2,1*%
%TO.N,+3.3V*%
X149600000Y-113737499D03*
%TO.P,C2,2*%
%TO.N,GND*%
X149600000Y-115462501D03*
%TD*%
D12*
%TO.P,R20,1*%
%TO.N,Net-(IC1-GPIO1)*%
X139400000Y-113397500D03*
%TO.P,R20,2*%
%TO.N,+3.3V*%
X139400000Y-112202500D03*
%TD*%
D13*
%TO.P,C11,1*%
%TO.N,+3.3V*%
X141065000Y-111800000D03*
%TO.P,C11,2*%
%TO.N,GND*%
X142200000Y-111800000D03*
%TD*%
D14*
%TO.P,C12,1*%
%TO.N,+3.3V*%
X144137499Y-117400000D03*
%TO.P,C12,2*%
%TO.N,GND*%
X145862501Y-117400000D03*
%TD*%
D10*
%TO.P,,*%
%TO.N,*%
X141600000Y-108100000D03*
%TD*%
D15*
%TO.P,IC1,1,AVDDVCSEL_1*%
%TO.N,+3.3V*%
X145040000Y-114950000D03*
D16*
%TO.P,IC1,2,AVSSVCSEL*%
%TO.N,GND*%
X144200000Y-115075000D03*
%TO.P,IC1,3,GND*%
X143400000Y-115075000D03*
%TO.P,IC1,4,GND2*%
X142600000Y-115075000D03*
%TO.P,IC1,5,XSHUT*%
%TO.N,Net-(IC1-XSHUT)*%
X141800000Y-115075000D03*
%TO.P,IC1,6,GND3*%
%TO.N,GND*%
X141800000Y-114275000D03*
%TO.P,IC1,7,GPIO1*%
%TO.N,Net-(IC1-GPIO1)*%
X141800000Y-113475000D03*
%TO.P,IC1,8,DNC*%
%TO.N,unconnected-(IC1-DNC-Pad8)*%
X142600000Y-113475000D03*
%TO.P,IC1,9,SDA*%
%TO.N,/sda*%
X143400000Y-113475000D03*
%TO.P,IC1,10,SCL*%
%TO.N,/scl*%
X144200000Y-113475000D03*
%TO.P,IC1,11,AVDD*%
%TO.N,+3.3V*%
X145000000Y-113475000D03*
%TO.P,IC1,12,GND4*%
%TO.N,GND*%
X145000000Y-114274000D03*
D17*
%TO.P,IC1,13,AVDDVCSEL_2*%
%TO.N,+3.3V*%
X145000000Y-115200000D03*
%TD*%
D18*
%TO.P,R21,1*%
%TO.N,+3.3V*%
X142800000Y-117000000D03*
%TO.P,R21,2*%
%TO.N,Net-(IC1-XSHUT)*%
X141605000Y-117000000D03*
%TD*%
D11*
%TO.P,C1,1*%
%TO.N,+3.3V*%
X147600000Y-113737499D03*
%TO.P,C1,2*%
%TO.N,GND*%
X147600000Y-115462501D03*
%TD*%
D19*
%TO.N,+3.3V*%
X140000000Y-117600000D03*
X148450000Y-108450000D03*
%TO.N,/scl*%
X147450000Y-112600000D03*
%TO.N,GND*%
X142600000Y-114400000D03*
X140400000Y-116400000D03*
X149000000Y-117000000D03*
X143500000Y-118371846D03*
X140300000Y-112700000D03*
X146200000Y-115600000D03*
%TO.N,/sda*%
X142600000Y-112600000D03*
%TD*%
D20*
%TO.N,+3.3V*%
X143800000Y-116400000D02*
X144200000Y-116000000D01*
X142300000Y-110950000D02*
X141650000Y-110950000D01*
X148000000Y-108000000D02*
X145400000Y-108000000D01*
X146824000Y-114513499D02*
X146824000Y-115825943D01*
X143200000Y-116400000D02*
X143500000Y-116400000D01*
X144137499Y-117400000D02*
X144137499Y-117037499D01*
X145800000Y-116200000D02*
X145000000Y-115400000D01*
X146449943Y-116200000D02*
X145800000Y-116200000D01*
X145000000Y-115800000D02*
X145000000Y-115200000D01*
X142800000Y-116800000D02*
X143200000Y-116400000D01*
X147337501Y-113475000D02*
X145000000Y-113475000D01*
X146824000Y-115825943D02*
X146449943Y-116200000D01*
X147600000Y-113737499D02*
X147337501Y-113475000D01*
X144137499Y-117037499D02*
X143500000Y-116400000D01*
X144200000Y-116000000D02*
X144800000Y-116000000D01*
X140221000Y-117621000D02*
X142179000Y-117621000D01*
X140200000Y-117600000D02*
X140221000Y-117621000D01*
X149600000Y-113737499D02*
X149600000Y-113150000D01*
X139400000Y-111600000D02*
X140050000Y-110950000D01*
X148450000Y-108450000D02*
X148000000Y-108000000D01*
X141650000Y-110950000D02*
X141065000Y-111535000D01*
X148450000Y-112000000D02*
X148450000Y-112887499D01*
X140000000Y-117600000D02*
X140200000Y-117600000D01*
X142800000Y-117200000D02*
X142800000Y-116800000D01*
X147600000Y-113737499D02*
X146824000Y-114513499D01*
X142179000Y-117621000D02*
X142800000Y-117000000D01*
X141065000Y-111535000D02*
X141065000Y-111800000D01*
X139400000Y-112202500D02*
X139400000Y-111600000D01*
X145400000Y-108000000D02*
X142450000Y-110950000D01*
X148450000Y-112887499D02*
X147600000Y-113737499D01*
X144800000Y-116000000D02*
X145000000Y-115800000D01*
X148450000Y-108450000D02*
X148450000Y-112000000D01*
X143500000Y-116400000D02*
X143800000Y-116400000D01*
X149600000Y-113150000D02*
X148450000Y-112000000D01*
X145000000Y-115400000D02*
X145000000Y-115200000D01*
X142450000Y-110950000D02*
X141750000Y-110950000D01*
X140050000Y-110950000D02*
X141900000Y-110950000D01*
D21*
%TO.N,/scl*%
X144200000Y-113300000D02*
X144900000Y-112600000D01*
X144200000Y-113475000D02*
X144200000Y-113300000D01*
X144900000Y-112600000D02*
X147450000Y-112600000D01*
D20*
%TO.N,GND*%
X140500000Y-112500000D02*
X141500000Y-112500000D01*
X145862501Y-117400000D02*
X148600000Y-117400000D01*
X148600000Y-117400000D02*
X149000000Y-117000000D01*
D22*
X145000000Y-114274000D02*
X145500000Y-114274000D01*
D20*
X140400000Y-115225000D02*
X140400000Y-116400000D01*
D22*
X145500000Y-114274000D02*
X146200000Y-114974000D01*
D20*
X141800000Y-114275000D02*
X141350000Y-114275000D01*
X141350000Y-114275000D02*
X140400000Y-115225000D01*
X140300000Y-112700000D02*
X140500000Y-112500000D01*
X141500000Y-112500000D02*
X142200000Y-111800000D01*
D22*
X146200000Y-114974000D02*
X146200000Y-115600000D01*
D21*
%TO.N,/sda*%
X142600000Y-112600000D02*
X143000000Y-112600000D01*
X143000000Y-112600000D02*
X143400000Y-113000000D01*
X143400000Y-113475000D02*
X143400000Y-113000000D01*
%TO.N,Net-(IC1-XSHUT)*%
X141800000Y-117005000D02*
X141605000Y-117200000D01*
X141800000Y-115075000D02*
X141800000Y-117005000D01*
%TO.N,Net-(IC1-GPIO1)*%
X139400000Y-113397500D02*
X141722500Y-113397500D01*
X141722500Y-113397500D02*
X141800000Y-113475000D01*
%TD*%
%TA.AperFunction,Conductor*%
%TO.N,GND*%
G36*
X150281922Y-104851279D02*
G01*
X150394518Y-104863966D01*
X150421583Y-104870143D01*
X150521927Y-104905255D01*
X150546941Y-104917301D01*
X150636955Y-104973860D01*
X150658662Y-104991172D01*
X150733827Y-105066337D01*
X150751140Y-105088046D01*
X150807697Y-105178056D01*
X150819745Y-105203074D01*
X150854855Y-105303414D01*
X150861033Y-105330484D01*
X150873720Y-105443077D01*
X150874500Y-105456961D01*
X150874500Y-123443038D01*
X150873720Y-123456921D01*
X150873720Y-123456922D01*
X150861033Y-123569515D01*
X150854855Y-123596585D01*
X150819745Y-123696925D01*
X150807697Y-123721943D01*
X150751140Y-123811953D01*
X150733827Y-123833662D01*
X150658662Y-123908827D01*
X150636953Y-123926140D01*
X150546943Y-123982697D01*
X150521925Y-123994745D01*
X150421585Y-124029855D01*
X150394516Y-124036033D01*
X150309855Y-124045572D01*
X150281921Y-124048720D01*
X150268039Y-124049500D01*
X139281961Y-124049500D01*
X139268077Y-124048720D01*
X139155484Y-124036033D01*
X139128414Y-124029855D01*
X139028074Y-123994745D01*
X139003056Y-123982697D01*
X138913046Y-123926140D01*
X138891337Y-123908827D01*
X138816172Y-123833662D01*
X138798859Y-123811953D01*
X138742302Y-123721943D01*
X138730254Y-123696925D01*
X138695144Y-123596585D01*
X138688966Y-123569514D01*
X138676280Y-123456921D01*
X138675500Y-123443038D01*
X138675500Y-120659568D01*
X145449500Y-120659568D01*
X145449500Y-120940431D01*
X145480942Y-121219494D01*
X145480945Y-121219512D01*
X145543439Y-121493317D01*
X145543443Y-121493329D01*
X145636200Y-121758411D01*
X145758053Y-122011442D01*
X145758055Y-122011445D01*
X145907477Y-122249248D01*
X146082584Y-122468825D01*
X146281175Y-122667416D01*
X146500752Y-122842523D01*
X146738555Y-122991945D01*
X146991592Y-123113801D01*
X147190680Y-123183465D01*
X147256670Y-123206556D01*
X147256682Y-123206560D01*
X147530491Y-123269055D01*
X147530497Y-123269055D01*
X147530505Y-123269057D01*
X147716547Y-123290018D01*
X147809569Y-123300499D01*
X147809572Y-123300500D01*
X147809575Y-123300500D01*
X148090428Y-123300500D01*
X148090429Y-123300499D01*
X148233055Y-123284429D01*
X148369494Y-123269057D01*
X148369499Y-123269056D01*
X148369509Y-123269055D01*
X148643318Y-123206560D01*
X148908408Y-123113801D01*
X149161445Y-122991945D01*
X149399248Y-122842523D01*
X149618825Y-122667416D01*
X149817416Y-122468825D01*
X149992523Y-122249248D01*
X150141945Y-122011445D01*
X150263801Y-121758408D01*
X150356560Y-121493318D01*
X150419055Y-121219509D01*
X150450500Y-120940425D01*
X150450500Y-120659575D01*
X150419055Y-120380491D01*
X150356560Y-120106682D01*
X150263801Y-119841592D01*
X150141945Y-119588555D01*
X149992523Y-119350752D01*
X149817416Y-119131175D01*
X149618825Y-118932584D01*
X149617202Y-118931290D01*
X149476991Y-118819475D01*
X149399248Y-118757477D01*
X149161445Y-118608055D01*
X149161442Y-118608053D01*
X148908411Y-118486200D01*
X148643329Y-118393443D01*
X148643317Y-118393439D01*
X148369512Y-118330945D01*
X148369494Y-118330942D01*
X148090431Y-118299500D01*
X148090425Y-118299500D01*
X147809575Y-118299500D01*
X147809568Y-118299500D01*
X147530505Y-118330942D01*
X147530487Y-118330945D01*
X147256682Y-118393439D01*
X147256670Y-118393443D01*
X146991588Y-118486200D01*
X146738557Y-118608053D01*
X146500753Y-118757476D01*
X146281175Y-118932583D01*
X146082583Y-119131175D01*
X145907476Y-119350753D01*
X145758053Y-119588557D01*
X145636200Y-119841588D01*
X145543443Y-120106670D01*
X145543439Y-120106682D01*
X145480945Y-120380487D01*
X145480942Y-120380505D01*
X145449500Y-120659568D01*
X138675500Y-120659568D01*
X138675500Y-119220943D01*
X138949500Y-119220943D01*
X138949500Y-119379056D01*
X138990423Y-119531783D01*
X138990426Y-119531790D01*
X139069475Y-119668709D01*
X139069479Y-119668714D01*
X139069480Y-119668716D01*
X139181284Y-119780520D01*
X139181286Y-119780521D01*
X139181290Y-119780524D01*
X139287058Y-119841588D01*
X139318216Y-119859577D01*
X139470943Y-119900500D01*
X139470945Y-119900500D01*
X139629055Y-119900500D01*
X139629057Y-119900500D01*
X139781784Y-119859577D01*
X139918716Y-119780520D01*
X140030520Y-119668716D01*
X140109577Y-119531784D01*
X140150500Y-119379057D01*
X140150500Y-119220943D01*
X143049500Y-119220943D01*
X143049500Y-119379056D01*
X143090423Y-119531783D01*
X143090426Y-119531790D01*
X143169475Y-119668709D01*
X143169479Y-119668714D01*
X143169480Y-119668716D01*
X143281284Y-119780520D01*
X143281286Y-119780521D01*
X143281290Y-119780524D01*
X143387058Y-119841588D01*
X143418216Y-119859577D01*
X143570943Y-119900500D01*
X143570945Y-119900500D01*
X143729055Y-119900500D01*
X143729057Y-119900500D01*
X143881784Y-119859577D01*
X144018716Y-119780520D01*
X144130520Y-119668716D01*
X144209577Y-119531784D01*
X144250500Y-119379057D01*
X144250500Y-119220943D01*
X144209577Y-119068216D01*
X144131271Y-118932584D01*
X144130524Y-118931290D01*
X144130518Y-118931282D01*
X144018717Y-118819481D01*
X144018709Y-118819475D01*
X143881790Y-118740426D01*
X143881786Y-118740424D01*
X143881784Y-118740423D01*
X143729057Y-118699500D01*
X143570943Y-118699500D01*
X143418216Y-118740423D01*
X143418209Y-118740426D01*
X143281290Y-118819475D01*
X143281282Y-118819481D01*
X143169481Y-118931282D01*
X143169475Y-118931290D01*
X143090426Y-119068209D01*
X143090423Y-119068216D01*
X143049500Y-119220943D01*
X140150500Y-119220943D01*
X140109577Y-119068216D01*
X140031271Y-118932584D01*
X140030524Y-118931290D01*
X140030518Y-118931282D01*
X139918717Y-118819481D01*
X139918709Y-118819475D01*
X139781790Y-118740426D01*
X139781786Y-118740424D01*
X139781784Y-118740423D01*
X139629057Y-118699500D01*
X139470943Y-118699500D01*
X139318216Y-118740423D01*
X139318209Y-118740426D01*
X139181290Y-118819475D01*
X139181282Y-118819481D01*
X139069481Y-118931282D01*
X139069475Y-118931290D01*
X138990426Y-119068209D01*
X138990423Y-119068216D01*
X138949500Y-119220943D01*
X138675500Y-119220943D01*
X138675500Y-114245414D01*
X138695185Y-114178375D01*
X138747989Y-114132620D01*
X138817147Y-114122676D01*
X138863647Y-114139296D01*
X138966931Y-114201733D01*
X138966934Y-114201734D01*
X138966933Y-114201734D01*
X139016396Y-114217147D01*
X139120067Y-114249452D01*
X139186619Y-114255500D01*
X139613380Y-114255499D01*
X139613388Y-114255499D01*
X139679926Y-114249453D01*
X139679927Y-114249452D01*
X139679933Y-114249452D01*
X139833069Y-114201733D01*
X139936351Y-114139297D01*
X139970329Y-114118757D01*
X139970330Y-114118755D01*
X139970335Y-114118753D01*
X140079769Y-114009319D01*
X140141092Y-113975834D01*
X140167450Y-113973000D01*
X140946638Y-113973000D01*
X140989633Y-113980692D01*
X141130301Y-114032692D01*
X141141252Y-114040840D01*
X141154345Y-114044685D01*
X141185896Y-114074058D01*
X141186356Y-114074401D01*
X141186405Y-114074533D01*
X141186570Y-114074686D01*
X141192454Y-114082546D01*
X141192455Y-114082546D01*
X141192456Y-114082548D01*
X141314769Y-114174112D01*
X141313070Y-114176381D01*
X141352264Y-114215580D01*
X141367111Y-114283854D01*
X141342690Y-114349317D01*
X141321305Y-114371494D01*
X141310652Y-114380091D01*
X141307669Y-114381204D01*
X141192454Y-114467454D01*
X141177266Y-114487741D01*
X141165183Y-114497494D01*
X141146679Y-114505174D01*
X141130639Y-114517182D01*
X141107842Y-114521294D01*
X141100651Y-114524280D01*
X141095964Y-114523437D01*
X141087306Y-114525000D01*
X141050000Y-114525000D01*
X141050000Y-114572844D01*
X141056401Y-114632372D01*
X141058187Y-114639930D01*
X141056542Y-114640318D01*
X141060851Y-114700656D01*
X141055943Y-114717371D01*
X141055908Y-114717520D01*
X141050785Y-114765173D01*
X141049501Y-114777123D01*
X141049500Y-114777136D01*
X141049500Y-115372870D01*
X141049501Y-115372876D01*
X141055908Y-115432483D01*
X141106202Y-115567328D01*
X141106203Y-115567329D01*
X141106204Y-115567331D01*
X141154081Y-115631286D01*
X141197769Y-115689646D01*
X141195370Y-115691441D01*
X141221666Y-115739597D01*
X141224500Y-115765955D01*
X141224500Y-116113959D01*
X141204815Y-116180998D01*
X141152011Y-116226753D01*
X141137392Y-116232344D01*
X141134433Y-116233265D01*
X141134429Y-116233267D01*
X140997170Y-116316242D01*
X140997165Y-116316246D01*
X140883746Y-116429665D01*
X140883742Y-116429670D01*
X140800767Y-116566929D01*
X140800765Y-116566933D01*
X140753048Y-116720065D01*
X140753048Y-116720067D01*
X140749458Y-116759577D01*
X140747000Y-116786621D01*
X140747000Y-116896500D01*
X140744449Y-116905185D01*
X140745738Y-116914147D01*
X140734759Y-116938187D01*
X140727315Y-116963539D01*
X140720474Y-116969466D01*
X140716713Y-116977703D01*
X140694478Y-116991992D01*
X140674511Y-117009294D01*
X140663996Y-117011581D01*
X140657935Y-117015477D01*
X140623000Y-117020500D01*
X140603941Y-117020500D01*
X140536902Y-117000815D01*
X140516260Y-116984181D01*
X140510292Y-116978213D01*
X140510288Y-116978210D01*
X140379185Y-116890609D01*
X140379172Y-116890602D01*
X140233501Y-116830264D01*
X140233489Y-116830261D01*
X140078845Y-116799500D01*
X140078842Y-116799500D01*
X139921158Y-116799500D01*
X139921155Y-116799500D01*
X139766510Y-116830261D01*
X139766498Y-116830264D01*
X139620827Y-116890602D01*
X139620814Y-116890609D01*
X139489711Y-116978210D01*
X139489707Y-116978213D01*
X139378213Y-117089707D01*
X139378210Y-117089711D01*
X139290609Y-117220814D01*
X139290602Y-117220827D01*
X139230264Y-117366498D01*
X139230261Y-117366510D01*
X139199500Y-117521153D01*
X139199500Y-117678846D01*
X139230261Y-117833489D01*
X139230264Y-117833501D01*
X139290602Y-117979172D01*
X139290609Y-117979185D01*
X139378210Y-118110288D01*
X139378213Y-118110292D01*
X139489707Y-118221786D01*
X139489711Y-118221789D01*
X139620814Y-118309390D01*
X139620827Y-118309397D01*
X139754294Y-118364680D01*
X139766503Y-118369737D01*
X139921153Y-118400499D01*
X139921156Y-118400500D01*
X139921158Y-118400500D01*
X140078844Y-118400500D01*
X140078845Y-118400499D01*
X140233497Y-118369737D01*
X140375529Y-118310906D01*
X140379172Y-118309397D01*
X140379172Y-118309396D01*
X140379179Y-118309394D01*
X140393986Y-118299500D01*
X140479446Y-118242398D01*
X140546123Y-118221520D01*
X140548337Y-118221500D01*
X142092331Y-118221500D01*
X142092347Y-118221501D01*
X142099943Y-118221501D01*
X142258054Y-118221501D01*
X142258057Y-118221501D01*
X142410785Y-118180577D01*
X142460904Y-118151639D01*
X142547716Y-118101520D01*
X142659520Y-117989716D01*
X142659521Y-117989713D01*
X142792418Y-117856815D01*
X142853739Y-117823333D01*
X142880097Y-117820499D01*
X143031135Y-117820499D01*
X143098174Y-117840184D01*
X143143929Y-117892988D01*
X143148839Y-117905490D01*
X143164091Y-117951516D01*
X143254659Y-118098350D01*
X143376649Y-118220340D01*
X143523483Y-118310908D01*
X143687246Y-118365174D01*
X143788322Y-118375500D01*
X144486675Y-118375499D01*
X144486683Y-118375498D01*
X144486686Y-118375498D01*
X144543102Y-118369735D01*
X144587752Y-118365174D01*
X144751515Y-118310908D01*
X144898349Y-118220340D01*
X144912671Y-118206017D01*
X144973989Y-118172532D01*
X145043681Y-118177513D01*
X145088034Y-118206016D01*
X145101962Y-118219944D01*
X145101966Y-118219947D01*
X145248689Y-118310448D01*
X145248700Y-118310453D01*
X145412348Y-118364680D01*
X145513352Y-118374999D01*
X146112501Y-118374999D01*
X146211641Y-118374999D01*
X146211655Y-118374998D01*
X146312653Y-118364680D01*
X146476301Y-118310453D01*
X146476312Y-118310448D01*
X146623035Y-118219947D01*
X146623039Y-118219944D01*
X146744945Y-118098038D01*
X146744948Y-118098034D01*
X146835449Y-117951311D01*
X146835454Y-117951300D01*
X146889681Y-117787652D01*
X146900000Y-117686654D01*
X146900001Y-117686641D01*
X146900001Y-117650000D01*
X146112501Y-117650000D01*
X146112501Y-118374999D01*
X145513352Y-118374999D01*
X145612501Y-118374998D01*
X145612501Y-117524000D01*
X145632186Y-117456961D01*
X145684990Y-117411206D01*
X145736501Y-117400000D01*
X145862501Y-117400000D01*
X145862501Y-117274000D01*
X145882186Y-117206961D01*
X145934990Y-117161206D01*
X145986501Y-117150000D01*
X146900000Y-117150000D01*
X146900000Y-117113360D01*
X146899999Y-117113345D01*
X146889681Y-117012347D01*
X146835452Y-116848693D01*
X146816360Y-116817741D01*
X146808550Y-116789203D01*
X146798214Y-116761490D01*
X146799433Y-116755883D01*
X146797919Y-116750349D01*
X146806776Y-116722125D01*
X146813065Y-116693217D01*
X146817859Y-116686812D01*
X146818841Y-116683685D01*
X146834216Y-116664963D01*
X146930463Y-116568716D01*
X146930464Y-116568713D01*
X147005901Y-116493276D01*
X147067224Y-116459791D01*
X147132586Y-116463251D01*
X147212347Y-116489681D01*
X147212354Y-116489682D01*
X147313352Y-116500000D01*
X147350000Y-116500000D01*
X147850000Y-116500000D01*
X147886640Y-116500000D01*
X147886654Y-116499999D01*
X147987652Y-116489681D01*
X148151300Y-116435454D01*
X148151311Y-116435449D01*
X148298034Y-116344948D01*
X148298038Y-116344945D01*
X148419943Y-116223040D01*
X148494461Y-116102229D01*
X148546409Y-116055505D01*
X148615372Y-116044283D01*
X148679454Y-116072126D01*
X148705539Y-116102229D01*
X148780056Y-116223040D01*
X148901961Y-116344945D01*
X148901965Y-116344948D01*
X149048688Y-116435449D01*
X149048699Y-116435454D01*
X149212347Y-116489681D01*
X149313352Y-116500000D01*
X149350000Y-116500000D01*
X149850000Y-116500000D01*
X149886640Y-116500000D01*
X149886654Y-116499999D01*
X149987652Y-116489681D01*
X150151300Y-116435454D01*
X150151311Y-116435449D01*
X150298034Y-116344948D01*
X150298038Y-116344945D01*
X150419944Y-116223039D01*
X150419947Y-116223035D01*
X150510448Y-116076312D01*
X150510453Y-116076301D01*
X150564680Y-115912653D01*
X150574999Y-115811655D01*
X150575000Y-115811642D01*
X150575000Y-115712501D01*
X149850000Y-115712501D01*
X149850000Y-116500000D01*
X149350000Y-116500000D01*
X149350000Y-115712501D01*
X147850000Y-115712501D01*
X147850000Y-116500000D01*
X147350000Y-116500000D01*
X147350000Y-116149109D01*
X147366613Y-116087108D01*
X147383577Y-116057727D01*
X147424500Y-115905000D01*
X147424500Y-115586501D01*
X147444185Y-115519462D01*
X147496989Y-115473707D01*
X147548500Y-115462501D01*
X147600000Y-115462501D01*
X147600000Y-115336501D01*
X147619685Y-115269462D01*
X147672489Y-115223707D01*
X147724000Y-115212501D01*
X150574999Y-115212501D01*
X150574999Y-115113361D01*
X150574998Y-115113346D01*
X150564680Y-115012348D01*
X150510453Y-114848700D01*
X150510448Y-114848689D01*
X150419947Y-114701966D01*
X150419944Y-114701962D01*
X150406016Y-114688034D01*
X150372531Y-114626711D01*
X150377515Y-114557019D01*
X150406016Y-114512672D01*
X150420340Y-114498349D01*
X150510908Y-114351515D01*
X150565174Y-114187752D01*
X150575500Y-114086676D01*
X150575499Y-113388323D01*
X150565174Y-113287246D01*
X150510908Y-113123483D01*
X150420340Y-112976649D01*
X150298350Y-112854659D01*
X150151516Y-112764091D01*
X150087660Y-112742931D01*
X150047515Y-112729628D01*
X149998839Y-112699603D01*
X149086819Y-111787583D01*
X149053334Y-111726260D01*
X149050500Y-111699902D01*
X149050500Y-109520943D01*
X149399500Y-109520943D01*
X149399500Y-109679056D01*
X149440423Y-109831783D01*
X149440426Y-109831790D01*
X149519475Y-109968709D01*
X149519479Y-109968714D01*
X149519480Y-109968716D01*
X149631284Y-110080520D01*
X149631286Y-110080521D01*
X149631290Y-110080524D01*
X149738677Y-110142523D01*
X149768216Y-110159577D01*
X149920943Y-110200500D01*
X149920945Y-110200500D01*
X150079055Y-110200500D01*
X150079057Y-110200500D01*
X150231784Y-110159577D01*
X150368716Y-110080520D01*
X150480520Y-109968716D01*
X150559577Y-109831784D01*
X150600500Y-109679057D01*
X150600500Y-109520943D01*
X150559577Y-109368216D01*
X150526799Y-109311442D01*
X150480524Y-109231290D01*
X150480518Y-109231282D01*
X150368717Y-109119481D01*
X150368709Y-109119475D01*
X150231790Y-109040426D01*
X150231786Y-109040424D01*
X150231784Y-109040423D01*
X150079057Y-108999500D01*
X149920943Y-108999500D01*
X149768216Y-109040423D01*
X149768209Y-109040426D01*
X149631290Y-109119475D01*
X149631282Y-109119481D01*
X149519481Y-109231282D01*
X149519475Y-109231290D01*
X149440426Y-109368209D01*
X149440423Y-109368216D01*
X149399500Y-109520943D01*
X149050500Y-109520943D01*
X149050500Y-109029765D01*
X149070185Y-108962726D01*
X149071398Y-108960874D01*
X149159390Y-108829185D01*
X149159390Y-108829184D01*
X149159394Y-108829179D01*
X149219737Y-108683497D01*
X149250500Y-108528842D01*
X149250500Y-108371158D01*
X149250500Y-108371155D01*
X149250499Y-108371153D01*
X149219737Y-108216503D01*
X149219735Y-108216498D01*
X149159397Y-108070827D01*
X149159390Y-108070814D01*
X149071789Y-107939711D01*
X149071786Y-107939707D01*
X148960292Y-107828213D01*
X148960288Y-107828210D01*
X148829185Y-107740609D01*
X148829172Y-107740602D01*
X148683501Y-107680264D01*
X148683491Y-107680261D01*
X148528151Y-107649362D01*
X148466241Y-107616977D01*
X148464662Y-107615426D01*
X148368717Y-107519481D01*
X148368716Y-107519480D01*
X148281904Y-107469360D01*
X148281904Y-107469359D01*
X148281900Y-107469358D01*
X148231785Y-107440423D01*
X148079057Y-107399499D01*
X147920943Y-107399499D01*
X147913347Y-107399499D01*
X147913331Y-107399500D01*
X145486669Y-107399500D01*
X145486653Y-107399499D01*
X145479057Y-107399499D01*
X145320943Y-107399499D01*
X145213587Y-107428265D01*
X145168210Y-107440424D01*
X145168209Y-107440425D01*
X145118096Y-107469359D01*
X145118095Y-107469360D01*
X145074689Y-107494420D01*
X145031285Y-107519479D01*
X145031282Y-107519481D01*
X144312181Y-108238583D01*
X144250858Y-108272068D01*
X144181166Y-108267084D01*
X144125233Y-108225212D01*
X144100816Y-108159748D01*
X144100500Y-108150902D01*
X144100500Y-107959572D01*
X144100499Y-107959568D01*
X144069057Y-107680505D01*
X144069054Y-107680487D01*
X144069002Y-107680261D01*
X144006560Y-107406682D01*
X143913801Y-107141592D01*
X143791945Y-106888555D01*
X143642523Y-106650752D01*
X143467416Y-106431175D01*
X143268825Y-106232584D01*
X143049248Y-106057477D01*
X142811445Y-105908055D01*
X142811442Y-105908053D01*
X142558411Y-105786200D01*
X142293329Y-105693443D01*
X142293317Y-105693439D01*
X142019512Y-105630945D01*
X142019494Y-105630942D01*
X141740431Y-105599500D01*
X141740425Y-105599500D01*
X141459575Y-105599500D01*
X141459568Y-105599500D01*
X141180505Y-105630942D01*
X141180487Y-105630945D01*
X140906682Y-105693439D01*
X140906670Y-105693443D01*
X140641588Y-105786200D01*
X140388557Y-105908053D01*
X140150753Y-106057476D01*
X139931175Y-106232583D01*
X139732583Y-106431175D01*
X139557476Y-106650753D01*
X139408053Y-106888557D01*
X139286200Y-107141588D01*
X139193443Y-107406670D01*
X139193439Y-107406682D01*
X139130945Y-107680487D01*
X139130942Y-107680505D01*
X139099500Y-107959568D01*
X139099500Y-108240431D01*
X139130942Y-108519494D01*
X139130945Y-108519512D01*
X139193439Y-108793317D01*
X139193443Y-108793329D01*
X139286200Y-109058411D01*
X139408053Y-109311442D01*
X139408055Y-109311445D01*
X139557477Y-109549248D01*
X139660995Y-109679055D01*
X139732583Y-109768824D01*
X139931175Y-109967416D01*
X140133233Y-110128552D01*
X140173373Y-110185740D01*
X140176223Y-110255552D01*
X140140878Y-110315822D01*
X140078559Y-110347415D01*
X140055920Y-110349499D01*
X139970943Y-110349499D01*
X139891010Y-110370917D01*
X139818216Y-110390422D01*
X139777722Y-110413802D01*
X139777721Y-110413801D01*
X139681287Y-110469477D01*
X139681282Y-110469481D01*
X138919481Y-111231282D01*
X138919477Y-111231287D01*
X138906887Y-111253095D01*
X138856320Y-111301311D01*
X138787713Y-111314534D01*
X138722848Y-111288566D01*
X138682320Y-111231651D01*
X138675500Y-111191095D01*
X138675500Y-105456961D01*
X138676280Y-105443078D01*
X138688966Y-105330485D01*
X138688966Y-105330479D01*
X138695142Y-105303418D01*
X138730256Y-105203068D01*
X138742299Y-105178062D01*
X138798863Y-105088040D01*
X138816168Y-105066341D01*
X138891341Y-104991168D01*
X138913040Y-104973863D01*
X139003062Y-104917299D01*
X139028068Y-104905256D01*
X139128418Y-104870142D01*
X139155481Y-104863966D01*
X139252769Y-104853004D01*
X139268078Y-104851280D01*
X139281961Y-104850500D01*
X139332583Y-104850500D01*
X150217417Y-104850500D01*
X150268039Y-104850500D01*
X150281922Y-104851279D01*
G37*
%TD.AperFunction*%
%TA.AperFunction,Conductor*%
G36*
X142793039Y-114245184D02*
G01*
X142838794Y-114297988D01*
X142850000Y-114349499D01*
X142850000Y-114825000D01*
X143950000Y-114825000D01*
X143950000Y-114349499D01*
X143969685Y-114282460D01*
X144022489Y-114236705D01*
X144073996Y-114225499D01*
X144343107Y-114225499D01*
X144410146Y-114245184D01*
X144455901Y-114297988D01*
X144465845Y-114367146D01*
X144436820Y-114430702D01*
X144417419Y-114448765D01*
X144392452Y-114467455D01*
X144306206Y-114582664D01*
X144306202Y-114582671D01*
X144255908Y-114717517D01*
X144250785Y-114765173D01*
X144249500Y-114777127D01*
X144249500Y-115027120D01*
X144249500Y-115027127D01*
X144249500Y-115182485D01*
X144249501Y-115200999D01*
X144229817Y-115268039D01*
X144177013Y-115313794D01*
X144125501Y-115325000D01*
X142850000Y-115325000D01*
X142850000Y-115849402D01*
X142841355Y-115878842D01*
X142834832Y-115908829D01*
X142831077Y-115913844D01*
X142830315Y-115916441D01*
X142813681Y-115937083D01*
X142719480Y-116031284D01*
X142719478Y-116031286D01*
X142648535Y-116102229D01*
X142605223Y-116145541D01*
X142543900Y-116179025D01*
X142528760Y-116181350D01*
X142510718Y-116182989D01*
X142442173Y-116169451D01*
X142391828Y-116121003D01*
X142375500Y-116059498D01*
X142375500Y-115765955D01*
X142395185Y-115698916D01*
X142402495Y-115689844D01*
X142402231Y-115689646D01*
X142407546Y-115682546D01*
X142493796Y-115567331D01*
X142544091Y-115432483D01*
X142550500Y-115372873D01*
X142550499Y-114777128D01*
X142544091Y-114717517D01*
X142538289Y-114701962D01*
X142493797Y-114582671D01*
X142493793Y-114582664D01*
X142407547Y-114467455D01*
X142382581Y-114448765D01*
X142340710Y-114392830D01*
X142335727Y-114323139D01*
X142369213Y-114261816D01*
X142430537Y-114228332D01*
X142456886Y-114225499D01*
X142726000Y-114225499D01*
X142793039Y-114245184D01*
G37*
%TD.AperFunction*%
%TA.AperFunction,Conductor*%
G36*
X146174530Y-114077210D02*
G01*
X146180493Y-114076061D01*
X146207667Y-114086940D01*
X146235745Y-114095185D01*
X146239720Y-114099773D01*
X146245358Y-114102030D01*
X146262336Y-114125873D01*
X146281500Y-114147989D01*
X146282364Y-114153998D01*
X146285886Y-114158944D01*
X146287278Y-114188179D01*
X146291444Y-114217147D01*
X146288995Y-114224220D01*
X146289211Y-114228734D01*
X146276093Y-114261500D01*
X146264424Y-114281710D01*
X146264423Y-114281714D01*
X146223499Y-114434442D01*
X146223499Y-114434444D01*
X146223499Y-114602504D01*
X146223500Y-114602558D01*
X146223500Y-115474903D01*
X146203815Y-115541942D01*
X146151011Y-115587697D01*
X146081853Y-115597641D01*
X146018297Y-115568616D01*
X146011819Y-115562584D01*
X145828181Y-115378946D01*
X145794696Y-115317623D01*
X145799680Y-115247931D01*
X145824090Y-115182485D01*
X145824089Y-115182485D01*
X145824091Y-115182483D01*
X145830500Y-115122873D01*
X145830499Y-114777128D01*
X145824091Y-114717517D01*
X145818289Y-114701962D01*
X145773797Y-114582671D01*
X145772887Y-114581004D01*
X145772266Y-114580506D01*
X145771713Y-114578855D01*
X145769548Y-114574890D01*
X145770256Y-114574503D01*
X145761817Y-114549292D01*
X145753803Y-114527803D01*
X145732563Y-114506563D01*
X145724907Y-114504315D01*
X145692681Y-114474313D01*
X145687547Y-114467456D01*
X145687546Y-114467454D01*
X145572331Y-114381204D01*
X145572329Y-114381203D01*
X145572328Y-114381202D01*
X145542322Y-114370011D01*
X145486388Y-114328140D01*
X145461971Y-114262676D01*
X145476822Y-114194403D01*
X145511342Y-114154564D01*
X145583921Y-114100232D01*
X145649386Y-114075816D01*
X145658231Y-114075500D01*
X146168706Y-114075500D01*
X146174530Y-114077210D01*
G37*
%TD.AperFunction*%
%TA.AperFunction,Conductor*%
G36*
X140377837Y-112424534D02*
G01*
X140424276Y-112453794D01*
X140447540Y-112477058D01*
X140447544Y-112477061D01*
X140447546Y-112477063D01*
X140590100Y-112561370D01*
X140602203Y-112564886D01*
X140650519Y-112578924D01*
X140709405Y-112616530D01*
X140738611Y-112680003D01*
X140728865Y-112749189D01*
X140683261Y-112802124D01*
X140616278Y-112821999D01*
X140615924Y-112822000D01*
X140288845Y-112822000D01*
X140221806Y-112802315D01*
X140176051Y-112749511D01*
X140166107Y-112680353D01*
X140170460Y-112661110D01*
X140201539Y-112561371D01*
X140214452Y-112519933D01*
X140214453Y-112519916D01*
X140214975Y-112517296D01*
X140215714Y-112515882D01*
X140216404Y-112513669D01*
X140216806Y-112513794D01*
X140247354Y-112455381D01*
X140308067Y-112420801D01*
X140377837Y-112424534D01*
G37*
%TD.AperFunction*%
%TA.AperFunction,Conductor*%
G36*
X147630161Y-108620185D02*
G01*
X147675916Y-108672989D01*
X147677784Y-108677930D01*
X147677932Y-108677869D01*
X147740602Y-108829172D01*
X147740609Y-108829185D01*
X147828602Y-108960874D01*
X147849480Y-109027551D01*
X147849500Y-109029765D01*
X147849500Y-111713444D01*
X147829815Y-111780483D01*
X147777011Y-111826238D01*
X147707853Y-111836182D01*
X147689575Y-111831202D01*
X147689324Y-111832031D01*
X147683500Y-111830264D01*
X147683497Y-111830263D01*
X147683492Y-111830262D01*
X147683489Y-111830261D01*
X147528845Y-111799500D01*
X147528842Y-111799500D01*
X147371158Y-111799500D01*
X147371155Y-111799500D01*
X147216510Y-111830261D01*
X147216498Y-111830264D01*
X147070827Y-111890602D01*
X147070814Y-111890609D01*
X146939711Y-111978210D01*
X146939707Y-111978213D01*
X146929740Y-111988181D01*
X146868417Y-112021666D01*
X146842059Y-112024500D01*
X144824231Y-112024500D01*
X144797048Y-112031783D01*
X144797049Y-112031784D01*
X144677865Y-112063719D01*
X144677863Y-112063719D01*
X144677863Y-112063720D01*
X144546635Y-112139485D01*
X144546632Y-112139487D01*
X144037680Y-112648438D01*
X143976357Y-112681923D01*
X143906665Y-112676939D01*
X143862318Y-112648438D01*
X143353367Y-112139487D01*
X143353365Y-112139485D01*
X143222135Y-112063719D01*
X143218248Y-112062677D01*
X143214764Y-112060666D01*
X143214629Y-112060610D01*
X143214636Y-112060592D01*
X143162661Y-112030583D01*
X143110292Y-111978213D01*
X143110288Y-111978210D01*
X142979185Y-111890609D01*
X142979172Y-111890602D01*
X142833501Y-111830264D01*
X142833489Y-111830261D01*
X142678845Y-111799500D01*
X142678842Y-111799500D01*
X142521158Y-111799500D01*
X142521155Y-111799500D01*
X142366510Y-111830261D01*
X142360676Y-111832031D01*
X142359901Y-111829478D01*
X142338758Y-111831729D01*
X142306353Y-111836389D01*
X142304204Y-111835407D01*
X142301855Y-111835658D01*
X142272585Y-111820967D01*
X142242797Y-111807364D01*
X142241519Y-111805376D01*
X142239409Y-111804317D01*
X142222735Y-111776147D01*
X142205023Y-111748586D01*
X142204574Y-111745464D01*
X142203820Y-111744190D01*
X142200000Y-111713651D01*
X142200000Y-111674500D01*
X142219685Y-111607461D01*
X142272489Y-111561706D01*
X142324000Y-111550500D01*
X142363331Y-111550500D01*
X142363347Y-111550501D01*
X142370943Y-111550501D01*
X142533347Y-111550501D01*
X142540989Y-111550000D01*
X143065230Y-111550000D01*
X143064578Y-111541718D01*
X143018409Y-111382805D01*
X143018408Y-111382804D01*
X143010890Y-111370091D01*
X142993709Y-111302367D01*
X143015869Y-111236104D01*
X143029931Y-111219302D01*
X144728291Y-109520943D01*
X145299500Y-109520943D01*
X145299500Y-109679056D01*
X145340423Y-109831783D01*
X145340426Y-109831790D01*
X145419475Y-109968709D01*
X145419479Y-109968714D01*
X145419480Y-109968716D01*
X145531284Y-110080520D01*
X145531286Y-110080521D01*
X145531290Y-110080524D01*
X145638677Y-110142523D01*
X145668216Y-110159577D01*
X145820943Y-110200500D01*
X145820945Y-110200500D01*
X145979055Y-110200500D01*
X145979057Y-110200500D01*
X146131784Y-110159577D01*
X146268716Y-110080520D01*
X146380520Y-109968716D01*
X146459577Y-109831784D01*
X146500500Y-109679057D01*
X146500500Y-109520943D01*
X146459577Y-109368216D01*
X146426799Y-109311442D01*
X146380524Y-109231290D01*
X146380518Y-109231282D01*
X146268717Y-109119481D01*
X146268709Y-109119475D01*
X146131790Y-109040426D01*
X146131786Y-109040424D01*
X146131784Y-109040423D01*
X145979057Y-108999500D01*
X145820943Y-108999500D01*
X145668216Y-109040423D01*
X145668209Y-109040426D01*
X145531290Y-109119475D01*
X145531282Y-109119481D01*
X145419481Y-109231282D01*
X145419475Y-109231290D01*
X145340426Y-109368209D01*
X145340423Y-109368216D01*
X145299500Y-109520943D01*
X144728291Y-109520943D01*
X145612416Y-108636819D01*
X145673739Y-108603334D01*
X145700097Y-108600500D01*
X147563122Y-108600500D01*
X147630161Y-108620185D01*
G37*
%TD.AperFunction*%
%TD*%
M02*
