%TF.GenerationSoftware,KiCad,Pcbnew,10.0.6*%
%TF.CreationDate,2026-09-23T08:08:35-05:00*%
%TF.ProjectId,Lab_4_402_Gatik_Billava,4c61625f-345f-4343-9032-5f476174696b,rev?*%
%TF.SameCoordinates,Original*%
%TF.FileFunction,Legend,Top*%
%TF.FilePolarity,Positive*%
%FSLAX46Y46*%
G04 Gerber Fmt 4.6, Leading zero omitted, Abs format (unit mm)*
G04 Created by KiCad (PCBNEW 10.0.6) date 2026-09-23 08:08:35*
%MOMM*%
%LPD*%
G01*
G04 APERTURE LIST*
%ADD10C,0.300000*%
%ADD11C,0.150000*%
%ADD12C,0.000000*%
%ADD13C,0.120000*%
G04 APERTURE END LIST*
D10*
X134340225Y-91957341D02*
X134197368Y-91885912D01*
X134197368Y-91885912D02*
X133983082Y-91885912D01*
X133983082Y-91885912D02*
X133768796Y-91957341D01*
X133768796Y-91957341D02*
X133625939Y-92100198D01*
X133625939Y-92100198D02*
X133554510Y-92243055D01*
X133554510Y-92243055D02*
X133483082Y-92528769D01*
X133483082Y-92528769D02*
X133483082Y-92743055D01*
X133483082Y-92743055D02*
X133554510Y-93028769D01*
X133554510Y-93028769D02*
X133625939Y-93171626D01*
X133625939Y-93171626D02*
X133768796Y-93314484D01*
X133768796Y-93314484D02*
X133983082Y-93385912D01*
X133983082Y-93385912D02*
X134125939Y-93385912D01*
X134125939Y-93385912D02*
X134340225Y-93314484D01*
X134340225Y-93314484D02*
X134411653Y-93243055D01*
X134411653Y-93243055D02*
X134411653Y-92743055D01*
X134411653Y-92743055D02*
X134125939Y-92743055D01*
X135697368Y-93385912D02*
X135697368Y-92600198D01*
X135697368Y-92600198D02*
X135625939Y-92457341D01*
X135625939Y-92457341D02*
X135483082Y-92385912D01*
X135483082Y-92385912D02*
X135197368Y-92385912D01*
X135197368Y-92385912D02*
X135054510Y-92457341D01*
X135697368Y-93314484D02*
X135554510Y-93385912D01*
X135554510Y-93385912D02*
X135197368Y-93385912D01*
X135197368Y-93385912D02*
X135054510Y-93314484D01*
X135054510Y-93314484D02*
X134983082Y-93171626D01*
X134983082Y-93171626D02*
X134983082Y-93028769D01*
X134983082Y-93028769D02*
X135054510Y-92885912D01*
X135054510Y-92885912D02*
X135197368Y-92814484D01*
X135197368Y-92814484D02*
X135554510Y-92814484D01*
X135554510Y-92814484D02*
X135697368Y-92743055D01*
X136197368Y-92385912D02*
X136768796Y-92385912D01*
X136411653Y-91885912D02*
X136411653Y-93171626D01*
X136411653Y-93171626D02*
X136483082Y-93314484D01*
X136483082Y-93314484D02*
X136625939Y-93385912D01*
X136625939Y-93385912D02*
X136768796Y-93385912D01*
X137268796Y-93385912D02*
X137268796Y-92385912D01*
X137268796Y-91885912D02*
X137197368Y-91957341D01*
X137197368Y-91957341D02*
X137268796Y-92028769D01*
X137268796Y-92028769D02*
X137340225Y-91957341D01*
X137340225Y-91957341D02*
X137268796Y-91885912D01*
X137268796Y-91885912D02*
X137268796Y-92028769D01*
X137983082Y-93385912D02*
X137983082Y-91885912D01*
X138125940Y-92814484D02*
X138554511Y-93385912D01*
X138554511Y-92385912D02*
X137983082Y-92957341D01*
X140840225Y-92600198D02*
X141054511Y-92671626D01*
X141054511Y-92671626D02*
X141125940Y-92743055D01*
X141125940Y-92743055D02*
X141197368Y-92885912D01*
X141197368Y-92885912D02*
X141197368Y-93100198D01*
X141197368Y-93100198D02*
X141125940Y-93243055D01*
X141125940Y-93243055D02*
X141054511Y-93314484D01*
X141054511Y-93314484D02*
X140911654Y-93385912D01*
X140911654Y-93385912D02*
X140340225Y-93385912D01*
X140340225Y-93385912D02*
X140340225Y-91885912D01*
X140340225Y-91885912D02*
X140840225Y-91885912D01*
X140840225Y-91885912D02*
X140983083Y-91957341D01*
X140983083Y-91957341D02*
X141054511Y-92028769D01*
X141054511Y-92028769D02*
X141125940Y-92171626D01*
X141125940Y-92171626D02*
X141125940Y-92314484D01*
X141125940Y-92314484D02*
X141054511Y-92457341D01*
X141054511Y-92457341D02*
X140983083Y-92528769D01*
X140983083Y-92528769D02*
X140840225Y-92600198D01*
X140840225Y-92600198D02*
X140340225Y-92600198D01*
X141840225Y-93385912D02*
X141840225Y-92385912D01*
X141840225Y-91885912D02*
X141768797Y-91957341D01*
X141768797Y-91957341D02*
X141840225Y-92028769D01*
X141840225Y-92028769D02*
X141911654Y-91957341D01*
X141911654Y-91957341D02*
X141840225Y-91885912D01*
X141840225Y-91885912D02*
X141840225Y-92028769D01*
X142768797Y-93385912D02*
X142625940Y-93314484D01*
X142625940Y-93314484D02*
X142554511Y-93171626D01*
X142554511Y-93171626D02*
X142554511Y-91885912D01*
X143554511Y-93385912D02*
X143411654Y-93314484D01*
X143411654Y-93314484D02*
X143340225Y-93171626D01*
X143340225Y-93171626D02*
X143340225Y-91885912D01*
X144768797Y-93385912D02*
X144768797Y-92600198D01*
X144768797Y-92600198D02*
X144697368Y-92457341D01*
X144697368Y-92457341D02*
X144554511Y-92385912D01*
X144554511Y-92385912D02*
X144268797Y-92385912D01*
X144268797Y-92385912D02*
X144125939Y-92457341D01*
X144768797Y-93314484D02*
X144625939Y-93385912D01*
X144625939Y-93385912D02*
X144268797Y-93385912D01*
X144268797Y-93385912D02*
X144125939Y-93314484D01*
X144125939Y-93314484D02*
X144054511Y-93171626D01*
X144054511Y-93171626D02*
X144054511Y-93028769D01*
X144054511Y-93028769D02*
X144125939Y-92885912D01*
X144125939Y-92885912D02*
X144268797Y-92814484D01*
X144268797Y-92814484D02*
X144625939Y-92814484D01*
X144625939Y-92814484D02*
X144768797Y-92743055D01*
X145340225Y-92385912D02*
X145697368Y-93385912D01*
X145697368Y-93385912D02*
X146054511Y-92385912D01*
X147268797Y-93385912D02*
X147268797Y-92600198D01*
X147268797Y-92600198D02*
X147197368Y-92457341D01*
X147197368Y-92457341D02*
X147054511Y-92385912D01*
X147054511Y-92385912D02*
X146768797Y-92385912D01*
X146768797Y-92385912D02*
X146625939Y-92457341D01*
X147268797Y-93314484D02*
X147125939Y-93385912D01*
X147125939Y-93385912D02*
X146768797Y-93385912D01*
X146768797Y-93385912D02*
X146625939Y-93314484D01*
X146625939Y-93314484D02*
X146554511Y-93171626D01*
X146554511Y-93171626D02*
X146554511Y-93028769D01*
X146554511Y-93028769D02*
X146625939Y-92885912D01*
X146625939Y-92885912D02*
X146768797Y-92814484D01*
X146768797Y-92814484D02*
X147125939Y-92814484D01*
X147125939Y-92814484D02*
X147268797Y-92743055D01*
X133554510Y-95015114D02*
X134054510Y-95015114D01*
X134268796Y-95800828D02*
X133554510Y-95800828D01*
X133554510Y-95800828D02*
X133554510Y-94300828D01*
X133554510Y-94300828D02*
X134268796Y-94300828D01*
X135768796Y-95657971D02*
X135697368Y-95729400D01*
X135697368Y-95729400D02*
X135483082Y-95800828D01*
X135483082Y-95800828D02*
X135340225Y-95800828D01*
X135340225Y-95800828D02*
X135125939Y-95729400D01*
X135125939Y-95729400D02*
X134983082Y-95586542D01*
X134983082Y-95586542D02*
X134911653Y-95443685D01*
X134911653Y-95443685D02*
X134840225Y-95157971D01*
X134840225Y-95157971D02*
X134840225Y-94943685D01*
X134840225Y-94943685D02*
X134911653Y-94657971D01*
X134911653Y-94657971D02*
X134983082Y-94515114D01*
X134983082Y-94515114D02*
X135125939Y-94372257D01*
X135125939Y-94372257D02*
X135340225Y-94300828D01*
X135340225Y-94300828D02*
X135483082Y-94300828D01*
X135483082Y-94300828D02*
X135697368Y-94372257D01*
X135697368Y-94372257D02*
X135768796Y-94443685D01*
X136411653Y-95015114D02*
X136911653Y-95015114D01*
X137125939Y-95800828D02*
X136411653Y-95800828D01*
X136411653Y-95800828D02*
X136411653Y-94300828D01*
X136411653Y-94300828D02*
X137125939Y-94300828D01*
X139554511Y-94800828D02*
X139554511Y-95800828D01*
X139197368Y-94229400D02*
X138840225Y-95300828D01*
X138840225Y-95300828D02*
X139768796Y-95300828D01*
X140625939Y-94300828D02*
X140768796Y-94300828D01*
X140768796Y-94300828D02*
X140911653Y-94372257D01*
X140911653Y-94372257D02*
X140983082Y-94443685D01*
X140983082Y-94443685D02*
X141054510Y-94586542D01*
X141054510Y-94586542D02*
X141125939Y-94872257D01*
X141125939Y-94872257D02*
X141125939Y-95229400D01*
X141125939Y-95229400D02*
X141054510Y-95515114D01*
X141054510Y-95515114D02*
X140983082Y-95657971D01*
X140983082Y-95657971D02*
X140911653Y-95729400D01*
X140911653Y-95729400D02*
X140768796Y-95800828D01*
X140768796Y-95800828D02*
X140625939Y-95800828D01*
X140625939Y-95800828D02*
X140483082Y-95729400D01*
X140483082Y-95729400D02*
X140411653Y-95657971D01*
X140411653Y-95657971D02*
X140340224Y-95515114D01*
X140340224Y-95515114D02*
X140268796Y-95229400D01*
X140268796Y-95229400D02*
X140268796Y-94872257D01*
X140268796Y-94872257D02*
X140340224Y-94586542D01*
X140340224Y-94586542D02*
X140411653Y-94443685D01*
X140411653Y-94443685D02*
X140483082Y-94372257D01*
X140483082Y-94372257D02*
X140625939Y-94300828D01*
X141697367Y-94443685D02*
X141768795Y-94372257D01*
X141768795Y-94372257D02*
X141911653Y-94300828D01*
X141911653Y-94300828D02*
X142268795Y-94300828D01*
X142268795Y-94300828D02*
X142411653Y-94372257D01*
X142411653Y-94372257D02*
X142483081Y-94443685D01*
X142483081Y-94443685D02*
X142554510Y-94586542D01*
X142554510Y-94586542D02*
X142554510Y-94729400D01*
X142554510Y-94729400D02*
X142483081Y-94943685D01*
X142483081Y-94943685D02*
X141625938Y-95800828D01*
X141625938Y-95800828D02*
X142554510Y-95800828D01*
D11*
X179809524Y-106954819D02*
X180142857Y-107954819D01*
X180142857Y-107954819D02*
X180476190Y-106954819D01*
X180809524Y-107573866D02*
X181571429Y-107573866D01*
X181809524Y-108050057D02*
X182571428Y-108050057D01*
X182666667Y-106954819D02*
X183238095Y-106954819D01*
X182952381Y-107954819D02*
X182952381Y-106954819D01*
X183571429Y-107954819D02*
X183571429Y-106954819D01*
X183571429Y-106954819D02*
X183952381Y-106954819D01*
X183952381Y-106954819D02*
X184047619Y-107002438D01*
X184047619Y-107002438D02*
X184095238Y-107050057D01*
X184095238Y-107050057D02*
X184142857Y-107145295D01*
X184142857Y-107145295D02*
X184142857Y-107288152D01*
X184142857Y-107288152D02*
X184095238Y-107383390D01*
X184095238Y-107383390D02*
X184047619Y-107431009D01*
X184047619Y-107431009D02*
X183952381Y-107478628D01*
X183952381Y-107478628D02*
X183571429Y-107478628D01*
X185095238Y-107954819D02*
X184523810Y-107954819D01*
X184809524Y-107954819D02*
X184809524Y-106954819D01*
X184809524Y-106954819D02*
X184714286Y-107097676D01*
X184714286Y-107097676D02*
X184619048Y-107192914D01*
X184619048Y-107192914D02*
X184523810Y-107240533D01*
X179499999Y-99002438D02*
X179404761Y-98954819D01*
X179404761Y-98954819D02*
X179261904Y-98954819D01*
X179261904Y-98954819D02*
X179119047Y-99002438D01*
X179119047Y-99002438D02*
X179023809Y-99097676D01*
X179023809Y-99097676D02*
X178976190Y-99192914D01*
X178976190Y-99192914D02*
X178928571Y-99383390D01*
X178928571Y-99383390D02*
X178928571Y-99526247D01*
X178928571Y-99526247D02*
X178976190Y-99716723D01*
X178976190Y-99716723D02*
X179023809Y-99811961D01*
X179023809Y-99811961D02*
X179119047Y-99907200D01*
X179119047Y-99907200D02*
X179261904Y-99954819D01*
X179261904Y-99954819D02*
X179357142Y-99954819D01*
X179357142Y-99954819D02*
X179499999Y-99907200D01*
X179499999Y-99907200D02*
X179547618Y-99859580D01*
X179547618Y-99859580D02*
X179547618Y-99526247D01*
X179547618Y-99526247D02*
X179357142Y-99526247D01*
X179976190Y-99954819D02*
X179976190Y-98954819D01*
X179976190Y-98954819D02*
X180547618Y-99954819D01*
X180547618Y-99954819D02*
X180547618Y-98954819D01*
X181023809Y-99954819D02*
X181023809Y-98954819D01*
X181023809Y-98954819D02*
X181261904Y-98954819D01*
X181261904Y-98954819D02*
X181404761Y-99002438D01*
X181404761Y-99002438D02*
X181499999Y-99097676D01*
X181499999Y-99097676D02*
X181547618Y-99192914D01*
X181547618Y-99192914D02*
X181595237Y-99383390D01*
X181595237Y-99383390D02*
X181595237Y-99526247D01*
X181595237Y-99526247D02*
X181547618Y-99716723D01*
X181547618Y-99716723D02*
X181499999Y-99811961D01*
X181499999Y-99811961D02*
X181404761Y-99907200D01*
X181404761Y-99907200D02*
X181261904Y-99954819D01*
X181261904Y-99954819D02*
X181023809Y-99954819D01*
X181785714Y-100050057D02*
X182547618Y-100050057D01*
X182642857Y-98954819D02*
X183214285Y-98954819D01*
X182928571Y-99954819D02*
X182928571Y-98954819D01*
X183547619Y-99954819D02*
X183547619Y-98954819D01*
X183547619Y-98954819D02*
X183928571Y-98954819D01*
X183928571Y-98954819D02*
X184023809Y-99002438D01*
X184023809Y-99002438D02*
X184071428Y-99050057D01*
X184071428Y-99050057D02*
X184119047Y-99145295D01*
X184119047Y-99145295D02*
X184119047Y-99288152D01*
X184119047Y-99288152D02*
X184071428Y-99383390D01*
X184071428Y-99383390D02*
X184023809Y-99431009D01*
X184023809Y-99431009D02*
X183928571Y-99478628D01*
X183928571Y-99478628D02*
X183547619Y-99478628D01*
X185071428Y-99954819D02*
X184500000Y-99954819D01*
X184785714Y-99954819D02*
X184785714Y-98954819D01*
X184785714Y-98954819D02*
X184690476Y-99097676D01*
X184690476Y-99097676D02*
X184595238Y-99192914D01*
X184595238Y-99192914D02*
X184500000Y-99240533D01*
X149476190Y-94954819D02*
X149476190Y-93954819D01*
X149476190Y-93954819D02*
X149857142Y-93954819D01*
X149857142Y-93954819D02*
X149952380Y-94002438D01*
X149952380Y-94002438D02*
X149999999Y-94050057D01*
X149999999Y-94050057D02*
X150047618Y-94145295D01*
X150047618Y-94145295D02*
X150047618Y-94288152D01*
X150047618Y-94288152D02*
X149999999Y-94383390D01*
X149999999Y-94383390D02*
X149952380Y-94431009D01*
X149952380Y-94431009D02*
X149857142Y-94478628D01*
X149857142Y-94478628D02*
X149476190Y-94478628D01*
X150619047Y-94954819D02*
X150523809Y-94907200D01*
X150523809Y-94907200D02*
X150476190Y-94859580D01*
X150476190Y-94859580D02*
X150428571Y-94764342D01*
X150428571Y-94764342D02*
X150428571Y-94478628D01*
X150428571Y-94478628D02*
X150476190Y-94383390D01*
X150476190Y-94383390D02*
X150523809Y-94335771D01*
X150523809Y-94335771D02*
X150619047Y-94288152D01*
X150619047Y-94288152D02*
X150761904Y-94288152D01*
X150761904Y-94288152D02*
X150857142Y-94335771D01*
X150857142Y-94335771D02*
X150904761Y-94383390D01*
X150904761Y-94383390D02*
X150952380Y-94478628D01*
X150952380Y-94478628D02*
X150952380Y-94764342D01*
X150952380Y-94764342D02*
X150904761Y-94859580D01*
X150904761Y-94859580D02*
X150857142Y-94907200D01*
X150857142Y-94907200D02*
X150761904Y-94954819D01*
X150761904Y-94954819D02*
X150619047Y-94954819D01*
X151285714Y-94288152D02*
X151476190Y-94954819D01*
X151476190Y-94954819D02*
X151666666Y-94478628D01*
X151666666Y-94478628D02*
X151857142Y-94954819D01*
X151857142Y-94954819D02*
X152047618Y-94288152D01*
X152809523Y-94907200D02*
X152714285Y-94954819D01*
X152714285Y-94954819D02*
X152523809Y-94954819D01*
X152523809Y-94954819D02*
X152428571Y-94907200D01*
X152428571Y-94907200D02*
X152380952Y-94811961D01*
X152380952Y-94811961D02*
X152380952Y-94431009D01*
X152380952Y-94431009D02*
X152428571Y-94335771D01*
X152428571Y-94335771D02*
X152523809Y-94288152D01*
X152523809Y-94288152D02*
X152714285Y-94288152D01*
X152714285Y-94288152D02*
X152809523Y-94335771D01*
X152809523Y-94335771D02*
X152857142Y-94431009D01*
X152857142Y-94431009D02*
X152857142Y-94526247D01*
X152857142Y-94526247D02*
X152380952Y-94621485D01*
X153285714Y-94954819D02*
X153285714Y-94288152D01*
X153285714Y-94478628D02*
X153333333Y-94383390D01*
X153333333Y-94383390D02*
X153380952Y-94335771D01*
X153380952Y-94335771D02*
X153476190Y-94288152D01*
X153476190Y-94288152D02*
X153571428Y-94288152D01*
X153666667Y-95050057D02*
X154428571Y-95050057D01*
X154666667Y-94954819D02*
X154666667Y-93954819D01*
X155142857Y-94288152D02*
X155142857Y-94954819D01*
X155142857Y-94383390D02*
X155190476Y-94335771D01*
X155190476Y-94335771D02*
X155285714Y-94288152D01*
X155285714Y-94288152D02*
X155428571Y-94288152D01*
X155428571Y-94288152D02*
X155523809Y-94335771D01*
X155523809Y-94335771D02*
X155571428Y-94431009D01*
X155571428Y-94431009D02*
X155571428Y-94954819D01*
X156571428Y-94954819D02*
X156000000Y-94954819D01*
X156285714Y-94954819D02*
X156285714Y-93954819D01*
X156285714Y-93954819D02*
X156190476Y-94097676D01*
X156190476Y-94097676D02*
X156095238Y-94192914D01*
X156095238Y-94192914D02*
X156000000Y-94240533D01*
X156238095Y-122954819D02*
X156571428Y-123954819D01*
X156571428Y-123954819D02*
X156904761Y-122954819D01*
X157380952Y-123954819D02*
X157285714Y-123907200D01*
X157285714Y-123907200D02*
X157238095Y-123859580D01*
X157238095Y-123859580D02*
X157190476Y-123764342D01*
X157190476Y-123764342D02*
X157190476Y-123478628D01*
X157190476Y-123478628D02*
X157238095Y-123383390D01*
X157238095Y-123383390D02*
X157285714Y-123335771D01*
X157285714Y-123335771D02*
X157380952Y-123288152D01*
X157380952Y-123288152D02*
X157523809Y-123288152D01*
X157523809Y-123288152D02*
X157619047Y-123335771D01*
X157619047Y-123335771D02*
X157666666Y-123383390D01*
X157666666Y-123383390D02*
X157714285Y-123478628D01*
X157714285Y-123478628D02*
X157714285Y-123764342D01*
X157714285Y-123764342D02*
X157666666Y-123859580D01*
X157666666Y-123859580D02*
X157619047Y-123907200D01*
X157619047Y-123907200D02*
X157523809Y-123954819D01*
X157523809Y-123954819D02*
X157380952Y-123954819D01*
X158571428Y-123288152D02*
X158571428Y-123954819D01*
X158142857Y-123288152D02*
X158142857Y-123811961D01*
X158142857Y-123811961D02*
X158190476Y-123907200D01*
X158190476Y-123907200D02*
X158285714Y-123954819D01*
X158285714Y-123954819D02*
X158428571Y-123954819D01*
X158428571Y-123954819D02*
X158523809Y-123907200D01*
X158523809Y-123907200D02*
X158571428Y-123859580D01*
X158904762Y-123288152D02*
X159285714Y-123288152D01*
X159047619Y-122954819D02*
X159047619Y-123811961D01*
X159047619Y-123811961D02*
X159095238Y-123907200D01*
X159095238Y-123907200D02*
X159190476Y-123954819D01*
X159190476Y-123954819D02*
X159285714Y-123954819D01*
X159380953Y-124050057D02*
X160142857Y-124050057D01*
X160238096Y-122954819D02*
X160809524Y-122954819D01*
X160523810Y-123954819D02*
X160523810Y-122954819D01*
X161142858Y-123954819D02*
X161142858Y-122954819D01*
X161142858Y-122954819D02*
X161523810Y-122954819D01*
X161523810Y-122954819D02*
X161619048Y-123002438D01*
X161619048Y-123002438D02*
X161666667Y-123050057D01*
X161666667Y-123050057D02*
X161714286Y-123145295D01*
X161714286Y-123145295D02*
X161714286Y-123288152D01*
X161714286Y-123288152D02*
X161666667Y-123383390D01*
X161666667Y-123383390D02*
X161619048Y-123431009D01*
X161619048Y-123431009D02*
X161523810Y-123478628D01*
X161523810Y-123478628D02*
X161142858Y-123478628D01*
X162666667Y-123954819D02*
X162095239Y-123954819D01*
X162380953Y-123954819D02*
X162380953Y-122954819D01*
X162380953Y-122954819D02*
X162285715Y-123097676D01*
X162285715Y-123097676D02*
X162190477Y-123192914D01*
X162190477Y-123192914D02*
X162095239Y-123240533D01*
X174928571Y-90454819D02*
X175261904Y-91454819D01*
X175261904Y-91454819D02*
X175595237Y-90454819D01*
X175928571Y-91454819D02*
X175928571Y-90454819D01*
X175928571Y-90454819D02*
X176166666Y-90454819D01*
X176166666Y-90454819D02*
X176309523Y-90502438D01*
X176309523Y-90502438D02*
X176404761Y-90597676D01*
X176404761Y-90597676D02*
X176452380Y-90692914D01*
X176452380Y-90692914D02*
X176499999Y-90883390D01*
X176499999Y-90883390D02*
X176499999Y-91026247D01*
X176499999Y-91026247D02*
X176452380Y-91216723D01*
X176452380Y-91216723D02*
X176404761Y-91311961D01*
X176404761Y-91311961D02*
X176309523Y-91407200D01*
X176309523Y-91407200D02*
X176166666Y-91454819D01*
X176166666Y-91454819D02*
X175928571Y-91454819D01*
X176928571Y-91454819D02*
X176928571Y-90454819D01*
X176928571Y-90454819D02*
X177166666Y-90454819D01*
X177166666Y-90454819D02*
X177309523Y-90502438D01*
X177309523Y-90502438D02*
X177404761Y-90597676D01*
X177404761Y-90597676D02*
X177452380Y-90692914D01*
X177452380Y-90692914D02*
X177499999Y-90883390D01*
X177499999Y-90883390D02*
X177499999Y-91026247D01*
X177499999Y-91026247D02*
X177452380Y-91216723D01*
X177452380Y-91216723D02*
X177404761Y-91311961D01*
X177404761Y-91311961D02*
X177309523Y-91407200D01*
X177309523Y-91407200D02*
X177166666Y-91454819D01*
X177166666Y-91454819D02*
X176928571Y-91454819D01*
X177690476Y-91550057D02*
X178452380Y-91550057D01*
X178547619Y-90454819D02*
X179119047Y-90454819D01*
X178833333Y-91454819D02*
X178833333Y-90454819D01*
X179452381Y-91454819D02*
X179452381Y-90454819D01*
X179452381Y-90454819D02*
X179833333Y-90454819D01*
X179833333Y-90454819D02*
X179928571Y-90502438D01*
X179928571Y-90502438D02*
X179976190Y-90550057D01*
X179976190Y-90550057D02*
X180023809Y-90645295D01*
X180023809Y-90645295D02*
X180023809Y-90788152D01*
X180023809Y-90788152D02*
X179976190Y-90883390D01*
X179976190Y-90883390D02*
X179928571Y-90931009D01*
X179928571Y-90931009D02*
X179833333Y-90978628D01*
X179833333Y-90978628D02*
X179452381Y-90978628D01*
X180976190Y-91454819D02*
X180404762Y-91454819D01*
X180690476Y-91454819D02*
X180690476Y-90454819D01*
X180690476Y-90454819D02*
X180595238Y-90597676D01*
X180595238Y-90597676D02*
X180500000Y-90692914D01*
X180500000Y-90692914D02*
X180404762Y-90740533D01*
X147504819Y-104833333D02*
X148219104Y-104833333D01*
X148219104Y-104833333D02*
X148361961Y-104880952D01*
X148361961Y-104880952D02*
X148457200Y-104976190D01*
X148457200Y-104976190D02*
X148504819Y-105119047D01*
X148504819Y-105119047D02*
X148504819Y-105214285D01*
X148504819Y-103833333D02*
X148504819Y-104404761D01*
X148504819Y-104119047D02*
X147504819Y-104119047D01*
X147504819Y-104119047D02*
X147647676Y-104214285D01*
X147647676Y-104214285D02*
X147742914Y-104309523D01*
X147742914Y-104309523D02*
X147790533Y-104404761D01*
X172824819Y-106452381D02*
X172348628Y-106785714D01*
X172824819Y-107023809D02*
X171824819Y-107023809D01*
X171824819Y-107023809D02*
X171824819Y-106642857D01*
X171824819Y-106642857D02*
X171872438Y-106547619D01*
X171872438Y-106547619D02*
X171920057Y-106500000D01*
X171920057Y-106500000D02*
X172015295Y-106452381D01*
X172015295Y-106452381D02*
X172158152Y-106452381D01*
X172158152Y-106452381D02*
X172253390Y-106500000D01*
X172253390Y-106500000D02*
X172301009Y-106547619D01*
X172301009Y-106547619D02*
X172348628Y-106642857D01*
X172348628Y-106642857D02*
X172348628Y-107023809D01*
X172158152Y-106166666D02*
X172158152Y-105785714D01*
X172824819Y-106023809D02*
X171967676Y-106023809D01*
X171967676Y-106023809D02*
X171872438Y-105976190D01*
X171872438Y-105976190D02*
X171824819Y-105880952D01*
X171824819Y-105880952D02*
X171824819Y-105785714D01*
X172824819Y-104928571D02*
X172824819Y-105499999D01*
X172824819Y-105214285D02*
X171824819Y-105214285D01*
X171824819Y-105214285D02*
X171967676Y-105309523D01*
X171967676Y-105309523D02*
X172062914Y-105404761D01*
X172062914Y-105404761D02*
X172110533Y-105499999D01*
X172874819Y-84771428D02*
X172398628Y-85104761D01*
X172874819Y-85342856D02*
X171874819Y-85342856D01*
X171874819Y-85342856D02*
X171874819Y-84961904D01*
X171874819Y-84961904D02*
X171922438Y-84866666D01*
X171922438Y-84866666D02*
X171970057Y-84819047D01*
X171970057Y-84819047D02*
X172065295Y-84771428D01*
X172065295Y-84771428D02*
X172208152Y-84771428D01*
X172208152Y-84771428D02*
X172303390Y-84819047D01*
X172303390Y-84819047D02*
X172351009Y-84866666D01*
X172351009Y-84866666D02*
X172398628Y-84961904D01*
X172398628Y-84961904D02*
X172398628Y-85342856D01*
X172827200Y-84390475D02*
X172874819Y-84295237D01*
X172874819Y-84295237D02*
X172874819Y-84104761D01*
X172874819Y-84104761D02*
X172827200Y-84009523D01*
X172827200Y-84009523D02*
X172731961Y-83961904D01*
X172731961Y-83961904D02*
X172684342Y-83961904D01*
X172684342Y-83961904D02*
X172589104Y-84009523D01*
X172589104Y-84009523D02*
X172541485Y-84104761D01*
X172541485Y-84104761D02*
X172541485Y-84247618D01*
X172541485Y-84247618D02*
X172493866Y-84342856D01*
X172493866Y-84342856D02*
X172398628Y-84390475D01*
X172398628Y-84390475D02*
X172351009Y-84390475D01*
X172351009Y-84390475D02*
X172255771Y-84342856D01*
X172255771Y-84342856D02*
X172208152Y-84247618D01*
X172208152Y-84247618D02*
X172208152Y-84104761D01*
X172208152Y-84104761D02*
X172255771Y-84009523D01*
X171970057Y-83580951D02*
X171922438Y-83533332D01*
X171922438Y-83533332D02*
X171874819Y-83438094D01*
X171874819Y-83438094D02*
X171874819Y-83199999D01*
X171874819Y-83199999D02*
X171922438Y-83104761D01*
X171922438Y-83104761D02*
X171970057Y-83057142D01*
X171970057Y-83057142D02*
X172065295Y-83009523D01*
X172065295Y-83009523D02*
X172160533Y-83009523D01*
X172160533Y-83009523D02*
X172303390Y-83057142D01*
X172303390Y-83057142D02*
X172874819Y-83628570D01*
X172874819Y-83628570D02*
X172874819Y-83009523D01*
X143595238Y-123657200D02*
X143738095Y-123704819D01*
X143738095Y-123704819D02*
X143976190Y-123704819D01*
X143976190Y-123704819D02*
X144071428Y-123657200D01*
X144071428Y-123657200D02*
X144119047Y-123609580D01*
X144119047Y-123609580D02*
X144166666Y-123514342D01*
X144166666Y-123514342D02*
X144166666Y-123419104D01*
X144166666Y-123419104D02*
X144119047Y-123323866D01*
X144119047Y-123323866D02*
X144071428Y-123276247D01*
X144071428Y-123276247D02*
X143976190Y-123228628D01*
X143976190Y-123228628D02*
X143785714Y-123181009D01*
X143785714Y-123181009D02*
X143690476Y-123133390D01*
X143690476Y-123133390D02*
X143642857Y-123085771D01*
X143642857Y-123085771D02*
X143595238Y-122990533D01*
X143595238Y-122990533D02*
X143595238Y-122895295D01*
X143595238Y-122895295D02*
X143642857Y-122800057D01*
X143642857Y-122800057D02*
X143690476Y-122752438D01*
X143690476Y-122752438D02*
X143785714Y-122704819D01*
X143785714Y-122704819D02*
X144023809Y-122704819D01*
X144023809Y-122704819D02*
X144166666Y-122752438D01*
X144595238Y-123704819D02*
X144595238Y-122704819D01*
X145595237Y-122752438D02*
X145499999Y-122704819D01*
X145499999Y-122704819D02*
X145357142Y-122704819D01*
X145357142Y-122704819D02*
X145214285Y-122752438D01*
X145214285Y-122752438D02*
X145119047Y-122847676D01*
X145119047Y-122847676D02*
X145071428Y-122942914D01*
X145071428Y-122942914D02*
X145023809Y-123133390D01*
X145023809Y-123133390D02*
X145023809Y-123276247D01*
X145023809Y-123276247D02*
X145071428Y-123466723D01*
X145071428Y-123466723D02*
X145119047Y-123561961D01*
X145119047Y-123561961D02*
X145214285Y-123657200D01*
X145214285Y-123657200D02*
X145357142Y-123704819D01*
X145357142Y-123704819D02*
X145452380Y-123704819D01*
X145452380Y-123704819D02*
X145595237Y-123657200D01*
X145595237Y-123657200D02*
X145642856Y-123609580D01*
X145642856Y-123609580D02*
X145642856Y-123276247D01*
X145642856Y-123276247D02*
X145452380Y-123276247D01*
X145833333Y-123800057D02*
X146595237Y-123800057D01*
X146833333Y-123704819D02*
X146833333Y-122704819D01*
X147309523Y-123704819D02*
X147309523Y-122704819D01*
X147309523Y-122704819D02*
X147880951Y-123704819D01*
X147880951Y-123704819D02*
X147880951Y-122704819D01*
X148119047Y-123800057D02*
X148880951Y-123800057D01*
X148976190Y-122704819D02*
X149547618Y-122704819D01*
X149261904Y-123704819D02*
X149261904Y-122704819D01*
X149880952Y-123704819D02*
X149880952Y-122704819D01*
X149880952Y-122704819D02*
X150261904Y-122704819D01*
X150261904Y-122704819D02*
X150357142Y-122752438D01*
X150357142Y-122752438D02*
X150404761Y-122800057D01*
X150404761Y-122800057D02*
X150452380Y-122895295D01*
X150452380Y-122895295D02*
X150452380Y-123038152D01*
X150452380Y-123038152D02*
X150404761Y-123133390D01*
X150404761Y-123133390D02*
X150357142Y-123181009D01*
X150357142Y-123181009D02*
X150261904Y-123228628D01*
X150261904Y-123228628D02*
X149880952Y-123228628D01*
X151404761Y-123704819D02*
X150833333Y-123704819D01*
X151119047Y-123704819D02*
X151119047Y-122704819D01*
X151119047Y-122704819D02*
X151023809Y-122847676D01*
X151023809Y-122847676D02*
X150928571Y-122942914D01*
X150928571Y-122942914D02*
X150833333Y-122990533D01*
X164859580Y-97166666D02*
X164907200Y-97214285D01*
X164907200Y-97214285D02*
X164954819Y-97357142D01*
X164954819Y-97357142D02*
X164954819Y-97452380D01*
X164954819Y-97452380D02*
X164907200Y-97595237D01*
X164907200Y-97595237D02*
X164811961Y-97690475D01*
X164811961Y-97690475D02*
X164716723Y-97738094D01*
X164716723Y-97738094D02*
X164526247Y-97785713D01*
X164526247Y-97785713D02*
X164383390Y-97785713D01*
X164383390Y-97785713D02*
X164192914Y-97738094D01*
X164192914Y-97738094D02*
X164097676Y-97690475D01*
X164097676Y-97690475D02*
X164002438Y-97595237D01*
X164002438Y-97595237D02*
X163954819Y-97452380D01*
X163954819Y-97452380D02*
X163954819Y-97357142D01*
X163954819Y-97357142D02*
X164002438Y-97214285D01*
X164002438Y-97214285D02*
X164050057Y-97166666D01*
X164954819Y-96214285D02*
X164954819Y-96785713D01*
X164954819Y-96499999D02*
X163954819Y-96499999D01*
X163954819Y-96499999D02*
X164097676Y-96595237D01*
X164097676Y-96595237D02*
X164192914Y-96690475D01*
X164192914Y-96690475D02*
X164240533Y-96785713D01*
X166999999Y-122752438D02*
X166904761Y-122704819D01*
X166904761Y-122704819D02*
X166761904Y-122704819D01*
X166761904Y-122704819D02*
X166619047Y-122752438D01*
X166619047Y-122752438D02*
X166523809Y-122847676D01*
X166523809Y-122847676D02*
X166476190Y-122942914D01*
X166476190Y-122942914D02*
X166428571Y-123133390D01*
X166428571Y-123133390D02*
X166428571Y-123276247D01*
X166428571Y-123276247D02*
X166476190Y-123466723D01*
X166476190Y-123466723D02*
X166523809Y-123561961D01*
X166523809Y-123561961D02*
X166619047Y-123657200D01*
X166619047Y-123657200D02*
X166761904Y-123704819D01*
X166761904Y-123704819D02*
X166857142Y-123704819D01*
X166857142Y-123704819D02*
X166999999Y-123657200D01*
X166999999Y-123657200D02*
X167047618Y-123609580D01*
X167047618Y-123609580D02*
X167047618Y-123276247D01*
X167047618Y-123276247D02*
X166857142Y-123276247D01*
X167476190Y-123704819D02*
X167476190Y-122704819D01*
X167476190Y-122704819D02*
X168047618Y-123704819D01*
X168047618Y-123704819D02*
X168047618Y-122704819D01*
X168523809Y-123704819D02*
X168523809Y-122704819D01*
X168523809Y-122704819D02*
X168761904Y-122704819D01*
X168761904Y-122704819D02*
X168904761Y-122752438D01*
X168904761Y-122752438D02*
X168999999Y-122847676D01*
X168999999Y-122847676D02*
X169047618Y-122942914D01*
X169047618Y-122942914D02*
X169095237Y-123133390D01*
X169095237Y-123133390D02*
X169095237Y-123276247D01*
X169095237Y-123276247D02*
X169047618Y-123466723D01*
X169047618Y-123466723D02*
X168999999Y-123561961D01*
X168999999Y-123561961D02*
X168904761Y-123657200D01*
X168904761Y-123657200D02*
X168761904Y-123704819D01*
X168761904Y-123704819D02*
X168523809Y-123704819D01*
X169285714Y-123800057D02*
X170047618Y-123800057D01*
X170142857Y-122704819D02*
X170714285Y-122704819D01*
X170428571Y-123704819D02*
X170428571Y-122704819D01*
X171047619Y-123704819D02*
X171047619Y-122704819D01*
X171047619Y-122704819D02*
X171428571Y-122704819D01*
X171428571Y-122704819D02*
X171523809Y-122752438D01*
X171523809Y-122752438D02*
X171571428Y-122800057D01*
X171571428Y-122800057D02*
X171619047Y-122895295D01*
X171619047Y-122895295D02*
X171619047Y-123038152D01*
X171619047Y-123038152D02*
X171571428Y-123133390D01*
X171571428Y-123133390D02*
X171523809Y-123181009D01*
X171523809Y-123181009D02*
X171428571Y-123228628D01*
X171428571Y-123228628D02*
X171047619Y-123228628D01*
X172000000Y-122800057D02*
X172047619Y-122752438D01*
X172047619Y-122752438D02*
X172142857Y-122704819D01*
X172142857Y-122704819D02*
X172380952Y-122704819D01*
X172380952Y-122704819D02*
X172476190Y-122752438D01*
X172476190Y-122752438D02*
X172523809Y-122800057D01*
X172523809Y-122800057D02*
X172571428Y-122895295D01*
X172571428Y-122895295D02*
X172571428Y-122990533D01*
X172571428Y-122990533D02*
X172523809Y-123133390D01*
X172523809Y-123133390D02*
X171952381Y-123704819D01*
X171952381Y-123704819D02*
X172571428Y-123704819D01*
X159928571Y-114324819D02*
X159595238Y-113848628D01*
X159357143Y-114324819D02*
X159357143Y-113324819D01*
X159357143Y-113324819D02*
X159738095Y-113324819D01*
X159738095Y-113324819D02*
X159833333Y-113372438D01*
X159833333Y-113372438D02*
X159880952Y-113420057D01*
X159880952Y-113420057D02*
X159928571Y-113515295D01*
X159928571Y-113515295D02*
X159928571Y-113658152D01*
X159928571Y-113658152D02*
X159880952Y-113753390D01*
X159880952Y-113753390D02*
X159833333Y-113801009D01*
X159833333Y-113801009D02*
X159738095Y-113848628D01*
X159738095Y-113848628D02*
X159357143Y-113848628D01*
X160309524Y-114277200D02*
X160404762Y-114324819D01*
X160404762Y-114324819D02*
X160595238Y-114324819D01*
X160595238Y-114324819D02*
X160690476Y-114277200D01*
X160690476Y-114277200D02*
X160738095Y-114181961D01*
X160738095Y-114181961D02*
X160738095Y-114134342D01*
X160738095Y-114134342D02*
X160690476Y-114039104D01*
X160690476Y-114039104D02*
X160595238Y-113991485D01*
X160595238Y-113991485D02*
X160452381Y-113991485D01*
X160452381Y-113991485D02*
X160357143Y-113943866D01*
X160357143Y-113943866D02*
X160309524Y-113848628D01*
X160309524Y-113848628D02*
X160309524Y-113801009D01*
X160309524Y-113801009D02*
X160357143Y-113705771D01*
X160357143Y-113705771D02*
X160452381Y-113658152D01*
X160452381Y-113658152D02*
X160595238Y-113658152D01*
X160595238Y-113658152D02*
X160690476Y-113705771D01*
X161690476Y-114324819D02*
X161119048Y-114324819D01*
X161404762Y-114324819D02*
X161404762Y-113324819D01*
X161404762Y-113324819D02*
X161309524Y-113467676D01*
X161309524Y-113467676D02*
X161214286Y-113562914D01*
X161214286Y-113562914D02*
X161119048Y-113610533D01*
X157454819Y-103261904D02*
X158264342Y-103261904D01*
X158264342Y-103261904D02*
X158359580Y-103214285D01*
X158359580Y-103214285D02*
X158407200Y-103166666D01*
X158407200Y-103166666D02*
X158454819Y-103071428D01*
X158454819Y-103071428D02*
X158454819Y-102880952D01*
X158454819Y-102880952D02*
X158407200Y-102785714D01*
X158407200Y-102785714D02*
X158359580Y-102738095D01*
X158359580Y-102738095D02*
X158264342Y-102690476D01*
X158264342Y-102690476D02*
X157454819Y-102690476D01*
X158454819Y-101690476D02*
X158454819Y-102261904D01*
X158454819Y-101976190D02*
X157454819Y-101976190D01*
X157454819Y-101976190D02*
X157597676Y-102071428D01*
X157597676Y-102071428D02*
X157692914Y-102166666D01*
X157692914Y-102166666D02*
X157740533Y-102261904D01*
D12*
%TO.C,G\u002A\u002A\u002A*%
G36*
X134621162Y-113826944D02*
G01*
X134645771Y-113827067D01*
X134665347Y-113827290D01*
X134680372Y-113827632D01*
X134691331Y-113828108D01*
X134698706Y-113828735D01*
X134702981Y-113829530D01*
X134704639Y-113830508D01*
X134704701Y-113830779D01*
X134704129Y-113834529D01*
X134702502Y-113843469D01*
X134699954Y-113856905D01*
X134696619Y-113874144D01*
X134692630Y-113894496D01*
X134688122Y-113917266D01*
X134683699Y-113939416D01*
X134678851Y-113963627D01*
X134674397Y-113985910D01*
X134670472Y-114005598D01*
X134667207Y-114022023D01*
X134664735Y-114034519D01*
X134663189Y-114042418D01*
X134662698Y-114045053D01*
X134659806Y-114045248D01*
X134651564Y-114045427D01*
X134638624Y-114045587D01*
X134621635Y-114045721D01*
X134601248Y-114045825D01*
X134578114Y-114045895D01*
X134552883Y-114045924D01*
X134548364Y-114045925D01*
X134434029Y-114045925D01*
X134435652Y-114039174D01*
X134436594Y-114034715D01*
X134438537Y-114025094D01*
X134441337Y-114011036D01*
X134444851Y-113993270D01*
X134448934Y-113972523D01*
X134453444Y-113949522D01*
X134457323Y-113929665D01*
X134477372Y-113826907D01*
X134591037Y-113826907D01*
X134621162Y-113826944D01*
G37*
G36*
X134643792Y-114145682D02*
G01*
X134643046Y-114149319D01*
X134641194Y-114158529D01*
X134638297Y-114173002D01*
X134634418Y-114192426D01*
X134629618Y-114216489D01*
X134623960Y-114244880D01*
X134617505Y-114277288D01*
X134610316Y-114313401D01*
X134602454Y-114352907D01*
X134593982Y-114395495D01*
X134584962Y-114440854D01*
X134575455Y-114488671D01*
X134565524Y-114538636D01*
X134555231Y-114590436D01*
X134545241Y-114640721D01*
X134448245Y-115129010D01*
X134334954Y-115129010D01*
X134305303Y-115128980D01*
X134281132Y-115128877D01*
X134261921Y-115128681D01*
X134247151Y-115128375D01*
X134236302Y-115127938D01*
X134228854Y-115127351D01*
X134224287Y-115126596D01*
X134222081Y-115125652D01*
X134221663Y-115124840D01*
X134222236Y-115121604D01*
X134223906Y-115112857D01*
X134226597Y-115098974D01*
X134230237Y-115080330D01*
X134234751Y-115057299D01*
X134240064Y-115030256D01*
X134246102Y-114999577D01*
X134252792Y-114965634D01*
X134260058Y-114928803D01*
X134267827Y-114889459D01*
X134276024Y-114847976D01*
X134284575Y-114804730D01*
X134293407Y-114760093D01*
X134302443Y-114714442D01*
X134311612Y-114668151D01*
X134320837Y-114621594D01*
X134330045Y-114575146D01*
X134339162Y-114529182D01*
X134348114Y-114484076D01*
X134356825Y-114440203D01*
X134365223Y-114397938D01*
X134373232Y-114357655D01*
X134380779Y-114319729D01*
X134387789Y-114284535D01*
X134394188Y-114252447D01*
X134399901Y-114223840D01*
X134404855Y-114199088D01*
X134408976Y-114178566D01*
X134412188Y-114162650D01*
X134414419Y-114151712D01*
X134415592Y-114146129D01*
X134415695Y-114145682D01*
X134417329Y-114138932D01*
X134531338Y-114138932D01*
X134645347Y-114138932D01*
X134643792Y-114145682D01*
G37*
G36*
X138167866Y-115528777D02*
G01*
X138471307Y-115529541D01*
X138501661Y-115627049D01*
X138532014Y-115724557D01*
X138522925Y-115731307D01*
X138516560Y-115735693D01*
X138512357Y-115737968D01*
X138511927Y-115738058D01*
X138509244Y-115735829D01*
X138504430Y-115730113D01*
X138500823Y-115725307D01*
X138489839Y-115711128D01*
X138476513Y-115695515D01*
X138462352Y-115680112D01*
X138448859Y-115666565D01*
X138439011Y-115657715D01*
X138421663Y-115645152D01*
X138403126Y-115635535D01*
X138382433Y-115628598D01*
X138358619Y-115624073D01*
X138330718Y-115621692D01*
X138307086Y-115621153D01*
X138287062Y-115621457D01*
X138272194Y-115622651D01*
X138261675Y-115624973D01*
X138254695Y-115628664D01*
X138250447Y-115633960D01*
X138248774Y-115638355D01*
X138248439Y-115642500D01*
X138248119Y-115652210D01*
X138247818Y-115667049D01*
X138247538Y-115686583D01*
X138247283Y-115710375D01*
X138247057Y-115737989D01*
X138246863Y-115768992D01*
X138246705Y-115802946D01*
X138246586Y-115839416D01*
X138246510Y-115877967D01*
X138246480Y-115918164D01*
X138246480Y-115922572D01*
X138246486Y-115969733D01*
X138246508Y-116011274D01*
X138246554Y-116047574D01*
X138246630Y-116079014D01*
X138246743Y-116105974D01*
X138246901Y-116128835D01*
X138247109Y-116147975D01*
X138247376Y-116163777D01*
X138247708Y-116176619D01*
X138248112Y-116186881D01*
X138248595Y-116194945D01*
X138249164Y-116201189D01*
X138249826Y-116205995D01*
X138250588Y-116209742D01*
X138251457Y-116212811D01*
X138251811Y-116213861D01*
X138258303Y-116227895D01*
X138267355Y-116238778D01*
X138279937Y-116247262D01*
X138297021Y-116254097D01*
X138307985Y-116257243D01*
X138327486Y-116262322D01*
X138328401Y-116276212D01*
X138329315Y-116290101D01*
X138165474Y-116290101D01*
X138001632Y-116290101D01*
X138002546Y-116276250D01*
X138003461Y-116262399D01*
X138026111Y-116255881D01*
X138043801Y-116249897D01*
X138056753Y-116243140D01*
X138066225Y-116234723D01*
X138073479Y-116223756D01*
X138074459Y-116221825D01*
X138081467Y-116207595D01*
X138081467Y-115921906D01*
X138081467Y-115636217D01*
X138074641Y-115629383D01*
X138071248Y-115626471D01*
X138067138Y-115624464D01*
X138061119Y-115623146D01*
X138052001Y-115622301D01*
X138038591Y-115621710D01*
X138031138Y-115621479D01*
X137996184Y-115621760D01*
X137966320Y-115624816D01*
X137941299Y-115630683D01*
X137926739Y-115636384D01*
X137911665Y-115645420D01*
X137894567Y-115658978D01*
X137876264Y-115676298D01*
X137857577Y-115696618D01*
X137843852Y-115713306D01*
X137835670Y-115723514D01*
X137828787Y-115731672D01*
X137824060Y-115736792D01*
X137822448Y-115738043D01*
X137818998Y-115736327D01*
X137813085Y-115732122D01*
X137811876Y-115731170D01*
X137803306Y-115724312D01*
X137830764Y-115635928D01*
X137837731Y-115613507D01*
X137844251Y-115592538D01*
X137850076Y-115573819D01*
X137854958Y-115558144D01*
X137858649Y-115546311D01*
X137860901Y-115539114D01*
X137861323Y-115537778D01*
X137864425Y-115528013D01*
X138167866Y-115528777D01*
G37*
G36*
X136327829Y-115307049D02*
G01*
X136327496Y-115315215D01*
X136325434Y-115319601D01*
X136320053Y-115322304D01*
X136315078Y-115323840D01*
X136291531Y-115332817D01*
X136273177Y-115344468D01*
X136259684Y-115359127D01*
X136250718Y-115377130D01*
X136246866Y-115392422D01*
X136246325Y-115397465D01*
X136245846Y-115406056D01*
X136245429Y-115418396D01*
X136245071Y-115434687D01*
X136244772Y-115455130D01*
X136244530Y-115479927D01*
X136244344Y-115509278D01*
X136244213Y-115543385D01*
X136244136Y-115582449D01*
X136244112Y-115626671D01*
X136244138Y-115676253D01*
X136244215Y-115731396D01*
X136244341Y-115792302D01*
X136244369Y-115804063D01*
X136244510Y-115860669D01*
X136244647Y-115911587D01*
X136244785Y-115957130D01*
X136244929Y-115997611D01*
X136245083Y-116033342D01*
X136245252Y-116064637D01*
X136245442Y-116091807D01*
X136245657Y-116115166D01*
X136245902Y-116135026D01*
X136246182Y-116151701D01*
X136246502Y-116165502D01*
X136246867Y-116176743D01*
X136247281Y-116185736D01*
X136247750Y-116192794D01*
X136248278Y-116198229D01*
X136248870Y-116202356D01*
X136249532Y-116205485D01*
X136250268Y-116207930D01*
X136250700Y-116209084D01*
X136259673Y-116225635D01*
X136272399Y-116238910D01*
X136289571Y-116249472D01*
X136309828Y-116257259D01*
X136326329Y-116262392D01*
X136327243Y-116276247D01*
X136328158Y-116290101D01*
X136155480Y-116290101D01*
X135982802Y-116290101D01*
X135982830Y-116275850D01*
X135982858Y-116261599D01*
X136005552Y-116254707D01*
X136019466Y-116249858D01*
X136029759Y-116244465D01*
X136038762Y-116237226D01*
X136041328Y-116234733D01*
X136044462Y-116231728D01*
X136047292Y-116229091D01*
X136049832Y-116226517D01*
X136052099Y-116223701D01*
X136054108Y-116220338D01*
X136055875Y-116216122D01*
X136057414Y-116210748D01*
X136058742Y-116203911D01*
X136059874Y-116195306D01*
X136060826Y-116184627D01*
X136061612Y-116171570D01*
X136062249Y-116155828D01*
X136062752Y-116137096D01*
X136063137Y-116115070D01*
X136063418Y-116089444D01*
X136063613Y-116059913D01*
X136063735Y-116026172D01*
X136063800Y-115987914D01*
X136063825Y-115944836D01*
X136063824Y-115896631D01*
X136063814Y-115842995D01*
X136063808Y-115792062D01*
X136063812Y-115733635D01*
X136063814Y-115680902D01*
X136063803Y-115633557D01*
X136063764Y-115591294D01*
X136063685Y-115553806D01*
X136063553Y-115520788D01*
X136063355Y-115491934D01*
X136063078Y-115466936D01*
X136062710Y-115445490D01*
X136062236Y-115427288D01*
X136061645Y-115412024D01*
X136060923Y-115399393D01*
X136060057Y-115389089D01*
X136059035Y-115380804D01*
X136057843Y-115374232D01*
X136056469Y-115369069D01*
X136054899Y-115365007D01*
X136053121Y-115361739D01*
X136051122Y-115358961D01*
X136048888Y-115356366D01*
X136046407Y-115353647D01*
X136045212Y-115352308D01*
X136035370Y-115343064D01*
X136022977Y-115335387D01*
X136006603Y-115328460D01*
X135998553Y-115325696D01*
X135982802Y-115320543D01*
X135982802Y-115307283D01*
X135982802Y-115294023D01*
X136155315Y-115294023D01*
X136327829Y-115294023D01*
X136327829Y-115307049D01*
G37*
G36*
X136498055Y-115528755D02*
G01*
X136611277Y-115529541D01*
X136801474Y-115745558D01*
X136828619Y-115776368D01*
X136854663Y-115805886D01*
X136879330Y-115833803D01*
X136902344Y-115859809D01*
X136923430Y-115883592D01*
X136942311Y-115904843D01*
X136958711Y-115923252D01*
X136972357Y-115938509D01*
X136982970Y-115950303D01*
X136990276Y-115958324D01*
X136993999Y-115962261D01*
X136994413Y-115962621D01*
X136994963Y-115959906D01*
X136995429Y-115951550D01*
X136995808Y-115937910D01*
X136996096Y-115919346D01*
X136996288Y-115896216D01*
X136996383Y-115868878D01*
X136996375Y-115837691D01*
X136996260Y-115803013D01*
X136996195Y-115790108D01*
X136995977Y-115753104D01*
X136995755Y-115721613D01*
X136995513Y-115695143D01*
X136995234Y-115673206D01*
X136994901Y-115655313D01*
X136994499Y-115640974D01*
X136994011Y-115629701D01*
X136993421Y-115621004D01*
X136992712Y-115614393D01*
X136991868Y-115609381D01*
X136990873Y-115605477D01*
X136989936Y-115602768D01*
X136980442Y-115586098D01*
X136965970Y-115572640D01*
X136947078Y-115562563D01*
X136937482Y-115558509D01*
X136932110Y-115555202D01*
X136929622Y-115551143D01*
X136928681Y-115544832D01*
X136928462Y-115541713D01*
X136927547Y-115528041D01*
X137046221Y-115528041D01*
X137164895Y-115528041D01*
X137164895Y-115541499D01*
X137164673Y-115548868D01*
X137163195Y-115553644D01*
X137159240Y-115557399D01*
X137151588Y-115561705D01*
X137147643Y-115563717D01*
X137131122Y-115573707D01*
X137118964Y-115585229D01*
X137109534Y-115599938D01*
X137107301Y-115604547D01*
X137100390Y-115619549D01*
X137099578Y-115959325D01*
X137098765Y-116299102D01*
X137084576Y-116299057D01*
X137070387Y-116299012D01*
X136816867Y-116010607D01*
X136563347Y-115722202D01*
X136562504Y-115768383D01*
X136562367Y-115779731D01*
X136562264Y-115796398D01*
X136562195Y-115817705D01*
X136562161Y-115842971D01*
X136562161Y-115871515D01*
X136562195Y-115902658D01*
X136562263Y-115935718D01*
X136562366Y-115970015D01*
X136562503Y-116004868D01*
X136562504Y-116005079D01*
X136563347Y-116195594D01*
X136570477Y-116211367D01*
X136576600Y-116222254D01*
X136584253Y-116232407D01*
X136588317Y-116236545D01*
X136596694Y-116242709D01*
X136607476Y-116249073D01*
X136618809Y-116254710D01*
X136628840Y-116258692D01*
X136635439Y-116260099D01*
X136638232Y-116261795D01*
X136639590Y-116267589D01*
X136639854Y-116275100D01*
X136639854Y-116290101D01*
X136512179Y-116290101D01*
X136384505Y-116290101D01*
X136385419Y-116276149D01*
X136386284Y-116267592D01*
X136388512Y-116262924D01*
X136393754Y-116260087D01*
X136399835Y-116258166D01*
X136420584Y-116249886D01*
X136436380Y-116238692D01*
X136447762Y-116224091D01*
X136454595Y-116207892D01*
X136455258Y-116204357D01*
X136455845Y-116198168D01*
X136456359Y-116189028D01*
X136456804Y-116176642D01*
X136457185Y-116160713D01*
X136457504Y-116140946D01*
X136457765Y-116117045D01*
X136457973Y-116088713D01*
X136458130Y-116055655D01*
X136458241Y-116017575D01*
X136458309Y-115974176D01*
X136458338Y-115925164D01*
X136458339Y-115909071D01*
X136458339Y-115622549D01*
X136449761Y-115605079D01*
X136440575Y-115590410D01*
X136428245Y-115578294D01*
X136411644Y-115567753D01*
X136400585Y-115562407D01*
X136391721Y-115558246D01*
X136387023Y-115554771D01*
X136385168Y-115550243D01*
X136384834Y-115542919D01*
X136384833Y-115541671D01*
X136384833Y-115527969D01*
X136498055Y-115528755D01*
G37*
G36*
X143357449Y-115534792D02*
G01*
X143359047Y-115539274D01*
X143362164Y-115548728D01*
X143366557Y-115562391D01*
X143371983Y-115579500D01*
X143378199Y-115599290D01*
X143384961Y-115620999D01*
X143387748Y-115629995D01*
X143394580Y-115652056D01*
X143400874Y-115672330D01*
X143406403Y-115690089D01*
X143410940Y-115704606D01*
X143414258Y-115715154D01*
X143416129Y-115721006D01*
X143416432Y-115721894D01*
X143414944Y-115725426D01*
X143409637Y-115730212D01*
X143406863Y-115732072D01*
X143395972Y-115738803D01*
X143391081Y-115731820D01*
X143382539Y-115720503D01*
X143371453Y-115707057D01*
X143359032Y-115692829D01*
X143346487Y-115679169D01*
X143335029Y-115667424D01*
X143325869Y-115658943D01*
X143325026Y-115658245D01*
X143310538Y-115647211D01*
X143296758Y-115638682D01*
X143282544Y-115632318D01*
X143266757Y-115627780D01*
X143248254Y-115624729D01*
X143225895Y-115622825D01*
X143202710Y-115621846D01*
X143184075Y-115621315D01*
X143170459Y-115621064D01*
X143160887Y-115621186D01*
X143154379Y-115621774D01*
X143149959Y-115622922D01*
X143146649Y-115624722D01*
X143143471Y-115627268D01*
X143143174Y-115627523D01*
X143135341Y-115638161D01*
X143132214Y-115648138D01*
X143131753Y-115653555D01*
X143131338Y-115664428D01*
X143130969Y-115680214D01*
X143130646Y-115700370D01*
X143130367Y-115724352D01*
X143130134Y-115751616D01*
X143129946Y-115781619D01*
X143129803Y-115813818D01*
X143129705Y-115847669D01*
X143129652Y-115882628D01*
X143129642Y-115918151D01*
X143129678Y-115953696D01*
X143129757Y-115988718D01*
X143129880Y-116022674D01*
X143130047Y-116055021D01*
X143130258Y-116085214D01*
X143130512Y-116112711D01*
X143130810Y-116136968D01*
X143131151Y-116157441D01*
X143131535Y-116173587D01*
X143131962Y-116184861D01*
X143132368Y-116190288D01*
X143136293Y-116210659D01*
X143142636Y-116226294D01*
X143152240Y-116238164D01*
X143165949Y-116247242D01*
X143184604Y-116254499D01*
X143189221Y-116255881D01*
X143211871Y-116262399D01*
X143212785Y-116276250D01*
X143213700Y-116290101D01*
X143049858Y-116290101D01*
X142886017Y-116290101D01*
X142886931Y-116276177D01*
X142887845Y-116262253D01*
X142904347Y-116258086D01*
X142925989Y-116251066D01*
X142942441Y-116242019D01*
X142954314Y-116230451D01*
X142962218Y-116215866D01*
X142964303Y-116209448D01*
X142964858Y-116204386D01*
X142965362Y-116193483D01*
X142965812Y-116176899D01*
X142966207Y-116154793D01*
X142966546Y-116127325D01*
X142966827Y-116094655D01*
X142967048Y-116056941D01*
X142967207Y-116014343D01*
X142967304Y-115967022D01*
X142967335Y-115918989D01*
X142967352Y-115639385D01*
X142960100Y-115630967D01*
X142952847Y-115622549D01*
X142902345Y-115622632D01*
X142878198Y-115622977D01*
X142858774Y-115624064D01*
X142842819Y-115626108D01*
X142829079Y-115629325D01*
X142816299Y-115633929D01*
X142804777Y-115639337D01*
X142793838Y-115646456D01*
X142780373Y-115657679D01*
X142765253Y-115672162D01*
X142749352Y-115689065D01*
X142733542Y-115707544D01*
X142731545Y-115710010D01*
X142721730Y-115722099D01*
X142714699Y-115730002D01*
X142709464Y-115734200D01*
X142705039Y-115735174D01*
X142700436Y-115733405D01*
X142694669Y-115729373D01*
X142693541Y-115728527D01*
X142692171Y-115727118D01*
X142691412Y-115724928D01*
X142691412Y-115721350D01*
X142692318Y-115715776D01*
X142694277Y-115707598D01*
X142697438Y-115696209D01*
X142701949Y-115681002D01*
X142707955Y-115661370D01*
X142715606Y-115636704D01*
X142716744Y-115633050D01*
X142723818Y-115610417D01*
X142730439Y-115589397D01*
X142736368Y-115570737D01*
X142741366Y-115555186D01*
X142745192Y-115543490D01*
X142747608Y-115536397D01*
X142748221Y-115534792D01*
X142751206Y-115528041D01*
X143052858Y-115528041D01*
X143354511Y-115528041D01*
X143357449Y-115534792D01*
G37*
G36*
X136575483Y-114198187D02*
G01*
X136582500Y-114218611D01*
X136589707Y-114239559D01*
X136596569Y-114259471D01*
X136602548Y-114276789D01*
X136607023Y-114289712D01*
X136618227Y-114321983D01*
X136609826Y-114327965D01*
X136601722Y-114332733D01*
X136596472Y-114333728D01*
X136594850Y-114331312D01*
X136592932Y-114328101D01*
X136587780Y-114321645D01*
X136580300Y-114313046D01*
X136575471Y-114307747D01*
X136559931Y-114292923D01*
X136542651Y-114280432D01*
X136523112Y-114270145D01*
X136500797Y-114261933D01*
X136475188Y-114255667D01*
X136445765Y-114251220D01*
X136412011Y-114248463D01*
X136373408Y-114247267D01*
X136332214Y-114247452D01*
X136308874Y-114247999D01*
X136290761Y-114248834D01*
X136277101Y-114250153D01*
X136267121Y-114252153D01*
X136260047Y-114255032D01*
X136255107Y-114258988D01*
X136251527Y-114264216D01*
X136249495Y-114268551D01*
X136248873Y-114270808D01*
X136248313Y-114274671D01*
X136247813Y-114280432D01*
X136247370Y-114288385D01*
X136246980Y-114298823D01*
X136246640Y-114312040D01*
X136246348Y-114328328D01*
X136246099Y-114347980D01*
X136245891Y-114371290D01*
X136245722Y-114398551D01*
X136245587Y-114430055D01*
X136245483Y-114466097D01*
X136245408Y-114506970D01*
X136245358Y-114552966D01*
X136245331Y-114604378D01*
X136245322Y-114660973D01*
X136245322Y-115043503D01*
X136252499Y-115059385D01*
X136263735Y-115077115D01*
X136279788Y-115091319D01*
X136300550Y-115101903D01*
X136301027Y-115102083D01*
X136318828Y-115108740D01*
X136318828Y-115121875D01*
X136318828Y-115135010D01*
X136153815Y-115135010D01*
X135988802Y-115135010D01*
X135988802Y-115121911D01*
X135988802Y-115108812D01*
X136007554Y-115102016D01*
X136026928Y-115092345D01*
X136040224Y-115081362D01*
X136043587Y-115078144D01*
X136046616Y-115075322D01*
X136049327Y-115072583D01*
X136051739Y-115069612D01*
X136053869Y-115066095D01*
X136055733Y-115061719D01*
X136057351Y-115056169D01*
X136058739Y-115049132D01*
X136059914Y-115040294D01*
X136060895Y-115029340D01*
X136061698Y-115015957D01*
X136062341Y-114999831D01*
X136062841Y-114980648D01*
X136063217Y-114958094D01*
X136063484Y-114931855D01*
X136063662Y-114901617D01*
X136063767Y-114867066D01*
X136063817Y-114827888D01*
X136063829Y-114783770D01*
X136063821Y-114734396D01*
X136063809Y-114679454D01*
X136063808Y-114657332D01*
X136063813Y-114600733D01*
X136063818Y-114549827D01*
X136063809Y-114504304D01*
X136063772Y-114463855D01*
X136063693Y-114428174D01*
X136063557Y-114396950D01*
X136063351Y-114369876D01*
X136063060Y-114346643D01*
X136062670Y-114326943D01*
X136062167Y-114310467D01*
X136061536Y-114296907D01*
X136060765Y-114285953D01*
X136059838Y-114277299D01*
X136058741Y-114270634D01*
X136057460Y-114265652D01*
X136055982Y-114262042D01*
X136054291Y-114259498D01*
X136052374Y-114257709D01*
X136050216Y-114256369D01*
X136047804Y-114255167D01*
X136045293Y-114253890D01*
X136041001Y-114251965D01*
X136035528Y-114250500D01*
X136027976Y-114249413D01*
X136017449Y-114248621D01*
X136003050Y-114248041D01*
X135983884Y-114247590D01*
X135975301Y-114247438D01*
X135935730Y-114247374D01*
X135899724Y-114248526D01*
X135867859Y-114250852D01*
X135840710Y-114254310D01*
X135818854Y-114258855D01*
X135817482Y-114259228D01*
X135794482Y-114266917D01*
X135774381Y-114276808D01*
X135755428Y-114289951D01*
X135735870Y-114307396D01*
X135733974Y-114309258D01*
X135708665Y-114334291D01*
X135698722Y-114328937D01*
X135692325Y-114325401D01*
X135688940Y-114323354D01*
X135688779Y-114323198D01*
X135689710Y-114320335D01*
X135692304Y-114312675D01*
X135696259Y-114301092D01*
X135701275Y-114286459D01*
X135707051Y-114269649D01*
X135713286Y-114251535D01*
X135719680Y-114232992D01*
X135725932Y-114214893D01*
X135731741Y-114198110D01*
X135736807Y-114183518D01*
X135740828Y-114171990D01*
X135741636Y-114169684D01*
X135752436Y-114138932D01*
X136153792Y-114138932D01*
X136555147Y-114138932D01*
X136575483Y-114198187D01*
G37*
G36*
X140295644Y-115528761D02*
G01*
X140432488Y-115529541D01*
X140541054Y-115773040D01*
X140557126Y-115809032D01*
X140572520Y-115843394D01*
X140587058Y-115875739D01*
X140600566Y-115905680D01*
X140612865Y-115932829D01*
X140623781Y-115956800D01*
X140633136Y-115977204D01*
X140640755Y-115993655D01*
X140646460Y-116005765D01*
X140650076Y-116013147D01*
X140651417Y-116015427D01*
X140652845Y-116012567D01*
X140656464Y-116004590D01*
X140662102Y-115991897D01*
X140669584Y-115974885D01*
X140678737Y-115953952D01*
X140689387Y-115929499D01*
X140701361Y-115901922D01*
X140714484Y-115871622D01*
X140728583Y-115838996D01*
X140743485Y-115804443D01*
X140756191Y-115774929D01*
X140771652Y-115739020D01*
X140786474Y-115704658D01*
X140800482Y-115672249D01*
X140813499Y-115642196D01*
X140825349Y-115614904D01*
X140835856Y-115590778D01*
X140844844Y-115570221D01*
X140852137Y-115553639D01*
X140857559Y-115541436D01*
X140860933Y-115534016D01*
X140862044Y-115531792D01*
X140864088Y-115530851D01*
X140868936Y-115530069D01*
X140877012Y-115529434D01*
X140888744Y-115528934D01*
X140904558Y-115528557D01*
X140924879Y-115528292D01*
X140950134Y-115528127D01*
X140980750Y-115528050D01*
X140998228Y-115528041D01*
X141131536Y-115528041D01*
X141130621Y-115541892D01*
X141129707Y-115555742D01*
X141111451Y-115562336D01*
X141094500Y-115569470D01*
X141082215Y-115577309D01*
X141073271Y-115586881D01*
X141067710Y-115596318D01*
X141060702Y-115610548D01*
X141060702Y-115909151D01*
X141060702Y-116207754D01*
X141068380Y-116222676D01*
X141077397Y-116236080D01*
X141089438Y-116246177D01*
X141105688Y-116253850D01*
X141113889Y-116256513D01*
X141131199Y-116261599D01*
X141131203Y-116275850D01*
X141131207Y-116290101D01*
X140975030Y-116290101D01*
X140818854Y-116290101D01*
X140819768Y-116276429D01*
X140820483Y-116268931D01*
X140822262Y-116264231D01*
X140826448Y-116260825D01*
X140834382Y-116257210D01*
X140838344Y-116255596D01*
X140856448Y-116246282D01*
X140869853Y-116234558D01*
X140879697Y-116219406D01*
X140880327Y-116218096D01*
X140881450Y-116215625D01*
X140882433Y-116213024D01*
X140883287Y-116209896D01*
X140884023Y-116205845D01*
X140884652Y-116200476D01*
X140885183Y-116193392D01*
X140885628Y-116184198D01*
X140885996Y-116172498D01*
X140886299Y-116157896D01*
X140886546Y-116139996D01*
X140886748Y-116118402D01*
X140886916Y-116092719D01*
X140887059Y-116062550D01*
X140887190Y-116027499D01*
X140887317Y-115987171D01*
X140887427Y-115949575D01*
X140888166Y-115694554D01*
X140755564Y-115998328D01*
X140622962Y-116302102D01*
X140613431Y-116302102D01*
X140605875Y-116301006D01*
X140601048Y-116298367D01*
X140601036Y-116298352D01*
X140599450Y-116295163D01*
X140595577Y-116286852D01*
X140589578Y-116273773D01*
X140581612Y-116256283D01*
X140571841Y-116234737D01*
X140560425Y-116209492D01*
X140547525Y-116180901D01*
X140533301Y-116149322D01*
X140517914Y-116115110D01*
X140501525Y-116078621D01*
X140484294Y-116040210D01*
X140466382Y-116000232D01*
X140463408Y-115993589D01*
X140328644Y-115692576D01*
X140327789Y-115927583D01*
X140327661Y-115974301D01*
X140327630Y-116017108D01*
X140327694Y-116055746D01*
X140327849Y-116089956D01*
X140328095Y-116119479D01*
X140328429Y-116144055D01*
X140328848Y-116163427D01*
X140329351Y-116177336D01*
X140329935Y-116185521D01*
X140329979Y-116185877D01*
X140333951Y-116206630D01*
X140340319Y-116223125D01*
X140349850Y-116236224D01*
X140363313Y-116246792D01*
X140381477Y-116255692D01*
X140397073Y-116261287D01*
X140400544Y-116263741D01*
X140401778Y-116269143D01*
X140401574Y-116275823D01*
X140400650Y-116288601D01*
X140279890Y-116289385D01*
X140159131Y-116290169D01*
X140159131Y-116275838D01*
X140159131Y-116261507D01*
X140173998Y-116256227D01*
X140193605Y-116246632D01*
X140209845Y-116233338D01*
X140221554Y-116217306D01*
X140221925Y-116216596D01*
X140229636Y-116201594D01*
X140230459Y-115913841D01*
X140230590Y-115865251D01*
X140230684Y-115822294D01*
X140230736Y-115784603D01*
X140230743Y-115751810D01*
X140230698Y-115723548D01*
X140230598Y-115699451D01*
X140230437Y-115679149D01*
X140230212Y-115662277D01*
X140229916Y-115648467D01*
X140229546Y-115637352D01*
X140229097Y-115628564D01*
X140228563Y-115621736D01*
X140227941Y-115616500D01*
X140227225Y-115612490D01*
X140226538Y-115609768D01*
X140218451Y-115591531D01*
X140205801Y-115577052D01*
X140188403Y-115566145D01*
X140180132Y-115562763D01*
X140160631Y-115555742D01*
X140159715Y-115541861D01*
X140158799Y-115527981D01*
X140295644Y-115528761D01*
G37*
G36*
X141800356Y-115570795D02*
G01*
X141807722Y-115590787D01*
X141816127Y-115613597D01*
X141824534Y-115636410D01*
X141831892Y-115656372D01*
X141847678Y-115699196D01*
X141838082Y-115706515D01*
X141828486Y-115713835D01*
X141809122Y-115695524D01*
X141785947Y-115674839D01*
X141764464Y-115658491D01*
X141743342Y-115645633D01*
X141721249Y-115635418D01*
X141705752Y-115629799D01*
X141700022Y-115627984D01*
X141694480Y-115626507D01*
X141688435Y-115625325D01*
X141681197Y-115624397D01*
X141672075Y-115623680D01*
X141660380Y-115623132D01*
X141645419Y-115622710D01*
X141626504Y-115622373D01*
X141602943Y-115622076D01*
X141575242Y-115621791D01*
X141544187Y-115621524D01*
X141518544Y-115621431D01*
X141497726Y-115621578D01*
X141481146Y-115622031D01*
X141468217Y-115622854D01*
X141458352Y-115624112D01*
X141450963Y-115625872D01*
X141445464Y-115628197D01*
X141441267Y-115631154D01*
X141437786Y-115634807D01*
X141435864Y-115637270D01*
X141434197Y-115639754D01*
X141432853Y-115642709D01*
X141431790Y-115646783D01*
X141430965Y-115652626D01*
X141430336Y-115660886D01*
X141429862Y-115672214D01*
X141429498Y-115687259D01*
X141429204Y-115706669D01*
X141428938Y-115731093D01*
X141428796Y-115745930D01*
X141427862Y-115846382D01*
X141548806Y-115845474D01*
X141579024Y-115845235D01*
X141603851Y-115844994D01*
X141623896Y-115844717D01*
X141639769Y-115844372D01*
X141652080Y-115843926D01*
X141661437Y-115843347D01*
X141668450Y-115842602D01*
X141673729Y-115841658D01*
X141677882Y-115840482D01*
X141681519Y-115839041D01*
X141683251Y-115838251D01*
X141694283Y-115832198D01*
X141702319Y-115825113D01*
X141708791Y-115815357D01*
X141714812Y-115802074D01*
X141721915Y-115784562D01*
X141737085Y-115783655D01*
X141752256Y-115782748D01*
X141752256Y-115889413D01*
X141752256Y-115996078D01*
X141736410Y-115996078D01*
X141720563Y-115996078D01*
X141716503Y-115982325D01*
X141708549Y-115964957D01*
X141696089Y-115951550D01*
X141683350Y-115943867D01*
X141679712Y-115942294D01*
X141675843Y-115941000D01*
X141671132Y-115939952D01*
X141664969Y-115939118D01*
X141656745Y-115938465D01*
X141645849Y-115937961D01*
X141631671Y-115937573D01*
X141613601Y-115937268D01*
X141591030Y-115937013D01*
X141563348Y-115936777D01*
X141548831Y-115936666D01*
X141427912Y-115935758D01*
X141428821Y-116055313D01*
X141429070Y-116086920D01*
X141429349Y-116113073D01*
X141429749Y-116134318D01*
X141430358Y-116151202D01*
X141431266Y-116164271D01*
X141432561Y-116174071D01*
X141434332Y-116181148D01*
X141436669Y-116186049D01*
X141439661Y-116189320D01*
X141443397Y-116191508D01*
X141447965Y-116193157D01*
X141451470Y-116194214D01*
X141457241Y-116195153D01*
X141467678Y-116195870D01*
X141483017Y-116196369D01*
X141503490Y-116196653D01*
X141529333Y-116196727D01*
X141560777Y-116196593D01*
X141585743Y-116196383D01*
X141616439Y-116196068D01*
X141641789Y-116195753D01*
X141662449Y-116195406D01*
X141679072Y-116194990D01*
X141692314Y-116194471D01*
X141702829Y-116193814D01*
X141711272Y-116192986D01*
X141718297Y-116191951D01*
X141724560Y-116190675D01*
X141730715Y-116189122D01*
X141732580Y-116188614D01*
X141767136Y-116176070D01*
X141799176Y-116158372D01*
X141827952Y-116136005D01*
X141850238Y-116112529D01*
X141856820Y-116105036D01*
X141862196Y-116099867D01*
X141864765Y-116098292D01*
X141868918Y-116099912D01*
X141875154Y-116104113D01*
X141876086Y-116104852D01*
X141884408Y-116111587D01*
X141848914Y-116200094D01*
X141813421Y-116288601D01*
X141502316Y-116289365D01*
X141191212Y-116290129D01*
X141191212Y-116275448D01*
X141191430Y-116266647D01*
X141192874Y-116262055D01*
X141196728Y-116259881D01*
X141202297Y-116258687D01*
X141215357Y-116254825D01*
X141228871Y-116248563D01*
X141240648Y-116241074D01*
X141247974Y-116234224D01*
X141250447Y-116231054D01*
X141252639Y-116227963D01*
X141254567Y-116224588D01*
X141256246Y-116220570D01*
X141257692Y-116215547D01*
X141258920Y-116209158D01*
X141259948Y-116201044D01*
X141260790Y-116190842D01*
X141261463Y-116178193D01*
X141261982Y-116162735D01*
X141262363Y-116144108D01*
X141262623Y-116121950D01*
X141262776Y-116095902D01*
X141262838Y-116065602D01*
X141262827Y-116030689D01*
X141262756Y-115990803D01*
X141262643Y-115945583D01*
X141262526Y-115902853D01*
X141261717Y-115610548D01*
X141254709Y-115596318D01*
X141247463Y-115584654D01*
X141237921Y-115575535D01*
X141224756Y-115567932D01*
X141210968Y-115562336D01*
X141192712Y-115555742D01*
X141191798Y-115541892D01*
X141190883Y-115528041D01*
X141487744Y-115528041D01*
X141784606Y-115528041D01*
X141800356Y-115570795D01*
G37*
G36*
X142561404Y-115528757D02*
G01*
X142680829Y-115529541D01*
X142681737Y-115542000D01*
X142682018Y-115549002D01*
X142680763Y-115553423D01*
X142676756Y-115556833D01*
X142668782Y-115560804D01*
X142666292Y-115561946D01*
X142647492Y-115573254D01*
X142632450Y-115587880D01*
X142622111Y-115604845D01*
X142620271Y-115609632D01*
X142619434Y-115612388D01*
X142618685Y-115615655D01*
X142618020Y-115619776D01*
X142617432Y-115625091D01*
X142616914Y-115631943D01*
X142616461Y-115640673D01*
X142616067Y-115651623D01*
X142615726Y-115665133D01*
X142615432Y-115681545D01*
X142615178Y-115701201D01*
X142614958Y-115724442D01*
X142614768Y-115751610D01*
X142614599Y-115783046D01*
X142614447Y-115819092D01*
X142614306Y-115860089D01*
X142614168Y-115906378D01*
X142614029Y-115958301D01*
X142614019Y-115962326D01*
X142613151Y-116299102D01*
X142598986Y-116298873D01*
X142584822Y-116298644D01*
X142333450Y-116012350D01*
X142302210Y-115976797D01*
X142272042Y-115942515D01*
X142243183Y-115909773D01*
X142215874Y-115878839D01*
X142190351Y-115849982D01*
X142166853Y-115823469D01*
X142145619Y-115799570D01*
X142126887Y-115778552D01*
X142110896Y-115760683D01*
X142097884Y-115746233D01*
X142088089Y-115735469D01*
X142081751Y-115728660D01*
X142079106Y-115726073D01*
X142079059Y-115726057D01*
X142078428Y-115729055D01*
X142077896Y-115738041D01*
X142077464Y-115753005D01*
X142077132Y-115773935D01*
X142076899Y-115800821D01*
X142076767Y-115833650D01*
X142076735Y-115872412D01*
X142076802Y-115917097D01*
X142076937Y-115959325D01*
X142077113Y-116002643D01*
X142077292Y-116040370D01*
X142077483Y-116072916D01*
X142077697Y-116100691D01*
X142077943Y-116124103D01*
X142078232Y-116143563D01*
X142078573Y-116159479D01*
X142078976Y-116172263D01*
X142079450Y-116182323D01*
X142080007Y-116190069D01*
X142080656Y-116195911D01*
X142081407Y-116200258D01*
X142082269Y-116203519D01*
X142082886Y-116205233D01*
X142093082Y-116224269D01*
X142107117Y-116239325D01*
X142125591Y-116250938D01*
X142140472Y-116256966D01*
X142149291Y-116260167D01*
X142153842Y-116263136D01*
X142155537Y-116267573D01*
X142155788Y-116275175D01*
X142155788Y-116275386D01*
X142155788Y-116288601D01*
X142028278Y-116288601D01*
X141900768Y-116288601D01*
X141900768Y-116275497D01*
X141900768Y-116262393D01*
X141918875Y-116256835D01*
X141937448Y-116248706D01*
X141953022Y-116237059D01*
X141964372Y-116222894D01*
X141967170Y-116217414D01*
X141968109Y-116215040D01*
X141968939Y-116212230D01*
X141969669Y-116208614D01*
X141970305Y-116203821D01*
X141970857Y-116197482D01*
X141971332Y-116189225D01*
X141971737Y-116178681D01*
X141972082Y-116165479D01*
X141972373Y-116149249D01*
X141972619Y-116129621D01*
X141972828Y-116106224D01*
X141973008Y-116078688D01*
X141973166Y-116046644D01*
X141973311Y-116009720D01*
X141973451Y-115967546D01*
X141973593Y-115919753D01*
X141973597Y-115918342D01*
X141973743Y-115868655D01*
X141973863Y-115824604D01*
X141973938Y-115785823D01*
X141973944Y-115751949D01*
X141973861Y-115722617D01*
X141973667Y-115697462D01*
X141973342Y-115676119D01*
X141972863Y-115658223D01*
X141972211Y-115643411D01*
X141971362Y-115631317D01*
X141970296Y-115621576D01*
X141968992Y-115613824D01*
X141967429Y-115607696D01*
X141965584Y-115602828D01*
X141963437Y-115598855D01*
X141960967Y-115595411D01*
X141958151Y-115592133D01*
X141954970Y-115588656D01*
X141954289Y-115587906D01*
X141945591Y-115580166D01*
X141933541Y-115571868D01*
X141921260Y-115565000D01*
X141898974Y-115553986D01*
X141899871Y-115541764D01*
X141900768Y-115529541D01*
X142013277Y-115528805D01*
X142125785Y-115528068D01*
X142314525Y-115742599D01*
X142341602Y-115773362D01*
X142367602Y-115802876D01*
X142392245Y-115830826D01*
X142415253Y-115856895D01*
X142436345Y-115880768D01*
X142455242Y-115902128D01*
X142471665Y-115920660D01*
X142485333Y-115936047D01*
X142495968Y-115947974D01*
X142503290Y-115956125D01*
X142507019Y-115960184D01*
X142507405Y-115960564D01*
X142508280Y-115960575D01*
X142509017Y-115958760D01*
X142509624Y-115954707D01*
X142510107Y-115948004D01*
X142510475Y-115938238D01*
X142510736Y-115924997D01*
X142510898Y-115907868D01*
X142510967Y-115886439D01*
X142510953Y-115860299D01*
X142510863Y-115829034D01*
X142510704Y-115792232D01*
X142510680Y-115787274D01*
X142509816Y-115610548D01*
X142502662Y-115596142D01*
X142494215Y-115582961D01*
X142482936Y-115572802D01*
X142467501Y-115564589D01*
X142460312Y-115561770D01*
X142451081Y-115558214D01*
X142446068Y-115555091D01*
X142443852Y-115550777D01*
X142443014Y-115543650D01*
X142442895Y-115541858D01*
X142441979Y-115527972D01*
X142561404Y-115528757D01*
G37*
G36*
X139987367Y-115528758D02*
G01*
X140112627Y-115529541D01*
X140113537Y-115542033D01*
X140114447Y-115554525D01*
X140097799Y-115559364D01*
X140079122Y-115567666D01*
X140063891Y-115580384D01*
X140053003Y-115596766D01*
X140052872Y-115597047D01*
X140051733Y-115599637D01*
X140050737Y-115602433D01*
X140049871Y-115605844D01*
X140049123Y-115610283D01*
X140048478Y-115616159D01*
X140047924Y-115623884D01*
X140047448Y-115633870D01*
X140047036Y-115646526D01*
X140046676Y-115662265D01*
X140046354Y-115681496D01*
X140046058Y-115704632D01*
X140045773Y-115732082D01*
X140045488Y-115764259D01*
X140045188Y-115801572D01*
X140044861Y-115844434D01*
X140044826Y-115849067D01*
X140044490Y-115893511D01*
X140044178Y-115932398D01*
X140043865Y-115966173D01*
X140043526Y-115995277D01*
X140043137Y-116020156D01*
X140042673Y-116041252D01*
X140042109Y-116059009D01*
X140041420Y-116073870D01*
X140040581Y-116086280D01*
X140039568Y-116096681D01*
X140038355Y-116105517D01*
X140036918Y-116113232D01*
X140035233Y-116120269D01*
X140033273Y-116127071D01*
X140031015Y-116134083D01*
X140028445Y-116141710D01*
X140014600Y-116174613D01*
X139996585Y-116203558D01*
X139974271Y-116228646D01*
X139947525Y-116249976D01*
X139916218Y-116267648D01*
X139880217Y-116281762D01*
X139839391Y-116292418D01*
X139827605Y-116294701D01*
X139813541Y-116296606D01*
X139794879Y-116298213D01*
X139773015Y-116299486D01*
X139749346Y-116300392D01*
X139725266Y-116300893D01*
X139702174Y-116300956D01*
X139681464Y-116300544D01*
X139664534Y-116299623D01*
X139658091Y-116298982D01*
X139608927Y-116290884D01*
X139564527Y-116279219D01*
X139524906Y-116263997D01*
X139490081Y-116245226D01*
X139460068Y-116222918D01*
X139434883Y-116197082D01*
X139414543Y-116167728D01*
X139401060Y-116139984D01*
X139398063Y-116132530D01*
X139395442Y-116125688D01*
X139393167Y-116119018D01*
X139391212Y-116112078D01*
X139389546Y-116104427D01*
X139388143Y-116095624D01*
X139386974Y-116085229D01*
X139386011Y-116072799D01*
X139385225Y-116057895D01*
X139384588Y-116040074D01*
X139384072Y-116018896D01*
X139383649Y-115993920D01*
X139383290Y-115964705D01*
X139382967Y-115930809D01*
X139382652Y-115891792D01*
X139382319Y-115847566D01*
X139380569Y-115613548D01*
X139373294Y-115597435D01*
X139364482Y-115582706D01*
X139352514Y-115571435D01*
X139336520Y-115563012D01*
X139315630Y-115556826D01*
X139315314Y-115556756D01*
X139310187Y-115555012D01*
X139307779Y-115551561D01*
X139307087Y-115544543D01*
X139307064Y-115541458D01*
X139307064Y-115527988D01*
X139463826Y-115528765D01*
X139620588Y-115529541D01*
X139621498Y-115542033D01*
X139622408Y-115554525D01*
X139604997Y-115559499D01*
X139587055Y-115565924D01*
X139573723Y-115574067D01*
X139563649Y-115584961D01*
X139557129Y-115596144D01*
X139548583Y-115613548D01*
X139548583Y-115844566D01*
X139548600Y-115889022D01*
X139548658Y-115927863D01*
X139548763Y-115961477D01*
X139548920Y-115990249D01*
X139549137Y-116014567D01*
X139549420Y-116034816D01*
X139549776Y-116051383D01*
X139550211Y-116064654D01*
X139550731Y-116075016D01*
X139551344Y-116082856D01*
X139552055Y-116088558D01*
X139552761Y-116092086D01*
X139561782Y-116119185D01*
X139574248Y-116142139D01*
X139590482Y-116161197D01*
X139610807Y-116176603D01*
X139635546Y-116188604D01*
X139665021Y-116197447D01*
X139698384Y-116203234D01*
X139718273Y-116204909D01*
X139741116Y-116205509D01*
X139765121Y-116205100D01*
X139788498Y-116203746D01*
X139809455Y-116201513D01*
X139825840Y-116198556D01*
X139854533Y-116189191D01*
X139878745Y-116175869D01*
X139898644Y-116158429D01*
X139914396Y-116136707D01*
X139926171Y-116110541D01*
X139930184Y-116097394D01*
X139931158Y-116093221D01*
X139932007Y-116088188D01*
X139932744Y-116081859D01*
X139933379Y-116073797D01*
X139933925Y-116063566D01*
X139934392Y-116050730D01*
X139934791Y-116034854D01*
X139935135Y-116015501D01*
X139935434Y-115992234D01*
X139935701Y-115964618D01*
X139935946Y-115932217D01*
X139936181Y-115894594D01*
X139936366Y-115861068D01*
X139936584Y-115817342D01*
X139936733Y-115779188D01*
X139936792Y-115746174D01*
X139936745Y-115717873D01*
X139936572Y-115693852D01*
X139936254Y-115673685D01*
X139935775Y-115656940D01*
X139935114Y-115643188D01*
X139934254Y-115632000D01*
X139933176Y-115622945D01*
X139931862Y-115615595D01*
X139930293Y-115609520D01*
X139928451Y-115604290D01*
X139926316Y-115599476D01*
X139925005Y-115596836D01*
X139914766Y-115582398D01*
X139899914Y-115570539D01*
X139880021Y-115560968D01*
X139865858Y-115556307D01*
X139863363Y-115552687D01*
X139862166Y-115544412D01*
X139862107Y-115541604D01*
X139862107Y-115527975D01*
X139987367Y-115528758D01*
G37*
G36*
X143782212Y-115520616D02*
G01*
X143823858Y-115529978D01*
X143864237Y-115545043D01*
X143870074Y-115547736D01*
X143882401Y-115553320D01*
X143893159Y-115557750D01*
X143900923Y-115560465D01*
X143903758Y-115561044D01*
X143909997Y-115558268D01*
X143915626Y-115550822D01*
X143919717Y-115540026D01*
X143920285Y-115537503D01*
X143922230Y-115527776D01*
X143940405Y-115528659D01*
X143958580Y-115529541D01*
X143986427Y-115625549D01*
X143993076Y-115648525D01*
X143999161Y-115669651D01*
X144004487Y-115688240D01*
X144008857Y-115703605D01*
X144012077Y-115715058D01*
X144013949Y-115721912D01*
X144014354Y-115723602D01*
X144012198Y-115726496D01*
X144006757Y-115731083D01*
X144005160Y-115732252D01*
X143995887Y-115738855D01*
X143975908Y-115719290D01*
X143940008Y-115687835D01*
X143902412Y-115662132D01*
X143863103Y-115642170D01*
X143822063Y-115627939D01*
X143801417Y-115623075D01*
X143767282Y-115617868D01*
X143734727Y-115616105D01*
X143704325Y-115617658D01*
X143676646Y-115622404D01*
X143652261Y-115630217D01*
X143631742Y-115640971D01*
X143615657Y-115654542D01*
X143607347Y-115665645D01*
X143598830Y-115684805D01*
X143595184Y-115704781D01*
X143596348Y-115724395D01*
X143602265Y-115742468D01*
X143611852Y-115756716D01*
X143617688Y-115762746D01*
X143623928Y-115768074D01*
X143631150Y-115772902D01*
X143639932Y-115777431D01*
X143650854Y-115781864D01*
X143664492Y-115786403D01*
X143681425Y-115791249D01*
X143702232Y-115796605D01*
X143727491Y-115802672D01*
X143757779Y-115809652D01*
X143773766Y-115813272D01*
X143798505Y-115818949D01*
X143822836Y-115824712D01*
X143845745Y-115830308D01*
X143866220Y-115835484D01*
X143883246Y-115839985D01*
X143895810Y-115843559D01*
X143899213Y-115844625D01*
X143937275Y-115859075D01*
X143969926Y-115875836D01*
X143997332Y-115895003D01*
X144016510Y-115913132D01*
X144030129Y-115929436D01*
X144040738Y-115945784D01*
X144049623Y-115964375D01*
X144055505Y-115979906D01*
X144058494Y-115988739D01*
X144060667Y-115996442D01*
X144062155Y-116004229D01*
X144063090Y-116013315D01*
X144063601Y-116024914D01*
X144063821Y-116040240D01*
X144063876Y-116057583D01*
X144063853Y-116077097D01*
X144063646Y-116091825D01*
X144063125Y-116102982D01*
X144062158Y-116111781D01*
X144060615Y-116119438D01*
X144058367Y-116127167D01*
X144055490Y-116135589D01*
X144040763Y-116168702D01*
X144021164Y-116198439D01*
X143996860Y-116224688D01*
X143968014Y-116247335D01*
X143934792Y-116266267D01*
X143897358Y-116281370D01*
X143855879Y-116292530D01*
X143817919Y-116298789D01*
X143797879Y-116300532D01*
X143774504Y-116301453D01*
X143749989Y-116301553D01*
X143726530Y-116300829D01*
X143706320Y-116299283D01*
X143702410Y-116298817D01*
X143670001Y-116292839D01*
X143635738Y-116283319D01*
X143602010Y-116270954D01*
X143592210Y-116266730D01*
X143558517Y-116251642D01*
X143551193Y-116257403D01*
X143545644Y-116263753D01*
X143540323Y-116272934D01*
X143538675Y-116276764D01*
X143533481Y-116290364D01*
X143515205Y-116289483D01*
X143496930Y-116288601D01*
X143466468Y-116176092D01*
X143436007Y-116063583D01*
X143445449Y-116055532D01*
X143454890Y-116047480D01*
X143488839Y-116081726D01*
X143514548Y-116106515D01*
X143538506Y-116127038D01*
X143561960Y-116144228D01*
X143586154Y-116159019D01*
X143604902Y-116168791D01*
X143630679Y-116180567D01*
X143654268Y-116189304D01*
X143677498Y-116195444D01*
X143702204Y-116199430D01*
X143730216Y-116201705D01*
X143743309Y-116202254D01*
X143763772Y-116202779D01*
X143779688Y-116202771D01*
X143792489Y-116202158D01*
X143803611Y-116200869D01*
X143814487Y-116198832D01*
X143815314Y-116198651D01*
X143844618Y-116189946D01*
X143869037Y-116177837D01*
X143888541Y-116162344D01*
X143903097Y-116143490D01*
X143905726Y-116138710D01*
X143911359Y-116123116D01*
X143914620Y-116104229D01*
X143915358Y-116084330D01*
X143913426Y-116065700D01*
X143911093Y-116056586D01*
X143902213Y-116039261D01*
X143887795Y-116023707D01*
X143868090Y-116010122D01*
X143843350Y-115998705D01*
X143832920Y-115995054D01*
X143826129Y-115993137D01*
X143814384Y-115990132D01*
X143798587Y-115986257D01*
X143779642Y-115981729D01*
X143758452Y-115976767D01*
X143735918Y-115971589D01*
X143732075Y-115970716D01*
X143699930Y-115963336D01*
X143672938Y-115956920D01*
X143650366Y-115951254D01*
X143631483Y-115946123D01*
X143615557Y-115941313D01*
X143601857Y-115936610D01*
X143589651Y-115931798D01*
X143578208Y-115926665D01*
X143572808Y-115924042D01*
X143541552Y-115906338D01*
X143515696Y-115886778D01*
X143494806Y-115864910D01*
X143478447Y-115840279D01*
X143466282Y-115812706D01*
X143462616Y-115801077D01*
X143460108Y-115789655D01*
X143458476Y-115776587D01*
X143457436Y-115760022D01*
X143457160Y-115753059D01*
X143457163Y-115723969D01*
X143459604Y-115698945D01*
X143464741Y-115676466D01*
X143472828Y-115655008D01*
X143474141Y-115652145D01*
X143491847Y-115621093D01*
X143514025Y-115594030D01*
X143540654Y-115570970D01*
X143571710Y-115551925D01*
X143607173Y-115536910D01*
X143647020Y-115525937D01*
X143691228Y-115519021D01*
X143693697Y-115518767D01*
X143738944Y-115516899D01*
X143782212Y-115520616D01*
G37*
G36*
X138995943Y-114365741D02*
G01*
X139032202Y-114371349D01*
X139066773Y-114381144D01*
X139101263Y-114395485D01*
X139104831Y-114397214D01*
X139117665Y-114403006D01*
X139127628Y-114406492D01*
X139133663Y-114407314D01*
X139134194Y-114407174D01*
X139139659Y-114402610D01*
X139144614Y-114394628D01*
X139147668Y-114385749D01*
X139148051Y-114382100D01*
X139148637Y-114378743D01*
X139151291Y-114376890D01*
X139157362Y-114376104D01*
X139167070Y-114375951D01*
X139186088Y-114375951D01*
X139213589Y-114471208D01*
X139220182Y-114494121D01*
X139226207Y-114515203D01*
X139231469Y-114533762D01*
X139235772Y-114549102D01*
X139238921Y-114560528D01*
X139240721Y-114567346D01*
X139241074Y-114568985D01*
X139238817Y-114572798D01*
X139233612Y-114577630D01*
X139227760Y-114581593D01*
X139224169Y-114582867D01*
X139220640Y-114580931D01*
X139214075Y-114575670D01*
X139205639Y-114568047D01*
X139201630Y-114564189D01*
X139166928Y-114533541D01*
X139131097Y-114508679D01*
X139093758Y-114489433D01*
X139054529Y-114475634D01*
X139013031Y-114467114D01*
X138975537Y-114463891D01*
X138940599Y-114464099D01*
X138910432Y-114467494D01*
X138884670Y-114474166D01*
X138862947Y-114484201D01*
X138848646Y-114494358D01*
X138836644Y-114508208D01*
X138828301Y-114525502D01*
X138823818Y-114544782D01*
X138823396Y-114564590D01*
X138827233Y-114583468D01*
X138834381Y-114598286D01*
X138839537Y-114605141D01*
X138845725Y-114611262D01*
X138853503Y-114616859D01*
X138863429Y-114622143D01*
X138876063Y-114627327D01*
X138891962Y-114632621D01*
X138911685Y-114638237D01*
X138935791Y-114644387D01*
X138964838Y-114651282D01*
X138988858Y-114656765D01*
X139012404Y-114662125D01*
X139035564Y-114667480D01*
X139057255Y-114672572D01*
X139076392Y-114677146D01*
X139091891Y-114680944D01*
X139102669Y-114683709D01*
X139103047Y-114683812D01*
X139144993Y-114697290D01*
X139181665Y-114713625D01*
X139213071Y-114732823D01*
X139239216Y-114754888D01*
X139260108Y-114779828D01*
X139275753Y-114807646D01*
X139286158Y-114838350D01*
X139287112Y-114842487D01*
X139293397Y-114883096D01*
X139294127Y-114921592D01*
X139289430Y-114957789D01*
X139279434Y-114991501D01*
X139264267Y-115022540D01*
X139244057Y-115050719D01*
X139218933Y-115075851D01*
X139189021Y-115097749D01*
X139154452Y-115116226D01*
X139115352Y-115131094D01*
X139083546Y-115139672D01*
X139070341Y-115141840D01*
X139052494Y-115143578D01*
X139031352Y-115144867D01*
X139008259Y-115145684D01*
X138984561Y-115146008D01*
X138961604Y-115145820D01*
X138940733Y-115145096D01*
X138923293Y-115143818D01*
X138912532Y-115142346D01*
X138870759Y-115132279D01*
X138831525Y-115118326D01*
X138815552Y-115111115D01*
X138804131Y-115105778D01*
X138794493Y-115101643D01*
X138788081Y-115099310D01*
X138786566Y-115099008D01*
X138781538Y-115101449D01*
X138775456Y-115107586D01*
X138769720Y-115115636D01*
X138765725Y-115123818D01*
X138764961Y-115126557D01*
X138763786Y-115131214D01*
X138761635Y-115133746D01*
X138757035Y-115134695D01*
X138748512Y-115134599D01*
X138743621Y-115134388D01*
X138724023Y-115133510D01*
X138694536Y-115024002D01*
X138687904Y-114999286D01*
X138681793Y-114976335D01*
X138676373Y-114955807D01*
X138671816Y-114938361D01*
X138668294Y-114924653D01*
X138665979Y-114915342D01*
X138665042Y-114911086D01*
X138665031Y-114910947D01*
X138667264Y-114907057D01*
X138672817Y-114901896D01*
X138674431Y-114900695D01*
X138683848Y-114893989D01*
X138704339Y-114916587D01*
X138723739Y-114936440D01*
X138746294Y-114957025D01*
X138769865Y-114976490D01*
X138792312Y-114992984D01*
X138793667Y-114993899D01*
X138829697Y-115014650D01*
X138868956Y-115030976D01*
X138910314Y-115042571D01*
X138952638Y-115049131D01*
X138994797Y-115050353D01*
X139002246Y-115049985D01*
X139036115Y-115046177D01*
X139065063Y-115039177D01*
X139089323Y-115028868D01*
X139109129Y-115015129D01*
X139124715Y-114997843D01*
X139133500Y-114983039D01*
X139138633Y-114971780D01*
X139141596Y-114962305D01*
X139142978Y-114951985D01*
X139143361Y-114938911D01*
X139142371Y-114918565D01*
X139138679Y-114902260D01*
X139131649Y-114888407D01*
X139120646Y-114875413D01*
X139116338Y-114871320D01*
X139109006Y-114865114D01*
X139101040Y-114859553D01*
X139091820Y-114854425D01*
X139080730Y-114849515D01*
X139067149Y-114844608D01*
X139050459Y-114839492D01*
X139030043Y-114833953D01*
X139005280Y-114827776D01*
X138975554Y-114820747D01*
X138959036Y-114816939D01*
X138934678Y-114811258D01*
X138910985Y-114805550D01*
X138888919Y-114800061D01*
X138869442Y-114795034D01*
X138853517Y-114790717D01*
X138842104Y-114787353D01*
X138839027Y-114786333D01*
X138801508Y-114770980D01*
X138769368Y-114753067D01*
X138742499Y-114732466D01*
X138720794Y-114709050D01*
X138704146Y-114682690D01*
X138692447Y-114653257D01*
X138685590Y-114620624D01*
X138683822Y-114600831D01*
X138684658Y-114564349D01*
X138690812Y-114529833D01*
X138702091Y-114497719D01*
X138718304Y-114468441D01*
X138739259Y-114442432D01*
X138762922Y-114421495D01*
X138796245Y-114400235D01*
X138833049Y-114383845D01*
X138873294Y-114372338D01*
X138916941Y-114365725D01*
X138956393Y-114363962D01*
X138995943Y-114365741D01*
G37*
G36*
X137546793Y-115522754D02*
G01*
X137588449Y-115533345D01*
X137627814Y-115548915D01*
X137631125Y-115550514D01*
X137657820Y-115563620D01*
X137666377Y-115555062D01*
X137673502Y-115544712D01*
X137674935Y-115537273D01*
X137674935Y-115528041D01*
X137693964Y-115528041D01*
X137712993Y-115528041D01*
X137740468Y-115623700D01*
X137747047Y-115646700D01*
X137753062Y-115667900D01*
X137758316Y-115686603D01*
X137762617Y-115702107D01*
X137765769Y-115713715D01*
X137767578Y-115720726D01*
X137767942Y-115722504D01*
X137765708Y-115726156D01*
X137760201Y-115731127D01*
X137758881Y-115732101D01*
X137749820Y-115738553D01*
X137720214Y-115710553D01*
X137685203Y-115680904D01*
X137648890Y-115657051D01*
X137610986Y-115638877D01*
X137571206Y-115626265D01*
X137529261Y-115619096D01*
X137491921Y-115617195D01*
X137459789Y-115618351D01*
X137432631Y-115621981D01*
X137409878Y-115628263D01*
X137390959Y-115637374D01*
X137375305Y-115649491D01*
X137369819Y-115655232D01*
X137359824Y-115668998D01*
X137353812Y-115683804D01*
X137351166Y-115701457D01*
X137350909Y-115710750D01*
X137352731Y-115730105D01*
X137358473Y-115746413D01*
X137368551Y-115760112D01*
X137383378Y-115771643D01*
X137403372Y-115781444D01*
X137424491Y-115788672D01*
X137432816Y-115790925D01*
X137446043Y-115794243D01*
X137463216Y-115798400D01*
X137483378Y-115803167D01*
X137505573Y-115808315D01*
X137528843Y-115813617D01*
X137533924Y-115814762D01*
X137557504Y-115820134D01*
X137580393Y-115825480D01*
X137601594Y-115830558D01*
X137620113Y-115835126D01*
X137634951Y-115838940D01*
X137645114Y-115841758D01*
X137646433Y-115842160D01*
X137685295Y-115856194D01*
X137718747Y-115872419D01*
X137747055Y-115891072D01*
X137770480Y-115912390D01*
X137789288Y-115936610D01*
X137803742Y-115963970D01*
X137813438Y-115992176D01*
X137816934Y-116009771D01*
X137819215Y-116031021D01*
X137820258Y-116054101D01*
X137820040Y-116077185D01*
X137818541Y-116098447D01*
X137815736Y-116116063D01*
X137814990Y-116119088D01*
X137805546Y-116146397D01*
X137792187Y-116173785D01*
X137776273Y-116198476D01*
X137775570Y-116199411D01*
X137754786Y-116222282D01*
X137729018Y-116242938D01*
X137698990Y-116261026D01*
X137665422Y-116276194D01*
X137629036Y-116288089D01*
X137590553Y-116296359D01*
X137572081Y-116298878D01*
X137555037Y-116300282D01*
X137534831Y-116301184D01*
X137513478Y-116301561D01*
X137492994Y-116301390D01*
X137475395Y-116300649D01*
X137467919Y-116300017D01*
X137429033Y-116293649D01*
X137389631Y-116283116D01*
X137352120Y-116269123D01*
X137334893Y-116261083D01*
X137324288Y-116255914D01*
X137317457Y-116253271D01*
X137312894Y-116252831D01*
X137309092Y-116254268D01*
X137307589Y-116255203D01*
X137301399Y-116261471D01*
X137295603Y-116270754D01*
X137291707Y-116280336D01*
X137290905Y-116285304D01*
X137288272Y-116288274D01*
X137281595Y-116290050D01*
X137272705Y-116290652D01*
X137263434Y-116290101D01*
X137255613Y-116288418D01*
X137251075Y-116285624D01*
X137250696Y-116284851D01*
X137248852Y-116278458D01*
X137245820Y-116267505D01*
X137241807Y-116252768D01*
X137237019Y-116235028D01*
X137231663Y-116215061D01*
X137225946Y-116193647D01*
X137220073Y-116171564D01*
X137214252Y-116149591D01*
X137208688Y-116128506D01*
X137203589Y-116109087D01*
X137199161Y-116092113D01*
X137195611Y-116078362D01*
X137193144Y-116068614D01*
X137191967Y-116063646D01*
X137191897Y-116063202D01*
X137194216Y-116059417D01*
X137199930Y-116054623D01*
X137201280Y-116053732D01*
X137210662Y-116047791D01*
X137240982Y-116079271D01*
X137276706Y-116113401D01*
X137312695Y-116141727D01*
X137349369Y-116164440D01*
X137387151Y-116181735D01*
X137426459Y-116193804D01*
X137467715Y-116200842D01*
X137510393Y-116203042D01*
X137544278Y-116201704D01*
X137573315Y-116197664D01*
X137598100Y-116190743D01*
X137619230Y-116180761D01*
X137637301Y-116167538D01*
X137641608Y-116163513D01*
X137655237Y-116147499D01*
X137664189Y-116130224D01*
X137668993Y-116110341D01*
X137670209Y-116090586D01*
X137669993Y-116076619D01*
X137669037Y-116066634D01*
X137666966Y-116058622D01*
X137663405Y-116050575D01*
X137662375Y-116048582D01*
X137652519Y-116033244D01*
X137640107Y-116020929D01*
X137623931Y-116010202D01*
X137616711Y-116006366D01*
X137608768Y-116002779D01*
X137599437Y-115999250D01*
X137588052Y-115995588D01*
X137573948Y-115991602D01*
X137556457Y-115987101D01*
X137534916Y-115981894D01*
X137508657Y-115975790D01*
X137485920Y-115970611D01*
X137450693Y-115962490D01*
X137420662Y-115955199D01*
X137395122Y-115948495D01*
X137373367Y-115942133D01*
X137354689Y-115935867D01*
X137338384Y-115929453D01*
X137323744Y-115922646D01*
X137310063Y-115915202D01*
X137296635Y-115906874D01*
X137290746Y-115902950D01*
X137265683Y-115882443D01*
X137245009Y-115858147D01*
X137228923Y-115830569D01*
X137217626Y-115800216D01*
X137211314Y-115767594D01*
X137210188Y-115733208D01*
X137213076Y-115705251D01*
X137221487Y-115670800D01*
X137234934Y-115639457D01*
X137253245Y-115611353D01*
X137276246Y-115586618D01*
X137303766Y-115565382D01*
X137335632Y-115547776D01*
X137371670Y-115533931D01*
X137411707Y-115523976D01*
X137455572Y-115518041D01*
X137461918Y-115517545D01*
X137504175Y-115517402D01*
X137546793Y-115522754D01*
G37*
G36*
X136779127Y-114375960D02*
G01*
X136819156Y-114375988D01*
X136857047Y-114376033D01*
X136892396Y-114376094D01*
X136924802Y-114376168D01*
X136953860Y-114376256D01*
X136979169Y-114376356D01*
X137000325Y-114376466D01*
X137016927Y-114376585D01*
X137028571Y-114376712D01*
X137034855Y-114376846D01*
X137035885Y-114376927D01*
X137036878Y-114379882D01*
X137039686Y-114387758D01*
X137044051Y-114399847D01*
X137049717Y-114415440D01*
X137056426Y-114433827D01*
X137063920Y-114454298D01*
X137066002Y-114459971D01*
X137073633Y-114481023D01*
X137080454Y-114500336D01*
X137086217Y-114517170D01*
X137090677Y-114530787D01*
X137093585Y-114540446D01*
X137094696Y-114545409D01*
X137094665Y-114545827D01*
X137091269Y-114550074D01*
X137085361Y-114554759D01*
X137081306Y-114557175D01*
X137077943Y-114557701D01*
X137073982Y-114555746D01*
X137068135Y-114550719D01*
X137060448Y-114543323D01*
X137033642Y-114519297D01*
X137007740Y-114500422D01*
X136981811Y-114486132D01*
X136954925Y-114475864D01*
X136944295Y-114472908D01*
X136937891Y-114471472D01*
X136930787Y-114470314D01*
X136922283Y-114469406D01*
X136911679Y-114468717D01*
X136898276Y-114468219D01*
X136881374Y-114467881D01*
X136860273Y-114467675D01*
X136834273Y-114467571D01*
X136816867Y-114467546D01*
X136788285Y-114467549D01*
X136765064Y-114467628D01*
X136746565Y-114467811D01*
X136732150Y-114468125D01*
X136721179Y-114468598D01*
X136713012Y-114469256D01*
X136707013Y-114470128D01*
X136702540Y-114471240D01*
X136699000Y-114472600D01*
X136693862Y-114475125D01*
X136689681Y-114477990D01*
X136686358Y-114481799D01*
X136683794Y-114487159D01*
X136681892Y-114494675D01*
X136680553Y-114504953D01*
X136679679Y-114518599D01*
X136679170Y-114536218D01*
X136678930Y-114558415D01*
X136678859Y-114585798D01*
X136678857Y-114596616D01*
X136678857Y-114694464D01*
X136795116Y-114693254D01*
X136827622Y-114692873D01*
X136854709Y-114692418D01*
X136876959Y-114691814D01*
X136894954Y-114690987D01*
X136909275Y-114689863D01*
X136920504Y-114688367D01*
X136929223Y-114686424D01*
X136936014Y-114683961D01*
X136941457Y-114680903D01*
X136946136Y-114677176D01*
X136949917Y-114673455D01*
X136955621Y-114665837D01*
X136961657Y-114655239D01*
X136965378Y-114647132D01*
X136972541Y-114629471D01*
X136987711Y-114628564D01*
X137002882Y-114627657D01*
X137002882Y-114735822D01*
X137002882Y-114843987D01*
X136986706Y-114843987D01*
X136977280Y-114843749D01*
X136972166Y-114842525D01*
X136969678Y-114839550D01*
X136968529Y-114835737D01*
X136961899Y-114817085D01*
X136951867Y-114802917D01*
X136937904Y-114792780D01*
X136919484Y-114786223D01*
X136908239Y-114784117D01*
X136900242Y-114783396D01*
X136887121Y-114782733D01*
X136869750Y-114782150D01*
X136849006Y-114781668D01*
X136825763Y-114781309D01*
X136800897Y-114781095D01*
X136783115Y-114781042D01*
X136678857Y-114780982D01*
X136679026Y-114897242D01*
X136679102Y-114929108D01*
X136679271Y-114955525D01*
X136679596Y-114977044D01*
X136680141Y-114994217D01*
X136680970Y-115007594D01*
X136682145Y-115017726D01*
X136683731Y-115025165D01*
X136685791Y-115030463D01*
X136688389Y-115034169D01*
X136691587Y-115036836D01*
X136695358Y-115038968D01*
X136701035Y-115040277D01*
X136711923Y-115041376D01*
X136727236Y-115042267D01*
X136746188Y-115042950D01*
X136767994Y-115043430D01*
X136791866Y-115043708D01*
X136817020Y-115043787D01*
X136842669Y-115043668D01*
X136868028Y-115043355D01*
X136892310Y-115042848D01*
X136914730Y-115042151D01*
X136934502Y-115041266D01*
X136950840Y-115040196D01*
X136962958Y-115038941D01*
X136967510Y-115038180D01*
X136998352Y-115029950D01*
X137025742Y-115018576D01*
X137051065Y-115003294D01*
X137075702Y-114983335D01*
X137088454Y-114971103D01*
X137099708Y-114959893D01*
X137107618Y-114952428D01*
X137113005Y-114948138D01*
X137116690Y-114946449D01*
X137119494Y-114946790D01*
X137121546Y-114948056D01*
X137127733Y-114952408D01*
X137131160Y-114954581D01*
X137131638Y-114956841D01*
X137130499Y-114962443D01*
X137127609Y-114971765D01*
X137122835Y-114985187D01*
X137116045Y-115003091D01*
X137107104Y-115025854D01*
X137099395Y-115045133D01*
X137063862Y-115133510D01*
X136751350Y-115134274D01*
X136438838Y-115135038D01*
X136438838Y-115122015D01*
X136438838Y-115108992D01*
X136456116Y-115104188D01*
X136476737Y-115096295D01*
X136492387Y-115085296D01*
X136503424Y-115070839D01*
X136510208Y-115052572D01*
X136510618Y-115050746D01*
X136511260Y-115044758D01*
X136511830Y-115033091D01*
X136512328Y-115015707D01*
X136512754Y-114992570D01*
X136513110Y-114963643D01*
X136513395Y-114928887D01*
X136513610Y-114888265D01*
X136513755Y-114841741D01*
X136513831Y-114789277D01*
X136513844Y-114754780D01*
X136513836Y-114706960D01*
X136513810Y-114664762D01*
X136513757Y-114627810D01*
X136513673Y-114595724D01*
X136513551Y-114568127D01*
X136513384Y-114544642D01*
X136513165Y-114524890D01*
X136512890Y-114508493D01*
X136512550Y-114495074D01*
X136512140Y-114484254D01*
X136511654Y-114475657D01*
X136511085Y-114468903D01*
X136510426Y-114463616D01*
X136509671Y-114459417D01*
X136508814Y-114455929D01*
X136508794Y-114455854D01*
X136504145Y-114442746D01*
X136497797Y-114432108D01*
X136488871Y-114423217D01*
X136476491Y-114415353D01*
X136459777Y-114407794D01*
X136442588Y-114401444D01*
X136440111Y-114397777D01*
X136438885Y-114390112D01*
X136438838Y-114388046D01*
X136438838Y-114375951D01*
X136737361Y-114375951D01*
X136779127Y-114375960D01*
G37*
G36*
X138772098Y-115528818D02*
G01*
X138817213Y-115529064D01*
X138856794Y-115529318D01*
X138891310Y-115529604D01*
X138921228Y-115529949D01*
X138947015Y-115530380D01*
X138969139Y-115530921D01*
X138988068Y-115531598D01*
X139004269Y-115532438D01*
X139018209Y-115533467D01*
X139030356Y-115534710D01*
X139041177Y-115536193D01*
X139051140Y-115537942D01*
X139060712Y-115539983D01*
X139070362Y-115542342D01*
X139080555Y-115545045D01*
X139084493Y-115546119D01*
X139121349Y-115558632D01*
X139153541Y-115574654D01*
X139180974Y-115594096D01*
X139203557Y-115616870D01*
X139221196Y-115642887D01*
X139233797Y-115672059D01*
X139239447Y-115693678D01*
X139243659Y-115728098D01*
X139242639Y-115761836D01*
X139236545Y-115794137D01*
X139225538Y-115824243D01*
X139209777Y-115851397D01*
X139204815Y-115858014D01*
X139186357Y-115877184D01*
X139162851Y-115894777D01*
X139135145Y-115910313D01*
X139104091Y-115923314D01*
X139072040Y-115932934D01*
X139059259Y-115936262D01*
X139049274Y-115939224D01*
X139043121Y-115941484D01*
X139041761Y-115942674D01*
X139046202Y-115944531D01*
X139053881Y-115947193D01*
X139056544Y-115948045D01*
X139084109Y-115959578D01*
X139110807Y-115976711D01*
X139136328Y-115999023D01*
X139146449Y-116009286D01*
X139155334Y-116018945D01*
X139163594Y-116028853D01*
X139171842Y-116039862D01*
X139180691Y-116052824D01*
X139190755Y-116068592D01*
X139202644Y-116088018D01*
X139214445Y-116107709D01*
X139229876Y-116133137D01*
X139243267Y-116154075D01*
X139255262Y-116171400D01*
X139266504Y-116185988D01*
X139277638Y-116198716D01*
X139289307Y-116210461D01*
X139291154Y-116212202D01*
X139315142Y-116230996D01*
X139341147Y-116244587D01*
X139363149Y-116251491D01*
X139372295Y-116253733D01*
X139377028Y-116256055D01*
X139378802Y-116259797D01*
X139379069Y-116266167D01*
X139378754Y-116272240D01*
X139376984Y-116276362D01*
X139372523Y-116279838D01*
X139364136Y-116283974D01*
X139360770Y-116285493D01*
X139339793Y-116292775D01*
X139314707Y-116298022D01*
X139287096Y-116301106D01*
X139258543Y-116301896D01*
X139230628Y-116300262D01*
X139212556Y-116297651D01*
X139178242Y-116288848D01*
X139147417Y-116275666D01*
X139118991Y-116257602D01*
X139109549Y-116250152D01*
X139097470Y-116239487D01*
X139086270Y-116228057D01*
X139075499Y-116215187D01*
X139064708Y-116200206D01*
X139053445Y-116182441D01*
X139041261Y-116161221D01*
X139027706Y-116135874D01*
X139012329Y-116105725D01*
X139010757Y-116102587D01*
X138996680Y-116074901D01*
X138984508Y-116052147D01*
X138973789Y-116033735D01*
X138964074Y-116019076D01*
X138954911Y-116007584D01*
X138945848Y-115998670D01*
X138936436Y-115991746D01*
X138926223Y-115986223D01*
X138919236Y-115983223D01*
X138912953Y-115981000D01*
X138906131Y-115979314D01*
X138897757Y-115978064D01*
X138886821Y-115977148D01*
X138872312Y-115976466D01*
X138853218Y-115975917D01*
X138844078Y-115975711D01*
X138784625Y-115974444D01*
X138785719Y-116086519D01*
X138786037Y-116116104D01*
X138786377Y-116140318D01*
X138786770Y-116159792D01*
X138787250Y-116175154D01*
X138787846Y-116187036D01*
X138788590Y-116196066D01*
X138789515Y-116202875D01*
X138790651Y-116208093D01*
X138792030Y-116212345D01*
X138801635Y-116229381D01*
X138816245Y-116243196D01*
X138835737Y-116253677D01*
X138840768Y-116255560D01*
X138861528Y-116262798D01*
X138862443Y-116276450D01*
X138863357Y-116290101D01*
X138702516Y-116290101D01*
X138541675Y-116290101D01*
X138542589Y-116276420D01*
X138543503Y-116262740D01*
X138563861Y-116255905D01*
X138583109Y-116247279D01*
X138597407Y-116235773D01*
X138607318Y-116220875D01*
X138610191Y-116213822D01*
X138611082Y-116210970D01*
X138611867Y-116207579D01*
X138612554Y-116203276D01*
X138613150Y-116197691D01*
X138613660Y-116190452D01*
X138614091Y-116181188D01*
X138614451Y-116169528D01*
X138614744Y-116155102D01*
X138614979Y-116137537D01*
X138615160Y-116116462D01*
X138615296Y-116091507D01*
X138615392Y-116062300D01*
X138615454Y-116028470D01*
X138615490Y-115989645D01*
X138615506Y-115945456D01*
X138615509Y-115910571D01*
X138615503Y-115885069D01*
X138784698Y-115885069D01*
X138860616Y-115885017D01*
X138888891Y-115884862D01*
X138911806Y-115884418D01*
X138929997Y-115883659D01*
X138944099Y-115882553D01*
X138954747Y-115881073D01*
X138957040Y-115880620D01*
X138984887Y-115872435D01*
X139008165Y-115860538D01*
X139027195Y-115844699D01*
X139042295Y-115824684D01*
X139047474Y-115815118D01*
X139056878Y-115790523D01*
X139061945Y-115764793D01*
X139062792Y-115738938D01*
X139059537Y-115713972D01*
X139052294Y-115690907D01*
X139041182Y-115670756D01*
X139029253Y-115657106D01*
X139018140Y-115647895D01*
X139006353Y-115640486D01*
X138993120Y-115634704D01*
X138977668Y-115630376D01*
X138959225Y-115627326D01*
X138937018Y-115625381D01*
X138910275Y-115624365D01*
X138883184Y-115624101D01*
X138858698Y-115624188D01*
X138839459Y-115624593D01*
X138824717Y-115625469D01*
X138813719Y-115626968D01*
X138805715Y-115629242D01*
X138799954Y-115632442D01*
X138795684Y-115636721D01*
X138792155Y-115642231D01*
X138791972Y-115642564D01*
X138790575Y-115645550D01*
X138789426Y-115649295D01*
X138788495Y-115654402D01*
X138787752Y-115661474D01*
X138787166Y-115671112D01*
X138786707Y-115683920D01*
X138786345Y-115700500D01*
X138786048Y-115721454D01*
X138785788Y-115747384D01*
X138785610Y-115768810D01*
X138784698Y-115885069D01*
X138615503Y-115885069D01*
X138615497Y-115861324D01*
X138615459Y-115817727D01*
X138615390Y-115779427D01*
X138615284Y-115746075D01*
X138615136Y-115717318D01*
X138614942Y-115692807D01*
X138614696Y-115672189D01*
X138614393Y-115655113D01*
X138614029Y-115641229D01*
X138613599Y-115630185D01*
X138613096Y-115621630D01*
X138612518Y-115615213D01*
X138611857Y-115610584D01*
X138611187Y-115607646D01*
X138603211Y-115590613D01*
X138590246Y-115576509D01*
X138572764Y-115565783D01*
X138562996Y-115561994D01*
X138543503Y-115555619D01*
X138542580Y-115541616D01*
X138541657Y-115527613D01*
X138772098Y-115528818D01*
G37*
G36*
X134164659Y-113918415D02*
G01*
X134164659Y-114138932D01*
X134239665Y-114138932D01*
X134260167Y-114139018D01*
X134278532Y-114139260D01*
X134293958Y-114139634D01*
X134305640Y-114140115D01*
X134312776Y-114140680D01*
X134314671Y-114141182D01*
X134314100Y-114144485D01*
X134312461Y-114153097D01*
X134309867Y-114166447D01*
X134306431Y-114183960D01*
X134302267Y-114205064D01*
X134297485Y-114229186D01*
X134292200Y-114255753D01*
X134286525Y-114284191D01*
X134285725Y-114288194D01*
X134256778Y-114432955D01*
X134176273Y-114432955D01*
X134095768Y-114432955D01*
X134094195Y-114439706D01*
X134092973Y-114445333D01*
X134090789Y-114455789D01*
X134087791Y-114470343D01*
X134084125Y-114488264D01*
X134079940Y-114508823D01*
X134075381Y-114531288D01*
X134070598Y-114554929D01*
X134065736Y-114579015D01*
X134060944Y-114602816D01*
X134056369Y-114625601D01*
X134052158Y-114646639D01*
X134048458Y-114665201D01*
X134045417Y-114680554D01*
X134043182Y-114691970D01*
X134041901Y-114698717D01*
X134041649Y-114700256D01*
X134044520Y-114700979D01*
X134052615Y-114701684D01*
X134065159Y-114702339D01*
X134081375Y-114702912D01*
X134100488Y-114703368D01*
X134121721Y-114703675D01*
X134122032Y-114703678D01*
X134202414Y-114704476D01*
X134159925Y-114920493D01*
X134152742Y-114956919D01*
X134145672Y-114992580D01*
X134138836Y-115026891D01*
X134132351Y-115059264D01*
X134126336Y-115089114D01*
X134120909Y-115115852D01*
X134116189Y-115138893D01*
X134112295Y-115157650D01*
X134109345Y-115171535D01*
X134107846Y-115178297D01*
X134103637Y-115198615D01*
X134100087Y-115219521D01*
X134097559Y-115238690D01*
X134096567Y-115250303D01*
X134097114Y-115281569D01*
X134102476Y-115309289D01*
X134112686Y-115333506D01*
X134127779Y-115354263D01*
X134147790Y-115371606D01*
X134172753Y-115385577D01*
X134202701Y-115396220D01*
X134213008Y-115398851D01*
X134224892Y-115401567D01*
X134236036Y-115403898D01*
X134246996Y-115405874D01*
X134258329Y-115407524D01*
X134270593Y-115408877D01*
X134284344Y-115409962D01*
X134300138Y-115410809D01*
X134318533Y-115411446D01*
X134340086Y-115411903D01*
X134365352Y-115412210D01*
X134394890Y-115412395D01*
X134429256Y-115412487D01*
X134469007Y-115412516D01*
X134473536Y-115412516D01*
X134654902Y-115412532D01*
X134682656Y-115274521D01*
X134688278Y-115246502D01*
X134693525Y-115220232D01*
X134698279Y-115196308D01*
X134702423Y-115175325D01*
X134705840Y-115157880D01*
X134708412Y-115144567D01*
X134710023Y-115135982D01*
X134710556Y-115132760D01*
X134708993Y-115131110D01*
X134703707Y-115129971D01*
X134694023Y-115129275D01*
X134679266Y-115128954D01*
X134672449Y-115128917D01*
X134644459Y-115128438D01*
X134621738Y-115127043D01*
X134603603Y-115124573D01*
X134589371Y-115120869D01*
X134578358Y-115115773D01*
X134569881Y-115109125D01*
X134565504Y-115104026D01*
X134562857Y-115099778D01*
X134560859Y-115094681D01*
X134559561Y-115088308D01*
X134559018Y-115080231D01*
X134559283Y-115070022D01*
X134560410Y-115057255D01*
X134562451Y-115041500D01*
X134565460Y-115022331D01*
X134569491Y-114999320D01*
X134574597Y-114972040D01*
X134580831Y-114940062D01*
X134588247Y-114902960D01*
X134594418Y-114872490D01*
X134628576Y-114704476D01*
X134712708Y-114703680D01*
X134796840Y-114702884D01*
X134822777Y-114573170D01*
X134828197Y-114545951D01*
X134833232Y-114520437D01*
X134837763Y-114497251D01*
X134841670Y-114477020D01*
X134844833Y-114460369D01*
X134847131Y-114447923D01*
X134848444Y-114440308D01*
X134848713Y-114438206D01*
X134848352Y-114436650D01*
X134846834Y-114435435D01*
X134843504Y-114434518D01*
X134837708Y-114433859D01*
X134828793Y-114433415D01*
X134816104Y-114433144D01*
X134798987Y-114433006D01*
X134776789Y-114432958D01*
X134766206Y-114432955D01*
X134744658Y-114432874D01*
X134725209Y-114432644D01*
X134708625Y-114432287D01*
X134695673Y-114431826D01*
X134687117Y-114431281D01*
X134683725Y-114430674D01*
X134683699Y-114430615D01*
X134684284Y-114426475D01*
X134685944Y-114417264D01*
X134688537Y-114403674D01*
X134691920Y-114386397D01*
X134695951Y-114366127D01*
X134700489Y-114343555D01*
X134705390Y-114319374D01*
X134710514Y-114294276D01*
X134715717Y-114268953D01*
X134720858Y-114244098D01*
X134725794Y-114220403D01*
X134730384Y-114198560D01*
X134734484Y-114179261D01*
X134737953Y-114163199D01*
X134740649Y-114151066D01*
X134742429Y-114143555D01*
X134743108Y-114141329D01*
X134746424Y-114140953D01*
X134755278Y-114140614D01*
X134769206Y-114140316D01*
X134787747Y-114140062D01*
X134810436Y-114139855D01*
X134836812Y-114139698D01*
X134866411Y-114139594D01*
X134898771Y-114139548D01*
X134933429Y-114139561D01*
X134969922Y-114139638D01*
X134977891Y-114139663D01*
X135210241Y-114140432D01*
X135212005Y-114315946D01*
X135212393Y-114354206D01*
X135212761Y-114387018D01*
X135213156Y-114414933D01*
X135213625Y-114438502D01*
X135214216Y-114458276D01*
X135214975Y-114474808D01*
X135215950Y-114488649D01*
X135217187Y-114500350D01*
X135218734Y-114510462D01*
X135220637Y-114519537D01*
X135222944Y-114528127D01*
X135225702Y-114536783D01*
X135228958Y-114546056D01*
X135232474Y-114555715D01*
X135248720Y-114592408D01*
X135269407Y-114626104D01*
X135293984Y-114656028D01*
X135321093Y-114680773D01*
X135343678Y-114698476D01*
X135343715Y-114930994D01*
X135343751Y-115163513D01*
X135284497Y-115180489D01*
X135205704Y-115205349D01*
X135131213Y-115233515D01*
X135061160Y-115264905D01*
X134995678Y-115299434D01*
X134934903Y-115337017D01*
X134878971Y-115377570D01*
X134828015Y-115421011D01*
X134782172Y-115467253D01*
X134741576Y-115516213D01*
X134737868Y-115521177D01*
X134709228Y-115563133D01*
X134686202Y-115604222D01*
X134668595Y-115645068D01*
X134656210Y-115686296D01*
X134648849Y-115728529D01*
X134646317Y-115772392D01*
X134647533Y-115807680D01*
X134652361Y-115854242D01*
X134660049Y-115896536D01*
X134670862Y-115935703D01*
X134685065Y-115972885D01*
X134686758Y-115976707D01*
X134695459Y-115996098D01*
X134688829Y-116000441D01*
X134678727Y-116005715D01*
X134664458Y-116011402D01*
X134647768Y-116016911D01*
X134630405Y-116021651D01*
X134618337Y-116024280D01*
X134598577Y-116027181D01*
X134575360Y-116029256D01*
X134550836Y-116030419D01*
X134527152Y-116030581D01*
X134506457Y-116029656D01*
X134500403Y-116029069D01*
X134456180Y-116021040D01*
X134411656Y-116007153D01*
X134367087Y-115987526D01*
X134322729Y-115962276D01*
X134278838Y-115931521D01*
X134266667Y-115921938D01*
X134249665Y-115907242D01*
X134230443Y-115888996D01*
X134210273Y-115868529D01*
X134190425Y-115847174D01*
X134172168Y-115826261D01*
X134156773Y-115807120D01*
X134155653Y-115805638D01*
X134134624Y-115775715D01*
X134112249Y-115740131D01*
X134088616Y-115699053D01*
X134063818Y-115652644D01*
X134037944Y-115601072D01*
X134011086Y-115544500D01*
X134004203Y-115529541D01*
X133984033Y-115485700D01*
X133965924Y-115446964D01*
X133949632Y-115412899D01*
X133934912Y-115383070D01*
X133921520Y-115357042D01*
X133909211Y-115334383D01*
X133897739Y-115314656D01*
X133886862Y-115297428D01*
X133876332Y-115282265D01*
X133865907Y-115268731D01*
X133855341Y-115256393D01*
X133844389Y-115244816D01*
X133843018Y-115243439D01*
X133819215Y-115223164D01*
X133794265Y-115208778D01*
X133768206Y-115200287D01*
X133741078Y-115197697D01*
X133712918Y-115201016D01*
X133683765Y-115210249D01*
X133673114Y-115214984D01*
X133665684Y-115218751D01*
X133658597Y-115222955D01*
X133651278Y-115228109D01*
X133643152Y-115234727D01*
X133633643Y-115243321D01*
X133622175Y-115254406D01*
X133608173Y-115268494D01*
X133591061Y-115286100D01*
X133576885Y-115300833D01*
X133556271Y-115320197D01*
X133536386Y-115334149D01*
X133516285Y-115343038D01*
X133495020Y-115347213D01*
X133471645Y-115347024D01*
X133456966Y-115345088D01*
X133428862Y-115337319D01*
X133402116Y-115323769D01*
X133376850Y-115304529D01*
X133353189Y-115279690D01*
X133335099Y-115255250D01*
X133323663Y-115237051D01*
X133312326Y-115216823D01*
X133300734Y-115193829D01*
X133288533Y-115167328D01*
X133275368Y-115136582D01*
X133260885Y-115100853D01*
X133260153Y-115099008D01*
X133252193Y-115079336D01*
X133243909Y-115059617D01*
X133235912Y-115041252D01*
X133228812Y-115025644D01*
X133223222Y-115014193D01*
X133223070Y-115013903D01*
X133206897Y-114987236D01*
X133185654Y-114959468D01*
X133159139Y-114930362D01*
X133127150Y-114899680D01*
X133121610Y-114894697D01*
X133087111Y-114863427D01*
X133057508Y-114835539D01*
X133032809Y-114811040D01*
X133013024Y-114789939D01*
X132998161Y-114772247D01*
X132996806Y-114770482D01*
X132977303Y-114741032D01*
X132960705Y-114708396D01*
X132947660Y-114674194D01*
X132938818Y-114640050D01*
X132935487Y-114617167D01*
X132933694Y-114597968D01*
X133268654Y-114597968D01*
X133603614Y-114597968D01*
X133603614Y-114147933D01*
X133603614Y-113697897D01*
X133884137Y-113697897D01*
X134164659Y-113697897D01*
X134164659Y-113918415D01*
G37*
G36*
X138364473Y-114391656D02*
G01*
X138377873Y-114427152D01*
X138392108Y-114464702D01*
X138407025Y-114503918D01*
X138422476Y-114544410D01*
X138438308Y-114585792D01*
X138454372Y-114627674D01*
X138470517Y-114669669D01*
X138486593Y-114711388D01*
X138502448Y-114752442D01*
X138517932Y-114792445D01*
X138532895Y-114831006D01*
X138547185Y-114867739D01*
X138560653Y-114902255D01*
X138573148Y-114934165D01*
X138584519Y-114963081D01*
X138594615Y-114988616D01*
X138603287Y-115010380D01*
X138610382Y-115027986D01*
X138615751Y-115041045D01*
X138619244Y-115049169D01*
X138620522Y-115051761D01*
X138633121Y-115067844D01*
X138649329Y-115083346D01*
X138666923Y-115096283D01*
X138676264Y-115101526D01*
X138685097Y-115106099D01*
X138689800Y-115109825D01*
X138691672Y-115114407D01*
X138692015Y-115121547D01*
X138692015Y-115122134D01*
X138692015Y-115135010D01*
X138531502Y-115135010D01*
X138370990Y-115135010D01*
X138370990Y-115121843D01*
X138371296Y-115113608D01*
X138373151Y-115109446D01*
X138377957Y-115107432D01*
X138382101Y-115106592D01*
X138396786Y-115102166D01*
X138410498Y-115095129D01*
X138420494Y-115087002D01*
X138423595Y-115082552D01*
X138425404Y-115076669D01*
X138426216Y-115067784D01*
X138426339Y-115055931D01*
X138426130Y-115046780D01*
X138425434Y-115038632D01*
X138423958Y-115030329D01*
X138421408Y-115020715D01*
X138417491Y-115008635D01*
X138411913Y-114992932D01*
X138406802Y-114978998D01*
X138387420Y-114926494D01*
X138231377Y-114925717D01*
X138075334Y-114924941D01*
X138054756Y-114979722D01*
X138045508Y-115005211D01*
X138038768Y-115026006D01*
X138034406Y-115042803D01*
X138032296Y-115056298D01*
X138032309Y-115067188D01*
X138034318Y-115076170D01*
X138036243Y-115080580D01*
X138045344Y-115091823D01*
X138059636Y-115100299D01*
X138076163Y-115105426D01*
X138091968Y-115108963D01*
X138091968Y-115121987D01*
X138091968Y-115135010D01*
X137830947Y-115135010D01*
X137569927Y-115135010D01*
X137569927Y-115122174D01*
X137569927Y-115109337D01*
X137590621Y-115104006D01*
X137610086Y-115097123D01*
X137624032Y-115087945D01*
X137632439Y-115076506D01*
X137635287Y-115062843D01*
X137632557Y-115046990D01*
X137627839Y-115035639D01*
X137624885Y-115030608D01*
X137619151Y-115021634D01*
X137611062Y-115009335D01*
X137601042Y-114994327D01*
X137589515Y-114977229D01*
X137576906Y-114958657D01*
X137563638Y-114939230D01*
X137550138Y-114919564D01*
X137536828Y-114900278D01*
X137524133Y-114881988D01*
X137512479Y-114865312D01*
X137502288Y-114850868D01*
X137493985Y-114839273D01*
X137487995Y-114831144D01*
X137484743Y-114827099D01*
X137484286Y-114826774D01*
X137481936Y-114830245D01*
X137476804Y-114838121D01*
X137469315Y-114849737D01*
X137459892Y-114864425D01*
X137448960Y-114881518D01*
X137436943Y-114900350D01*
X137424264Y-114920254D01*
X137411348Y-114940563D01*
X137398619Y-114960610D01*
X137386500Y-114979729D01*
X137375416Y-114997253D01*
X137365790Y-115012514D01*
X137358047Y-115024848D01*
X137352611Y-115033585D01*
X137349905Y-115038060D01*
X137349750Y-115038345D01*
X137344890Y-115051401D01*
X137342857Y-115065060D01*
X137343968Y-115076841D01*
X137344596Y-115078755D01*
X137351276Y-115088047D01*
X137363647Y-115096231D01*
X137381474Y-115103160D01*
X137384662Y-115104098D01*
X137401914Y-115108992D01*
X137401914Y-115122001D01*
X137401914Y-115135010D01*
X137256402Y-115135010D01*
X137110891Y-115135010D01*
X137110891Y-115122069D01*
X137110891Y-115109127D01*
X137134473Y-115102313D01*
X137160759Y-115092745D01*
X137184007Y-115079796D01*
X137205366Y-115062661D01*
X137225983Y-115040535D01*
X137230341Y-115035160D01*
X137234941Y-115029098D01*
X137242606Y-115018671D01*
X137252950Y-115004422D01*
X137265581Y-114986892D01*
X137280112Y-114966622D01*
X137296154Y-114944154D01*
X137313317Y-114920031D01*
X137331214Y-114894793D01*
X137337063Y-114886525D01*
X137359258Y-114855005D01*
X137378463Y-114827452D01*
X137394590Y-114803997D01*
X137407551Y-114784774D01*
X137417255Y-114769914D01*
X137423616Y-114759550D01*
X137426544Y-114753814D01*
X137426694Y-114752723D01*
X137424579Y-114749625D01*
X137419311Y-114742086D01*
X137411212Y-114730559D01*
X137400600Y-114715497D01*
X137387796Y-114697355D01*
X137373119Y-114676584D01*
X137356890Y-114653639D01*
X137339427Y-114628972D01*
X137326908Y-114611300D01*
X137305855Y-114581738D01*
X137285904Y-114554004D01*
X137267383Y-114528544D01*
X137250622Y-114505801D01*
X137235951Y-114486218D01*
X137223700Y-114470241D01*
X137214198Y-114458313D01*
X137207775Y-114450879D01*
X137207768Y-114450871D01*
X137190882Y-114434554D01*
X137174678Y-114422473D01*
X137157297Y-114413431D01*
X137140143Y-114407217D01*
X137122892Y-114401857D01*
X137122892Y-114388904D01*
X137122892Y-114375951D01*
X137302906Y-114375951D01*
X137482920Y-114375951D01*
X137482920Y-114388884D01*
X137482920Y-114401818D01*
X137468382Y-114405544D01*
X137450127Y-114412441D01*
X137436978Y-114422279D01*
X137429090Y-114434738D01*
X137426618Y-114449500D01*
X137429717Y-114466245D01*
X137433937Y-114476355D01*
X137437378Y-114482453D01*
X137443434Y-114492294D01*
X137451648Y-114505194D01*
X137461560Y-114520471D01*
X137472713Y-114537444D01*
X137484648Y-114555429D01*
X137496906Y-114573744D01*
X137509030Y-114591708D01*
X137520561Y-114608636D01*
X137531041Y-114623847D01*
X137540011Y-114636659D01*
X137547013Y-114646389D01*
X137551588Y-114652355D01*
X137553229Y-114653957D01*
X137555482Y-114651354D01*
X137560679Y-114644314D01*
X137568433Y-114633392D01*
X137578358Y-114619141D01*
X137590068Y-114602118D01*
X137603177Y-114582876D01*
X137617298Y-114561970D01*
X137618434Y-114560281D01*
X137636327Y-114533566D01*
X137651049Y-114511276D01*
X137662846Y-114492899D01*
X137671963Y-114477927D01*
X137678644Y-114465851D01*
X137683137Y-114456160D01*
X137685685Y-114448346D01*
X137686534Y-114441899D01*
X137685929Y-114436309D01*
X137684116Y-114431067D01*
X137682358Y-114427516D01*
X137673253Y-114416588D01*
X137659660Y-114408494D01*
X137642677Y-114403877D01*
X137641821Y-114403757D01*
X137634436Y-114402466D01*
X137630995Y-114399995D01*
X137629991Y-114394482D01*
X137629931Y-114389057D01*
X137629931Y-114375951D01*
X137766442Y-114375951D01*
X137902953Y-114375951D01*
X137902953Y-114388861D01*
X137902953Y-114401772D01*
X137882701Y-114408307D01*
X137852619Y-114421137D01*
X137825173Y-114439262D01*
X137805968Y-114456814D01*
X137801737Y-114461848D01*
X137794461Y-114471188D01*
X137784569Y-114484247D01*
X137772484Y-114500436D01*
X137758635Y-114519168D01*
X137743446Y-114539853D01*
X137727345Y-114561903D01*
X137710758Y-114584731D01*
X137694110Y-114607748D01*
X137677828Y-114630365D01*
X137662339Y-114651994D01*
X137648068Y-114672047D01*
X137635442Y-114689936D01*
X137624888Y-114705072D01*
X137616830Y-114716867D01*
X137611696Y-114724733D01*
X137610927Y-114726004D01*
X137612292Y-114728911D01*
X137616802Y-114736203D01*
X137624111Y-114747388D01*
X137633872Y-114761969D01*
X137645741Y-114779454D01*
X137659371Y-114799347D01*
X137674416Y-114821154D01*
X137690531Y-114844381D01*
X137707369Y-114868532D01*
X137724585Y-114893115D01*
X137741833Y-114917633D01*
X137758766Y-114941593D01*
X137775040Y-114964501D01*
X137790307Y-114985861D01*
X137804223Y-115005180D01*
X137816442Y-115021962D01*
X137826616Y-115035715D01*
X137834401Y-115045942D01*
X137837229Y-115049504D01*
X137851976Y-115066012D01*
X137866314Y-115078949D01*
X137875021Y-115085010D01*
X137880107Y-115084738D01*
X137887367Y-115079892D01*
X137896177Y-115071205D01*
X137905916Y-115059412D01*
X137915962Y-115045246D01*
X137925690Y-115029444D01*
X137931956Y-115017845D01*
X137934571Y-115012075D01*
X137939217Y-115001108D01*
X137945739Y-114985336D01*
X137953979Y-114965149D01*
X137963780Y-114940937D01*
X137974986Y-114913092D01*
X137987440Y-114882004D01*
X138000985Y-114848064D01*
X138006485Y-114834237D01*
X138110630Y-114834237D01*
X138111458Y-114835203D01*
X138114974Y-114835999D01*
X138121624Y-114836638D01*
X138131856Y-114837136D01*
X138146116Y-114837505D01*
X138164851Y-114837760D01*
X138188509Y-114837914D01*
X138217535Y-114837981D01*
X138231158Y-114837987D01*
X138257536Y-114837930D01*
X138281951Y-114837767D01*
X138303771Y-114837511D01*
X138322367Y-114837173D01*
X138337108Y-114836767D01*
X138347365Y-114836305D01*
X138352506Y-114835799D01*
X138352988Y-114835585D01*
X138351990Y-114832548D01*
X138349141Y-114824485D01*
X138344663Y-114812001D01*
X138338776Y-114795701D01*
X138331703Y-114776190D01*
X138323664Y-114754074D01*
X138314880Y-114729958D01*
X138305573Y-114704447D01*
X138295963Y-114678146D01*
X138286271Y-114651662D01*
X138276719Y-114625599D01*
X138267527Y-114600562D01*
X138258917Y-114577156D01*
X138251110Y-114555988D01*
X138244326Y-114537661D01*
X138238787Y-114522782D01*
X138236772Y-114517405D01*
X138235892Y-114516679D01*
X138234389Y-114518038D01*
X138232109Y-114521852D01*
X138228900Y-114528486D01*
X138224608Y-114538308D01*
X138219081Y-114551686D01*
X138212165Y-114568987D01*
X138203707Y-114590578D01*
X138193554Y-114616826D01*
X138181554Y-114648099D01*
X138173026Y-114670417D01*
X138161764Y-114699930D01*
X138151129Y-114727810D01*
X138141317Y-114753546D01*
X138132522Y-114776625D01*
X138124939Y-114796535D01*
X138118764Y-114812764D01*
X138114191Y-114824799D01*
X138111416Y-114832130D01*
X138110630Y-114834237D01*
X138006485Y-114834237D01*
X138015464Y-114811662D01*
X138030720Y-114773189D01*
X138046597Y-114733036D01*
X138062938Y-114691593D01*
X138064953Y-114686475D01*
X138186587Y-114377451D01*
X138272556Y-114376655D01*
X138358524Y-114375859D01*
X138364473Y-114391656D01*
G37*
%TO.C,V-_TP1*%
D13*
X183750000Y-110500000D02*
G75*
G02*
X180250000Y-110500000I-1750000J0D01*
G01*
X180250000Y-110500000D02*
G75*
G02*
X183750000Y-110500000I1750000J0D01*
G01*
%TO.C,GND_TP1*%
X183750000Y-102500000D02*
G75*
G02*
X180250000Y-102500000I-1750000J0D01*
G01*
X180250000Y-102500000D02*
G75*
G02*
X183750000Y-102500000I1750000J0D01*
G01*
%TO.C,Power_In1*%
X151500000Y-80667500D02*
X151750000Y-82167500D01*
X151750000Y-82167500D02*
X153250000Y-82167500D01*
X153250000Y-82167500D02*
X153500000Y-80667500D01*
X153500000Y-80667500D02*
X151500000Y-80667500D01*
X156500000Y-80667500D02*
X156750000Y-82167500D01*
X156750000Y-82167500D02*
X158250000Y-82167500D01*
X157200000Y-93687500D02*
X157500000Y-93087500D01*
X157500000Y-93087500D02*
X157800000Y-93687500D01*
X157800000Y-93687500D02*
X157200000Y-93687500D01*
X158250000Y-82167500D02*
X158500000Y-80667500D01*
X158500000Y-80667500D02*
X156500000Y-80667500D01*
X148890000Y-82167500D02*
X161110000Y-82167500D01*
X161110000Y-83967500D01*
X148890000Y-83967500D01*
X148890000Y-82167500D01*
X148890000Y-80667500D02*
X161110000Y-80667500D01*
X161110000Y-92887500D01*
X148890000Y-92887500D01*
X148890000Y-80667500D01*
%TO.C,Vout_TP1*%
X161750000Y-120500000D02*
G75*
G02*
X158250000Y-120500000I-1750000J0D01*
G01*
X158250000Y-120500000D02*
G75*
G02*
X161750000Y-120500000I1750000J0D01*
G01*
%TO.C,VDD_TP1*%
X183250000Y-94000000D02*
G75*
G02*
X179750000Y-94000000I-1750000J0D01*
G01*
X179750000Y-94000000D02*
G75*
G02*
X183250000Y-94000000I1750000J0D01*
G01*
%TO.C,J1*%
X131350000Y-97000000D02*
X146350000Y-97000000D01*
X131350000Y-112000000D02*
X131350000Y-97000000D01*
X131550000Y-104500000D02*
X132550000Y-103500000D01*
X131550000Y-104500000D02*
X132550000Y-105500000D01*
X146350000Y-97000000D02*
X146350000Y-112000000D01*
X146350000Y-112000000D02*
X131350000Y-112000000D01*
%TO.C,Rf1*%
X170000000Y-101960000D02*
X170000000Y-102730000D01*
X170000000Y-110040000D02*
X170000000Y-109270000D01*
X168630000Y-102730000D02*
X171370000Y-102730000D01*
X171370000Y-109270000D01*
X168630000Y-109270000D01*
X168630000Y-102730000D01*
%TO.C,Rs2*%
X166260000Y-78090000D02*
X171280000Y-78090000D01*
X166260000Y-97310000D02*
X166260000Y-78090000D01*
X167480000Y-76570000D02*
X170060000Y-76570000D01*
X167480000Y-78090000D02*
X167480000Y-76570000D01*
X168770000Y-76570000D02*
X168770000Y-77330000D01*
X170060000Y-76570000D02*
X170060000Y-78090000D01*
X170060000Y-78090000D02*
X167480000Y-78090000D01*
X171280000Y-78090000D02*
X171280000Y-97310000D01*
X171280000Y-97310000D02*
X166260000Y-97310000D01*
%TO.C,SIG_IN_TP1*%
X152250000Y-120500000D02*
G75*
G02*
X148750000Y-120500000I-1750000J0D01*
G01*
X148750000Y-120500000D02*
G75*
G02*
X152250000Y-120500000I1750000J0D01*
G01*
%TO.C,C1*%
X159480000Y-95580000D02*
X163520000Y-95580000D01*
X159480000Y-96301000D02*
X159480000Y-95580000D01*
X159480000Y-98420000D02*
X159480000Y-97699000D01*
X163520000Y-95580000D02*
X163520000Y-96301000D01*
X163520000Y-97699000D02*
X163520000Y-98420000D01*
X163520000Y-98420000D02*
X159480000Y-98420000D01*
%TO.C,GND_TP2*%
X171250000Y-120500000D02*
G75*
G02*
X167750000Y-120500000I-1750000J0D01*
G01*
X167750000Y-120500000D02*
G75*
G02*
X171250000Y-120500000I1750000J0D01*
G01*
%TO.C,Rs1*%
X156460000Y-111500000D02*
X157230000Y-111500000D01*
X164540000Y-111500000D02*
X163770000Y-111500000D01*
X157230000Y-110130000D02*
X163770000Y-110130000D01*
X163770000Y-112870000D01*
X157230000Y-112870000D01*
X157230000Y-110130000D01*
%TO.C,U1*%
X158940000Y-101440000D02*
X159035000Y-101440000D01*
X158940000Y-105560000D02*
X158940000Y-101440000D01*
X159035000Y-105560000D02*
X158940000Y-105560000D01*
X163965000Y-101440000D02*
X164060000Y-101440000D01*
X164060000Y-101440000D02*
X164060000Y-105560000D01*
X164060000Y-105560000D02*
X163965000Y-105560000D01*
X159030000Y-106100000D02*
X158700000Y-106340000D01*
X158700000Y-105860000D01*
X159030000Y-106100000D01*
G36*
X159030000Y-106100000D02*
G01*
X158700000Y-106340000D01*
X158700000Y-105860000D01*
X159030000Y-106100000D01*
G37*
%TD*%
M02*
