M48
; DRILL file KiCad 10.0.6 date 2026-09-23T08:08:46
; FORMAT={-:-/ absolute / metric / decimal}
; #@! TF.CreationDate,2026-09-23T08:08:46-05:00
; #@! TF.GenerationSoftware,Kicad,Pcbnew,10.0.6
; #@! TF.FileFunction,Plated,1,2,PTH
FMAT,2
METRIC
; #@! TA.AperFunction,Plated,PTH,ComponentDrill
T1C0.800
; #@! TA.AperFunction,Plated,PTH,ComponentDrill
T2C0.890
; #@! TA.AperFunction,Plated,PTH,ComponentDrill
T3C1.000
; #@! TA.AperFunction,Plated,PTH,ComponentDrill
T4C1.400
; #@! TA.AperFunction,Plated,PTH,ComponentDrill
T5C1.600
; #@! TA.AperFunction,Plated,PTH,ComponentDrill
T6C2.010
; #@! TA.AperFunction,Plated,PTH,ViaDrill
T7C3.400
%
G90
G05
T1
X155.42Y-111.5
X160.25Y-97.0
X162.75Y-97.0
X165.58Y-111.5
X170.0Y-100.92
X170.0Y-111.08
T2
X144.05Y-104.5
X144.05Y-107.04
T3
X167.5Y-81.5
X167.5Y-94.2
X170.04Y-86.58
T4
X152.5Y-90.777
X157.5Y-90.777
T5
X150.5Y-120.5
X160.0Y-120.5
X169.5Y-120.5
X181.5Y-94.0
X182.0Y-102.5
X182.0Y-110.5
T6
X138.97Y-99.42
X138.97Y-109.58
T7
X136.5Y-81.5
X136.5Y-122.0
X181.5Y-81.3
X181.5Y-122.2
M30
