%TF.GenerationSoftware,KiCad,Pcbnew,10.0.6*%
%TF.CreationDate,2026-09-23T08:08:34-05:00*%
%TF.ProjectId,Lab_4_402_Gatik_Billava,4c61625f-345f-4343-9032-5f476174696b,rev?*%
%TF.SameCoordinates,Original*%
%TF.FileFunction,Copper,L1,Top*%
%TF.FilePolarity,Positive*%
%FSLAX46Y46*%
G04 Gerber Fmt 4.6, Leading zero omitted, Abs format (unit mm)*
G04 Created by KiCad (PCBNEW 10.0.6) date 2026-09-23 08:08:34*
%MOMM*%
%LPD*%
G01*
G04 APERTURE LIST*
G04 Aperture macros list*
%AMRoundRect*
0 Rectangle with rounded corners*
0 $1 Rounding radius*
0 $2 $3 $4 $5 $6 $7 $8 $9 X,Y pos of 4 corners*
0 Add a 4 corners polygon primitive as box body*
4,1,4,$2,$3,$4,$5,$6,$7,$8,$9,$2,$3,0*
0 Add four circle primitives for the rounded corners*
1,1,$1+$1,$2,$3*
1,1,$1+$1,$4,$5*
1,1,$1+$1,$6,$7*
1,1,$1+$1,$8,$9*
0 Add four rect primitives between the rounded corners*
20,1,$1+$1,$2,$3,$4,$5,0*
20,1,$1+$1,$4,$5,$6,$7,0*
20,1,$1+$1,$6,$7,$8,$9,0*
20,1,$1+$1,$8,$9,$2,$3,0*%
G04 Aperture macros list end*
%TA.AperFunction,ComponentPad*%
%ADD10C,2.800000*%
%TD*%
%TA.AperFunction,ComponentPad*%
%ADD11RoundRect,0.250000X0.750000X1.550000X-0.750000X1.550000X-0.750000X-1.550000X0.750000X-1.550000X0*%
%TD*%
%TA.AperFunction,ComponentPad*%
%ADD12O,2.000000X3.600000*%
%TD*%
%TA.AperFunction,ComponentPad*%
%ADD13O,2.500000X1.600000*%
%TD*%
%TA.AperFunction,ComponentPad*%
%ADD14O,7.000000X3.500000*%
%TD*%
%TA.AperFunction,ComponentPad*%
%ADD15C,1.600000*%
%TD*%
%TA.AperFunction,ComponentPad*%
%ADD16C,1.800000*%
%TD*%
%TA.AperFunction,SMDPad,CuDef*%
%ADD17RoundRect,0.150000X0.150000X-0.825000X0.150000X0.825000X-0.150000X0.825000X-0.150000X-0.825000X0*%
%TD*%
%TA.AperFunction,ViaPad*%
%ADD18C,4.000000*%
%TD*%
%TA.AperFunction,Conductor*%
%ADD19C,0.700000*%
%TD*%
G04 APERTURE END LIST*
D10*
%TO.P,V-_TP1,1,1_1*%
%TO.N,/V-*%
X182000000Y-110500000D03*
%TD*%
%TO.P,GND_TP1,1,1_1*%
%TO.N,/GND*%
X182000000Y-102500000D03*
%TD*%
D11*
%TO.P,Power_In1,1,Pin_1_1*%
%TO.N,/VDD*%
X157500000Y-90777500D03*
D12*
%TO.P,Power_In1,2,Pin_2_2*%
%TO.N,/GND*%
X152500000Y-90777500D03*
%TD*%
D10*
%TO.P,Vout_TP1,1,1_1*%
%TO.N,/Vout*%
X160000000Y-120500000D03*
%TD*%
%TO.P,VDD_TP1,1,1_1*%
%TO.N,/VDD*%
X181500000Y-94000000D03*
%TD*%
D13*
%TO.P,J1,1,In_1*%
%TO.N,/GND*%
X144050000Y-104500000D03*
D14*
%TO.P,J1,2,Ext_2*%
%TO.N,/SIG_IN*%
X138970000Y-109580000D03*
D13*
X144050000Y-107040000D03*
D14*
X138970000Y-99420000D03*
%TD*%
D15*
%TO.P,Rf1,1*%
%TO.N,/V-*%
X170000000Y-100920000D03*
%TO.P,Rf1,2*%
%TO.N,/Vout*%
X170000000Y-111080000D03*
%TD*%
D16*
%TO.P,Rs2,1,1_1*%
%TO.N,unconnected-(Rs2-Pad1)*%
X167500000Y-94200000D03*
%TO.P,Rs2,2,2_2*%
%TO.N,/SIG_IN*%
X170040000Y-86580000D03*
%TO.P,Rs2,3,3_3*%
%TO.N,/V-*%
X167500000Y-81500000D03*
%TD*%
D10*
%TO.P,SIG_IN_TP1,1,1_1*%
%TO.N,/SIG_IN*%
X150500000Y-120500000D03*
%TD*%
D15*
%TO.P,C1,1*%
%TO.N,/VDD*%
X160250000Y-97000000D03*
%TO.P,C1,2*%
%TO.N,/GND*%
X162750000Y-97000000D03*
%TD*%
D10*
%TO.P,GND_TP2,1,1_1*%
%TO.N,/GND*%
X169500000Y-120500000D03*
%TD*%
D15*
%TO.P,Rs1,1*%
%TO.N,/SIG_IN*%
X165580000Y-111500000D03*
%TO.P,Rs1,2*%
%TO.N,/V-*%
X155420000Y-111500000D03*
%TD*%
D17*
%TO.P,U1,1*%
%TO.N,/Vout*%
X159595000Y-105975000D03*
%TO.P,U1,2,-_2*%
%TO.N,/V-*%
X160865000Y-105975000D03*
%TO.P,U1,3,+_3*%
%TO.N,/6ND*%
X162135000Y-105975000D03*
%TO.P,U1,4,V-_4*%
%TO.N,/GND*%
X163405000Y-105975000D03*
%TO.P,U1,5,+_5*%
X163405000Y-101025000D03*
%TO.P,U1,6,-_6*%
%TO.N,/VDD*%
X162135000Y-101025000D03*
%TO.P,U1,7*%
%TO.N,unconnected-(U1-Pad7)*%
X160865000Y-101025000D03*
%TO.P,U1,8,V+_8*%
%TO.N,/VDD*%
X159595000Y-101025000D03*
%TD*%
D18*
%TO.N,*%
X136500000Y-122000000D03*
X136500000Y-81500000D03*
X181500000Y-122200000D03*
X181500000Y-81300000D03*
%TD*%
%TO.N,/V-*%
D19*
X160865000Y-107186370D02*
X160865000Y-105975000D01*
X172420000Y-100920000D02*
X170000000Y-100920000D01*
X160865000Y-105975000D02*
X160865000Y-106949999D01*
X182000000Y-110500000D02*
X172420000Y-100920000D01*
X167300000Y-81500000D02*
X167500000Y-81300000D01*
X155420000Y-111500000D02*
X156551370Y-111500000D01*
X170000000Y-101349106D02*
X170000000Y-100920000D01*
X163849106Y-107500000D02*
X170000000Y-101349106D01*
X167000000Y-91500000D02*
X166000000Y-90500000D01*
X170000000Y-94000000D02*
X167500000Y-91500000D01*
X161415001Y-107500000D02*
X163849106Y-107500000D01*
X170000000Y-100920000D02*
X170000000Y-94000000D01*
X167500000Y-91500000D02*
X167000000Y-91500000D01*
X166000000Y-90500000D02*
X166000000Y-81500000D01*
X156551370Y-111500000D02*
X160865000Y-107186370D01*
X160865000Y-106949999D02*
X161415001Y-107500000D01*
X166000000Y-81500000D02*
X167300000Y-81500000D01*
%TO.N,/GND*%
X162750000Y-97000000D02*
X163405000Y-97655000D01*
X163405000Y-101025000D02*
X163405000Y-105975000D01*
X152500000Y-90777500D02*
X154850000Y-88427500D01*
X154850000Y-88427500D02*
X158927500Y-88427500D01*
X158927500Y-88427500D02*
X162750000Y-92250000D01*
X162750000Y-92250000D02*
X162750000Y-97000000D01*
X163405000Y-97655000D02*
X163405000Y-101025000D01*
%TO.N,/VDD*%
X167500000Y-85000000D02*
X172500000Y-80000000D01*
X172500000Y-80000000D02*
X172000000Y-79500000D01*
X162135000Y-98885000D02*
X160250000Y-97000000D01*
X151857969Y-93127500D02*
X155150000Y-93127500D01*
X167500000Y-88500000D02*
X167500000Y-85000000D01*
X157500000Y-90777500D02*
X157500000Y-94250000D01*
X150950000Y-89335469D02*
X150950000Y-92219531D01*
X155150000Y-93127500D02*
X157500000Y-90777500D01*
X181500000Y-94000000D02*
X173000000Y-94000000D01*
X172000000Y-79500000D02*
X160785469Y-79500000D01*
X159595000Y-97655000D02*
X160250000Y-97000000D01*
X150950000Y-92219531D02*
X151857969Y-93127500D01*
X173000000Y-94000000D02*
X167500000Y-88500000D01*
X160785469Y-79500000D02*
X150950000Y-89335469D01*
X160250000Y-97000000D02*
X160680000Y-96570000D01*
X162135000Y-101025000D02*
X162135000Y-98885000D01*
X159595000Y-101025000D02*
X159595000Y-97655000D01*
X157500000Y-94250000D02*
X160250000Y-97000000D01*
%TO.N,/Vout*%
X159035811Y-105975000D02*
X159595000Y-105975000D01*
X154070000Y-112059189D02*
X154070000Y-110940811D01*
X170000000Y-111080000D02*
X168230000Y-112850000D01*
X154070000Y-110940811D02*
X159035811Y-105975000D01*
X154860811Y-112850000D02*
X154070000Y-112059189D01*
X155500000Y-116000000D02*
X155500000Y-112850000D01*
X168230000Y-112850000D02*
X155500000Y-112850000D01*
X160000000Y-120500000D02*
X155500000Y-116000000D01*
X155500000Y-112850000D02*
X154860811Y-112850000D01*
%TO.N,/SIG_IN*%
X150500000Y-120500000D02*
X152450000Y-122450000D01*
X177880000Y-86380000D02*
X186000000Y-94500000D01*
X167350000Y-109730000D02*
X165580000Y-111500000D01*
X139970000Y-109660000D02*
X139970000Y-109970000D01*
X152450000Y-122450000D02*
X160807717Y-122450000D01*
X145050000Y-107120000D02*
X142510000Y-107120000D01*
X139000000Y-109660000D02*
X139660000Y-109660000D01*
X186000000Y-94500000D02*
X186000000Y-113500000D01*
X139970000Y-104580000D02*
X142510000Y-107120000D01*
X139970000Y-109970000D02*
X150500000Y-120500000D01*
X160807717Y-122450000D02*
X171350000Y-111907717D01*
X142510000Y-107120000D02*
X139970000Y-109660000D01*
X171350000Y-110520811D02*
X170559189Y-109730000D01*
X170040000Y-86380000D02*
X177880000Y-86380000D01*
X172942283Y-113500000D02*
X171350000Y-111907717D01*
X170559189Y-109730000D02*
X167350000Y-109730000D01*
X139000000Y-109660000D02*
X141540000Y-109660000D01*
X171350000Y-111907717D02*
X171350000Y-110520811D01*
X186000000Y-113500000D02*
X172942283Y-113500000D01*
X139970000Y-99500000D02*
X139970000Y-104580000D01*
%TD*%
M02*
