%TF.GenerationSoftware,KiCad,Pcbnew,10.0.6*%
%TF.CreationDate,2026-09-23T08:08:34-05:00*%
%TF.ProjectId,Lab_4_402_Gatik_Billava,4c61625f-345f-4343-9032-5f476174696b,rev?*%
%TF.SameCoordinates,Original*%
%TF.FileFunction,Copper,L2,Bot*%
%TF.FilePolarity,Positive*%
%FSLAX46Y46*%
G04 Gerber Fmt 4.6, Leading zero omitted, Abs format (unit mm)*
G04 Created by KiCad (PCBNEW 10.0.6) date 2026-09-23 08:08:34*
%MOMM*%
%LPD*%
G01*
G04 APERTURE LIST*
G04 Aperture macros list*
%AMRoundRect*
0 Rectangle with rounded corners*
0 $1 Rounding radius*
0 $2 $3 $4 $5 $6 $7 $8 $9 X,Y pos of 4 corners*
0 Add a 4 corners polygon primitive as box body*
4,1,4,$2,$3,$4,$5,$6,$7,$8,$9,$2,$3,0*
0 Add four circle primitives for the rounded corners*
1,1,$1+$1,$2,$3*
1,1,$1+$1,$4,$5*
1,1,$1+$1,$6,$7*
1,1,$1+$1,$8,$9*
0 Add four rect primitives between the rounded corners*
20,1,$1+$1,$2,$3,$4,$5,0*
20,1,$1+$1,$4,$5,$6,$7,0*
20,1,$1+$1,$6,$7,$8,$9,0*
20,1,$1+$1,$8,$9,$2,$3,0*%
G04 Aperture macros list end*
%TA.AperFunction,NonConductor*%
%ADD10C,0.200000*%
%TD*%
%TA.AperFunction,ComponentPad*%
%ADD11C,2.800000*%
%TD*%
%TA.AperFunction,ComponentPad*%
%ADD12RoundRect,0.250000X0.750000X1.550000X-0.750000X1.550000X-0.750000X-1.550000X0.750000X-1.550000X0*%
%TD*%
%TA.AperFunction,ComponentPad*%
%ADD13O,2.000000X3.600000*%
%TD*%
%TA.AperFunction,ComponentPad*%
%ADD14O,2.500000X1.600000*%
%TD*%
%TA.AperFunction,ComponentPad*%
%ADD15O,7.000000X3.500000*%
%TD*%
%TA.AperFunction,ComponentPad*%
%ADD16C,1.600000*%
%TD*%
%TA.AperFunction,ComponentPad*%
%ADD17C,1.800000*%
%TD*%
%TA.AperFunction,ViaPad*%
%ADD18C,4.000000*%
%TD*%
G04 APERTURE END LIST*
D10*
X132000000Y-78500000D02*
X188000000Y-78500000D01*
X188000000Y-125000000D01*
X132000000Y-125000000D01*
X132000000Y-78500000D01*
D11*
%TO.P,V-_TP1,1,1_1*%
%TO.N,/V-*%
X182000000Y-110500000D03*
%TD*%
%TO.P,GND_TP1,1,1_1*%
%TO.N,/GND*%
X182000000Y-102500000D03*
%TD*%
D12*
%TO.P,Power_In1,1,Pin_1_1*%
%TO.N,/VDD*%
X157500000Y-90777500D03*
D13*
%TO.P,Power_In1,2,Pin_2_2*%
%TO.N,/GND*%
X152500000Y-90777500D03*
%TD*%
D11*
%TO.P,Vout_TP1,1,1_1*%
%TO.N,/Vout*%
X160000000Y-120500000D03*
%TD*%
%TO.P,VDD_TP1,1,1_1*%
%TO.N,/VDD*%
X181500000Y-94000000D03*
%TD*%
D14*
%TO.P,J1,1,In_1*%
%TO.N,/GND*%
X144050000Y-104500000D03*
D15*
%TO.P,J1,2,Ext_2*%
%TO.N,/SIG_IN*%
X138970000Y-109580000D03*
D14*
X144050000Y-107040000D03*
D15*
X138970000Y-99420000D03*
%TD*%
D16*
%TO.P,Rf1,1*%
%TO.N,/V-*%
X170000000Y-100920000D03*
%TO.P,Rf1,2*%
%TO.N,/Vout*%
X170000000Y-111080000D03*
%TD*%
D17*
%TO.P,Rs2,1,1_1*%
%TO.N,unconnected-(Rs2-Pad1)*%
X167500000Y-94200000D03*
%TO.P,Rs2,2,2_2*%
%TO.N,/SIG_IN*%
X170040000Y-86580000D03*
%TO.P,Rs2,3,3_3*%
%TO.N,/V-*%
X167500000Y-81500000D03*
%TD*%
D11*
%TO.P,SIG_IN_TP1,1,1_1*%
%TO.N,/SIG_IN*%
X150500000Y-120500000D03*
%TD*%
D16*
%TO.P,C1,1*%
%TO.N,/VDD*%
X160250000Y-97000000D03*
%TO.P,C1,2*%
%TO.N,/GND*%
X162750000Y-97000000D03*
%TD*%
D11*
%TO.P,GND_TP2,1,1_1*%
%TO.N,/GND*%
X169500000Y-120500000D03*
%TD*%
D16*
%TO.P,Rs1,1*%
%TO.N,/SIG_IN*%
X165580000Y-111500000D03*
%TO.P,Rs1,2*%
%TO.N,/V-*%
X155420000Y-111500000D03*
%TD*%
D18*
%TO.N,*%
X136500000Y-122000000D03*
X136500000Y-81500000D03*
X181500000Y-122200000D03*
X181500000Y-81300000D03*
%TD*%
%TA.AperFunction,Conductor*%
%TO.N,/GND*%
G36*
X135255502Y-79120185D02*
G01*
X135301257Y-79172989D01*
X135311201Y-79242147D01*
X135282176Y-79305703D01*
X135254435Y-79329494D01*
X135050753Y-79457476D01*
X134831175Y-79632583D01*
X134632583Y-79831175D01*
X134457476Y-80050753D01*
X134308053Y-80288557D01*
X134186200Y-80541588D01*
X134093443Y-80806670D01*
X134093439Y-80806682D01*
X134030945Y-81080487D01*
X134030942Y-81080505D01*
X133999500Y-81359568D01*
X133999500Y-81640431D01*
X134030942Y-81919494D01*
X134030945Y-81919512D01*
X134093439Y-82193317D01*
X134093443Y-82193329D01*
X134186200Y-82458411D01*
X134308053Y-82711442D01*
X134308055Y-82711445D01*
X134457477Y-82949248D01*
X134632584Y-83168825D01*
X134831175Y-83367416D01*
X135050752Y-83542523D01*
X135288555Y-83691945D01*
X135541592Y-83813801D01*
X135740680Y-83883465D01*
X135806670Y-83906556D01*
X135806682Y-83906560D01*
X136080491Y-83969055D01*
X136080497Y-83969055D01*
X136080505Y-83969057D01*
X136266547Y-83990018D01*
X136359569Y-84000499D01*
X136359572Y-84000500D01*
X136359575Y-84000500D01*
X136640428Y-84000500D01*
X136640429Y-84000499D01*
X136783055Y-83984429D01*
X136919494Y-83969057D01*
X136919499Y-83969056D01*
X136919509Y-83969055D01*
X137193318Y-83906560D01*
X137458408Y-83813801D01*
X137711445Y-83691945D01*
X137949248Y-83542523D01*
X138168825Y-83367416D01*
X138367416Y-83168825D01*
X138542523Y-82949248D01*
X138691945Y-82711445D01*
X138813801Y-82458408D01*
X138906560Y-82193318D01*
X138969055Y-81919509D01*
X139000500Y-81640425D01*
X139000500Y-81389778D01*
X166099500Y-81389778D01*
X166099500Y-81610221D01*
X166133985Y-81827952D01*
X166202103Y-82037603D01*
X166202104Y-82037606D01*
X166302187Y-82234025D01*
X166431752Y-82412358D01*
X166431756Y-82412363D01*
X166587636Y-82568243D01*
X166587641Y-82568247D01*
X166743192Y-82681260D01*
X166765978Y-82697815D01*
X166866916Y-82749246D01*
X166962393Y-82797895D01*
X166962396Y-82797896D01*
X167067221Y-82831955D01*
X167172049Y-82866015D01*
X167389778Y-82900500D01*
X167389779Y-82900500D01*
X167610221Y-82900500D01*
X167610222Y-82900500D01*
X167827951Y-82866015D01*
X168037606Y-82797895D01*
X168234022Y-82697815D01*
X168412365Y-82568242D01*
X168568242Y-82412365D01*
X168697815Y-82234022D01*
X168797895Y-82037606D01*
X168866015Y-81827951D01*
X168900500Y-81610222D01*
X168900500Y-81389778D01*
X168866015Y-81172049D01*
X168797895Y-80962394D01*
X168797895Y-80962393D01*
X168756161Y-80880487D01*
X168697815Y-80765978D01*
X168681260Y-80743192D01*
X168568247Y-80587641D01*
X168568243Y-80587636D01*
X168412363Y-80431756D01*
X168412358Y-80431752D01*
X168234025Y-80302187D01*
X168234024Y-80302186D01*
X168234022Y-80302185D01*
X168171096Y-80270122D01*
X168037606Y-80202104D01*
X168037603Y-80202103D01*
X167827952Y-80133985D01*
X167719086Y-80116742D01*
X167610222Y-80099500D01*
X167389778Y-80099500D01*
X167317201Y-80110995D01*
X167172047Y-80133985D01*
X166962396Y-80202103D01*
X166962393Y-80202104D01*
X166765974Y-80302187D01*
X166587641Y-80431752D01*
X166587636Y-80431756D01*
X166431756Y-80587636D01*
X166431752Y-80587641D01*
X166302187Y-80765974D01*
X166202104Y-80962393D01*
X166202103Y-80962396D01*
X166133985Y-81172047D01*
X166099500Y-81389778D01*
X139000500Y-81389778D01*
X139000500Y-81359575D01*
X138969055Y-81080491D01*
X138906560Y-80806682D01*
X138813801Y-80541592D01*
X138691945Y-80288555D01*
X138542523Y-80050752D01*
X138367416Y-79831175D01*
X138168825Y-79632584D01*
X137949248Y-79457477D01*
X137745565Y-79329494D01*
X137699274Y-79277159D01*
X137688626Y-79208106D01*
X137717001Y-79144257D01*
X137775391Y-79105885D01*
X137811537Y-79100500D01*
X179893223Y-79100500D01*
X179960262Y-79120185D01*
X180006017Y-79172989D01*
X180015961Y-79242147D01*
X179986936Y-79305703D01*
X179970536Y-79321447D01*
X179831175Y-79432583D01*
X179632583Y-79631175D01*
X179457476Y-79850753D01*
X179308053Y-80088557D01*
X179186200Y-80341588D01*
X179093443Y-80606670D01*
X179093439Y-80606682D01*
X179030945Y-80880487D01*
X179030942Y-80880505D01*
X178999500Y-81159568D01*
X178999500Y-81440431D01*
X179030942Y-81719494D01*
X179030945Y-81719512D01*
X179093439Y-81993317D01*
X179093443Y-81993329D01*
X179186200Y-82258411D01*
X179308053Y-82511442D01*
X179308055Y-82511445D01*
X179457477Y-82749248D01*
X179632584Y-82968825D01*
X179831175Y-83167416D01*
X180050752Y-83342523D01*
X180288555Y-83491945D01*
X180541592Y-83613801D01*
X180740680Y-83683465D01*
X180806670Y-83706556D01*
X180806682Y-83706560D01*
X181080491Y-83769055D01*
X181080497Y-83769055D01*
X181080505Y-83769057D01*
X181266547Y-83790018D01*
X181359569Y-83800499D01*
X181359572Y-83800500D01*
X181359575Y-83800500D01*
X181640428Y-83800500D01*
X181640429Y-83800499D01*
X181783055Y-83784429D01*
X181919494Y-83769057D01*
X181919499Y-83769056D01*
X181919509Y-83769055D01*
X182193318Y-83706560D01*
X182458408Y-83613801D01*
X182711445Y-83491945D01*
X182949248Y-83342523D01*
X183168825Y-83167416D01*
X183367416Y-82968825D01*
X183542523Y-82749248D01*
X183691945Y-82511445D01*
X183813801Y-82258408D01*
X183906560Y-81993318D01*
X183969055Y-81719509D01*
X184000500Y-81440425D01*
X184000500Y-81159575D01*
X183990018Y-81066547D01*
X183969057Y-80880505D01*
X183969054Y-80880487D01*
X183906560Y-80606682D01*
X183906556Y-80606670D01*
X183845351Y-80431758D01*
X183813801Y-80341592D01*
X183691945Y-80088555D01*
X183542523Y-79850752D01*
X183367416Y-79631175D01*
X183168825Y-79432584D01*
X183039554Y-79329494D01*
X183029464Y-79321447D01*
X182989324Y-79264259D01*
X182986474Y-79194447D01*
X183021819Y-79134177D01*
X183084138Y-79102584D01*
X183106777Y-79100500D01*
X187275500Y-79100500D01*
X187342539Y-79120185D01*
X187388294Y-79172989D01*
X187399500Y-79224500D01*
X187399500Y-124275500D01*
X187379815Y-124342539D01*
X187327011Y-124388294D01*
X187275500Y-124399500D01*
X183106777Y-124399500D01*
X183039738Y-124379815D01*
X182993983Y-124327011D01*
X182984039Y-124257853D01*
X183013064Y-124194297D01*
X183029464Y-124178553D01*
X183056641Y-124156879D01*
X183168825Y-124067416D01*
X183367416Y-123868825D01*
X183542523Y-123649248D01*
X183691945Y-123411445D01*
X183813801Y-123158408D01*
X183906560Y-122893318D01*
X183969055Y-122619509D01*
X184000500Y-122340425D01*
X184000500Y-122059575D01*
X183969055Y-121780491D01*
X183906560Y-121506682D01*
X183813801Y-121241592D01*
X183691945Y-120988555D01*
X183542523Y-120750752D01*
X183367416Y-120531175D01*
X183168825Y-120332584D01*
X182949248Y-120157477D01*
X182711445Y-120008055D01*
X182711442Y-120008053D01*
X182458411Y-119886200D01*
X182193329Y-119793443D01*
X182193317Y-119793439D01*
X181919512Y-119730945D01*
X181919494Y-119730942D01*
X181640431Y-119699500D01*
X181640425Y-119699500D01*
X181359575Y-119699500D01*
X181359568Y-119699500D01*
X181080505Y-119730942D01*
X181080487Y-119730945D01*
X180806682Y-119793439D01*
X180806670Y-119793443D01*
X180541588Y-119886200D01*
X180288557Y-120008053D01*
X180050753Y-120157476D01*
X179831175Y-120332583D01*
X179632583Y-120531175D01*
X179457476Y-120750753D01*
X179308053Y-120988557D01*
X179186200Y-121241588D01*
X179093443Y-121506670D01*
X179093439Y-121506682D01*
X179030945Y-121780487D01*
X179030942Y-121780505D01*
X178999500Y-122059568D01*
X178999500Y-122340431D01*
X179030942Y-122619494D01*
X179030945Y-122619512D01*
X179093439Y-122893317D01*
X179093443Y-122893329D01*
X179186200Y-123158411D01*
X179308053Y-123411442D01*
X179308055Y-123411445D01*
X179457477Y-123649248D01*
X179588113Y-123813060D01*
X179632583Y-123868824D01*
X179831175Y-124067416D01*
X179970536Y-124178553D01*
X180010676Y-124235741D01*
X180013526Y-124305553D01*
X179978181Y-124365823D01*
X179915862Y-124397416D01*
X179893223Y-124399500D01*
X137811537Y-124399500D01*
X137744498Y-124379815D01*
X137698743Y-124327011D01*
X137688799Y-124257853D01*
X137717824Y-124194297D01*
X137745565Y-124170506D01*
X137758414Y-124162431D01*
X137949248Y-124042523D01*
X138168825Y-123867416D01*
X138367416Y-123668825D01*
X138542523Y-123449248D01*
X138691945Y-123211445D01*
X138813801Y-122958408D01*
X138906560Y-122693318D01*
X138969055Y-122419509D01*
X139000500Y-122140425D01*
X139000500Y-121859575D01*
X138969055Y-121580491D01*
X138906560Y-121306682D01*
X138893464Y-121269257D01*
X138838455Y-121112049D01*
X138813801Y-121041592D01*
X138691945Y-120788555D01*
X138542523Y-120550752D01*
X138402717Y-120375441D01*
X148599500Y-120375441D01*
X148599500Y-120624558D01*
X148599501Y-120624575D01*
X148632017Y-120871561D01*
X148696498Y-121112207D01*
X148791830Y-121342361D01*
X148791837Y-121342376D01*
X148916400Y-121558126D01*
X149068060Y-121755774D01*
X149068066Y-121755781D01*
X149244218Y-121931933D01*
X149244225Y-121931939D01*
X149441873Y-122083599D01*
X149657623Y-122208162D01*
X149657638Y-122208169D01*
X149756825Y-122249253D01*
X149887793Y-122303502D01*
X150128435Y-122367982D01*
X150375435Y-122400500D01*
X150375442Y-122400500D01*
X150624558Y-122400500D01*
X150624565Y-122400500D01*
X150871565Y-122367982D01*
X151112207Y-122303502D01*
X151342373Y-122208164D01*
X151558127Y-122083599D01*
X151755776Y-121931938D01*
X151931938Y-121755776D01*
X152083599Y-121558127D01*
X152208164Y-121342373D01*
X152303502Y-121112207D01*
X152367982Y-120871565D01*
X152400500Y-120624565D01*
X152400500Y-120375441D01*
X158099500Y-120375441D01*
X158099500Y-120624558D01*
X158099501Y-120624575D01*
X158132017Y-120871561D01*
X158196498Y-121112207D01*
X158291830Y-121342361D01*
X158291837Y-121342376D01*
X158416400Y-121558126D01*
X158568060Y-121755774D01*
X158568066Y-121755781D01*
X158744218Y-121931933D01*
X158744225Y-121931939D01*
X158941873Y-122083599D01*
X159157623Y-122208162D01*
X159157638Y-122208169D01*
X159256825Y-122249253D01*
X159387793Y-122303502D01*
X159628435Y-122367982D01*
X159875435Y-122400500D01*
X159875442Y-122400500D01*
X160124558Y-122400500D01*
X160124565Y-122400500D01*
X160371565Y-122367982D01*
X160612207Y-122303502D01*
X160842373Y-122208164D01*
X161058127Y-122083599D01*
X161255776Y-121931938D01*
X161255781Y-121931933D01*
X161314750Y-121872965D01*
X161431933Y-121755781D01*
X161431938Y-121755776D01*
X161583599Y-121558127D01*
X161708164Y-121342373D01*
X161803502Y-121112207D01*
X161867982Y-120871565D01*
X161900500Y-120624565D01*
X161900500Y-120375466D01*
X167600000Y-120375466D01*
X167600000Y-120624533D01*
X167632508Y-120871463D01*
X167696973Y-121112049D01*
X167792283Y-121342148D01*
X167792288Y-121342159D01*
X167916813Y-121557841D01*
X167916819Y-121557849D01*
X167991400Y-121655045D01*
X168784152Y-120862292D01*
X168791049Y-120878942D01*
X168878599Y-121009970D01*
X168990030Y-121121401D01*
X169121058Y-121208951D01*
X169137705Y-121215846D01*
X168344953Y-122008598D01*
X168442150Y-122083180D01*
X168442158Y-122083186D01*
X168657840Y-122207711D01*
X168657851Y-122207716D01*
X168887950Y-122303026D01*
X169128536Y-122367491D01*
X169375466Y-122400000D01*
X169624534Y-122400000D01*
X169871463Y-122367491D01*
X170112049Y-122303026D01*
X170342148Y-122207716D01*
X170342159Y-122207711D01*
X170557855Y-122083178D01*
X170655045Y-122008600D01*
X170655045Y-122008597D01*
X169862294Y-121215846D01*
X169878942Y-121208951D01*
X170009970Y-121121401D01*
X170121401Y-121009970D01*
X170208951Y-120878942D01*
X170215846Y-120862294D01*
X171008597Y-121655045D01*
X171008600Y-121655045D01*
X171083178Y-121557855D01*
X171207711Y-121342159D01*
X171207716Y-121342148D01*
X171303026Y-121112049D01*
X171367491Y-120871463D01*
X171400000Y-120624533D01*
X171400000Y-120375466D01*
X171367491Y-120128536D01*
X171303026Y-119887950D01*
X171207716Y-119657851D01*
X171207711Y-119657840D01*
X171083186Y-119442158D01*
X171083180Y-119442150D01*
X171008598Y-119344953D01*
X170215846Y-120137705D01*
X170208951Y-120121058D01*
X170121401Y-119990030D01*
X170009970Y-119878599D01*
X169878942Y-119791049D01*
X169862292Y-119784152D01*
X170655045Y-118991400D01*
X170557849Y-118916819D01*
X170557841Y-118916813D01*
X170342159Y-118792288D01*
X170342148Y-118792283D01*
X170112049Y-118696973D01*
X169871463Y-118632508D01*
X169624534Y-118600000D01*
X169375466Y-118600000D01*
X169128536Y-118632508D01*
X168887950Y-118696973D01*
X168657851Y-118792283D01*
X168657847Y-118792285D01*
X168442143Y-118916823D01*
X168344953Y-118991399D01*
X168344953Y-118991400D01*
X169137706Y-119784153D01*
X169121058Y-119791049D01*
X168990030Y-119878599D01*
X168878599Y-119990030D01*
X168791049Y-120121058D01*
X168784153Y-120137706D01*
X167991400Y-119344953D01*
X167991399Y-119344953D01*
X167916823Y-119442143D01*
X167792285Y-119657847D01*
X167792283Y-119657851D01*
X167696973Y-119887950D01*
X167632508Y-120128536D01*
X167600000Y-120375466D01*
X161900500Y-120375466D01*
X161900500Y-120375435D01*
X161867982Y-120128435D01*
X161803502Y-119887793D01*
X161738450Y-119730743D01*
X161708169Y-119657638D01*
X161708162Y-119657623D01*
X161583599Y-119441873D01*
X161431939Y-119244225D01*
X161431933Y-119244218D01*
X161255781Y-119068066D01*
X161255774Y-119068060D01*
X161058126Y-118916400D01*
X160842376Y-118791837D01*
X160842361Y-118791830D01*
X160612207Y-118696498D01*
X160371565Y-118632018D01*
X160371564Y-118632017D01*
X160371561Y-118632017D01*
X160124575Y-118599501D01*
X160124570Y-118599500D01*
X160124565Y-118599500D01*
X159875435Y-118599500D01*
X159875429Y-118599500D01*
X159875424Y-118599501D01*
X159628438Y-118632017D01*
X159387792Y-118696498D01*
X159157638Y-118791830D01*
X159157623Y-118791837D01*
X158941873Y-118916400D01*
X158744225Y-119068060D01*
X158744218Y-119068066D01*
X158568066Y-119244218D01*
X158568060Y-119244225D01*
X158416400Y-119441873D01*
X158291837Y-119657623D01*
X158291830Y-119657638D01*
X158196498Y-119887792D01*
X158132017Y-120128438D01*
X158099501Y-120375424D01*
X158099500Y-120375441D01*
X152400500Y-120375441D01*
X152400500Y-120375435D01*
X152367982Y-120128435D01*
X152303502Y-119887793D01*
X152238450Y-119730743D01*
X152208169Y-119657638D01*
X152208162Y-119657623D01*
X152083599Y-119441873D01*
X151931939Y-119244225D01*
X151931933Y-119244218D01*
X151755781Y-119068066D01*
X151755774Y-119068060D01*
X151558126Y-118916400D01*
X151342376Y-118791837D01*
X151342361Y-118791830D01*
X151112207Y-118696498D01*
X150871565Y-118632018D01*
X150871564Y-118632017D01*
X150871561Y-118632017D01*
X150624575Y-118599501D01*
X150624570Y-118599500D01*
X150624565Y-118599500D01*
X150375435Y-118599500D01*
X150375429Y-118599500D01*
X150375424Y-118599501D01*
X150128438Y-118632017D01*
X149887792Y-118696498D01*
X149657638Y-118791830D01*
X149657623Y-118791837D01*
X149441873Y-118916400D01*
X149244225Y-119068060D01*
X149244218Y-119068066D01*
X149068066Y-119244218D01*
X149068060Y-119244225D01*
X148916400Y-119441873D01*
X148791837Y-119657623D01*
X148791830Y-119657638D01*
X148696498Y-119887792D01*
X148632017Y-120128438D01*
X148599501Y-120375424D01*
X148599500Y-120375441D01*
X138402717Y-120375441D01*
X138367416Y-120331175D01*
X138168825Y-120132584D01*
X138163622Y-120128435D01*
X138113060Y-120088113D01*
X137949248Y-119957477D01*
X137711445Y-119808055D01*
X137711442Y-119808053D01*
X137458411Y-119686200D01*
X137193329Y-119593443D01*
X137193317Y-119593439D01*
X136919512Y-119530945D01*
X136919494Y-119530942D01*
X136640431Y-119499500D01*
X136640425Y-119499500D01*
X136359575Y-119499500D01*
X136359568Y-119499500D01*
X136080505Y-119530942D01*
X136080487Y-119530945D01*
X135806682Y-119593439D01*
X135806670Y-119593443D01*
X135541588Y-119686200D01*
X135288557Y-119808053D01*
X135050753Y-119957476D01*
X134831175Y-120132583D01*
X134632583Y-120331175D01*
X134457476Y-120550753D01*
X134308053Y-120788557D01*
X134186200Y-121041588D01*
X134093443Y-121306670D01*
X134093439Y-121306682D01*
X134030945Y-121580487D01*
X134030942Y-121580505D01*
X133999500Y-121859568D01*
X133999500Y-122140431D01*
X134030942Y-122419494D01*
X134030945Y-122419512D01*
X134093439Y-122693317D01*
X134093443Y-122693329D01*
X134186200Y-122958411D01*
X134308053Y-123211442D01*
X134308055Y-123211445D01*
X134457477Y-123449248D01*
X134632584Y-123668825D01*
X134831175Y-123867416D01*
X135050752Y-124042523D01*
X135230260Y-124155315D01*
X135254435Y-124170506D01*
X135300726Y-124222841D01*
X135311374Y-124291894D01*
X135282999Y-124355743D01*
X135224609Y-124394115D01*
X135188463Y-124399500D01*
X132724500Y-124399500D01*
X132657461Y-124379815D01*
X132611706Y-124327011D01*
X132600500Y-124275500D01*
X132600500Y-109432486D01*
X134969500Y-109432486D01*
X134969500Y-109727513D01*
X134980561Y-109811523D01*
X135008007Y-110019993D01*
X135081636Y-110294781D01*
X135084361Y-110304951D01*
X135084364Y-110304961D01*
X135197254Y-110577500D01*
X135197258Y-110577510D01*
X135344761Y-110832993D01*
X135524352Y-111067040D01*
X135524358Y-111067047D01*
X135732952Y-111275641D01*
X135732959Y-111275647D01*
X135967006Y-111455238D01*
X136222489Y-111602741D01*
X136222490Y-111602741D01*
X136222493Y-111602743D01*
X136495048Y-111715639D01*
X136780007Y-111791993D01*
X137072494Y-111830500D01*
X137072501Y-111830500D01*
X140867499Y-111830500D01*
X140867506Y-111830500D01*
X141159993Y-111791993D01*
X141444952Y-111715639D01*
X141717507Y-111602743D01*
X141972994Y-111455238D01*
X142048046Y-111397648D01*
X154119500Y-111397648D01*
X154119500Y-111602351D01*
X154151522Y-111804534D01*
X154214781Y-111999223D01*
X154307715Y-112181613D01*
X154428028Y-112347213D01*
X154572786Y-112491971D01*
X154727749Y-112604556D01*
X154738390Y-112612287D01*
X154854607Y-112671503D01*
X154920776Y-112705218D01*
X154920778Y-112705218D01*
X154920781Y-112705220D01*
X155025137Y-112739127D01*
X155115465Y-112768477D01*
X155216557Y-112784488D01*
X155317648Y-112800500D01*
X155317649Y-112800500D01*
X155522351Y-112800500D01*
X155522352Y-112800500D01*
X155724534Y-112768477D01*
X155919219Y-112705220D01*
X156101610Y-112612287D01*
X156194590Y-112544732D01*
X156267213Y-112491971D01*
X156267215Y-112491968D01*
X156267219Y-112491966D01*
X156411966Y-112347219D01*
X156411968Y-112347215D01*
X156411971Y-112347213D01*
X156464732Y-112274590D01*
X156532287Y-112181610D01*
X156625220Y-111999219D01*
X156688477Y-111804534D01*
X156720500Y-111602352D01*
X156720500Y-111397648D01*
X164279500Y-111397648D01*
X164279500Y-111602351D01*
X164311522Y-111804534D01*
X164374781Y-111999223D01*
X164467715Y-112181613D01*
X164588028Y-112347213D01*
X164732786Y-112491971D01*
X164887749Y-112604556D01*
X164898390Y-112612287D01*
X165014607Y-112671503D01*
X165080776Y-112705218D01*
X165080778Y-112705218D01*
X165080781Y-112705220D01*
X165185137Y-112739127D01*
X165275465Y-112768477D01*
X165376557Y-112784488D01*
X165477648Y-112800500D01*
X165477649Y-112800500D01*
X165682351Y-112800500D01*
X165682352Y-112800500D01*
X165884534Y-112768477D01*
X166079219Y-112705220D01*
X166261610Y-112612287D01*
X166354590Y-112544732D01*
X166427213Y-112491971D01*
X166427215Y-112491968D01*
X166427219Y-112491966D01*
X166571966Y-112347219D01*
X166571968Y-112347215D01*
X166571971Y-112347213D01*
X166624732Y-112274590D01*
X166692287Y-112181610D01*
X166785220Y-111999219D01*
X166848477Y-111804534D01*
X166880500Y-111602352D01*
X166880500Y-111397648D01*
X166848477Y-111195466D01*
X166848476Y-111195462D01*
X166848476Y-111195461D01*
X166788571Y-111011094D01*
X166788570Y-111011093D01*
X166785220Y-111000781D01*
X166773433Y-110977648D01*
X168699500Y-110977648D01*
X168699500Y-111182351D01*
X168731522Y-111384534D01*
X168794781Y-111579223D01*
X168858691Y-111704653D01*
X168884740Y-111755776D01*
X168887715Y-111761613D01*
X169008028Y-111927213D01*
X169152786Y-112071971D01*
X169303694Y-112181610D01*
X169318390Y-112192287D01*
X169434607Y-112251503D01*
X169500776Y-112285218D01*
X169500778Y-112285218D01*
X169500781Y-112285220D01*
X169605137Y-112319127D01*
X169695465Y-112348477D01*
X169796557Y-112364488D01*
X169897648Y-112380500D01*
X169897649Y-112380500D01*
X170102351Y-112380500D01*
X170102352Y-112380500D01*
X170304534Y-112348477D01*
X170499219Y-112285220D01*
X170681610Y-112192287D01*
X170774590Y-112124732D01*
X170847213Y-112071971D01*
X170847215Y-112071968D01*
X170847219Y-112071966D01*
X170991966Y-111927219D01*
X170991968Y-111927215D01*
X170991971Y-111927213D01*
X171062236Y-111830500D01*
X171112287Y-111761610D01*
X171205220Y-111579219D01*
X171268477Y-111384534D01*
X171300500Y-111182352D01*
X171300500Y-110977648D01*
X171268477Y-110775466D01*
X171205220Y-110580781D01*
X171205218Y-110580778D01*
X171205218Y-110580776D01*
X171127206Y-110427671D01*
X171127205Y-110427669D01*
X171112286Y-110398388D01*
X171095614Y-110375441D01*
X180099500Y-110375441D01*
X180099500Y-110624558D01*
X180099501Y-110624575D01*
X180132017Y-110871561D01*
X180196498Y-111112207D01*
X180291830Y-111342361D01*
X180291837Y-111342376D01*
X180416400Y-111558126D01*
X180568060Y-111755774D01*
X180568066Y-111755781D01*
X180744218Y-111931933D01*
X180744225Y-111931939D01*
X180941873Y-112083599D01*
X181157623Y-112208162D01*
X181157638Y-112208169D01*
X181256825Y-112249253D01*
X181387793Y-112303502D01*
X181628435Y-112367982D01*
X181875435Y-112400500D01*
X181875442Y-112400500D01*
X182124558Y-112400500D01*
X182124565Y-112400500D01*
X182371565Y-112367982D01*
X182612207Y-112303502D01*
X182842373Y-112208164D01*
X183058127Y-112083599D01*
X183255776Y-111931938D01*
X183431938Y-111755776D01*
X183583599Y-111558127D01*
X183708164Y-111342373D01*
X183803502Y-111112207D01*
X183867982Y-110871565D01*
X183900500Y-110624565D01*
X183900500Y-110375435D01*
X183867982Y-110128435D01*
X183803502Y-109887793D01*
X183708164Y-109657627D01*
X183583599Y-109441873D01*
X183431938Y-109244224D01*
X183431933Y-109244218D01*
X183255781Y-109068066D01*
X183255774Y-109068060D01*
X183058126Y-108916400D01*
X182842376Y-108791837D01*
X182842361Y-108791830D01*
X182612207Y-108696498D01*
X182371561Y-108632017D01*
X182124575Y-108599501D01*
X182124570Y-108599500D01*
X182124565Y-108599500D01*
X181875435Y-108599500D01*
X181875429Y-108599500D01*
X181875424Y-108599501D01*
X181628438Y-108632017D01*
X181387792Y-108696498D01*
X181157638Y-108791830D01*
X181157623Y-108791837D01*
X180941873Y-108916400D01*
X180744225Y-109068060D01*
X180744218Y-109068066D01*
X180568066Y-109244218D01*
X180568060Y-109244225D01*
X180416400Y-109441873D01*
X180291837Y-109657623D01*
X180291830Y-109657638D01*
X180196498Y-109887792D01*
X180132017Y-110128438D01*
X180099501Y-110375424D01*
X180099500Y-110375441D01*
X171095614Y-110375441D01*
X170991971Y-110232786D01*
X170847213Y-110088028D01*
X170681613Y-109967715D01*
X170681612Y-109967714D01*
X170681610Y-109967713D01*
X170624653Y-109938691D01*
X170499223Y-109874781D01*
X170304534Y-109811522D01*
X170129995Y-109783878D01*
X170102352Y-109779500D01*
X169897648Y-109779500D01*
X169873329Y-109783351D01*
X169695465Y-109811522D01*
X169500776Y-109874781D01*
X169318386Y-109967715D01*
X169152786Y-110088028D01*
X169008028Y-110232786D01*
X168887715Y-110398386D01*
X168794781Y-110580776D01*
X168731522Y-110775465D01*
X168699500Y-110977648D01*
X166773433Y-110977648D01*
X166692287Y-110818390D01*
X166661101Y-110775466D01*
X166571971Y-110652786D01*
X166427213Y-110508028D01*
X166261613Y-110387715D01*
X166261612Y-110387714D01*
X166261610Y-110387713D01*
X166204653Y-110358691D01*
X166079223Y-110294781D01*
X165884534Y-110231522D01*
X165709995Y-110203878D01*
X165682352Y-110199500D01*
X165477648Y-110199500D01*
X165453329Y-110203351D01*
X165275465Y-110231522D01*
X165080776Y-110294781D01*
X164898386Y-110387715D01*
X164732786Y-110508028D01*
X164588028Y-110652786D01*
X164467715Y-110818386D01*
X164374781Y-111000776D01*
X164311522Y-111195465D01*
X164279500Y-111397648D01*
X156720500Y-111397648D01*
X156701177Y-111275647D01*
X156688477Y-111195465D01*
X156646751Y-111067047D01*
X156625220Y-111000781D01*
X156625218Y-111000778D01*
X156625218Y-111000776D01*
X156559381Y-110871565D01*
X156532287Y-110818390D01*
X156501101Y-110775466D01*
X156411971Y-110652786D01*
X156267213Y-110508028D01*
X156101613Y-110387715D01*
X156101612Y-110387714D01*
X156101610Y-110387713D01*
X156044653Y-110358691D01*
X155919223Y-110294781D01*
X155724534Y-110231522D01*
X155549995Y-110203878D01*
X155522352Y-110199500D01*
X155317648Y-110199500D01*
X155293329Y-110203351D01*
X155115465Y-110231522D01*
X154920776Y-110294781D01*
X154738386Y-110387715D01*
X154572786Y-110508028D01*
X154428028Y-110652786D01*
X154307715Y-110818386D01*
X154214781Y-111000776D01*
X154151522Y-111195465D01*
X154119500Y-111397648D01*
X142048046Y-111397648D01*
X142207042Y-111275646D01*
X142415646Y-111067042D01*
X142595238Y-110832994D01*
X142742743Y-110577507D01*
X142855639Y-110304952D01*
X142931993Y-110019993D01*
X142970500Y-109727506D01*
X142970500Y-109432494D01*
X142931993Y-109140007D01*
X142855639Y-108855048D01*
X142742743Y-108582493D01*
X142595238Y-108327006D01*
X142415646Y-108092958D01*
X142415641Y-108092952D01*
X142207047Y-107884358D01*
X142207040Y-107884352D01*
X141972993Y-107704761D01*
X141717510Y-107557258D01*
X141717500Y-107557254D01*
X141444961Y-107444364D01*
X141444954Y-107444362D01*
X141444952Y-107444361D01*
X141159993Y-107368007D01*
X141111113Y-107361571D01*
X140867513Y-107329500D01*
X140867506Y-107329500D01*
X137072494Y-107329500D01*
X137072486Y-107329500D01*
X136794085Y-107366153D01*
X136780007Y-107368007D01*
X136495048Y-107444361D01*
X136495038Y-107444364D01*
X136222499Y-107557254D01*
X136222489Y-107557258D01*
X135967006Y-107704761D01*
X135732959Y-107884352D01*
X135732952Y-107884358D01*
X135524358Y-108092952D01*
X135524352Y-108092959D01*
X135344761Y-108327006D01*
X135197258Y-108582489D01*
X135197254Y-108582499D01*
X135084364Y-108855038D01*
X135084361Y-108855048D01*
X135027284Y-109068066D01*
X135008008Y-109140004D01*
X135008006Y-109140015D01*
X134969500Y-109432486D01*
X132600500Y-109432486D01*
X132600500Y-106937648D01*
X142299500Y-106937648D01*
X142299500Y-107142351D01*
X142331522Y-107344534D01*
X142394781Y-107539223D01*
X142487715Y-107721613D01*
X142608028Y-107887213D01*
X142752786Y-108031971D01*
X142907749Y-108144556D01*
X142918390Y-108152287D01*
X143034607Y-108211503D01*
X143100776Y-108245218D01*
X143100778Y-108245218D01*
X143100781Y-108245220D01*
X143205137Y-108279127D01*
X143295465Y-108308477D01*
X143396557Y-108324488D01*
X143497648Y-108340500D01*
X143497649Y-108340500D01*
X144602351Y-108340500D01*
X144602352Y-108340500D01*
X144804534Y-108308477D01*
X144999219Y-108245220D01*
X145181610Y-108152287D01*
X145274590Y-108084732D01*
X145347213Y-108031971D01*
X145347215Y-108031968D01*
X145347219Y-108031966D01*
X145491966Y-107887219D01*
X145491968Y-107887215D01*
X145491971Y-107887213D01*
X145544732Y-107814590D01*
X145612287Y-107721610D01*
X145705220Y-107539219D01*
X145768477Y-107344534D01*
X145800500Y-107142352D01*
X145800500Y-106937648D01*
X145768477Y-106735466D01*
X145705220Y-106540781D01*
X145705218Y-106540778D01*
X145705218Y-106540776D01*
X145671503Y-106474607D01*
X145612287Y-106358390D01*
X145604556Y-106347749D01*
X145491971Y-106192786D01*
X145347213Y-106048028D01*
X145181611Y-105927713D01*
X145088369Y-105880203D01*
X145037574Y-105832229D01*
X145020779Y-105764407D01*
X145043317Y-105698273D01*
X145088371Y-105659234D01*
X145181347Y-105611861D01*
X145346894Y-105491582D01*
X145346895Y-105491582D01*
X145491582Y-105346895D01*
X145491582Y-105346894D01*
X145611859Y-105181349D01*
X145704755Y-104999029D01*
X145767990Y-104804413D01*
X145776609Y-104750000D01*
X144419504Y-104750000D01*
X144464674Y-104671764D01*
X144495000Y-104558585D01*
X144495000Y-104441415D01*
X144464674Y-104328236D01*
X144419504Y-104250000D01*
X145776609Y-104250000D01*
X145767990Y-104195586D01*
X145704756Y-104000970D01*
X145611859Y-103818650D01*
X145491582Y-103653105D01*
X145491582Y-103653104D01*
X145346895Y-103508417D01*
X145181349Y-103388140D01*
X144999031Y-103295244D01*
X144804417Y-103232009D01*
X144602317Y-103200000D01*
X144300000Y-103200000D01*
X144300000Y-104130495D01*
X144221764Y-104085326D01*
X144108585Y-104055000D01*
X143991415Y-104055000D01*
X143878236Y-104085326D01*
X143800000Y-104130495D01*
X143800000Y-103200000D01*
X143497683Y-103200000D01*
X143295582Y-103232009D01*
X143100968Y-103295244D01*
X142918650Y-103388140D01*
X142753105Y-103508417D01*
X142753104Y-103508417D01*
X142608417Y-103653104D01*
X142608417Y-103653105D01*
X142488140Y-103818650D01*
X142395244Y-104000970D01*
X142332009Y-104195586D01*
X142323391Y-104250000D01*
X143680496Y-104250000D01*
X143635326Y-104328236D01*
X143605000Y-104441415D01*
X143605000Y-104558585D01*
X143635326Y-104671764D01*
X143680496Y-104750000D01*
X142323391Y-104750000D01*
X142332009Y-104804413D01*
X142395244Y-104999029D01*
X142488140Y-105181349D01*
X142608417Y-105346894D01*
X142608417Y-105346895D01*
X142753104Y-105491582D01*
X142918652Y-105611861D01*
X143011628Y-105659234D01*
X143062425Y-105707208D01*
X143079220Y-105775029D01*
X143056683Y-105841164D01*
X143011630Y-105880203D01*
X142918388Y-105927713D01*
X142752786Y-106048028D01*
X142608028Y-106192786D01*
X142487715Y-106358386D01*
X142394781Y-106540776D01*
X142331522Y-106735465D01*
X142299500Y-106937648D01*
X132600500Y-106937648D01*
X132600500Y-102375466D01*
X180100000Y-102375466D01*
X180100000Y-102624533D01*
X180132508Y-102871463D01*
X180196973Y-103112049D01*
X180292283Y-103342148D01*
X180292288Y-103342159D01*
X180416813Y-103557841D01*
X180416819Y-103557849D01*
X180491400Y-103655045D01*
X181284152Y-102862292D01*
X181291049Y-102878942D01*
X181378599Y-103009970D01*
X181490030Y-103121401D01*
X181621058Y-103208951D01*
X181637705Y-103215846D01*
X180844953Y-104008598D01*
X180942150Y-104083180D01*
X180942158Y-104083186D01*
X181157840Y-104207711D01*
X181157851Y-104207716D01*
X181387950Y-104303026D01*
X181628536Y-104367491D01*
X181875466Y-104400000D01*
X182124534Y-104400000D01*
X182371463Y-104367491D01*
X182612049Y-104303026D01*
X182842148Y-104207716D01*
X182842159Y-104207711D01*
X183057855Y-104083178D01*
X183155045Y-104008600D01*
X183155045Y-104008597D01*
X182362294Y-103215846D01*
X182378942Y-103208951D01*
X182509970Y-103121401D01*
X182621401Y-103009970D01*
X182708951Y-102878942D01*
X182715846Y-102862294D01*
X183508597Y-103655045D01*
X183508600Y-103655045D01*
X183583178Y-103557855D01*
X183707711Y-103342159D01*
X183707716Y-103342148D01*
X183803026Y-103112049D01*
X183867491Y-102871463D01*
X183900000Y-102624533D01*
X183900000Y-102375466D01*
X183867491Y-102128536D01*
X183803026Y-101887950D01*
X183707716Y-101657851D01*
X183707711Y-101657840D01*
X183583186Y-101442158D01*
X183583180Y-101442150D01*
X183508598Y-101344953D01*
X182715846Y-102137705D01*
X182708951Y-102121058D01*
X182621401Y-101990030D01*
X182509970Y-101878599D01*
X182378942Y-101791049D01*
X182362292Y-101784152D01*
X183155045Y-100991400D01*
X183057849Y-100916819D01*
X183057841Y-100916813D01*
X182842159Y-100792288D01*
X182842148Y-100792283D01*
X182612049Y-100696973D01*
X182371463Y-100632508D01*
X182124534Y-100600000D01*
X181875466Y-100600000D01*
X181628536Y-100632508D01*
X181387950Y-100696973D01*
X181157851Y-100792283D01*
X181157847Y-100792285D01*
X180942143Y-100916823D01*
X180844953Y-100991399D01*
X180844953Y-100991400D01*
X181637706Y-101784153D01*
X181621058Y-101791049D01*
X181490030Y-101878599D01*
X181378599Y-101990030D01*
X181291049Y-102121058D01*
X181284153Y-102137706D01*
X180491400Y-101344953D01*
X180491399Y-101344953D01*
X180416823Y-101442143D01*
X180292285Y-101657847D01*
X180292283Y-101657851D01*
X180196973Y-101887950D01*
X180132508Y-102128536D01*
X180100000Y-102375466D01*
X132600500Y-102375466D01*
X132600500Y-99272486D01*
X134969500Y-99272486D01*
X134969500Y-99567513D01*
X134980561Y-99651523D01*
X135008007Y-99859993D01*
X135084361Y-100144951D01*
X135084364Y-100144961D01*
X135197254Y-100417500D01*
X135197258Y-100417510D01*
X135344761Y-100672993D01*
X135524352Y-100907040D01*
X135524358Y-100907047D01*
X135732952Y-101115641D01*
X135732959Y-101115647D01*
X135967006Y-101295238D01*
X136222489Y-101442741D01*
X136222490Y-101442741D01*
X136222493Y-101442743D01*
X136495048Y-101555639D01*
X136780007Y-101631993D01*
X137072494Y-101670500D01*
X137072501Y-101670500D01*
X140867499Y-101670500D01*
X140867506Y-101670500D01*
X141159993Y-101631993D01*
X141444952Y-101555639D01*
X141717507Y-101442743D01*
X141972994Y-101295238D01*
X142207042Y-101115646D01*
X142415646Y-100907042D01*
X142484241Y-100817648D01*
X168699500Y-100817648D01*
X168699500Y-101022351D01*
X168731522Y-101224534D01*
X168794781Y-101419223D01*
X168887715Y-101601613D01*
X169008028Y-101767213D01*
X169152786Y-101911971D01*
X169307749Y-102024556D01*
X169318390Y-102032287D01*
X169434607Y-102091503D01*
X169500776Y-102125218D01*
X169500778Y-102125218D01*
X169500781Y-102125220D01*
X169566108Y-102146446D01*
X169695465Y-102188477D01*
X169796557Y-102204488D01*
X169897648Y-102220500D01*
X169897649Y-102220500D01*
X170102351Y-102220500D01*
X170102352Y-102220500D01*
X170304534Y-102188477D01*
X170499219Y-102125220D01*
X170681610Y-102032287D01*
X170774590Y-101964732D01*
X170847213Y-101911971D01*
X170847215Y-101911968D01*
X170847219Y-101911966D01*
X170991966Y-101767219D01*
X170991968Y-101767215D01*
X170991971Y-101767213D01*
X171062236Y-101670500D01*
X171112287Y-101601610D01*
X171205220Y-101419219D01*
X171268477Y-101224534D01*
X171300500Y-101022352D01*
X171300500Y-100817648D01*
X171268477Y-100615466D01*
X171205220Y-100420781D01*
X171205218Y-100420778D01*
X171205218Y-100420776D01*
X171171503Y-100354607D01*
X171112287Y-100238390D01*
X171104556Y-100227749D01*
X170991971Y-100072786D01*
X170847213Y-99928028D01*
X170681613Y-99807715D01*
X170681612Y-99807714D01*
X170681610Y-99807713D01*
X170624653Y-99778691D01*
X170499223Y-99714781D01*
X170304534Y-99651522D01*
X170129995Y-99623878D01*
X170102352Y-99619500D01*
X169897648Y-99619500D01*
X169873329Y-99623351D01*
X169695465Y-99651522D01*
X169500776Y-99714781D01*
X169318386Y-99807715D01*
X169152786Y-99928028D01*
X169008028Y-100072786D01*
X168887715Y-100238386D01*
X168794781Y-100420776D01*
X168731522Y-100615465D01*
X168699500Y-100817648D01*
X142484241Y-100817648D01*
X142595238Y-100672994D01*
X142742743Y-100417507D01*
X142855639Y-100144952D01*
X142931993Y-99859993D01*
X142970500Y-99567506D01*
X142970500Y-99272494D01*
X142931993Y-98980007D01*
X142855639Y-98695048D01*
X142742743Y-98422493D01*
X142595238Y-98167006D01*
X142415647Y-97932959D01*
X142415641Y-97932952D01*
X142207047Y-97724358D01*
X142207040Y-97724352D01*
X141972993Y-97544761D01*
X141717510Y-97397258D01*
X141717500Y-97397254D01*
X141444961Y-97284364D01*
X141444954Y-97284362D01*
X141444952Y-97284361D01*
X141159993Y-97208007D01*
X141111113Y-97201571D01*
X140867513Y-97169500D01*
X140867506Y-97169500D01*
X137072494Y-97169500D01*
X137072486Y-97169500D01*
X136794085Y-97206153D01*
X136780007Y-97208007D01*
X136639685Y-97245606D01*
X136495048Y-97284361D01*
X136495038Y-97284364D01*
X136222499Y-97397254D01*
X136222489Y-97397258D01*
X135967006Y-97544761D01*
X135732959Y-97724352D01*
X135732952Y-97724358D01*
X135524358Y-97932952D01*
X135524352Y-97932959D01*
X135344761Y-98167006D01*
X135197258Y-98422489D01*
X135197254Y-98422499D01*
X135084364Y-98695038D01*
X135084361Y-98695048D01*
X135008008Y-98980004D01*
X135008006Y-98980015D01*
X134969500Y-99272486D01*
X132600500Y-99272486D01*
X132600500Y-96897648D01*
X158949500Y-96897648D01*
X158949500Y-97102351D01*
X158981522Y-97304534D01*
X159044781Y-97499223D01*
X159087248Y-97582567D01*
X159137585Y-97681359D01*
X159137715Y-97681613D01*
X159258028Y-97847213D01*
X159402786Y-97991971D01*
X159523226Y-98079474D01*
X159568390Y-98112287D01*
X159675782Y-98167006D01*
X159750776Y-98205218D01*
X159750778Y-98205218D01*
X159750781Y-98205220D01*
X159855137Y-98239127D01*
X159945465Y-98268477D01*
X160046557Y-98284488D01*
X160147648Y-98300500D01*
X160147649Y-98300500D01*
X160352351Y-98300500D01*
X160352352Y-98300500D01*
X160554534Y-98268477D01*
X160749219Y-98205220D01*
X160931610Y-98112287D01*
X161024590Y-98044732D01*
X161097213Y-97991971D01*
X161097215Y-97991968D01*
X161097219Y-97991966D01*
X161241966Y-97847219D01*
X161241968Y-97847215D01*
X161241971Y-97847213D01*
X161362286Y-97681611D01*
X161362415Y-97681359D01*
X161389795Y-97627621D01*
X161437769Y-97576826D01*
X161505589Y-97560030D01*
X161571725Y-97582567D01*
X161610765Y-97627621D01*
X161638141Y-97681350D01*
X161638147Y-97681359D01*
X161670523Y-97725921D01*
X161670524Y-97725922D01*
X162350000Y-97046446D01*
X162350000Y-97052661D01*
X162377259Y-97154394D01*
X162429920Y-97245606D01*
X162504394Y-97320080D01*
X162595606Y-97372741D01*
X162697339Y-97400000D01*
X162703553Y-97400000D01*
X162024076Y-98079474D01*
X162068650Y-98111859D01*
X162250968Y-98204755D01*
X162445582Y-98267990D01*
X162647683Y-98300000D01*
X162852317Y-98300000D01*
X163054417Y-98267990D01*
X163249031Y-98204755D01*
X163431349Y-98111859D01*
X163475921Y-98079474D01*
X162796447Y-97400000D01*
X162802661Y-97400000D01*
X162904394Y-97372741D01*
X162995606Y-97320080D01*
X163070080Y-97245606D01*
X163122741Y-97154394D01*
X163150000Y-97052661D01*
X163150000Y-97046448D01*
X163829474Y-97725922D01*
X163829474Y-97725921D01*
X163861859Y-97681349D01*
X163954755Y-97499031D01*
X164017990Y-97304417D01*
X164050000Y-97102317D01*
X164050000Y-96897682D01*
X164017990Y-96695582D01*
X163954755Y-96500968D01*
X163861859Y-96318650D01*
X163829474Y-96274077D01*
X163829474Y-96274076D01*
X163150000Y-96953551D01*
X163150000Y-96947339D01*
X163122741Y-96845606D01*
X163070080Y-96754394D01*
X162995606Y-96679920D01*
X162904394Y-96627259D01*
X162802661Y-96600000D01*
X162796446Y-96600000D01*
X163475922Y-95920524D01*
X163475921Y-95920523D01*
X163431359Y-95888147D01*
X163431350Y-95888141D01*
X163249031Y-95795244D01*
X163054417Y-95732009D01*
X162852317Y-95700000D01*
X162647683Y-95700000D01*
X162445582Y-95732009D01*
X162250968Y-95795244D01*
X162068644Y-95888143D01*
X162024077Y-95920523D01*
X162024077Y-95920524D01*
X162703554Y-96600000D01*
X162697339Y-96600000D01*
X162595606Y-96627259D01*
X162504394Y-96679920D01*
X162429920Y-96754394D01*
X162377259Y-96845606D01*
X162350000Y-96947339D01*
X162350000Y-96953553D01*
X161670524Y-96274077D01*
X161670523Y-96274077D01*
X161638143Y-96318644D01*
X161610765Y-96372378D01*
X161562790Y-96423174D01*
X161494969Y-96439969D01*
X161428834Y-96417431D01*
X161389795Y-96372378D01*
X161362284Y-96318385D01*
X161241971Y-96152786D01*
X161097213Y-96008028D01*
X160931613Y-95887715D01*
X160931612Y-95887714D01*
X160931610Y-95887713D01*
X160874653Y-95858691D01*
X160749223Y-95794781D01*
X160554534Y-95731522D01*
X160379995Y-95703878D01*
X160352352Y-95699500D01*
X160147648Y-95699500D01*
X160123329Y-95703351D01*
X159945465Y-95731522D01*
X159750776Y-95794781D01*
X159568386Y-95887715D01*
X159402786Y-96008028D01*
X159258028Y-96152786D01*
X159137715Y-96318386D01*
X159044781Y-96500776D01*
X158981522Y-96695465D01*
X158949500Y-96897648D01*
X132600500Y-96897648D01*
X132600500Y-94089778D01*
X166099500Y-94089778D01*
X166099500Y-94310221D01*
X166133985Y-94527952D01*
X166202103Y-94737603D01*
X166202104Y-94737606D01*
X166302187Y-94934025D01*
X166431752Y-95112358D01*
X166431756Y-95112363D01*
X166587636Y-95268243D01*
X166587641Y-95268247D01*
X166743192Y-95381260D01*
X166765978Y-95397815D01*
X166894375Y-95463237D01*
X166962393Y-95497895D01*
X166962396Y-95497896D01*
X167067221Y-95531955D01*
X167172049Y-95566015D01*
X167389778Y-95600500D01*
X167389779Y-95600500D01*
X167610221Y-95600500D01*
X167610222Y-95600500D01*
X167827951Y-95566015D01*
X168037606Y-95497895D01*
X168234022Y-95397815D01*
X168412365Y-95268242D01*
X168568242Y-95112365D01*
X168697815Y-94934022D01*
X168797895Y-94737606D01*
X168866015Y-94527951D01*
X168900500Y-94310222D01*
X168900500Y-94089778D01*
X168866552Y-93875441D01*
X179599500Y-93875441D01*
X179599500Y-94124558D01*
X179599501Y-94124575D01*
X179632017Y-94371561D01*
X179696498Y-94612207D01*
X179791830Y-94842361D01*
X179791837Y-94842376D01*
X179916400Y-95058126D01*
X180068060Y-95255774D01*
X180068066Y-95255781D01*
X180244218Y-95431933D01*
X180244225Y-95431939D01*
X180441873Y-95583599D01*
X180657623Y-95708162D01*
X180657638Y-95708169D01*
X180756825Y-95749253D01*
X180887793Y-95803502D01*
X181128435Y-95867982D01*
X181375435Y-95900500D01*
X181375442Y-95900500D01*
X181624558Y-95900500D01*
X181624565Y-95900500D01*
X181871565Y-95867982D01*
X182112207Y-95803502D01*
X182342373Y-95708164D01*
X182558127Y-95583599D01*
X182755776Y-95431938D01*
X182931938Y-95255776D01*
X183083599Y-95058127D01*
X183208164Y-94842373D01*
X183303502Y-94612207D01*
X183367982Y-94371565D01*
X183400500Y-94124565D01*
X183400500Y-93875435D01*
X183367982Y-93628435D01*
X183303502Y-93387793D01*
X183208164Y-93157627D01*
X183193227Y-93131756D01*
X183083599Y-92941873D01*
X182931939Y-92744225D01*
X182931933Y-92744218D01*
X182755781Y-92568066D01*
X182755774Y-92568060D01*
X182558126Y-92416400D01*
X182342376Y-92291837D01*
X182342361Y-92291830D01*
X182112207Y-92196498D01*
X181871561Y-92132017D01*
X181624575Y-92099501D01*
X181624570Y-92099500D01*
X181624565Y-92099500D01*
X181375435Y-92099500D01*
X181375429Y-92099500D01*
X181375424Y-92099501D01*
X181128438Y-92132017D01*
X180887792Y-92196498D01*
X180657638Y-92291830D01*
X180657623Y-92291837D01*
X180441873Y-92416400D01*
X180244225Y-92568060D01*
X180244218Y-92568066D01*
X180068066Y-92744218D01*
X180068060Y-92744225D01*
X179916400Y-92941873D01*
X179791837Y-93157623D01*
X179791830Y-93157638D01*
X179696498Y-93387792D01*
X179632017Y-93628438D01*
X179599501Y-93875424D01*
X179599500Y-93875441D01*
X168866552Y-93875441D01*
X168866015Y-93872049D01*
X168797895Y-93662394D01*
X168797895Y-93662393D01*
X168763237Y-93594375D01*
X168697815Y-93465978D01*
X168641010Y-93387792D01*
X168568247Y-93287641D01*
X168568243Y-93287636D01*
X168412363Y-93131756D01*
X168412358Y-93131752D01*
X168234025Y-93002187D01*
X168234024Y-93002186D01*
X168234022Y-93002185D01*
X168166150Y-92967602D01*
X168037606Y-92902104D01*
X168037603Y-92902103D01*
X167827952Y-92833985D01*
X167719086Y-92816742D01*
X167610222Y-92799500D01*
X167389778Y-92799500D01*
X167317201Y-92810995D01*
X167172047Y-92833985D01*
X166962396Y-92902103D01*
X166962393Y-92902104D01*
X166765974Y-93002187D01*
X166587641Y-93131752D01*
X166587636Y-93131756D01*
X166431756Y-93287636D01*
X166431752Y-93287641D01*
X166302187Y-93465974D01*
X166202104Y-93662393D01*
X166202103Y-93662396D01*
X166133985Y-93872047D01*
X166099500Y-94089778D01*
X132600500Y-94089778D01*
X132600500Y-89859447D01*
X151000000Y-89859447D01*
X151000000Y-90527500D01*
X151845879Y-90527500D01*
X151826901Y-90573318D01*
X151800000Y-90708556D01*
X151800000Y-90846444D01*
X151826901Y-90981682D01*
X151845879Y-91027500D01*
X151000000Y-91027500D01*
X151000000Y-91695552D01*
X151036934Y-91928747D01*
X151109897Y-92153302D01*
X151217085Y-92363671D01*
X151355866Y-92554686D01*
X151522813Y-92721633D01*
X151713828Y-92860414D01*
X151924195Y-92967602D01*
X152148744Y-93040563D01*
X152148750Y-93040565D01*
X152250000Y-93056601D01*
X152250000Y-91431620D01*
X152295818Y-91450599D01*
X152431056Y-91477500D01*
X152568944Y-91477500D01*
X152704182Y-91450599D01*
X152750000Y-91431620D01*
X152750000Y-93056600D01*
X152851249Y-93040565D01*
X152851255Y-93040563D01*
X153075804Y-92967602D01*
X153286171Y-92860414D01*
X153477186Y-92721633D01*
X153644133Y-92554686D01*
X153782914Y-92363671D01*
X153890102Y-92153302D01*
X153963065Y-91928747D01*
X154000000Y-91695552D01*
X154000000Y-91027500D01*
X153154121Y-91027500D01*
X153173099Y-90981682D01*
X153200000Y-90846444D01*
X153200000Y-90708556D01*
X153173099Y-90573318D01*
X153154121Y-90527500D01*
X154000000Y-90527500D01*
X154000000Y-89859447D01*
X153963065Y-89626252D01*
X153890102Y-89401697D01*
X153802939Y-89230629D01*
X153802938Y-89230627D01*
X153782916Y-89191330D01*
X153772855Y-89177483D01*
X155999500Y-89177483D01*
X155999500Y-92377501D01*
X155999501Y-92377518D01*
X156010000Y-92480296D01*
X156010001Y-92480299D01*
X156034651Y-92554686D01*
X156065186Y-92646834D01*
X156157288Y-92796156D01*
X156281344Y-92920212D01*
X156430666Y-93012314D01*
X156597203Y-93067499D01*
X156699991Y-93078000D01*
X158300008Y-93077999D01*
X158402797Y-93067499D01*
X158569334Y-93012314D01*
X158718656Y-92920212D01*
X158842712Y-92796156D01*
X158934814Y-92646834D01*
X158989999Y-92480297D01*
X159000500Y-92377509D01*
X159000499Y-89177492D01*
X158989999Y-89074703D01*
X158934814Y-88908166D01*
X158842712Y-88758844D01*
X158718656Y-88634788D01*
X158569334Y-88542686D01*
X158402797Y-88487501D01*
X158402795Y-88487500D01*
X158300010Y-88477000D01*
X156699998Y-88477000D01*
X156699981Y-88477001D01*
X156597203Y-88487500D01*
X156597200Y-88487501D01*
X156430668Y-88542685D01*
X156430663Y-88542687D01*
X156281342Y-88634789D01*
X156157289Y-88758842D01*
X156065187Y-88908163D01*
X156065186Y-88908166D01*
X156010001Y-89074703D01*
X156010001Y-89074704D01*
X156010000Y-89074704D01*
X155999500Y-89177483D01*
X153772855Y-89177483D01*
X153644133Y-89000313D01*
X153477186Y-88833366D01*
X153286171Y-88694585D01*
X153075802Y-88587397D01*
X152851247Y-88514434D01*
X152750000Y-88498397D01*
X152750000Y-90123379D01*
X152704182Y-90104401D01*
X152568944Y-90077500D01*
X152431056Y-90077500D01*
X152295818Y-90104401D01*
X152250000Y-90123379D01*
X152250000Y-88498397D01*
X152148752Y-88514434D01*
X151924197Y-88587397D01*
X151713828Y-88694585D01*
X151522813Y-88833366D01*
X151355866Y-89000313D01*
X151217085Y-89191328D01*
X151109897Y-89401697D01*
X151036934Y-89626252D01*
X151000000Y-89859447D01*
X132600500Y-89859447D01*
X132600500Y-86469778D01*
X168639500Y-86469778D01*
X168639500Y-86690221D01*
X168673985Y-86907952D01*
X168742103Y-87117603D01*
X168742104Y-87117606D01*
X168842187Y-87314025D01*
X168971752Y-87492358D01*
X168971756Y-87492363D01*
X169127636Y-87648243D01*
X169127641Y-87648247D01*
X169283192Y-87761260D01*
X169305978Y-87777815D01*
X169434375Y-87843237D01*
X169502393Y-87877895D01*
X169502396Y-87877896D01*
X169607221Y-87911955D01*
X169712049Y-87946015D01*
X169929778Y-87980500D01*
X169929779Y-87980500D01*
X170150221Y-87980500D01*
X170150222Y-87980500D01*
X170367951Y-87946015D01*
X170577606Y-87877895D01*
X170774022Y-87777815D01*
X170952365Y-87648242D01*
X171108242Y-87492365D01*
X171237815Y-87314022D01*
X171337895Y-87117606D01*
X171406015Y-86907951D01*
X171440500Y-86690222D01*
X171440500Y-86469778D01*
X171406015Y-86252049D01*
X171337895Y-86042394D01*
X171337895Y-86042393D01*
X171303237Y-85974375D01*
X171237815Y-85845978D01*
X171221260Y-85823192D01*
X171108247Y-85667641D01*
X171108243Y-85667636D01*
X170952363Y-85511756D01*
X170952358Y-85511752D01*
X170774025Y-85382187D01*
X170774024Y-85382186D01*
X170774022Y-85382185D01*
X170711096Y-85350122D01*
X170577606Y-85282104D01*
X170577603Y-85282103D01*
X170367952Y-85213985D01*
X170259086Y-85196742D01*
X170150222Y-85179500D01*
X169929778Y-85179500D01*
X169857201Y-85190995D01*
X169712047Y-85213985D01*
X169502396Y-85282103D01*
X169502393Y-85282104D01*
X169305974Y-85382187D01*
X169127641Y-85511752D01*
X169127636Y-85511756D01*
X168971756Y-85667636D01*
X168971752Y-85667641D01*
X168842187Y-85845974D01*
X168742104Y-86042393D01*
X168742103Y-86042396D01*
X168673985Y-86252047D01*
X168639500Y-86469778D01*
X132600500Y-86469778D01*
X132600500Y-79224500D01*
X132620185Y-79157461D01*
X132672989Y-79111706D01*
X132724500Y-79100500D01*
X135188463Y-79100500D01*
X135255502Y-79120185D01*
G37*
%TD.AperFunction*%
%TD*%
M02*
