%TF.GenerationSoftware,KiCad,Pcbnew,9.0.7*%
%TF.CreationDate,2026-03-31T13:05:45-05:00*%
%TF.ProjectId,imu,696d752e-6b69-4636-9164-5f7063625858,rev?*%
%TF.SameCoordinates,Original*%
%TF.FileFunction,Copper,L1,Top*%
%TF.FilePolarity,Positive*%
%FSLAX46Y46*%
G04 Gerber Fmt 4.6, Leading zero omitted, Abs format (unit mm)*
G04 Created by KiCad (PCBNEW 9.0.7) date 2026-03-31 13:05:45*
%MOMM*%
%LPD*%
G01*
G04 APERTURE LIST*
G04 Aperture macros list*
%AMRoundRect*
0 Rectangle with rounded corners*
0 $1 Rounding radius*
0 $2 $3 $4 $5 $6 $7 $8 $9 X,Y pos of 4 corners*
0 Add a 4 corners polygon primitive as box body*
4,1,4,$2,$3,$4,$5,$6,$7,$8,$9,$2,$3,0*
0 Add four circle primitives for the rounded corners*
1,1,$1+$1,$2,$3*
1,1,$1+$1,$4,$5*
1,1,$1+$1,$6,$7*
1,1,$1+$1,$8,$9*
0 Add four rect primitives between the rounded corners*
20,1,$1+$1,$2,$3,$4,$5,0*
20,1,$1+$1,$4,$5,$6,$7,0*
20,1,$1+$1,$6,$7,$8,$9,0*
20,1,$1+$1,$8,$9,$2,$3,0*%
G04 Aperture macros list end*
%TA.AperFunction,SMDPad,CuDef*%
%ADD10R,0.500000X0.300000*%
%TD*%
%TA.AperFunction,SMDPad,CuDef*%
%ADD11R,0.300000X0.500000*%
%TD*%
%TA.AperFunction,SMDPad,CuDef*%
%ADD12RoundRect,0.155000X-0.155000X0.212500X-0.155000X-0.212500X0.155000X-0.212500X0.155000X0.212500X0*%
%TD*%
%TA.AperFunction,SMDPad,CuDef*%
%ADD13RoundRect,0.237500X-0.237500X0.300000X-0.237500X-0.300000X0.237500X-0.300000X0.237500X0.300000X0*%
%TD*%
%TA.AperFunction,SMDPad,CuDef*%
%ADD14RoundRect,0.155000X0.155000X-0.212500X0.155000X0.212500X-0.155000X0.212500X-0.155000X-0.212500X0*%
%TD*%
%TA.AperFunction,SMDPad,CuDef*%
%ADD15RoundRect,0.237500X0.237500X-0.300000X0.237500X0.300000X-0.237500X0.300000X-0.237500X-0.300000X0*%
%TD*%
%TA.AperFunction,SMDPad,CuDef*%
%ADD16RoundRect,0.160000X0.160000X-0.197500X0.160000X0.197500X-0.160000X0.197500X-0.160000X-0.197500X0*%
%TD*%
%TA.AperFunction,ComponentPad*%
%ADD17C,4.000000*%
%TD*%
%TA.AperFunction,ViaPad*%
%ADD18C,0.600000*%
%TD*%
%TA.AperFunction,Conductor*%
%ADD19C,0.200000*%
%TD*%
%TA.AperFunction,Conductor*%
%ADD20C,0.150000*%
%TD*%
G04 APERTURE END LIST*
D10*
%TO.P,U6,1,VDDIO*%
%TO.N,+3.3V*%
X143825000Y-134400000D03*
%TO.P,U6,2,SCL/SPC*%
%TO.N,/scl*%
X143825000Y-134900000D03*
%TO.P,U6,3,SDA/SDI*%
%TO.N,/sda*%
X143825000Y-135400000D03*
%TO.P,U6,4,SAO/SD0*%
%TO.N,GND*%
X143825000Y-135900000D03*
%TO.P,U6,5,~{CS}*%
%TO.N,Net-(U6-~{CS})*%
X143825000Y-136400000D03*
D11*
%TO.P,U6,6,INT*%
%TO.N,unconnected-(U6-INT-Pad6)*%
X144525000Y-136600000D03*
%TO.P,U6,7,RESV*%
%TO.N,unconnected-(U6-RESV-Pad7)*%
X145025000Y-136600000D03*
%TO.P,U6,8,FSYNC*%
%TO.N,GND*%
X145525000Y-136600000D03*
D10*
%TO.P,U6,9,GND*%
X146225000Y-136400000D03*
%TO.P,U6,10,GND*%
X146225000Y-135900000D03*
%TO.P,U6,11,GND*%
X146225000Y-135400000D03*
%TO.P,U6,12,GND*%
X146225000Y-134900000D03*
%TO.P,U6,13,GND*%
X146225000Y-134400000D03*
D11*
%TO.P,U6,14,REGOUT*%
%TO.N,Net-(U6-REGOUT)*%
X145525000Y-134200000D03*
%TO.P,U6,15,GND*%
%TO.N,GND*%
X145025000Y-134200000D03*
%TO.P,U6,16,VDD*%
%TO.N,+3.3V*%
X144525000Y-134200000D03*
%TD*%
D12*
%TO.P,C10,1*%
%TO.N,Net-(U6-REGOUT)*%
X147400000Y-134400000D03*
%TO.P,C10,2*%
%TO.N,GND*%
X147400000Y-135535000D03*
%TD*%
D13*
%TO.P,C1,1*%
%TO.N,+3.3V*%
X150400000Y-131937499D03*
%TO.P,C1,2*%
%TO.N,GND*%
X150400000Y-133662501D03*
%TD*%
D14*
%TO.P,C9,1*%
%TO.N,+3.3V*%
X144000000Y-132767500D03*
%TO.P,C9,2*%
%TO.N,GND*%
X144000000Y-131632500D03*
%TD*%
D15*
%TO.P,C8,1*%
%TO.N,+3.3V*%
X150800000Y-137362501D03*
%TO.P,C8,2*%
%TO.N,GND*%
X150800000Y-135637499D03*
%TD*%
D14*
%TO.P,C7,1*%
%TO.N,+3.3V*%
X145400000Y-132567500D03*
%TO.P,C7,2*%
%TO.N,GND*%
X145400000Y-131432500D03*
%TD*%
D16*
%TO.P,R19,1*%
%TO.N,+3.3V*%
X146800000Y-132795000D03*
%TO.P,R19,2*%
%TO.N,Net-(U6-~{CS})*%
X146800000Y-131600000D03*
%TD*%
D15*
%TO.P,C2,1*%
%TO.N,+3.3V*%
X149000000Y-136862501D03*
%TO.P,C2,2*%
%TO.N,GND*%
X149000000Y-135137499D03*
%TD*%
D17*
%TO.P,,*%
%TO.N,*%
X142450000Y-128300000D03*
%TD*%
%TO.P,,*%
%TO.N,*%
X148800000Y-141000000D03*
%TD*%
D18*
%TO.N,+3.3V*%
X141950000Y-135923152D03*
X149400000Y-131700000D03*
%TO.N,/scl*%
X145450000Y-135200000D03*
%TO.N,GND*%
X144600000Y-135400000D03*
X147400000Y-136600000D03*
X143300000Y-140900000D03*
X145030429Y-133401671D03*
X146602751Y-130742962D03*
X149006587Y-134006587D03*
%TO.N,/sda*%
X143010841Y-136210841D03*
%TO.N,Net-(U6-~{CS})*%
X148725735Y-132325735D03*
X144800000Y-137400000D03*
%TD*%
D19*
%TO.N,+3.3V*%
X143400000Y-133400000D02*
X143000000Y-133800000D01*
X149637499Y-131937499D02*
X149400000Y-131700000D01*
X143000000Y-133800000D02*
X143000000Y-134873152D01*
X141950000Y-135923152D02*
X141950000Y-137600000D01*
X143000000Y-134873152D02*
X143473152Y-134400000D01*
X150800000Y-137362501D02*
X150300000Y-136862501D01*
X142999000Y-133001000D02*
X141950000Y-134050000D01*
X147862501Y-138000000D02*
X149000000Y-136862501D01*
X144525000Y-133725000D02*
X144200000Y-133400000D01*
X149000000Y-136862501D02*
X148100000Y-135962501D01*
X144027500Y-132795000D02*
X144000000Y-132767500D01*
X146800000Y-132795000D02*
X145627500Y-132795000D01*
X143482443Y-132767500D02*
X143248943Y-133001000D01*
X143248943Y-133001000D02*
X142999000Y-133001000D01*
X144000000Y-132767500D02*
X144267500Y-132500000D01*
X141950000Y-137600000D02*
X142350000Y-138000000D01*
X148100000Y-135962501D02*
X148100000Y-133800000D01*
X150300000Y-136862501D02*
X149000000Y-136862501D01*
X145627500Y-132795000D02*
X145400000Y-132567500D01*
X145332500Y-132500000D02*
X145400000Y-132567500D01*
X144000000Y-132767500D02*
X143482443Y-132767500D01*
X144267500Y-132500000D02*
X145332500Y-132500000D01*
X142350000Y-138000000D02*
X147862501Y-138000000D01*
X143473152Y-134400000D02*
X143800000Y-134400000D01*
X141950000Y-135923152D02*
X143000000Y-134873152D01*
X144200000Y-133400000D02*
X143400000Y-133400000D01*
X148100000Y-133800000D02*
X149962501Y-131937499D01*
X149962501Y-131937499D02*
X150400000Y-131937499D01*
X141950000Y-134050000D02*
X141950000Y-135923152D01*
X150400000Y-131937499D02*
X149637499Y-131937499D01*
X144525000Y-134175000D02*
X144525000Y-133725000D01*
D20*
%TO.N,/scl*%
X145450000Y-135200000D02*
X145176000Y-135200000D01*
X144361412Y-134824000D02*
X144285412Y-134900000D01*
X145176000Y-135161412D02*
X144838588Y-134824000D01*
X145176000Y-135200000D02*
X145176000Y-135161412D01*
X144285412Y-134900000D02*
X143800000Y-134900000D01*
X144838588Y-134824000D02*
X144361412Y-134824000D01*
D19*
%TO.N,GND*%
X145500000Y-136099943D02*
X144800057Y-135400000D01*
X145525000Y-136600000D02*
X145500000Y-136575000D01*
X149000000Y-134013174D02*
X149006587Y-134006587D01*
X144300000Y-135900000D02*
X144600000Y-135600000D01*
X149006587Y-134006587D02*
X149006587Y-135130912D01*
X144600000Y-135600000D02*
X144600000Y-135400000D01*
X145025000Y-133425000D02*
X145025000Y-134175000D01*
X143800000Y-135900000D02*
X144300000Y-135900000D01*
X145525000Y-136625000D02*
X145525000Y-136600000D01*
X144000000Y-131632500D02*
X143767500Y-131632500D01*
X149006587Y-135130912D02*
X149000000Y-135137499D01*
X145030429Y-133419571D02*
X145025000Y-133425000D01*
X149006587Y-134006587D02*
X150637499Y-135637499D01*
X147400000Y-136600000D02*
X147400000Y-135535000D01*
X145500000Y-136575000D02*
X145500000Y-136099943D01*
X150637499Y-135637499D02*
X150800000Y-135637499D01*
X145030429Y-133401671D02*
X145030429Y-133419571D01*
X144800057Y-135400000D02*
X144600000Y-135400000D01*
D20*
%TO.N,Net-(U6-REGOUT)*%
X145525000Y-133875000D02*
X145525000Y-134175000D01*
X147400000Y-134400000D02*
X146600000Y-133600000D01*
X145800000Y-133600000D02*
X145525000Y-133875000D01*
X146600000Y-133600000D02*
X145800000Y-133600000D01*
%TO.N,/sda*%
X143010841Y-135897667D02*
X143010841Y-136210841D01*
X143508508Y-135400000D02*
X143010841Y-135897667D01*
X143800000Y-135400000D02*
X143508508Y-135400000D01*
%TO.N,Net-(U6-~{CS})*%
X143800000Y-136800000D02*
X144400000Y-137400000D01*
X148725735Y-131825735D02*
X148296436Y-131396436D01*
X143800000Y-136400000D02*
X143800000Y-136800000D01*
X148296436Y-131396436D02*
X147003564Y-131396436D01*
X148725735Y-132325735D02*
X148725735Y-131825735D01*
X144400000Y-137400000D02*
X144800000Y-137400000D01*
X147003564Y-131396436D02*
X146800000Y-131600000D01*
X146600000Y-131400000D02*
X146800000Y-131600000D01*
%TD*%
%TA.AperFunction,Conductor*%
%TO.N,GND*%
G36*
X151131922Y-125051279D02*
G01*
X151244518Y-125063966D01*
X151271583Y-125070143D01*
X151371927Y-125105255D01*
X151396941Y-125117301D01*
X151486955Y-125173860D01*
X151508662Y-125191172D01*
X151583827Y-125266337D01*
X151601140Y-125288046D01*
X151657697Y-125378056D01*
X151669745Y-125403074D01*
X151704855Y-125503414D01*
X151711033Y-125530484D01*
X151723720Y-125643077D01*
X151724500Y-125656961D01*
X151724500Y-134682154D01*
X151704815Y-134749193D01*
X151652011Y-134794948D01*
X151582853Y-134804892D01*
X151519297Y-134775867D01*
X151512819Y-134769835D01*
X151498038Y-134755054D01*
X151498034Y-134755051D01*
X151351311Y-134664550D01*
X151351302Y-134664546D01*
X151262069Y-134634977D01*
X151204625Y-134595204D01*
X151177802Y-134530688D01*
X151190117Y-134461912D01*
X151213397Y-134429586D01*
X151219946Y-134423037D01*
X151219947Y-134423035D01*
X151310448Y-134276312D01*
X151310453Y-134276301D01*
X151364680Y-134112653D01*
X151374999Y-134011655D01*
X151375000Y-134011642D01*
X151375000Y-133912501D01*
X149425001Y-133912501D01*
X149425001Y-133976819D01*
X149405316Y-134043858D01*
X149352512Y-134089613D01*
X149289814Y-134099948D01*
X149289804Y-134100160D01*
X149288833Y-134100110D01*
X149288418Y-134100179D01*
X149286664Y-134100000D01*
X149286642Y-134099999D01*
X149250000Y-134099999D01*
X149250000Y-135013499D01*
X149230315Y-135080538D01*
X149177511Y-135126293D01*
X149126000Y-135137499D01*
X148874000Y-135137499D01*
X148806961Y-135117814D01*
X148761206Y-135065010D01*
X148750000Y-135013499D01*
X148750000Y-134099999D01*
X148713361Y-134099999D01*
X148713343Y-134100000D01*
X148612346Y-134110318D01*
X148606721Y-134111522D01*
X148537047Y-134106299D01*
X148481256Y-134064237D01*
X148457063Y-133998689D01*
X148472149Y-133930467D01*
X148493093Y-133902588D01*
X149217528Y-133178152D01*
X149278851Y-133144668D01*
X149348543Y-133149652D01*
X149404476Y-133191524D01*
X149428893Y-133256988D01*
X149428567Y-133278436D01*
X149425000Y-133313344D01*
X149425000Y-133412501D01*
X151374999Y-133412501D01*
X151374999Y-133313361D01*
X151374998Y-133313346D01*
X151364680Y-133212348D01*
X151310453Y-133048700D01*
X151310448Y-133048689D01*
X151219947Y-132901966D01*
X151219944Y-132901962D01*
X151098037Y-132780055D01*
X151037628Y-132742794D01*
X150990904Y-132690846D01*
X150979683Y-132621883D01*
X151003457Y-132562949D01*
X151070212Y-132473777D01*
X151119251Y-132342298D01*
X151121317Y-132323084D01*
X151125499Y-132284189D01*
X151125500Y-132284172D01*
X151125500Y-131590825D01*
X151125499Y-131590808D01*
X151119251Y-131532699D01*
X151102398Y-131487515D01*
X151070212Y-131401221D01*
X151056197Y-131382500D01*
X151053618Y-131379054D01*
X150986116Y-131288883D01*
X150873781Y-131204789D01*
X150873780Y-131204788D01*
X150873778Y-131204787D01*
X150826135Y-131187017D01*
X150742299Y-131155747D01*
X150684190Y-131149499D01*
X150684174Y-131149499D01*
X150115826Y-131149499D01*
X150115809Y-131149499D01*
X150057700Y-131155747D01*
X149926217Y-131204789D01*
X149868491Y-131248003D01*
X149803027Y-131272420D01*
X149734754Y-131257568D01*
X149732233Y-131256152D01*
X149612485Y-131187016D01*
X149472475Y-131149500D01*
X149327525Y-131149500D01*
X149204369Y-131182500D01*
X149187511Y-131187017D01*
X149061988Y-131259488D01*
X149061982Y-131259493D01*
X148959493Y-131361982D01*
X148959489Y-131361988D01*
X148953476Y-131372403D01*
X148902908Y-131420617D01*
X148834301Y-131433839D01*
X148769437Y-131407870D01*
X148758409Y-131398082D01*
X148496300Y-131135973D01*
X148496298Y-131135971D01*
X148459186Y-131114544D01*
X148422076Y-131093118D01*
X148380682Y-131082027D01*
X148339289Y-131070936D01*
X148339288Y-131070936D01*
X147243242Y-131070936D01*
X147186949Y-131057421D01*
X147088433Y-131007225D01*
X147088431Y-131007224D01*
X147088428Y-131007223D01*
X146992307Y-130992000D01*
X146607688Y-130992000D01*
X146607688Y-130992001D01*
X146511571Y-131007223D01*
X146511570Y-131007223D01*
X146395704Y-131066260D01*
X146395702Y-131066261D01*
X146386440Y-131075524D01*
X146325115Y-131109007D01*
X146255424Y-131104020D01*
X146199492Y-131062147D01*
X146179684Y-131022434D01*
X146160906Y-130957801D01*
X146076666Y-130815357D01*
X146076660Y-130815349D01*
X145959650Y-130698339D01*
X145959642Y-130698333D01*
X145817197Y-130614092D01*
X145817194Y-130614090D01*
X145658280Y-130567921D01*
X145658281Y-130567921D01*
X145650000Y-130567269D01*
X145650000Y-131308500D01*
X145630315Y-131375539D01*
X145577511Y-131421294D01*
X145526000Y-131432500D01*
X145400000Y-131432500D01*
X145400000Y-131558500D01*
X145380315Y-131625539D01*
X145327511Y-131671294D01*
X145276000Y-131682500D01*
X144940000Y-131682500D01*
X144940000Y-131758500D01*
X144920315Y-131825539D01*
X144867511Y-131871294D01*
X144816000Y-131882500D01*
X143190000Y-131882500D01*
X143190000Y-131911157D01*
X143192921Y-131948277D01*
X143192922Y-131948283D01*
X143239091Y-132107194D01*
X143239092Y-132107197D01*
X143323333Y-132249642D01*
X143323339Y-132249650D01*
X143339026Y-132265337D01*
X143372511Y-132326660D01*
X143367527Y-132396352D01*
X143325655Y-132452285D01*
X143313346Y-132460405D01*
X143267232Y-132487029D01*
X143267229Y-132487031D01*
X143140080Y-132614181D01*
X143078757Y-132647666D01*
X143052399Y-132650500D01*
X142952856Y-132650500D01*
X142863712Y-132674386D01*
X142863709Y-132674387D01*
X142783791Y-132720527D01*
X142783786Y-132720531D01*
X141669532Y-133834785D01*
X141669530Y-133834788D01*
X141659443Y-133852260D01*
X141629963Y-133903320D01*
X141623387Y-133914708D01*
X141622151Y-133919322D01*
X141599500Y-134003856D01*
X141599500Y-134003858D01*
X141599500Y-135443766D01*
X141579815Y-135510805D01*
X141563181Y-135531447D01*
X141509493Y-135585134D01*
X141509488Y-135585140D01*
X141437017Y-135710663D01*
X141437016Y-135710667D01*
X141399500Y-135850677D01*
X141399500Y-135995627D01*
X141431632Y-136115544D01*
X141437017Y-136135640D01*
X141509488Y-136261163D01*
X141509493Y-136261169D01*
X141563181Y-136314857D01*
X141596666Y-136376180D01*
X141599500Y-136402538D01*
X141599500Y-137646144D01*
X141614820Y-137703319D01*
X141614820Y-137703320D01*
X141623384Y-137735284D01*
X141623385Y-137735286D01*
X141669527Y-137815208D01*
X141669529Y-137815211D01*
X141669530Y-137815212D01*
X142069531Y-138215212D01*
X142134788Y-138280469D01*
X142134791Y-138280470D01*
X142134794Y-138280473D01*
X142214706Y-138326611D01*
X142214707Y-138326611D01*
X142214712Y-138326614D01*
X142303856Y-138350500D01*
X142303858Y-138350500D01*
X147908643Y-138350500D01*
X147908645Y-138350500D01*
X147997789Y-138326614D01*
X148077713Y-138280470D01*
X148671362Y-137686819D01*
X148732685Y-137653335D01*
X148759043Y-137650501D01*
X149284174Y-137650501D01*
X149284190Y-137650500D01*
X149342299Y-137644252D01*
X149351407Y-137640855D01*
X149473778Y-137595213D01*
X149586116Y-137511117D01*
X149670212Y-137398779D01*
X149693254Y-137337001D01*
X149709418Y-137293666D01*
X149722687Y-137275940D01*
X149731886Y-137255798D01*
X149743216Y-137248516D01*
X149751289Y-137237733D01*
X149772036Y-137229994D01*
X149790664Y-137218024D01*
X149812583Y-137214872D01*
X149816754Y-137213317D01*
X149825599Y-137213001D01*
X149950500Y-137213001D01*
X150017539Y-137232686D01*
X150063294Y-137285490D01*
X150074500Y-137337001D01*
X150074500Y-137709191D01*
X150080748Y-137767300D01*
X150109679Y-137844864D01*
X150129788Y-137898779D01*
X150213884Y-138011117D01*
X150326222Y-138095213D01*
X150418594Y-138129666D01*
X150457700Y-138144252D01*
X150515809Y-138150500D01*
X150515826Y-138150501D01*
X151084174Y-138150501D01*
X151084190Y-138150500D01*
X151142299Y-138144252D01*
X151273778Y-138095213D01*
X151386116Y-138011117D01*
X151470212Y-137898779D01*
X151484319Y-137860954D01*
X151526190Y-137805024D01*
X151591654Y-137780607D01*
X151659927Y-137795459D01*
X151709332Y-137844864D01*
X151724500Y-137904291D01*
X151724500Y-143643038D01*
X151723720Y-143656921D01*
X151723720Y-143656922D01*
X151711033Y-143769515D01*
X151704855Y-143796585D01*
X151669745Y-143896925D01*
X151657697Y-143921943D01*
X151601140Y-144011953D01*
X151583827Y-144033662D01*
X151508662Y-144108827D01*
X151486953Y-144126140D01*
X151396943Y-144182697D01*
X151371925Y-144194745D01*
X151271585Y-144229855D01*
X151244516Y-144236033D01*
X151159855Y-144245572D01*
X151131921Y-144248720D01*
X151118039Y-144249500D01*
X140131961Y-144249500D01*
X140118077Y-144248720D01*
X140005484Y-144236033D01*
X139978414Y-144229855D01*
X139878074Y-144194745D01*
X139853056Y-144182697D01*
X139763046Y-144126140D01*
X139741337Y-144108827D01*
X139666172Y-144033662D01*
X139648859Y-144011953D01*
X139592302Y-143921943D01*
X139580254Y-143896925D01*
X139545144Y-143796585D01*
X139538966Y-143769514D01*
X139526280Y-143656921D01*
X139525500Y-143643038D01*
X139525500Y-140852486D01*
X146549500Y-140852486D01*
X146549500Y-141147513D01*
X146581571Y-141391113D01*
X146588007Y-141439993D01*
X146588008Y-141439995D01*
X146664361Y-141724951D01*
X146664364Y-141724961D01*
X146777254Y-141997500D01*
X146777258Y-141997510D01*
X146924761Y-142252993D01*
X147104352Y-142487040D01*
X147104358Y-142487047D01*
X147312952Y-142695641D01*
X147312959Y-142695647D01*
X147547006Y-142875238D01*
X147802489Y-143022741D01*
X147802490Y-143022741D01*
X147802493Y-143022743D01*
X148075048Y-143135639D01*
X148360007Y-143211993D01*
X148652494Y-143250500D01*
X148652501Y-143250500D01*
X148947499Y-143250500D01*
X148947506Y-143250500D01*
X149239993Y-143211993D01*
X149524952Y-143135639D01*
X149797507Y-143022743D01*
X150052994Y-142875238D01*
X150287042Y-142695646D01*
X150495646Y-142487042D01*
X150675238Y-142252994D01*
X150822743Y-141997507D01*
X150935639Y-141724952D01*
X151011993Y-141439993D01*
X151050500Y-141147506D01*
X151050500Y-140852494D01*
X151011993Y-140560007D01*
X150935639Y-140275048D01*
X150822743Y-140002493D01*
X150810059Y-139980524D01*
X150675238Y-139747006D01*
X150495647Y-139512959D01*
X150495641Y-139512952D01*
X150287047Y-139304358D01*
X150287040Y-139304352D01*
X150052993Y-139124761D01*
X149797510Y-138977258D01*
X149797500Y-138977254D01*
X149524961Y-138864364D01*
X149524954Y-138864362D01*
X149524952Y-138864361D01*
X149239993Y-138788007D01*
X149191113Y-138781571D01*
X148947513Y-138749500D01*
X148947506Y-138749500D01*
X148652494Y-138749500D01*
X148652486Y-138749500D01*
X148374085Y-138786153D01*
X148360007Y-138788007D01*
X148075048Y-138864361D01*
X148075038Y-138864364D01*
X147802499Y-138977254D01*
X147802489Y-138977258D01*
X147547006Y-139124761D01*
X147312959Y-139304352D01*
X147312952Y-139304358D01*
X147104358Y-139512952D01*
X147104352Y-139512959D01*
X146924761Y-139747006D01*
X146777258Y-140002489D01*
X146777254Y-140002499D01*
X146664364Y-140275038D01*
X146664361Y-140275048D01*
X146588008Y-140560004D01*
X146588006Y-140560015D01*
X146549500Y-140852486D01*
X139525500Y-140852486D01*
X139525500Y-139420943D01*
X139799500Y-139420943D01*
X139799500Y-139579056D01*
X139840423Y-139731783D01*
X139840426Y-139731790D01*
X139919475Y-139868709D01*
X139919479Y-139868714D01*
X139919480Y-139868716D01*
X140031284Y-139980520D01*
X140031286Y-139980521D01*
X140031290Y-139980524D01*
X140168209Y-140059573D01*
X140168216Y-140059577D01*
X140320943Y-140100500D01*
X140320945Y-140100500D01*
X140479055Y-140100500D01*
X140479057Y-140100500D01*
X140631784Y-140059577D01*
X140768716Y-139980520D01*
X140880520Y-139868716D01*
X140959577Y-139731784D01*
X141000500Y-139579057D01*
X141000500Y-139420943D01*
X143899500Y-139420943D01*
X143899500Y-139579056D01*
X143940423Y-139731783D01*
X143940426Y-139731790D01*
X144019475Y-139868709D01*
X144019479Y-139868714D01*
X144019480Y-139868716D01*
X144131284Y-139980520D01*
X144131286Y-139980521D01*
X144131290Y-139980524D01*
X144268209Y-140059573D01*
X144268216Y-140059577D01*
X144420943Y-140100500D01*
X144420945Y-140100500D01*
X144579055Y-140100500D01*
X144579057Y-140100500D01*
X144731784Y-140059577D01*
X144868716Y-139980520D01*
X144980520Y-139868716D01*
X145059577Y-139731784D01*
X145100500Y-139579057D01*
X145100500Y-139420943D01*
X145059577Y-139268216D01*
X145059573Y-139268209D01*
X144980524Y-139131290D01*
X144980518Y-139131282D01*
X144868717Y-139019481D01*
X144868709Y-139019475D01*
X144731790Y-138940426D01*
X144731786Y-138940424D01*
X144731784Y-138940423D01*
X144579057Y-138899500D01*
X144420943Y-138899500D01*
X144268216Y-138940423D01*
X144268209Y-138940426D01*
X144131290Y-139019475D01*
X144131282Y-139019481D01*
X144019481Y-139131282D01*
X144019475Y-139131290D01*
X143940426Y-139268209D01*
X143940423Y-139268216D01*
X143899500Y-139420943D01*
X141000500Y-139420943D01*
X140959577Y-139268216D01*
X140959573Y-139268209D01*
X140880524Y-139131290D01*
X140880518Y-139131282D01*
X140768717Y-139019481D01*
X140768709Y-139019475D01*
X140631790Y-138940426D01*
X140631786Y-138940424D01*
X140631784Y-138940423D01*
X140479057Y-138899500D01*
X140320943Y-138899500D01*
X140168216Y-138940423D01*
X140168209Y-138940426D01*
X140031290Y-139019475D01*
X140031282Y-139019481D01*
X139919481Y-139131282D01*
X139919475Y-139131290D01*
X139840426Y-139268209D01*
X139840423Y-139268216D01*
X139799500Y-139420943D01*
X139525500Y-139420943D01*
X139525500Y-131353842D01*
X143190000Y-131353842D01*
X143190000Y-131382500D01*
X143750000Y-131382500D01*
X143750000Y-130767269D01*
X144250000Y-130767269D01*
X144250000Y-131382500D01*
X144460000Y-131382500D01*
X144460000Y-131306500D01*
X144479685Y-131239461D01*
X144532489Y-131193706D01*
X144584000Y-131182500D01*
X145150000Y-131182500D01*
X145150000Y-130567269D01*
X145141718Y-130567921D01*
X144982805Y-130614090D01*
X144982802Y-130614092D01*
X144840357Y-130698333D01*
X144840349Y-130698339D01*
X144723339Y-130815349D01*
X144723335Y-130815355D01*
X144707682Y-130841823D01*
X144656612Y-130889506D01*
X144587870Y-130902009D01*
X144537829Y-130885433D01*
X144417197Y-130814092D01*
X144417194Y-130814090D01*
X144258280Y-130767921D01*
X144258281Y-130767921D01*
X144250000Y-130767269D01*
X143750000Y-130767269D01*
X143741718Y-130767921D01*
X143582805Y-130814090D01*
X143582802Y-130814092D01*
X143440357Y-130898333D01*
X143440349Y-130898339D01*
X143323339Y-131015349D01*
X143323333Y-131015357D01*
X143239092Y-131157802D01*
X143239091Y-131157805D01*
X143192922Y-131316716D01*
X143192921Y-131316722D01*
X143190000Y-131353842D01*
X139525500Y-131353842D01*
X139525500Y-128152486D01*
X140199500Y-128152486D01*
X140199500Y-128447513D01*
X140231571Y-128691113D01*
X140238007Y-128739993D01*
X140238008Y-128739995D01*
X140314361Y-129024951D01*
X140314364Y-129024961D01*
X140427254Y-129297500D01*
X140427258Y-129297510D01*
X140574761Y-129552993D01*
X140754352Y-129787040D01*
X140754358Y-129787047D01*
X140962952Y-129995641D01*
X140962959Y-129995647D01*
X141197006Y-130175238D01*
X141452489Y-130322741D01*
X141452490Y-130322741D01*
X141452493Y-130322743D01*
X141725048Y-130435639D01*
X142010007Y-130511993D01*
X142302494Y-130550500D01*
X142302501Y-130550500D01*
X142597499Y-130550500D01*
X142597506Y-130550500D01*
X142889993Y-130511993D01*
X143174952Y-130435639D01*
X143447507Y-130322743D01*
X143702994Y-130175238D01*
X143937042Y-129995646D01*
X144145646Y-129787042D01*
X144196366Y-129720943D01*
X146149500Y-129720943D01*
X146149500Y-129879056D01*
X146190423Y-130031783D01*
X146190426Y-130031790D01*
X146269475Y-130168709D01*
X146269479Y-130168714D01*
X146269480Y-130168716D01*
X146381284Y-130280520D01*
X146381286Y-130280521D01*
X146381290Y-130280524D01*
X146518209Y-130359573D01*
X146518216Y-130359577D01*
X146670943Y-130400500D01*
X146670945Y-130400500D01*
X146829055Y-130400500D01*
X146829057Y-130400500D01*
X146981784Y-130359577D01*
X147118716Y-130280520D01*
X147230520Y-130168716D01*
X147309577Y-130031784D01*
X147350500Y-129879057D01*
X147350500Y-129720943D01*
X150249500Y-129720943D01*
X150249500Y-129879056D01*
X150290423Y-130031783D01*
X150290426Y-130031790D01*
X150369475Y-130168709D01*
X150369479Y-130168714D01*
X150369480Y-130168716D01*
X150481284Y-130280520D01*
X150481286Y-130280521D01*
X150481290Y-130280524D01*
X150618209Y-130359573D01*
X150618216Y-130359577D01*
X150770943Y-130400500D01*
X150770945Y-130400500D01*
X150929055Y-130400500D01*
X150929057Y-130400500D01*
X151081784Y-130359577D01*
X151218716Y-130280520D01*
X151330520Y-130168716D01*
X151409577Y-130031784D01*
X151450500Y-129879057D01*
X151450500Y-129720943D01*
X151409577Y-129568216D01*
X151400788Y-129552993D01*
X151330524Y-129431290D01*
X151330518Y-129431282D01*
X151218717Y-129319481D01*
X151218709Y-129319475D01*
X151081790Y-129240426D01*
X151081786Y-129240424D01*
X151081784Y-129240423D01*
X150929057Y-129199500D01*
X150770943Y-129199500D01*
X150618216Y-129240423D01*
X150618209Y-129240426D01*
X150481290Y-129319475D01*
X150481282Y-129319481D01*
X150369481Y-129431282D01*
X150369475Y-129431290D01*
X150290426Y-129568209D01*
X150290423Y-129568216D01*
X150249500Y-129720943D01*
X147350500Y-129720943D01*
X147309577Y-129568216D01*
X147300788Y-129552993D01*
X147230524Y-129431290D01*
X147230518Y-129431282D01*
X147118717Y-129319481D01*
X147118709Y-129319475D01*
X146981790Y-129240426D01*
X146981786Y-129240424D01*
X146981784Y-129240423D01*
X146829057Y-129199500D01*
X146670943Y-129199500D01*
X146518216Y-129240423D01*
X146518209Y-129240426D01*
X146381290Y-129319475D01*
X146381282Y-129319481D01*
X146269481Y-129431282D01*
X146269475Y-129431290D01*
X146190426Y-129568209D01*
X146190423Y-129568216D01*
X146149500Y-129720943D01*
X144196366Y-129720943D01*
X144325238Y-129552994D01*
X144472743Y-129297507D01*
X144585639Y-129024952D01*
X144661993Y-128739993D01*
X144700500Y-128447506D01*
X144700500Y-128152494D01*
X144661993Y-127860007D01*
X144585639Y-127575048D01*
X144472743Y-127302493D01*
X144325238Y-127047006D01*
X144145646Y-126812958D01*
X144145641Y-126812952D01*
X143937047Y-126604358D01*
X143937040Y-126604352D01*
X143702993Y-126424761D01*
X143447510Y-126277258D01*
X143447500Y-126277254D01*
X143174961Y-126164364D01*
X143174954Y-126164362D01*
X143174952Y-126164361D01*
X142889993Y-126088007D01*
X142841113Y-126081571D01*
X142597513Y-126049500D01*
X142597506Y-126049500D01*
X142302494Y-126049500D01*
X142302486Y-126049500D01*
X142024085Y-126086153D01*
X142010007Y-126088007D01*
X141725048Y-126164361D01*
X141725038Y-126164364D01*
X141452499Y-126277254D01*
X141452489Y-126277258D01*
X141197006Y-126424761D01*
X140962959Y-126604352D01*
X140962952Y-126604358D01*
X140754358Y-126812952D01*
X140754352Y-126812959D01*
X140574761Y-127047006D01*
X140427258Y-127302489D01*
X140427254Y-127302499D01*
X140314364Y-127575038D01*
X140314361Y-127575048D01*
X140238008Y-127860004D01*
X140238006Y-127860015D01*
X140199500Y-128152486D01*
X139525500Y-128152486D01*
X139525500Y-125656961D01*
X139526280Y-125643078D01*
X139538966Y-125530485D01*
X139538966Y-125530479D01*
X139545142Y-125503418D01*
X139580256Y-125403068D01*
X139592299Y-125378062D01*
X139648863Y-125288040D01*
X139666168Y-125266341D01*
X139741341Y-125191168D01*
X139763040Y-125173863D01*
X139853062Y-125117299D01*
X139878068Y-125105256D01*
X139978418Y-125070142D01*
X140005481Y-125063966D01*
X140102769Y-125053004D01*
X140118078Y-125051280D01*
X140131961Y-125050500D01*
X140182583Y-125050500D01*
X151067417Y-125050500D01*
X151118039Y-125050500D01*
X151131922Y-125051279D01*
G37*
%TD.AperFunction*%
%TA.AperFunction,Conductor*%
G36*
X146318039Y-134419685D02*
G01*
X146363794Y-134472489D01*
X146375000Y-134524000D01*
X146375000Y-135250000D01*
X147018638Y-135250000D01*
X147085677Y-135269685D01*
X147104682Y-135285000D01*
X147276000Y-135285000D01*
X147343039Y-135304685D01*
X147388794Y-135357489D01*
X147400000Y-135409000D01*
X147400000Y-135535000D01*
X147526000Y-135535000D01*
X147593039Y-135554685D01*
X147638794Y-135607489D01*
X147650000Y-135659000D01*
X147650000Y-136400228D01*
X147650001Y-136400229D01*
X147658275Y-136399579D01*
X147658282Y-136399577D01*
X147817194Y-136353409D01*
X147817195Y-136353408D01*
X147846274Y-136336211D01*
X147913998Y-136319027D01*
X147980261Y-136341186D01*
X147997078Y-136355261D01*
X148238181Y-136596364D01*
X148271666Y-136657687D01*
X148274500Y-136684045D01*
X148274500Y-137040957D01*
X148254815Y-137107996D01*
X148238181Y-137128638D01*
X147753638Y-137613181D01*
X147692315Y-137646666D01*
X147665957Y-137649500D01*
X145464666Y-137649500D01*
X145397627Y-137629815D01*
X145351872Y-137577011D01*
X145341266Y-137513321D01*
X145342263Y-137503213D01*
X145350500Y-137472475D01*
X145350500Y-137419762D01*
X145351100Y-137413683D01*
X145361992Y-137386724D01*
X145370185Y-137358823D01*
X145375000Y-137352847D01*
X145375000Y-137350000D01*
X145675000Y-137350000D01*
X145722828Y-137350000D01*
X145722844Y-137349999D01*
X145782372Y-137343598D01*
X145782379Y-137343596D01*
X145917086Y-137293354D01*
X145917093Y-137293350D01*
X146032187Y-137207190D01*
X146074999Y-137150002D01*
X146075000Y-137149999D01*
X146075000Y-137050000D01*
X146375000Y-137050000D01*
X146522828Y-137050000D01*
X146522844Y-137049999D01*
X146582372Y-137043598D01*
X146582379Y-137043596D01*
X146717086Y-136993354D01*
X146717093Y-136993350D01*
X146832187Y-136907190D01*
X146832190Y-136907187D01*
X146918350Y-136792093D01*
X146918354Y-136792086D01*
X146968596Y-136657379D01*
X146968598Y-136657372D01*
X146974999Y-136597844D01*
X146975000Y-136597827D01*
X146975000Y-136550000D01*
X146375000Y-136550000D01*
X146375000Y-137050000D01*
X146075000Y-137050000D01*
X146075000Y-136750000D01*
X145675000Y-136750000D01*
X145675000Y-137350000D01*
X145375000Y-137350000D01*
X145375000Y-137039181D01*
X145394685Y-136972142D01*
X145395856Y-136970352D01*
X145410966Y-136947740D01*
X145425500Y-136874674D01*
X145425500Y-136724000D01*
X145428050Y-136715314D01*
X145426762Y-136706353D01*
X145437740Y-136682312D01*
X145445185Y-136656961D01*
X145452025Y-136651033D01*
X145455787Y-136642797D01*
X145478021Y-136628507D01*
X145497989Y-136611206D01*
X145508503Y-136608918D01*
X145514565Y-136605023D01*
X145525000Y-136603522D01*
X145525000Y-136574000D01*
X145544685Y-136506961D01*
X145597489Y-136461206D01*
X145649000Y-136450000D01*
X146075000Y-136450000D01*
X146075000Y-136250000D01*
X146375000Y-136250000D01*
X146981000Y-136250000D01*
X146989685Y-136252550D01*
X146998647Y-136251262D01*
X147022687Y-136262240D01*
X147048039Y-136269685D01*
X147053966Y-136276525D01*
X147062203Y-136280287D01*
X147076492Y-136302521D01*
X147093794Y-136322489D01*
X147096081Y-136333003D01*
X147099977Y-136339065D01*
X147105000Y-136374000D01*
X147105000Y-136395229D01*
X147116647Y-136393555D01*
X147133597Y-136397217D01*
X147141722Y-136399577D01*
X147141732Y-136399579D01*
X147149998Y-136400229D01*
X147150000Y-136400228D01*
X147150000Y-135785000D01*
X146584000Y-135785000D01*
X146516961Y-135765315D01*
X146471206Y-135712511D01*
X146460000Y-135661000D01*
X146460000Y-135550000D01*
X146375000Y-135550000D01*
X146375000Y-136250000D01*
X146075000Y-136250000D01*
X146075000Y-134524000D01*
X146094685Y-134456961D01*
X146147489Y-134411206D01*
X146199000Y-134400000D01*
X146251000Y-134400000D01*
X146318039Y-134419685D01*
G37*
%TD.AperFunction*%
%TA.AperFunction,Conductor*%
G36*
X144719437Y-135169185D02*
G01*
X144740079Y-135185818D01*
X144851279Y-135297017D01*
X144858972Y-135307043D01*
X144865612Y-135314207D01*
X144872157Y-135323678D01*
X144872682Y-135325638D01*
X144915535Y-135399862D01*
X144945518Y-135429845D01*
X144951905Y-135439088D01*
X144957278Y-135447580D01*
X145009491Y-135538015D01*
X145111985Y-135640509D01*
X145159499Y-135667941D01*
X145172317Y-135675342D01*
X145220533Y-135725909D01*
X145233755Y-135794516D01*
X145207787Y-135859381D01*
X145153652Y-135898910D01*
X145132915Y-135906644D01*
X145132906Y-135906649D01*
X145017814Y-135992808D01*
X145017809Y-135992813D01*
X144975141Y-136049811D01*
X144949667Y-136068880D01*
X144925234Y-136089252D01*
X144921385Y-136090050D01*
X144919207Y-136091682D01*
X144891187Y-136098551D01*
X144883561Y-136099500D01*
X144850326Y-136099500D01*
X144794791Y-136110546D01*
X144790313Y-136111104D01*
X144781533Y-136109671D01*
X144750810Y-136109671D01*
X144699674Y-136099500D01*
X144675862Y-136099500D01*
X144608823Y-136079815D01*
X144588181Y-136063181D01*
X144575000Y-136050000D01*
X144264183Y-136050000D01*
X144247824Y-136045413D01*
X144232167Y-136045796D01*
X144204466Y-136033255D01*
X144199714Y-136031923D01*
X144197460Y-136030551D01*
X144172740Y-136014034D01*
X144169148Y-136013319D01*
X144156996Y-136005923D01*
X144139663Y-135986881D01*
X144119610Y-135970722D01*
X144116528Y-135961465D01*
X144109964Y-135954253D01*
X144105677Y-135928864D01*
X144097544Y-135904429D01*
X144099956Y-135894977D01*
X144098332Y-135885359D01*
X144108454Y-135861678D01*
X144114822Y-135836729D01*
X144121960Y-135830082D01*
X144125795Y-135821112D01*
X144147112Y-135806663D01*
X144165958Y-135789117D01*
X144172486Y-135786135D01*
X144172738Y-135785966D01*
X144172740Y-135785966D01*
X144182952Y-135779142D01*
X144195294Y-135770897D01*
X144261972Y-135750020D01*
X144264183Y-135750000D01*
X144575000Y-135750000D01*
X144575000Y-135702172D01*
X144574999Y-135702155D01*
X144568598Y-135642627D01*
X144568596Y-135642620D01*
X144518354Y-135507913D01*
X144518350Y-135507906D01*
X144432191Y-135392814D01*
X144432183Y-135392805D01*
X144430562Y-135391592D01*
X144429348Y-135389970D01*
X144425915Y-135386537D01*
X144426408Y-135386043D01*
X144410474Y-135364754D01*
X144389760Y-135338413D01*
X144389614Y-135336885D01*
X144388694Y-135335656D01*
X144386304Y-135302221D01*
X144383119Y-135268860D01*
X144383822Y-135267495D01*
X144383713Y-135265964D01*
X144399773Y-135236555D01*
X144415136Y-135206758D01*
X144416732Y-135205502D01*
X144417202Y-135204643D01*
X144442878Y-135184942D01*
X144470171Y-135169185D01*
X144475494Y-135166112D01*
X144537492Y-135149500D01*
X144652398Y-135149500D01*
X144719437Y-135169185D01*
G37*
%TD.AperFunction*%
%TA.AperFunction,Conductor*%
G36*
X144764433Y-132854787D02*
G01*
X144779638Y-132854136D01*
X144797276Y-132864431D01*
X144816870Y-132870185D01*
X144827766Y-132882229D01*
X144839980Y-132889358D01*
X144860314Y-132918202D01*
X144912854Y-133021318D01*
X144912855Y-133021319D01*
X144912858Y-133021323D01*
X145003676Y-133112141D01*
X145003680Y-133112144D01*
X145003682Y-133112146D01*
X145118132Y-133170461D01*
X145118134Y-133170461D01*
X145118136Y-133170462D01*
X145213083Y-133185500D01*
X145454809Y-133185500D01*
X145521848Y-133205185D01*
X145567603Y-133257989D01*
X145577547Y-133327147D01*
X145548522Y-133390703D01*
X145542489Y-133397182D01*
X145485043Y-133454627D01*
X145423720Y-133488111D01*
X145354030Y-133483127D01*
X145282379Y-133456403D01*
X145282372Y-133456401D01*
X145222844Y-133450000D01*
X145175000Y-133450000D01*
X145175000Y-133760817D01*
X145170412Y-133777177D01*
X145170795Y-133792834D01*
X145158254Y-133820536D01*
X145156922Y-133825287D01*
X145155546Y-133827546D01*
X145139034Y-133852260D01*
X145138320Y-133855849D01*
X145130922Y-133868004D01*
X145111880Y-133885336D01*
X145095719Y-133905391D01*
X145086464Y-133908471D01*
X145079252Y-133915036D01*
X145053859Y-133919322D01*
X145029424Y-133927455D01*
X145019973Y-133925042D01*
X145010357Y-133926666D01*
X144986678Y-133916544D01*
X144961725Y-133910175D01*
X144955079Y-133903036D01*
X144946111Y-133899203D01*
X144931662Y-133877885D01*
X144914115Y-133859037D01*
X144911136Y-133852516D01*
X144910966Y-133852262D01*
X144910966Y-133852260D01*
X144896396Y-133830454D01*
X144875520Y-133763778D01*
X144875500Y-133761566D01*
X144875500Y-133674563D01*
X144875000Y-133666933D01*
X144875000Y-133450000D01*
X144827169Y-133450000D01*
X144812576Y-133451569D01*
X144810317Y-133451161D01*
X144808168Y-133451963D01*
X144776120Y-133444991D01*
X144743817Y-133439163D01*
X144741436Y-133437446D01*
X144739895Y-133437111D01*
X144711641Y-133415960D01*
X144560926Y-133265245D01*
X144527441Y-133203922D01*
X144532425Y-133134230D01*
X144538116Y-133121282D01*
X144545461Y-133106868D01*
X144560500Y-133011916D01*
X144560500Y-132974500D01*
X144580185Y-132907461D01*
X144632989Y-132861706D01*
X144684500Y-132850500D01*
X144749831Y-132850500D01*
X144764433Y-132854787D01*
G37*
%TD.AperFunction*%
%TD*%
%TA.AperFunction,NonConductor*%
G36*
X148177286Y-131741621D02*
G01*
X148197928Y-131758255D01*
X148270057Y-131830384D01*
X148303542Y-131891707D01*
X148298558Y-131961399D01*
X148288224Y-131980067D01*
X148289290Y-131980683D01*
X148285228Y-131987717D01*
X148285226Y-131987720D01*
X148212751Y-132113250D01*
X148175235Y-132253260D01*
X148175235Y-132398210D01*
X148199035Y-132487030D01*
X148212752Y-132538223D01*
X148285223Y-132663746D01*
X148285225Y-132663748D01*
X148285226Y-132663750D01*
X148387720Y-132766244D01*
X148406487Y-132777079D01*
X148454702Y-132827644D01*
X148467927Y-132896251D01*
X148441960Y-132961116D01*
X148432169Y-132972147D01*
X147819531Y-133584786D01*
X147819527Y-133584791D01*
X147773387Y-133664709D01*
X147773384Y-133664716D01*
X147764543Y-133697712D01*
X147728178Y-133757372D01*
X147665330Y-133787900D01*
X147625373Y-133788091D01*
X147586916Y-133782000D01*
X147586911Y-133782000D01*
X147293689Y-133782000D01*
X147264248Y-133773355D01*
X147234262Y-133766832D01*
X147229246Y-133763077D01*
X147226650Y-133762315D01*
X147206008Y-133745681D01*
X147049905Y-133589578D01*
X147016420Y-133528255D01*
X147021404Y-133458563D01*
X147063276Y-133402630D01*
X147081292Y-133391412D01*
X147088428Y-133387775D01*
X147088433Y-133387775D01*
X147204294Y-133328741D01*
X147296241Y-133236794D01*
X147355275Y-133120933D01*
X147357504Y-133106863D01*
X147357897Y-133104372D01*
X147370500Y-133024807D01*
X147370499Y-132565194D01*
X147370499Y-132565188D01*
X147355276Y-132469071D01*
X147355276Y-132469070D01*
X147355275Y-132469068D01*
X147355275Y-132469067D01*
X147296241Y-132353206D01*
X147296239Y-132353204D01*
X147296236Y-132353200D01*
X147228217Y-132285181D01*
X147194732Y-132223858D01*
X147199716Y-132154166D01*
X147228217Y-132109819D01*
X147296236Y-132041799D01*
X147296241Y-132041794D01*
X147355275Y-131925933D01*
X147356748Y-131916636D01*
X147371018Y-131826538D01*
X147400947Y-131763404D01*
X147460258Y-131726472D01*
X147493491Y-131721936D01*
X148110247Y-131721936D01*
X148177286Y-131741621D01*
G37*
%TD.AperFunction*%
%TA.AperFunction,NonConductor*%
G36*
X144070494Y-133770185D02*
G01*
X144091136Y-133786819D01*
X144092136Y-133787819D01*
X144125621Y-133849142D01*
X144120637Y-133918834D01*
X144078765Y-133974767D01*
X144013301Y-133999184D01*
X144004455Y-133999500D01*
X143595543Y-133999500D01*
X143528504Y-133979815D01*
X143482749Y-133927011D01*
X143472805Y-133857853D01*
X143501830Y-133794297D01*
X143507862Y-133787819D01*
X143508862Y-133786819D01*
X143570185Y-133753334D01*
X143596543Y-133750500D01*
X144003455Y-133750500D01*
X144070494Y-133770185D01*
G37*
%TD.AperFunction*%
%TA.AperFunction,NonConductor*%
G36*
X142568834Y-134029362D02*
G01*
X142624767Y-134071234D01*
X142649184Y-134136698D01*
X142649500Y-134145544D01*
X142649500Y-134676608D01*
X142629815Y-134743647D01*
X142613181Y-134764289D01*
X142512181Y-134865289D01*
X142450858Y-134898774D01*
X142381166Y-134893790D01*
X142325233Y-134851918D01*
X142300816Y-134786454D01*
X142300500Y-134777608D01*
X142300500Y-134246544D01*
X142309144Y-134217103D01*
X142315668Y-134187117D01*
X142319422Y-134182101D01*
X142320185Y-134179505D01*
X142336819Y-134158863D01*
X142437819Y-134057863D01*
X142499142Y-134024378D01*
X142568834Y-134029362D01*
G37*
%TD.AperFunction*%
%TA.AperFunction,NonConductor*%
G36*
X142505703Y-136450555D02*
G01*
X142531887Y-136482268D01*
X142570329Y-136548852D01*
X142570331Y-136548854D01*
X142570332Y-136548856D01*
X142672826Y-136651350D01*
X142672827Y-136651351D01*
X142672829Y-136651352D01*
X142798352Y-136723823D01*
X142798353Y-136723823D01*
X142798356Y-136723825D01*
X142938366Y-136761341D01*
X142938369Y-136761341D01*
X143083313Y-136761341D01*
X143083316Y-136761341D01*
X143223326Y-136723825D01*
X143245082Y-136711263D01*
X143312982Y-136694789D01*
X143379009Y-136717640D01*
X143380286Y-136718561D01*
X143392153Y-136727240D01*
X143394399Y-136730601D01*
X143421585Y-136748766D01*
X143423701Y-136750313D01*
X143443406Y-136776034D01*
X143464195Y-136800908D01*
X143464841Y-136804014D01*
X143466192Y-136805777D01*
X143466840Y-136813612D01*
X143471308Y-136835073D01*
X143473439Y-136834793D01*
X143474500Y-136842852D01*
X143496682Y-136925640D01*
X143509442Y-136947740D01*
X143539535Y-136999862D01*
X143539537Y-136999864D01*
X143977492Y-137437819D01*
X144010977Y-137499142D01*
X144005993Y-137568834D01*
X143964121Y-137624767D01*
X143898657Y-137649184D01*
X143889811Y-137649500D01*
X142546543Y-137649500D01*
X142517102Y-137640855D01*
X142487116Y-137634332D01*
X142482100Y-137630577D01*
X142479504Y-137629815D01*
X142458867Y-137613185D01*
X142336817Y-137491135D01*
X142303334Y-137429814D01*
X142300500Y-137403456D01*
X142300500Y-136544268D01*
X142320185Y-136477229D01*
X142372989Y-136431474D01*
X142442147Y-136421530D01*
X142505703Y-136450555D01*
G37*
%TD.AperFunction*%
M02*
