%TF.GenerationSoftware,KiCad,Pcbnew,9.0.7*%
%TF.CreationDate,2026-03-31T13:05:45-05:00*%
%TF.ProjectId,imu,696d752e-6b69-4636-9164-5f7063625858,rev?*%
%TF.SameCoordinates,Original*%
%TF.FileFunction,Legend,Top*%
%TF.FilePolarity,Positive*%
%FSLAX46Y46*%
G04 Gerber Fmt 4.6, Leading zero omitted, Abs format (unit mm)*
G04 Created by KiCad (PCBNEW 9.0.7) date 2026-03-31 13:05:45*
%MOMM*%
%LPD*%
G01*
G04 APERTURE LIST*
G04 Aperture macros list*
%AMRoundRect*
0 Rectangle with rounded corners*
0 $1 Rounding radius*
0 $2 $3 $4 $5 $6 $7 $8 $9 X,Y pos of 4 corners*
0 Add a 4 corners polygon primitive as box body*
4,1,4,$2,$3,$4,$5,$6,$7,$8,$9,$2,$3,0*
0 Add four circle primitives for the rounded corners*
1,1,$1+$1,$2,$3*
1,1,$1+$1,$4,$5*
1,1,$1+$1,$6,$7*
1,1,$1+$1,$8,$9*
0 Add four rect primitives between the rounded corners*
20,1,$1+$1,$2,$3,$4,$5,0*
20,1,$1+$1,$4,$5,$6,$7,0*
20,1,$1+$1,$6,$7,$8,$9,0*
20,1,$1+$1,$8,$9,$2,$3,0*%
G04 Aperture macros list end*
%ADD10C,0.100000*%
%ADD11C,0.200000*%
%ADD12C,0.120000*%
%ADD13C,0.000000*%
%ADD14R,0.500000X0.300000*%
%ADD15R,0.300000X0.500000*%
%ADD16RoundRect,0.155000X-0.155000X0.212500X-0.155000X-0.212500X0.155000X-0.212500X0.155000X0.212500X0*%
%ADD17RoundRect,0.237500X-0.237500X0.300000X-0.237500X-0.300000X0.237500X-0.300000X0.237500X0.300000X0*%
%ADD18RoundRect,0.155000X0.155000X-0.212500X0.155000X0.212500X-0.155000X0.212500X-0.155000X-0.212500X0*%
%ADD19RoundRect,0.237500X0.237500X-0.300000X0.237500X0.300000X-0.237500X0.300000X-0.237500X-0.300000X0*%
%ADD20RoundRect,0.160000X0.160000X-0.197500X0.160000X0.197500X-0.160000X0.197500X-0.160000X-0.197500X0*%
%ADD21C,4.000000*%
%ADD22C,0.600000*%
G04 APERTURE END LIST*
D10*
X139856265Y-138733030D02*
X139856265Y-137933030D01*
X139856265Y-137933030D02*
X140046741Y-137933030D01*
X140046741Y-137933030D02*
X140161027Y-137971125D01*
X140161027Y-137971125D02*
X140237217Y-138047315D01*
X140237217Y-138047315D02*
X140275312Y-138123506D01*
X140275312Y-138123506D02*
X140313408Y-138275887D01*
X140313408Y-138275887D02*
X140313408Y-138390173D01*
X140313408Y-138390173D02*
X140275312Y-138542554D01*
X140275312Y-138542554D02*
X140237217Y-138618744D01*
X140237217Y-138618744D02*
X140161027Y-138694935D01*
X140161027Y-138694935D02*
X140046741Y-138733030D01*
X140046741Y-138733030D02*
X139856265Y-138733030D01*
X140961027Y-138694935D02*
X140884836Y-138733030D01*
X140884836Y-138733030D02*
X140732455Y-138733030D01*
X140732455Y-138733030D02*
X140656265Y-138694935D01*
X140656265Y-138694935D02*
X140618169Y-138618744D01*
X140618169Y-138618744D02*
X140618169Y-138313982D01*
X140618169Y-138313982D02*
X140656265Y-138237792D01*
X140656265Y-138237792D02*
X140732455Y-138199696D01*
X140732455Y-138199696D02*
X140884836Y-138199696D01*
X140884836Y-138199696D02*
X140961027Y-138237792D01*
X140961027Y-138237792D02*
X140999122Y-138313982D01*
X140999122Y-138313982D02*
X140999122Y-138390173D01*
X140999122Y-138390173D02*
X140618169Y-138466363D01*
X141303883Y-138694935D02*
X141380074Y-138733030D01*
X141380074Y-138733030D02*
X141532455Y-138733030D01*
X141532455Y-138733030D02*
X141608645Y-138694935D01*
X141608645Y-138694935D02*
X141646741Y-138618744D01*
X141646741Y-138618744D02*
X141646741Y-138580649D01*
X141646741Y-138580649D02*
X141608645Y-138504458D01*
X141608645Y-138504458D02*
X141532455Y-138466363D01*
X141532455Y-138466363D02*
X141418169Y-138466363D01*
X141418169Y-138466363D02*
X141341979Y-138428268D01*
X141341979Y-138428268D02*
X141303883Y-138352077D01*
X141303883Y-138352077D02*
X141303883Y-138313982D01*
X141303883Y-138313982D02*
X141341979Y-138237792D01*
X141341979Y-138237792D02*
X141418169Y-138199696D01*
X141418169Y-138199696D02*
X141532455Y-138199696D01*
X141532455Y-138199696D02*
X141608645Y-138237792D01*
X141989598Y-138733030D02*
X141989598Y-138199696D01*
X141989598Y-137933030D02*
X141951502Y-137971125D01*
X141951502Y-137971125D02*
X141989598Y-138009220D01*
X141989598Y-138009220D02*
X142027693Y-137971125D01*
X142027693Y-137971125D02*
X141989598Y-137933030D01*
X141989598Y-137933030D02*
X141989598Y-138009220D01*
X142713407Y-138199696D02*
X142713407Y-138847315D01*
X142713407Y-138847315D02*
X142675312Y-138923506D01*
X142675312Y-138923506D02*
X142637216Y-138961601D01*
X142637216Y-138961601D02*
X142561026Y-138999696D01*
X142561026Y-138999696D02*
X142446740Y-138999696D01*
X142446740Y-138999696D02*
X142370550Y-138961601D01*
X142713407Y-138694935D02*
X142637216Y-138733030D01*
X142637216Y-138733030D02*
X142484835Y-138733030D01*
X142484835Y-138733030D02*
X142408645Y-138694935D01*
X142408645Y-138694935D02*
X142370550Y-138656839D01*
X142370550Y-138656839D02*
X142332454Y-138580649D01*
X142332454Y-138580649D02*
X142332454Y-138352077D01*
X142332454Y-138352077D02*
X142370550Y-138275887D01*
X142370550Y-138275887D02*
X142408645Y-138237792D01*
X142408645Y-138237792D02*
X142484835Y-138199696D01*
X142484835Y-138199696D02*
X142637216Y-138199696D01*
X142637216Y-138199696D02*
X142713407Y-138237792D01*
X143094360Y-138199696D02*
X143094360Y-138733030D01*
X143094360Y-138275887D02*
X143132455Y-138237792D01*
X143132455Y-138237792D02*
X143208645Y-138199696D01*
X143208645Y-138199696D02*
X143322931Y-138199696D01*
X143322931Y-138199696D02*
X143399122Y-138237792D01*
X143399122Y-138237792D02*
X143437217Y-138313982D01*
X143437217Y-138313982D02*
X143437217Y-138733030D01*
X144122932Y-138694935D02*
X144046741Y-138733030D01*
X144046741Y-138733030D02*
X143894360Y-138733030D01*
X143894360Y-138733030D02*
X143818170Y-138694935D01*
X143818170Y-138694935D02*
X143780074Y-138618744D01*
X143780074Y-138618744D02*
X143780074Y-138313982D01*
X143780074Y-138313982D02*
X143818170Y-138237792D01*
X143818170Y-138237792D02*
X143894360Y-138199696D01*
X143894360Y-138199696D02*
X144046741Y-138199696D01*
X144046741Y-138199696D02*
X144122932Y-138237792D01*
X144122932Y-138237792D02*
X144161027Y-138313982D01*
X144161027Y-138313982D02*
X144161027Y-138390173D01*
X144161027Y-138390173D02*
X143780074Y-138466363D01*
X144846741Y-138733030D02*
X144846741Y-137933030D01*
X144846741Y-138694935D02*
X144770550Y-138733030D01*
X144770550Y-138733030D02*
X144618169Y-138733030D01*
X144618169Y-138733030D02*
X144541979Y-138694935D01*
X144541979Y-138694935D02*
X144503884Y-138656839D01*
X144503884Y-138656839D02*
X144465788Y-138580649D01*
X144465788Y-138580649D02*
X144465788Y-138352077D01*
X144465788Y-138352077D02*
X144503884Y-138275887D01*
X144503884Y-138275887D02*
X144541979Y-138237792D01*
X144541979Y-138237792D02*
X144618169Y-138199696D01*
X144618169Y-138199696D02*
X144770550Y-138199696D01*
X144770550Y-138199696D02*
X144846741Y-138237792D01*
X146103884Y-138313982D02*
X146218170Y-138352077D01*
X146218170Y-138352077D02*
X146256265Y-138390173D01*
X146256265Y-138390173D02*
X146294361Y-138466363D01*
X146294361Y-138466363D02*
X146294361Y-138580649D01*
X146294361Y-138580649D02*
X146256265Y-138656839D01*
X146256265Y-138656839D02*
X146218170Y-138694935D01*
X146218170Y-138694935D02*
X146141980Y-138733030D01*
X146141980Y-138733030D02*
X145837218Y-138733030D01*
X145837218Y-138733030D02*
X145837218Y-137933030D01*
X145837218Y-137933030D02*
X146103884Y-137933030D01*
X146103884Y-137933030D02*
X146180075Y-137971125D01*
X146180075Y-137971125D02*
X146218170Y-138009220D01*
X146218170Y-138009220D02*
X146256265Y-138085411D01*
X146256265Y-138085411D02*
X146256265Y-138161601D01*
X146256265Y-138161601D02*
X146218170Y-138237792D01*
X146218170Y-138237792D02*
X146180075Y-138275887D01*
X146180075Y-138275887D02*
X146103884Y-138313982D01*
X146103884Y-138313982D02*
X145837218Y-138313982D01*
X146561027Y-138199696D02*
X146751503Y-138733030D01*
X146941980Y-138199696D02*
X146751503Y-138733030D01*
X146751503Y-138733030D02*
X146675313Y-138923506D01*
X146675313Y-138923506D02*
X146637218Y-138961601D01*
X146637218Y-138961601D02*
X146561027Y-138999696D01*
X147246742Y-138656839D02*
X147284837Y-138694935D01*
X147284837Y-138694935D02*
X147246742Y-138733030D01*
X147246742Y-138733030D02*
X147208646Y-138694935D01*
X147208646Y-138694935D02*
X147246742Y-138656839D01*
X147246742Y-138656839D02*
X147246742Y-138733030D01*
X147246742Y-138237792D02*
X147284837Y-138275887D01*
X147284837Y-138275887D02*
X147246742Y-138313982D01*
X147246742Y-138313982D02*
X147208646Y-138275887D01*
X147208646Y-138275887D02*
X147246742Y-138237792D01*
X147246742Y-138237792D02*
X147246742Y-138313982D01*
X140275312Y-140547035D02*
X140199122Y-140508940D01*
X140199122Y-140508940D02*
X140084836Y-140508940D01*
X140084836Y-140508940D02*
X139970550Y-140547035D01*
X139970550Y-140547035D02*
X139894360Y-140623225D01*
X139894360Y-140623225D02*
X139856265Y-140699416D01*
X139856265Y-140699416D02*
X139818169Y-140851797D01*
X139818169Y-140851797D02*
X139818169Y-140966083D01*
X139818169Y-140966083D02*
X139856265Y-141118464D01*
X139856265Y-141118464D02*
X139894360Y-141194654D01*
X139894360Y-141194654D02*
X139970550Y-141270845D01*
X139970550Y-141270845D02*
X140084836Y-141308940D01*
X140084836Y-141308940D02*
X140161027Y-141308940D01*
X140161027Y-141308940D02*
X140275312Y-141270845D01*
X140275312Y-141270845D02*
X140313408Y-141232749D01*
X140313408Y-141232749D02*
X140313408Y-140966083D01*
X140313408Y-140966083D02*
X140161027Y-140966083D01*
X140961027Y-141270845D02*
X140884836Y-141308940D01*
X140884836Y-141308940D02*
X140732455Y-141308940D01*
X140732455Y-141308940D02*
X140656265Y-141270845D01*
X140656265Y-141270845D02*
X140618169Y-141194654D01*
X140618169Y-141194654D02*
X140618169Y-140889892D01*
X140618169Y-140889892D02*
X140656265Y-140813702D01*
X140656265Y-140813702D02*
X140732455Y-140775606D01*
X140732455Y-140775606D02*
X140884836Y-140775606D01*
X140884836Y-140775606D02*
X140961027Y-140813702D01*
X140961027Y-140813702D02*
X140999122Y-140889892D01*
X140999122Y-140889892D02*
X140999122Y-140966083D01*
X140999122Y-140966083D02*
X140618169Y-141042273D01*
X141341979Y-140775606D02*
X141341979Y-141308940D01*
X141341979Y-140851797D02*
X141380074Y-140813702D01*
X141380074Y-140813702D02*
X141456264Y-140775606D01*
X141456264Y-140775606D02*
X141570550Y-140775606D01*
X141570550Y-140775606D02*
X141646741Y-140813702D01*
X141646741Y-140813702D02*
X141684836Y-140889892D01*
X141684836Y-140889892D02*
X141684836Y-141308940D01*
X142408646Y-140775606D02*
X142408646Y-141423225D01*
X142408646Y-141423225D02*
X142370551Y-141499416D01*
X142370551Y-141499416D02*
X142332455Y-141537511D01*
X142332455Y-141537511D02*
X142256265Y-141575606D01*
X142256265Y-141575606D02*
X142141979Y-141575606D01*
X142141979Y-141575606D02*
X142065789Y-141537511D01*
X142408646Y-141270845D02*
X142332455Y-141308940D01*
X142332455Y-141308940D02*
X142180074Y-141308940D01*
X142180074Y-141308940D02*
X142103884Y-141270845D01*
X142103884Y-141270845D02*
X142065789Y-141232749D01*
X142065789Y-141232749D02*
X142027693Y-141156559D01*
X142027693Y-141156559D02*
X142027693Y-140927987D01*
X142027693Y-140927987D02*
X142065789Y-140851797D01*
X142065789Y-140851797D02*
X142103884Y-140813702D01*
X142103884Y-140813702D02*
X142180074Y-140775606D01*
X142180074Y-140775606D02*
X142332455Y-140775606D01*
X142332455Y-140775606D02*
X142408646Y-140813702D01*
X142713408Y-140775606D02*
X142865789Y-141308940D01*
X142865789Y-141308940D02*
X143018170Y-140927987D01*
X143018170Y-140927987D02*
X143170551Y-141308940D01*
X143170551Y-141308940D02*
X143322932Y-140775606D01*
X143932456Y-141270845D02*
X143856265Y-141308940D01*
X143856265Y-141308940D02*
X143703884Y-141308940D01*
X143703884Y-141308940D02*
X143627694Y-141270845D01*
X143627694Y-141270845D02*
X143589598Y-141194654D01*
X143589598Y-141194654D02*
X143589598Y-140889892D01*
X143589598Y-140889892D02*
X143627694Y-140813702D01*
X143627694Y-140813702D02*
X143703884Y-140775606D01*
X143703884Y-140775606D02*
X143856265Y-140775606D01*
X143856265Y-140775606D02*
X143932456Y-140813702D01*
X143932456Y-140813702D02*
X143970551Y-140889892D01*
X143970551Y-140889892D02*
X143970551Y-140966083D01*
X143970551Y-140966083D02*
X143589598Y-141042273D01*
X144313408Y-140775606D02*
X144313408Y-141308940D01*
X144313408Y-140851797D02*
X144351503Y-140813702D01*
X144351503Y-140813702D02*
X144427693Y-140775606D01*
X144427693Y-140775606D02*
X144541979Y-140775606D01*
X144541979Y-140775606D02*
X144618170Y-140813702D01*
X144618170Y-140813702D02*
X144656265Y-140889892D01*
X144656265Y-140889892D02*
X144656265Y-141308940D01*
X146027694Y-141308940D02*
X145646742Y-141308940D01*
X145646742Y-141308940D02*
X145646742Y-140508940D01*
X146294361Y-141308940D02*
X146294361Y-140775606D01*
X146294361Y-140508940D02*
X146256265Y-140547035D01*
X146256265Y-140547035D02*
X146294361Y-140585130D01*
X146294361Y-140585130D02*
X146332456Y-140547035D01*
X146332456Y-140547035D02*
X146294361Y-140508940D01*
X146294361Y-140508940D02*
X146294361Y-140585130D01*
X139741979Y-141796895D02*
X140199122Y-141796895D01*
X139970550Y-142596895D02*
X139970550Y-141796895D01*
X140465789Y-142596895D02*
X140465789Y-142063561D01*
X140465789Y-142215942D02*
X140503884Y-142139752D01*
X140503884Y-142139752D02*
X140541979Y-142101657D01*
X140541979Y-142101657D02*
X140618170Y-142063561D01*
X140618170Y-142063561D02*
X140694360Y-142063561D01*
X141303884Y-142063561D02*
X141303884Y-142596895D01*
X140961027Y-142063561D02*
X140961027Y-142482609D01*
X140961027Y-142482609D02*
X140999122Y-142558800D01*
X140999122Y-142558800D02*
X141075312Y-142596895D01*
X141075312Y-142596895D02*
X141189598Y-142596895D01*
X141189598Y-142596895D02*
X141265789Y-142558800D01*
X141265789Y-142558800D02*
X141303884Y-142520704D01*
X141684837Y-142063561D02*
X141684837Y-142596895D01*
X141684837Y-142139752D02*
X141722932Y-142101657D01*
X141722932Y-142101657D02*
X141799122Y-142063561D01*
X141799122Y-142063561D02*
X141913408Y-142063561D01*
X141913408Y-142063561D02*
X141989599Y-142101657D01*
X141989599Y-142101657D02*
X142027694Y-142177847D01*
X142027694Y-142177847D02*
X142027694Y-142596895D01*
X142751504Y-142063561D02*
X142751504Y-142711180D01*
X142751504Y-142711180D02*
X142713409Y-142787371D01*
X142713409Y-142787371D02*
X142675313Y-142825466D01*
X142675313Y-142825466D02*
X142599123Y-142863561D01*
X142599123Y-142863561D02*
X142484837Y-142863561D01*
X142484837Y-142863561D02*
X142408647Y-142825466D01*
X142751504Y-142558800D02*
X142675313Y-142596895D01*
X142675313Y-142596895D02*
X142522932Y-142596895D01*
X142522932Y-142596895D02*
X142446742Y-142558800D01*
X142446742Y-142558800D02*
X142408647Y-142520704D01*
X142408647Y-142520704D02*
X142370551Y-142444514D01*
X142370551Y-142444514D02*
X142370551Y-142215942D01*
X142370551Y-142215942D02*
X142408647Y-142139752D01*
X142408647Y-142139752D02*
X142446742Y-142101657D01*
X142446742Y-142101657D02*
X142522932Y-142063561D01*
X142522932Y-142063561D02*
X142675313Y-142063561D01*
X142675313Y-142063561D02*
X142751504Y-142101657D01*
X144122933Y-142596895D02*
X143741981Y-142596895D01*
X143741981Y-142596895D02*
X143741981Y-141796895D01*
X144694362Y-142558800D02*
X144618171Y-142596895D01*
X144618171Y-142596895D02*
X144465790Y-142596895D01*
X144465790Y-142596895D02*
X144389600Y-142558800D01*
X144389600Y-142558800D02*
X144351504Y-142482609D01*
X144351504Y-142482609D02*
X144351504Y-142177847D01*
X144351504Y-142177847D02*
X144389600Y-142101657D01*
X144389600Y-142101657D02*
X144465790Y-142063561D01*
X144465790Y-142063561D02*
X144618171Y-142063561D01*
X144618171Y-142063561D02*
X144694362Y-142101657D01*
X144694362Y-142101657D02*
X144732457Y-142177847D01*
X144732457Y-142177847D02*
X144732457Y-142254038D01*
X144732457Y-142254038D02*
X144351504Y-142330228D01*
D11*
%TO.C,U6*%
X143134000Y-134300000D02*
X143134000Y-134300000D01*
X143134000Y-134500000D02*
X143134000Y-134500000D01*
X143134000Y-134300000D02*
G75*
G02*
X143134000Y-134500000I0J-100000D01*
G01*
X143134000Y-134500000D02*
G75*
G02*
X143134000Y-134300000I0J100000D01*
G01*
D12*
%TO.C,C10*%
X147040000Y-134851665D02*
X147040000Y-135083335D01*
X147760000Y-134851665D02*
X147760000Y-135083335D01*
%TO.C,C1*%
X149890000Y-132653733D02*
X149890000Y-132946267D01*
X150910000Y-132653733D02*
X150910000Y-132946267D01*
%TO.C,C9*%
X143640000Y-132315835D02*
X143640000Y-132084165D01*
X144360000Y-132315835D02*
X144360000Y-132084165D01*
D13*
%TO.C,G\u002A\u002A\u002A*%
G36*
X150404146Y-126404084D02*
G01*
X150483327Y-126411578D01*
X150555866Y-126432618D01*
X150621200Y-126466876D01*
X150678765Y-126514020D01*
X150727996Y-126573724D01*
X150747142Y-126604355D01*
X150773562Y-126664002D01*
X150789378Y-126729902D01*
X150794382Y-126798240D01*
X150788364Y-126865199D01*
X150771114Y-126926963D01*
X150765568Y-126939961D01*
X150748925Y-126976254D01*
X150611024Y-126768098D01*
X150571459Y-126708647D01*
X150538967Y-126660536D01*
X150512473Y-126622326D01*
X150490902Y-126592580D01*
X150473178Y-126569859D01*
X150458227Y-126552726D01*
X150444972Y-126539742D01*
X150432951Y-126529925D01*
X150394950Y-126499219D01*
X150364726Y-126470103D01*
X150344017Y-126444472D01*
X150334563Y-126424219D01*
X150334285Y-126422411D01*
X150332159Y-126403550D01*
X150404146Y-126404084D01*
G37*
G36*
X147456353Y-126400439D02*
G01*
X147462725Y-126403320D01*
X147462467Y-126408026D01*
X147457736Y-126416671D01*
X147446105Y-126436593D01*
X147428555Y-126466174D01*
X147406066Y-126503796D01*
X147379618Y-126547841D01*
X147350191Y-126596690D01*
X147318765Y-126648727D01*
X147286322Y-126702333D01*
X147253840Y-126755890D01*
X147222301Y-126807781D01*
X147192684Y-126856386D01*
X147165970Y-126900089D01*
X147143138Y-126937272D01*
X147125170Y-126966316D01*
X147113046Y-126985603D01*
X147107746Y-126993515D01*
X147099986Y-126992765D01*
X147090232Y-126982149D01*
X147068536Y-126937260D01*
X147053588Y-126882842D01*
X147045776Y-126823121D01*
X147045487Y-126762323D01*
X147053107Y-126704673D01*
X147061908Y-126672553D01*
X147093877Y-126601330D01*
X147137250Y-126539532D01*
X147190941Y-126487996D01*
X147253867Y-126447559D01*
X147324943Y-126419058D01*
X147403086Y-126403330D01*
X147411734Y-126402447D01*
X147440233Y-126400244D01*
X147456353Y-126400439D01*
G37*
G36*
X147790127Y-126626666D02*
G01*
X147797956Y-126647722D01*
X147806356Y-126676061D01*
X147814285Y-126707862D01*
X147820702Y-126739307D01*
X147824469Y-126765550D01*
X147823944Y-126834599D01*
X147809706Y-126902631D01*
X147783162Y-126967604D01*
X147745719Y-127027474D01*
X147698785Y-127080199D01*
X147643766Y-127123735D01*
X147582070Y-127156039D01*
X147547404Y-127167835D01*
X147514905Y-127175968D01*
X147483998Y-127182083D01*
X147457976Y-127185718D01*
X147440129Y-127186409D01*
X147433740Y-127183831D01*
X147437558Y-127175575D01*
X147448357Y-127156285D01*
X147465157Y-127127550D01*
X147486979Y-127090957D01*
X147512842Y-127048094D01*
X147541766Y-127000547D01*
X147572771Y-126949905D01*
X147604876Y-126897754D01*
X147637102Y-126845682D01*
X147668469Y-126795277D01*
X147697996Y-126748125D01*
X147724703Y-126705814D01*
X147747611Y-126669932D01*
X147765738Y-126642066D01*
X147778105Y-126623803D01*
X147783732Y-126616731D01*
X147783909Y-126616711D01*
X147790127Y-126626666D01*
G37*
G36*
X150107014Y-126560606D02*
G01*
X150119265Y-126576211D01*
X150133147Y-126602376D01*
X150146921Y-126634884D01*
X150158842Y-126669521D01*
X150167169Y-126702071D01*
X150168474Y-126709318D01*
X150171336Y-126723492D01*
X150175884Y-126738495D01*
X150182971Y-126755930D01*
X150193448Y-126777402D01*
X150208169Y-126804517D01*
X150227985Y-126838878D01*
X150253749Y-126882092D01*
X150286311Y-126935763D01*
X150304640Y-126965764D01*
X150344536Y-127031514D01*
X150376228Y-127084952D01*
X150399890Y-127126394D01*
X150415698Y-127156157D01*
X150423827Y-127174557D01*
X150424456Y-127181908D01*
X150418207Y-127185093D01*
X150409954Y-127186417D01*
X150396156Y-127185799D01*
X150373271Y-127183158D01*
X150351103Y-127180217D01*
X150279083Y-127163080D01*
X150212095Y-127132583D01*
X150151857Y-127090152D01*
X150100087Y-127037217D01*
X150058504Y-126975204D01*
X150031969Y-126915035D01*
X150022934Y-126884357D01*
X150017670Y-126853262D01*
X150015410Y-126816053D01*
X150015173Y-126790005D01*
X150018575Y-126728586D01*
X150029354Y-126676013D01*
X150048925Y-126627200D01*
X150071326Y-126588277D01*
X150085439Y-126567600D01*
X150094971Y-126558111D01*
X150102627Y-126557714D01*
X150107014Y-126560606D01*
G37*
G36*
X147856487Y-125784847D02*
G01*
X147863148Y-125790057D01*
X147860327Y-125798874D01*
X147850800Y-125818273D01*
X147835811Y-125845933D01*
X147816607Y-125879534D01*
X147800949Y-125905968D01*
X147736043Y-126014010D01*
X147777966Y-126092167D01*
X147795348Y-126123735D01*
X147810985Y-126150612D01*
X147823076Y-126169799D01*
X147829514Y-126178075D01*
X147840466Y-126181265D01*
X147863290Y-126184295D01*
X147894702Y-126186832D01*
X147931421Y-126188545D01*
X147933320Y-126188602D01*
X148027501Y-126191378D01*
X148096066Y-126079609D01*
X148118703Y-126043158D01*
X148138777Y-126011684D01*
X148154911Y-125987279D01*
X148165726Y-125972035D01*
X148169664Y-125967840D01*
X148177310Y-125974832D01*
X148185467Y-125993603D01*
X148193237Y-126020841D01*
X148199722Y-126053233D01*
X148204022Y-126087470D01*
X148204721Y-126097076D01*
X148203083Y-126168231D01*
X148188691Y-126232158D01*
X148160818Y-126290851D01*
X148118738Y-126346302D01*
X148110680Y-126354961D01*
X148061907Y-126396323D01*
X148004530Y-126428822D01*
X147942617Y-126450685D01*
X147880240Y-126460135D01*
X147868983Y-126460381D01*
X147863990Y-126459935D01*
X147859893Y-126459155D01*
X147856128Y-126458884D01*
X147852133Y-126459962D01*
X147847347Y-126463231D01*
X147841205Y-126469530D01*
X147833147Y-126479702D01*
X147822610Y-126494588D01*
X147809031Y-126515027D01*
X147791848Y-126541862D01*
X147770499Y-126575933D01*
X147744421Y-126618082D01*
X147713051Y-126669148D01*
X147675828Y-126729974D01*
X147632189Y-126801401D01*
X147581572Y-126884269D01*
X147539615Y-126952923D01*
X147482566Y-127046257D01*
X147432887Y-127127531D01*
X147390012Y-127197599D01*
X147353378Y-127257313D01*
X147322421Y-127307529D01*
X147296578Y-127349099D01*
X147275285Y-127382877D01*
X147257978Y-127409716D01*
X147244094Y-127430471D01*
X147233068Y-127445994D01*
X147224337Y-127457139D01*
X147217337Y-127464760D01*
X147211505Y-127469710D01*
X147206277Y-127472843D01*
X147201088Y-127475012D01*
X147195376Y-127477071D01*
X147192781Y-127478071D01*
X147153563Y-127489492D01*
X147112538Y-127494379D01*
X147075799Y-127492221D01*
X147062797Y-127488986D01*
X147029152Y-127470880D01*
X147000076Y-127442446D01*
X146977576Y-127407307D01*
X146966497Y-127376881D01*
X147050542Y-127376881D01*
X147059201Y-127399919D01*
X147078339Y-127418140D01*
X147087508Y-127422659D01*
X147112804Y-127429202D01*
X147133865Y-127424360D01*
X147148560Y-127414605D01*
X147165212Y-127393502D01*
X147169847Y-127369011D01*
X147163872Y-127344773D01*
X147148695Y-127324431D01*
X147125724Y-127311626D01*
X147107758Y-127309069D01*
X147080969Y-127315120D01*
X147062072Y-127330856D01*
X147051714Y-127352651D01*
X147050542Y-127376881D01*
X146966497Y-127376881D01*
X146963659Y-127369087D01*
X146960332Y-127331410D01*
X146964154Y-127310883D01*
X146968395Y-127299168D01*
X146974854Y-127284389D01*
X146984018Y-127265710D01*
X146996374Y-127242289D01*
X147012410Y-127213291D01*
X147032613Y-127177876D01*
X147057470Y-127135205D01*
X147087468Y-127084441D01*
X147123096Y-127024744D01*
X147164839Y-126955277D01*
X147213186Y-126875202D01*
X147268623Y-126783679D01*
X147314700Y-126707757D01*
X147571726Y-126284518D01*
X147559674Y-126256892D01*
X147539295Y-126192332D01*
X147532496Y-126125755D01*
X147538605Y-126059437D01*
X147556953Y-125995656D01*
X147586869Y-125936691D01*
X147627682Y-125884818D01*
X147678723Y-125842317D01*
X147682399Y-125839920D01*
X147712326Y-125823192D01*
X147745836Y-125808395D01*
X147779969Y-125796345D01*
X147811763Y-125787859D01*
X147838256Y-125783754D01*
X147856487Y-125784847D01*
G37*
G36*
X149725416Y-125651261D02*
G01*
X149746855Y-125675856D01*
X149763737Y-125697321D01*
X149773767Y-125712626D01*
X149775541Y-125717482D01*
X149777322Y-125730226D01*
X149782517Y-125746160D01*
X149791896Y-125766642D01*
X149806231Y-125793027D01*
X149826293Y-125826673D01*
X149852850Y-125868936D01*
X149886675Y-125921173D01*
X149920066Y-125971935D01*
X149956193Y-126026748D01*
X149993674Y-126083886D01*
X150030530Y-126140316D01*
X150064787Y-126193006D01*
X150094467Y-126238922D01*
X150116198Y-126272837D01*
X150139609Y-126309124D01*
X150160454Y-126340493D01*
X150177313Y-126364879D01*
X150188764Y-126380219D01*
X150193175Y-126384606D01*
X150202331Y-126380838D01*
X150219770Y-126371126D01*
X150234891Y-126361861D01*
X150255265Y-126350395D01*
X150270447Y-126344524D01*
X150275893Y-126344811D01*
X150280585Y-126354395D01*
X150288171Y-126374351D01*
X150297097Y-126400565D01*
X150298061Y-126403550D01*
X150312625Y-126444691D01*
X150327777Y-126475391D01*
X150346796Y-126500119D01*
X150372963Y-126523349D01*
X150400754Y-126543516D01*
X150422410Y-126559010D01*
X150440322Y-126573624D01*
X150456666Y-126589850D01*
X150473618Y-126610184D01*
X150493351Y-126637120D01*
X150518042Y-126673151D01*
X150532073Y-126694079D01*
X150553892Y-126726947D01*
X150580980Y-126768083D01*
X150612115Y-126815598D01*
X150646072Y-126867607D01*
X150681629Y-126922222D01*
X150717560Y-126977555D01*
X150752643Y-127031721D01*
X150785653Y-127082831D01*
X150815368Y-127128998D01*
X150840563Y-127168336D01*
X150860014Y-127198958D01*
X150872499Y-127218975D01*
X150873294Y-127220283D01*
X150890656Y-127248950D01*
X150865256Y-127291233D01*
X150826616Y-127342419D01*
X150779916Y-127381606D01*
X150726459Y-127407916D01*
X150674865Y-127419719D01*
X150648661Y-127421593D01*
X150632362Y-127419041D01*
X150621634Y-127411811D01*
X150614764Y-127402535D01*
X150600847Y-127381747D01*
X150580767Y-127350853D01*
X150555405Y-127311256D01*
X150525646Y-127264360D01*
X150492372Y-127211570D01*
X150456466Y-127154290D01*
X150418810Y-127093923D01*
X150380288Y-127031874D01*
X150341782Y-126969547D01*
X150304176Y-126908346D01*
X150273543Y-126858204D01*
X150247996Y-126815580D01*
X150229370Y-126782471D01*
X150216218Y-126755756D01*
X150207090Y-126732315D01*
X150200539Y-126709030D01*
X150197252Y-126693883D01*
X150186620Y-126648493D01*
X150173984Y-126613849D01*
X150156818Y-126585552D01*
X150132593Y-126559203D01*
X150107237Y-126537227D01*
X150084162Y-126517916D01*
X150066403Y-126502179D01*
X150056646Y-126492435D01*
X150055578Y-126490686D01*
X150061173Y-126484252D01*
X150075751Y-126471800D01*
X150093600Y-126457963D01*
X150114365Y-126441578D01*
X150124537Y-126430363D01*
X150126251Y-126421265D01*
X150123746Y-126414860D01*
X150117531Y-126404506D01*
X150104152Y-126383073D01*
X150084669Y-126352213D01*
X150060140Y-126313577D01*
X150031621Y-126268818D01*
X150000172Y-126219589D01*
X149966849Y-126167541D01*
X149932712Y-126114326D01*
X149898817Y-126061598D01*
X149866224Y-126011007D01*
X149835989Y-125964207D01*
X149809171Y-125922849D01*
X149786828Y-125888586D01*
X149783751Y-125883891D01*
X149753209Y-125838982D01*
X149728771Y-125806645D01*
X149710720Y-125787230D01*
X149702246Y-125781594D01*
X149690811Y-125773980D01*
X149678806Y-125758164D01*
X149664706Y-125731821D01*
X149653206Y-125706853D01*
X149640690Y-125676915D01*
X149631525Y-125651626D01*
X149626905Y-125634482D01*
X149626803Y-125629580D01*
X149635615Y-125619755D01*
X149651985Y-125608939D01*
X149653039Y-125608385D01*
X149675624Y-125596706D01*
X149725416Y-125651261D01*
G37*
G36*
X148981726Y-126219191D02*
G01*
X149040942Y-126223107D01*
X149087611Y-126229118D01*
X149203665Y-126256887D01*
X149313678Y-126298043D01*
X149416748Y-126351718D01*
X149511972Y-126417043D01*
X149598451Y-126493148D01*
X149675280Y-126579164D01*
X149741560Y-126674223D01*
X149796388Y-126777455D01*
X149838862Y-126887991D01*
X149862175Y-126975656D01*
X149867456Y-127008600D01*
X149872209Y-127056130D01*
X149876391Y-127117682D01*
X149879958Y-127192696D01*
X149881182Y-127225715D01*
X149885027Y-127332649D01*
X149888872Y-127425909D01*
X149892997Y-127506974D01*
X149897684Y-127577324D01*
X149903216Y-127638437D01*
X149909872Y-127691792D01*
X149917935Y-127738869D01*
X149927686Y-127781145D01*
X149939407Y-127820101D01*
X149953378Y-127857215D01*
X149969882Y-127893965D01*
X149989199Y-127931832D01*
X150011611Y-127972293D01*
X150028980Y-128002416D01*
X150048186Y-128035512D01*
X150066858Y-128067889D01*
X150082188Y-128094672D01*
X150088046Y-128105015D01*
X150100765Y-128123933D01*
X150121257Y-128150288D01*
X150146732Y-128180646D01*
X150174405Y-128211572D01*
X150175476Y-128212728D01*
X150212665Y-128254686D01*
X150239141Y-128289660D01*
X150256105Y-128320029D01*
X150264757Y-128348177D01*
X150266300Y-128376483D01*
X150264960Y-128390153D01*
X150252504Y-128440193D01*
X150228584Y-128486935D01*
X150191773Y-128532876D01*
X150172378Y-128552293D01*
X150144327Y-128578945D01*
X150110272Y-128611315D01*
X150075189Y-128644675D01*
X150052816Y-128665956D01*
X150009292Y-128709546D01*
X149968210Y-128755636D01*
X149927083Y-128807293D01*
X149883422Y-128867581D01*
X149853259Y-128911724D01*
X149803525Y-128978235D01*
X149753186Y-129030110D01*
X149701515Y-129067871D01*
X149647787Y-129092035D01*
X149591277Y-129103124D01*
X149585500Y-129103530D01*
X149551263Y-129103737D01*
X149512345Y-129100238D01*
X149466886Y-129092665D01*
X149413025Y-129080646D01*
X149348900Y-129063813D01*
X149272652Y-129041793D01*
X149267865Y-129040363D01*
X149193268Y-129018500D01*
X149130609Y-129001301D01*
X149077553Y-128988333D01*
X149031765Y-128979165D01*
X148990911Y-128973364D01*
X148952655Y-128970497D01*
X148914663Y-128970134D01*
X148892422Y-128970872D01*
X148858563Y-128972820D01*
X148827456Y-128975703D01*
X148796618Y-128980051D01*
X148763563Y-128986393D01*
X148725808Y-128995259D01*
X148680868Y-129007178D01*
X148626259Y-129022678D01*
X148565283Y-129040576D01*
X148485221Y-129063577D01*
X148417566Y-129081293D01*
X148360609Y-129093958D01*
X148312643Y-129101802D01*
X148271958Y-129105058D01*
X148236847Y-129103957D01*
X148205600Y-129098731D01*
X148183919Y-129092330D01*
X148140402Y-129072275D01*
X148095842Y-129043573D01*
X148056788Y-129010695D01*
X148043133Y-128996173D01*
X148028134Y-128977310D01*
X148007588Y-128949612D01*
X147984275Y-128916907D01*
X147962449Y-128885202D01*
X147922117Y-128827055D01*
X147885236Y-128777863D01*
X147848516Y-128733851D01*
X147808667Y-128691247D01*
X147762400Y-128646276D01*
X147721115Y-128608372D01*
X147674320Y-128564949D01*
X147638330Y-128528365D01*
X147611731Y-128496497D01*
X147593106Y-128467223D01*
X147581038Y-128438421D01*
X147574112Y-128407969D01*
X147571544Y-128384254D01*
X147571337Y-128356555D01*
X147575863Y-128331047D01*
X147586414Y-128305288D01*
X147604286Y-128276834D01*
X147630771Y-128243241D01*
X147667163Y-128202066D01*
X147669157Y-128199883D01*
X147696866Y-128168335D01*
X147722409Y-128136994D01*
X147743070Y-128109338D01*
X147756133Y-128088846D01*
X147756740Y-128087677D01*
X147770681Y-128061624D01*
X147788639Y-128029992D01*
X147805152Y-128002235D01*
X147841018Y-127939936D01*
X147871290Y-127879894D01*
X147893920Y-127826229D01*
X147897289Y-127816800D01*
X147908358Y-127778267D01*
X147918109Y-127730322D01*
X147926619Y-127672118D01*
X147933970Y-127602810D01*
X147940239Y-127521551D01*
X147945508Y-127427494D01*
X147949854Y-127319794D01*
X147950018Y-127314300D01*
X148408364Y-127314300D01*
X148414504Y-127361161D01*
X148432577Y-127405145D01*
X148462566Y-127443215D01*
X148463037Y-127443660D01*
X148501547Y-127470251D01*
X148546920Y-127486164D01*
X148594889Y-127490672D01*
X148641190Y-127483048D01*
X148657517Y-127476793D01*
X148689022Y-127456678D01*
X148718853Y-127427785D01*
X148742292Y-127395253D01*
X148752157Y-127373719D01*
X148756806Y-127350115D01*
X148758565Y-127323688D01*
X149073438Y-127323688D01*
X149077989Y-127354189D01*
X149096788Y-127402639D01*
X149127528Y-127441838D01*
X149169796Y-127471261D01*
X149170203Y-127471468D01*
X149196069Y-127483123D01*
X149218760Y-127488796D01*
X149245642Y-127489925D01*
X149261501Y-127489312D01*
X149293386Y-127486323D01*
X149316804Y-127479973D01*
X149338383Y-127468242D01*
X149344643Y-127463968D01*
X149383756Y-127429979D01*
X149409278Y-127391603D01*
X149422645Y-127346421D01*
X149424668Y-127329177D01*
X149426075Y-127298997D01*
X149423551Y-127276298D01*
X149415741Y-127253624D01*
X149407885Y-127236790D01*
X149379298Y-127193763D01*
X149341365Y-127162656D01*
X149293827Y-127143260D01*
X149289899Y-127142280D01*
X149241081Y-127137622D01*
X149195147Y-127146235D01*
X149153946Y-127166272D01*
X149119327Y-127195884D01*
X149093137Y-127233223D01*
X149077225Y-127276440D01*
X149073438Y-127323688D01*
X148758565Y-127323688D01*
X148758863Y-127319212D01*
X148758406Y-127297109D01*
X148749068Y-127249056D01*
X148727174Y-127208536D01*
X148691921Y-127174266D01*
X148673708Y-127161903D01*
X148649877Y-127148855D01*
X148627864Y-127141976D01*
X148600631Y-127139428D01*
X148586801Y-127139211D01*
X148541168Y-127143017D01*
X148503487Y-127156183D01*
X148468448Y-127180728D01*
X148461701Y-127186798D01*
X148431947Y-127224084D01*
X148414173Y-127267596D01*
X148408364Y-127314300D01*
X147950018Y-127314300D01*
X147952597Y-127228030D01*
X147954438Y-127175300D01*
X147957089Y-127123212D01*
X147960309Y-127075298D01*
X147963859Y-127035092D01*
X147967497Y-127006124D01*
X147967886Y-127003808D01*
X147995190Y-126890210D01*
X148035989Y-126782071D01*
X148089298Y-126680373D01*
X148154132Y-126586100D01*
X148229506Y-126500236D01*
X148314437Y-126423763D01*
X148407938Y-126357664D01*
X148509027Y-126302923D01*
X148616717Y-126260523D01*
X148730025Y-126231447D01*
X148743975Y-126228896D01*
X148793527Y-126222658D01*
X148853009Y-126218963D01*
X148917411Y-126217809D01*
X148981726Y-126219191D01*
G37*
D12*
%TO.C,C8*%
X150290000Y-136646267D02*
X150290000Y-136353733D01*
X151310000Y-136646267D02*
X151310000Y-136353733D01*
%TO.C,C7*%
X145040000Y-132115835D02*
X145040000Y-131884165D01*
X145760000Y-132115835D02*
X145760000Y-131884165D01*
%TO.C,R19*%
X146419999Y-132365121D02*
X146419999Y-132029879D01*
X147180001Y-132365121D02*
X147180001Y-132029879D01*
%TO.C,C2*%
X148490000Y-136146267D02*
X148490000Y-135853733D01*
X149510000Y-136146267D02*
X149510000Y-135853733D01*
%TD*%
%LPC*%
D14*
%TO.C,U6*%
X143825000Y-134400000D03*
X143825000Y-134900000D03*
X143825000Y-135400000D03*
X143825000Y-135900000D03*
X143825000Y-136400000D03*
D15*
X144525000Y-136600000D03*
X145025000Y-136600000D03*
X145525000Y-136600000D03*
D14*
X146225000Y-136400000D03*
X146225000Y-135900000D03*
X146225000Y-135400000D03*
X146225000Y-134900000D03*
X146225000Y-134400000D03*
D15*
X145525000Y-134200000D03*
X145025000Y-134200000D03*
X144525000Y-134200000D03*
%TD*%
D16*
%TO.C,C10*%
X147400000Y-134400000D03*
X147400000Y-135535000D03*
%TD*%
D17*
%TO.C,C1*%
X150400000Y-131937499D03*
X150400000Y-133662501D03*
%TD*%
D18*
%TO.C,C9*%
X144000000Y-132767500D03*
X144000000Y-131632500D03*
%TD*%
D19*
%TO.C,C8*%
X150800000Y-137362501D03*
X150800000Y-135637499D03*
%TD*%
D18*
%TO.C,C7*%
X145400000Y-132567500D03*
X145400000Y-131432500D03*
%TD*%
D20*
%TO.C,R19*%
X146800000Y-132795000D03*
X146800000Y-131600000D03*
%TD*%
D19*
%TO.C,C2*%
X149000000Y-136862501D03*
X149000000Y-135137499D03*
%TD*%
D21*
%TO.C,*%
X142450000Y-128300000D03*
%TD*%
%TO.C,*%
X148800000Y-141000000D03*
%TD*%
D22*
%TO.C,J1*%
X150850000Y-129800000D03*
X146750000Y-129800000D03*
%TD*%
%TO.C,J2*%
X140400000Y-139500000D03*
X144500000Y-139500000D03*
%TD*%
%LPD*%
M02*
