%TF.GenerationSoftware,KiCad,Pcbnew,9.0.7*%
%TF.CreationDate,2026-03-31T13:05:45-05:00*%
%TF.ProjectId,imu,696d752e-6b69-4636-9164-5f7063625858,rev?*%
%TF.SameCoordinates,Original*%
%TF.FileFunction,Legend,Bot*%
%TF.FilePolarity,Positive*%
%FSLAX46Y46*%
G04 Gerber Fmt 4.6, Leading zero omitted, Abs format (unit mm)*
G04 Created by KiCad (PCBNEW 9.0.7) date 2026-03-31 13:05:45*
%MOMM*%
%LPD*%
G01*
G04 APERTURE LIST*
%ADD10C,0.100000*%
%ADD11C,0.200000*%
%ADD12C,4.000000*%
%ADD13C,0.600000*%
%ADD14R,0.300000X1.600000*%
G04 APERTURE END LIST*
D10*
X149133333Y-127757419D02*
X149133333Y-128471704D01*
X149133333Y-128471704D02*
X149180952Y-128614561D01*
X149180952Y-128614561D02*
X149276190Y-128709800D01*
X149276190Y-128709800D02*
X149419047Y-128757419D01*
X149419047Y-128757419D02*
X149514285Y-128757419D01*
X148133333Y-128757419D02*
X148704761Y-128757419D01*
X148419047Y-128757419D02*
X148419047Y-127757419D01*
X148419047Y-127757419D02*
X148514285Y-127900276D01*
X148514285Y-127900276D02*
X148609523Y-127995514D01*
X148609523Y-127995514D02*
X148704761Y-128043133D01*
X142116666Y-141542580D02*
X142116666Y-140828295D01*
X142116666Y-140828295D02*
X142069047Y-140685438D01*
X142069047Y-140685438D02*
X141973809Y-140590200D01*
X141973809Y-140590200D02*
X141830952Y-140542580D01*
X141830952Y-140542580D02*
X141735714Y-140542580D01*
X142545238Y-141447342D02*
X142592857Y-141494961D01*
X142592857Y-141494961D02*
X142688095Y-141542580D01*
X142688095Y-141542580D02*
X142926190Y-141542580D01*
X142926190Y-141542580D02*
X143021428Y-141494961D01*
X143021428Y-141494961D02*
X143069047Y-141447342D01*
X143069047Y-141447342D02*
X143116666Y-141352104D01*
X143116666Y-141352104D02*
X143116666Y-141256866D01*
X143116666Y-141256866D02*
X143069047Y-141114009D01*
X143069047Y-141114009D02*
X142497619Y-140542580D01*
X142497619Y-140542580D02*
X143116666Y-140542580D01*
D11*
%TO.C,J1*%
X146350000Y-126350000D02*
X147350000Y-126350000D01*
X146350000Y-126400000D02*
X146350000Y-127400000D01*
X146350000Y-130200000D02*
X146350000Y-129200000D01*
X146350000Y-130250000D02*
X147350000Y-130250000D01*
X150250000Y-126350000D02*
X151250000Y-126350000D01*
X151250000Y-126400000D02*
X151250000Y-127400000D01*
X151250000Y-130200000D02*
X151250000Y-129200000D01*
X151250000Y-130250000D02*
X150250000Y-130250000D01*
%TO.C,J2*%
X140000000Y-139050000D02*
X141000000Y-139050000D01*
X140000000Y-139100001D02*
X139999999Y-140100000D01*
X140000000Y-142899999D02*
X139999999Y-141900000D01*
X141000000Y-142950000D02*
X140000000Y-142950000D01*
X144900000Y-139050000D02*
X143900000Y-139050000D01*
X144900000Y-139100001D02*
X144900001Y-140100000D01*
X144900000Y-142899999D02*
X144900001Y-141900000D01*
X144900000Y-142950000D02*
X143900000Y-142950000D01*
%TD*%
%LPC*%
D12*
%TO.C,*%
X142450000Y-128300000D03*
%TD*%
%TO.C,*%
X148800000Y-141000000D03*
%TD*%
D13*
%TO.C,J1*%
X150850000Y-129800000D03*
X146750000Y-129800000D03*
D14*
X149800000Y-126500000D03*
X149300000Y-126500000D03*
X148800000Y-126500000D03*
X148300000Y-126500000D03*
X147800000Y-126500000D03*
X149800000Y-130100000D03*
X149300000Y-130100000D03*
X148800000Y-130100000D03*
X148300000Y-130100000D03*
X147800000Y-130100000D03*
%TD*%
D13*
%TO.C,J2*%
X140400000Y-139500000D03*
X144500000Y-139500000D03*
D14*
X141450000Y-142800000D03*
X141950000Y-142800000D03*
X142450000Y-142800000D03*
X142950000Y-142800000D03*
X143450000Y-142800000D03*
X141450000Y-139200000D03*
X141950000Y-139200000D03*
X142450000Y-139200000D03*
X142950000Y-139200000D03*
X143450000Y-139200000D03*
%TD*%
%LPD*%
M02*
