%TF.GenerationSoftware,KiCad,Pcbnew,9.0.7*%
%TF.CreationDate,2026-03-31T13:05:45-05:00*%
%TF.ProjectId,imu,696d752e-6b69-4636-9164-5f7063625858,rev?*%
%TF.SameCoordinates,Original*%
%TF.FileFunction,Copper,L2,Bot*%
%TF.FilePolarity,Positive*%
%FSLAX46Y46*%
G04 Gerber Fmt 4.6, Leading zero omitted, Abs format (unit mm)*
G04 Created by KiCad (PCBNEW 9.0.7) date 2026-03-31 13:05:45*
%MOMM*%
%LPD*%
G01*
G04 APERTURE LIST*
%TA.AperFunction,ComponentPad*%
%ADD10C,4.000000*%
%TD*%
%TA.AperFunction,SMDPad,CuDef*%
%ADD11R,0.300000X1.600000*%
%TD*%
%TA.AperFunction,ViaPad*%
%ADD12C,0.600000*%
%TD*%
%TA.AperFunction,Conductor*%
%ADD13C,0.200000*%
%TD*%
%TA.AperFunction,Conductor*%
%ADD14C,0.150000*%
%TD*%
G04 APERTURE END LIST*
D10*
%TO.P,,*%
%TO.N,*%
X142450000Y-128300000D03*
%TD*%
%TO.P,,*%
%TO.N,*%
X148800000Y-141000000D03*
%TD*%
D11*
%TO.P,J1,1,Pin_1*%
%TO.N,unconnected-(J1-Pin_1-Pad1)*%
X149800000Y-126500000D03*
%TO.P,J1,2,Pin_2*%
%TO.N,unconnected-(J1-Pin_2-Pad2)*%
X149300000Y-126500000D03*
%TO.P,J1,3,Pin_3*%
%TO.N,unconnected-(J1-Pin_3-Pad3)*%
X148800000Y-126500000D03*
%TO.P,J1,4,Pin_4*%
%TO.N,unconnected-(J1-Pin_4-Pad4)*%
X148300000Y-126500000D03*
%TO.P,J1,5,Pin_5*%
%TO.N,unconnected-(J1-Pin_5-Pad5)*%
X147800000Y-126500000D03*
%TO.P,J1,6,Pin_6*%
%TO.N,unconnected-(J1-Pin_6-Pad6)*%
X149800000Y-130100000D03*
%TO.P,J1,7,Pin_7*%
%TO.N,+3.3V*%
X149300000Y-130100000D03*
%TO.P,J1,8,Pin_8*%
%TO.N,/sda*%
X148800000Y-130100000D03*
%TO.P,J1,9,Pin_9*%
%TO.N,/scl*%
X148300000Y-130100000D03*
%TO.P,J1,10,Pin_10*%
%TO.N,GND*%
X147800000Y-130100000D03*
%TD*%
%TO.P,J2,1,Pin_1*%
%TO.N,unconnected-(J2-Pin_1-Pad1)*%
X141450000Y-142800000D03*
%TO.P,J2,2,Pin_2*%
%TO.N,unconnected-(J2-Pin_2-Pad2)*%
X141950000Y-142800000D03*
%TO.P,J2,3,Pin_3*%
%TO.N,unconnected-(J2-Pin_3-Pad3)*%
X142450000Y-142800000D03*
%TO.P,J2,4,Pin_4*%
%TO.N,unconnected-(J2-Pin_4-Pad4)*%
X142950000Y-142800000D03*
%TO.P,J2,5,Pin_5*%
%TO.N,unconnected-(J2-Pin_5-Pad5)*%
X143450000Y-142800000D03*
%TO.P,J2,6,Pin_6*%
%TO.N,unconnected-(J2-Pin_6-Pad6)*%
X141450000Y-139200000D03*
%TO.P,J2,7,Pin_7*%
%TO.N,+3.3V*%
X141950000Y-139200000D03*
%TO.P,J2,8,Pin_8*%
%TO.N,/sda*%
X142450000Y-139200000D03*
%TO.P,J2,9,Pin_9*%
%TO.N,/scl*%
X142950000Y-139200000D03*
%TO.P,J2,10,Pin_10*%
%TO.N,GND*%
X143450000Y-139200000D03*
%TD*%
D12*
%TO.N,+3.3V*%
X141950000Y-135923152D03*
X149400000Y-131700000D03*
%TO.N,/scl*%
X145450000Y-135200000D03*
%TO.N,GND*%
X144600000Y-135400000D03*
X147400000Y-136600000D03*
X143300000Y-140900000D03*
X145030429Y-133401671D03*
X146602751Y-130742962D03*
X149006587Y-134006587D03*
%TO.N,/sda*%
X143010841Y-136210841D03*
%TO.N,Net-(U6-~{CS})*%
X148725735Y-132325735D03*
X144800000Y-137400000D03*
%TD*%
D13*
%TO.N,+3.3V*%
X141950000Y-139200000D02*
X141950000Y-135923152D01*
X149300000Y-131600000D02*
X149300000Y-130100000D01*
X149400000Y-131700000D02*
X149300000Y-131600000D01*
D14*
%TO.N,/scl*%
X147900000Y-131974382D02*
X148300000Y-131574382D01*
X148300000Y-131574382D02*
X148300000Y-130100000D01*
X145450000Y-135200000D02*
X145450000Y-135650000D01*
X147900000Y-132750000D02*
X147900000Y-131974382D01*
X142950000Y-138150000D02*
X142950000Y-139200000D01*
X145450000Y-135200000D02*
X147900000Y-132750000D01*
X145450000Y-135650000D02*
X142950000Y-138150000D01*
D13*
%TO.N,GND*%
X147157038Y-130742962D02*
X146602751Y-130742962D01*
X147800000Y-130100000D02*
X147157038Y-130742962D01*
D14*
%TO.N,/sda*%
X143010841Y-136210841D02*
X143010841Y-133289159D01*
X145624000Y-130676000D02*
X145624000Y-129676000D01*
X148302000Y-128600000D02*
X148800000Y-129098000D01*
X143010841Y-133289159D02*
X145624000Y-130676000D01*
X142450000Y-136771682D02*
X142450000Y-139200000D01*
X146700000Y-128600000D02*
X148302000Y-128600000D01*
X145624000Y-129676000D02*
X146700000Y-128600000D01*
X143010841Y-136210841D02*
X142450000Y-136771682D01*
X148800000Y-129098000D02*
X148800000Y-130100000D01*
%TO.N,Net-(U6-~{CS})*%
X148725735Y-132325735D02*
X148725735Y-133474265D01*
X148725735Y-133474265D02*
X144800000Y-137400000D01*
%TD*%
%TA.AperFunction,Conductor*%
%TO.N,GND*%
G36*
X146154703Y-129979820D02*
G01*
X146188063Y-130026085D01*
X146190425Y-130031790D01*
X146269475Y-130168709D01*
X146269479Y-130168714D01*
X146269480Y-130168716D01*
X146381284Y-130280520D01*
X146381286Y-130280521D01*
X146381290Y-130280524D01*
X146507597Y-130353446D01*
X146518216Y-130359577D01*
X146670943Y-130400500D01*
X146670945Y-130400500D01*
X146829055Y-130400500D01*
X146829057Y-130400500D01*
X146981784Y-130359577D01*
X146981785Y-130359576D01*
X146989635Y-130357473D01*
X146990221Y-130359663D01*
X147048005Y-130353446D01*
X147110487Y-130384715D01*
X147146145Y-130444800D01*
X147150000Y-130475478D01*
X147150000Y-130947844D01*
X147156401Y-131007372D01*
X147156403Y-131007379D01*
X147206645Y-131142086D01*
X147206649Y-131142093D01*
X147292809Y-131257187D01*
X147292812Y-131257190D01*
X147407906Y-131343350D01*
X147407913Y-131343354D01*
X147542620Y-131393596D01*
X147542627Y-131393598D01*
X147602155Y-131399999D01*
X147602172Y-131400000D01*
X147650000Y-131400000D01*
X147650000Y-130224000D01*
X147652550Y-130215314D01*
X147651262Y-130206353D01*
X147662240Y-130182312D01*
X147669685Y-130156961D01*
X147676525Y-130151033D01*
X147680287Y-130142797D01*
X147702521Y-130128507D01*
X147722489Y-130111206D01*
X147733003Y-130108918D01*
X147739065Y-130105023D01*
X147774000Y-130100000D01*
X147775500Y-130100000D01*
X147842539Y-130119685D01*
X147888294Y-130172489D01*
X147899500Y-130224000D01*
X147899500Y-130924678D01*
X147914032Y-130997735D01*
X147914033Y-130997739D01*
X147914034Y-130997740D01*
X147929102Y-131020292D01*
X147949980Y-131086967D01*
X147950000Y-131089181D01*
X147950000Y-131412693D01*
X147930315Y-131479732D01*
X147913681Y-131500374D01*
X147639537Y-131774517D01*
X147639535Y-131774520D01*
X147596681Y-131848744D01*
X147579603Y-131912483D01*
X147574500Y-131931525D01*
X147574500Y-132563810D01*
X147554815Y-132630849D01*
X147538181Y-132651491D01*
X145576491Y-134613181D01*
X145515168Y-134646666D01*
X145488810Y-134649500D01*
X145377525Y-134649500D01*
X145248993Y-134683940D01*
X145237511Y-134687017D01*
X145111988Y-134759488D01*
X145111982Y-134759493D01*
X145009493Y-134861982D01*
X145009488Y-134861988D01*
X144937017Y-134987511D01*
X144937016Y-134987515D01*
X144899500Y-135127525D01*
X144899500Y-135272475D01*
X144937016Y-135412485D01*
X144937017Y-135412488D01*
X144995651Y-135514045D01*
X145012124Y-135581945D01*
X144989271Y-135647972D01*
X144975945Y-135663726D01*
X142987181Y-137652491D01*
X142925858Y-137685976D01*
X142856166Y-137680992D01*
X142800233Y-137639120D01*
X142775816Y-137573656D01*
X142775500Y-137564810D01*
X142775500Y-136957871D01*
X142784144Y-136928430D01*
X142790668Y-136898444D01*
X142794422Y-136893428D01*
X142795185Y-136890832D01*
X142811819Y-136870190D01*
X142884349Y-136797660D01*
X142945672Y-136764175D01*
X142972030Y-136761341D01*
X143083313Y-136761341D01*
X143083316Y-136761341D01*
X143223326Y-136723825D01*
X143348856Y-136651350D01*
X143451350Y-136548856D01*
X143523825Y-136423326D01*
X143561341Y-136283316D01*
X143561341Y-136138366D01*
X143523825Y-135998356D01*
X143522249Y-135995627D01*
X143451352Y-135872829D01*
X143451351Y-135872828D01*
X143451350Y-135872826D01*
X143372659Y-135794135D01*
X143339175Y-135732811D01*
X143336341Y-135706454D01*
X143336341Y-133475348D01*
X143356026Y-133408309D01*
X143372660Y-133387667D01*
X144619821Y-132140506D01*
X145884465Y-130875862D01*
X145927318Y-130801639D01*
X145949500Y-130718853D01*
X145949500Y-130633147D01*
X145949500Y-130073533D01*
X145969185Y-130006494D01*
X146021989Y-129960739D01*
X146091147Y-129950795D01*
X146154703Y-129979820D01*
G37*
%TD.AperFunction*%
%TA.AperFunction,Conductor*%
G36*
X151131922Y-125051279D02*
G01*
X151244518Y-125063966D01*
X151271583Y-125070143D01*
X151371927Y-125105255D01*
X151396941Y-125117301D01*
X151486955Y-125173860D01*
X151508662Y-125191172D01*
X151583827Y-125266337D01*
X151601140Y-125288046D01*
X151657697Y-125378056D01*
X151669745Y-125403074D01*
X151704855Y-125503414D01*
X151711033Y-125530484D01*
X151723720Y-125643077D01*
X151724500Y-125656961D01*
X151724500Y-143643038D01*
X151723720Y-143656921D01*
X151723720Y-143656922D01*
X151711033Y-143769515D01*
X151704855Y-143796585D01*
X151669745Y-143896925D01*
X151657697Y-143921943D01*
X151601140Y-144011953D01*
X151583827Y-144033662D01*
X151508662Y-144108827D01*
X151486953Y-144126140D01*
X151396943Y-144182697D01*
X151371925Y-144194745D01*
X151271585Y-144229855D01*
X151244516Y-144236033D01*
X151159855Y-144245572D01*
X151131921Y-144248720D01*
X151118039Y-144249500D01*
X140131961Y-144249500D01*
X140118077Y-144248720D01*
X140005484Y-144236033D01*
X139978414Y-144229855D01*
X139878074Y-144194745D01*
X139853056Y-144182697D01*
X139763046Y-144126140D01*
X139741337Y-144108827D01*
X139666172Y-144033662D01*
X139648859Y-144011953D01*
X139592302Y-143921943D01*
X139580254Y-143896925D01*
X139564009Y-143850500D01*
X139545143Y-143796583D01*
X139538966Y-143769514D01*
X139526280Y-143656921D01*
X139525500Y-143643038D01*
X139525500Y-141975321D01*
X141049500Y-141975321D01*
X141049500Y-143624678D01*
X141064032Y-143697735D01*
X141064033Y-143697739D01*
X141064034Y-143697740D01*
X141119399Y-143780601D01*
X141199999Y-143834455D01*
X141202260Y-143835966D01*
X141202264Y-143835967D01*
X141275321Y-143850499D01*
X141275324Y-143850500D01*
X141275326Y-143850500D01*
X141624674Y-143850500D01*
X141675811Y-143840328D01*
X141724189Y-143840328D01*
X141775326Y-143850500D01*
X142124674Y-143850500D01*
X142175811Y-143840328D01*
X142224189Y-143840328D01*
X142275326Y-143850500D01*
X142624674Y-143850500D01*
X142675811Y-143840328D01*
X142724189Y-143840328D01*
X142775326Y-143850500D01*
X143124674Y-143850500D01*
X143175811Y-143840328D01*
X143224189Y-143840328D01*
X143275326Y-143850500D01*
X143624676Y-143850500D01*
X143624677Y-143850499D01*
X143697740Y-143835966D01*
X143780601Y-143780601D01*
X143835966Y-143697740D01*
X143850500Y-143624674D01*
X143850500Y-141975326D01*
X143850500Y-141975323D01*
X143850499Y-141975321D01*
X143835967Y-141902264D01*
X143835966Y-141902260D01*
X143780601Y-141819399D01*
X143697740Y-141764034D01*
X143697739Y-141764033D01*
X143697735Y-141764032D01*
X143624677Y-141749500D01*
X143624674Y-141749500D01*
X143275326Y-141749500D01*
X143224190Y-141759671D01*
X143175810Y-141759671D01*
X143124674Y-141749500D01*
X142775326Y-141749500D01*
X142724190Y-141759671D01*
X142675810Y-141759671D01*
X142624674Y-141749500D01*
X142275326Y-141749500D01*
X142224190Y-141759671D01*
X142175810Y-141759671D01*
X142124674Y-141749500D01*
X141775326Y-141749500D01*
X141724190Y-141759671D01*
X141675810Y-141759671D01*
X141624674Y-141749500D01*
X141275326Y-141749500D01*
X141275323Y-141749500D01*
X141202264Y-141764032D01*
X141202260Y-141764033D01*
X141119399Y-141819399D01*
X141064033Y-141902260D01*
X141064032Y-141902264D01*
X141049500Y-141975321D01*
X139525500Y-141975321D01*
X139525500Y-140852486D01*
X146549500Y-140852486D01*
X146549500Y-141147513D01*
X146581571Y-141391113D01*
X146588007Y-141439993D01*
X146588008Y-141439995D01*
X146664361Y-141724951D01*
X146664364Y-141724961D01*
X146777254Y-141997500D01*
X146777258Y-141997510D01*
X146924761Y-142252993D01*
X147104352Y-142487040D01*
X147104358Y-142487047D01*
X147312952Y-142695641D01*
X147312959Y-142695647D01*
X147547006Y-142875238D01*
X147802489Y-143022741D01*
X147802490Y-143022741D01*
X147802493Y-143022743D01*
X148075048Y-143135639D01*
X148360007Y-143211993D01*
X148652494Y-143250500D01*
X148652501Y-143250500D01*
X148947499Y-143250500D01*
X148947506Y-143250500D01*
X149239993Y-143211993D01*
X149524952Y-143135639D01*
X149797507Y-143022743D01*
X150052994Y-142875238D01*
X150287042Y-142695646D01*
X150495646Y-142487042D01*
X150675238Y-142252994D01*
X150822743Y-141997507D01*
X150935639Y-141724952D01*
X151011993Y-141439993D01*
X151050500Y-141147506D01*
X151050500Y-140852494D01*
X151011993Y-140560007D01*
X150935639Y-140275048D01*
X150925470Y-140250499D01*
X150863338Y-140100499D01*
X150822743Y-140002493D01*
X150810059Y-139980524D01*
X150675238Y-139747006D01*
X150495647Y-139512959D01*
X150495641Y-139512952D01*
X150287047Y-139304358D01*
X150287040Y-139304352D01*
X150052993Y-139124761D01*
X149797510Y-138977258D01*
X149797500Y-138977254D01*
X149524961Y-138864364D01*
X149524954Y-138864362D01*
X149524952Y-138864361D01*
X149239993Y-138788007D01*
X149191113Y-138781571D01*
X148947513Y-138749500D01*
X148947506Y-138749500D01*
X148652494Y-138749500D01*
X148652486Y-138749500D01*
X148374085Y-138786153D01*
X148360007Y-138788007D01*
X148223734Y-138824521D01*
X148075048Y-138864361D01*
X148075038Y-138864364D01*
X147802499Y-138977254D01*
X147802489Y-138977258D01*
X147547006Y-139124761D01*
X147312959Y-139304352D01*
X147312952Y-139304358D01*
X147104358Y-139512952D01*
X147104352Y-139512959D01*
X146924761Y-139747006D01*
X146777258Y-140002489D01*
X146777254Y-140002499D01*
X146664364Y-140275038D01*
X146664361Y-140275048D01*
X146588008Y-140560004D01*
X146588006Y-140560015D01*
X146549500Y-140852486D01*
X139525500Y-140852486D01*
X139525500Y-139420943D01*
X139799500Y-139420943D01*
X139799500Y-139579056D01*
X139840423Y-139731783D01*
X139840426Y-139731790D01*
X139919475Y-139868709D01*
X139919479Y-139868714D01*
X139919480Y-139868716D01*
X140031284Y-139980520D01*
X140031286Y-139980521D01*
X140031290Y-139980524D01*
X140163657Y-140056945D01*
X140168216Y-140059577D01*
X140320943Y-140100500D01*
X140320945Y-140100500D01*
X140479055Y-140100500D01*
X140479057Y-140100500D01*
X140631784Y-140059577D01*
X140768716Y-139980520D01*
X140837819Y-139911417D01*
X140899142Y-139877932D01*
X140968834Y-139882916D01*
X141024767Y-139924788D01*
X141049184Y-139990252D01*
X141049500Y-139999098D01*
X141049500Y-140024678D01*
X141064032Y-140097735D01*
X141064033Y-140097739D01*
X141064034Y-140097740D01*
X141119399Y-140180601D01*
X141199999Y-140234455D01*
X141202260Y-140235966D01*
X141202264Y-140235967D01*
X141275321Y-140250499D01*
X141275324Y-140250500D01*
X141275326Y-140250500D01*
X141624674Y-140250500D01*
X141675811Y-140240328D01*
X141724189Y-140240328D01*
X141775326Y-140250500D01*
X142124674Y-140250500D01*
X142175811Y-140240328D01*
X142224189Y-140240328D01*
X142275326Y-140250500D01*
X142624674Y-140250500D01*
X142675812Y-140240327D01*
X142678649Y-140240224D01*
X142680027Y-140239564D01*
X142691423Y-140239761D01*
X142715315Y-140238894D01*
X142719762Y-140239447D01*
X142775326Y-140250500D01*
X142808564Y-140250500D01*
X142816189Y-140251449D01*
X142841475Y-140262421D01*
X142867913Y-140270185D01*
X142875376Y-140277133D01*
X142880284Y-140279263D01*
X142884624Y-140285743D01*
X142900141Y-140300189D01*
X142942809Y-140357186D01*
X142942814Y-140357191D01*
X143057906Y-140443350D01*
X143057913Y-140443354D01*
X143192620Y-140493596D01*
X143192627Y-140493598D01*
X143252155Y-140499999D01*
X143252172Y-140500000D01*
X143300000Y-140500000D01*
X143300000Y-140189181D01*
X143319685Y-140122142D01*
X143320856Y-140120352D01*
X143335966Y-140097740D01*
X143350500Y-140024674D01*
X143350500Y-139324000D01*
X143353050Y-139315314D01*
X143351762Y-139306353D01*
X143362740Y-139282312D01*
X143370185Y-139256961D01*
X143377025Y-139251033D01*
X143380787Y-139242797D01*
X143403021Y-139228507D01*
X143422989Y-139211206D01*
X143433503Y-139208918D01*
X143439565Y-139205023D01*
X143474500Y-139200000D01*
X143476000Y-139200000D01*
X143543039Y-139219685D01*
X143588794Y-139272489D01*
X143600000Y-139324000D01*
X143600000Y-140500000D01*
X143647828Y-140500000D01*
X143647844Y-140499999D01*
X143707372Y-140493598D01*
X143707379Y-140493596D01*
X143842086Y-140443354D01*
X143842093Y-140443350D01*
X143957187Y-140357190D01*
X143957190Y-140357187D01*
X144043350Y-140242093D01*
X144043354Y-140242086D01*
X144087978Y-140122444D01*
X144129849Y-140066510D01*
X144195313Y-140042093D01*
X144263586Y-140056945D01*
X144266161Y-140058390D01*
X144268216Y-140059577D01*
X144420943Y-140100500D01*
X144420945Y-140100500D01*
X144579055Y-140100500D01*
X144579057Y-140100500D01*
X144731784Y-140059577D01*
X144868716Y-139980520D01*
X144980520Y-139868716D01*
X145059577Y-139731784D01*
X145100500Y-139579057D01*
X145100500Y-139420943D01*
X145059577Y-139268216D01*
X145053079Y-139256961D01*
X144980524Y-139131290D01*
X144980518Y-139131282D01*
X144868717Y-139019481D01*
X144868709Y-139019475D01*
X144731790Y-138940426D01*
X144731786Y-138940424D01*
X144731784Y-138940423D01*
X144579057Y-138899500D01*
X144420943Y-138899500D01*
X144268216Y-138940423D01*
X144268214Y-138940423D01*
X144260365Y-138942527D01*
X144259778Y-138940339D01*
X144201971Y-138946548D01*
X144139495Y-138915267D01*
X144103849Y-138855175D01*
X144100000Y-138824521D01*
X144100000Y-138352172D01*
X144099999Y-138352155D01*
X144093598Y-138292627D01*
X144093596Y-138292620D01*
X144043354Y-138157913D01*
X144043350Y-138157906D01*
X143957190Y-138042812D01*
X143957187Y-138042809D01*
X143842093Y-137956649D01*
X143834304Y-137952396D01*
X143835948Y-137949383D01*
X143793245Y-137917372D01*
X143768870Y-137851892D01*
X143783766Y-137783629D01*
X143804873Y-137755452D01*
X144063475Y-137496850D01*
X144124794Y-137463368D01*
X144194486Y-137468352D01*
X144250419Y-137510224D01*
X144270925Y-137552436D01*
X144276612Y-137573656D01*
X144287017Y-137612489D01*
X144359488Y-137738011D01*
X144359490Y-137738013D01*
X144359491Y-137738015D01*
X144461985Y-137840509D01*
X144461986Y-137840510D01*
X144461988Y-137840511D01*
X144587511Y-137912982D01*
X144587512Y-137912982D01*
X144587515Y-137912984D01*
X144727525Y-137950500D01*
X144727528Y-137950500D01*
X144872472Y-137950500D01*
X144872475Y-137950500D01*
X145012485Y-137912984D01*
X145138015Y-137840509D01*
X145240509Y-137738015D01*
X145312984Y-137612485D01*
X145350500Y-137472475D01*
X145350500Y-137361187D01*
X145370185Y-137294148D01*
X145386819Y-137273506D01*
X146257787Y-136402538D01*
X148925594Y-133734731D01*
X148925597Y-133734730D01*
X148986200Y-133674127D01*
X149020534Y-133614659D01*
X149029053Y-133599904D01*
X149051236Y-133517118D01*
X149051236Y-133431412D01*
X149051236Y-133423817D01*
X149051235Y-133423799D01*
X149051235Y-132830121D01*
X149070920Y-132763082D01*
X149087554Y-132742440D01*
X149122847Y-132707147D01*
X149166244Y-132663750D01*
X149238719Y-132538220D01*
X149276235Y-132398210D01*
X149276235Y-132374500D01*
X149295920Y-132307461D01*
X149348724Y-132261706D01*
X149400235Y-132250500D01*
X149472472Y-132250500D01*
X149472475Y-132250500D01*
X149612485Y-132212984D01*
X149738015Y-132140509D01*
X149840509Y-132038015D01*
X149912984Y-131912485D01*
X149950500Y-131772475D01*
X149950500Y-131627525D01*
X149912984Y-131487515D01*
X149908490Y-131479732D01*
X149840511Y-131361988D01*
X149835562Y-131355539D01*
X149836630Y-131354719D01*
X149807220Y-131300858D01*
X149812204Y-131231166D01*
X149854076Y-131175233D01*
X149919540Y-131150816D01*
X149928386Y-131150500D01*
X149974676Y-131150500D01*
X149974677Y-131150499D01*
X150047740Y-131135966D01*
X150130601Y-131080601D01*
X150185966Y-130997740D01*
X150200500Y-130924674D01*
X150200500Y-130299098D01*
X150220185Y-130232059D01*
X150272989Y-130186304D01*
X150342147Y-130176360D01*
X150405703Y-130205385D01*
X150412181Y-130211417D01*
X150481284Y-130280520D01*
X150481286Y-130280521D01*
X150481290Y-130280524D01*
X150607597Y-130353446D01*
X150618216Y-130359577D01*
X150770943Y-130400500D01*
X150770945Y-130400500D01*
X150929055Y-130400500D01*
X150929057Y-130400500D01*
X151081784Y-130359577D01*
X151218716Y-130280520D01*
X151330520Y-130168716D01*
X151409577Y-130031784D01*
X151450500Y-129879057D01*
X151450500Y-129720943D01*
X151409577Y-129568216D01*
X151356418Y-129476141D01*
X151330524Y-129431290D01*
X151330518Y-129431282D01*
X151218717Y-129319481D01*
X151218709Y-129319475D01*
X151081790Y-129240426D01*
X151081786Y-129240424D01*
X151081784Y-129240423D01*
X150929057Y-129199500D01*
X150770943Y-129199500D01*
X150618216Y-129240423D01*
X150618209Y-129240426D01*
X150481290Y-129319475D01*
X150481282Y-129319481D01*
X150412181Y-129388583D01*
X150350858Y-129422068D01*
X150281166Y-129417084D01*
X150225233Y-129375212D01*
X150200816Y-129309748D01*
X150200500Y-129300902D01*
X150200500Y-129275323D01*
X150200499Y-129275321D01*
X150185967Y-129202264D01*
X150185966Y-129202260D01*
X150184122Y-129199500D01*
X150130601Y-129119399D01*
X150047740Y-129064034D01*
X150047739Y-129064033D01*
X150047735Y-129064032D01*
X149974677Y-129049500D01*
X149974674Y-129049500D01*
X149625326Y-129049500D01*
X149574190Y-129059671D01*
X149525810Y-129059671D01*
X149474674Y-129049500D01*
X149218124Y-129049500D01*
X149151085Y-129029815D01*
X149107394Y-128979393D01*
X149107382Y-128979400D01*
X149107345Y-128979337D01*
X149105330Y-128977011D01*
X149103564Y-128972956D01*
X149103316Y-128972357D01*
X149060469Y-128898144D01*
X149060463Y-128898136D01*
X148501864Y-128339537D01*
X148501862Y-128339535D01*
X148464748Y-128318107D01*
X148427640Y-128296682D01*
X148386246Y-128285591D01*
X148344853Y-128274500D01*
X146742853Y-128274500D01*
X146657147Y-128274500D01*
X146574361Y-128296682D01*
X146574358Y-128296683D01*
X146537250Y-128318107D01*
X146537250Y-128318108D01*
X146500138Y-128339535D01*
X146500135Y-128339537D01*
X145363537Y-129476135D01*
X145363533Y-129476141D01*
X145320681Y-129550361D01*
X145320682Y-129550362D01*
X145298500Y-129633147D01*
X145298500Y-130489811D01*
X145278815Y-130556850D01*
X145262181Y-130577492D01*
X142750378Y-133089294D01*
X142750374Y-133089300D01*
X142707522Y-133163520D01*
X142707523Y-133163521D01*
X142685341Y-133246306D01*
X142685341Y-135633025D01*
X142665656Y-135700064D01*
X142612852Y-135745819D01*
X142543694Y-135755763D01*
X142480138Y-135726738D01*
X142453954Y-135695026D01*
X142437054Y-135665756D01*
X142390509Y-135585137D01*
X142288015Y-135482643D01*
X142288013Y-135482642D01*
X142288011Y-135482640D01*
X142162488Y-135410169D01*
X142162489Y-135410169D01*
X142151006Y-135407092D01*
X142022475Y-135372652D01*
X141877525Y-135372652D01*
X141748993Y-135407092D01*
X141737511Y-135410169D01*
X141611988Y-135482640D01*
X141611982Y-135482645D01*
X141509493Y-135585134D01*
X141509488Y-135585140D01*
X141437017Y-135710663D01*
X141437016Y-135710667D01*
X141399500Y-135850677D01*
X141399500Y-135995627D01*
X141437016Y-136135637D01*
X141437017Y-136135640D01*
X141509488Y-136261163D01*
X141509493Y-136261169D01*
X141563181Y-136314857D01*
X141596666Y-136376180D01*
X141599500Y-136402538D01*
X141599500Y-138025500D01*
X141579815Y-138092539D01*
X141527011Y-138138294D01*
X141475500Y-138149500D01*
X141275323Y-138149500D01*
X141202264Y-138164032D01*
X141202260Y-138164033D01*
X141119399Y-138219399D01*
X141064033Y-138302260D01*
X141064032Y-138302264D01*
X141049500Y-138375321D01*
X141049500Y-139000902D01*
X141029815Y-139067941D01*
X140977011Y-139113696D01*
X140907853Y-139123640D01*
X140844297Y-139094615D01*
X140837819Y-139088583D01*
X140768717Y-139019481D01*
X140768709Y-139019475D01*
X140631790Y-138940426D01*
X140631786Y-138940424D01*
X140631784Y-138940423D01*
X140479057Y-138899500D01*
X140320943Y-138899500D01*
X140168216Y-138940423D01*
X140168209Y-138940426D01*
X140031290Y-139019475D01*
X140031282Y-139019481D01*
X139919481Y-139131282D01*
X139919475Y-139131290D01*
X139840426Y-139268209D01*
X139840423Y-139268216D01*
X139799500Y-139420943D01*
X139525500Y-139420943D01*
X139525500Y-128152486D01*
X140199500Y-128152486D01*
X140199500Y-128447513D01*
X140231571Y-128691113D01*
X140238007Y-128739993D01*
X140314361Y-129024951D01*
X140314364Y-129024961D01*
X140427254Y-129297500D01*
X140427258Y-129297510D01*
X140574761Y-129552993D01*
X140754352Y-129787040D01*
X140754358Y-129787047D01*
X140962952Y-129995641D01*
X140962959Y-129995647D01*
X141197006Y-130175238D01*
X141452489Y-130322741D01*
X141452490Y-130322741D01*
X141452493Y-130322743D01*
X141725048Y-130435639D01*
X142010007Y-130511993D01*
X142302494Y-130550500D01*
X142302501Y-130550500D01*
X142597499Y-130550500D01*
X142597506Y-130550500D01*
X142889993Y-130511993D01*
X143174952Y-130435639D01*
X143447507Y-130322743D01*
X143702994Y-130175238D01*
X143937042Y-129995646D01*
X144145646Y-129787042D01*
X144325238Y-129552994D01*
X144472743Y-129297507D01*
X144585639Y-129024952D01*
X144661993Y-128739993D01*
X144700500Y-128447506D01*
X144700500Y-128152494D01*
X144661993Y-127860007D01*
X144585639Y-127575048D01*
X144575470Y-127550499D01*
X144546517Y-127480600D01*
X144472743Y-127302493D01*
X144325238Y-127047006D01*
X144145646Y-126812958D01*
X144145641Y-126812952D01*
X143937047Y-126604358D01*
X143937040Y-126604352D01*
X143702993Y-126424761D01*
X143447510Y-126277258D01*
X143447500Y-126277254D01*
X143174961Y-126164364D01*
X143174954Y-126164362D01*
X143174952Y-126164361D01*
X142889993Y-126088007D01*
X142841113Y-126081571D01*
X142597513Y-126049500D01*
X142597506Y-126049500D01*
X142302494Y-126049500D01*
X142302486Y-126049500D01*
X142024085Y-126086153D01*
X142010007Y-126088007D01*
X141725048Y-126164361D01*
X141725038Y-126164364D01*
X141452499Y-126277254D01*
X141452489Y-126277258D01*
X141197006Y-126424761D01*
X140962959Y-126604352D01*
X140962952Y-126604358D01*
X140754358Y-126812952D01*
X140754352Y-126812959D01*
X140574761Y-127047006D01*
X140427258Y-127302489D01*
X140427254Y-127302499D01*
X140314364Y-127575038D01*
X140314361Y-127575048D01*
X140238008Y-127860004D01*
X140238006Y-127860015D01*
X140199500Y-128152486D01*
X139525500Y-128152486D01*
X139525500Y-125675321D01*
X147399500Y-125675321D01*
X147399500Y-127324678D01*
X147414032Y-127397735D01*
X147414033Y-127397739D01*
X147414034Y-127397740D01*
X147469399Y-127480601D01*
X147549999Y-127534455D01*
X147552260Y-127535966D01*
X147552264Y-127535967D01*
X147625321Y-127550499D01*
X147625324Y-127550500D01*
X147625326Y-127550500D01*
X147974674Y-127550500D01*
X148025811Y-127540328D01*
X148074189Y-127540328D01*
X148125326Y-127550500D01*
X148474674Y-127550500D01*
X148525811Y-127540328D01*
X148574189Y-127540328D01*
X148625326Y-127550500D01*
X148974674Y-127550500D01*
X149025811Y-127540328D01*
X149074189Y-127540328D01*
X149125326Y-127550500D01*
X149474674Y-127550500D01*
X149525811Y-127540328D01*
X149574189Y-127540328D01*
X149625326Y-127550500D01*
X149974676Y-127550500D01*
X149974677Y-127550499D01*
X150047740Y-127535966D01*
X150130601Y-127480601D01*
X150185966Y-127397740D01*
X150200500Y-127324674D01*
X150200500Y-125675326D01*
X150200500Y-125675323D01*
X150200499Y-125675321D01*
X150185967Y-125602264D01*
X150185966Y-125602260D01*
X150182634Y-125597273D01*
X150130601Y-125519399D01*
X150047740Y-125464034D01*
X150047739Y-125464033D01*
X150047735Y-125464032D01*
X149974677Y-125449500D01*
X149974674Y-125449500D01*
X149625326Y-125449500D01*
X149574190Y-125459671D01*
X149525810Y-125459671D01*
X149474674Y-125449500D01*
X149125326Y-125449500D01*
X149074190Y-125459671D01*
X149025810Y-125459671D01*
X148974674Y-125449500D01*
X148625326Y-125449500D01*
X148574190Y-125459671D01*
X148525810Y-125459671D01*
X148474674Y-125449500D01*
X148125326Y-125449500D01*
X148074190Y-125459671D01*
X148025810Y-125459671D01*
X147974674Y-125449500D01*
X147625326Y-125449500D01*
X147625323Y-125449500D01*
X147552264Y-125464032D01*
X147552260Y-125464033D01*
X147469399Y-125519399D01*
X147414033Y-125602260D01*
X147414032Y-125602264D01*
X147399500Y-125675321D01*
X139525500Y-125675321D01*
X139525500Y-125656961D01*
X139526280Y-125643078D01*
X139538966Y-125530485D01*
X139538967Y-125530484D01*
X139538966Y-125530481D01*
X139545142Y-125503418D01*
X139580256Y-125403068D01*
X139592299Y-125378062D01*
X139648863Y-125288040D01*
X139666168Y-125266341D01*
X139741341Y-125191168D01*
X139763040Y-125173863D01*
X139853062Y-125117299D01*
X139878068Y-125105256D01*
X139978418Y-125070142D01*
X140005481Y-125063966D01*
X140102769Y-125053004D01*
X140118078Y-125051280D01*
X140131961Y-125050500D01*
X140182583Y-125050500D01*
X151067417Y-125050500D01*
X151118039Y-125050500D01*
X151131922Y-125051279D01*
G37*
%TD.AperFunction*%
%TD*%
%TA.AperFunction,NonConductor*%
G36*
X148352886Y-132899871D02*
G01*
X148393415Y-132956785D01*
X148400235Y-132997342D01*
X148400235Y-133288076D01*
X148380550Y-133355115D01*
X148363916Y-133375757D01*
X146131476Y-135608196D01*
X146070153Y-135641681D01*
X146000461Y-135636697D01*
X145944528Y-135594825D01*
X145920111Y-135529361D01*
X145934963Y-135461088D01*
X145936386Y-135458553D01*
X145962984Y-135412485D01*
X146000500Y-135272475D01*
X146000500Y-135161188D01*
X146020185Y-135094149D01*
X146036819Y-135073507D01*
X146497145Y-134613181D01*
X148160465Y-132949862D01*
X148168848Y-132935341D01*
X148219415Y-132887127D01*
X148288022Y-132873903D01*
X148352886Y-132899871D01*
G37*
%TD.AperFunction*%
M02*
