%TF.GenerationSoftware,KiCad,Pcbnew,9.0.7*%
%TF.CreationDate,2026-03-31T12:59:19-05:00*%
%TF.ProjectId,color,636f6c6f-722e-46b6-9963-61645f706362,rev?*%
%TF.SameCoordinates,Original*%
%TF.FileFunction,Legend,Bot*%
%TF.FilePolarity,Positive*%
%FSLAX46Y46*%
G04 Gerber Fmt 4.6, Leading zero omitted, Abs format (unit mm)*
G04 Created by KiCad (PCBNEW 9.0.7) date 2026-03-31 12:59:19*
%MOMM*%
%LPD*%
G01*
G04 APERTURE LIST*
%ADD10C,0.100000*%
%ADD11C,0.200000*%
%ADD12C,0.000000*%
%ADD13C,4.000000*%
%ADD14C,0.600000*%
%ADD15R,0.300000X1.600000*%
G04 APERTURE END LIST*
D10*
X104891666Y-120992580D02*
X104891666Y-120278295D01*
X104891666Y-120278295D02*
X104844047Y-120135438D01*
X104844047Y-120135438D02*
X104748809Y-120040200D01*
X104748809Y-120040200D02*
X104605952Y-119992580D01*
X104605952Y-119992580D02*
X104510714Y-119992580D01*
X105320238Y-120897342D02*
X105367857Y-120944961D01*
X105367857Y-120944961D02*
X105463095Y-120992580D01*
X105463095Y-120992580D02*
X105701190Y-120992580D01*
X105701190Y-120992580D02*
X105796428Y-120944961D01*
X105796428Y-120944961D02*
X105844047Y-120897342D01*
X105844047Y-120897342D02*
X105891666Y-120802104D01*
X105891666Y-120802104D02*
X105891666Y-120706866D01*
X105891666Y-120706866D02*
X105844047Y-120564009D01*
X105844047Y-120564009D02*
X105272619Y-119992580D01*
X105272619Y-119992580D02*
X105891666Y-119992580D01*
X111908333Y-107207419D02*
X111908333Y-107921704D01*
X111908333Y-107921704D02*
X111955952Y-108064561D01*
X111955952Y-108064561D02*
X112051190Y-108159800D01*
X112051190Y-108159800D02*
X112194047Y-108207419D01*
X112194047Y-108207419D02*
X112289285Y-108207419D01*
X110908333Y-108207419D02*
X111479761Y-108207419D01*
X111194047Y-108207419D02*
X111194047Y-107207419D01*
X111194047Y-107207419D02*
X111289285Y-107350276D01*
X111289285Y-107350276D02*
X111384523Y-107445514D01*
X111384523Y-107445514D02*
X111479761Y-107493133D01*
D11*
%TO.C,J2*%
X102775000Y-118500000D02*
X103775000Y-118500000D01*
X102775000Y-118550001D02*
X102774999Y-119550000D01*
X102775000Y-122349999D02*
X102774999Y-121350000D01*
X103775000Y-122400000D02*
X102775000Y-122400000D01*
X107675000Y-118500000D02*
X106675000Y-118500000D01*
X107675000Y-118550001D02*
X107675001Y-119550000D01*
X107675000Y-122349999D02*
X107675001Y-121350000D01*
X107675000Y-122400000D02*
X106675000Y-122400000D01*
D12*
%TO.C,G\u002A\u002A\u002A*%
G36*
X106593373Y-114484685D02*
G01*
X106592799Y-114487940D01*
X106589544Y-114487367D01*
X106590119Y-114484111D01*
X106593373Y-114484685D01*
G37*
G36*
X106979119Y-113210471D02*
G01*
X106978545Y-113213726D01*
X106975290Y-113213152D01*
X106975864Y-113209897D01*
X106979119Y-113210471D01*
G37*
G36*
X110161785Y-112801898D02*
G01*
X110161210Y-112805152D01*
X110157956Y-112804578D01*
X110158531Y-112801324D01*
X110161785Y-112801898D01*
G37*
G36*
X106418062Y-113416112D02*
G01*
X106413048Y-113420519D01*
X106407408Y-113423673D01*
X106406910Y-113421939D01*
X106408290Y-113420220D01*
X106416482Y-113415237D01*
X106418062Y-113416112D01*
G37*
G36*
X106570399Y-114005186D02*
G01*
X106568229Y-114008793D01*
X106566007Y-114009937D01*
X106563890Y-114008028D01*
X106564129Y-114007177D01*
X106568994Y-114004454D01*
X106570399Y-114005186D01*
G37*
G36*
X106766142Y-113818867D02*
G01*
X106767284Y-113821087D01*
X106765376Y-113823206D01*
X106764526Y-113822965D01*
X106761802Y-113818101D01*
X106762535Y-113816696D01*
X106766142Y-113818867D01*
G37*
G36*
X106469471Y-113696649D02*
G01*
X106469336Y-113699502D01*
X106464048Y-113705199D01*
X106457580Y-113707948D01*
X106453276Y-113705410D01*
X106455530Y-113697905D01*
X106455654Y-113697724D01*
X106462703Y-113692958D01*
X106469471Y-113696649D01*
G37*
G36*
X109328438Y-114281110D02*
G01*
X109330128Y-114289008D01*
X109330154Y-114298070D01*
X109327916Y-114298945D01*
X109322080Y-114291464D01*
X109318665Y-114283967D01*
X109322519Y-114280253D01*
X109323265Y-114280080D01*
X109328438Y-114281110D01*
G37*
G36*
X106966333Y-113501830D02*
G01*
X106968996Y-113503256D01*
X106972655Y-113507302D01*
X106968001Y-113512075D01*
X106962002Y-113514371D01*
X106954848Y-113509872D01*
X106952425Y-113504938D01*
X106953181Y-113499629D01*
X106957410Y-113499051D01*
X106966333Y-113501830D01*
G37*
G36*
X108065730Y-116334848D02*
G01*
X108067362Y-116337946D01*
X108065438Y-116343366D01*
X108055038Y-116347430D01*
X108054807Y-116347485D01*
X108046591Y-116347355D01*
X108045527Y-116342763D01*
X108052139Y-116335806D01*
X108059168Y-116332560D01*
X108065730Y-116334848D01*
G37*
G36*
X106402538Y-113666516D02*
G01*
X106407760Y-113678777D01*
X106408222Y-113681524D01*
X106405954Y-113687410D01*
X106399359Y-113687145D01*
X106390743Y-113680494D01*
X106388661Y-113678030D01*
X106385671Y-113671106D01*
X106390280Y-113665570D01*
X106395284Y-113663322D01*
X106402538Y-113666516D01*
G37*
G36*
X109092790Y-114249180D02*
G01*
X109094045Y-114251205D01*
X109094333Y-114257808D01*
X109086858Y-114264866D01*
X109078524Y-114268859D01*
X109067987Y-114269091D01*
X109060934Y-114264111D01*
X109060003Y-114254903D01*
X109063306Y-114249264D01*
X109072874Y-114243968D01*
X109084099Y-114243696D01*
X109092790Y-114249180D01*
G37*
G36*
X109522904Y-113012785D02*
G01*
X109530305Y-113023867D01*
X109538183Y-113040092D01*
X109539594Y-113046851D01*
X109535039Y-113051667D01*
X109530826Y-113052255D01*
X109526023Y-113050032D01*
X109521682Y-113042463D01*
X109516367Y-113027706D01*
X109513258Y-113015889D01*
X109513411Y-113008246D01*
X109516951Y-113007392D01*
X109522904Y-113012785D01*
G37*
G36*
X107640744Y-113511691D02*
G01*
X107641953Y-113514837D01*
X107639022Y-113521454D01*
X107637567Y-113522888D01*
X107637496Y-113529477D01*
X107644002Y-113540787D01*
X107654725Y-113556101D01*
X107639412Y-113566823D01*
X107624099Y-113577545D01*
X107612572Y-113561083D01*
X107609958Y-113557088D01*
X107604099Y-113545307D01*
X107602423Y-113536811D01*
X107606420Y-113529347D01*
X107615033Y-113521065D01*
X107625456Y-113514160D01*
X107634942Y-113510434D01*
X107640744Y-113511691D01*
G37*
G36*
X105733436Y-113104006D02*
G01*
X105739239Y-113110040D01*
X105740087Y-113113874D01*
X105740997Y-113117992D01*
X105740894Y-113118478D01*
X105735511Y-113125505D01*
X105727188Y-113127862D01*
X105724949Y-113126565D01*
X105723866Y-113123737D01*
X105726002Y-113123737D01*
X105729258Y-113124310D01*
X105729831Y-113121056D01*
X105726576Y-113120482D01*
X105726002Y-113123737D01*
X105723866Y-113123737D01*
X105722212Y-113119420D01*
X105722616Y-113110187D01*
X105726326Y-113103542D01*
X105726928Y-113103183D01*
X105733436Y-113104006D01*
G37*
G36*
X109230535Y-114134435D02*
G01*
X109243270Y-114146322D01*
X109249403Y-114160199D01*
X109249807Y-114176933D01*
X109243193Y-114191143D01*
X109242044Y-114192444D01*
X109227092Y-114205419D01*
X109210225Y-114214578D01*
X109193624Y-114219279D01*
X109179475Y-114218879D01*
X109169963Y-114212732D01*
X109168824Y-114211045D01*
X109162649Y-114195268D01*
X109164797Y-114178705D01*
X109175416Y-114159938D01*
X109183277Y-114150296D01*
X109199682Y-114136594D01*
X109215719Y-114131249D01*
X109230535Y-114134435D01*
G37*
G36*
X106154760Y-113964205D02*
G01*
X106168966Y-113966038D01*
X106182732Y-113966428D01*
X106190567Y-113964896D01*
X106194798Y-113962620D01*
X106202015Y-113963238D01*
X106205267Y-113972312D01*
X106204548Y-113989828D01*
X106203991Y-113995607D01*
X106204503Y-114012839D01*
X106208382Y-114024488D01*
X106211643Y-114030069D01*
X106211151Y-114035105D01*
X106203128Y-114034627D01*
X106187587Y-114028640D01*
X106164533Y-114017145D01*
X106146425Y-114006922D01*
X106128143Y-113994366D01*
X106118606Y-113984164D01*
X106117835Y-113982747D01*
X106114947Y-113971476D01*
X106120222Y-113964584D01*
X106133533Y-113962137D01*
X106154760Y-113964205D01*
G37*
G36*
X109376836Y-114049531D02*
G01*
X109379008Y-114049938D01*
X109386906Y-114052685D01*
X109391875Y-114058751D01*
X109396543Y-114071002D01*
X109399414Y-114082210D01*
X109398604Y-114094563D01*
X109391939Y-114108612D01*
X109389369Y-114112924D01*
X109381116Y-114125027D01*
X109373202Y-114130863D01*
X109362473Y-114131858D01*
X109345770Y-114129435D01*
X109335553Y-114127477D01*
X109324936Y-114124204D01*
X109319360Y-114119412D01*
X109316205Y-114111510D01*
X109314795Y-114104689D01*
X109316335Y-114090396D01*
X109325230Y-114076809D01*
X109342312Y-114062357D01*
X109355031Y-114054037D01*
X109366402Y-114049504D01*
X109376836Y-114049531D01*
G37*
G36*
X106390105Y-113429269D02*
G01*
X106396805Y-113431580D01*
X106397426Y-113436719D01*
X106391693Y-113445841D01*
X106379335Y-113460107D01*
X106368523Y-113470797D01*
X106351381Y-113485274D01*
X106332137Y-113499621D01*
X106312622Y-113512633D01*
X106294663Y-113523106D01*
X106280088Y-113529837D01*
X106270725Y-113531623D01*
X106263907Y-113529634D01*
X106262457Y-113525098D01*
X106265835Y-113515079D01*
X106265857Y-113515023D01*
X106272734Y-113505141D01*
X106285656Y-113492377D01*
X106302774Y-113478046D01*
X106322245Y-113463465D01*
X106342222Y-113449947D01*
X106360858Y-113438809D01*
X106376307Y-113431367D01*
X106386723Y-113428938D01*
X106390105Y-113429269D01*
G37*
G36*
X108706488Y-113021357D02*
G01*
X108717737Y-113027872D01*
X108728321Y-113039785D01*
X108736093Y-113055134D01*
X108736119Y-113055206D01*
X108740396Y-113064882D01*
X108744157Y-113069251D01*
X108745430Y-113071871D01*
X108744716Y-113080422D01*
X108742068Y-113091593D01*
X108738354Y-113101930D01*
X108734437Y-113107978D01*
X108732937Y-113109581D01*
X108732722Y-113116490D01*
X108732420Y-113117356D01*
X108726958Y-113114551D01*
X108717018Y-113107656D01*
X108714857Y-113106037D01*
X108703699Y-113096527D01*
X108697181Y-113087143D01*
X108692328Y-113073817D01*
X108689198Y-113061220D01*
X108687607Y-113042087D01*
X108690917Y-113028263D01*
X108698949Y-113021181D01*
X108706488Y-113021357D01*
G37*
G36*
X109178541Y-112733440D02*
G01*
X109181571Y-112734550D01*
X109193912Y-112741884D01*
X109205941Y-112752278D01*
X109213269Y-112760761D01*
X109218821Y-112771683D01*
X109220136Y-112785120D01*
X109219719Y-112793642D01*
X109217225Y-112800723D01*
X109211507Y-112802174D01*
X109206791Y-112801100D01*
X109199168Y-112795978D01*
X109197039Y-112793955D01*
X109193146Y-112795524D01*
X109192428Y-112796357D01*
X109187606Y-112794064D01*
X109179935Y-112784806D01*
X109177218Y-112780695D01*
X109172964Y-112772260D01*
X109173388Y-112768784D01*
X109173954Y-112765857D01*
X109168952Y-112759066D01*
X109163991Y-112751886D01*
X109162747Y-112739651D01*
X109164411Y-112734904D01*
X109168922Y-112731664D01*
X109178541Y-112733440D01*
G37*
G36*
X106822617Y-113355333D02*
G01*
X106833985Y-113366294D01*
X106842797Y-113374217D01*
X106852475Y-113380474D01*
X106858940Y-113381903D01*
X106860387Y-113377724D01*
X106860258Y-113375069D01*
X106863930Y-113371266D01*
X106866565Y-113372623D01*
X106867923Y-113379698D01*
X106867503Y-113382659D01*
X106863912Y-113390451D01*
X106856820Y-113390241D01*
X106851522Y-113390349D01*
X106842428Y-113394613D01*
X106835705Y-113397942D01*
X106830403Y-113397327D01*
X106828600Y-113396030D01*
X106822115Y-113397426D01*
X106819239Y-113398758D01*
X106809432Y-113397489D01*
X106799298Y-113390160D01*
X106791623Y-113378506D01*
X106789146Y-113370899D01*
X106790794Y-113363667D01*
X106799428Y-113356261D01*
X106799749Y-113356035D01*
X106808166Y-113350977D01*
X106814897Y-113350485D01*
X106822617Y-113355333D01*
G37*
G36*
X111752838Y-114396585D02*
G01*
X111763346Y-114404747D01*
X111763765Y-114405297D01*
X111770194Y-114411906D01*
X111781385Y-114422176D01*
X111795196Y-114434127D01*
X111797553Y-114436120D01*
X111810866Y-114447631D01*
X111821074Y-114456874D01*
X111826127Y-114462006D01*
X111826444Y-114464053D01*
X111822419Y-114469686D01*
X111811915Y-114478593D01*
X111794143Y-114491504D01*
X111758718Y-114516280D01*
X111763683Y-114499341D01*
X111764942Y-114494916D01*
X111766347Y-114485473D01*
X111763056Y-114478713D01*
X111753638Y-114470543D01*
X111751526Y-114468944D01*
X111737785Y-114460674D01*
X111725059Y-114455792D01*
X111711002Y-114449868D01*
X111705040Y-114439526D01*
X111707103Y-114424438D01*
X111714073Y-114411461D01*
X111725920Y-114400739D01*
X111739601Y-114395514D01*
X111752838Y-114396585D01*
G37*
G36*
X110090427Y-112931309D02*
G01*
X110090992Y-112931739D01*
X110096310Y-112938915D01*
X110101910Y-112950339D01*
X110106605Y-112962899D01*
X110109211Y-112973477D01*
X110108543Y-112978955D01*
X110107294Y-112981858D01*
X110108307Y-112990164D01*
X110108985Y-112996167D01*
X110105819Y-113005492D01*
X110102706Y-113008533D01*
X110093541Y-113014055D01*
X110090451Y-113015146D01*
X110079404Y-113019344D01*
X110065452Y-113024864D01*
X110058112Y-113027576D01*
X110047305Y-113030462D01*
X110042095Y-113030208D01*
X110040435Y-113029205D01*
X110034132Y-113031058D01*
X110029757Y-113032844D01*
X110024942Y-113029841D01*
X110022875Y-113021609D01*
X110023592Y-113010442D01*
X110027125Y-112998629D01*
X110033509Y-112988467D01*
X110041849Y-112978170D01*
X110050748Y-112965162D01*
X110051045Y-112964677D01*
X110060260Y-112951872D01*
X110071146Y-112939380D01*
X110076940Y-112933886D01*
X110084328Y-112929638D01*
X110090427Y-112931309D01*
G37*
G36*
X108191669Y-114085043D02*
G01*
X108191530Y-114085282D01*
X108191367Y-114089744D01*
X108198984Y-114091418D01*
X108205608Y-114092283D01*
X108207749Y-114095878D01*
X108205065Y-114105126D01*
X108204840Y-114105745D01*
X108198427Y-114118885D01*
X108189785Y-114132189D01*
X108187469Y-114135107D01*
X108169027Y-114153098D01*
X108147056Y-114167998D01*
X108125364Y-114177153D01*
X108121710Y-114178159D01*
X108104175Y-114183523D01*
X108086799Y-114189463D01*
X108081991Y-114191146D01*
X108065496Y-114196068D01*
X108051712Y-114199084D01*
X108039013Y-114202536D01*
X108025881Y-114209044D01*
X108019244Y-114212398D01*
X108011662Y-114212008D01*
X108009283Y-114206464D01*
X108014139Y-114197727D01*
X108015851Y-114196013D01*
X108025499Y-114187328D01*
X108039968Y-114175037D01*
X108057297Y-114160762D01*
X108075532Y-114146120D01*
X108092717Y-114132728D01*
X108103223Y-114125303D01*
X108124219Y-114113253D01*
X108144443Y-114104745D01*
X108160857Y-114101191D01*
X108170275Y-114099111D01*
X108184367Y-114089953D01*
X108185816Y-114088533D01*
X108191248Y-114083912D01*
X108191669Y-114085043D01*
G37*
G36*
X105950781Y-113600539D02*
G01*
X105962102Y-113602455D01*
X105976727Y-113602919D01*
X105981132Y-113603081D01*
X105995708Y-113606503D01*
X106010737Y-113613014D01*
X106015631Y-113615559D01*
X106033986Y-113621160D01*
X106055366Y-113620824D01*
X106060170Y-113620352D01*
X106079296Y-113620942D01*
X106093660Y-113625343D01*
X106106065Y-113631273D01*
X106120188Y-113635981D01*
X106128894Y-113639297D01*
X106136569Y-113648758D01*
X106136651Y-113649024D01*
X106135813Y-113659140D01*
X106128394Y-113665486D01*
X106116979Y-113665813D01*
X106111643Y-113664905D01*
X106104672Y-113665873D01*
X106102635Y-113666712D01*
X106092169Y-113667439D01*
X106076694Y-113666309D01*
X106059078Y-113663784D01*
X106042189Y-113660330D01*
X106028900Y-113656412D01*
X106022075Y-113652494D01*
X106017590Y-113649409D01*
X106007671Y-113648218D01*
X106000675Y-113648145D01*
X105994310Y-113645433D01*
X105994286Y-113645401D01*
X105988095Y-113641294D01*
X105977281Y-113637099D01*
X105964838Y-113630516D01*
X105951194Y-113615077D01*
X105946646Y-113608201D01*
X105942769Y-113601131D01*
X105944162Y-113599130D01*
X105950781Y-113600539D01*
G37*
G36*
X109111829Y-112416328D02*
G01*
X109123308Y-112419393D01*
X109136550Y-112426113D01*
X109154266Y-112437650D01*
X109155727Y-112438612D01*
X109170988Y-112446249D01*
X109187379Y-112451546D01*
X109208638Y-112458159D01*
X109231098Y-112470947D01*
X109254242Y-112490849D01*
X109255460Y-112492063D01*
X109270149Y-112508898D01*
X109284275Y-112528667D01*
X109296970Y-112549658D01*
X109307357Y-112570163D01*
X109314564Y-112588468D01*
X109317718Y-112602867D01*
X109315943Y-112611647D01*
X109313453Y-112614524D01*
X109303660Y-112622671D01*
X109293531Y-112623569D01*
X109279697Y-112617789D01*
X109276678Y-112616115D01*
X109260516Y-112605500D01*
X109246398Y-112594038D01*
X109242168Y-112590036D01*
X109228201Y-112576823D01*
X109214354Y-112563723D01*
X109208129Y-112558219D01*
X109190916Y-112544793D01*
X109170363Y-112530300D01*
X109149757Y-112517006D01*
X109132378Y-112507173D01*
X109124847Y-112502560D01*
X109111182Y-112491487D01*
X109097665Y-112478084D01*
X109086802Y-112464919D01*
X109081089Y-112454557D01*
X109080045Y-112443127D01*
X109082384Y-112429174D01*
X109082722Y-112428188D01*
X109086498Y-112419518D01*
X109091958Y-112416201D01*
X109102932Y-112415731D01*
X109111829Y-112416328D01*
G37*
G36*
X108592879Y-112017300D02*
G01*
X108608068Y-112020579D01*
X108620753Y-112024595D01*
X108627593Y-112028686D01*
X108628162Y-112030126D01*
X108628011Y-112039053D01*
X108625226Y-112051672D01*
X108623938Y-112055695D01*
X108619318Y-112067154D01*
X108615357Y-112073258D01*
X108611131Y-112074150D01*
X108599701Y-112073890D01*
X108584561Y-112072065D01*
X108573099Y-112070525D01*
X108560613Y-112069712D01*
X108554237Y-112070478D01*
X108551479Y-112070904D01*
X108545478Y-112066626D01*
X108544372Y-112065226D01*
X108542049Y-112064115D01*
X108543114Y-112071133D01*
X108543418Y-112072688D01*
X108542093Y-112082778D01*
X108536001Y-112088094D01*
X108527487Y-112086354D01*
X108524052Y-112084789D01*
X108516524Y-112085474D01*
X108510188Y-112086954D01*
X108499277Y-112085939D01*
X108490824Y-112083404D01*
X108488083Y-112078865D01*
X108489293Y-112068777D01*
X108490659Y-112062488D01*
X108494642Y-112055826D01*
X108502684Y-112053897D01*
X108510199Y-112052772D01*
X108519399Y-112049229D01*
X108525170Y-112046628D01*
X108536447Y-112044424D01*
X108542367Y-112043529D01*
X108547060Y-112039196D01*
X108548913Y-112028562D01*
X108548958Y-112028057D01*
X108551191Y-112018098D01*
X108555202Y-112017028D01*
X108558146Y-112018205D01*
X108566238Y-112016433D01*
X108568369Y-112015632D01*
X108578533Y-112015430D01*
X108592879Y-112017300D01*
G37*
G36*
X109362609Y-112206462D02*
G01*
X109365930Y-112210035D01*
X109373009Y-112213167D01*
X109377608Y-112214788D01*
X109384621Y-112221605D01*
X109387287Y-112224776D01*
X109397008Y-112230097D01*
X109411866Y-112231035D01*
X109433521Y-112227801D01*
X109446015Y-112225870D01*
X109460239Y-112227131D01*
X109471847Y-112234501D01*
X109483868Y-112249272D01*
X109487819Y-112254518D01*
X109495267Y-112262235D01*
X109499934Y-112264072D01*
X109504725Y-112263894D01*
X109509441Y-112269916D01*
X109512082Y-112279798D01*
X109511383Y-112290606D01*
X109506141Y-112301407D01*
X109496370Y-112312018D01*
X109489291Y-112319061D01*
X109485517Y-112331218D01*
X109484663Y-112338821D01*
X109480390Y-112346220D01*
X109478044Y-112348417D01*
X109477032Y-112353581D01*
X109477132Y-112354115D01*
X109473775Y-112359821D01*
X109465301Y-112369623D01*
X109453207Y-112381752D01*
X109440499Y-112394797D01*
X109428621Y-112409565D01*
X109422252Y-112421057D01*
X109418222Y-112431319D01*
X109411953Y-112438441D01*
X109402397Y-112439082D01*
X109387157Y-112434137D01*
X109366132Y-112425853D01*
X109323285Y-112354771D01*
X109321344Y-112351549D01*
X109303877Y-112322318D01*
X109290941Y-112299725D01*
X109282188Y-112282570D01*
X109277274Y-112269658D01*
X109275850Y-112259785D01*
X109277570Y-112251756D01*
X109282086Y-112244372D01*
X109289054Y-112236434D01*
X109291935Y-112233470D01*
X109308094Y-112219896D01*
X109325161Y-112209629D01*
X109341220Y-112203444D01*
X109354342Y-112202127D01*
X109362609Y-112206462D01*
G37*
G36*
X105535042Y-113086290D02*
G01*
X105549606Y-113090297D01*
X105558623Y-113096537D01*
X105561871Y-113099864D01*
X105567303Y-113100787D01*
X105571486Y-113101400D01*
X105577833Y-113107675D01*
X105581313Y-113114430D01*
X105579216Y-113120055D01*
X105570160Y-113127274D01*
X105561577Y-113132380D01*
X105551177Y-113134161D01*
X105537752Y-113130467D01*
X105522651Y-113126997D01*
X105503362Y-113130141D01*
X105501286Y-113130904D01*
X105488087Y-113133380D01*
X105477863Y-113131837D01*
X105468536Y-113127068D01*
X105459615Y-113123463D01*
X105455648Y-113124208D01*
X105454743Y-113129074D01*
X105453854Y-113134270D01*
X105449447Y-113133391D01*
X105448808Y-113133024D01*
X105441881Y-113132584D01*
X105436184Y-113136022D01*
X105435765Y-113141069D01*
X105437138Y-113142282D01*
X105444359Y-113143159D01*
X105446271Y-113143844D01*
X105441975Y-113148158D01*
X105435568Y-113151303D01*
X105427914Y-113150838D01*
X105424496Y-113149845D01*
X105417394Y-113152996D01*
X105406370Y-113162590D01*
X105397029Y-113170938D01*
X105388678Y-113175615D01*
X105381397Y-113175322D01*
X105374153Y-113169494D01*
X105373556Y-113160530D01*
X105380023Y-113152051D01*
X105383685Y-113147217D01*
X105385724Y-113136911D01*
X105385784Y-113134162D01*
X105389923Y-113121415D01*
X105398519Y-113108962D01*
X105409177Y-113099685D01*
X105419491Y-113096464D01*
X105426398Y-113095840D01*
X105435945Y-113091132D01*
X105437942Y-113089774D01*
X105448830Y-113087882D01*
X105464607Y-113089595D01*
X105471308Y-113090636D01*
X105487801Y-113090905D01*
X105500714Y-113088217D01*
X105503851Y-113087067D01*
X105518576Y-113085038D01*
X105535042Y-113086290D01*
G37*
G36*
X108339038Y-112737492D02*
G01*
X108352975Y-112744228D01*
X108369111Y-112754329D01*
X108384428Y-112765817D01*
X108395907Y-112776719D01*
X108401089Y-112782080D01*
X108416158Y-112791029D01*
X108431331Y-112791058D01*
X108445578Y-112782059D01*
X108460066Y-112772576D01*
X108481153Y-112768003D01*
X108505826Y-112769622D01*
X108532407Y-112777298D01*
X108559217Y-112790905D01*
X108568308Y-112796336D01*
X108580893Y-112802962D01*
X108589031Y-112806113D01*
X108592978Y-112807421D01*
X108601366Y-112814048D01*
X108604223Y-112817202D01*
X108610081Y-112819642D01*
X108614751Y-112820120D01*
X108626170Y-112822871D01*
X108641140Y-112827332D01*
X108649198Y-112830047D01*
X108662918Y-112836169D01*
X108672866Y-112844268D01*
X108682799Y-112857016D01*
X108688282Y-112865437D01*
X108695425Y-112878692D01*
X108698735Y-112888209D01*
X108698814Y-112890041D01*
X108694332Y-112900665D01*
X108682854Y-112910169D01*
X108666346Y-112916816D01*
X108660635Y-112917193D01*
X108646890Y-112914958D01*
X108631450Y-112909874D01*
X108621859Y-112906253D01*
X108610037Y-112903058D01*
X108603653Y-112903065D01*
X108602451Y-112903773D01*
X108598510Y-112904605D01*
X108591444Y-112904029D01*
X108579261Y-112901801D01*
X108559973Y-112897672D01*
X108548798Y-112894914D01*
X108517658Y-112884661D01*
X108489174Y-112871972D01*
X108486043Y-112870365D01*
X108460265Y-112859829D01*
X108436109Y-112854423D01*
X108416188Y-112854762D01*
X108412123Y-112855364D01*
X108397328Y-112855673D01*
X108380032Y-112854254D01*
X108363201Y-112851542D01*
X108349792Y-112847971D01*
X108342769Y-112843977D01*
X108339756Y-112841235D01*
X108330517Y-112837994D01*
X108322917Y-112834682D01*
X108312234Y-112826101D01*
X108301579Y-112814941D01*
X108293481Y-112803875D01*
X108290459Y-112795574D01*
X108290451Y-112794477D01*
X108288252Y-112784648D01*
X108283426Y-112772142D01*
X108279315Y-112761410D01*
X108280226Y-112754386D01*
X108287093Y-112748181D01*
X108299871Y-112741614D01*
X108317731Y-112736637D01*
X108333565Y-112735957D01*
X108339038Y-112737492D01*
G37*
G36*
X111390454Y-113982650D02*
G01*
X111396158Y-113989051D01*
X111405394Y-114000867D01*
X111416923Y-114016434D01*
X111429495Y-114034083D01*
X111441868Y-114052149D01*
X111442488Y-114053096D01*
X111446989Y-114062110D01*
X111447020Y-114067085D01*
X111445674Y-114070811D01*
X111446963Y-114079744D01*
X111448082Y-114090135D01*
X111446137Y-114103557D01*
X111445051Y-114114937D01*
X111448577Y-114126314D01*
X111451970Y-114132913D01*
X111451653Y-114138007D01*
X111451355Y-114138682D01*
X111453157Y-114145462D01*
X111458657Y-114157565D01*
X111466957Y-114172934D01*
X111469599Y-114177601D01*
X111477229Y-114192199D01*
X111481848Y-114202903D01*
X111482538Y-114207665D01*
X111482668Y-114210169D01*
X111487295Y-114218027D01*
X111495857Y-114228896D01*
X111506292Y-114242858D01*
X111515824Y-114261297D01*
X111520136Y-114278058D01*
X111518385Y-114290827D01*
X111516326Y-114298444D01*
X111517246Y-114307688D01*
X111520929Y-114313907D01*
X111526296Y-114313949D01*
X111527301Y-114313407D01*
X111533662Y-114315296D01*
X111542402Y-114325493D01*
X111544904Y-114328857D01*
X111552178Y-114336408D01*
X111556952Y-114338124D01*
X111561372Y-114338652D01*
X111567759Y-114345190D01*
X111573932Y-114355431D01*
X111578254Y-114366579D01*
X111579083Y-114375842D01*
X111578444Y-114378931D01*
X111573628Y-114398160D01*
X111567355Y-114418813D01*
X111560536Y-114438263D01*
X111554081Y-114453882D01*
X111548899Y-114463040D01*
X111544127Y-114469947D01*
X111542260Y-114477591D01*
X111546252Y-114480234D01*
X111555293Y-114476211D01*
X111559819Y-114473480D01*
X111573306Y-114470826D01*
X111587483Y-114476612D01*
X111603257Y-114491119D01*
X111607166Y-114495492D01*
X111620916Y-114510664D01*
X111633533Y-114524344D01*
X111640647Y-114532653D01*
X111645597Y-114542014D01*
X111645457Y-114544297D01*
X111645051Y-114550918D01*
X111638400Y-114560711D01*
X111625030Y-114572732D01*
X111604323Y-114588330D01*
X111595903Y-114594431D01*
X111573217Y-114610837D01*
X111556856Y-114622798D01*
X111545935Y-114631201D01*
X111539575Y-114636935D01*
X111536889Y-114640887D01*
X111536998Y-114643945D01*
X111539017Y-114646994D01*
X111542064Y-114650926D01*
X111550105Y-114662409D01*
X111484278Y-114708502D01*
X111418451Y-114754594D01*
X111400510Y-114751827D01*
X111393638Y-114750669D01*
X111383642Y-114748012D01*
X111379326Y-114744286D01*
X111381131Y-114738700D01*
X111389495Y-114730461D01*
X111404857Y-114718778D01*
X111427657Y-114702856D01*
X111432903Y-114699240D01*
X111451427Y-114686203D01*
X111466503Y-114675180D01*
X111476697Y-114667240D01*
X111480573Y-114663452D01*
X111478360Y-114660752D01*
X111469886Y-114658396D01*
X111458244Y-114657365D01*
X111446825Y-114657919D01*
X111439032Y-114660312D01*
X111435212Y-114662802D01*
X111430161Y-114665067D01*
X111423639Y-114666297D01*
X111414352Y-114666430D01*
X111401005Y-114665402D01*
X111382303Y-114663152D01*
X111356951Y-114659616D01*
X111323655Y-114654732D01*
X111323112Y-114654650D01*
X111305788Y-114651378D01*
X111301037Y-114649400D01*
X111495355Y-114649400D01*
X111496107Y-114650237D01*
X111501864Y-114650547D01*
X111502701Y-114649795D01*
X111503012Y-114644038D01*
X111502260Y-114643201D01*
X111496503Y-114642891D01*
X111495666Y-114643642D01*
X111495355Y-114649400D01*
X111301037Y-114649400D01*
X111295363Y-114647038D01*
X111291803Y-114640552D01*
X111295081Y-114630838D01*
X111305163Y-114616813D01*
X111322018Y-114597396D01*
X111332579Y-114586538D01*
X111348832Y-114571959D01*
X111363461Y-114560927D01*
X111369347Y-114556922D01*
X111379661Y-114548081D01*
X111382619Y-114541936D01*
X111383412Y-114536888D01*
X111389087Y-114528849D01*
X111393601Y-114521273D01*
X111392367Y-114507568D01*
X111391645Y-114505284D01*
X111387805Y-114490275D01*
X111384624Y-114473939D01*
X111382575Y-114464748D01*
X111375470Y-114446903D01*
X111365666Y-114431574D01*
X111354729Y-114420968D01*
X111344237Y-114417284D01*
X111336402Y-114415947D01*
X111327462Y-114409623D01*
X111322661Y-114405124D01*
X111314407Y-114403201D01*
X111311425Y-114403760D01*
X111305235Y-114402045D01*
X111305908Y-114395543D01*
X111313511Y-114385535D01*
X111314825Y-114384157D01*
X111322093Y-114375054D01*
X111324907Y-114368737D01*
X111324905Y-114368700D01*
X111328569Y-114362374D01*
X111338117Y-114354616D01*
X111350736Y-114347340D01*
X111363608Y-114342458D01*
X111373948Y-114338124D01*
X111386803Y-114325656D01*
X111392248Y-114318973D01*
X111399619Y-114313930D01*
X111408983Y-114313692D01*
X111414521Y-114314193D01*
X111420657Y-114312334D01*
X111423679Y-114304636D01*
X111426215Y-114297357D01*
X111432765Y-114285758D01*
X111436553Y-114279536D01*
X111440001Y-114268565D01*
X111439813Y-114264328D01*
X111435979Y-114261885D01*
X111425831Y-114263887D01*
X111420758Y-114265193D01*
X111412958Y-114265392D01*
X111406483Y-114260827D01*
X111398197Y-114249913D01*
X111393216Y-114242581D01*
X111388930Y-114233617D01*
X111389828Y-114225944D01*
X111395619Y-114215677D01*
X111397358Y-114212948D01*
X111405105Y-114201182D01*
X111410828Y-114193057D01*
X111414085Y-114185264D01*
X111415468Y-114173092D01*
X111415462Y-114172923D01*
X111414249Y-114163599D01*
X111409724Y-114157087D01*
X111399412Y-114149796D01*
X111396225Y-114147930D01*
X111385306Y-114143627D01*
X111378078Y-114143884D01*
X111376346Y-114144720D01*
X111370109Y-114142565D01*
X111361664Y-114132556D01*
X111359350Y-114129066D01*
X111354598Y-114119746D01*
X111354355Y-114114854D01*
X111355050Y-114113697D01*
X111355324Y-114105703D01*
X111353294Y-114093380D01*
X111352797Y-114091080D01*
X111350763Y-114073406D01*
X111351206Y-114056924D01*
X111351523Y-114054357D01*
X111351997Y-114042376D01*
X111350665Y-114035305D01*
X111350351Y-114034759D01*
X111350657Y-114027477D01*
X111355001Y-114018438D01*
X111361153Y-114011216D01*
X111366875Y-114009382D01*
X111372496Y-114007322D01*
X111379234Y-113996538D01*
X111380237Y-113994474D01*
X111385627Y-113985386D01*
X111389463Y-113981982D01*
X111390454Y-113982650D01*
G37*
G36*
X110860517Y-113456801D02*
G01*
X110878884Y-113467916D01*
X110881944Y-113470152D01*
X110891240Y-113475782D01*
X110896372Y-113477065D01*
X110897979Y-113476882D01*
X110906174Y-113479114D01*
X110918131Y-113484182D01*
X110930897Y-113492105D01*
X110947042Y-113506459D01*
X110966414Y-113527759D01*
X110974035Y-113536520D01*
X110986666Y-113550176D01*
X110996731Y-113559984D01*
X111002557Y-113564250D01*
X111002970Y-113564381D01*
X111010365Y-113568612D01*
X111021003Y-113577778D01*
X111035730Y-113592683D01*
X111055393Y-113614124D01*
X111061343Y-113620501D01*
X111077160Y-113635538D01*
X111092800Y-113648154D01*
X111106264Y-113656818D01*
X111115546Y-113660004D01*
X111117710Y-113660547D01*
X111126457Y-113664848D01*
X111138211Y-113672040D01*
X111143211Y-113675547D01*
X111151863Y-113683087D01*
X111160554Y-113693265D01*
X111170769Y-113707928D01*
X111184002Y-113728929D01*
X111200342Y-113754761D01*
X111214865Y-113775407D01*
X111227611Y-113790122D01*
X111239853Y-113800145D01*
X111252856Y-113806718D01*
X111267886Y-113811081D01*
X111273619Y-113812407D01*
X111295296Y-113818933D01*
X111309452Y-113826785D01*
X111317597Y-113837092D01*
X111321233Y-113850978D01*
X111321423Y-113852399D01*
X111326167Y-113868656D01*
X111333926Y-113882818D01*
X111339601Y-113890574D01*
X111347760Y-113903643D01*
X111353044Y-113914596D01*
X111354626Y-113921582D01*
X111351686Y-113922752D01*
X111349384Y-113922314D01*
X111338708Y-113925417D01*
X111322931Y-113934723D01*
X111320807Y-113936159D01*
X111307347Y-113944179D01*
X111297443Y-113947105D01*
X111288037Y-113945917D01*
X111277780Y-113944350D01*
X111269882Y-113945794D01*
X111269762Y-113945875D01*
X111262402Y-113946074D01*
X111252108Y-113941781D01*
X111250485Y-113940814D01*
X111231127Y-113932070D01*
X111214949Y-113931025D01*
X111200195Y-113937538D01*
X111198031Y-113939116D01*
X111190495Y-113946098D01*
X111188672Y-113950679D01*
X111189202Y-113952164D01*
X111186144Y-113957254D01*
X111174467Y-113965606D01*
X111165445Y-113975003D01*
X111164731Y-113981673D01*
X111165614Y-113986466D01*
X111161799Y-113994787D01*
X111161661Y-113994951D01*
X111158344Y-114002573D01*
X111163481Y-114009963D01*
X111164368Y-114010780D01*
X111172124Y-114018906D01*
X111183283Y-114031499D01*
X111195738Y-114046205D01*
X111204663Y-114057731D01*
X111216962Y-114077315D01*
X111224285Y-114094569D01*
X111226096Y-114108054D01*
X111221867Y-114116340D01*
X111220490Y-114117682D01*
X111220380Y-114124278D01*
X111226898Y-114135638D01*
X111237620Y-114150950D01*
X111252933Y-114140228D01*
X111268246Y-114129505D01*
X111257524Y-114114193D01*
X111254545Y-114109717D01*
X111250322Y-114100183D01*
X111252544Y-114094859D01*
X111256400Y-114093984D01*
X111262646Y-114098372D01*
X111271689Y-114109981D01*
X111278321Y-114120233D01*
X111281526Y-114128564D01*
X111279350Y-114133141D01*
X111276992Y-114135388D01*
X111276098Y-114140721D01*
X111275578Y-114142109D01*
X111269390Y-114148381D01*
X111257361Y-114158568D01*
X111240673Y-114171694D01*
X111220502Y-114186781D01*
X111207285Y-114196504D01*
X111188132Y-114210939D01*
X111174930Y-114221615D01*
X111166545Y-114229535D01*
X111161848Y-114235713D01*
X111159714Y-114241158D01*
X111155761Y-114250171D01*
X111146787Y-114260194D01*
X111140522Y-114265997D01*
X111139061Y-114270924D01*
X111139740Y-114274221D01*
X111135014Y-114282906D01*
X111123371Y-114294136D01*
X111105762Y-114306883D01*
X111096972Y-114312984D01*
X111088011Y-114320817D01*
X111085997Y-114325506D01*
X111086278Y-114326234D01*
X111082337Y-114329871D01*
X111070860Y-114333403D01*
X111067375Y-114334181D01*
X111056395Y-114336898D01*
X111051013Y-114338666D01*
X111048138Y-114336120D01*
X111043732Y-114327808D01*
X111042334Y-114324756D01*
X111037091Y-114316914D01*
X111029889Y-114313797D01*
X111018497Y-114315012D01*
X111000683Y-114320161D01*
X110992843Y-114322430D01*
X110974609Y-114325467D01*
X110961812Y-114324091D01*
X110953104Y-114322294D01*
X110944400Y-114325886D01*
X110939709Y-114329107D01*
X110929658Y-114329900D01*
X110922167Y-114329712D01*
X110911208Y-114333865D01*
X110910909Y-114334070D01*
X110899099Y-114338528D01*
X110884552Y-114339683D01*
X110871130Y-114337646D01*
X110862703Y-114332524D01*
X110856646Y-114328858D01*
X110847416Y-114332891D01*
X110846104Y-114333740D01*
X110833005Y-114337194D01*
X110814076Y-114334842D01*
X110806014Y-114332837D01*
X110795051Y-114328592D01*
X110787802Y-114321668D01*
X110780600Y-114309266D01*
X110778899Y-114306116D01*
X110769941Y-114292909D01*
X110762174Y-114286893D01*
X110762144Y-114286884D01*
X110756005Y-114280557D01*
X110753332Y-114265851D01*
X110754098Y-114242602D01*
X110753536Y-114230830D01*
X110750700Y-114216836D01*
X110750672Y-114216740D01*
X110748951Y-114203518D01*
X110750877Y-114192646D01*
X110751554Y-114191223D01*
X110756441Y-114179676D01*
X110761740Y-114165711D01*
X110762614Y-114163388D01*
X110769424Y-114149501D01*
X110776837Y-114139162D01*
X110784255Y-114129891D01*
X110793082Y-114115392D01*
X110801263Y-114099034D01*
X110807705Y-114083250D01*
X110811317Y-114070475D01*
X110810999Y-114063148D01*
X110810038Y-114061195D01*
X110811483Y-114055677D01*
X110812180Y-114051159D01*
X110808176Y-114042806D01*
X110804766Y-114035502D01*
X110800976Y-114020549D01*
X110798571Y-114003224D01*
X110798033Y-113987287D01*
X110799829Y-113976501D01*
X110800771Y-113969984D01*
X110800485Y-113956643D01*
X110798831Y-113940118D01*
X110797001Y-113921899D01*
X110797769Y-113900198D01*
X110803169Y-113883399D01*
X110813652Y-113869339D01*
X110815945Y-113866922D01*
X110822540Y-113858617D01*
X110824240Y-113853902D01*
X110823965Y-113853353D01*
X110824423Y-113849909D01*
X110827824Y-113843173D01*
X110834986Y-113831698D01*
X110846725Y-113814036D01*
X110851452Y-113805583D01*
X110853423Y-113795450D01*
X110850572Y-113784021D01*
X110842370Y-113769462D01*
X110828288Y-113749933D01*
X110819429Y-113737444D01*
X110806994Y-113715106D01*
X110800745Y-113695747D01*
X110800953Y-113680434D01*
X110807895Y-113670237D01*
X110808582Y-113669747D01*
X110819137Y-113659227D01*
X110823002Y-113648771D01*
X110819371Y-113640482D01*
X110816032Y-113635698D01*
X110815140Y-113625557D01*
X110814428Y-113615557D01*
X110809105Y-113604149D01*
X110806980Y-113600372D01*
X110803853Y-113585031D01*
X110805509Y-113566826D01*
X110811119Y-113548782D01*
X110819844Y-113533923D01*
X110830854Y-113525274D01*
X110832407Y-113524658D01*
X110838976Y-113520215D01*
X110837694Y-113514611D01*
X110833170Y-113510825D01*
X110822901Y-113507745D01*
X110819159Y-113507474D01*
X110814263Y-113505196D01*
X110815283Y-113498188D01*
X110816037Y-113492458D01*
X110813551Y-113485863D01*
X110812584Y-113484717D01*
X110813801Y-113478073D01*
X110821134Y-113468743D01*
X110833240Y-113458592D01*
X110845244Y-113453998D01*
X110860517Y-113456801D01*
G37*
G36*
X109901836Y-112351636D02*
G01*
X109921336Y-112359941D01*
X109935284Y-112372500D01*
X109941763Y-112378726D01*
X109954713Y-112387453D01*
X109970462Y-112395764D01*
X109992183Y-112406614D01*
X110032152Y-112431878D01*
X110071264Y-112464180D01*
X110083813Y-112475953D01*
X110092963Y-112485830D01*
X110099605Y-112495767D01*
X110105652Y-112508673D01*
X110113019Y-112527447D01*
X110122159Y-112550459D01*
X110129748Y-112566708D01*
X110137000Y-112578014D01*
X110145184Y-112586362D01*
X110155572Y-112593731D01*
X110162748Y-112598705D01*
X110177194Y-112612780D01*
X110189211Y-112631801D01*
X110200328Y-112657955D01*
X110205737Y-112673032D01*
X110209592Y-112684434D01*
X110211009Y-112689558D01*
X110210989Y-112689693D01*
X110206564Y-112690764D01*
X110196459Y-112689147D01*
X110183567Y-112685495D01*
X110170785Y-112680461D01*
X110166355Y-112678620D01*
X110155509Y-112676546D01*
X110142109Y-112677987D01*
X110123172Y-112683106D01*
X110121266Y-112683704D01*
X110095272Y-112693934D01*
X110078335Y-112705238D01*
X110067976Y-112715326D01*
X110053431Y-112730755D01*
X110043908Y-112743538D01*
X110037953Y-112755789D01*
X110034113Y-112769625D01*
X110030735Y-112779651D01*
X110024232Y-112790654D01*
X110020571Y-112797023D01*
X110020800Y-112804247D01*
X110021254Y-112808925D01*
X110015726Y-112815741D01*
X110010285Y-112820904D01*
X110005499Y-112829965D01*
X110004277Y-112834207D01*
X109999554Y-112841439D01*
X109992743Y-112847122D01*
X109980084Y-112860474D01*
X109970380Y-112874179D01*
X109965906Y-112885271D01*
X109962476Y-112894730D01*
X109953913Y-112904663D01*
X109947323Y-112911441D01*
X109945188Y-112919048D01*
X109944764Y-112923638D01*
X109940561Y-112934745D01*
X109933263Y-112948227D01*
X109928006Y-112957539D01*
X109924460Y-112966725D01*
X109925819Y-112970005D01*
X109929243Y-112971426D01*
X109935299Y-112978530D01*
X109940700Y-112988580D01*
X109943736Y-112998146D01*
X109942691Y-113003803D01*
X109940266Y-113007065D01*
X109937295Y-113016140D01*
X109935779Y-113022380D01*
X109930698Y-113028555D01*
X109920955Y-113027914D01*
X109920174Y-113027741D01*
X109909243Y-113029995D01*
X109893832Y-113039325D01*
X109887001Y-113044140D01*
X109876444Y-113049523D01*
X109865400Y-113050785D01*
X109849578Y-113048853D01*
X109839148Y-113046787D01*
X109826813Y-113043210D01*
X109820621Y-113039825D01*
X109819042Y-113038397D01*
X109810125Y-113034099D01*
X109797070Y-113030069D01*
X109791533Y-113028582D01*
X109780230Y-113023542D01*
X109776525Y-113017158D01*
X109773226Y-113008567D01*
X109765611Y-112998765D01*
X109761366Y-112993866D01*
X109758636Y-112987459D01*
X109758104Y-112978189D01*
X109759677Y-112963964D01*
X109763271Y-112942691D01*
X109768412Y-112918267D01*
X109774963Y-112897814D01*
X109782229Y-112885750D01*
X109787287Y-112879332D01*
X109796735Y-112862584D01*
X109805404Y-112841954D01*
X109811744Y-112820851D01*
X109815535Y-112811595D01*
X109827265Y-112796275D01*
X109844447Y-112781546D01*
X109847423Y-112779118D01*
X109856629Y-112769775D01*
X109867441Y-112757257D01*
X109877854Y-112744057D01*
X109885861Y-112732669D01*
X109889457Y-112725584D01*
X109890178Y-112724084D01*
X109896420Y-112717567D01*
X109906773Y-112709463D01*
X109917445Y-112700943D01*
X109933932Y-112681078D01*
X109945666Y-112655447D01*
X109953463Y-112622529D01*
X109954374Y-112617183D01*
X109958276Y-112597314D01*
X109962355Y-112580276D01*
X109965863Y-112569279D01*
X109968546Y-112559327D01*
X109966987Y-112540491D01*
X109958258Y-112522008D01*
X109943273Y-112506421D01*
X109939117Y-112503507D01*
X109928217Y-112497530D01*
X109920924Y-112495881D01*
X109915240Y-112495436D01*
X109903027Y-112492218D01*
X109887821Y-112486862D01*
X109875357Y-112482319D01*
X109858968Y-112477261D01*
X109846992Y-112474620D01*
X109845856Y-112474459D01*
X109833763Y-112471677D01*
X109816718Y-112466673D01*
X109798030Y-112460411D01*
X109781127Y-112454461D01*
X109764549Y-112449053D01*
X109753791Y-112446357D01*
X109747184Y-112445986D01*
X109743065Y-112447550D01*
X109742548Y-112447988D01*
X109740360Y-112455666D01*
X109741793Y-112468141D01*
X109746200Y-112482300D01*
X109752933Y-112495024D01*
X109753132Y-112495312D01*
X109759866Y-112508004D01*
X109766813Y-112525694D01*
X109773189Y-112545666D01*
X109778207Y-112565204D01*
X109781082Y-112581595D01*
X109781029Y-112592125D01*
X109779685Y-112602847D01*
X109780273Y-112616867D01*
X109780456Y-112620389D01*
X109778385Y-112634413D01*
X109773369Y-112651720D01*
X109766564Y-112669192D01*
X109759135Y-112683709D01*
X109752243Y-112692153D01*
X109747776Y-112696101D01*
X109741963Y-112703308D01*
X109734259Y-112714853D01*
X109723805Y-112732027D01*
X109709742Y-112756119D01*
X109706882Y-112761021D01*
X109701431Y-112769669D01*
X109695504Y-112777431D01*
X109687927Y-112785380D01*
X109677529Y-112794592D01*
X109663137Y-112806144D01*
X109643580Y-112821110D01*
X109617683Y-112840565D01*
X109613794Y-112843485D01*
X109590294Y-112861446D01*
X109569147Y-112878125D01*
X109551651Y-112892463D01*
X109539105Y-112903401D01*
X109532803Y-112909879D01*
X109525131Y-112925512D01*
X109519257Y-112946242D01*
X109516168Y-112967645D01*
X109516782Y-112985389D01*
X109517238Y-112987976D01*
X109517495Y-112995087D01*
X109514830Y-112993888D01*
X109511461Y-112990957D01*
X109504726Y-112990979D01*
X109502353Y-112992041D01*
X109494095Y-112989139D01*
X109484093Y-112977382D01*
X109472500Y-112956992D01*
X109459473Y-112928182D01*
X109454719Y-112916675D01*
X109447839Y-112898969D01*
X109443963Y-112885803D01*
X109442644Y-112874479D01*
X109443432Y-112862301D01*
X109445878Y-112846578D01*
X109446017Y-112845771D01*
X109450143Y-112826780D01*
X109455245Y-112809945D01*
X109460247Y-112798823D01*
X109464014Y-112792291D01*
X109471350Y-112777195D01*
X109478303Y-112760536D01*
X109482594Y-112750008D01*
X109489283Y-112735913D01*
X109494729Y-112726961D01*
X109499332Y-112721037D01*
X109506998Y-112710067D01*
X109508924Y-112707143D01*
X109516080Y-112696693D01*
X109526368Y-112681939D01*
X109538254Y-112665080D01*
X109543492Y-112657545D01*
X109555499Y-112639195D01*
X109565410Y-112622621D01*
X109571479Y-112610683D01*
X109584493Y-112581124D01*
X109597916Y-112555761D01*
X109612858Y-112532898D01*
X109622223Y-112517552D01*
X109631097Y-112495538D01*
X109634805Y-112474755D01*
X109632636Y-112457903D01*
X109630752Y-112450471D01*
X109632193Y-112447341D01*
X109636691Y-112444208D01*
X109642221Y-112435579D01*
X109643798Y-112432468D01*
X109653940Y-112414426D01*
X109665059Y-112397198D01*
X109675439Y-112383302D01*
X109683361Y-112375252D01*
X109687490Y-112372773D01*
X109705826Y-112366368D01*
X109730355Y-112362420D01*
X109758862Y-112361186D01*
X109789135Y-112362926D01*
X109805623Y-112364135D01*
X109825624Y-112362843D01*
X109839085Y-112357497D01*
X109839954Y-112356905D01*
X109858151Y-112349650D01*
X109879777Y-112348050D01*
X109901836Y-112351636D01*
G37*
G36*
X110209131Y-112762171D02*
G01*
X110214135Y-112763659D01*
X110219130Y-112761872D01*
X110219691Y-112761229D01*
X110225304Y-112762144D01*
X110234268Y-112767326D01*
X110243894Y-112774986D01*
X110251483Y-112783340D01*
X110252603Y-112784798D01*
X110260125Y-112792836D01*
X110271350Y-112803580D01*
X110284200Y-112815183D01*
X110296593Y-112825804D01*
X110306450Y-112833595D01*
X110311685Y-112836712D01*
X110311991Y-112836756D01*
X110318616Y-112839666D01*
X110328691Y-112845637D01*
X110330045Y-112846486D01*
X110343124Y-112852592D01*
X110356768Y-112856227D01*
X110367990Y-112856844D01*
X110373803Y-112853897D01*
X110373808Y-112853887D01*
X110379268Y-112851483D01*
X110389534Y-112852268D01*
X110393777Y-112853286D01*
X110411322Y-112859638D01*
X110427127Y-112869857D01*
X110443141Y-112885459D01*
X110461309Y-112907951D01*
X110464730Y-112912455D01*
X110481473Y-112933672D01*
X110499458Y-112955434D01*
X110515335Y-112973671D01*
X110523834Y-112983329D01*
X110541235Y-113006105D01*
X110552984Y-113027181D01*
X110557090Y-113036239D01*
X110564554Y-113052516D01*
X110568849Y-113061716D01*
X110570372Y-113064979D01*
X110570708Y-113065698D01*
X110574567Y-113076461D01*
X110575073Y-113083418D01*
X110575771Y-113089333D01*
X110580657Y-113098639D01*
X110581856Y-113100618D01*
X110586021Y-113115296D01*
X110587239Y-113137155D01*
X110585410Y-113164765D01*
X110584864Y-113171170D01*
X110584662Y-113181057D01*
X110586213Y-113188449D01*
X110590482Y-113202372D01*
X110596388Y-113219349D01*
X110602851Y-113236430D01*
X110608796Y-113250669D01*
X110613149Y-113259112D01*
X110619203Y-113274172D01*
X110620901Y-113297441D01*
X110617578Y-113327440D01*
X110615991Y-113338006D01*
X110615561Y-113353925D01*
X110619045Y-113361638D01*
X110624842Y-113368353D01*
X110632412Y-113382071D01*
X110640019Y-113399736D01*
X110646511Y-113418639D01*
X110650736Y-113436071D01*
X110652132Y-113447043D01*
X110651505Y-113459952D01*
X110647167Y-113472725D01*
X110638237Y-113487690D01*
X110623837Y-113507178D01*
X110611283Y-113524980D01*
X110604438Y-113539238D01*
X110602197Y-113552343D01*
X110602177Y-113553161D01*
X110602538Y-113564583D01*
X110605400Y-113570001D01*
X110612343Y-113572554D01*
X110613822Y-113572915D01*
X110617198Y-113574502D01*
X110616826Y-113577344D01*
X110611748Y-113582489D01*
X110601000Y-113590986D01*
X110583623Y-113603886D01*
X110576120Y-113609415D01*
X110560952Y-113620916D01*
X110551330Y-113629259D01*
X110545768Y-113636115D01*
X110542785Y-113643154D01*
X110540900Y-113652045D01*
X110540058Y-113656025D01*
X110535383Y-113668916D01*
X110529556Y-113676861D01*
X110525325Y-113680886D01*
X110524131Y-113686037D01*
X110524259Y-113687447D01*
X110520230Y-113693942D01*
X110511503Y-113702631D01*
X110509433Y-113704382D01*
X110487038Y-113719777D01*
X110467073Y-113726372D01*
X110449055Y-113724239D01*
X110432501Y-113713440D01*
X110429391Y-113710103D01*
X110424818Y-113701677D01*
X110422346Y-113689158D01*
X110421300Y-113669938D01*
X110421287Y-113669378D01*
X110420069Y-113651473D01*
X110417720Y-113636556D01*
X110414733Y-113627804D01*
X110411751Y-113621826D01*
X110411140Y-113614294D01*
X110411158Y-113611716D01*
X110407597Y-113602652D01*
X110400458Y-113590891D01*
X110395145Y-113582639D01*
X110389951Y-113569411D01*
X110389945Y-113555507D01*
X110390237Y-113553172D01*
X110390836Y-113541497D01*
X110389742Y-113534848D01*
X110389219Y-113532727D01*
X110392942Y-113527196D01*
X110395220Y-113524790D01*
X110395404Y-113518341D01*
X110394318Y-113515645D01*
X110392734Y-113505974D01*
X110391914Y-113493101D01*
X110391906Y-113480151D01*
X110392763Y-113470248D01*
X110394539Y-113466518D01*
X110394794Y-113466165D01*
X110392663Y-113460446D01*
X110386925Y-113449164D01*
X110378489Y-113434146D01*
X110372965Y-113424756D01*
X110364845Y-113411901D01*
X110358750Y-113404615D01*
X110353050Y-113401175D01*
X110346113Y-113399851D01*
X110332929Y-113398481D01*
X110342136Y-113382210D01*
X110344027Y-113378715D01*
X110348457Y-113368468D01*
X110349160Y-113362820D01*
X110349779Y-113359451D01*
X110355812Y-113353513D01*
X110360095Y-113349008D01*
X110362181Y-113339635D01*
X110360434Y-113324116D01*
X110356218Y-113300909D01*
X110339091Y-113304650D01*
X110336853Y-113305088D01*
X110323920Y-113305795D01*
X110314952Y-113303496D01*
X110313443Y-113302596D01*
X110302920Y-113298672D01*
X110289096Y-113295528D01*
X110283108Y-113294386D01*
X110273602Y-113290702D01*
X110271505Y-113285307D01*
X110271526Y-113283488D01*
X110268406Y-113273968D01*
X110261670Y-113262315D01*
X110254677Y-113253429D01*
X110247146Y-113248622D01*
X110237712Y-113248853D01*
X110227521Y-113251780D01*
X110216068Y-113257387D01*
X110210150Y-113259800D01*
X110199645Y-113258567D01*
X110184012Y-113251961D01*
X110182371Y-113251140D01*
X110166589Y-113242386D01*
X110157216Y-113234090D01*
X110152107Y-113223565D01*
X110151063Y-113218158D01*
X110357483Y-113218158D01*
X110361122Y-113222378D01*
X110362692Y-113222171D01*
X110361887Y-113218040D01*
X110360192Y-113216207D01*
X110357549Y-113217274D01*
X110357483Y-113218158D01*
X110151063Y-113218158D01*
X110149125Y-113208121D01*
X110148656Y-113203924D01*
X110148798Y-113195533D01*
X110374167Y-113195533D01*
X110376077Y-113205253D01*
X110377771Y-113206919D01*
X110383747Y-113212795D01*
X110394867Y-113220622D01*
X110408167Y-113228423D01*
X110401046Y-113217590D01*
X110397080Y-113210964D01*
X110397918Y-113207269D01*
X110406562Y-113206366D01*
X110415063Y-113204689D01*
X110424881Y-113196752D01*
X110428306Y-113184420D01*
X110424198Y-113170041D01*
X110421152Y-113165133D01*
X110414057Y-113159178D01*
X110403822Y-113159276D01*
X110396622Y-113162098D01*
X110386163Y-113171098D01*
X110378104Y-113183196D01*
X110374167Y-113195533D01*
X110148798Y-113195533D01*
X110148876Y-113190885D01*
X110151960Y-113176134D01*
X110158436Y-113158120D01*
X110168829Y-113135291D01*
X110183662Y-113106094D01*
X110188036Y-113097658D01*
X110198087Y-113076939D01*
X110204864Y-113059701D01*
X110209561Y-113042583D01*
X110213368Y-113022227D01*
X110214711Y-113015051D01*
X110217692Y-113000678D01*
X110221381Y-112983839D01*
X110222329Y-112979623D01*
X110228512Y-112951915D01*
X110232792Y-112931865D01*
X110235317Y-112918177D01*
X110236235Y-112909563D01*
X110235694Y-112904734D01*
X110233840Y-112902394D01*
X110230823Y-112901252D01*
X110230637Y-112901200D01*
X110225777Y-112898402D01*
X110229772Y-112893880D01*
X110232961Y-112890888D01*
X110239212Y-112879108D01*
X110241358Y-112865409D01*
X110238413Y-112854300D01*
X110235830Y-112848987D01*
X110236639Y-112843620D01*
X110237224Y-112842628D01*
X110235610Y-112835809D01*
X110229746Y-112825626D01*
X110227244Y-112822262D01*
X110219970Y-112814712D01*
X110215195Y-112812994D01*
X110213911Y-112813601D01*
X110208402Y-112811440D01*
X110208341Y-112811356D01*
X110201833Y-112808174D01*
X110190595Y-112806377D01*
X110187035Y-112806116D01*
X110175794Y-112803504D01*
X110173544Y-112798682D01*
X110180352Y-112791750D01*
X110187415Y-112788432D01*
X110192994Y-112789434D01*
X110193763Y-112789966D01*
X110196308Y-112786170D01*
X110198512Y-112776024D01*
X110198611Y-112775298D01*
X110200683Y-112764359D01*
X110203680Y-112760649D01*
X110209131Y-112762171D01*
G37*
G36*
X109960721Y-114051475D02*
G01*
X109971530Y-114057074D01*
X109981569Y-114063358D01*
X109987541Y-114068552D01*
X109987780Y-114068864D01*
X109994031Y-114074155D01*
X110004259Y-114080899D01*
X110009232Y-114084320D01*
X110021785Y-114095220D01*
X110033864Y-114108081D01*
X110044982Y-114119583D01*
X110059715Y-114129533D01*
X110080131Y-114138442D01*
X110096252Y-114144841D01*
X110111885Y-114151728D01*
X110122230Y-114157068D01*
X110131828Y-114160630D01*
X110147808Y-114163614D01*
X110166063Y-114165065D01*
X110166261Y-114165071D01*
X110182967Y-114166262D01*
X110195895Y-114168573D01*
X110202260Y-114171507D01*
X110204440Y-114173750D01*
X110210003Y-114174463D01*
X110215197Y-114173793D01*
X110227201Y-114174550D01*
X110242952Y-114176723D01*
X110258735Y-114179719D01*
X110268069Y-114182938D01*
X110272870Y-114187664D01*
X110275534Y-114195260D01*
X110277774Y-114209774D01*
X110276055Y-114225575D01*
X110269393Y-114235570D01*
X110266000Y-114238736D01*
X110262874Y-114245923D01*
X110260156Y-114258527D01*
X110250359Y-114274731D01*
X110234707Y-114291862D01*
X110214509Y-114308232D01*
X110201049Y-114317272D01*
X110185968Y-114325457D01*
X110170502Y-114330649D01*
X110150348Y-114334617D01*
X110131304Y-114336948D01*
X110113017Y-114336148D01*
X110099698Y-114330660D01*
X110089355Y-114320004D01*
X110084246Y-114314356D01*
X110071466Y-114308449D01*
X110057224Y-114309911D01*
X110043169Y-114317982D01*
X110030949Y-114331904D01*
X110022220Y-114350916D01*
X110021868Y-114352051D01*
X110017574Y-114362995D01*
X110013621Y-114369022D01*
X110010970Y-114372252D01*
X110007287Y-114381285D01*
X110005804Y-114385447D01*
X109999448Y-114397277D01*
X109990255Y-114411145D01*
X109980093Y-114424512D01*
X109970832Y-114434841D01*
X109964341Y-114439594D01*
X109958964Y-114442794D01*
X109950199Y-114452660D01*
X109942032Y-114465941D01*
X109936649Y-114479485D01*
X109932854Y-114486670D01*
X109921706Y-114499441D01*
X109904503Y-114515053D01*
X109886487Y-114530185D01*
X109866784Y-114546806D01*
X109849949Y-114561076D01*
X109848086Y-114562652D01*
X109832468Y-114574822D01*
X109820309Y-114581671D01*
X109809063Y-114584670D01*
X109799263Y-114587340D01*
X109781812Y-114596045D01*
X109758796Y-114611026D01*
X109752794Y-114615179D01*
X109735408Y-114626720D01*
X109720071Y-114636247D01*
X109709542Y-114642025D01*
X109700865Y-114647293D01*
X109691550Y-114657489D01*
X109681776Y-114674118D01*
X109680442Y-114676658D01*
X109670897Y-114692334D01*
X109660160Y-114703666D01*
X109644557Y-114714665D01*
X109628182Y-114725087D01*
X109608248Y-114737887D01*
X109589130Y-114750256D01*
X109585999Y-114752255D01*
X109564924Y-114763748D01*
X109546646Y-114770405D01*
X109532613Y-114771832D01*
X109524286Y-114767645D01*
X109522229Y-114767278D01*
X109514496Y-114771523D01*
X109502742Y-114781143D01*
X109494172Y-114788426D01*
X109480565Y-114796924D01*
X109466591Y-114800808D01*
X109461783Y-114801700D01*
X109445139Y-114806350D01*
X109428469Y-114812697D01*
X109410552Y-114819720D01*
X109378606Y-114826491D01*
X109346224Y-114825389D01*
X109338203Y-114824219D01*
X109321177Y-114821756D01*
X109308143Y-114819890D01*
X109306160Y-114819663D01*
X109291259Y-114819564D01*
X109275178Y-114821312D01*
X109270763Y-114821964D01*
X109259130Y-114822237D01*
X109252888Y-114820128D01*
X109252117Y-114819429D01*
X109244136Y-114818020D01*
X109230904Y-114819060D01*
X109215382Y-114822167D01*
X109200528Y-114826954D01*
X109199954Y-114827172D01*
X109187625Y-114828392D01*
X109173857Y-114825530D01*
X109160491Y-114822835D01*
X109150307Y-114825204D01*
X109141151Y-114828859D01*
X109128166Y-114830251D01*
X109116721Y-114830365D01*
X109106680Y-114831645D01*
X109104667Y-114831768D01*
X109094732Y-114829277D01*
X109080981Y-114823698D01*
X109066423Y-114816483D01*
X109054068Y-114809071D01*
X109046925Y-114802916D01*
X109044451Y-114800857D01*
X109037323Y-114801606D01*
X109032637Y-114802977D01*
X109020537Y-114803501D01*
X109005030Y-114802337D01*
X108993908Y-114801201D01*
X108979319Y-114800563D01*
X108970168Y-114801253D01*
X108965080Y-114801556D01*
X108957667Y-114797657D01*
X108955133Y-114795300D01*
X108948615Y-114795258D01*
X108946159Y-114796248D01*
X108935166Y-114796460D01*
X108919670Y-114793950D01*
X108902588Y-114789437D01*
X108886835Y-114783635D01*
X108875328Y-114777260D01*
X108866426Y-114769182D01*
X108857832Y-114756904D01*
X108855118Y-114745840D01*
X108859153Y-114738091D01*
X108859364Y-114737944D01*
X108874586Y-114730697D01*
X108888159Y-114730211D01*
X108897781Y-114736576D01*
X108903353Y-114742146D01*
X108910475Y-114742091D01*
X108912544Y-114740977D01*
X108922934Y-114737569D01*
X108936868Y-114734621D01*
X108940690Y-114733944D01*
X108957495Y-114729955D01*
X108971430Y-114725301D01*
X108984858Y-114721717D01*
X108999677Y-114721178D01*
X109005698Y-114722420D01*
X109013364Y-114726458D01*
X109021474Y-114734787D01*
X109032192Y-114749283D01*
X109034853Y-114753069D01*
X109043946Y-114765328D01*
X109050335Y-114771631D01*
X109056016Y-114773479D01*
X109062989Y-114772365D01*
X109072779Y-114768936D01*
X109085434Y-114762214D01*
X109088422Y-114760533D01*
X109102132Y-114758273D01*
X109122693Y-114760955D01*
X109137204Y-114763317D01*
X109155404Y-114762808D01*
X109174640Y-114757170D01*
X109185637Y-114753529D01*
X109207233Y-114750209D01*
X109233036Y-114751353D01*
X109234082Y-114751466D01*
X109251702Y-114752498D01*
X109266166Y-114751862D01*
X109274438Y-114749680D01*
X109279707Y-114747892D01*
X109292559Y-114747144D01*
X109308355Y-114748654D01*
X109313801Y-114749477D01*
X109330068Y-114750268D01*
X109345926Y-114747462D01*
X109365590Y-114740457D01*
X109382637Y-114733812D01*
X109397960Y-114728295D01*
X109408007Y-114725198D01*
X109413587Y-114722926D01*
X109427091Y-114713009D01*
X109445167Y-114695403D01*
X109447346Y-114693131D01*
X109461211Y-114679505D01*
X109473803Y-114668372D01*
X109482628Y-114661959D01*
X109483966Y-114661245D01*
X109491587Y-114658572D01*
X109497545Y-114661369D01*
X109505055Y-114670927D01*
X109515777Y-114686238D01*
X109555226Y-114657024D01*
X109566948Y-114648076D01*
X109582484Y-114635318D01*
X109594175Y-114624615D01*
X109600123Y-114617630D01*
X109605486Y-114610920D01*
X109615548Y-114604712D01*
X109632418Y-114598036D01*
X109644723Y-114593460D01*
X109664842Y-114584010D01*
X109675949Y-114575161D01*
X109678242Y-114566776D01*
X109680042Y-114559502D01*
X109688359Y-114550926D01*
X109698186Y-114540049D01*
X109705005Y-114525634D01*
X109707070Y-114517057D01*
X109706758Y-114509223D01*
X109702250Y-114501212D01*
X109692398Y-114489753D01*
X109684109Y-114479654D01*
X109677244Y-114465891D01*
X109678164Y-114453469D01*
X109686639Y-114440404D01*
X109697265Y-114432427D01*
X109712766Y-114425578D01*
X109729893Y-114420790D01*
X109745424Y-114418958D01*
X109756136Y-114420985D01*
X109758636Y-114422320D01*
X109774154Y-114425082D01*
X109791637Y-114419203D01*
X109811529Y-114404553D01*
X109819111Y-114397335D01*
X109830304Y-114385155D01*
X109837338Y-114375501D01*
X109841596Y-114369320D01*
X109851832Y-114357593D01*
X109864355Y-114345359D01*
X109867261Y-114342731D01*
X109882643Y-114327697D01*
X109892497Y-114314820D01*
X109898615Y-114301236D01*
X109902793Y-114284083D01*
X109904609Y-114276023D01*
X109908620Y-114263711D01*
X109912510Y-114257257D01*
X109914170Y-114255774D01*
X109920600Y-114245523D01*
X109926999Y-114229568D01*
X109932204Y-114210662D01*
X109932422Y-114209672D01*
X109935304Y-114199113D01*
X109937739Y-114193824D01*
X109938532Y-114191573D01*
X109939425Y-114182154D01*
X109939610Y-114168267D01*
X109939756Y-114160964D01*
X109941828Y-114143011D01*
X109945597Y-114128541D01*
X109945807Y-114128008D01*
X109948734Y-114112355D01*
X109947267Y-114096908D01*
X109947040Y-114096119D01*
X109944955Y-114082722D01*
X109944914Y-114067933D01*
X109946704Y-114055296D01*
X109950120Y-114048355D01*
X109952446Y-114048348D01*
X109960721Y-114051475D01*
G37*
G36*
X109326316Y-113208525D02*
G01*
X109345875Y-113215676D01*
X109366981Y-113226714D01*
X109388482Y-113241502D01*
X109393368Y-113245351D01*
X109407773Y-113257142D01*
X109418899Y-113266899D01*
X109424658Y-113272818D01*
X109431282Y-113280165D01*
X109441208Y-113288931D01*
X109445203Y-113292173D01*
X109458098Y-113303429D01*
X109475634Y-113319670D01*
X109498747Y-113341755D01*
X109500963Y-113343797D01*
X109510041Y-113349318D01*
X109515404Y-113347293D01*
X109517044Y-113338593D01*
X109514948Y-113324080D01*
X109509104Y-113304628D01*
X109499504Y-113281103D01*
X109493211Y-113265649D01*
X109490436Y-113252894D01*
X109492246Y-113243968D01*
X109495340Y-113236882D01*
X109497209Y-113229220D01*
X109497411Y-113228402D01*
X109503061Y-113224665D01*
X109514079Y-113221850D01*
X109521098Y-113220594D01*
X109528859Y-113217477D01*
X109530693Y-113212395D01*
X109532084Y-113208456D01*
X109538183Y-113211505D01*
X109544389Y-113214310D01*
X109555566Y-113214011D01*
X109561949Y-113213005D01*
X109566891Y-113217820D01*
X109566951Y-113218043D01*
X109573177Y-113223073D01*
X109587529Y-113224073D01*
X109603113Y-113225453D01*
X109620177Y-113234576D01*
X109622429Y-113236313D01*
X109637445Y-113244330D01*
X109653839Y-113249121D01*
X109656715Y-113249624D01*
X109674769Y-113254891D01*
X109691405Y-113262481D01*
X109714591Y-113276803D01*
X109742752Y-113295996D01*
X109770028Y-113316352D01*
X109795426Y-113336977D01*
X109817950Y-113356984D01*
X109836606Y-113375479D01*
X109850397Y-113391572D01*
X109858332Y-113404372D01*
X109859411Y-113412987D01*
X109859457Y-113415805D01*
X109863205Y-113425031D01*
X109870483Y-113436948D01*
X109876914Y-113446884D01*
X109880166Y-113455271D01*
X109877984Y-113459884D01*
X109874638Y-113461410D01*
X109869173Y-113459370D01*
X109869144Y-113452179D01*
X109869165Y-113452129D01*
X109867196Y-113446050D01*
X109859426Y-113438210D01*
X109848596Y-113430550D01*
X109837447Y-113425013D01*
X109828719Y-113423538D01*
X109820135Y-113422752D01*
X109805560Y-113416857D01*
X109789160Y-113406816D01*
X109773558Y-113394033D01*
X109766656Y-113389348D01*
X109749578Y-113382781D01*
X109726230Y-113377492D01*
X109723011Y-113376918D01*
X109690092Y-113367906D01*
X109660616Y-113353092D01*
X109648591Y-113346152D01*
X109627113Y-113336947D01*
X109609485Y-113333832D01*
X109597013Y-113337132D01*
X109596245Y-113337564D01*
X109587209Y-113338511D01*
X109574488Y-113336655D01*
X109562299Y-113332898D01*
X109554858Y-113328140D01*
X109553318Y-113326607D01*
X109547558Y-113326121D01*
X109546922Y-113327257D01*
X109549077Y-113334431D01*
X109556196Y-113346254D01*
X109567172Y-113361178D01*
X109577521Y-113373602D01*
X109580891Y-113377648D01*
X109594978Y-113392758D01*
X109596245Y-113394115D01*
X109604590Y-113402772D01*
X109615198Y-113415583D01*
X109622562Y-113428444D01*
X109629185Y-113445237D01*
X109634118Y-113458344D01*
X109640269Y-113472733D01*
X109645012Y-113481724D01*
X109649022Y-113488686D01*
X109650248Y-113500241D01*
X109642982Y-113512220D01*
X109638841Y-113515786D01*
X109626521Y-113520136D01*
X109613565Y-113519153D01*
X109604090Y-113512780D01*
X109603315Y-113511839D01*
X109593891Y-113507844D01*
X109579309Y-113508257D01*
X109562254Y-113513060D01*
X109558841Y-113514759D01*
X109549492Y-113524010D01*
X109545312Y-113535747D01*
X109547812Y-113546476D01*
X109548945Y-113548803D01*
X109547589Y-113554306D01*
X109546628Y-113554845D01*
X109541504Y-113553764D01*
X109539393Y-113552969D01*
X109530660Y-113554037D01*
X109518312Y-113557558D01*
X109505490Y-113562561D01*
X109495342Y-113568068D01*
X109490447Y-113574703D01*
X109492118Y-113586018D01*
X109495180Y-113596133D01*
X109496571Y-113607144D01*
X109496596Y-113609184D01*
X109498306Y-113620743D01*
X109501844Y-113634831D01*
X109505547Y-113648568D01*
X109507667Y-113665527D01*
X109504865Y-113678259D01*
X109496919Y-113689180D01*
X109494471Y-113691801D01*
X109488317Y-113702119D01*
X109489363Y-113712356D01*
X109491518Y-113717057D01*
X109499915Y-113725176D01*
X109511140Y-113724440D01*
X109525043Y-113714836D01*
X109530323Y-113710535D01*
X109547637Y-113699999D01*
X109568672Y-113690646D01*
X109573600Y-113688725D01*
X109595520Y-113678766D01*
X109620324Y-113665788D01*
X109645721Y-113651156D01*
X109669429Y-113636225D01*
X109689161Y-113622360D01*
X109702632Y-113610919D01*
X109705794Y-113607829D01*
X109718086Y-113598156D01*
X109734354Y-113588982D01*
X109744587Y-113584419D01*
X109757122Y-113578828D01*
X109758171Y-113578390D01*
X109780271Y-113568070D01*
X109803312Y-113555551D01*
X109825736Y-113541885D01*
X109845989Y-113528128D01*
X109862518Y-113515331D01*
X109873767Y-113504547D01*
X109878182Y-113496831D01*
X109880475Y-113490074D01*
X109888028Y-113481378D01*
X109891552Y-113479143D01*
X109895815Y-113478421D01*
X109900636Y-113481691D01*
X109907587Y-113490191D01*
X109918247Y-113505160D01*
X109920831Y-113508886D01*
X109931367Y-113525376D01*
X109936509Y-113536629D01*
X109936958Y-113544106D01*
X109936314Y-113549604D01*
X109938688Y-113558800D01*
X109939041Y-113559693D01*
X109939293Y-113568314D01*
X109937934Y-113583743D01*
X109935166Y-113604108D01*
X109931196Y-113627540D01*
X109927447Y-113648388D01*
X109920819Y-113690157D01*
X109916847Y-113724301D01*
X109915444Y-113751720D01*
X109916516Y-113773317D01*
X109919098Y-113800374D01*
X109919990Y-113828422D01*
X109918478Y-113850157D01*
X109914593Y-113864209D01*
X109911764Y-113870906D01*
X109906927Y-113890389D01*
X109904177Y-113913457D01*
X109903865Y-113936252D01*
X109906344Y-113954920D01*
X109906351Y-113960324D01*
X109901174Y-113968523D01*
X109899973Y-113969321D01*
X109895220Y-113971097D01*
X109889505Y-113969933D01*
X109881340Y-113964987D01*
X109869250Y-113955417D01*
X109851748Y-113940375D01*
X109841760Y-113931965D01*
X109827527Y-113922085D01*
X109813540Y-113916423D01*
X109796613Y-113913876D01*
X109773568Y-113913344D01*
X109768703Y-113912853D01*
X109754434Y-113909497D01*
X109735827Y-113903659D01*
X109715649Y-113896157D01*
X109701294Y-113890588D01*
X109685070Y-113885111D01*
X109668817Y-113880896D01*
X109650671Y-113877624D01*
X109628770Y-113874970D01*
X109601255Y-113872610D01*
X109566261Y-113870221D01*
X109553637Y-113869343D01*
X109522736Y-113866271D01*
X109499623Y-113862248D01*
X109483153Y-113857031D01*
X109472186Y-113850377D01*
X109464781Y-113845344D01*
X109451952Y-113840056D01*
X109442308Y-113837245D01*
X109427506Y-113831995D01*
X109411144Y-113825585D01*
X109395811Y-113819081D01*
X109384111Y-113813542D01*
X109378636Y-113810034D01*
X109376823Y-113808852D01*
X109367751Y-113806439D01*
X109354300Y-113804711D01*
X109340082Y-113802562D01*
X109328923Y-113796984D01*
X109317726Y-113785692D01*
X109313358Y-113780769D01*
X109309065Y-113776449D01*
X109418402Y-113776449D01*
X109420716Y-113787150D01*
X109421532Y-113788596D01*
X109428780Y-113795853D01*
X109439813Y-113796090D01*
X109449301Y-113795322D01*
X109455018Y-113796902D01*
X109458870Y-113797351D01*
X109466839Y-113793413D01*
X109468823Y-113791944D01*
X109473232Y-113785407D01*
X109469590Y-113776974D01*
X109467393Y-113774192D01*
X109456666Y-113766323D01*
X109444258Y-113763059D01*
X109432316Y-113763955D01*
X109422982Y-113768569D01*
X109418402Y-113776449D01*
X109309065Y-113776449D01*
X109301925Y-113769265D01*
X109292489Y-113761454D01*
X109282640Y-113757351D01*
X109264921Y-113755513D01*
X109246262Y-113757966D01*
X109230829Y-113764503D01*
X109221820Y-113768698D01*
X109208684Y-113771392D01*
X109196611Y-113771242D01*
X109189409Y-113767929D01*
X109189314Y-113767813D01*
X109183435Y-113765752D01*
X109172524Y-113764429D01*
X109166773Y-113763922D01*
X109161286Y-113762209D01*
X109155827Y-113758016D01*
X109149096Y-113750014D01*
X109139804Y-113736871D01*
X109126657Y-113717257D01*
X109116168Y-113701077D01*
X109106211Y-113684464D01*
X109100553Y-113673229D01*
X109099794Y-113668464D01*
X109103963Y-113669424D01*
X109109801Y-113676241D01*
X109110117Y-113676770D01*
X109115497Y-113682842D01*
X109119888Y-113680458D01*
X109122860Y-113677889D01*
X109128300Y-113680656D01*
X109130998Y-113682938D01*
X109134240Y-113679945D01*
X109136104Y-113670622D01*
X109136310Y-113656777D01*
X109134577Y-113640212D01*
X109133671Y-113632668D01*
X109133750Y-113620597D01*
X109136018Y-113614283D01*
X109137230Y-113610235D01*
X109134301Y-113598436D01*
X109126312Y-113579718D01*
X109124307Y-113575440D01*
X109116945Y-113557234D01*
X109113966Y-113543058D01*
X109114644Y-113529814D01*
X109115140Y-113526413D01*
X109116056Y-113512406D01*
X109115069Y-113502416D01*
X109116312Y-113493260D01*
X109124646Y-113485380D01*
X109137872Y-113480248D01*
X109153739Y-113479214D01*
X109156783Y-113479432D01*
X109169154Y-113479253D01*
X109176616Y-113477458D01*
X109183278Y-113476838D01*
X109193533Y-113480227D01*
X109195184Y-113481088D01*
X109203628Y-113487727D01*
X109206205Y-113496949D01*
X109206256Y-113497777D01*
X109209091Y-113509314D01*
X109214019Y-113513541D01*
X109218832Y-113510178D01*
X109221318Y-113498930D01*
X109221556Y-113494297D01*
X109222806Y-113491025D01*
X109226526Y-113495283D01*
X109227289Y-113496232D01*
X109230931Y-113498111D01*
X109236893Y-113496513D01*
X109246887Y-113490714D01*
X109262621Y-113479993D01*
X109269205Y-113475313D01*
X109271462Y-113473553D01*
X109469951Y-113473553D01*
X109475792Y-113476212D01*
X109480944Y-113477383D01*
X109486023Y-113477605D01*
X109486238Y-113476509D01*
X109483448Y-113470851D01*
X109480592Y-113468564D01*
X109473217Y-113469458D01*
X109472622Y-113469881D01*
X109469951Y-113473553D01*
X109271462Y-113473553D01*
X109284127Y-113463679D01*
X109289732Y-113457836D01*
X109457220Y-113457836D01*
X109459079Y-113459040D01*
X109466613Y-113459028D01*
X109470586Y-113456516D01*
X109468706Y-113449795D01*
X109464493Y-113445915D01*
X109459313Y-113448604D01*
X109457586Y-113451895D01*
X109457220Y-113457836D01*
X109289732Y-113457836D01*
X109292731Y-113454709D01*
X109296425Y-113447030D01*
X109297428Y-113443245D01*
X109300559Y-113438600D01*
X109307430Y-113437303D01*
X109320792Y-113438375D01*
X109330548Y-113438631D01*
X109350097Y-113436480D01*
X109369013Y-113431804D01*
X109379979Y-113428521D01*
X109399684Y-113424203D01*
X109416375Y-113422280D01*
X109421281Y-113421991D01*
X109434473Y-113419410D01*
X109441869Y-113415042D01*
X109442347Y-113414386D01*
X109448600Y-113411913D01*
X109458762Y-113416811D01*
X109459415Y-113417254D01*
X109468462Y-113422408D01*
X109473527Y-113423597D01*
X109473897Y-113423013D01*
X109471385Y-113417794D01*
X109464094Y-113409513D01*
X109454177Y-113400224D01*
X109443781Y-113391983D01*
X109435059Y-113386843D01*
X109428075Y-113382640D01*
X109416190Y-113372642D01*
X109403988Y-113359985D01*
X109392338Y-113347099D01*
X109375809Y-113329843D01*
X109359736Y-113313949D01*
X109336819Y-113291060D01*
X109315580Y-113267459D01*
X109299445Y-113246688D01*
X109289592Y-113230151D01*
X109286853Y-113221430D01*
X109288581Y-113211710D01*
X109296510Y-113206407D01*
X109309476Y-113205389D01*
X109326316Y-113208525D01*
G37*
G36*
X108648387Y-110981356D02*
G01*
X108650640Y-110981715D01*
X108659816Y-110985485D01*
X108667341Y-110993634D01*
X108673836Y-111007394D01*
X108679920Y-111027999D01*
X108686210Y-111056682D01*
X108690251Y-111071431D01*
X108696101Y-111086840D01*
X108699234Y-111097324D01*
X108701829Y-111114680D01*
X108702719Y-111133552D01*
X108702927Y-111148639D01*
X108704175Y-111172699D01*
X108706209Y-111193866D01*
X108707887Y-111209355D01*
X108709680Y-111233175D01*
X108710634Y-111255554D01*
X108711120Y-111273267D01*
X108711850Y-111290673D01*
X108712635Y-111302647D01*
X108713378Y-111313490D01*
X108713293Y-111320126D01*
X108713271Y-111320279D01*
X108713186Y-111326514D01*
X108713307Y-111339793D01*
X108713596Y-111358019D01*
X108714006Y-111379096D01*
X108714492Y-111400930D01*
X108715014Y-111421425D01*
X108715527Y-111438488D01*
X108715987Y-111450022D01*
X108716003Y-111450357D01*
X108716260Y-111458930D01*
X108716606Y-111474558D01*
X108717002Y-111495131D01*
X108717401Y-111518538D01*
X108717430Y-111520303D01*
X108718071Y-111543768D01*
X108719065Y-111564414D01*
X108720278Y-111580066D01*
X108721582Y-111588547D01*
X108723018Y-111598041D01*
X108723748Y-111613630D01*
X108723570Y-111631750D01*
X108723393Y-111649106D01*
X108724174Y-111670567D01*
X108725841Y-111687881D01*
X108726020Y-111689150D01*
X108726882Y-111705958D01*
X108725778Y-111724670D01*
X108723114Y-111742473D01*
X108719301Y-111756557D01*
X108714746Y-111764111D01*
X108711870Y-111767656D01*
X108706995Y-111779883D01*
X108702387Y-111798083D01*
X108698314Y-111820130D01*
X108695051Y-111843904D01*
X108692870Y-111867278D01*
X108692044Y-111888130D01*
X108692844Y-111904335D01*
X108695543Y-111913767D01*
X108696180Y-111918957D01*
X108692813Y-111928203D01*
X108691776Y-111930300D01*
X108688554Y-111942810D01*
X108687567Y-111957790D01*
X108687598Y-111959061D01*
X108685935Y-111973497D01*
X108680676Y-111980539D01*
X108676359Y-111981345D01*
X108670832Y-111978088D01*
X108669553Y-111976113D01*
X108666365Y-111977460D01*
X108666322Y-111977552D01*
X108660905Y-111979413D01*
X108651093Y-111977163D01*
X108639398Y-111974015D01*
X108625956Y-111973187D01*
X108625587Y-111973227D01*
X108612210Y-111974589D01*
X108596989Y-111976074D01*
X108595544Y-111976233D01*
X108582917Y-111979537D01*
X108567840Y-111987109D01*
X108548130Y-112000016D01*
X108544149Y-112002829D01*
X108528627Y-112014263D01*
X108516005Y-112024259D01*
X108508706Y-112030919D01*
X108504589Y-112034449D01*
X108494309Y-112037432D01*
X108477922Y-112036673D01*
X108467846Y-112035110D01*
X108456611Y-112031330D01*
X108446311Y-112024030D01*
X108433594Y-112011292D01*
X108425501Y-112003012D01*
X108408655Y-111988754D01*
X108395237Y-111981978D01*
X108385815Y-111983022D01*
X108385334Y-111983386D01*
X108380525Y-111992312D01*
X108378936Y-112006028D01*
X108380594Y-112020811D01*
X108385517Y-112032950D01*
X108390377Y-112042957D01*
X108389225Y-112054801D01*
X108387416Y-112061942D01*
X108389706Y-112071781D01*
X108391955Y-112076653D01*
X108390718Y-112082281D01*
X108390052Y-112085450D01*
X108394363Y-112092547D01*
X108402551Y-112100893D01*
X108412364Y-112108277D01*
X108421547Y-112112491D01*
X108423533Y-112113185D01*
X108430378Y-112118076D01*
X108432911Y-112119886D01*
X108442252Y-112130530D01*
X108446745Y-112136541D01*
X108460565Y-112150169D01*
X108473554Y-112155966D01*
X108484711Y-112153391D01*
X108488018Y-112151364D01*
X108489445Y-112150982D01*
X108505774Y-112146613D01*
X108526991Y-112148590D01*
X108549341Y-112157160D01*
X108558409Y-112162221D01*
X108569531Y-112169169D01*
X108575170Y-112173729D01*
X108576245Y-112174974D01*
X108582327Y-112177275D01*
X108583277Y-112177322D01*
X108590744Y-112180566D01*
X108602676Y-112187457D01*
X108616710Y-112196439D01*
X108630485Y-112205957D01*
X108641639Y-112214458D01*
X108647811Y-112220387D01*
X108648359Y-112221031D01*
X108656015Y-112226296D01*
X108669487Y-112233220D01*
X108686246Y-112240481D01*
X108693477Y-112243510D01*
X108716547Y-112254958D01*
X108738121Y-112268055D01*
X108755758Y-112281222D01*
X108767017Y-112292870D01*
X108772308Y-112296627D01*
X108783295Y-112295708D01*
X108788392Y-112294851D01*
X108802022Y-112297681D01*
X108817954Y-112305335D01*
X108833722Y-112316240D01*
X108846854Y-112328812D01*
X108854885Y-112341476D01*
X108858851Y-112348812D01*
X108863600Y-112350211D01*
X108867711Y-112348282D01*
X108870175Y-112350608D01*
X108868295Y-112357202D01*
X108862269Y-112365760D01*
X108856449Y-112372534D01*
X108855754Y-112375617D01*
X108861529Y-112374888D01*
X108866681Y-112374281D01*
X108866428Y-112376355D01*
X108860262Y-112385607D01*
X108860587Y-112396238D01*
X108867428Y-112404072D01*
X108873338Y-112407927D01*
X108882628Y-112417242D01*
X108884838Y-112419709D01*
X108894340Y-112427228D01*
X108907674Y-112435947D01*
X108922002Y-112444182D01*
X108934476Y-112450251D01*
X108942253Y-112452477D01*
X108945308Y-112454045D01*
X108952685Y-112461468D01*
X108961589Y-112472977D01*
X108963364Y-112475459D01*
X108974343Y-112488220D01*
X108987910Y-112498763D01*
X109007219Y-112509625D01*
X109022180Y-112517832D01*
X109035448Y-112527187D01*
X109046484Y-112538431D01*
X109056657Y-112553285D01*
X109067342Y-112573467D01*
X109079902Y-112600695D01*
X109085663Y-112613350D01*
X109093421Y-112629480D01*
X109099401Y-112640814D01*
X109102643Y-112645457D01*
X109104129Y-112647424D01*
X109103924Y-112654889D01*
X109101370Y-112659783D01*
X109096044Y-112660769D01*
X109086382Y-112657089D01*
X109070710Y-112648417D01*
X109063758Y-112643583D01*
X109051691Y-112632302D01*
X109036750Y-112615214D01*
X109017938Y-112591232D01*
X109013744Y-112585749D01*
X108991158Y-112557717D01*
X108969966Y-112533837D01*
X108951084Y-112515040D01*
X108935431Y-112502252D01*
X108923921Y-112496393D01*
X108917285Y-112494488D01*
X108912015Y-112491804D01*
X108911366Y-112491223D01*
X108904693Y-112486811D01*
X108892543Y-112479422D01*
X108876932Y-112470294D01*
X108861969Y-112461322D01*
X108848171Y-112451405D01*
X108837985Y-112441099D01*
X108828663Y-112427993D01*
X108822290Y-112418834D01*
X108807842Y-112400895D01*
X108793128Y-112385292D01*
X108784395Y-112376846D01*
X108769755Y-112362070D01*
X108757913Y-112349430D01*
X108749778Y-112341152D01*
X108740607Y-112335692D01*
X108730917Y-112335577D01*
X108728881Y-112335835D01*
X108715481Y-112334621D01*
X108701056Y-112330041D01*
X108689279Y-112325756D01*
X108662994Y-112322282D01*
X108636916Y-112325965D01*
X108614212Y-112336563D01*
X108599894Y-112348498D01*
X108589148Y-112364487D01*
X108587636Y-112380916D01*
X108595298Y-112397990D01*
X108596307Y-112399395D01*
X108606689Y-112410611D01*
X108615929Y-112415233D01*
X108621250Y-112416184D01*
X108627375Y-112419356D01*
X108630648Y-112422058D01*
X108640259Y-112428281D01*
X108653510Y-112436014D01*
X108661588Y-112441034D01*
X108676407Y-112452338D01*
X108690493Y-112465252D01*
X108702140Y-112478004D01*
X108709637Y-112488823D01*
X108711274Y-112495932D01*
X108711462Y-112499992D01*
X108716148Y-112508376D01*
X108723837Y-112516978D01*
X108731926Y-112523055D01*
X108737809Y-112523868D01*
X108744275Y-112524111D01*
X108753013Y-112529722D01*
X108757080Y-112532965D01*
X108770071Y-112541047D01*
X108785214Y-112548537D01*
X108804983Y-112557973D01*
X108825961Y-112569664D01*
X108832335Y-112573709D01*
X108845216Y-112581888D01*
X108860475Y-112593195D01*
X108869468Y-112602145D01*
X108876056Y-112607269D01*
X108886951Y-112612534D01*
X108893593Y-112615867D01*
X108901932Y-112622875D01*
X108911701Y-112634594D01*
X108924495Y-112652735D01*
X108930324Y-112661436D01*
X108949662Y-112692213D01*
X108962891Y-112717055D01*
X108970320Y-112736600D01*
X108972253Y-112751481D01*
X108972221Y-112752134D01*
X108972844Y-112769777D01*
X108975586Y-112791864D01*
X108979821Y-112814947D01*
X108984920Y-112835583D01*
X108990256Y-112850326D01*
X108991421Y-112852607D01*
X109000211Y-112864231D01*
X109012779Y-112870506D01*
X109013484Y-112870720D01*
X109021558Y-112874053D01*
X109028223Y-112879572D01*
X109035358Y-112889323D01*
X109044852Y-112905357D01*
X109046396Y-112908101D01*
X109053878Y-112922487D01*
X109058407Y-112933137D01*
X109059050Y-112937914D01*
X109058698Y-112938613D01*
X109061531Y-112944010D01*
X109069258Y-112952160D01*
X109070514Y-112953320D01*
X109078493Y-112962437D01*
X109079801Y-112968074D01*
X109079892Y-112972662D01*
X109084022Y-112981342D01*
X109090486Y-112990674D01*
X109097146Y-112997639D01*
X109101861Y-112999219D01*
X109102993Y-112999008D01*
X109108848Y-113002857D01*
X109116412Y-113011851D01*
X109118901Y-113015220D01*
X109126027Y-113022877D01*
X109130537Y-113024782D01*
X109130979Y-113024589D01*
X109136865Y-113026735D01*
X109145420Y-113033634D01*
X109145621Y-113033827D01*
X109158581Y-113042706D01*
X109160770Y-113043548D01*
X109173553Y-113048460D01*
X109175507Y-113048911D01*
X109187120Y-113052820D01*
X109193745Y-113057112D01*
X109194671Y-113058894D01*
X109197991Y-113068943D01*
X109201980Y-113084472D01*
X109205969Y-113102753D01*
X109209298Y-113121056D01*
X109213144Y-113130648D01*
X109221318Y-113141166D01*
X109229430Y-113149560D01*
X109240940Y-113162505D01*
X109253291Y-113177132D01*
X109264063Y-113190622D01*
X109269683Y-113198994D01*
X109270604Y-113203380D01*
X109267594Y-113205290D01*
X109265263Y-113205725D01*
X109254602Y-113204186D01*
X109242487Y-113196650D01*
X109228282Y-113182504D01*
X109211346Y-113161137D01*
X109191043Y-113131938D01*
X109177889Y-113112540D01*
X109163432Y-113092475D01*
X109153488Y-113080531D01*
X109148034Y-113076675D01*
X109146669Y-113076880D01*
X109137497Y-113080023D01*
X109125371Y-113085651D01*
X109111215Y-113090139D01*
X109097332Y-113087808D01*
X109082601Y-113077974D01*
X109080287Y-113075523D01*
X109110867Y-113075523D01*
X109114508Y-113079747D01*
X109116078Y-113079539D01*
X109115272Y-113075407D01*
X109113577Y-113073574D01*
X109110934Y-113074640D01*
X109110867Y-113075523D01*
X109080287Y-113075523D01*
X109065683Y-113060058D01*
X109058616Y-113051250D01*
X109053180Y-113041764D01*
X109052113Y-113032025D01*
X109054281Y-113017846D01*
X109055671Y-113009511D01*
X109056825Y-112997347D01*
X109056171Y-112991002D01*
X109055646Y-112988874D01*
X109059362Y-112983337D01*
X109061296Y-112981563D01*
X109062077Y-112975537D01*
X109056614Y-112970635D01*
X109047071Y-112969322D01*
X109046568Y-112969393D01*
X109035493Y-112973166D01*
X109023240Y-112980102D01*
X109021572Y-112981244D01*
X109011366Y-112986134D01*
X109005570Y-112983918D01*
X109004708Y-112979234D01*
X109010095Y-112972192D01*
X109013445Y-112969154D01*
X109012253Y-112966580D01*
X109004470Y-112964282D01*
X108988749Y-112961591D01*
X108973569Y-112958924D01*
X108962954Y-112955561D01*
X108956567Y-112950455D01*
X108951717Y-112942200D01*
X108949875Y-112937998D01*
X108948031Y-112925572D01*
X108953216Y-112912231D01*
X108954006Y-112910791D01*
X108958273Y-112898385D01*
X108956919Y-112889629D01*
X108950186Y-112886605D01*
X108948600Y-112885593D01*
X108942849Y-112878303D01*
X108934558Y-112865512D01*
X108924948Y-112849026D01*
X108918328Y-112837255D01*
X108910097Y-112823532D01*
X108904157Y-112815616D01*
X108899254Y-112811957D01*
X108894128Y-112811004D01*
X108888066Y-112810259D01*
X108881953Y-112807375D01*
X108876230Y-112805732D01*
X108865716Y-112806594D01*
X108865643Y-112806609D01*
X108850898Y-112808770D01*
X108834878Y-112810264D01*
X108827109Y-112810088D01*
X108818939Y-112807764D01*
X108810332Y-112802309D01*
X108800334Y-112792797D01*
X108787983Y-112778306D01*
X108772327Y-112757911D01*
X108752405Y-112730687D01*
X108748736Y-112725640D01*
X108735186Y-112707487D01*
X108723647Y-112692772D01*
X108715248Y-112682893D01*
X108711111Y-112679253D01*
X108708185Y-112677452D01*
X108703782Y-112669245D01*
X108700485Y-112657695D01*
X108699228Y-112646479D01*
X108700944Y-112639272D01*
X108701467Y-112638639D01*
X108701083Y-112636961D01*
X108711281Y-112636961D01*
X108713288Y-112637937D01*
X108722363Y-112640176D01*
X108735939Y-112642519D01*
X108737745Y-112642780D01*
X108752792Y-112644515D01*
X108760665Y-112643603D01*
X108763208Y-112639202D01*
X108762264Y-112630466D01*
X108760497Y-112624010D01*
X108753398Y-112615313D01*
X108742121Y-112614921D01*
X108726798Y-112622862D01*
X108721897Y-112626432D01*
X108713793Y-112633263D01*
X108711281Y-112636961D01*
X108701083Y-112636961D01*
X108700919Y-112636244D01*
X108692628Y-112638267D01*
X108684150Y-112639801D01*
X108668171Y-112639920D01*
X108650484Y-112637937D01*
X108636795Y-112635874D01*
X108625686Y-112634971D01*
X108621237Y-112635698D01*
X108621204Y-112635916D01*
X108623391Y-112645275D01*
X108631399Y-112661881D01*
X108645201Y-112685684D01*
X108664775Y-112716638D01*
X108666959Y-112720364D01*
X108671346Y-112732859D01*
X108671179Y-112743237D01*
X108666320Y-112748554D01*
X108663273Y-112749874D01*
X108662005Y-112753986D01*
X108665323Y-112755035D01*
X108672895Y-112751887D01*
X108677966Y-112749134D01*
X108680478Y-112750115D01*
X108677183Y-112753850D01*
X108668391Y-112758497D01*
X108657013Y-112762845D01*
X108616752Y-112704115D01*
X108612181Y-112697467D01*
X108596744Y-112675449D01*
X108585012Y-112659722D01*
X108575933Y-112649019D01*
X108568454Y-112642073D01*
X108561516Y-112637609D01*
X108548218Y-112628192D01*
X108537054Y-112616278D01*
X108526082Y-112606060D01*
X108509370Y-112599500D01*
X108491565Y-112599108D01*
X108476085Y-112605486D01*
X108466112Y-112611470D01*
X108450500Y-112619033D01*
X108432877Y-112626381D01*
X108429027Y-112627828D01*
X108410091Y-112633739D01*
X108395144Y-112635483D01*
X108380692Y-112633541D01*
X108374712Y-112632304D01*
X108362384Y-112630955D01*
X108355325Y-112631941D01*
X108351407Y-112632308D01*
X108345046Y-112627236D01*
X108342390Y-112623897D01*
X108339506Y-112623478D01*
X108336349Y-112629144D01*
X108331657Y-112642315D01*
X108324454Y-112660034D01*
X108317077Y-112669354D01*
X108308535Y-112670782D01*
X108297777Y-112665020D01*
X108293880Y-112662255D01*
X108287270Y-112658570D01*
X108278820Y-112655557D01*
X108266681Y-112652732D01*
X108248994Y-112649607D01*
X108223902Y-112645700D01*
X108214075Y-112644028D01*
X108198190Y-112640614D01*
X108187135Y-112637350D01*
X108183277Y-112636339D01*
X108169760Y-112635926D01*
X108154318Y-112638292D01*
X108147596Y-112639554D01*
X108127892Y-112640453D01*
X108108962Y-112638267D01*
X108099985Y-112636516D01*
X108087381Y-112635236D01*
X108080415Y-112636164D01*
X108080219Y-112636311D01*
X108079288Y-112642221D01*
X108083815Y-112651478D01*
X108091979Y-112661769D01*
X108101958Y-112670778D01*
X108111934Y-112676195D01*
X108124158Y-112682983D01*
X108135840Y-112695113D01*
X108136769Y-112696419D01*
X108145305Y-112705609D01*
X108151509Y-112706192D01*
X108153964Y-112705115D01*
X108157343Y-112705968D01*
X108162539Y-112709883D01*
X108170644Y-112717844D01*
X108182754Y-112730839D01*
X108199958Y-112749850D01*
X108208229Y-112759337D01*
X108212650Y-112766687D01*
X108212102Y-112772982D01*
X108207313Y-112781355D01*
X108198894Y-112798927D01*
X108195913Y-112821628D01*
X108200729Y-112847711D01*
X108207947Y-112871486D01*
X108233102Y-112882936D01*
X108244302Y-112888167D01*
X108254955Y-112893488D01*
X108259591Y-112896293D01*
X108263824Y-112898290D01*
X108273485Y-112900873D01*
X108278882Y-112901868D01*
X108284205Y-112901178D01*
X108284164Y-112896012D01*
X108285215Y-112889580D01*
X108291876Y-112881755D01*
X108299117Y-112879043D01*
X108312286Y-112880986D01*
X108325960Y-112889185D01*
X108337667Y-112902520D01*
X108345243Y-112912768D01*
X108358353Y-112927929D01*
X108373499Y-112943827D01*
X108388088Y-112957758D01*
X108399528Y-112967015D01*
X108407588Y-112973077D01*
X108427375Y-112993192D01*
X108445137Y-113018140D01*
X108458489Y-113044779D01*
X108463821Y-113057967D01*
X108473629Y-113080986D01*
X108482956Y-113101656D01*
X108488972Y-113115782D01*
X108494600Y-113132252D01*
X108497218Y-113144397D01*
X108497281Y-113145373D01*
X108494000Y-113162835D01*
X108483698Y-113177484D01*
X108468498Y-113187844D01*
X108450530Y-113192434D01*
X108431917Y-113189781D01*
X108430807Y-113189330D01*
X108419723Y-113182889D01*
X108405172Y-113172280D01*
X108389999Y-113159552D01*
X108386503Y-113156434D01*
X108373443Y-113145374D01*
X108363296Y-113137681D01*
X108358017Y-113134864D01*
X108355588Y-113133661D01*
X108347468Y-113127099D01*
X108335541Y-113116098D01*
X108321419Y-113102100D01*
X108314076Y-113094634D01*
X108298192Y-113078748D01*
X108284016Y-113064888D01*
X108273936Y-113055408D01*
X108262192Y-113043837D01*
X108249217Y-113027933D01*
X108236733Y-113008545D01*
X108223962Y-112984299D01*
X108210125Y-112953825D01*
X108194438Y-112915751D01*
X108179327Y-112877838D01*
X108152732Y-112856523D01*
X108139288Y-112845888D01*
X108116105Y-112828213D01*
X108096045Y-112813770D01*
X108081080Y-112804001D01*
X108077250Y-112801701D01*
X108065627Y-112794571D01*
X108051966Y-112786068D01*
X108051314Y-112785661D01*
X108028646Y-112773353D01*
X108005640Y-112763924D01*
X107984906Y-112758277D01*
X107969050Y-112757317D01*
X107962973Y-112758514D01*
X107952071Y-112763862D01*
X107940345Y-112775010D01*
X107933217Y-112781729D01*
X107918185Y-112793387D01*
X107899258Y-112806448D01*
X107878693Y-112819493D01*
X107858754Y-112831101D01*
X107841705Y-112839856D01*
X107829805Y-112844338D01*
X107820586Y-112846620D01*
X107814056Y-112848822D01*
X107813939Y-112848868D01*
X107807785Y-112848622D01*
X107794461Y-112846909D01*
X107775839Y-112843998D01*
X107753792Y-112840161D01*
X107750965Y-112839646D01*
X107722841Y-112834572D01*
X107702133Y-112831044D01*
X107687208Y-112828934D01*
X107676428Y-112828106D01*
X107668162Y-112828433D01*
X107660773Y-112829781D01*
X107652627Y-112832020D01*
X107648773Y-112833100D01*
X107634978Y-112836378D01*
X107625200Y-112837857D01*
X107624892Y-112837864D01*
X107613238Y-112835881D01*
X107597632Y-112830589D01*
X107581314Y-112823414D01*
X107567541Y-112815774D01*
X107559556Y-112809097D01*
X107557226Y-112807112D01*
X107550189Y-112807752D01*
X107549971Y-112807893D01*
X107541809Y-112808819D01*
X107530424Y-112805901D01*
X107523867Y-112803285D01*
X107512268Y-112799878D01*
X107502183Y-112800135D01*
X107490454Y-112804467D01*
X107473926Y-112813287D01*
X107472669Y-112813992D01*
X107456410Y-112823320D01*
X107443137Y-112831609D01*
X107430318Y-112840628D01*
X107415430Y-112852150D01*
X107395939Y-112867946D01*
X107380070Y-112879809D01*
X107362564Y-112889480D01*
X107349318Y-112892370D01*
X107341093Y-112888198D01*
X107339249Y-112886269D01*
X107334471Y-112885123D01*
X107326825Y-112887404D01*
X107315167Y-112893670D01*
X107298355Y-112904481D01*
X107275249Y-112920394D01*
X107259807Y-112931357D01*
X107242501Y-112944423D01*
X107229954Y-112955353D01*
X107220287Y-112965835D01*
X107211620Y-112977556D01*
X107204098Y-112989190D01*
X107198039Y-112999947D01*
X107196035Y-113005587D01*
X107195832Y-113006102D01*
X107190559Y-113011109D01*
X107179008Y-113020332D01*
X107162299Y-113032922D01*
X107141556Y-113048029D01*
X107117903Y-113064801D01*
X107038928Y-113120098D01*
X107024439Y-113116006D01*
X107019086Y-113115015D01*
X107007336Y-113115672D01*
X106991261Y-113119854D01*
X106968889Y-113127982D01*
X106951604Y-113134588D01*
X106937663Y-113139124D01*
X106928105Y-113140608D01*
X106920656Y-113139358D01*
X106913042Y-113135683D01*
X106911046Y-113134614D01*
X106900092Y-113130729D01*
X106892725Y-113131188D01*
X106888969Y-113132910D01*
X106878779Y-113133807D01*
X106876291Y-113133613D01*
X106864541Y-113134137D01*
X106849971Y-113136024D01*
X106845209Y-113136832D01*
X106830780Y-113139240D01*
X106820645Y-113140883D01*
X106815387Y-113142214D01*
X106804182Y-113147545D01*
X106800775Y-113148711D01*
X106788903Y-113149692D01*
X106771610Y-113149308D01*
X106751342Y-113147559D01*
X106738787Y-113146223D01*
X106720297Y-113145088D01*
X106703343Y-113145661D01*
X106685317Y-113148233D01*
X106663611Y-113153098D01*
X106635620Y-113160548D01*
X106626240Y-113162749D01*
X106606931Y-113164730D01*
X106591542Y-113162851D01*
X106582432Y-113157258D01*
X106581808Y-113150685D01*
X106585167Y-113139723D01*
X106591210Y-113128438D01*
X106598338Y-113120523D01*
X106599175Y-113119837D01*
X106605214Y-113112288D01*
X106612021Y-113100957D01*
X106613024Y-113099129D01*
X106618017Y-113091838D01*
X106625295Y-113084180D01*
X106636000Y-113075261D01*
X106651276Y-113064187D01*
X106672264Y-113050064D01*
X106700108Y-113031994D01*
X106712063Y-113023643D01*
X106727418Y-113011172D01*
X106738543Y-113000126D01*
X106741665Y-112996524D01*
X106754946Y-112982791D01*
X106768867Y-112970101D01*
X106772967Y-112966571D01*
X106787049Y-112953286D01*
X106798796Y-112940722D01*
X106807463Y-112932780D01*
X106822997Y-112921311D01*
X106843177Y-112907879D01*
X106866105Y-112893662D01*
X106889884Y-112879830D01*
X106912616Y-112867560D01*
X106932403Y-112858027D01*
X106940904Y-112853776D01*
X106957039Y-112842299D01*
X106974769Y-112824833D01*
X106986586Y-112812284D01*
X107003252Y-112795296D01*
X107017903Y-112781063D01*
X107026197Y-112773137D01*
X107041658Y-112757689D01*
X107054666Y-112743942D01*
X107065254Y-112733871D01*
X107082837Y-112719428D01*
X107105374Y-112702262D01*
X107131303Y-112683471D01*
X107159063Y-112664169D01*
X107187092Y-112645459D01*
X107213826Y-112628452D01*
X107228284Y-112619854D01*
X107680143Y-112619854D01*
X107685126Y-112626994D01*
X107694106Y-112638126D01*
X107700495Y-112645341D01*
X107717700Y-112660126D01*
X107735816Y-112667755D01*
X107757509Y-112669553D01*
X107762046Y-112669401D01*
X107772223Y-112668169D01*
X107776645Y-112664508D01*
X107778076Y-112656687D01*
X107778137Y-112655562D01*
X107776458Y-112650221D01*
X107769707Y-112646825D01*
X107755752Y-112644176D01*
X107747722Y-112642791D01*
X107735815Y-112639787D01*
X107729951Y-112636906D01*
X107728212Y-112635329D01*
X107720294Y-112633300D01*
X107717250Y-112633044D01*
X107709633Y-112629073D01*
X107708496Y-112627703D01*
X107700577Y-112618925D01*
X107695615Y-112616066D01*
X107691286Y-112617671D01*
X107688741Y-112618892D01*
X107680267Y-112618255D01*
X107680212Y-112618224D01*
X107680143Y-112619854D01*
X107228284Y-112619854D01*
X107237705Y-112614251D01*
X107249615Y-112607759D01*
X107273138Y-112596114D01*
X107295581Y-112586328D01*
X107313523Y-112579943D01*
X107333573Y-112573331D01*
X107367887Y-112557167D01*
X107395779Y-112537103D01*
X107415916Y-112514001D01*
X107422366Y-112503922D01*
X107430360Y-112490966D01*
X107435234Y-112482475D01*
X107437183Y-112479618D01*
X107445294Y-112470344D01*
X107457640Y-112457678D01*
X107472427Y-112443498D01*
X107478414Y-112437897D01*
X107492083Y-112424442D01*
X107500271Y-112414713D01*
X107504253Y-112407013D01*
X107505297Y-112399646D01*
X107505316Y-112392938D01*
X107505915Y-112381204D01*
X107508283Y-112372102D01*
X107513647Y-112364101D01*
X107523227Y-112355675D01*
X107538249Y-112345296D01*
X107559937Y-112331432D01*
X107562779Y-112329636D01*
X107581776Y-112317912D01*
X107597738Y-112308524D01*
X107609065Y-112302390D01*
X107614153Y-112300424D01*
X107618483Y-112299716D01*
X107629290Y-112296071D01*
X107643578Y-112290264D01*
X107654732Y-112285837D01*
X107673095Y-112279897D01*
X107688156Y-112276524D01*
X107696642Y-112275230D01*
X107707530Y-112272794D01*
X107718531Y-112268997D01*
X107730898Y-112263168D01*
X107745879Y-112254632D01*
X107764733Y-112242711D01*
X107788706Y-112226736D01*
X107819053Y-112206028D01*
X107832219Y-112197005D01*
X107884228Y-112161615D01*
X108231376Y-112161615D01*
X108232760Y-112168795D01*
X108240832Y-112176080D01*
X108254101Y-112182886D01*
X108271080Y-112188628D01*
X108290283Y-112192719D01*
X108310219Y-112194576D01*
X108329403Y-112193612D01*
X108335013Y-112192770D01*
X108346660Y-112190620D01*
X108352507Y-112188910D01*
X108353114Y-112188367D01*
X108353917Y-112182003D01*
X108350258Y-112174176D01*
X108344057Y-112169333D01*
X108340737Y-112167956D01*
X108337581Y-112163732D01*
X108337601Y-112163422D01*
X108333608Y-112158608D01*
X108323870Y-112152498D01*
X108311301Y-112146501D01*
X108298815Y-112142019D01*
X108289326Y-112140458D01*
X108281602Y-112139065D01*
X108272371Y-112132350D01*
X108269828Y-112128956D01*
X108265823Y-112127113D01*
X108261984Y-112133811D01*
X108256482Y-112141935D01*
X108246671Y-112144533D01*
X108240019Y-112145763D01*
X108238369Y-112148973D01*
X108238991Y-112151073D01*
X108235555Y-112156697D01*
X108231376Y-112161615D01*
X107884228Y-112161615D01*
X107884966Y-112161113D01*
X107930699Y-112130472D01*
X107969818Y-112104830D01*
X108002732Y-112083932D01*
X108029840Y-112067528D01*
X108051550Y-112055365D01*
X108068265Y-112047192D01*
X108080388Y-112042754D01*
X108094707Y-112037777D01*
X108118923Y-112026183D01*
X108146715Y-112009930D01*
X108156734Y-112003767D01*
X108179052Y-111990909D01*
X108200695Y-111979426D01*
X108218118Y-111971234D01*
X108227943Y-111966918D01*
X108246354Y-111956782D01*
X108257866Y-111946520D01*
X108259245Y-111944502D01*
X108264828Y-111933145D01*
X108271935Y-111915458D01*
X108279794Y-111893444D01*
X108287638Y-111869105D01*
X108290669Y-111859277D01*
X108297775Y-111837124D01*
X108303981Y-111818943D01*
X108308707Y-111806399D01*
X108311374Y-111801154D01*
X108312205Y-111800060D01*
X108315646Y-111791768D01*
X108320207Y-111777509D01*
X108325133Y-111759570D01*
X108326110Y-111755793D01*
X108332007Y-111734534D01*
X108338102Y-111714617D01*
X108343217Y-111699918D01*
X108345076Y-111694988D01*
X108350904Y-111678261D01*
X108357760Y-111657354D01*
X108364522Y-111635650D01*
X108366307Y-111629770D01*
X108374205Y-111604121D01*
X108382496Y-111577671D01*
X108389651Y-111555299D01*
X108390196Y-111553622D01*
X108397798Y-111529794D01*
X108406185Y-111502955D01*
X108413639Y-111478599D01*
X108414784Y-111474822D01*
X108422710Y-111449852D01*
X108431717Y-111423023D01*
X108441236Y-111395871D01*
X108450699Y-111369929D01*
X108459534Y-111346734D01*
X108467173Y-111327817D01*
X108473048Y-111314715D01*
X108476588Y-111308965D01*
X108477649Y-111307508D01*
X108482182Y-111299233D01*
X108489098Y-111285463D01*
X108497381Y-111268184D01*
X108504927Y-111252448D01*
X108517035Y-111227908D01*
X108530376Y-111201441D01*
X108543187Y-111176578D01*
X108543364Y-111176241D01*
X108554358Y-111154693D01*
X108564067Y-111134763D01*
X108571444Y-111118655D01*
X108575445Y-111108576D01*
X108576103Y-111106484D01*
X108581355Y-111090793D01*
X108587165Y-111074570D01*
X108592339Y-111060776D01*
X108603251Y-111032482D01*
X108612063Y-111011564D01*
X108619451Y-110996986D01*
X108626095Y-110987711D01*
X108632681Y-110982706D01*
X108639885Y-110980935D01*
X108648387Y-110981356D01*
G37*
G36*
X107937676Y-113107028D02*
G01*
X107962113Y-113111702D01*
X107982186Y-113116330D01*
X107996126Y-113120478D01*
X108002372Y-113123739D01*
X108003205Y-113124321D01*
X108010793Y-113125314D01*
X108022972Y-113124642D01*
X108026830Y-113124251D01*
X108037917Y-113123945D01*
X108043289Y-113125139D01*
X108043767Y-113125593D01*
X108050524Y-113128704D01*
X108061971Y-113132284D01*
X108066093Y-113133502D01*
X108082354Y-113139575D01*
X108098554Y-113147042D01*
X108105091Y-113150221D01*
X108115927Y-113154372D01*
X108121698Y-113154955D01*
X108125153Y-113155083D01*
X108128148Y-113156144D01*
X108134962Y-113158559D01*
X108148143Y-113164919D01*
X108160867Y-113172442D01*
X108171823Y-113182037D01*
X108179442Y-113194191D01*
X108182241Y-113200809D01*
X108183673Y-113213658D01*
X108177193Y-113223769D01*
X108162089Y-113232723D01*
X108152330Y-113235748D01*
X108134366Y-113238841D01*
X108113307Y-113240850D01*
X108092630Y-113241464D01*
X108075810Y-113240378D01*
X108071660Y-113239824D01*
X108050193Y-113239582D01*
X108035070Y-113244304D01*
X108027027Y-113253592D01*
X108026802Y-113267044D01*
X108027667Y-113278398D01*
X108023692Y-113286337D01*
X108020413Y-113289414D01*
X108019230Y-113294474D01*
X108019396Y-113294799D01*
X108018244Y-113301202D01*
X108013153Y-113311075D01*
X108012350Y-113312312D01*
X108002811Y-113322748D01*
X107989280Y-113328483D01*
X107982344Y-113330973D01*
X107967332Y-113338412D01*
X107952099Y-113347878D01*
X107942556Y-113354050D01*
X107932688Y-113359049D01*
X107927885Y-113359569D01*
X107926609Y-113358571D01*
X107918420Y-113358527D01*
X107905807Y-113362386D01*
X107891334Y-113369205D01*
X107877553Y-113378044D01*
X107873518Y-113380918D01*
X107860348Y-113388379D01*
X107849559Y-113392028D01*
X107839504Y-113393723D01*
X107835473Y-113396629D01*
X107837708Y-113401887D01*
X107837742Y-113401936D01*
X107839146Y-113409984D01*
X107837235Y-113421581D01*
X107836296Y-113430674D01*
X107838869Y-113442791D01*
X107838916Y-113442881D01*
X107844310Y-113453300D01*
X107851205Y-113459653D01*
X107856048Y-113459410D01*
X107858146Y-113459306D01*
X107858442Y-113459100D01*
X107863121Y-113458177D01*
X107865220Y-113465163D01*
X107866242Y-113468829D01*
X107872266Y-113475045D01*
X107879030Y-113476061D01*
X107880164Y-113476231D01*
X107886073Y-113471258D01*
X107888269Y-113468789D01*
X107893749Y-113469730D01*
X107898854Y-113475372D01*
X107900732Y-113483358D01*
X107901592Y-113488338D01*
X107907427Y-113492263D01*
X107920499Y-113495069D01*
X107921656Y-113495234D01*
X107941510Y-113495188D01*
X107961978Y-113490987D01*
X107978217Y-113483597D01*
X107981353Y-113482573D01*
X107992078Y-113481363D01*
X108006683Y-113481060D01*
X108011197Y-113480988D01*
X108029245Y-113479323D01*
X108051257Y-113475917D01*
X108073462Y-113471320D01*
X108082907Y-113469105D01*
X108101784Y-113464889D01*
X108116803Y-113461807D01*
X108125358Y-113460410D01*
X108131062Y-113459478D01*
X108139569Y-113456262D01*
X108139812Y-113456103D01*
X108147925Y-113453206D01*
X108160113Y-113450863D01*
X108166957Y-113449788D01*
X108181843Y-113446673D01*
X108197505Y-113442696D01*
X108211465Y-113438559D01*
X108221244Y-113434967D01*
X108224361Y-113432622D01*
X108225954Y-113431487D01*
X108233671Y-113431661D01*
X108245415Y-113431792D01*
X108263128Y-113430515D01*
X108282895Y-113428217D01*
X108301094Y-113425319D01*
X108312487Y-113422632D01*
X108314104Y-113422249D01*
X108328182Y-113418234D01*
X108352655Y-113412657D01*
X108385617Y-113406264D01*
X108394980Y-113404360D01*
X108411914Y-113400110D01*
X108424540Y-113395951D01*
X108427558Y-113395033D01*
X108440956Y-113393520D01*
X108459421Y-113393524D01*
X108479898Y-113395092D01*
X108486376Y-113395785D01*
X108498422Y-113396687D01*
X108507870Y-113397400D01*
X108527192Y-113397923D01*
X108540799Y-113397231D01*
X108553499Y-113396027D01*
X108569080Y-113397183D01*
X108585262Y-113402375D01*
X108605471Y-113412405D01*
X108627991Y-113424385D01*
X108679455Y-113449405D01*
X108725404Y-113468203D01*
X108727778Y-113469066D01*
X108746387Y-113475912D01*
X108762835Y-113482099D01*
X108773803Y-113486384D01*
X108776344Y-113487277D01*
X108791910Y-113489913D01*
X108811820Y-113490507D01*
X108832198Y-113489089D01*
X108849159Y-113485701D01*
X108850866Y-113485026D01*
X108861008Y-113478827D01*
X108874718Y-113468372D01*
X108889531Y-113455502D01*
X108897544Y-113448288D01*
X108916718Y-113433473D01*
X108932721Y-113425716D01*
X108947017Y-113424478D01*
X108961071Y-113429223D01*
X108961305Y-113429346D01*
X108973863Y-113438729D01*
X108984612Y-113451346D01*
X108991585Y-113464362D01*
X108992813Y-113474939D01*
X108992279Y-113480498D01*
X108995303Y-113490717D01*
X108995869Y-113491698D01*
X108996893Y-113501799D01*
X108993982Y-113515895D01*
X108988109Y-113530637D01*
X108980246Y-113542667D01*
X108979974Y-113542975D01*
X108972508Y-113557171D01*
X108968498Y-113576112D01*
X108968383Y-113595812D01*
X108972600Y-113612284D01*
X108975438Y-113619232D01*
X108977336Y-113632725D01*
X108973197Y-113641581D01*
X108963481Y-113644210D01*
X108957330Y-113642066D01*
X108946915Y-113633099D01*
X108937457Y-113619915D01*
X108930937Y-113605497D01*
X108929332Y-113592822D01*
X108929626Y-113589163D01*
X108927707Y-113580282D01*
X108920884Y-113571618D01*
X108907920Y-113561896D01*
X108887572Y-113549839D01*
X108858369Y-113536955D01*
X108829223Y-113531317D01*
X108802583Y-113533811D01*
X108779416Y-113544488D01*
X108779039Y-113544751D01*
X108768459Y-113550776D01*
X108757800Y-113553132D01*
X108745051Y-113551582D01*
X108728197Y-113545893D01*
X108705225Y-113535829D01*
X108688836Y-113529165D01*
X108668845Y-113522838D01*
X108652363Y-113519437D01*
X108629562Y-113516927D01*
X108564071Y-113566189D01*
X108559723Y-113569459D01*
X108537185Y-113586335D01*
X108520487Y-113598519D01*
X108508236Y-113606819D01*
X108499042Y-113612039D01*
X108491512Y-113614986D01*
X108484253Y-113616467D01*
X108475874Y-113617290D01*
X108471201Y-113617790D01*
X108455617Y-113621386D01*
X108437722Y-113628739D01*
X108414975Y-113640824D01*
X108409102Y-113644115D01*
X108386895Y-113655356D01*
X108368471Y-113662134D01*
X108350959Y-113665561D01*
X108340926Y-113667183D01*
X108324949Y-113671443D01*
X108313858Y-113676501D01*
X108303044Y-113682033D01*
X108288500Y-113685923D01*
X108278059Y-113687259D01*
X108259520Y-113690259D01*
X108240028Y-113693956D01*
X108222129Y-113697824D01*
X108208371Y-113701335D01*
X108201304Y-113703963D01*
X108195525Y-113706917D01*
X108183929Y-113709956D01*
X108166624Y-113712207D01*
X108142400Y-113713820D01*
X108110045Y-113714937D01*
X108109090Y-113714960D01*
X108083486Y-113715529D01*
X108063217Y-113715675D01*
X108045854Y-113715225D01*
X108028970Y-113713999D01*
X108010139Y-113711830D01*
X107986931Y-113708541D01*
X107956920Y-113703959D01*
X107951199Y-113703050D01*
X107927726Y-113698804D01*
X107907546Y-113694362D01*
X107892649Y-113690196D01*
X107885027Y-113686783D01*
X107875425Y-113680923D01*
X107862170Y-113676201D01*
X107850253Y-113673303D01*
X107840353Y-113670470D01*
X107834425Y-113668534D01*
X107815818Y-113663144D01*
X107796761Y-113658416D01*
X107779604Y-113654855D01*
X107766700Y-113652969D01*
X107760397Y-113653264D01*
X107756522Y-113658607D01*
X107753604Y-113673740D01*
X107753872Y-113697584D01*
X107757324Y-113730100D01*
X107759848Y-113752280D01*
X107760229Y-113770520D01*
X107757991Y-113786303D01*
X107752929Y-113803060D01*
X107747514Y-113817148D01*
X107739222Y-113836097D01*
X107731625Y-113850950D01*
X107728505Y-113856546D01*
X107723041Y-113868049D01*
X107721022Y-113875121D01*
X107720511Y-113877405D01*
X107716444Y-113886914D01*
X107709183Y-113901291D01*
X107699759Y-113918426D01*
X107691687Y-113933089D01*
X107684476Y-113948703D01*
X107682392Y-113958814D01*
X107685265Y-113964670D01*
X107692916Y-113967518D01*
X107698004Y-113969116D01*
X107696132Y-113972111D01*
X107694430Y-113975141D01*
X107696575Y-113982519D01*
X107698042Y-113990615D01*
X107692418Y-114003066D01*
X107684139Y-114015201D01*
X107676985Y-114025858D01*
X107676292Y-114027029D01*
X107672722Y-114038806D01*
X107671864Y-114053171D01*
X107672064Y-114056207D01*
X107673370Y-114066307D01*
X107676507Y-114070440D01*
X107683222Y-114071410D01*
X107689663Y-114072374D01*
X107694829Y-114075443D01*
X107696650Y-114075956D01*
X107704922Y-114073371D01*
X107718140Y-114067319D01*
X107734484Y-114058806D01*
X107752128Y-114048841D01*
X107769251Y-114038431D01*
X107784027Y-114028584D01*
X107794634Y-114020307D01*
X107796979Y-114018136D01*
X107809673Y-114003100D01*
X107815064Y-113988350D01*
X107815155Y-113987745D01*
X107820344Y-113973736D01*
X107832390Y-113962279D01*
X107836257Y-113959824D01*
X107849213Y-113953395D01*
X107864347Y-113947517D01*
X107879000Y-113943045D01*
X107890514Y-113940834D01*
X107896227Y-113941741D01*
X107897935Y-113941990D01*
X107905480Y-113938820D01*
X107916479Y-113931961D01*
X107921318Y-113928841D01*
X107936590Y-113921238D01*
X107950063Y-113917238D01*
X107952691Y-113916853D01*
X107964537Y-113912822D01*
X107972678Y-113903873D01*
X107981223Y-113893370D01*
X107992615Y-113882999D01*
X107997821Y-113879605D01*
X108012339Y-113871907D01*
X108030720Y-113863406D01*
X108049938Y-113855398D01*
X108066961Y-113849185D01*
X108078760Y-113846062D01*
X108084670Y-113845137D01*
X108109007Y-113840042D01*
X108137700Y-113832587D01*
X108168042Y-113823606D01*
X108197326Y-113813929D01*
X108222852Y-113804390D01*
X108241912Y-113795825D01*
X108257622Y-113788107D01*
X108276721Y-113779738D01*
X108292226Y-113773979D01*
X108294381Y-113773304D01*
X108312333Y-113767375D01*
X108330127Y-113761072D01*
X108344845Y-113755456D01*
X108353571Y-113751594D01*
X108357305Y-113750530D01*
X108366989Y-113750385D01*
X108367886Y-113750435D01*
X108377793Y-113749059D01*
X108393096Y-113745300D01*
X108410878Y-113739856D01*
X108431329Y-113733558D01*
X108455234Y-113727163D01*
X108475799Y-113722576D01*
X108490964Y-113719703D01*
X108507411Y-113716516D01*
X108518563Y-113714274D01*
X108530234Y-113712676D01*
X108545338Y-113712132D01*
X108551711Y-113712575D01*
X108567620Y-113714562D01*
X108586870Y-113717664D01*
X108606944Y-113721398D01*
X108625320Y-113725281D01*
X108639478Y-113728833D01*
X108646899Y-113731569D01*
X108651879Y-113732918D01*
X108660978Y-113730113D01*
X108674956Y-113724170D01*
X108697488Y-113723050D01*
X108725817Y-113728531D01*
X108738061Y-113731804D01*
X108758077Y-113736561D01*
X108774667Y-113739855D01*
X108787004Y-113742654D01*
X108797865Y-113748801D01*
X108807707Y-113760561D01*
X108810797Y-113765323D01*
X108816772Y-113777454D01*
X108818569Y-113786257D01*
X108817990Y-113790345D01*
X108817033Y-113802990D01*
X108819121Y-113812495D01*
X108825491Y-113822060D01*
X108837382Y-113834884D01*
X108838878Y-113836446D01*
X108855191Y-113856729D01*
X108866598Y-113877205D01*
X108872239Y-113895943D01*
X108871258Y-113911011D01*
X108869548Y-113914476D01*
X108859145Y-113926367D01*
X108841314Y-113940447D01*
X108829390Y-113948517D01*
X108819114Y-113954145D01*
X108811936Y-113955507D01*
X108805499Y-113953458D01*
X108800633Y-113951526D01*
X108792985Y-113952459D01*
X108783610Y-113959957D01*
X108774977Y-113966917D01*
X108765728Y-113969178D01*
X108752108Y-113967139D01*
X108747072Y-113965942D01*
X108735958Y-113962686D01*
X108730668Y-113960155D01*
X108729639Y-113959406D01*
X108721941Y-113959671D01*
X108709740Y-113963388D01*
X108695776Y-113969586D01*
X108682782Y-113977284D01*
X108676306Y-113981433D01*
X108656963Y-113989242D01*
X108634464Y-113991364D01*
X108606447Y-113988130D01*
X108593374Y-113986376D01*
X108577230Y-113985894D01*
X108566120Y-113987568D01*
X108559619Y-113990988D01*
X108546172Y-114003183D01*
X108535202Y-114019209D01*
X108529495Y-114035430D01*
X108527406Y-114044359D01*
X108522347Y-114059936D01*
X108515758Y-114076921D01*
X108510161Y-114089590D01*
X108504402Y-114099668D01*
X108497026Y-114107985D01*
X108485967Y-114116835D01*
X108469151Y-114128503D01*
X108464743Y-114131469D01*
X108443881Y-114144310D01*
X108426420Y-114152451D01*
X108409440Y-114157296D01*
X108401562Y-114159212D01*
X108381405Y-114165867D01*
X108363875Y-114173701D01*
X108356949Y-114177277D01*
X108343336Y-114183294D01*
X108333681Y-114186254D01*
X108328869Y-114186701D01*
X108325235Y-114184496D01*
X108325589Y-114176008D01*
X108326113Y-114173597D01*
X108331814Y-114162254D01*
X108341252Y-114150852D01*
X108343325Y-114148814D01*
X108354186Y-114137314D01*
X108367837Y-114122006D01*
X108381822Y-114105633D01*
X108383760Y-114103323D01*
X108399841Y-114084923D01*
X108416863Y-114066509D01*
X108431449Y-114051747D01*
X108432793Y-114050454D01*
X108446210Y-114036218D01*
X108453723Y-114024538D01*
X108457002Y-114012873D01*
X108457229Y-114011063D01*
X108457630Y-113999047D01*
X108456068Y-113991674D01*
X108452119Y-113989032D01*
X108441156Y-113985197D01*
X108426102Y-113981475D01*
X108409578Y-113978347D01*
X108394201Y-113976290D01*
X108382591Y-113975781D01*
X108377368Y-113977301D01*
X108373002Y-113980541D01*
X108363327Y-113981368D01*
X108357551Y-113981197D01*
X108350547Y-113983499D01*
X108341777Y-113989893D01*
X108328927Y-114001748D01*
X108318789Y-114011168D01*
X108307347Y-114019962D01*
X108295964Y-114025413D01*
X108281015Y-114029629D01*
X108274091Y-114031252D01*
X108257261Y-114034467D01*
X108247071Y-114034542D01*
X108241798Y-114031256D01*
X108239726Y-114024394D01*
X108237295Y-114016989D01*
X108231025Y-114016211D01*
X108226216Y-114016078D01*
X108218455Y-114010833D01*
X108214937Y-114007247D01*
X108209470Y-114006325D01*
X108203816Y-114006419D01*
X108194365Y-114002467D01*
X108191812Y-114001251D01*
X108178109Y-113998842D01*
X108161479Y-114000141D01*
X108154468Y-114001283D01*
X108142817Y-114001924D01*
X108136960Y-114000367D01*
X108133982Y-113999002D01*
X108126652Y-114001558D01*
X108122599Y-114004005D01*
X108114413Y-114007304D01*
X108101578Y-114010842D01*
X108081820Y-114015321D01*
X108078555Y-114016049D01*
X108055181Y-114022357D01*
X108031871Y-114030245D01*
X108011660Y-114038595D01*
X107997590Y-114046288D01*
X107991531Y-114051020D01*
X107977996Y-114063704D01*
X107965416Y-114077722D01*
X107963626Y-114079883D01*
X107945377Y-114097756D01*
X107921468Y-114116137D01*
X107894332Y-114133576D01*
X107866394Y-114148623D01*
X107840082Y-114159833D01*
X107817823Y-114165755D01*
X107812543Y-114166949D01*
X107803074Y-114171079D01*
X107802286Y-114171462D01*
X107793729Y-114172047D01*
X107779703Y-114170763D01*
X107763156Y-114168142D01*
X107747041Y-114164712D01*
X107734310Y-114161007D01*
X107727911Y-114157556D01*
X107723018Y-114154472D01*
X107712782Y-114151868D01*
X107706612Y-114152487D01*
X107693992Y-114157064D01*
X107678975Y-114164748D01*
X107663742Y-114174160D01*
X107650482Y-114183909D01*
X107641382Y-114192611D01*
X107638626Y-114198880D01*
X107638820Y-114201668D01*
X107634880Y-114208976D01*
X107634275Y-114209478D01*
X107633568Y-114216021D01*
X107640045Y-114227704D01*
X107642038Y-114230726D01*
X107646917Y-114240866D01*
X107647220Y-114247181D01*
X107646729Y-114251173D01*
X107652546Y-114258273D01*
X107658557Y-114261473D01*
X107663112Y-114260432D01*
X107664760Y-114257813D01*
X107673925Y-114252337D01*
X107685823Y-114251203D01*
X107695499Y-114254961D01*
X107695953Y-114255138D01*
X107702882Y-114259205D01*
X107709901Y-114259139D01*
X107712438Y-114258661D01*
X107721676Y-114261284D01*
X107724942Y-114262870D01*
X107734255Y-114267396D01*
X107747508Y-114275462D01*
X107758781Y-114283937D01*
X107765411Y-114291282D01*
X107767750Y-114298341D01*
X107768381Y-114310632D01*
X107768089Y-114314406D01*
X107769959Y-114321651D01*
X107775139Y-114320871D01*
X107782289Y-114311940D01*
X107785648Y-114303187D01*
X107782946Y-114296291D01*
X107781055Y-114294207D01*
X107783243Y-114288290D01*
X107793840Y-114280864D01*
X107812348Y-114272231D01*
X107838262Y-114262697D01*
X107841072Y-114261752D01*
X107861922Y-114254644D01*
X107881825Y-114247713D01*
X107896818Y-114242341D01*
X107904281Y-114239874D01*
X107914914Y-114237615D01*
X107919783Y-114238473D01*
X107921257Y-114239576D01*
X107929673Y-114240785D01*
X107942650Y-114240252D01*
X107949017Y-114239588D01*
X107960468Y-114238405D01*
X107965908Y-114237863D01*
X107968174Y-114240308D01*
X107971989Y-114248388D01*
X107972925Y-114251421D01*
X107972902Y-114260586D01*
X107968240Y-114271564D01*
X107958160Y-114285820D01*
X107941876Y-114304821D01*
X107929384Y-114318008D01*
X107905313Y-114338451D01*
X107880262Y-114352040D01*
X107851626Y-114359996D01*
X107816808Y-114363545D01*
X107799051Y-114363951D01*
X107786959Y-114362736D01*
X107778892Y-114359199D01*
X107772163Y-114352685D01*
X107770240Y-114350465D01*
X107763013Y-114344305D01*
X107754881Y-114343396D01*
X107742030Y-114347018D01*
X107739306Y-114347983D01*
X107723781Y-114355701D01*
X107712943Y-114366588D01*
X107708380Y-114372910D01*
X107703641Y-114380874D01*
X107704408Y-114384307D01*
X107710432Y-114385026D01*
X107716033Y-114385948D01*
X107715378Y-114390286D01*
X107714313Y-114392554D01*
X107714840Y-114399704D01*
X107715899Y-114403525D01*
X107715012Y-114414521D01*
X107711642Y-114427998D01*
X107706821Y-114440241D01*
X107701578Y-114447534D01*
X107700555Y-114448453D01*
X107696743Y-114457316D01*
X107695894Y-114470056D01*
X107696041Y-114472117D01*
X107696616Y-114485628D01*
X107696414Y-114495123D01*
X107697201Y-114502292D01*
X107701901Y-114511597D01*
X107708614Y-114517817D01*
X107714968Y-114518030D01*
X107717980Y-114516684D01*
X107723854Y-114518502D01*
X107724171Y-114518880D01*
X107730524Y-114523747D01*
X107739172Y-114529288D01*
X107742465Y-114531399D01*
X107757702Y-114540357D01*
X107767170Y-114545560D01*
X107781154Y-114552063D01*
X107790404Y-114553990D01*
X107796831Y-114551906D01*
X107802790Y-114548892D01*
X107810306Y-114548263D01*
X107811469Y-114548483D01*
X107819495Y-114546192D01*
X107830258Y-114539996D01*
X107831757Y-114538976D01*
X107845381Y-114531530D01*
X107857790Y-114527218D01*
X107861554Y-114526228D01*
X107871159Y-114521358D01*
X107883687Y-114511867D01*
X107900791Y-114496580D01*
X107904380Y-114493244D01*
X107921223Y-114477771D01*
X107937397Y-114463157D01*
X107949838Y-114452178D01*
X107954901Y-114447629D01*
X107963951Y-114437245D01*
X107964824Y-114430804D01*
X107964408Y-114426184D01*
X107969731Y-114419480D01*
X107977697Y-114411439D01*
X107985388Y-114399841D01*
X107985451Y-114399721D01*
X107994620Y-114387552D01*
X108006691Y-114377306D01*
X108018986Y-114371756D01*
X108035944Y-114367514D01*
X108052479Y-114365950D01*
X108064581Y-114367729D01*
X108064588Y-114367733D01*
X108073079Y-114368574D01*
X108085159Y-114367029D01*
X108096778Y-114366575D01*
X108106755Y-114371196D01*
X108111850Y-114374521D01*
X108122107Y-114375047D01*
X108138435Y-114371217D01*
X108147477Y-114368324D01*
X108164534Y-114362023D01*
X108177593Y-114356177D01*
X108191745Y-114350320D01*
X108206591Y-114346614D01*
X108208687Y-114346308D01*
X108223876Y-114343201D01*
X108239913Y-114338876D01*
X108244989Y-114337533D01*
X108261254Y-114334397D01*
X108282085Y-114331358D01*
X108304230Y-114328921D01*
X108311956Y-114328119D01*
X108337341Y-114324426D01*
X108362267Y-114319477D01*
X108382294Y-114314116D01*
X108400528Y-114308409D01*
X108417748Y-114303508D01*
X108429894Y-114300578D01*
X108442242Y-114297035D01*
X108461141Y-114289914D01*
X108483771Y-114280295D01*
X108507814Y-114269164D01*
X108530956Y-114257507D01*
X108543686Y-114250875D01*
X108557747Y-114244204D01*
X108566874Y-114241322D01*
X108572991Y-114241715D01*
X108578022Y-114244865D01*
X108578725Y-114245487D01*
X108582400Y-114252591D01*
X108578351Y-114262038D01*
X108576023Y-114266307D01*
X108571143Y-114280044D01*
X108567660Y-114296101D01*
X108564147Y-114314619D01*
X108557947Y-114330952D01*
X108548387Y-114342069D01*
X108534065Y-114350233D01*
X108531327Y-114351456D01*
X108514319Y-114360038D01*
X108498195Y-114369422D01*
X108492033Y-114372968D01*
X108474125Y-114379144D01*
X108450948Y-114381446D01*
X108432732Y-114382477D01*
X108409087Y-114385218D01*
X108387067Y-114389124D01*
X108369247Y-114393722D01*
X108358193Y-114398539D01*
X108355147Y-114401065D01*
X108345900Y-114409877D01*
X108333199Y-114422745D01*
X108318852Y-114437859D01*
X108313473Y-114443621D01*
X108289373Y-114469160D01*
X108269637Y-114489473D01*
X108252771Y-114506075D01*
X108237280Y-114520479D01*
X108231915Y-114525670D01*
X108224898Y-114534205D01*
X108223295Y-114539208D01*
X108223974Y-114543312D01*
X108223409Y-114554542D01*
X108221357Y-114569591D01*
X108221328Y-114569770D01*
X108219320Y-114585437D01*
X108220189Y-114593652D01*
X108224086Y-114595895D01*
X108227527Y-114595614D01*
X108233333Y-114594284D01*
X108237052Y-114594431D01*
X108248377Y-114595863D01*
X108265438Y-114598367D01*
X108286360Y-114601631D01*
X108309274Y-114605347D01*
X108332304Y-114609205D01*
X108353582Y-114612897D01*
X108371234Y-114616111D01*
X108383390Y-114618541D01*
X108388177Y-114619875D01*
X108388271Y-114620870D01*
X108386774Y-114628351D01*
X108383329Y-114640276D01*
X108380162Y-114647928D01*
X108367557Y-114667544D01*
X108347054Y-114691614D01*
X108346456Y-114692256D01*
X108331212Y-114708190D01*
X108319081Y-114719077D01*
X108307125Y-114726842D01*
X108292396Y-114733406D01*
X108271955Y-114740698D01*
X108268631Y-114741246D01*
X108257125Y-114739470D01*
X108243984Y-114734454D01*
X108232824Y-114727791D01*
X108227265Y-114721068D01*
X108227043Y-114720275D01*
X108219517Y-114710423D01*
X108205338Y-114703301D01*
X108186836Y-114699697D01*
X108166341Y-114700407D01*
X108157842Y-114701865D01*
X108142646Y-114706089D01*
X108128184Y-114713233D01*
X108110634Y-114724986D01*
X108100219Y-114732799D01*
X108084284Y-114747258D01*
X108075530Y-114759934D01*
X108075391Y-114760241D01*
X108070376Y-114769834D01*
X108065223Y-114773228D01*
X108056355Y-114772828D01*
X108050038Y-114772421D01*
X108042589Y-114775102D01*
X108035616Y-114784020D01*
X108035049Y-114784875D01*
X108024687Y-114795894D01*
X108011621Y-114804958D01*
X107999853Y-114810964D01*
X107982980Y-114819505D01*
X107965132Y-114828489D01*
X107951875Y-114835813D01*
X107932608Y-114848778D01*
X107916079Y-114862508D01*
X107904173Y-114875380D01*
X107898776Y-114885763D01*
X107897360Y-114889474D01*
X107890754Y-114896999D01*
X107887571Y-114899702D01*
X107886063Y-114904656D01*
X107891328Y-114906760D01*
X107901608Y-114904761D01*
X107913012Y-114899222D01*
X107928823Y-114889348D01*
X107946660Y-114876718D01*
X107964886Y-114862649D01*
X107981863Y-114848461D01*
X107995953Y-114835472D01*
X108005519Y-114824999D01*
X108008926Y-114818361D01*
X108012004Y-114814091D01*
X108023660Y-114812052D01*
X108031340Y-114812638D01*
X108037290Y-114816840D01*
X108035126Y-114824161D01*
X108024797Y-114833570D01*
X108020610Y-114837230D01*
X108013058Y-114849726D01*
X108007147Y-114869743D01*
X108005517Y-114878586D01*
X108005190Y-114898469D01*
X108010592Y-114911201D01*
X108021171Y-114916405D01*
X108036373Y-114913700D01*
X108055639Y-114902709D01*
X108075144Y-114888680D01*
X108100374Y-114870757D01*
X108121944Y-114855703D01*
X108138882Y-114844189D01*
X108150221Y-114836874D01*
X108154996Y-114834426D01*
X108155789Y-114834759D01*
X108157022Y-114840355D01*
X108154786Y-114850282D01*
X108150049Y-114861419D01*
X108143777Y-114870639D01*
X108136191Y-114881590D01*
X108130676Y-114895443D01*
X108129836Y-114904243D01*
X108133366Y-114910685D01*
X108142597Y-114910695D01*
X108157862Y-114904242D01*
X108179493Y-114891300D01*
X108186864Y-114886594D01*
X108208951Y-114874008D01*
X108225923Y-114867382D01*
X108239062Y-114866335D01*
X108249657Y-114870485D01*
X108257941Y-114874606D01*
X108268299Y-114876467D01*
X108269897Y-114876366D01*
X108274030Y-114877969D01*
X108275068Y-114884381D01*
X108273543Y-114897762D01*
X108270003Y-114914304D01*
X108262556Y-114931369D01*
X108250115Y-114947410D01*
X108231013Y-114965061D01*
X108219397Y-114975429D01*
X108208553Y-114986397D01*
X108202551Y-114994109D01*
X108202406Y-114994360D01*
X108196679Y-115000194D01*
X108184816Y-115009950D01*
X108168057Y-115022769D01*
X108147643Y-115037785D01*
X108124816Y-115054139D01*
X108100815Y-115070970D01*
X108076884Y-115087413D01*
X108054261Y-115102607D01*
X108034188Y-115115690D01*
X108017906Y-115125800D01*
X108006656Y-115132075D01*
X108001680Y-115133653D01*
X107995867Y-115133471D01*
X107986709Y-115137891D01*
X107985088Y-115138934D01*
X107974028Y-115144682D01*
X107957806Y-115151966D01*
X107939319Y-115159466D01*
X107939091Y-115159553D01*
X107922147Y-115166475D01*
X107907632Y-115173619D01*
X107893160Y-115182444D01*
X107876339Y-115194405D01*
X107854778Y-115210958D01*
X107851331Y-115213663D01*
X107834171Y-115227487D01*
X107820498Y-115239079D01*
X107811623Y-115247297D01*
X107808865Y-115250995D01*
X107808970Y-115252431D01*
X107806195Y-115260115D01*
X107800205Y-115271388D01*
X107799522Y-115272535D01*
X107793330Y-115282141D01*
X107787317Y-115287652D01*
X107778357Y-115290994D01*
X107763328Y-115294090D01*
X107752572Y-115295823D01*
X107735505Y-115297513D01*
X107722834Y-115297508D01*
X107712350Y-115298088D01*
X107698206Y-115304535D01*
X107696973Y-115305489D01*
X107685860Y-115309194D01*
X107676060Y-115304266D01*
X107668990Y-115291342D01*
X107668799Y-115282836D01*
X107676339Y-115276845D01*
X107682518Y-115272827D01*
X107683427Y-115267401D01*
X107682850Y-115262707D01*
X107686991Y-115254512D01*
X107688031Y-115253247D01*
X107690863Y-115247214D01*
X107685914Y-115246205D01*
X107673261Y-115250210D01*
X107652987Y-115259217D01*
X107646538Y-115262297D01*
X107623907Y-115272956D01*
X107607851Y-115280163D01*
X107596926Y-115284509D01*
X107589684Y-115286577D01*
X107584677Y-115286957D01*
X107584314Y-115286953D01*
X107576260Y-115289169D01*
X107562976Y-115294762D01*
X107547146Y-115302613D01*
X107542658Y-115304964D01*
X107526052Y-115312671D01*
X107514574Y-115315711D01*
X107506180Y-115314689D01*
X107498047Y-115313284D01*
X107488341Y-115315696D01*
X107483510Y-115317926D01*
X107477957Y-115316010D01*
X107478279Y-115308479D01*
X107477876Y-115302516D01*
X107473190Y-115293166D01*
X107471666Y-115291210D01*
X107462013Y-115284980D01*
X107446653Y-115283592D01*
X107434429Y-115283266D01*
X107426861Y-115279871D01*
X107421854Y-115271697D01*
X107416475Y-115263127D01*
X107410292Y-115259451D01*
X107407682Y-115259162D01*
X107400413Y-115254310D01*
X107394940Y-115249742D01*
X107382327Y-115245400D01*
X107368306Y-115244455D01*
X107357430Y-115247616D01*
X107357319Y-115247695D01*
X107348432Y-115256184D01*
X107339684Y-115267654D01*
X107336475Y-115272387D01*
X107328054Y-115280438D01*
X107316002Y-115284494D01*
X107309294Y-115286567D01*
X107294542Y-115293391D01*
X107279445Y-115302480D01*
X107265263Y-115313875D01*
X107254877Y-115328676D01*
X107252474Y-115345674D01*
X107257354Y-115366914D01*
X107259864Y-115374687D01*
X107263437Y-115388245D01*
X107264662Y-115396967D01*
X107265232Y-115401415D01*
X107271785Y-115405957D01*
X107277002Y-115408121D01*
X107285073Y-115415502D01*
X107291363Y-115422022D01*
X107306521Y-115432851D01*
X107327807Y-115444880D01*
X107336358Y-115446100D01*
X107348302Y-115444111D01*
X107360025Y-115441434D01*
X107371128Y-115440628D01*
X107379206Y-115440276D01*
X107391781Y-115437531D01*
X107400785Y-115435189D01*
X107413090Y-115434403D01*
X107420099Y-115437231D01*
X107420150Y-115437308D01*
X107421374Y-115445448D01*
X107419724Y-115458804D01*
X107416003Y-115474065D01*
X107411018Y-115487914D01*
X107405570Y-115497042D01*
X107405084Y-115497556D01*
X107398898Y-115505823D01*
X107397666Y-115511121D01*
X107398140Y-115512092D01*
X107396024Y-115517262D01*
X107392499Y-115522864D01*
X107389182Y-115533450D01*
X107388551Y-115536522D01*
X107388104Y-115544232D01*
X107391966Y-115549515D01*
X107402109Y-115555779D01*
X107405117Y-115557395D01*
X107415585Y-115561654D01*
X107421737Y-115562015D01*
X107424676Y-115560789D01*
X107435121Y-115560319D01*
X107446505Y-115562552D01*
X107453726Y-115566736D01*
X107454872Y-115569771D01*
X107453036Y-115577973D01*
X107452417Y-115585916D01*
X107458780Y-115598401D01*
X107464764Y-115606148D01*
X107470642Y-115609595D01*
X107479244Y-115608942D01*
X107493634Y-115604750D01*
X107496367Y-115603911D01*
X107516160Y-115600070D01*
X107530727Y-115602877D01*
X107541980Y-115613232D01*
X107551828Y-115632021D01*
X107552869Y-115634471D01*
X107560191Y-115648987D01*
X107569059Y-115659766D01*
X107582771Y-115670960D01*
X107586204Y-115673568D01*
X107602857Y-115689347D01*
X107615072Y-115708247D01*
X107620152Y-115717419D01*
X107628901Y-115728754D01*
X107638827Y-115735098D01*
X107639247Y-115735279D01*
X107651106Y-115743835D01*
X107661971Y-115757152D01*
X107664355Y-115760797D01*
X107674317Y-115771630D01*
X107685999Y-115776298D01*
X107695561Y-115779488D01*
X107699842Y-115783971D01*
X107700130Y-115785539D01*
X107705218Y-115791438D01*
X107709583Y-115795067D01*
X107718088Y-115804338D01*
X107728308Y-115816872D01*
X107735417Y-115825834D01*
X107743542Y-115834292D01*
X107752299Y-115839663D01*
X107764544Y-115843542D01*
X107783125Y-115847526D01*
X107800456Y-115851550D01*
X107819325Y-115858517D01*
X107834741Y-115868676D01*
X107850154Y-115883899D01*
X107852023Y-115885933D01*
X107869411Y-115901449D01*
X107886690Y-115911515D01*
X107901615Y-115914785D01*
X107912239Y-115914663D01*
X107921236Y-115916473D01*
X107928746Y-115921834D01*
X107936798Y-115932272D01*
X107947416Y-115949319D01*
X107947438Y-115949356D01*
X107959368Y-115967726D01*
X107969251Y-115978246D01*
X107978951Y-115981554D01*
X107990333Y-115978290D01*
X108005262Y-115969086D01*
X108009380Y-115966385D01*
X108027036Y-115958885D01*
X108042571Y-115960078D01*
X108057114Y-115969984D01*
X108063318Y-115977623D01*
X108068527Y-115992762D01*
X108067895Y-116013131D01*
X108067319Y-116021570D01*
X108070512Y-116031309D01*
X108079893Y-116035678D01*
X108084736Y-116037569D01*
X108081454Y-116041432D01*
X108078415Y-116045489D01*
X108078013Y-116054775D01*
X108078078Y-116055002D01*
X108077294Y-116064960D01*
X108071800Y-116076258D01*
X108065468Y-116088030D01*
X108062779Y-116099095D01*
X108062294Y-116103788D01*
X108059202Y-116116954D01*
X108054199Y-116132184D01*
X108051942Y-116138487D01*
X108045701Y-116158539D01*
X108041013Y-116177107D01*
X108040868Y-116177786D01*
X108036634Y-116193721D01*
X108030198Y-116213855D01*
X108022891Y-116234002D01*
X108022649Y-116234627D01*
X108015825Y-116255566D01*
X108010735Y-116277179D01*
X108008469Y-116294884D01*
X108007836Y-116305800D01*
X108006379Y-116317728D01*
X108004617Y-116323264D01*
X108004001Y-116323800D01*
X107999302Y-116332076D01*
X107995675Y-116344459D01*
X107994053Y-116356748D01*
X107995378Y-116364740D01*
X107997231Y-116368723D01*
X107996708Y-116376823D01*
X107996541Y-116380833D01*
X108004157Y-116382067D01*
X108023083Y-116383024D01*
X108035106Y-116387334D01*
X108041493Y-116395611D01*
X108043602Y-116405181D01*
X108041456Y-116425401D01*
X108032287Y-116449840D01*
X108030039Y-116455053D01*
X108024983Y-116470793D01*
X108020828Y-116488775D01*
X108018059Y-116506209D01*
X108017159Y-116520310D01*
X108018618Y-116528296D01*
X108019887Y-116530660D01*
X108019446Y-116535589D01*
X108019057Y-116536579D01*
X108021078Y-116543448D01*
X108026744Y-116554050D01*
X108026844Y-116554214D01*
X108033565Y-116566949D01*
X108035606Y-116578003D01*
X108032882Y-116590581D01*
X108025309Y-116607891D01*
X108019004Y-116619827D01*
X108014474Y-116624992D01*
X108011157Y-116623565D01*
X108005153Y-116620436D01*
X107994498Y-116620377D01*
X107988773Y-116621795D01*
X107981666Y-116626846D01*
X107976740Y-116637793D01*
X107975592Y-116641623D01*
X107974665Y-116651155D01*
X107977838Y-116661340D01*
X107985926Y-116675541D01*
X107992674Y-116686791D01*
X107996542Y-116695925D01*
X107996012Y-116702702D01*
X107991567Y-116710078D01*
X107987989Y-116715461D01*
X107985295Y-116723415D01*
X107990145Y-116726045D01*
X108002828Y-116723701D01*
X108004843Y-116723166D01*
X108013877Y-116722185D01*
X108015884Y-116725104D01*
X108015764Y-116728914D01*
X108020451Y-116736533D01*
X108031723Y-116748127D01*
X108039996Y-116756155D01*
X108046189Y-116763737D01*
X108047636Y-116769878D01*
X108045643Y-116777319D01*
X108043774Y-116786346D01*
X108045317Y-116793150D01*
X108052746Y-116804386D01*
X108058179Y-116821241D01*
X108060878Y-116840427D01*
X108060674Y-116859184D01*
X108057400Y-116874754D01*
X108050888Y-116884381D01*
X108049368Y-116885677D01*
X108047339Y-116894099D01*
X108053413Y-116906137D01*
X108067381Y-116921326D01*
X108082097Y-116935667D01*
X108097624Y-116952471D01*
X108109377Y-116967142D01*
X108116281Y-116978321D01*
X108117268Y-116984649D01*
X108116121Y-116988490D01*
X108118594Y-116996991D01*
X108120764Y-117001393D01*
X108121061Y-117009706D01*
X108120353Y-117012238D01*
X108122984Y-117015102D01*
X108130366Y-117013412D01*
X108140498Y-117007863D01*
X108151379Y-116999151D01*
X108158735Y-116991411D01*
X108164588Y-116980634D01*
X108165367Y-116967628D01*
X108166270Y-116955404D01*
X108170111Y-116937841D01*
X108176054Y-116919462D01*
X108181789Y-116903196D01*
X108189015Y-116879413D01*
X108194340Y-116858164D01*
X108196262Y-116849612D01*
X108207887Y-116812193D01*
X108223116Y-116780904D01*
X108227643Y-116772594D01*
X108236564Y-116752570D01*
X108245894Y-116728087D01*
X108254602Y-116702113D01*
X108261654Y-116677614D01*
X108266020Y-116657555D01*
X108267145Y-116650974D01*
X108271654Y-116630177D01*
X108277110Y-116610731D01*
X108282845Y-116594593D01*
X108288192Y-116583723D01*
X108292478Y-116580079D01*
X108292918Y-116580231D01*
X108297252Y-116585790D01*
X108302471Y-116596944D01*
X108307438Y-116610600D01*
X108311006Y-116623670D01*
X108312037Y-116633060D01*
X108311966Y-116635666D01*
X108312565Y-116647333D01*
X108314074Y-116664443D01*
X108316267Y-116684295D01*
X108317244Y-116693064D01*
X108318707Y-116711524D01*
X108319032Y-116725799D01*
X108318122Y-116733357D01*
X108317160Y-116738533D01*
X108317274Y-116751187D01*
X108319006Y-116766970D01*
X108320564Y-116777326D01*
X108323257Y-116796524D01*
X108325220Y-116812100D01*
X108325539Y-116814512D01*
X108329157Y-116829331D01*
X108334365Y-116840702D01*
X108339712Y-116851647D01*
X108343385Y-116865766D01*
X108346405Y-116878495D01*
X108351349Y-116889365D01*
X108357357Y-116897995D01*
X107842459Y-117258530D01*
X107327561Y-117619066D01*
X107318096Y-117605547D01*
X107309565Y-117596343D01*
X107301343Y-117593845D01*
X107298623Y-117594351D01*
X107292692Y-117592698D01*
X107290873Y-117585370D01*
X107293123Y-117571444D01*
X107299398Y-117549991D01*
X107302767Y-117539051D01*
X107307151Y-117519293D01*
X107306797Y-117504914D01*
X107301445Y-117493913D01*
X107290835Y-117484288D01*
X107288727Y-117482737D01*
X107274192Y-117468688D01*
X107266441Y-117452226D01*
X107263933Y-117430268D01*
X107263554Y-117405423D01*
X107241987Y-117394996D01*
X107234443Y-117391104D01*
X107222601Y-117383884D01*
X107216027Y-117378298D01*
X107215540Y-117372375D01*
X107220203Y-117359112D01*
X107230417Y-117339778D01*
X107230665Y-117339350D01*
X107244658Y-117314007D01*
X107253366Y-117294634D01*
X107257161Y-117279784D01*
X107256415Y-117268007D01*
X107251503Y-117257861D01*
X107244246Y-117243666D01*
X107239836Y-117227810D01*
X107239744Y-117227116D01*
X107237851Y-117213150D01*
X107236288Y-117202240D01*
X107234161Y-117195567D01*
X107228327Y-117182701D01*
X107220354Y-117167754D01*
X107211832Y-117151798D01*
X107203965Y-117133217D01*
X107201013Y-117119806D01*
X107203334Y-117112712D01*
X107205873Y-117108644D01*
X107208201Y-117097477D01*
X107208887Y-117083340D01*
X107207819Y-117069926D01*
X107204886Y-117060920D01*
X107202325Y-117055819D01*
X107201847Y-117047927D01*
X107202827Y-117042464D01*
X107202137Y-117031697D01*
X107200579Y-117021645D01*
X107198943Y-117007388D01*
X107198599Y-117005130D01*
X107194592Y-116993737D01*
X107187605Y-116980314D01*
X107179311Y-116967514D01*
X107171387Y-116957989D01*
X107165499Y-116954388D01*
X107161576Y-116952752D01*
X107152286Y-116946296D01*
X107140531Y-116936576D01*
X107137236Y-116933651D01*
X107127375Y-116924182D01*
X107121790Y-116915939D01*
X107118697Y-116905417D01*
X107116308Y-116889115D01*
X107115572Y-116883744D01*
X107112764Y-116869381D01*
X107108232Y-116856862D01*
X107100647Y-116843107D01*
X107088683Y-116825035D01*
X107081632Y-116814522D01*
X107070858Y-116796447D01*
X107064138Y-116780994D01*
X107060048Y-116765184D01*
X107059776Y-116763793D01*
X107053417Y-116742711D01*
X107043686Y-116728148D01*
X107029867Y-116713852D01*
X107017689Y-116700698D01*
X107009808Y-116690849D01*
X107004970Y-116682455D01*
X107001923Y-116673655D01*
X106999415Y-116662601D01*
X106993585Y-116643375D01*
X106978627Y-116615569D01*
X106973199Y-116607179D01*
X106962337Y-116587232D01*
X106954093Y-116568196D01*
X106953533Y-116566683D01*
X106946993Y-116552308D01*
X106936754Y-116532853D01*
X106924107Y-116510680D01*
X106910343Y-116488149D01*
X106903940Y-116478033D01*
X106891963Y-116458790D01*
X106883798Y-116444556D01*
X106878594Y-116433305D01*
X106875507Y-116423014D01*
X106873688Y-116411657D01*
X106872292Y-116397211D01*
X106871001Y-116384733D01*
X106864504Y-116349563D01*
X106853726Y-116319651D01*
X106837777Y-116292285D01*
X106831445Y-116282458D01*
X106820101Y-116261853D01*
X106811326Y-116242345D01*
X106805456Y-116229130D01*
X106792349Y-116205842D01*
X106775894Y-116181558D01*
X106768205Y-116171031D01*
X106758845Y-116157279D01*
X106753638Y-116147363D01*
X106751534Y-116139069D01*
X106751486Y-116130187D01*
X106751648Y-116127323D01*
X106751495Y-116111711D01*
X106748993Y-116096299D01*
X106743494Y-116078254D01*
X106734355Y-116054735D01*
X106726681Y-116035613D01*
X106717628Y-116012236D01*
X106710119Y-115992029D01*
X106708395Y-115987294D01*
X106701876Y-115971073D01*
X106694691Y-115956946D01*
X106685421Y-115942670D01*
X106672651Y-115926002D01*
X106654965Y-115904701D01*
X106629074Y-115874101D01*
X106633359Y-115842810D01*
X106635271Y-115826579D01*
X106635750Y-115806584D01*
X106632480Y-115791298D01*
X106624739Y-115778098D01*
X106611804Y-115764363D01*
X106591927Y-115743457D01*
X106574212Y-115720036D01*
X106561710Y-115697729D01*
X106555724Y-115678535D01*
X106555380Y-115676035D01*
X106552990Y-115660133D01*
X106550732Y-115647022D01*
X106549074Y-115637138D01*
X106547817Y-115626239D01*
X106546789Y-115620356D01*
X106543334Y-115607332D01*
X106538381Y-115591644D01*
X106534853Y-115580013D01*
X106531166Y-115563739D01*
X106529951Y-115551906D01*
X106529658Y-115541726D01*
X106526542Y-115523340D01*
X106520992Y-115505798D01*
X106513990Y-115491928D01*
X106506522Y-115484561D01*
X106500256Y-115478843D01*
X106495786Y-115468194D01*
X106495040Y-115457033D01*
X106498898Y-115449405D01*
X106500973Y-115447815D01*
X106505075Y-115441463D01*
X106503373Y-115432659D01*
X106495625Y-115419171D01*
X106495152Y-115418446D01*
X106485882Y-115402272D01*
X106483032Y-115390385D01*
X106486659Y-115380314D01*
X106496827Y-115369590D01*
X106507620Y-115359556D01*
X106512772Y-115352152D01*
X106512181Y-115345555D01*
X106506639Y-115337151D01*
X106492873Y-115319011D01*
X106480527Y-115302003D01*
X106472281Y-115288664D01*
X106467290Y-115276913D01*
X106464713Y-115264666D01*
X106463709Y-115249841D01*
X106463433Y-115230355D01*
X106462933Y-115207190D01*
X106459644Y-115159959D01*
X106452867Y-115110798D01*
X106449439Y-115097555D01*
X106444023Y-115083135D01*
X106443890Y-115082839D01*
X106439130Y-115065686D01*
X106440201Y-115050781D01*
X106446922Y-115040794D01*
X106453766Y-115031777D01*
X106458462Y-115016980D01*
X106459844Y-115000559D01*
X106457183Y-114986387D01*
X106454321Y-114975435D01*
X106453346Y-114955760D01*
X106455708Y-114935132D01*
X106461153Y-114917992D01*
X106463450Y-114906710D01*
X106458652Y-114890285D01*
X106455278Y-114882237D01*
X106454298Y-114873320D01*
X106458321Y-114864961D01*
X106468356Y-114855373D01*
X106485405Y-114842770D01*
X106491599Y-114838134D01*
X106504075Y-114824945D01*
X106507430Y-114812125D01*
X106501686Y-114798780D01*
X106488614Y-114785759D01*
X107236822Y-114785759D01*
X107237579Y-114789545D01*
X107240970Y-114790916D01*
X107243971Y-114789921D01*
X107247149Y-114782844D01*
X107247882Y-114780906D01*
X107247558Y-114777834D01*
X107241413Y-114781243D01*
X107236822Y-114785759D01*
X106488614Y-114785759D01*
X106486862Y-114784014D01*
X106483788Y-114781094D01*
X106481963Y-114776916D01*
X107256764Y-114776916D01*
X107257087Y-114778320D01*
X107261088Y-114778787D01*
X107261377Y-114778630D01*
X107266489Y-114780873D01*
X107273769Y-114788767D01*
X107281439Y-114799784D01*
X107287722Y-114811399D01*
X107290841Y-114821087D01*
X107290550Y-114827820D01*
X107286865Y-114834906D01*
X107283922Y-114839005D01*
X107284270Y-114848539D01*
X107289389Y-114859359D01*
X107297757Y-114868651D01*
X107307845Y-114873601D01*
X107313939Y-114875323D01*
X107320480Y-114879424D01*
X107321858Y-114880691D01*
X107328098Y-114880202D01*
X107329027Y-114879888D01*
X107330417Y-114883938D01*
X107329167Y-114893950D01*
X107328696Y-114896340D01*
X107327662Y-114908560D01*
X107329175Y-114916285D01*
X107329251Y-114916399D01*
X107329515Y-114923833D01*
X107325252Y-114934159D01*
X107322882Y-114938339D01*
X107320764Y-114945775D01*
X107323315Y-114953703D01*
X107331171Y-114965484D01*
X107341268Y-114977617D01*
X107351932Y-114984557D01*
X107367442Y-114988901D01*
X107371666Y-114989808D01*
X107384494Y-114993764D01*
X107392556Y-114999908D01*
X107399506Y-115010723D01*
X107404809Y-115019151D01*
X107414326Y-115027273D01*
X107427037Y-115029093D01*
X107445370Y-115025391D01*
X107456463Y-115021514D01*
X107470395Y-115013946D01*
X107484599Y-115002599D01*
X107500196Y-114986403D01*
X107518305Y-114964293D01*
X107540047Y-114935199D01*
X107543973Y-114929688D01*
X107554721Y-114912188D01*
X107560993Y-114895854D01*
X107564539Y-114876480D01*
X107566519Y-114861928D01*
X107569463Y-114843343D01*
X107572138Y-114829400D01*
X107572627Y-114827064D01*
X107573859Y-114815048D01*
X107572562Y-114807597D01*
X107571611Y-114805167D01*
X107574434Y-114799000D01*
X107576962Y-114794478D01*
X107574459Y-114784404D01*
X107565326Y-114769093D01*
X107549345Y-114748105D01*
X107541209Y-114737834D01*
X107534151Y-114727519D01*
X107531826Y-114720901D01*
X107533294Y-114716101D01*
X107534006Y-114714786D01*
X107536346Y-114704579D01*
X107536752Y-114690976D01*
X107536143Y-114684077D01*
X107533042Y-114673621D01*
X107526413Y-114667845D01*
X107510926Y-114663222D01*
X107489681Y-114663275D01*
X107469462Y-114669224D01*
X107467861Y-114669966D01*
X107453402Y-114674417D01*
X107440560Y-114675269D01*
X107431113Y-114674677D01*
X107424440Y-114675818D01*
X107419532Y-114675990D01*
X107410239Y-114672661D01*
X107408212Y-114671802D01*
X107393848Y-114670892D01*
X107372840Y-114676029D01*
X107354904Y-114682584D01*
X107338629Y-114690856D01*
X107326160Y-114701181D01*
X107314504Y-114715592D01*
X107307408Y-114724405D01*
X107293971Y-114738743D01*
X107279457Y-114752347D01*
X107268412Y-114762515D01*
X107266498Y-114764572D01*
X107259916Y-114771647D01*
X107256764Y-114776916D01*
X106481963Y-114776916D01*
X106478777Y-114769624D01*
X106482286Y-114757209D01*
X106494029Y-114745371D01*
X106499163Y-114741423D01*
X106504808Y-114733294D01*
X106504394Y-114722424D01*
X106503492Y-114717345D01*
X106503423Y-114700418D01*
X106508920Y-114683332D01*
X106520789Y-114663170D01*
X106524498Y-114657338D01*
X106532331Y-114640892D01*
X106534373Y-114628159D01*
X106534567Y-114618822D01*
X106537532Y-114612217D01*
X106539097Y-114610240D01*
X106542759Y-114600249D01*
X106546370Y-114584581D01*
X106549543Y-114565755D01*
X106551885Y-114546287D01*
X106553008Y-114528697D01*
X106552520Y-114515501D01*
X106551972Y-114511066D01*
X106551221Y-114498438D01*
X106551999Y-114490876D01*
X106552180Y-114487285D01*
X106545346Y-114481259D01*
X106536902Y-114475627D01*
X106529085Y-114462955D01*
X106528535Y-114445033D01*
X106529201Y-114438814D01*
X106529347Y-114420186D01*
X106527150Y-114403471D01*
X106522991Y-114392319D01*
X106521393Y-114388522D01*
X106521413Y-114378643D01*
X106521830Y-114370796D01*
X106519243Y-114358867D01*
X106517700Y-114354208D01*
X106514041Y-114339984D01*
X106510750Y-114323686D01*
X106505799Y-114305478D01*
X106493154Y-114280431D01*
X106475716Y-114259273D01*
X106455380Y-114244703D01*
X106442331Y-114238008D01*
X106420983Y-114226458D01*
X106395976Y-114212477D01*
X106369685Y-114197401D01*
X106344500Y-114182564D01*
X106328086Y-114171472D01*
X106312644Y-114158269D01*
X106301882Y-114145864D01*
X106297592Y-114136037D01*
X106300689Y-114133793D01*
X106310602Y-114134474D01*
X106325576Y-114137856D01*
X106343803Y-114143341D01*
X106363475Y-114150329D01*
X106382785Y-114158222D01*
X106399922Y-114166420D01*
X106413082Y-114174323D01*
X106413787Y-114174814D01*
X106426918Y-114181842D01*
X106445158Y-114189257D01*
X106464785Y-114195531D01*
X106500384Y-114205224D01*
X106526206Y-114242101D01*
X106537330Y-114258999D01*
X106551811Y-114284830D01*
X106562480Y-114308944D01*
X106568587Y-114329550D01*
X106569374Y-114344847D01*
X106570005Y-114353434D01*
X106573914Y-114367857D01*
X106580289Y-114384182D01*
X106583928Y-114392709D01*
X106589914Y-114412549D01*
X106589982Y-114427679D01*
X106589859Y-114428290D01*
X106588742Y-114439989D01*
X106590166Y-114447515D01*
X106590278Y-114447688D01*
X106591052Y-114455310D01*
X106588572Y-114466624D01*
X106586576Y-114474275D01*
X106587146Y-114482321D01*
X106591607Y-114492235D01*
X106600809Y-114506828D01*
X106602857Y-114509944D01*
X106611884Y-114525382D01*
X106616014Y-114537170D01*
X106616335Y-114548204D01*
X106616321Y-114548329D01*
X106616136Y-114557343D01*
X106618536Y-114565532D01*
X106624749Y-114575485D01*
X106635995Y-114589791D01*
X106639780Y-114594359D01*
X106652346Y-114607920D01*
X106663069Y-114615956D01*
X106674379Y-114620408D01*
X106691467Y-114624963D01*
X106693692Y-114608781D01*
X106693916Y-114607274D01*
X106696742Y-114595875D01*
X106700260Y-114589555D01*
X106701500Y-114588431D01*
X106702218Y-114583099D01*
X106701977Y-114581624D01*
X106704612Y-114573864D01*
X106710851Y-114562836D01*
X106713521Y-114558362D01*
X106717974Y-114547341D01*
X106717831Y-114540215D01*
X106716929Y-114538301D01*
X106719132Y-114532099D01*
X106729101Y-114523719D01*
X106732466Y-114521218D01*
X106740017Y-114513945D01*
X106741735Y-114509167D01*
X106741084Y-114507522D01*
X106743828Y-114501970D01*
X106744892Y-114500881D01*
X106748984Y-114492514D01*
X106752615Y-114479894D01*
X106753024Y-114478113D01*
X106758709Y-114461333D01*
X106766286Y-114446456D01*
X106769545Y-114439166D01*
X106774003Y-114424836D01*
X106778772Y-114406267D01*
X106781908Y-114392281D01*
X107572717Y-114392281D01*
X107575972Y-114392853D01*
X107576546Y-114389600D01*
X107573291Y-114389026D01*
X107572717Y-114392281D01*
X106781908Y-114392281D01*
X106783391Y-114385667D01*
X106784289Y-114381092D01*
X107559222Y-114381092D01*
X107564835Y-114382279D01*
X107575450Y-114380717D01*
X107587339Y-114377199D01*
X107596799Y-114372565D01*
X107602962Y-114369398D01*
X107605755Y-114369147D01*
X107610425Y-114368729D01*
X107611950Y-114369236D01*
X107618849Y-114368535D01*
X107619769Y-114367670D01*
X107621910Y-114360687D01*
X107620715Y-114358435D01*
X107615204Y-114359679D01*
X107612767Y-114361096D01*
X107610797Y-114359442D01*
X107612696Y-114350467D01*
X107616580Y-114336779D01*
X107604230Y-114339867D01*
X107599554Y-114341803D01*
X107589314Y-114348492D01*
X107577982Y-114357762D01*
X107567736Y-114367616D01*
X107560755Y-114376058D01*
X107559222Y-114381092D01*
X106784289Y-114381092D01*
X106787399Y-114365247D01*
X106790336Y-114347218D01*
X106791742Y-114333788D01*
X106791258Y-114328315D01*
X107622979Y-114328315D01*
X107623158Y-114332174D01*
X107623246Y-114334079D01*
X107624681Y-114335534D01*
X107631270Y-114335605D01*
X107642581Y-114329098D01*
X107646910Y-114325912D01*
X107654140Y-114318397D01*
X107653873Y-114312633D01*
X107652439Y-114311178D01*
X107645851Y-114311106D01*
X107634539Y-114317614D01*
X107630211Y-114320801D01*
X107622979Y-114328315D01*
X106791258Y-114328315D01*
X106791156Y-114327166D01*
X106791374Y-114323153D01*
X106795274Y-114314714D01*
X106796361Y-114312299D01*
X106796579Y-114299418D01*
X106791233Y-114281294D01*
X106786859Y-114272048D01*
X107671097Y-114272048D01*
X107674351Y-114272622D01*
X107674924Y-114269369D01*
X107671670Y-114268793D01*
X107671097Y-114272048D01*
X106786859Y-114272048D01*
X106780829Y-114259299D01*
X106765871Y-114234807D01*
X106765735Y-114234606D01*
X106756799Y-114219876D01*
X106753889Y-114208775D01*
X106757030Y-114197801D01*
X106766249Y-114183458D01*
X106775645Y-114167164D01*
X106778941Y-114151126D01*
X106775699Y-114133439D01*
X106765905Y-114111600D01*
X106752300Y-114088786D01*
X106730504Y-114061061D01*
X106706723Y-114039451D01*
X106682154Y-114024989D01*
X106657996Y-114018703D01*
X106653261Y-114018182D01*
X106638873Y-114014944D01*
X106628944Y-114010360D01*
X106626682Y-114008845D01*
X106614922Y-114003645D01*
X106600320Y-113999550D01*
X106595967Y-113998486D01*
X106581607Y-113992760D01*
X106571559Y-113985576D01*
X106564285Y-113979238D01*
X106557864Y-113977184D01*
X106552671Y-113975546D01*
X106545716Y-113968456D01*
X106544883Y-113967320D01*
X106537146Y-113958226D01*
X106525294Y-113945505D01*
X106511535Y-113931533D01*
X106499032Y-113919167D01*
X106474834Y-113894945D01*
X106456651Y-113876044D01*
X106443967Y-113861671D01*
X106436254Y-113851040D01*
X106432997Y-113843359D01*
X106433676Y-113837837D01*
X106437767Y-113833686D01*
X106444754Y-113830113D01*
X106457845Y-113825831D01*
X106471766Y-113823473D01*
X106480774Y-113822058D01*
X106485339Y-113819163D01*
X106486725Y-113817383D01*
X106493760Y-113816082D01*
X106497099Y-113815642D01*
X106497985Y-113811085D01*
X106493715Y-113800375D01*
X106492480Y-113797772D01*
X106487231Y-113786262D01*
X106484251Y-113779011D01*
X106484128Y-113777127D01*
X106487783Y-113768066D01*
X106496170Y-113755302D01*
X106507629Y-113740742D01*
X106520496Y-113726289D01*
X106533110Y-113713848D01*
X106543806Y-113705325D01*
X106550926Y-113702621D01*
X106552636Y-113702560D01*
X106558568Y-113698326D01*
X106564161Y-113695675D01*
X106574477Y-113696137D01*
X106583990Y-113697198D01*
X106591678Y-113695704D01*
X106594094Y-113695027D01*
X106603922Y-113695807D01*
X106617269Y-113699180D01*
X106623260Y-113701079D01*
X106636984Y-113705145D01*
X106646165Y-113707472D01*
X106654213Y-113706522D01*
X106663436Y-113702328D01*
X106670371Y-113696862D01*
X106671690Y-113692124D01*
X106671608Y-113688564D01*
X106673954Y-113678227D01*
X106678492Y-113664156D01*
X106685139Y-113648399D01*
X106692941Y-113637622D01*
X106704059Y-113629373D01*
X106704823Y-113628917D01*
X106714755Y-113622135D01*
X106717922Y-113616705D01*
X106715892Y-113610063D01*
X106713833Y-113606506D01*
X106709910Y-113604110D01*
X106703336Y-113606551D01*
X106691721Y-113614242D01*
X106689800Y-113615578D01*
X106678486Y-113622594D01*
X106671815Y-113624241D01*
X106667609Y-113621143D01*
X106663506Y-113618593D01*
X106651840Y-113617894D01*
X106635707Y-113620632D01*
X106617455Y-113626344D01*
X106599429Y-113634570D01*
X106594213Y-113637242D01*
X106583100Y-113641750D01*
X106576615Y-113642646D01*
X106576324Y-113642433D01*
X106575292Y-113636257D01*
X106576230Y-113623722D01*
X106578971Y-113607250D01*
X106579556Y-113604450D01*
X106583336Y-113589350D01*
X106586915Y-113579385D01*
X106589585Y-113576591D01*
X106594156Y-113575026D01*
X106599934Y-113566799D01*
X106605781Y-113557158D01*
X106611254Y-113550813D01*
X106613056Y-113547746D01*
X106611042Y-113540328D01*
X106609091Y-113538188D01*
X106603877Y-113536943D01*
X106595001Y-113539879D01*
X106580390Y-113547475D01*
X106580325Y-113547511D01*
X106563796Y-113555725D01*
X106551956Y-113558898D01*
X106542142Y-113557755D01*
X106539801Y-113556998D01*
X106532998Y-113553692D01*
X106531243Y-113548041D01*
X106533082Y-113536668D01*
X106536131Y-113527865D01*
X106543385Y-113512979D01*
X106553041Y-113495925D01*
X106563497Y-113479353D01*
X106573151Y-113465918D01*
X106580402Y-113458277D01*
X106583303Y-113454604D01*
X106586602Y-113445142D01*
X106588301Y-113439076D01*
X106593086Y-113435156D01*
X106603911Y-113433021D01*
X106617550Y-113429592D01*
X106629397Y-113423970D01*
X106640414Y-113420033D01*
X106654913Y-113420368D01*
X106655703Y-113420529D01*
X106668282Y-113421313D01*
X106677299Y-113418955D01*
X106678366Y-113418253D01*
X106682131Y-113417301D01*
X106686157Y-113420350D01*
X106691758Y-113428850D01*
X106700248Y-113444247D01*
X106705729Y-113453980D01*
X106717844Y-113473977D01*
X106732124Y-113496273D01*
X106746510Y-113517608D01*
X106756370Y-113532205D01*
X106766528Y-113548481D01*
X106772932Y-113560385D01*
X106774673Y-113566349D01*
X106775210Y-113572982D01*
X106779749Y-113582956D01*
X106783999Y-113592769D01*
X106785427Y-113604653D01*
X106785305Y-113605597D01*
X106783674Y-113618051D01*
X106781723Y-113632781D01*
X106781398Y-113635540D01*
X106780989Y-113647563D01*
X106782368Y-113654641D01*
X106782899Y-113655953D01*
X106783072Y-113664787D01*
X106780988Y-113677485D01*
X106776617Y-113696061D01*
X106791910Y-113689132D01*
X106794784Y-113687906D01*
X106811928Y-113682692D01*
X106830583Y-113679568D01*
X106847330Y-113678940D01*
X106858752Y-113681211D01*
X106863449Y-113682336D01*
X106876340Y-113682636D01*
X106893092Y-113681442D01*
X106910485Y-113679121D01*
X106925307Y-113676039D01*
X106934336Y-113672570D01*
X106937775Y-113671019D01*
X106947858Y-113672691D01*
X106958461Y-113681184D01*
X106967582Y-113695136D01*
X106973058Y-113705070D01*
X106982677Y-113720775D01*
X106994953Y-113739835D01*
X107008510Y-113760065D01*
X107041533Y-113808358D01*
X107033057Y-113820121D01*
X107030392Y-113823427D01*
X107019374Y-113834278D01*
X107006229Y-113844733D01*
X107000954Y-113848304D01*
X106991854Y-113853074D01*
X106982194Y-113855081D01*
X106969089Y-113854710D01*
X106949658Y-113852353D01*
X106943902Y-113851521D01*
X106926819Y-113848523D01*
X106914243Y-113845510D01*
X106908568Y-113843018D01*
X106907717Y-113842235D01*
X106900305Y-113839371D01*
X106888649Y-113836870D01*
X106876077Y-113835206D01*
X106865918Y-113834854D01*
X106861499Y-113836293D01*
X106861486Y-113836352D01*
X106857980Y-113835788D01*
X106850533Y-113830336D01*
X106843170Y-113825434D01*
X106828689Y-113818287D01*
X106811913Y-113811762D01*
X106795918Y-113807146D01*
X106781689Y-113805766D01*
X106770607Y-113808829D01*
X106764244Y-113812391D01*
X106758673Y-113818471D01*
X106761519Y-113825014D01*
X106772925Y-113833502D01*
X106774122Y-113834272D01*
X106783359Y-113841801D01*
X106784873Y-113846949D01*
X106784433Y-113849559D01*
X106786465Y-113859040D01*
X106791434Y-113871952D01*
X106794648Y-113880319D01*
X106799818Y-113900088D01*
X106802555Y-113919709D01*
X106803688Y-113931282D01*
X106808926Y-113951264D01*
X106817735Y-113963283D01*
X106829861Y-113966901D01*
X106837640Y-113968124D01*
X106846203Y-113973948D01*
X106849961Y-113977898D01*
X106855112Y-113979070D01*
X106857368Y-113978525D01*
X106865120Y-113981609D01*
X106873922Y-113988814D01*
X106880605Y-113997808D01*
X106880858Y-113998334D01*
X106882342Y-114012537D01*
X106875767Y-114030933D01*
X106861243Y-114053202D01*
X106852254Y-114067204D01*
X106844147Y-114084075D01*
X106838219Y-114100738D01*
X106835382Y-114114611D01*
X106836548Y-114123115D01*
X106837130Y-114124221D01*
X106835483Y-114129741D01*
X106834221Y-114131352D01*
X106835348Y-114137697D01*
X106836830Y-114143157D01*
X106835326Y-114153401D01*
X106834609Y-114157205D01*
X106837552Y-114170588D01*
X106847561Y-114189212D01*
X106864768Y-114213354D01*
X106869206Y-114218434D01*
X106874084Y-114220140D01*
X106881282Y-114217123D01*
X106893410Y-114208987D01*
X106894277Y-114208379D01*
X106906715Y-114198588D01*
X106912990Y-114190318D01*
X106915134Y-114180939D01*
X106919401Y-114153849D01*
X106928854Y-114132048D01*
X106943742Y-114116693D01*
X106950468Y-114111666D01*
X106957034Y-114104513D01*
X106956654Y-114099094D01*
X106955547Y-114095311D01*
X106959323Y-114088647D01*
X106960263Y-114087886D01*
X106966767Y-114079556D01*
X106973195Y-114067523D01*
X106974319Y-114065038D01*
X106980317Y-114053943D01*
X106985306Y-114047653D01*
X106989448Y-114041654D01*
X106993092Y-114030792D01*
X106995756Y-114021010D01*
X106998367Y-114015688D01*
X107000292Y-114010806D01*
X107001720Y-114000590D01*
X107002335Y-113994788D01*
X107004903Y-113988784D01*
X107011558Y-113984309D01*
X107024690Y-113979128D01*
X107032596Y-113976494D01*
X107044291Y-113973700D01*
X107050526Y-113973786D01*
X107050987Y-113974015D01*
X107057675Y-113972759D01*
X107067512Y-113967272D01*
X107073561Y-113964141D01*
X107088509Y-113960842D01*
X107105042Y-113960873D01*
X107119661Y-113964062D01*
X107128867Y-113970240D01*
X107130500Y-113971767D01*
X107140663Y-113974139D01*
X107157134Y-113972768D01*
X107175759Y-113970375D01*
X107192235Y-113970828D01*
X107200707Y-113975064D01*
X107201008Y-113975379D01*
X107207649Y-113977074D01*
X107219053Y-113977096D01*
X107223944Y-113977143D01*
X107241919Y-113981664D01*
X107264210Y-113992309D01*
X107281004Y-114000671D01*
X107297837Y-114005101D01*
X107310524Y-114002524D01*
X107320194Y-113992955D01*
X107329489Y-113981408D01*
X107346175Y-113965988D01*
X107364772Y-113952704D01*
X107381720Y-113944367D01*
X107392654Y-113940175D01*
X107410499Y-113932101D01*
X107428250Y-113922992D01*
X107429966Y-113922040D01*
X107444203Y-113913359D01*
X107455870Y-113904038D01*
X107467563Y-113891706D01*
X107481878Y-113873990D01*
X107486747Y-113867685D01*
X107499481Y-113850802D01*
X107510265Y-113835973D01*
X107517166Y-113825833D01*
X107522225Y-113819265D01*
X107534369Y-113807211D01*
X107548610Y-113795852D01*
X107558456Y-113788427D01*
X107567542Y-113780156D01*
X107570933Y-113774960D01*
X107570965Y-113774572D01*
X107574466Y-113768162D01*
X107582630Y-113757356D01*
X107593881Y-113744261D01*
X107595292Y-113742690D01*
X107606284Y-113729491D01*
X107613963Y-113718557D01*
X107616744Y-113712121D01*
X107616945Y-113711063D01*
X107621684Y-113705072D01*
X107633038Y-113695208D01*
X107651446Y-113681111D01*
X107677343Y-113662426D01*
X107684155Y-113657581D01*
X107708772Y-113639604D01*
X107720302Y-113630554D01*
X107978170Y-113630554D01*
X107978273Y-113636309D01*
X107986726Y-113640757D01*
X108003639Y-113642689D01*
X108007806Y-113642897D01*
X108022372Y-113645755D01*
X108032764Y-113650822D01*
X108037600Y-113654525D01*
X108054702Y-113661527D01*
X108071735Y-113660147D01*
X108075599Y-113659456D01*
X108088196Y-113660498D01*
X108102862Y-113664537D01*
X108103538Y-113664789D01*
X108117577Y-113668959D01*
X108127564Y-113668442D01*
X108137491Y-113663068D01*
X108144855Y-113657293D01*
X108147782Y-113651456D01*
X108144512Y-113644500D01*
X108138861Y-113639156D01*
X108130812Y-113637157D01*
X108127011Y-113637374D01*
X108119704Y-113633515D01*
X108117552Y-113631510D01*
X108106614Y-113626841D01*
X108089545Y-113622857D01*
X108068637Y-113619839D01*
X108046178Y-113618072D01*
X108024460Y-113617841D01*
X108005777Y-113619426D01*
X108002563Y-113619977D01*
X107986303Y-113624708D01*
X107978170Y-113630554D01*
X107720302Y-113630554D01*
X107726065Y-113626031D01*
X107736548Y-113616443D01*
X107740727Y-113610421D01*
X107743058Y-113605465D01*
X107748966Y-113601273D01*
X107750223Y-113600893D01*
X107756071Y-113594903D01*
X107762065Y-113584034D01*
X107764462Y-113578871D01*
X107772064Y-113566745D01*
X107779204Y-113560749D01*
X107784515Y-113562209D01*
X107788720Y-113564830D01*
X107791194Y-113561285D01*
X107790295Y-113556931D01*
X108082538Y-113556931D01*
X108083101Y-113573456D01*
X108084898Y-113580501D01*
X108087657Y-113586541D01*
X108093254Y-113589349D01*
X108104836Y-113591540D01*
X108106490Y-113591803D01*
X108119141Y-113592115D01*
X108127747Y-113589633D01*
X108129234Y-113588444D01*
X108139795Y-113574736D01*
X108143168Y-113559001D01*
X108139327Y-113543879D01*
X108128251Y-113532010D01*
X108125531Y-113530472D01*
X108111606Y-113527827D01*
X108098595Y-113532460D01*
X108088304Y-113542715D01*
X108082538Y-113556931D01*
X107790295Y-113556931D01*
X107789745Y-113554269D01*
X107783982Y-113543985D01*
X107769385Y-113524252D01*
X107758806Y-113516643D01*
X107821072Y-113516643D01*
X107824327Y-113517216D01*
X107824901Y-113513962D01*
X107821647Y-113513388D01*
X107821072Y-113516643D01*
X107758806Y-113516643D01*
X107754931Y-113513856D01*
X107740618Y-113512793D01*
X107731526Y-113513504D01*
X107726274Y-113508458D01*
X107726230Y-113508293D01*
X107721373Y-113503697D01*
X107710166Y-113504995D01*
X107709616Y-113505148D01*
X107699203Y-113506852D01*
X107693559Y-113505639D01*
X107693888Y-113501509D01*
X107698945Y-113493350D01*
X107706921Y-113484679D01*
X107710835Y-113481827D01*
X107821059Y-113481827D01*
X107822034Y-113483092D01*
X107827492Y-113480319D01*
X107830826Y-113477071D01*
X107828186Y-113476387D01*
X107825543Y-113477325D01*
X107821059Y-113481827D01*
X107710835Y-113481827D01*
X107715409Y-113478494D01*
X107718764Y-113476086D01*
X107722112Y-113469252D01*
X107720753Y-113466831D01*
X107715037Y-113468227D01*
X107714842Y-113468362D01*
X107711311Y-113468781D01*
X107710520Y-113462563D01*
X107711184Y-113457324D01*
X107815313Y-113457324D01*
X107816288Y-113458589D01*
X107821744Y-113455815D01*
X107825080Y-113452568D01*
X107822439Y-113451883D01*
X107819797Y-113452824D01*
X107815313Y-113457324D01*
X107711184Y-113457324D01*
X107712302Y-113448508D01*
X107713667Y-113439020D01*
X107714707Y-113427028D01*
X107714242Y-113421109D01*
X107713934Y-113420219D01*
X107714356Y-113412447D01*
X107716890Y-113400445D01*
X107717717Y-113397104D01*
X107719543Y-113385515D01*
X107718934Y-113378921D01*
X107718005Y-113376022D01*
X107717298Y-113369617D01*
X107801085Y-113369617D01*
X107801409Y-113372093D01*
X107805027Y-113378608D01*
X107813471Y-113389320D01*
X107815426Y-113390841D01*
X107814598Y-113388033D01*
X107809100Y-113379544D01*
X107805054Y-113374005D01*
X107801085Y-113369617D01*
X107717298Y-113369617D01*
X107716853Y-113365591D01*
X107716513Y-113351171D01*
X107716528Y-113349724D01*
X107716284Y-113336427D01*
X107714063Y-113327815D01*
X107708140Y-113320322D01*
X107696788Y-113310379D01*
X107686101Y-113300834D01*
X107679109Y-113291871D01*
X107676343Y-113281842D01*
X107677114Y-113268070D01*
X107680738Y-113247880D01*
X107684951Y-113230701D01*
X107689763Y-113220635D01*
X107696005Y-113216181D01*
X107702424Y-113215478D01*
X107709416Y-113218667D01*
X107712492Y-113220864D01*
X107719972Y-113219484D01*
X107728419Y-113215792D01*
X107740910Y-113212959D01*
X107744467Y-113212029D01*
X107756778Y-113206194D01*
X107772867Y-113196515D01*
X107790442Y-113184592D01*
X107807216Y-113172024D01*
X107820894Y-113160409D01*
X107829183Y-113151349D01*
X107829871Y-113150432D01*
X107838172Y-113143340D01*
X107850081Y-113136381D01*
X107857135Y-113132900D01*
X107873118Y-113124619D01*
X107889567Y-113115729D01*
X107893780Y-113113439D01*
X107908355Y-113107026D01*
X107921393Y-113105178D01*
X107937676Y-113107028D01*
G37*
D11*
%TO.C,J1*%
X109125000Y-105800000D02*
X110125000Y-105800000D01*
X109125000Y-105850000D02*
X109125000Y-106850000D01*
X109125000Y-109650000D02*
X109125000Y-108650000D01*
X109125000Y-109700000D02*
X110125000Y-109700000D01*
X113025000Y-105800000D02*
X114025000Y-105800000D01*
X114025000Y-105850000D02*
X114025000Y-106850000D01*
X114025000Y-109650000D02*
X114025000Y-108650000D01*
X114025000Y-109700000D02*
X113025000Y-109700000D01*
%TD*%
%LPC*%
D13*
%TO.C,REF\u002A\u002A*%
X111575000Y-120450000D03*
%TD*%
%TO.C,REF\u002A\u002A*%
X105225000Y-107750000D03*
%TD*%
D14*
%TO.C,J2*%
X103175000Y-118950000D03*
X107275000Y-118950000D03*
D15*
X104225000Y-122250000D03*
X104725000Y-122250000D03*
X105225000Y-122250000D03*
X105725000Y-122250000D03*
X106225000Y-122250000D03*
X104225000Y-118650000D03*
X104725000Y-118650000D03*
X105225000Y-118650000D03*
X105725000Y-118650000D03*
X106225000Y-118650000D03*
%TD*%
D14*
%TO.C,J1*%
X113625000Y-109250000D03*
X109525000Y-109250000D03*
D15*
X112575000Y-105950000D03*
X112075000Y-105950000D03*
X111575000Y-105950000D03*
X111075000Y-105950000D03*
X110575000Y-105950000D03*
X112575000Y-109550000D03*
X112075000Y-109550000D03*
X111575000Y-109550000D03*
X111075000Y-109550000D03*
X110575000Y-109550000D03*
%TD*%
%LPD*%
M02*
