%TF.GenerationSoftware,KiCad,Pcbnew,9.0.7*%
%TF.CreationDate,2026-03-31T12:59:19-05:00*%
%TF.ProjectId,color,636f6c6f-722e-46b6-9963-61645f706362,rev?*%
%TF.SameCoordinates,Original*%
%TF.FileFunction,Legend,Top*%
%TF.FilePolarity,Positive*%
%FSLAX46Y46*%
G04 Gerber Fmt 4.6, Leading zero omitted, Abs format (unit mm)*
G04 Created by KiCad (PCBNEW 9.0.7) date 2026-03-31 12:59:19*
%MOMM*%
%LPD*%
G01*
G04 APERTURE LIST*
G04 Aperture macros list*
%AMRoundRect*
0 Rectangle with rounded corners*
0 $1 Rounding radius*
0 $2 $3 $4 $5 $6 $7 $8 $9 X,Y pos of 4 corners*
0 Add a 4 corners polygon primitive as box body*
4,1,4,$2,$3,$4,$5,$6,$7,$8,$9,$2,$3,0*
0 Add four circle primitives for the rounded corners*
1,1,$1+$1,$2,$3*
1,1,$1+$1,$4,$5*
1,1,$1+$1,$6,$7*
1,1,$1+$1,$8,$9*
0 Add four rect primitives between the rounded corners*
20,1,$1+$1,$2,$3,$4,$5,0*
20,1,$1+$1,$4,$5,$6,$7,0*
20,1,$1+$1,$6,$7,$8,$9,0*
20,1,$1+$1,$8,$9,$2,$3,0*%
G04 Aperture macros list end*
%ADD10C,0.100000*%
%ADD11C,0.120000*%
%ADD12C,0.200000*%
%ADD13C,0.000000*%
%ADD14C,4.000000*%
%ADD15RoundRect,0.237500X0.300000X0.237500X-0.300000X0.237500X-0.300000X-0.237500X0.300000X-0.237500X0*%
%ADD16R,0.750000X0.250000*%
%ADD17R,0.600000X0.250000*%
%ADD18RoundRect,0.160000X0.160000X-0.197500X0.160000X0.197500X-0.160000X0.197500X-0.160000X-0.197500X0*%
%ADD19RoundRect,0.135000X-0.185000X0.135000X-0.185000X-0.135000X0.185000X-0.135000X0.185000X0.135000X0*%
%ADD20RoundRect,0.250000X0.450000X-0.325000X0.450000X0.325000X-0.450000X0.325000X-0.450000X-0.325000X0*%
%ADD21RoundRect,0.160000X-0.160000X0.197500X-0.160000X-0.197500X0.160000X-0.197500X0.160000X0.197500X0*%
%ADD22RoundRect,0.237500X-0.374772X0.077151X0.010901X-0.382475X0.374772X-0.077151X-0.010901X0.382475X0*%
%ADD23RoundRect,0.237500X-0.237500X0.300000X-0.237500X-0.300000X0.237500X-0.300000X0.237500X0.300000X0*%
%ADD24RoundRect,0.155000X-0.155000X0.212500X-0.155000X-0.212500X0.155000X-0.212500X0.155000X0.212500X0*%
%ADD25C,0.600000*%
G04 APERTURE END LIST*
D10*
X102556265Y-118133030D02*
X102556265Y-117333030D01*
X102556265Y-117333030D02*
X102746741Y-117333030D01*
X102746741Y-117333030D02*
X102861027Y-117371125D01*
X102861027Y-117371125D02*
X102937217Y-117447315D01*
X102937217Y-117447315D02*
X102975312Y-117523506D01*
X102975312Y-117523506D02*
X103013408Y-117675887D01*
X103013408Y-117675887D02*
X103013408Y-117790173D01*
X103013408Y-117790173D02*
X102975312Y-117942554D01*
X102975312Y-117942554D02*
X102937217Y-118018744D01*
X102937217Y-118018744D02*
X102861027Y-118094935D01*
X102861027Y-118094935D02*
X102746741Y-118133030D01*
X102746741Y-118133030D02*
X102556265Y-118133030D01*
X103661027Y-118094935D02*
X103584836Y-118133030D01*
X103584836Y-118133030D02*
X103432455Y-118133030D01*
X103432455Y-118133030D02*
X103356265Y-118094935D01*
X103356265Y-118094935D02*
X103318169Y-118018744D01*
X103318169Y-118018744D02*
X103318169Y-117713982D01*
X103318169Y-117713982D02*
X103356265Y-117637792D01*
X103356265Y-117637792D02*
X103432455Y-117599696D01*
X103432455Y-117599696D02*
X103584836Y-117599696D01*
X103584836Y-117599696D02*
X103661027Y-117637792D01*
X103661027Y-117637792D02*
X103699122Y-117713982D01*
X103699122Y-117713982D02*
X103699122Y-117790173D01*
X103699122Y-117790173D02*
X103318169Y-117866363D01*
X104003883Y-118094935D02*
X104080074Y-118133030D01*
X104080074Y-118133030D02*
X104232455Y-118133030D01*
X104232455Y-118133030D02*
X104308645Y-118094935D01*
X104308645Y-118094935D02*
X104346741Y-118018744D01*
X104346741Y-118018744D02*
X104346741Y-117980649D01*
X104346741Y-117980649D02*
X104308645Y-117904458D01*
X104308645Y-117904458D02*
X104232455Y-117866363D01*
X104232455Y-117866363D02*
X104118169Y-117866363D01*
X104118169Y-117866363D02*
X104041979Y-117828268D01*
X104041979Y-117828268D02*
X104003883Y-117752077D01*
X104003883Y-117752077D02*
X104003883Y-117713982D01*
X104003883Y-117713982D02*
X104041979Y-117637792D01*
X104041979Y-117637792D02*
X104118169Y-117599696D01*
X104118169Y-117599696D02*
X104232455Y-117599696D01*
X104232455Y-117599696D02*
X104308645Y-117637792D01*
X104689598Y-118133030D02*
X104689598Y-117599696D01*
X104689598Y-117333030D02*
X104651502Y-117371125D01*
X104651502Y-117371125D02*
X104689598Y-117409220D01*
X104689598Y-117409220D02*
X104727693Y-117371125D01*
X104727693Y-117371125D02*
X104689598Y-117333030D01*
X104689598Y-117333030D02*
X104689598Y-117409220D01*
X105413407Y-117599696D02*
X105413407Y-118247315D01*
X105413407Y-118247315D02*
X105375312Y-118323506D01*
X105375312Y-118323506D02*
X105337216Y-118361601D01*
X105337216Y-118361601D02*
X105261026Y-118399696D01*
X105261026Y-118399696D02*
X105146740Y-118399696D01*
X105146740Y-118399696D02*
X105070550Y-118361601D01*
X105413407Y-118094935D02*
X105337216Y-118133030D01*
X105337216Y-118133030D02*
X105184835Y-118133030D01*
X105184835Y-118133030D02*
X105108645Y-118094935D01*
X105108645Y-118094935D02*
X105070550Y-118056839D01*
X105070550Y-118056839D02*
X105032454Y-117980649D01*
X105032454Y-117980649D02*
X105032454Y-117752077D01*
X105032454Y-117752077D02*
X105070550Y-117675887D01*
X105070550Y-117675887D02*
X105108645Y-117637792D01*
X105108645Y-117637792D02*
X105184835Y-117599696D01*
X105184835Y-117599696D02*
X105337216Y-117599696D01*
X105337216Y-117599696D02*
X105413407Y-117637792D01*
X105794360Y-117599696D02*
X105794360Y-118133030D01*
X105794360Y-117675887D02*
X105832455Y-117637792D01*
X105832455Y-117637792D02*
X105908645Y-117599696D01*
X105908645Y-117599696D02*
X106022931Y-117599696D01*
X106022931Y-117599696D02*
X106099122Y-117637792D01*
X106099122Y-117637792D02*
X106137217Y-117713982D01*
X106137217Y-117713982D02*
X106137217Y-118133030D01*
X106822932Y-118094935D02*
X106746741Y-118133030D01*
X106746741Y-118133030D02*
X106594360Y-118133030D01*
X106594360Y-118133030D02*
X106518170Y-118094935D01*
X106518170Y-118094935D02*
X106480074Y-118018744D01*
X106480074Y-118018744D02*
X106480074Y-117713982D01*
X106480074Y-117713982D02*
X106518170Y-117637792D01*
X106518170Y-117637792D02*
X106594360Y-117599696D01*
X106594360Y-117599696D02*
X106746741Y-117599696D01*
X106746741Y-117599696D02*
X106822932Y-117637792D01*
X106822932Y-117637792D02*
X106861027Y-117713982D01*
X106861027Y-117713982D02*
X106861027Y-117790173D01*
X106861027Y-117790173D02*
X106480074Y-117866363D01*
X107546741Y-118133030D02*
X107546741Y-117333030D01*
X107546741Y-118094935D02*
X107470550Y-118133030D01*
X107470550Y-118133030D02*
X107318169Y-118133030D01*
X107318169Y-118133030D02*
X107241979Y-118094935D01*
X107241979Y-118094935D02*
X107203884Y-118056839D01*
X107203884Y-118056839D02*
X107165788Y-117980649D01*
X107165788Y-117980649D02*
X107165788Y-117752077D01*
X107165788Y-117752077D02*
X107203884Y-117675887D01*
X107203884Y-117675887D02*
X107241979Y-117637792D01*
X107241979Y-117637792D02*
X107318169Y-117599696D01*
X107318169Y-117599696D02*
X107470550Y-117599696D01*
X107470550Y-117599696D02*
X107546741Y-117637792D01*
X108803884Y-117713982D02*
X108918170Y-117752077D01*
X108918170Y-117752077D02*
X108956265Y-117790173D01*
X108956265Y-117790173D02*
X108994361Y-117866363D01*
X108994361Y-117866363D02*
X108994361Y-117980649D01*
X108994361Y-117980649D02*
X108956265Y-118056839D01*
X108956265Y-118056839D02*
X108918170Y-118094935D01*
X108918170Y-118094935D02*
X108841980Y-118133030D01*
X108841980Y-118133030D02*
X108537218Y-118133030D01*
X108537218Y-118133030D02*
X108537218Y-117333030D01*
X108537218Y-117333030D02*
X108803884Y-117333030D01*
X108803884Y-117333030D02*
X108880075Y-117371125D01*
X108880075Y-117371125D02*
X108918170Y-117409220D01*
X108918170Y-117409220D02*
X108956265Y-117485411D01*
X108956265Y-117485411D02*
X108956265Y-117561601D01*
X108956265Y-117561601D02*
X108918170Y-117637792D01*
X108918170Y-117637792D02*
X108880075Y-117675887D01*
X108880075Y-117675887D02*
X108803884Y-117713982D01*
X108803884Y-117713982D02*
X108537218Y-117713982D01*
X109261027Y-117599696D02*
X109451503Y-118133030D01*
X109641980Y-117599696D02*
X109451503Y-118133030D01*
X109451503Y-118133030D02*
X109375313Y-118323506D01*
X109375313Y-118323506D02*
X109337218Y-118361601D01*
X109337218Y-118361601D02*
X109261027Y-118399696D01*
X109946742Y-118056839D02*
X109984837Y-118094935D01*
X109984837Y-118094935D02*
X109946742Y-118133030D01*
X109946742Y-118133030D02*
X109908646Y-118094935D01*
X109908646Y-118094935D02*
X109946742Y-118056839D01*
X109946742Y-118056839D02*
X109946742Y-118133030D01*
X109946742Y-117637792D02*
X109984837Y-117675887D01*
X109984837Y-117675887D02*
X109946742Y-117713982D01*
X109946742Y-117713982D02*
X109908646Y-117675887D01*
X109908646Y-117675887D02*
X109946742Y-117637792D01*
X109946742Y-117637792D02*
X109946742Y-117713982D01*
X102975312Y-119947035D02*
X102899122Y-119908940D01*
X102899122Y-119908940D02*
X102784836Y-119908940D01*
X102784836Y-119908940D02*
X102670550Y-119947035D01*
X102670550Y-119947035D02*
X102594360Y-120023225D01*
X102594360Y-120023225D02*
X102556265Y-120099416D01*
X102556265Y-120099416D02*
X102518169Y-120251797D01*
X102518169Y-120251797D02*
X102518169Y-120366083D01*
X102518169Y-120366083D02*
X102556265Y-120518464D01*
X102556265Y-120518464D02*
X102594360Y-120594654D01*
X102594360Y-120594654D02*
X102670550Y-120670845D01*
X102670550Y-120670845D02*
X102784836Y-120708940D01*
X102784836Y-120708940D02*
X102861027Y-120708940D01*
X102861027Y-120708940D02*
X102975312Y-120670845D01*
X102975312Y-120670845D02*
X103013408Y-120632749D01*
X103013408Y-120632749D02*
X103013408Y-120366083D01*
X103013408Y-120366083D02*
X102861027Y-120366083D01*
X103661027Y-120670845D02*
X103584836Y-120708940D01*
X103584836Y-120708940D02*
X103432455Y-120708940D01*
X103432455Y-120708940D02*
X103356265Y-120670845D01*
X103356265Y-120670845D02*
X103318169Y-120594654D01*
X103318169Y-120594654D02*
X103318169Y-120289892D01*
X103318169Y-120289892D02*
X103356265Y-120213702D01*
X103356265Y-120213702D02*
X103432455Y-120175606D01*
X103432455Y-120175606D02*
X103584836Y-120175606D01*
X103584836Y-120175606D02*
X103661027Y-120213702D01*
X103661027Y-120213702D02*
X103699122Y-120289892D01*
X103699122Y-120289892D02*
X103699122Y-120366083D01*
X103699122Y-120366083D02*
X103318169Y-120442273D01*
X104041979Y-120175606D02*
X104041979Y-120708940D01*
X104041979Y-120251797D02*
X104080074Y-120213702D01*
X104080074Y-120213702D02*
X104156264Y-120175606D01*
X104156264Y-120175606D02*
X104270550Y-120175606D01*
X104270550Y-120175606D02*
X104346741Y-120213702D01*
X104346741Y-120213702D02*
X104384836Y-120289892D01*
X104384836Y-120289892D02*
X104384836Y-120708940D01*
X105108646Y-120175606D02*
X105108646Y-120823225D01*
X105108646Y-120823225D02*
X105070551Y-120899416D01*
X105070551Y-120899416D02*
X105032455Y-120937511D01*
X105032455Y-120937511D02*
X104956265Y-120975606D01*
X104956265Y-120975606D02*
X104841979Y-120975606D01*
X104841979Y-120975606D02*
X104765789Y-120937511D01*
X105108646Y-120670845D02*
X105032455Y-120708940D01*
X105032455Y-120708940D02*
X104880074Y-120708940D01*
X104880074Y-120708940D02*
X104803884Y-120670845D01*
X104803884Y-120670845D02*
X104765789Y-120632749D01*
X104765789Y-120632749D02*
X104727693Y-120556559D01*
X104727693Y-120556559D02*
X104727693Y-120327987D01*
X104727693Y-120327987D02*
X104765789Y-120251797D01*
X104765789Y-120251797D02*
X104803884Y-120213702D01*
X104803884Y-120213702D02*
X104880074Y-120175606D01*
X104880074Y-120175606D02*
X105032455Y-120175606D01*
X105032455Y-120175606D02*
X105108646Y-120213702D01*
X105413408Y-120175606D02*
X105565789Y-120708940D01*
X105565789Y-120708940D02*
X105718170Y-120327987D01*
X105718170Y-120327987D02*
X105870551Y-120708940D01*
X105870551Y-120708940D02*
X106022932Y-120175606D01*
X106632456Y-120670845D02*
X106556265Y-120708940D01*
X106556265Y-120708940D02*
X106403884Y-120708940D01*
X106403884Y-120708940D02*
X106327694Y-120670845D01*
X106327694Y-120670845D02*
X106289598Y-120594654D01*
X106289598Y-120594654D02*
X106289598Y-120289892D01*
X106289598Y-120289892D02*
X106327694Y-120213702D01*
X106327694Y-120213702D02*
X106403884Y-120175606D01*
X106403884Y-120175606D02*
X106556265Y-120175606D01*
X106556265Y-120175606D02*
X106632456Y-120213702D01*
X106632456Y-120213702D02*
X106670551Y-120289892D01*
X106670551Y-120289892D02*
X106670551Y-120366083D01*
X106670551Y-120366083D02*
X106289598Y-120442273D01*
X107013408Y-120175606D02*
X107013408Y-120708940D01*
X107013408Y-120251797D02*
X107051503Y-120213702D01*
X107051503Y-120213702D02*
X107127693Y-120175606D01*
X107127693Y-120175606D02*
X107241979Y-120175606D01*
X107241979Y-120175606D02*
X107318170Y-120213702D01*
X107318170Y-120213702D02*
X107356265Y-120289892D01*
X107356265Y-120289892D02*
X107356265Y-120708940D01*
X108727694Y-120708940D02*
X108346742Y-120708940D01*
X108346742Y-120708940D02*
X108346742Y-119908940D01*
X108994361Y-120708940D02*
X108994361Y-120175606D01*
X108994361Y-119908940D02*
X108956265Y-119947035D01*
X108956265Y-119947035D02*
X108994361Y-119985130D01*
X108994361Y-119985130D02*
X109032456Y-119947035D01*
X109032456Y-119947035D02*
X108994361Y-119908940D01*
X108994361Y-119908940D02*
X108994361Y-119985130D01*
X102441979Y-121196895D02*
X102899122Y-121196895D01*
X102670550Y-121996895D02*
X102670550Y-121196895D01*
X103165789Y-121996895D02*
X103165789Y-121463561D01*
X103165789Y-121615942D02*
X103203884Y-121539752D01*
X103203884Y-121539752D02*
X103241979Y-121501657D01*
X103241979Y-121501657D02*
X103318170Y-121463561D01*
X103318170Y-121463561D02*
X103394360Y-121463561D01*
X104003884Y-121463561D02*
X104003884Y-121996895D01*
X103661027Y-121463561D02*
X103661027Y-121882609D01*
X103661027Y-121882609D02*
X103699122Y-121958800D01*
X103699122Y-121958800D02*
X103775312Y-121996895D01*
X103775312Y-121996895D02*
X103889598Y-121996895D01*
X103889598Y-121996895D02*
X103965789Y-121958800D01*
X103965789Y-121958800D02*
X104003884Y-121920704D01*
X104384837Y-121463561D02*
X104384837Y-121996895D01*
X104384837Y-121539752D02*
X104422932Y-121501657D01*
X104422932Y-121501657D02*
X104499122Y-121463561D01*
X104499122Y-121463561D02*
X104613408Y-121463561D01*
X104613408Y-121463561D02*
X104689599Y-121501657D01*
X104689599Y-121501657D02*
X104727694Y-121577847D01*
X104727694Y-121577847D02*
X104727694Y-121996895D01*
X105451504Y-121463561D02*
X105451504Y-122111180D01*
X105451504Y-122111180D02*
X105413409Y-122187371D01*
X105413409Y-122187371D02*
X105375313Y-122225466D01*
X105375313Y-122225466D02*
X105299123Y-122263561D01*
X105299123Y-122263561D02*
X105184837Y-122263561D01*
X105184837Y-122263561D02*
X105108647Y-122225466D01*
X105451504Y-121958800D02*
X105375313Y-121996895D01*
X105375313Y-121996895D02*
X105222932Y-121996895D01*
X105222932Y-121996895D02*
X105146742Y-121958800D01*
X105146742Y-121958800D02*
X105108647Y-121920704D01*
X105108647Y-121920704D02*
X105070551Y-121844514D01*
X105070551Y-121844514D02*
X105070551Y-121615942D01*
X105070551Y-121615942D02*
X105108647Y-121539752D01*
X105108647Y-121539752D02*
X105146742Y-121501657D01*
X105146742Y-121501657D02*
X105222932Y-121463561D01*
X105222932Y-121463561D02*
X105375313Y-121463561D01*
X105375313Y-121463561D02*
X105451504Y-121501657D01*
X106822933Y-121996895D02*
X106441981Y-121996895D01*
X106441981Y-121996895D02*
X106441981Y-121196895D01*
X107394362Y-121958800D02*
X107318171Y-121996895D01*
X107318171Y-121996895D02*
X107165790Y-121996895D01*
X107165790Y-121996895D02*
X107089600Y-121958800D01*
X107089600Y-121958800D02*
X107051504Y-121882609D01*
X107051504Y-121882609D02*
X107051504Y-121577847D01*
X107051504Y-121577847D02*
X107089600Y-121501657D01*
X107089600Y-121501657D02*
X107165790Y-121463561D01*
X107165790Y-121463561D02*
X107318171Y-121463561D01*
X107318171Y-121463561D02*
X107394362Y-121501657D01*
X107394362Y-121501657D02*
X107432457Y-121577847D01*
X107432457Y-121577847D02*
X107432457Y-121654038D01*
X107432457Y-121654038D02*
X107051504Y-121730228D01*
D11*
%TO.C,C1*%
X107746267Y-115890000D02*
X107453733Y-115890000D01*
X107746267Y-116910000D02*
X107453733Y-116910000D01*
D12*
%TO.C,IC2*%
X106600000Y-113299999D02*
X106600000Y-113299999D01*
X106600000Y-113500000D02*
X106600000Y-113500000D01*
D10*
X107175000Y-113075000D02*
X108825000Y-113075000D01*
X107175000Y-114725000D02*
X108825000Y-114725000D01*
D12*
X106600000Y-113299999D02*
G75*
G02*
X106600000Y-113499999I-1J-100000D01*
G01*
X106600000Y-113500000D02*
G75*
G02*
X106600000Y-113299998I1J100001D01*
G01*
D11*
%TO.C,R15*%
X111369999Y-113362621D02*
X111369999Y-113027379D01*
X112130001Y-113362621D02*
X112130001Y-113027379D01*
%TO.C,R18*%
X113620000Y-115546359D02*
X113620000Y-115853641D01*
X114380000Y-115546359D02*
X114380000Y-115853641D01*
%TO.C,D2*%
X112540000Y-111500000D02*
X112540000Y-114360000D01*
X112540000Y-114360000D02*
X114460000Y-114360000D01*
X114460000Y-114360000D02*
X114460000Y-111500000D01*
%TO.C,R17*%
X102620000Y-115956358D02*
X102620000Y-116263640D01*
X103380000Y-115956358D02*
X103380000Y-116263640D01*
D13*
%TO.C,G\u002A\u002A\u002A*%
G36*
X112904146Y-105604084D02*
G01*
X112983327Y-105611578D01*
X113055866Y-105632618D01*
X113121200Y-105666876D01*
X113178765Y-105714020D01*
X113227996Y-105773724D01*
X113247142Y-105804355D01*
X113273562Y-105864002D01*
X113289378Y-105929902D01*
X113294382Y-105998240D01*
X113288364Y-106065199D01*
X113271114Y-106126963D01*
X113265568Y-106139961D01*
X113248925Y-106176254D01*
X113111024Y-105968098D01*
X113071459Y-105908647D01*
X113038967Y-105860536D01*
X113012473Y-105822326D01*
X112990902Y-105792580D01*
X112973178Y-105769859D01*
X112958227Y-105752726D01*
X112944972Y-105739742D01*
X112932951Y-105729925D01*
X112894950Y-105699219D01*
X112864726Y-105670103D01*
X112844017Y-105644472D01*
X112834563Y-105624219D01*
X112834285Y-105622411D01*
X112832159Y-105603550D01*
X112904146Y-105604084D01*
G37*
G36*
X109956353Y-105600439D02*
G01*
X109962725Y-105603320D01*
X109962467Y-105608026D01*
X109957736Y-105616671D01*
X109946105Y-105636593D01*
X109928555Y-105666174D01*
X109906066Y-105703796D01*
X109879618Y-105747841D01*
X109850191Y-105796690D01*
X109818765Y-105848727D01*
X109786322Y-105902333D01*
X109753840Y-105955890D01*
X109722301Y-106007781D01*
X109692684Y-106056386D01*
X109665970Y-106100089D01*
X109643138Y-106137272D01*
X109625170Y-106166316D01*
X109613046Y-106185603D01*
X109607746Y-106193515D01*
X109599986Y-106192765D01*
X109590232Y-106182149D01*
X109568536Y-106137260D01*
X109553588Y-106082842D01*
X109545776Y-106023121D01*
X109545487Y-105962323D01*
X109553107Y-105904673D01*
X109561908Y-105872553D01*
X109593877Y-105801330D01*
X109637250Y-105739532D01*
X109690941Y-105687996D01*
X109753867Y-105647559D01*
X109824943Y-105619058D01*
X109903086Y-105603330D01*
X109911734Y-105602447D01*
X109940233Y-105600244D01*
X109956353Y-105600439D01*
G37*
G36*
X110290127Y-105826666D02*
G01*
X110297956Y-105847722D01*
X110306356Y-105876061D01*
X110314285Y-105907862D01*
X110320702Y-105939307D01*
X110324469Y-105965550D01*
X110323944Y-106034599D01*
X110309706Y-106102631D01*
X110283162Y-106167604D01*
X110245719Y-106227474D01*
X110198785Y-106280199D01*
X110143766Y-106323735D01*
X110082070Y-106356039D01*
X110047404Y-106367835D01*
X110014905Y-106375968D01*
X109983998Y-106382083D01*
X109957976Y-106385718D01*
X109940129Y-106386409D01*
X109933740Y-106383831D01*
X109937558Y-106375575D01*
X109948357Y-106356285D01*
X109965157Y-106327550D01*
X109986979Y-106290957D01*
X110012842Y-106248094D01*
X110041766Y-106200547D01*
X110072771Y-106149905D01*
X110104876Y-106097754D01*
X110137102Y-106045682D01*
X110168469Y-105995277D01*
X110197996Y-105948125D01*
X110224703Y-105905814D01*
X110247611Y-105869932D01*
X110265738Y-105842066D01*
X110278105Y-105823803D01*
X110283732Y-105816731D01*
X110283909Y-105816711D01*
X110290127Y-105826666D01*
G37*
G36*
X112607014Y-105760606D02*
G01*
X112619265Y-105776211D01*
X112633147Y-105802376D01*
X112646921Y-105834884D01*
X112658842Y-105869521D01*
X112667169Y-105902071D01*
X112668474Y-105909318D01*
X112671336Y-105923492D01*
X112675884Y-105938495D01*
X112682971Y-105955930D01*
X112693448Y-105977402D01*
X112708169Y-106004517D01*
X112727985Y-106038878D01*
X112753749Y-106082092D01*
X112786311Y-106135763D01*
X112804640Y-106165764D01*
X112844536Y-106231514D01*
X112876228Y-106284952D01*
X112899890Y-106326394D01*
X112915698Y-106356157D01*
X112923827Y-106374557D01*
X112924456Y-106381908D01*
X112918207Y-106385093D01*
X112909954Y-106386417D01*
X112896156Y-106385799D01*
X112873271Y-106383158D01*
X112851103Y-106380217D01*
X112779083Y-106363080D01*
X112712095Y-106332583D01*
X112651857Y-106290152D01*
X112600087Y-106237217D01*
X112558504Y-106175204D01*
X112531969Y-106115035D01*
X112522934Y-106084357D01*
X112517670Y-106053262D01*
X112515410Y-106016053D01*
X112515173Y-105990005D01*
X112518575Y-105928586D01*
X112529354Y-105876013D01*
X112548925Y-105827200D01*
X112571326Y-105788277D01*
X112585439Y-105767600D01*
X112594971Y-105758111D01*
X112602627Y-105757714D01*
X112607014Y-105760606D01*
G37*
G36*
X110356487Y-104984847D02*
G01*
X110363148Y-104990057D01*
X110360327Y-104998874D01*
X110350800Y-105018273D01*
X110335811Y-105045933D01*
X110316607Y-105079534D01*
X110300949Y-105105968D01*
X110236043Y-105214010D01*
X110277966Y-105292167D01*
X110295348Y-105323735D01*
X110310985Y-105350612D01*
X110323076Y-105369799D01*
X110329514Y-105378075D01*
X110340466Y-105381265D01*
X110363290Y-105384295D01*
X110394702Y-105386832D01*
X110431421Y-105388545D01*
X110433320Y-105388602D01*
X110527501Y-105391378D01*
X110596066Y-105279609D01*
X110618703Y-105243158D01*
X110638777Y-105211684D01*
X110654911Y-105187279D01*
X110665726Y-105172035D01*
X110669664Y-105167840D01*
X110677310Y-105174832D01*
X110685467Y-105193603D01*
X110693237Y-105220841D01*
X110699722Y-105253233D01*
X110704022Y-105287470D01*
X110704721Y-105297076D01*
X110703083Y-105368231D01*
X110688691Y-105432158D01*
X110660818Y-105490851D01*
X110618738Y-105546302D01*
X110610680Y-105554961D01*
X110561907Y-105596323D01*
X110504530Y-105628822D01*
X110442617Y-105650685D01*
X110380240Y-105660135D01*
X110368983Y-105660381D01*
X110363990Y-105659935D01*
X110359893Y-105659155D01*
X110356128Y-105658884D01*
X110352133Y-105659962D01*
X110347347Y-105663231D01*
X110341205Y-105669530D01*
X110333147Y-105679702D01*
X110322610Y-105694588D01*
X110309031Y-105715027D01*
X110291848Y-105741862D01*
X110270499Y-105775933D01*
X110244421Y-105818082D01*
X110213051Y-105869148D01*
X110175828Y-105929974D01*
X110132189Y-106001401D01*
X110081572Y-106084269D01*
X110039615Y-106152923D01*
X109982566Y-106246257D01*
X109932887Y-106327531D01*
X109890012Y-106397599D01*
X109853378Y-106457313D01*
X109822421Y-106507529D01*
X109796578Y-106549099D01*
X109775285Y-106582877D01*
X109757978Y-106609716D01*
X109744094Y-106630471D01*
X109733068Y-106645994D01*
X109724337Y-106657139D01*
X109717337Y-106664760D01*
X109711505Y-106669710D01*
X109706277Y-106672843D01*
X109701088Y-106675012D01*
X109695376Y-106677071D01*
X109692781Y-106678071D01*
X109653563Y-106689492D01*
X109612538Y-106694379D01*
X109575799Y-106692221D01*
X109562797Y-106688986D01*
X109529152Y-106670880D01*
X109500076Y-106642446D01*
X109477576Y-106607307D01*
X109466497Y-106576881D01*
X109550542Y-106576881D01*
X109559201Y-106599919D01*
X109578339Y-106618140D01*
X109587508Y-106622659D01*
X109612804Y-106629202D01*
X109633865Y-106624360D01*
X109648560Y-106614605D01*
X109665212Y-106593502D01*
X109669847Y-106569011D01*
X109663872Y-106544773D01*
X109648695Y-106524431D01*
X109625724Y-106511626D01*
X109607758Y-106509069D01*
X109580969Y-106515120D01*
X109562072Y-106530856D01*
X109551714Y-106552651D01*
X109550542Y-106576881D01*
X109466497Y-106576881D01*
X109463659Y-106569087D01*
X109460332Y-106531410D01*
X109464154Y-106510883D01*
X109468395Y-106499168D01*
X109474854Y-106484389D01*
X109484018Y-106465710D01*
X109496374Y-106442289D01*
X109512410Y-106413291D01*
X109532613Y-106377876D01*
X109557470Y-106335205D01*
X109587468Y-106284441D01*
X109623096Y-106224744D01*
X109664839Y-106155277D01*
X109713186Y-106075202D01*
X109768623Y-105983679D01*
X109814700Y-105907757D01*
X110071726Y-105484518D01*
X110059674Y-105456892D01*
X110039295Y-105392332D01*
X110032496Y-105325755D01*
X110038605Y-105259437D01*
X110056953Y-105195656D01*
X110086869Y-105136691D01*
X110127682Y-105084818D01*
X110178723Y-105042317D01*
X110182399Y-105039920D01*
X110212326Y-105023192D01*
X110245836Y-105008395D01*
X110279969Y-104996345D01*
X110311763Y-104987859D01*
X110338256Y-104983754D01*
X110356487Y-104984847D01*
G37*
G36*
X112225416Y-104851261D02*
G01*
X112246855Y-104875856D01*
X112263737Y-104897321D01*
X112273767Y-104912626D01*
X112275541Y-104917482D01*
X112277322Y-104930226D01*
X112282517Y-104946160D01*
X112291896Y-104966642D01*
X112306231Y-104993027D01*
X112326293Y-105026673D01*
X112352850Y-105068936D01*
X112386675Y-105121173D01*
X112420066Y-105171935D01*
X112456193Y-105226748D01*
X112493674Y-105283886D01*
X112530530Y-105340316D01*
X112564787Y-105393006D01*
X112594467Y-105438922D01*
X112616198Y-105472837D01*
X112639609Y-105509124D01*
X112660454Y-105540493D01*
X112677313Y-105564879D01*
X112688764Y-105580219D01*
X112693175Y-105584606D01*
X112702331Y-105580838D01*
X112719770Y-105571126D01*
X112734891Y-105561861D01*
X112755265Y-105550395D01*
X112770447Y-105544524D01*
X112775893Y-105544811D01*
X112780585Y-105554395D01*
X112788171Y-105574351D01*
X112797097Y-105600565D01*
X112798061Y-105603550D01*
X112812625Y-105644691D01*
X112827777Y-105675391D01*
X112846796Y-105700119D01*
X112872963Y-105723349D01*
X112900754Y-105743516D01*
X112922410Y-105759010D01*
X112940322Y-105773624D01*
X112956666Y-105789850D01*
X112973618Y-105810184D01*
X112993351Y-105837120D01*
X113018042Y-105873151D01*
X113032073Y-105894079D01*
X113053892Y-105926947D01*
X113080980Y-105968083D01*
X113112115Y-106015598D01*
X113146072Y-106067607D01*
X113181629Y-106122222D01*
X113217560Y-106177555D01*
X113252643Y-106231721D01*
X113285653Y-106282831D01*
X113315368Y-106328998D01*
X113340563Y-106368336D01*
X113360014Y-106398958D01*
X113372499Y-106418975D01*
X113373294Y-106420283D01*
X113390656Y-106448950D01*
X113365256Y-106491233D01*
X113326616Y-106542419D01*
X113279916Y-106581606D01*
X113226459Y-106607916D01*
X113174865Y-106619719D01*
X113148661Y-106621593D01*
X113132362Y-106619041D01*
X113121634Y-106611811D01*
X113114764Y-106602535D01*
X113100847Y-106581747D01*
X113080767Y-106550853D01*
X113055405Y-106511256D01*
X113025646Y-106464360D01*
X112992372Y-106411570D01*
X112956466Y-106354290D01*
X112918810Y-106293923D01*
X112880288Y-106231874D01*
X112841782Y-106169547D01*
X112804176Y-106108346D01*
X112773543Y-106058204D01*
X112747996Y-106015580D01*
X112729370Y-105982471D01*
X112716218Y-105955756D01*
X112707090Y-105932315D01*
X112700539Y-105909030D01*
X112697252Y-105893883D01*
X112686620Y-105848493D01*
X112673984Y-105813849D01*
X112656818Y-105785552D01*
X112632593Y-105759203D01*
X112607237Y-105737227D01*
X112584162Y-105717916D01*
X112566403Y-105702179D01*
X112556646Y-105692435D01*
X112555578Y-105690686D01*
X112561173Y-105684252D01*
X112575751Y-105671800D01*
X112593600Y-105657963D01*
X112614365Y-105641578D01*
X112624537Y-105630363D01*
X112626251Y-105621265D01*
X112623746Y-105614860D01*
X112617531Y-105604506D01*
X112604152Y-105583073D01*
X112584669Y-105552213D01*
X112560140Y-105513577D01*
X112531621Y-105468818D01*
X112500172Y-105419589D01*
X112466849Y-105367541D01*
X112432712Y-105314326D01*
X112398817Y-105261598D01*
X112366224Y-105211007D01*
X112335989Y-105164207D01*
X112309171Y-105122849D01*
X112286828Y-105088586D01*
X112283751Y-105083891D01*
X112253209Y-105038982D01*
X112228771Y-105006645D01*
X112210720Y-104987230D01*
X112202246Y-104981594D01*
X112190811Y-104973980D01*
X112178806Y-104958164D01*
X112164706Y-104931821D01*
X112153206Y-104906853D01*
X112140690Y-104876915D01*
X112131525Y-104851626D01*
X112126905Y-104834482D01*
X112126803Y-104829580D01*
X112135615Y-104819755D01*
X112151985Y-104808939D01*
X112153039Y-104808385D01*
X112175624Y-104796706D01*
X112225416Y-104851261D01*
G37*
G36*
X111481726Y-105419191D02*
G01*
X111540942Y-105423107D01*
X111587611Y-105429118D01*
X111703665Y-105456887D01*
X111813678Y-105498043D01*
X111916748Y-105551718D01*
X112011972Y-105617043D01*
X112098451Y-105693148D01*
X112175280Y-105779164D01*
X112241560Y-105874223D01*
X112296388Y-105977455D01*
X112338862Y-106087991D01*
X112362175Y-106175656D01*
X112367456Y-106208600D01*
X112372209Y-106256130D01*
X112376391Y-106317682D01*
X112379958Y-106392696D01*
X112381182Y-106425715D01*
X112385027Y-106532649D01*
X112388872Y-106625909D01*
X112392997Y-106706974D01*
X112397684Y-106777324D01*
X112403216Y-106838437D01*
X112409872Y-106891792D01*
X112417935Y-106938869D01*
X112427686Y-106981145D01*
X112439407Y-107020101D01*
X112453378Y-107057215D01*
X112469882Y-107093965D01*
X112489199Y-107131832D01*
X112511611Y-107172293D01*
X112528980Y-107202416D01*
X112548186Y-107235512D01*
X112566858Y-107267889D01*
X112582188Y-107294672D01*
X112588046Y-107305015D01*
X112600765Y-107323933D01*
X112621257Y-107350288D01*
X112646732Y-107380646D01*
X112674405Y-107411572D01*
X112675476Y-107412728D01*
X112712665Y-107454686D01*
X112739141Y-107489660D01*
X112756105Y-107520029D01*
X112764757Y-107548177D01*
X112766300Y-107576483D01*
X112764960Y-107590153D01*
X112752504Y-107640193D01*
X112728584Y-107686935D01*
X112691773Y-107732876D01*
X112672378Y-107752293D01*
X112644327Y-107778945D01*
X112610272Y-107811315D01*
X112575189Y-107844675D01*
X112552816Y-107865956D01*
X112509292Y-107909546D01*
X112468210Y-107955636D01*
X112427083Y-108007293D01*
X112383422Y-108067581D01*
X112353259Y-108111724D01*
X112303525Y-108178235D01*
X112253186Y-108230110D01*
X112201515Y-108267871D01*
X112147787Y-108292035D01*
X112091277Y-108303124D01*
X112085500Y-108303530D01*
X112051263Y-108303737D01*
X112012345Y-108300238D01*
X111966886Y-108292665D01*
X111913025Y-108280646D01*
X111848900Y-108263813D01*
X111772652Y-108241793D01*
X111767865Y-108240363D01*
X111693268Y-108218500D01*
X111630609Y-108201301D01*
X111577553Y-108188333D01*
X111531765Y-108179165D01*
X111490911Y-108173364D01*
X111452655Y-108170497D01*
X111414663Y-108170134D01*
X111392422Y-108170872D01*
X111358563Y-108172820D01*
X111327456Y-108175703D01*
X111296618Y-108180051D01*
X111263563Y-108186393D01*
X111225808Y-108195259D01*
X111180868Y-108207178D01*
X111126259Y-108222678D01*
X111065283Y-108240576D01*
X110985221Y-108263577D01*
X110917566Y-108281293D01*
X110860609Y-108293958D01*
X110812643Y-108301802D01*
X110771958Y-108305058D01*
X110736847Y-108303957D01*
X110705600Y-108298731D01*
X110683919Y-108292330D01*
X110640402Y-108272275D01*
X110595842Y-108243573D01*
X110556788Y-108210695D01*
X110543133Y-108196173D01*
X110528134Y-108177310D01*
X110507588Y-108149612D01*
X110484275Y-108116907D01*
X110462449Y-108085202D01*
X110422117Y-108027055D01*
X110385236Y-107977863D01*
X110348516Y-107933851D01*
X110308667Y-107891247D01*
X110262400Y-107846276D01*
X110221115Y-107808372D01*
X110174320Y-107764949D01*
X110138330Y-107728365D01*
X110111731Y-107696497D01*
X110093106Y-107667223D01*
X110081038Y-107638421D01*
X110074112Y-107607969D01*
X110071544Y-107584254D01*
X110071337Y-107556555D01*
X110075863Y-107531047D01*
X110086414Y-107505288D01*
X110104286Y-107476834D01*
X110130771Y-107443241D01*
X110167163Y-107402066D01*
X110169157Y-107399883D01*
X110196866Y-107368335D01*
X110222409Y-107336994D01*
X110243070Y-107309338D01*
X110256133Y-107288846D01*
X110256740Y-107287677D01*
X110270681Y-107261624D01*
X110288639Y-107229992D01*
X110305152Y-107202235D01*
X110341018Y-107139936D01*
X110371290Y-107079894D01*
X110393920Y-107026229D01*
X110397289Y-107016800D01*
X110408358Y-106978267D01*
X110418109Y-106930322D01*
X110426619Y-106872118D01*
X110433970Y-106802810D01*
X110440239Y-106721551D01*
X110445508Y-106627494D01*
X110449854Y-106519794D01*
X110450018Y-106514300D01*
X110908364Y-106514300D01*
X110914504Y-106561161D01*
X110932577Y-106605145D01*
X110962566Y-106643215D01*
X110963037Y-106643660D01*
X111001547Y-106670251D01*
X111046920Y-106686164D01*
X111094889Y-106690672D01*
X111141190Y-106683048D01*
X111157517Y-106676793D01*
X111189022Y-106656678D01*
X111218853Y-106627785D01*
X111242292Y-106595253D01*
X111252157Y-106573719D01*
X111256806Y-106550115D01*
X111258565Y-106523688D01*
X111573438Y-106523688D01*
X111577989Y-106554189D01*
X111596788Y-106602639D01*
X111627528Y-106641838D01*
X111669796Y-106671261D01*
X111670203Y-106671468D01*
X111696069Y-106683123D01*
X111718760Y-106688796D01*
X111745642Y-106689925D01*
X111761501Y-106689312D01*
X111793386Y-106686323D01*
X111816804Y-106679973D01*
X111838383Y-106668242D01*
X111844643Y-106663968D01*
X111883756Y-106629979D01*
X111909278Y-106591603D01*
X111922645Y-106546421D01*
X111924668Y-106529177D01*
X111926075Y-106498997D01*
X111923551Y-106476298D01*
X111915741Y-106453624D01*
X111907885Y-106436790D01*
X111879298Y-106393763D01*
X111841365Y-106362656D01*
X111793827Y-106343260D01*
X111789899Y-106342280D01*
X111741081Y-106337622D01*
X111695147Y-106346235D01*
X111653946Y-106366272D01*
X111619327Y-106395884D01*
X111593137Y-106433223D01*
X111577225Y-106476440D01*
X111573438Y-106523688D01*
X111258565Y-106523688D01*
X111258863Y-106519212D01*
X111258406Y-106497109D01*
X111249068Y-106449056D01*
X111227174Y-106408536D01*
X111191921Y-106374266D01*
X111173708Y-106361903D01*
X111149877Y-106348855D01*
X111127864Y-106341976D01*
X111100631Y-106339428D01*
X111086801Y-106339211D01*
X111041168Y-106343017D01*
X111003487Y-106356183D01*
X110968448Y-106380728D01*
X110961701Y-106386798D01*
X110931947Y-106424084D01*
X110914173Y-106467596D01*
X110908364Y-106514300D01*
X110450018Y-106514300D01*
X110452597Y-106428030D01*
X110454438Y-106375300D01*
X110457089Y-106323212D01*
X110460309Y-106275298D01*
X110463859Y-106235092D01*
X110467497Y-106206124D01*
X110467886Y-106203808D01*
X110495190Y-106090210D01*
X110535989Y-105982071D01*
X110589298Y-105880373D01*
X110654132Y-105786100D01*
X110729506Y-105700236D01*
X110814437Y-105623763D01*
X110907938Y-105557664D01*
X111009027Y-105502923D01*
X111116717Y-105460523D01*
X111230025Y-105431447D01*
X111243975Y-105428896D01*
X111293527Y-105422658D01*
X111353009Y-105418963D01*
X111417411Y-105417809D01*
X111481726Y-105419191D01*
G37*
D11*
%TO.C,R16*%
X110119999Y-112929879D02*
X110119999Y-113265121D01*
X110880001Y-112929879D02*
X110880001Y-113265121D01*
%TO.C,C4*%
X110360894Y-116055061D02*
X110548931Y-116279155D01*
X111142259Y-115399417D02*
X111330296Y-115623511D01*
%TO.C,C2*%
X104890000Y-113453733D02*
X104890000Y-113746267D01*
X105910000Y-113453733D02*
X105910000Y-113746267D01*
%TO.C,C5*%
X112640000Y-115584165D02*
X112640000Y-115815835D01*
X113360000Y-115584165D02*
X113360000Y-115815835D01*
%TO.C,D1*%
X102140000Y-112200000D02*
X102140000Y-115060000D01*
X102140000Y-115060000D02*
X104060000Y-115060000D01*
X104060000Y-115060000D02*
X104060000Y-112200000D01*
%TD*%
%LPC*%
D14*
%TO.C,REF\u002A\u002A*%
X111575000Y-120450000D03*
%TD*%
D15*
%TO.C,C1*%
X108462501Y-116400000D03*
X106737499Y-116400000D03*
%TD*%
D16*
%TO.C,IC2*%
X107350000Y-113400000D03*
D17*
X107275001Y-113900000D03*
X107275000Y-114400000D03*
X108725000Y-114400000D03*
X108724999Y-113900000D03*
X108725000Y-113400000D03*
%TD*%
D18*
%TO.C,R15*%
X111750000Y-113792500D03*
X111750000Y-112597500D03*
%TD*%
D19*
%TO.C,R18*%
X114000000Y-115190001D03*
X114000000Y-116209999D03*
%TD*%
D20*
%TO.C,D2*%
X113500000Y-113524999D03*
X113500000Y-111475001D03*
%TD*%
D19*
%TO.C,R17*%
X103000000Y-115600000D03*
X103000000Y-116619998D03*
%TD*%
D21*
%TO.C,R16*%
X110500000Y-112500000D03*
X110500000Y-113695000D03*
%TD*%
D14*
%TO.C,REF\u002A\u002A*%
X105225000Y-107750000D03*
%TD*%
D22*
%TO.C,C4*%
X110291190Y-115178572D03*
X111400000Y-116500000D03*
%TD*%
D23*
%TO.C,C2*%
X105400000Y-112737499D03*
X105400000Y-114462501D03*
%TD*%
D24*
%TO.C,C5*%
X113000000Y-115132500D03*
X113000000Y-116267500D03*
%TD*%
D20*
%TO.C,D1*%
X103100000Y-114224999D03*
X103100000Y-112175001D03*
%TD*%
D25*
%TO.C,J2*%
X103175000Y-118950000D03*
X107275000Y-118950000D03*
%TD*%
%TO.C,J1*%
X113625000Y-109250000D03*
X109525000Y-109250000D03*
%TD*%
%LPD*%
M02*
