%TF.GenerationSoftware,KiCad,Pcbnew,9.0.7*%
%TF.CreationDate,2026-03-31T12:59:19-05:00*%
%TF.ProjectId,color,636f6c6f-722e-46b6-9963-61645f706362,rev?*%
%TF.SameCoordinates,Original*%
%TF.FileFunction,Copper,L1,Top*%
%TF.FilePolarity,Positive*%
%FSLAX46Y46*%
G04 Gerber Fmt 4.6, Leading zero omitted, Abs format (unit mm)*
G04 Created by KiCad (PCBNEW 9.0.7) date 2026-03-31 12:59:19*
%MOMM*%
%LPD*%
G01*
G04 APERTURE LIST*
G04 Aperture macros list*
%AMRoundRect*
0 Rectangle with rounded corners*
0 $1 Rounding radius*
0 $2 $3 $4 $5 $6 $7 $8 $9 X,Y pos of 4 corners*
0 Add a 4 corners polygon primitive as box body*
4,1,4,$2,$3,$4,$5,$6,$7,$8,$9,$2,$3,0*
0 Add four circle primitives for the rounded corners*
1,1,$1+$1,$2,$3*
1,1,$1+$1,$4,$5*
1,1,$1+$1,$6,$7*
1,1,$1+$1,$8,$9*
0 Add four rect primitives between the rounded corners*
20,1,$1+$1,$2,$3,$4,$5,0*
20,1,$1+$1,$4,$5,$6,$7,0*
20,1,$1+$1,$6,$7,$8,$9,0*
20,1,$1+$1,$8,$9,$2,$3,0*%
G04 Aperture macros list end*
%TA.AperFunction,ComponentPad*%
%ADD10C,4.000000*%
%TD*%
%TA.AperFunction,SMDPad,CuDef*%
%ADD11RoundRect,0.237500X0.300000X0.237500X-0.300000X0.237500X-0.300000X-0.237500X0.300000X-0.237500X0*%
%TD*%
%TA.AperFunction,SMDPad,CuDef*%
%ADD12R,0.750000X0.250000*%
%TD*%
%TA.AperFunction,SMDPad,CuDef*%
%ADD13R,0.600000X0.250000*%
%TD*%
%TA.AperFunction,SMDPad,CuDef*%
%ADD14RoundRect,0.160000X0.160000X-0.197500X0.160000X0.197500X-0.160000X0.197500X-0.160000X-0.197500X0*%
%TD*%
%TA.AperFunction,SMDPad,CuDef*%
%ADD15RoundRect,0.135000X-0.185000X0.135000X-0.185000X-0.135000X0.185000X-0.135000X0.185000X0.135000X0*%
%TD*%
%TA.AperFunction,SMDPad,CuDef*%
%ADD16RoundRect,0.250000X0.450000X-0.325000X0.450000X0.325000X-0.450000X0.325000X-0.450000X-0.325000X0*%
%TD*%
%TA.AperFunction,SMDPad,CuDef*%
%ADD17RoundRect,0.160000X-0.160000X0.197500X-0.160000X-0.197500X0.160000X-0.197500X0.160000X0.197500X0*%
%TD*%
%TA.AperFunction,SMDPad,CuDef*%
%ADD18RoundRect,0.237500X-0.374772X0.077151X0.010901X-0.382475X0.374772X-0.077151X-0.010901X0.382475X0*%
%TD*%
%TA.AperFunction,SMDPad,CuDef*%
%ADD19RoundRect,0.237500X-0.237500X0.300000X-0.237500X-0.300000X0.237500X-0.300000X0.237500X0.300000X0*%
%TD*%
%TA.AperFunction,SMDPad,CuDef*%
%ADD20RoundRect,0.155000X-0.155000X0.212500X-0.155000X-0.212500X0.155000X-0.212500X0.155000X0.212500X0*%
%TD*%
%TA.AperFunction,ViaPad*%
%ADD21C,0.600000*%
%TD*%
%TA.AperFunction,Conductor*%
%ADD22C,0.200000*%
%TD*%
%TA.AperFunction,Conductor*%
%ADD23C,0.250000*%
%TD*%
%TA.AperFunction,Conductor*%
%ADD24C,0.150000*%
%TD*%
G04 APERTURE END LIST*
D10*
%TO.P,REF\u002A\u002A,*%
%TO.N,*%
X111575000Y-120450000D03*
%TD*%
D11*
%TO.P,C1,1*%
%TO.N,+3.3V*%
X108462501Y-116400000D03*
%TO.P,C1,2*%
%TO.N,GND*%
X106737499Y-116400000D03*
%TD*%
D12*
%TO.P,IC2,1,VDD*%
%TO.N,Net-(IC2-VDD)*%
X107350000Y-113400000D03*
D13*
%TO.P,IC2,2,NC*%
%TO.N,unconnected-(IC2-NC-Pad2)*%
X107275001Y-113900000D03*
%TO.P,IC2,3,GND*%
%TO.N,GND*%
X107275000Y-114400000D03*
%TO.P,IC2,4,SDA*%
%TO.N,/sda*%
X108725000Y-114400000D03*
%TO.P,IC2,5,~{INT}*%
%TO.N,Net-(IC2-~{INT})*%
X108724999Y-113900000D03*
%TO.P,IC2,6,SCL*%
%TO.N,/scl*%
X108725000Y-113400000D03*
%TD*%
D14*
%TO.P,R15,1*%
%TO.N,Net-(IC2-VDD)*%
X111750000Y-113792500D03*
%TO.P,R15,2*%
%TO.N,+3.3V*%
X111750000Y-112597500D03*
%TD*%
D15*
%TO.P,R18,1*%
%TO.N,Net-(D2-K)*%
X114000000Y-115190001D03*
%TO.P,R18,2*%
%TO.N,GND*%
X114000000Y-116209999D03*
%TD*%
D16*
%TO.P,D2,1,K*%
%TO.N,Net-(D2-K)*%
X113500000Y-113524999D03*
%TO.P,D2,2,A*%
%TO.N,+3.3V*%
X113500000Y-111475001D03*
%TD*%
D15*
%TO.P,R17,1*%
%TO.N,Net-(D1-K)*%
X103000000Y-115600000D03*
%TO.P,R17,2*%
%TO.N,GND*%
X103000000Y-116619998D03*
%TD*%
D17*
%TO.P,R16,1*%
%TO.N,+3.3V*%
X110500000Y-112500000D03*
%TO.P,R16,2*%
%TO.N,Net-(IC2-~{INT})*%
X110500000Y-113695000D03*
%TD*%
D10*
%TO.P,REF\u002A\u002A,*%
%TO.N,*%
X105225000Y-107750000D03*
%TD*%
D18*
%TO.P,C4,1*%
%TO.N,Net-(IC2-VDD)*%
X110291190Y-115178572D03*
%TO.P,C4,2*%
%TO.N,GND*%
X111400000Y-116500000D03*
%TD*%
D19*
%TO.P,C2,1*%
%TO.N,+3.3V*%
X105400000Y-112737499D03*
%TO.P,C2,2*%
%TO.N,GND*%
X105400000Y-114462501D03*
%TD*%
D20*
%TO.P,C5,1*%
%TO.N,Net-(IC2-VDD)*%
X113000000Y-115132500D03*
%TO.P,C5,2*%
%TO.N,GND*%
X113000000Y-116267500D03*
%TD*%
D16*
%TO.P,D1,1,K*%
%TO.N,Net-(D1-K)*%
X103100000Y-114224999D03*
%TO.P,D1,2,A*%
%TO.N,+3.3V*%
X103100000Y-112175001D03*
%TD*%
D21*
%TO.N,+3.3V*%
X109400000Y-117200000D03*
X111200000Y-114600000D03*
X112075000Y-111225000D03*
X109800000Y-107525000D03*
X104796410Y-116789160D03*
%TO.N,/scl*%
X108719087Y-112219087D03*
%TO.N,GND*%
X109700000Y-110500000D03*
X108400000Y-118800000D03*
%TO.N,/sda*%
X107000000Y-115200000D03*
%TO.N,Net-(IC2-VDD)*%
X108200000Y-111000000D03*
X109663132Y-114252042D03*
%TD*%
D22*
%TO.N,+3.3V*%
X111652500Y-112500000D02*
X111750000Y-112597500D01*
X105900000Y-117400000D02*
X109200000Y-117400000D01*
X111200000Y-114436715D02*
X111121000Y-114357715D01*
D23*
X105400000Y-112000000D02*
X105400000Y-111400000D01*
D22*
X111121000Y-112721000D02*
X110900000Y-112500000D01*
X111121000Y-114357715D02*
X111121000Y-112721000D01*
D23*
X108825000Y-107975000D02*
X109275000Y-107525000D01*
D22*
X113500000Y-111475001D02*
X112599999Y-111475001D01*
X103609999Y-112085000D02*
X103624999Y-112100000D01*
D23*
X104624999Y-112175001D02*
X103100000Y-112175001D01*
X109275000Y-107525000D02*
X109800000Y-107525000D01*
D22*
X112599999Y-111475001D02*
X112075000Y-112000000D01*
X109400000Y-117200000D02*
X109400000Y-116600000D01*
D23*
X112075000Y-111225000D02*
X112150000Y-111300000D01*
D22*
X103000000Y-112085000D02*
X103609999Y-112085000D01*
D23*
X105400000Y-112937499D02*
X105400000Y-112000000D01*
D22*
X104796410Y-116789160D02*
X105289160Y-116789160D01*
X109200000Y-117400000D02*
X109400000Y-117200000D01*
D23*
X105400000Y-111400000D02*
X105500000Y-111300000D01*
X105500000Y-111300000D02*
X104624999Y-112175001D01*
D22*
X109400000Y-116600000D02*
X109200000Y-116400000D01*
X110900000Y-112500000D02*
X110500000Y-112500000D01*
D23*
X108825000Y-107975000D02*
X105500000Y-111300000D01*
D22*
X111750000Y-112597500D02*
X112075000Y-112272500D01*
X105289160Y-116789160D02*
X105900000Y-117400000D01*
D23*
X113324999Y-111300000D02*
X113500000Y-111475001D01*
D22*
X111200000Y-114600000D02*
X111200000Y-114436715D01*
X109200000Y-116400000D02*
X108462501Y-116400000D01*
D23*
X112150000Y-111300000D02*
X113324999Y-111300000D01*
D22*
X112075000Y-112272500D02*
X112075000Y-112000000D01*
X110500000Y-112500000D02*
X111652500Y-112500000D01*
D24*
%TO.N,/scl*%
X108725000Y-113400000D02*
X108725000Y-112225000D01*
X108725000Y-112225000D02*
X108719087Y-112219087D01*
X108719087Y-112219087D02*
X108738174Y-112200000D01*
%TO.N,GND*%
X105400000Y-114662501D02*
X105400000Y-115062501D01*
X107752001Y-114400000D02*
X107275000Y-114400000D01*
X109900000Y-118000000D02*
X111400000Y-116500000D01*
X109700000Y-110500000D02*
X109623586Y-110500000D01*
X108000000Y-112123586D02*
X108000000Y-114152001D01*
X114000000Y-116209999D02*
X113057501Y-116209999D01*
X108400000Y-118800000D02*
X108400000Y-118751057D01*
X105662501Y-114400000D02*
X105400000Y-114662501D01*
X109623586Y-110500000D02*
X108000000Y-112123586D01*
D22*
X103242503Y-116619998D02*
X105400000Y-114462501D01*
D24*
X105400000Y-115062501D02*
X106737499Y-116400000D01*
X109151057Y-118000000D02*
X109900000Y-118000000D01*
X111632500Y-116267500D02*
X111400000Y-116500000D01*
D22*
X103000000Y-116619998D02*
X103242503Y-116619998D01*
D24*
X108400000Y-118751057D02*
X109151057Y-118000000D01*
X113057501Y-116209999D02*
X113000000Y-116267500D01*
X108000000Y-114152001D02*
X107752001Y-114400000D01*
X107275000Y-114400000D02*
X105662501Y-114400000D01*
X113000000Y-116267500D02*
X111632500Y-116267500D01*
%TO.N,/sda*%
X107000000Y-115200000D02*
X108000000Y-115200000D01*
X108725000Y-114475000D02*
X108725000Y-114400000D01*
X107000000Y-115200000D02*
X106800000Y-115200000D01*
X108000000Y-115200000D02*
X108725000Y-114475000D01*
%TO.N,Net-(IC2-VDD)*%
X111436016Y-115178572D02*
X111776000Y-114838588D01*
D22*
X109701000Y-114289910D02*
X109701000Y-114401000D01*
D24*
X109663132Y-114550514D02*
X109663132Y-114252042D01*
X111776000Y-113818500D02*
X111750000Y-113792500D01*
X107350000Y-111850000D02*
X108200000Y-111000000D01*
D22*
X109663132Y-114252042D02*
X109701000Y-114289910D01*
D24*
X113000000Y-115132500D02*
X113000000Y-115042500D01*
X113000000Y-115042500D02*
X111750000Y-113792500D01*
X107350000Y-113400000D02*
X107350000Y-111850000D01*
X110291190Y-115178572D02*
X109663132Y-114550514D01*
X110291190Y-115178572D02*
X111436016Y-115178572D01*
X111776000Y-114838588D02*
X111776000Y-113818500D01*
%TO.N,Net-(IC2-~{INT})*%
X110500000Y-113695000D02*
X110393000Y-113802000D01*
X109901720Y-113676042D02*
X109424544Y-113676042D01*
X110393000Y-113802000D02*
X110027678Y-113802000D01*
X109200586Y-113900000D02*
X108724999Y-113900000D01*
X110295000Y-113900000D02*
X110500000Y-113695000D01*
X109424544Y-113676042D02*
X109200586Y-113900000D01*
X110027678Y-113802000D02*
X109901720Y-113676042D01*
%TO.N,Net-(D1-K)*%
X103000000Y-114134998D02*
X103000000Y-115600000D01*
%TO.N,Net-(D2-K)*%
X114000000Y-115190001D02*
X114000000Y-114024999D01*
X114000000Y-114024999D02*
X113500000Y-113524999D01*
%TD*%
%TA.AperFunction,Conductor*%
%TO.N,GND*%
G36*
X103193039Y-116890185D02*
G01*
X103238794Y-116942989D01*
X103250000Y-116994500D01*
X103250000Y-117389928D01*
X103285122Y-117387165D01*
X103285128Y-117387164D01*
X103439188Y-117342405D01*
X103439189Y-117342405D01*
X103463486Y-117328036D01*
X103531210Y-117310852D01*
X103597473Y-117333011D01*
X103637093Y-117378471D01*
X103684123Y-117470771D01*
X103804438Y-117636373D01*
X103949196Y-117781131D01*
X104104159Y-117893716D01*
X104114800Y-117901447D01*
X104231017Y-117960663D01*
X104297186Y-117994378D01*
X104297188Y-117994378D01*
X104297191Y-117994380D01*
X104401547Y-118028287D01*
X104491875Y-118057637D01*
X104577899Y-118071262D01*
X104694058Y-118089660D01*
X104694059Y-118089660D01*
X104898759Y-118089660D01*
X104898762Y-118089660D01*
X104952518Y-118081145D01*
X105021808Y-118090099D01*
X105059595Y-118115937D01*
X105183072Y-118239414D01*
X105323212Y-118341232D01*
X105396131Y-118378386D01*
X105477549Y-118419871D01*
X105477551Y-118419871D01*
X105477554Y-118419873D01*
X105642299Y-118473402D01*
X105813389Y-118500500D01*
X105986611Y-118500500D01*
X106626347Y-118500500D01*
X106693386Y-118520185D01*
X106739141Y-118572989D01*
X106749085Y-118642147D01*
X106733734Y-118686500D01*
X106715424Y-118718213D01*
X106715423Y-118718216D01*
X106674500Y-118870943D01*
X106674500Y-119029057D01*
X106714102Y-119176852D01*
X106715423Y-119181783D01*
X106715426Y-119181790D01*
X106794475Y-119318709D01*
X106794479Y-119318714D01*
X106794480Y-119318716D01*
X106906284Y-119430520D01*
X106906286Y-119430521D01*
X106906290Y-119430524D01*
X107043209Y-119509573D01*
X107043216Y-119509577D01*
X107195943Y-119550500D01*
X107195945Y-119550500D01*
X107354055Y-119550500D01*
X107354057Y-119550500D01*
X107506784Y-119509577D01*
X107643716Y-119430520D01*
X107755520Y-119318716D01*
X107834577Y-119181784D01*
X107875500Y-119029057D01*
X107875500Y-118870943D01*
X107834577Y-118718216D01*
X107816266Y-118686500D01*
X107799793Y-118618599D01*
X107822646Y-118552573D01*
X107877567Y-118509382D01*
X107923653Y-118500500D01*
X109034403Y-118500500D01*
X109101442Y-118520185D01*
X109147197Y-118572989D01*
X109157141Y-118642147D01*
X109131352Y-118701809D01*
X109125386Y-118709289D01*
X109124049Y-118710967D01*
X108944752Y-118996316D01*
X108798532Y-119299945D01*
X108687227Y-119618034D01*
X108687223Y-119618046D01*
X108612233Y-119946602D01*
X108612231Y-119946618D01*
X108574500Y-120281491D01*
X108574500Y-120618508D01*
X108612231Y-120953381D01*
X108612233Y-120953397D01*
X108687223Y-121281953D01*
X108687227Y-121281965D01*
X108798532Y-121600054D01*
X108944752Y-121903683D01*
X108944754Y-121903686D01*
X109124054Y-122189039D01*
X109334175Y-122452523D01*
X109572477Y-122690825D01*
X109835961Y-122900946D01*
X110121314Y-123080246D01*
X110424949Y-123226469D01*
X110663848Y-123310063D01*
X110743034Y-123337772D01*
X110743046Y-123337776D01*
X111071606Y-123412767D01*
X111406492Y-123450499D01*
X111406493Y-123450500D01*
X111406496Y-123450500D01*
X111743507Y-123450500D01*
X111743507Y-123450499D01*
X112078394Y-123412767D01*
X112406954Y-123337776D01*
X112725051Y-123226469D01*
X113028686Y-123080246D01*
X113314039Y-122900946D01*
X113577523Y-122690825D01*
X113815825Y-122452523D01*
X114025946Y-122189039D01*
X114205246Y-121903686D01*
X114205249Y-121903680D01*
X114263780Y-121782140D01*
X114310602Y-121730280D01*
X114378029Y-121711967D01*
X114444653Y-121733015D01*
X114489322Y-121786741D01*
X114499500Y-121835941D01*
X114499500Y-123093038D01*
X114498720Y-123106921D01*
X114498720Y-123106922D01*
X114486033Y-123219515D01*
X114479855Y-123246585D01*
X114444745Y-123346925D01*
X114432697Y-123371943D01*
X114376140Y-123461953D01*
X114358827Y-123483662D01*
X114283662Y-123558827D01*
X114261953Y-123576140D01*
X114171943Y-123632697D01*
X114146925Y-123644745D01*
X114046585Y-123679855D01*
X114019516Y-123686033D01*
X113934855Y-123695572D01*
X113906921Y-123698720D01*
X113893039Y-123699500D01*
X102906961Y-123699500D01*
X102893077Y-123698720D01*
X102780484Y-123686033D01*
X102753414Y-123679855D01*
X102653074Y-123644745D01*
X102628056Y-123632697D01*
X102538046Y-123576140D01*
X102516337Y-123558827D01*
X102441172Y-123483662D01*
X102423859Y-123461953D01*
X102392953Y-123412767D01*
X102367301Y-123371941D01*
X102355254Y-123346925D01*
X102352051Y-123337772D01*
X102320143Y-123246583D01*
X102313966Y-123219514D01*
X102301280Y-123106921D01*
X102300500Y-123093038D01*
X102300500Y-118870943D01*
X102574500Y-118870943D01*
X102574500Y-119029057D01*
X102614102Y-119176852D01*
X102615423Y-119181783D01*
X102615426Y-119181790D01*
X102694475Y-119318709D01*
X102694479Y-119318714D01*
X102694480Y-119318716D01*
X102806284Y-119430520D01*
X102806286Y-119430521D01*
X102806290Y-119430524D01*
X102943209Y-119509573D01*
X102943216Y-119509577D01*
X103095943Y-119550500D01*
X103095945Y-119550500D01*
X103254055Y-119550500D01*
X103254057Y-119550500D01*
X103406784Y-119509577D01*
X103543716Y-119430520D01*
X103655520Y-119318716D01*
X103734577Y-119181784D01*
X103775500Y-119029057D01*
X103775500Y-118870943D01*
X103734577Y-118718216D01*
X103677064Y-118618599D01*
X103655524Y-118581290D01*
X103655518Y-118581282D01*
X103543717Y-118469481D01*
X103543709Y-118469475D01*
X103406790Y-118390426D01*
X103406786Y-118390424D01*
X103406784Y-118390423D01*
X103254057Y-118349500D01*
X103095943Y-118349500D01*
X102943216Y-118390423D01*
X102943209Y-118390426D01*
X102806290Y-118469475D01*
X102806282Y-118469481D01*
X102694481Y-118581282D01*
X102694475Y-118581290D01*
X102615426Y-118718209D01*
X102615423Y-118718216D01*
X102574500Y-118870943D01*
X102300500Y-118870943D01*
X102300500Y-117405853D01*
X102320185Y-117338814D01*
X102372989Y-117293059D01*
X102442147Y-117283115D01*
X102487622Y-117299121D01*
X102560811Y-117342406D01*
X102714871Y-117387164D01*
X102714877Y-117387165D01*
X102750000Y-117389929D01*
X102750000Y-116994500D01*
X102769685Y-116927461D01*
X102822489Y-116881706D01*
X102874000Y-116870500D01*
X103126000Y-116870500D01*
X103193039Y-116890185D01*
G37*
%TD.AperFunction*%
%TA.AperFunction,Conductor*%
G36*
X111629520Y-116402035D02*
G01*
X111671215Y-116434292D01*
X112258401Y-117134072D01*
X112258402Y-117134072D01*
X112286475Y-117110517D01*
X112341745Y-117053616D01*
X112402575Y-117019242D01*
X112472332Y-117023212D01*
X112493814Y-117033280D01*
X112582802Y-117085907D01*
X112582805Y-117085909D01*
X112741717Y-117132077D01*
X112741724Y-117132079D01*
X112749998Y-117132729D01*
X112750000Y-117132728D01*
X112750000Y-116624500D01*
X112769685Y-116557461D01*
X112822489Y-116511706D01*
X112874000Y-116500500D01*
X113126000Y-116500500D01*
X113193039Y-116520185D01*
X113238794Y-116572989D01*
X113250000Y-116624500D01*
X113250000Y-117132728D01*
X113250001Y-117132729D01*
X113258275Y-117132079D01*
X113258282Y-117132077D01*
X113417194Y-117085909D01*
X113417197Y-117085907D01*
X113559638Y-117001669D01*
X113561707Y-116999600D01*
X113563731Y-116998494D01*
X113565806Y-116996885D01*
X113566065Y-116997219D01*
X113623026Y-116966107D01*
X113683998Y-116968194D01*
X113714877Y-116977166D01*
X113750000Y-116979930D01*
X113750000Y-116584501D01*
X113769685Y-116517462D01*
X113822489Y-116471707D01*
X113874000Y-116460501D01*
X114126000Y-116460501D01*
X114193039Y-116480186D01*
X114238794Y-116532990D01*
X114250000Y-116584501D01*
X114250000Y-116979929D01*
X114285122Y-116977166D01*
X114285125Y-116977165D01*
X114340904Y-116960960D01*
X114410774Y-116961159D01*
X114469444Y-116999100D01*
X114498288Y-117062739D01*
X114499500Y-117080036D01*
X114499500Y-119064058D01*
X114479815Y-119131097D01*
X114427011Y-119176852D01*
X114357853Y-119186796D01*
X114294297Y-119157771D01*
X114263780Y-119117860D01*
X114205247Y-118996316D01*
X114126471Y-118870945D01*
X114025946Y-118710961D01*
X113815825Y-118447477D01*
X113577523Y-118209175D01*
X113314039Y-117999054D01*
X113028686Y-117819754D01*
X113028683Y-117819752D01*
X112725054Y-117673532D01*
X112406965Y-117562227D01*
X112406953Y-117562223D01*
X112078397Y-117487233D01*
X112078381Y-117487231D01*
X111932868Y-117470835D01*
X111868454Y-117443768D01*
X111851762Y-117427321D01*
X111288194Y-116755686D01*
X111260182Y-116691677D01*
X111271221Y-116622685D01*
X111303478Y-116580991D01*
X111496520Y-116419009D01*
X111560528Y-116390996D01*
X111629520Y-116402035D01*
G37*
%TD.AperFunction*%
%TA.AperFunction,Conductor*%
G36*
X105886432Y-114280656D02*
G01*
X105936190Y-114329707D01*
X105951529Y-114397872D01*
X105928104Y-114462794D01*
X105887714Y-114518386D01*
X105838888Y-114614215D01*
X105825744Y-114640012D01*
X105823306Y-114644796D01*
X105812856Y-114655860D01*
X105806534Y-114669704D01*
X105789353Y-114680745D01*
X105775331Y-114695592D01*
X105759651Y-114699833D01*
X105747756Y-114707478D01*
X105712821Y-114712501D01*
X105524000Y-114712501D01*
X105456961Y-114692816D01*
X105411206Y-114640012D01*
X105400000Y-114588501D01*
X105400000Y-114399499D01*
X105419685Y-114332460D01*
X105472489Y-114286705D01*
X105524000Y-114275499D01*
X105701076Y-114275499D01*
X105701084Y-114275499D01*
X105818060Y-114266293D01*
X105886432Y-114280656D01*
G37*
%TD.AperFunction*%
%TA.AperFunction,Conductor*%
G36*
X113906922Y-104501279D02*
G01*
X114019518Y-104513966D01*
X114046583Y-104520143D01*
X114146927Y-104555255D01*
X114171941Y-104567301D01*
X114261955Y-104623860D01*
X114283662Y-104641172D01*
X114358827Y-104716337D01*
X114376140Y-104738046D01*
X114432697Y-104828056D01*
X114444745Y-104853074D01*
X114479855Y-104953414D01*
X114486033Y-104980484D01*
X114498720Y-105093077D01*
X114499500Y-105106961D01*
X114499500Y-109839754D01*
X114479815Y-109906793D01*
X114427011Y-109952548D01*
X114357853Y-109962492D01*
X114345202Y-109959996D01*
X114204333Y-109924500D01*
X114146412Y-109909905D01*
X114106704Y-109906779D01*
X114041417Y-109881895D01*
X113999946Y-109825664D01*
X113995460Y-109755938D01*
X114028751Y-109695484D01*
X114105520Y-109618716D01*
X114184577Y-109481784D01*
X114225500Y-109329057D01*
X114225500Y-109170943D01*
X114184577Y-109018216D01*
X114155036Y-108967049D01*
X114105524Y-108881290D01*
X114105518Y-108881282D01*
X113993717Y-108769481D01*
X113993709Y-108769475D01*
X113856790Y-108690426D01*
X113856786Y-108690424D01*
X113856784Y-108690423D01*
X113704057Y-108649500D01*
X113545943Y-108649500D01*
X113393216Y-108690423D01*
X113393209Y-108690426D01*
X113256290Y-108769475D01*
X113256282Y-108769481D01*
X113144481Y-108881282D01*
X113144475Y-108881290D01*
X113065426Y-109018209D01*
X113065423Y-109018216D01*
X113024500Y-109170943D01*
X113024500Y-109329056D01*
X113065423Y-109481783D01*
X113065426Y-109481790D01*
X113144475Y-109618709D01*
X113144481Y-109618717D01*
X113213584Y-109687820D01*
X113247069Y-109749143D01*
X113242085Y-109818835D01*
X113200213Y-109874768D01*
X113134749Y-109899185D01*
X113125904Y-109899501D01*
X112985792Y-109899501D01*
X112985776Y-109899502D01*
X112853586Y-109909905D01*
X112853579Y-109909906D01*
X112635327Y-109964901D01*
X112635307Y-109964908D01*
X112583228Y-109988563D01*
X112514049Y-109998364D01*
X112493632Y-109993594D01*
X112379536Y-109956523D01*
X112379537Y-109956523D01*
X112227897Y-109932505D01*
X112177352Y-109924500D01*
X111972648Y-109924500D01*
X111948329Y-109928351D01*
X111770465Y-109956522D01*
X111575776Y-110019781D01*
X111393386Y-110112715D01*
X111227786Y-110233028D01*
X111083028Y-110377786D01*
X110962715Y-110543386D01*
X110869781Y-110725776D01*
X110806523Y-110920464D01*
X110806523Y-110920466D01*
X110788002Y-111037399D01*
X110758074Y-111100532D01*
X110698763Y-111137464D01*
X110665530Y-111142000D01*
X110268362Y-111142000D01*
X110178988Y-111148203D01*
X110178972Y-111148205D01*
X109969631Y-111197442D01*
X109969616Y-111197447D01*
X109772884Y-111284313D01*
X109772872Y-111284319D01*
X109769170Y-111286856D01*
X109740821Y-111296091D01*
X109713385Y-111307726D01*
X109707966Y-111306795D01*
X109702737Y-111308499D01*
X109673897Y-111300942D01*
X109644524Y-111295896D01*
X109638669Y-111291711D01*
X109635149Y-111290789D01*
X109615365Y-111276011D01*
X109613364Y-111274179D01*
X109566306Y-111227121D01*
X109545275Y-111211841D01*
X109540102Y-111207105D01*
X109525507Y-111182969D01*
X109508285Y-111160635D01*
X109507087Y-111152505D01*
X109503949Y-111147316D01*
X109504320Y-111133728D01*
X109500220Y-111105900D01*
X109500500Y-111102348D01*
X109500500Y-110897648D01*
X109468477Y-110695465D01*
X109425147Y-110562109D01*
X109405220Y-110500781D01*
X109405218Y-110500778D01*
X109405218Y-110500776D01*
X109343804Y-110380246D01*
X109312287Y-110318390D01*
X109250273Y-110233034D01*
X109191971Y-110152786D01*
X109047213Y-110008028D01*
X108881610Y-109887712D01*
X108881608Y-109887711D01*
X108783516Y-109837730D01*
X108763066Y-109818416D01*
X108740544Y-109801556D01*
X108738004Y-109794746D01*
X108732720Y-109789756D01*
X108725957Y-109762449D01*
X108716127Y-109736092D01*
X108717672Y-109728989D01*
X108715925Y-109721935D01*
X108724998Y-109695308D01*
X108730979Y-109667819D01*
X108737198Y-109659511D01*
X108738463Y-109655800D01*
X108752124Y-109639571D01*
X108830837Y-109560858D01*
X108892158Y-109527375D01*
X108961850Y-109532359D01*
X109017783Y-109574231D01*
X109025903Y-109586540D01*
X109044477Y-109618712D01*
X109044480Y-109618716D01*
X109156284Y-109730520D01*
X109156286Y-109730521D01*
X109156290Y-109730524D01*
X109279323Y-109801556D01*
X109293216Y-109809577D01*
X109445943Y-109850500D01*
X109445945Y-109850500D01*
X109604055Y-109850500D01*
X109604057Y-109850500D01*
X109756784Y-109809577D01*
X109893716Y-109730520D01*
X110005520Y-109618716D01*
X110084577Y-109481784D01*
X110125500Y-109329057D01*
X110125500Y-109170943D01*
X110084577Y-109018216D01*
X110055036Y-108967049D01*
X110038563Y-108899148D01*
X110061416Y-108833122D01*
X110116337Y-108789931D01*
X110124105Y-108787118D01*
X110124657Y-108786938D01*
X110299219Y-108730220D01*
X110481610Y-108637287D01*
X110574590Y-108569732D01*
X110647213Y-108516971D01*
X110647215Y-108516968D01*
X110647219Y-108516966D01*
X110791966Y-108372219D01*
X110791968Y-108372215D01*
X110791971Y-108372213D01*
X110844732Y-108299590D01*
X110912287Y-108206610D01*
X111005220Y-108024219D01*
X111068477Y-107829534D01*
X111100500Y-107627352D01*
X111100500Y-107422648D01*
X111068477Y-107220466D01*
X111005220Y-107025781D01*
X111005218Y-107025778D01*
X111005218Y-107025776D01*
X110950326Y-106918046D01*
X110912287Y-106843390D01*
X110904556Y-106832749D01*
X110791971Y-106677786D01*
X110647213Y-106533028D01*
X110481613Y-106412715D01*
X110481612Y-106412714D01*
X110481610Y-106412713D01*
X110424653Y-106383691D01*
X110299223Y-106319781D01*
X110104534Y-106256522D01*
X109929995Y-106228878D01*
X109902352Y-106224500D01*
X109697648Y-106224500D01*
X109630254Y-106235174D01*
X109495464Y-106256523D01*
X109495461Y-106256523D01*
X109300783Y-106319778D01*
X109142831Y-106400259D01*
X109105935Y-106412247D01*
X109011441Y-106427214D01*
X108842960Y-106481956D01*
X108842957Y-106481957D01*
X108685106Y-106562388D01*
X108568034Y-106647446D01*
X108541792Y-106666511D01*
X108541784Y-106666518D01*
X108298325Y-106909977D01*
X108237002Y-106943462D01*
X108167310Y-106938478D01*
X108111377Y-106896606D01*
X108093603Y-106863251D01*
X108028705Y-106677786D01*
X108001469Y-106599949D01*
X107855246Y-106296314D01*
X107675946Y-106010961D01*
X107465825Y-105747477D01*
X107227523Y-105509175D01*
X106964039Y-105299054D01*
X106678686Y-105119754D01*
X106678683Y-105119752D01*
X106375054Y-104973532D01*
X106056965Y-104862227D01*
X106056953Y-104862223D01*
X105728397Y-104787233D01*
X105728381Y-104787231D01*
X105393508Y-104749500D01*
X105393504Y-104749500D01*
X105056496Y-104749500D01*
X105056491Y-104749500D01*
X104721618Y-104787231D01*
X104721602Y-104787233D01*
X104393046Y-104862223D01*
X104393034Y-104862227D01*
X104074945Y-104973532D01*
X103771316Y-105119752D01*
X103485962Y-105299053D01*
X103222477Y-105509174D01*
X102984174Y-105747477D01*
X102774053Y-106010962D01*
X102594752Y-106296316D01*
X102536220Y-106417860D01*
X102489397Y-106469719D01*
X102421970Y-106488032D01*
X102355346Y-106466984D01*
X102310678Y-106413258D01*
X102300500Y-106364058D01*
X102300500Y-105106961D01*
X102301280Y-105093078D01*
X102313966Y-104980485D01*
X102313966Y-104980479D01*
X102320142Y-104953418D01*
X102355256Y-104853068D01*
X102367299Y-104828062D01*
X102423863Y-104738040D01*
X102441168Y-104716341D01*
X102516341Y-104641168D01*
X102538040Y-104623863D01*
X102628062Y-104567299D01*
X102653068Y-104555256D01*
X102753418Y-104520142D01*
X102780481Y-104513966D01*
X102877769Y-104503004D01*
X102893078Y-104501280D01*
X102906961Y-104500500D01*
X102957583Y-104500500D01*
X113842417Y-104500500D01*
X113893039Y-104500500D01*
X113906922Y-104501279D01*
G37*
%TD.AperFunction*%
%TD*%
%TA.AperFunction,NonConductor*%
G36*
X102505703Y-109042228D02*
G01*
X102536220Y-109082140D01*
X102594750Y-109203680D01*
X102594754Y-109203686D01*
X102774054Y-109489039D01*
X102877462Y-109618709D01*
X102981479Y-109749143D01*
X102984175Y-109752523D01*
X103222477Y-109990825D01*
X103485961Y-110200946D01*
X103765945Y-110376872D01*
X103812236Y-110429207D01*
X103822884Y-110498260D01*
X103794509Y-110562109D01*
X103736119Y-110600481D01*
X103690245Y-110605484D01*
X103614217Y-110599501D01*
X102585791Y-110599501D01*
X102585776Y-110599502D01*
X102453586Y-110609905D01*
X102448435Y-110610751D01*
X102448204Y-110609348D01*
X102384963Y-110606886D01*
X102327699Y-110566854D01*
X102301169Y-110502217D01*
X102300500Y-110489358D01*
X102300500Y-109135941D01*
X102320185Y-109068902D01*
X102372989Y-109023147D01*
X102442147Y-109013203D01*
X102505703Y-109042228D01*
G37*
%TD.AperFunction*%
M02*
